<?xml version="1.0" encoding="UTF-8" standalone="no"?>
<!DOCTYPE svg PUBLIC "-//W3C//DTD SVG 1.1//EN"
 "http://www.w3.org/Graphics/SVG/1.1/DTD/svg11.dtd">
<!-- Generated by graphviz version 2.40.1 (20161225.0304)
 -->
<!-- Title: oneDegreeRelationshipsDiagram Pages: 1 -->
<svg width="440pt" height="184pt"
 viewBox="0.00 0.00 440.00 184.20" xmlns="http://www.w3.org/2000/svg" xmlns:xlink="http://www.w3.org/1999/xlink">
<g id="graph0" class="graph" transform="scale(1 1) rotate(0) translate(4 180.2)">
<title>oneDegreeRelationshipsDiagram</title>
<polygon fill="#ffffff" stroke="transparent" points="-4,4 -4,-180.2 436,-180.2 436,4 -4,4"/>
<text text-anchor="middle" x="72.4936" y="-7.3" font-family="Helvetica,sans-Serif" font-size="11.00" fill="#000000">Generated by SchemaSpy</text>
<!-- topics -->
<g id="node1" class="node">
<title>topics</title>
<g id="a_node1"><a xlink:href="../../tables/topics.html" xlink:title="topics" target="_top">
<polygon fill="#ffffff" stroke="transparent" points="202,-38.2 202,-172.2 424,-172.2 424,-38.2 202,-38.2"/>
<polygon fill="#f5f5f5" stroke="transparent" points="204,-147.2 204,-170.2 422,-170.2 422,-147.2 204,-147.2"/>
<polygon fill="none" stroke="#000000" points="204,-147.2 204,-170.2 422,-170.2 422,-147.2 204,-147.2"/>
<text text-anchor="start" x="209" y="-155.8" font-family="Helvetica,sans-Serif" font-weight="bold" font-size="11.00" fill="#000000">topics</text>
<text text-anchor="start" x="387.0437" y="-155.3" font-family="Helvetica,sans-Serif" font-size="11.00" fill="#000000">[table]</text>
<polygon fill="none" stroke="#000000" points="204,-125.2 204,-147.2 313,-147.2 313,-125.2 204,-125.2"/>
<image xlink:href="../../images/primaryKeys.png" width="11px" height="12px" preserveAspectRatio="xMinYMin meet" x="209" y="-142.2"/>
<text text-anchor="start" x="224" y="-132.3" font-family="Helvetica,sans-Serif" font-size="11.00" fill="#000000">id</text>
<polygon fill="none" stroke="#000000" points="313,-125.2 313,-147.2 422,-147.2 422,-125.2 313,-125.2"/>
<text text-anchor="start" x="316" y="-132.9" font-family="Helvetica,sans-Serif" font-size="11.00" fill="#000000">serial[10]</text>
<polygon fill="#ffffff" stroke="transparent" points="204,-103.2 204,-125.2 313,-125.2 313,-103.2 204,-103.2"/>
<polygon fill="none" stroke="#000000" points="204,-103.2 204,-125.2 313,-125.2 313,-103.2 204,-103.2"/>
<image xlink:href="../../images/foreignKeys.png" width="11px" height="12px" preserveAspectRatio="xMinYMin meet" x="209" y="-120.2"/>
<text text-anchor="start" x="224" y="-110.3" font-family="Helvetica,sans-Serif" font-size="11.00" fill="#000000">summary_id</text>
<polygon fill="none" stroke="#000000" points="313,-103.2 313,-125.2 422,-125.2 422,-103.2 313,-103.2"/>
<text text-anchor="start" x="316" y="-110.9" font-family="Helvetica,sans-Serif" font-size="11.00" fill="#000000">uuid[2147483647]</text>
<polygon fill="none" stroke="#000000" points="204,-81.2 204,-103.2 313,-103.2 313,-81.2 204,-81.2"/>
<text text-anchor="start" x="224" y="-88.3" font-family="Helvetica,sans-Serif" font-size="11.00" fill="#000000">title</text>
<polygon fill="none" stroke="#000000" points="313,-81.2 313,-103.2 422,-103.2 422,-81.2 313,-81.2"/>
<text text-anchor="start" x="315.5344" y="-88.9" font-family="Helvetica,sans-Serif" font-size="11.00" fill="#000000">varchar[2147483647]</text>
<polygon fill="none" stroke="#000000" points="204,-59.2 204,-81.2 313,-81.2 313,-59.2 204,-59.2"/>
<text text-anchor="start" x="224" y="-66.3" font-family="Helvetica,sans-Serif" font-size="11.00" fill="#000000">summary</text>
<polygon fill="none" stroke="#000000" points="313,-59.2 313,-81.2 422,-81.2 422,-59.2 313,-59.2"/>
<text text-anchor="start" x="315.5344" y="-66.9" font-family="Helvetica,sans-Serif" font-size="11.00" fill="#000000">varchar[2147483647]</text>
<polygon fill="#ffffff" stroke="transparent" points="204,-40.2 204,-59.2 422,-59.2 422,-40.2 204,-40.2"/>
<polygon fill="none" stroke="#000000" points="204,-40.2 204,-59.2 422,-59.2 422,-40.2 204,-40.2"/>
<polygon fill="#ffffff" stroke="transparent" points="205,-41.2 205,-58.2 280,-58.2 280,-41.2 205,-41.2"/>
<text text-anchor="start" x="207" y="-46.3" font-family="Helvetica,sans-Serif" font-size="11.00" fill="#000000">&lt; 1</text>
<polygon fill="#ffffff" stroke="transparent" points="280,-41.2 280,-58.2 346,-58.2 346,-41.2 280,-41.2"/>
<text text-anchor="start" x="309.9431" y="-46.3" font-family="Helvetica,sans-Serif" font-size="11.00" fill="#000000"> &#160;</text>
<polygon fill="#ffffff" stroke="transparent" points="346,-41.2 346,-58.2 421,-58.2 421,-41.2 346,-41.2"/>
<text text-anchor="start" x="403.4053" y="-46.3" font-family="Helvetica,sans-Serif" font-size="11.00" fill="#000000">0 &gt;</text>
<polygon fill="#000000" stroke="#000000" points="280,-41.2 280,-58.2 280,-58.2 280,-41.2 280,-41.2"/>
<polygon fill="#000000" stroke="#000000" points="346,-41.2 346,-58.2 346,-58.2 346,-41.2 346,-41.2"/>
<polygon fill="none" stroke="#000000" stroke-width="2" points="203,-39.2 203,-171.2 423,-171.2 423,-39.2 203,-39.2"/>
</a>
</g>
</g>
<!-- summaries -->
<g id="node2" class="node">
<title>summaries</title>
<g id="a_node2"><a xlink:href="../../tables/summaries.html" xlink:title="summaries" target="_top">
<polygon fill="#ffffff" stroke="transparent" points="8,-43.7 8,-148.7 153,-148.7 153,-43.7 8,-43.7"/>
<polygon fill="#f5f5f5" stroke="transparent" points="8.5,-125.2 8.5,-148.2 153.5,-148.2 153.5,-125.2 8.5,-125.2"/>
<polygon fill="none" stroke="#000000" points="8.5,-125.2 8.5,-148.2 153.5,-148.2 153.5,-125.2 8.5,-125.2"/>
<text text-anchor="start" x="13.5" y="-133.8" font-family="Helvetica,sans-Serif" font-weight="bold" font-size="11.00" fill="#000000">summaries</text>
<text text-anchor="start" x="118.5437" y="-133.3" font-family="Helvetica,sans-Serif" font-size="11.00" fill="#000000">[table]</text>
<polygon fill="none" stroke="#000000" points="8.5,-103.2 8.5,-125.2 153.5,-125.2 153.5,-103.2 8.5,-103.2"/>
<image xlink:href="../../images/primaryKeys.png" width="11px" height="12px" preserveAspectRatio="xMinYMin meet" x="13.5" y="-120.2"/>
<text text-anchor="start" x="28.5" y="-110.3" font-family="Helvetica,sans-Serif" font-size="11.00" fill="#000000">id</text>
<polygon fill="#ffffff" stroke="transparent" points="8.5,-81.2 8.5,-103.2 153.5,-103.2 153.5,-81.2 8.5,-81.2"/>
<polygon fill="none" stroke="#000000" points="8.5,-81.2 8.5,-103.2 153.5,-103.2 153.5,-81.2 8.5,-81.2"/>
<text text-anchor="start" x="28.5" y="-88.3" font-family="Helvetica,sans-Serif" font-size="11.00" fill="#000000">content_hash</text>
<polygon fill="none" stroke="#000000" points="8.5,-62.2 8.5,-81.2 153.5,-81.2 153.5,-62.2 8.5,-62.2"/>
<text text-anchor="start" x="11.5" y="-68.3" font-family="Helvetica,sans-Serif" font-size="11.00" fill="#000000">...</text>
<polygon fill="#ffffff" stroke="transparent" points="8.5,-43.2 8.5,-62.2 153.5,-62.2 153.5,-43.2 8.5,-43.2"/>
<polygon fill="none" stroke="#000000" points="8.5,-43.2 8.5,-62.2 153.5,-62.2 153.5,-43.2 8.5,-43.2"/>
<polygon fill="#ffffff" stroke="transparent" points="9.5,-44.2 9.5,-61.2 54.5,-61.2 54.5,-44.2 9.5,-44.2"/>
<text text-anchor="start" x="11.5" y="-49.3" font-family="Helvetica,sans-Serif" font-size="11.00" fill="#000000"> &#160;</text>
<polygon fill="#ffffff" stroke="transparent" points="54.5,-44.2 54.5,-61.2 99.5,-61.2 99.5,-44.2 54.5,-44.2"/>
<text text-anchor="start" x="73.9431" y="-49.3" font-family="Helvetica,sans-Serif" font-size="11.00" fill="#000000"> &#160;</text>
<polygon fill="#ffffff" stroke="transparent" points="99.5,-44.2 99.5,-61.2 152.5,-61.2 152.5,-44.2 99.5,-44.2"/>
<text text-anchor="start" x="134.9053" y="-49.3" font-family="Helvetica,sans-Serif" font-size="11.00" fill="#000000">3 &gt;</text>
<polygon fill="#000000" stroke="#000000" points="54.5,-44.2 54.5,-61.2 54.5,-61.2 54.5,-44.2 54.5,-44.2"/>
<polygon fill="#000000" stroke="#000000" points="99.5,-44.2 99.5,-61.2 99.5,-61.2 99.5,-44.2 99.5,-44.2"/>
</a>
</g>
</g>
<!-- topics&#45;&gt;summaries -->
<g id="edge1" class="edge">
<title>topics:w&#45;&gt;summaries:e</title>
<path fill="none" stroke="#000000" d="M189.4203,-114.2C177.5435,-114.2 170.158,-114.2 153.5,-114.2"/>
<polygon fill="#000000" stroke="#000000" points="196,-114.2001 204,-117.8 200,-114.2 204,-114.2 204,-114.2 204,-114.2 200,-114.2 204,-110.6 196,-114.2001 196,-114.2001"/>
<ellipse fill="none" stroke="#000000" cx="192.8" cy="-114.2001" rx="3.2" ry="3.2"/>
</g>
</g>
</svg>
