<?xml version="1.0" encoding="UTF-8" standalone="no"?>
<!DOCTYPE svg PUBLIC "-//W3C//DTD SVG 1.1//EN"
 "http://www.w3.org/Graphics/SVG/1.1/DTD/svg11.dtd">
<!-- Generated by graphviz version 2.40.1 (20161225.0304)
 -->
<!-- Title: compactRelationshipsDiagram Pages: 1 -->
<svg width="894pt" height="968pt"
 viewBox="0.00 0.00 894.00 967.70" xmlns="http://www.w3.org/2000/svg" xmlns:xlink="http://www.w3.org/1999/xlink">
<g id="graph0" class="graph" transform="scale(1 1) rotate(0) translate(4 963.7)">
<title>compactRelationshipsDiagram</title>
<polygon fill="#ffffff" stroke="transparent" points="-4,4 -4,-963.7 890,-963.7 890,4 -4,4"/>
<text text-anchor="middle" x="72.4936" y="-7.3" font-family="Helvetica,sans-Serif" font-size="11.00" fill="#000000">Generated by SchemaSpy</text>
<!-- summary_groups -->
<g id="node1" class="node">
<title>summary_groups</title>
<g id="a_node1"><a xlink:href="../../tables/summary_groups.html" xlink:title="summary_groups" target="_top">
<polygon fill="#ffffff" stroke="transparent" points="282,-378.2 282,-505.2 446,-505.2 446,-378.2 282,-378.2"/>
<polygon fill="#f5f5f5" stroke="transparent" points="282,-481.7 282,-504.7 446,-504.7 446,-481.7 282,-481.7"/>
<polygon fill="none" stroke="#000000" points="282,-481.7 282,-504.7 446,-504.7 446,-481.7 282,-481.7"/>
<text text-anchor="start" x="287" y="-490.3" font-family="Helvetica,sans-Serif" font-weight="bold" font-size="11.00" fill="#000000">summary_groups</text>
<text text-anchor="start" x="411.5219" y="-489.8" font-family="Helvetica,sans-Serif" font-size="11.00" fill="#000000">[table]</text>
<polygon fill="none" stroke="#000000" points="282,-459.7 282,-481.7 446,-481.7 446,-459.7 282,-459.7"/>
<image xlink:href="../../images/primaryKeys.png" width="11px" height="12px" preserveAspectRatio="xMinYMin meet" x="287" y="-476.7"/>
<text text-anchor="start" x="311" y="-466.8" font-family="Helvetica,sans-Serif" font-size="11.00" fill="#000000">id</text>
<polygon fill="#ffffff" stroke="transparent" points="282,-437.7 282,-459.7 446,-459.7 446,-437.7 282,-437.7"/>
<polygon fill="none" stroke="#000000" points="282,-437.7 282,-459.7 446,-459.7 446,-437.7 282,-437.7"/>
<image xlink:href="../../images/foreignKeys.png" width="11px" height="12px" preserveAspectRatio="xMinYMin meet" x="287" y="-454.7"/>
<text text-anchor="start" x="311" y="-444.8" font-family="Helvetica,sans-Serif" font-size="11.00" fill="#000000">user_id</text>
<polygon fill="#ffffff" stroke="transparent" points="282,-415.7 282,-437.7 446,-437.7 446,-415.7 282,-415.7"/>
<polygon fill="none" stroke="#000000" points="282,-415.7 282,-437.7 446,-437.7 446,-415.7 282,-415.7"/>
<text text-anchor="start" x="311" y="-422.8" font-family="Helvetica,sans-Serif" font-size="11.00" fill="#000000">name</text>
<polygon fill="none" stroke="#000000" points="282,-396.7 282,-415.7 446,-415.7 446,-396.7 282,-396.7"/>
<text text-anchor="start" x="285" y="-402.8" font-family="Helvetica,sans-Serif" font-size="11.00" fill="#000000">...</text>
<polygon fill="#ffffff" stroke="transparent" points="282,-377.7 282,-396.7 446,-396.7 446,-377.7 282,-377.7"/>
<polygon fill="none" stroke="#000000" points="282,-377.7 282,-396.7 446,-396.7 446,-377.7 282,-377.7"/>
<polygon fill="#ffffff" stroke="transparent" points="283,-378.7 283,-395.7 340,-395.7 340,-378.7 283,-378.7"/>
<text text-anchor="start" x="285" y="-383.8" font-family="Helvetica,sans-Serif" font-size="11.00" fill="#000000">&lt; 1</text>
<polygon fill="#ffffff" stroke="transparent" points="340,-378.7 340,-395.7 388,-395.7 388,-378.7 340,-378.7"/>
<text text-anchor="start" x="360.9431" y="-383.8" font-family="Helvetica,sans-Serif" font-size="11.00" fill="#000000"> &#160;</text>
<polygon fill="#ffffff" stroke="transparent" points="388,-378.7 388,-395.7 445,-395.7 445,-378.7 388,-378.7"/>
<text text-anchor="start" x="427.4053" y="-383.8" font-family="Helvetica,sans-Serif" font-size="11.00" fill="#000000">1 &gt;</text>
<polygon fill="#000000" stroke="#000000" points="340,-378.7 340,-395.7 340,-395.7 340,-378.7 340,-378.7"/>
<polygon fill="#000000" stroke="#000000" points="388,-378.7 388,-395.7 388,-395.7 388,-378.7 388,-378.7"/>
</a>
</g>
</g>
<!-- users -->
<g id="node8" class="node">
<title>users</title>
<g id="a_node8"><a xlink:href="../../tables/users.html" xlink:title="users" target="_top">
<polygon fill="#ffffff" stroke="transparent" points="130,-326.2 130,-409.2 233,-409.2 233,-326.2 130,-326.2"/>
<polygon fill="#f5f5f5" stroke="transparent" points="130.5,-385.7 130.5,-408.7 233.5,-408.7 233.5,-385.7 130.5,-385.7"/>
<polygon fill="none" stroke="#000000" points="130.5,-385.7 130.5,-408.7 233.5,-408.7 233.5,-385.7 130.5,-385.7"/>
<text text-anchor="start" x="135.5" y="-394.3" font-family="Helvetica,sans-Serif" font-weight="bold" font-size="11.00" fill="#000000">users</text>
<text text-anchor="start" x="198.5437" y="-393.8" font-family="Helvetica,sans-Serif" font-size="11.00" fill="#000000">[table]</text>
<polygon fill="none" stroke="#000000" points="130.5,-363.7 130.5,-385.7 233.5,-385.7 233.5,-363.7 130.5,-363.7"/>
<image xlink:href="../../images/primaryKeys.png" width="11px" height="12px" preserveAspectRatio="xMinYMin meet" x="135.5" y="-380.7"/>
<text text-anchor="start" x="150.5" y="-370.8" font-family="Helvetica,sans-Serif" font-size="11.00" fill="#000000">id</text>
<polygon fill="none" stroke="#000000" points="130.5,-344.7 130.5,-363.7 233.5,-363.7 233.5,-344.7 130.5,-344.7"/>
<text text-anchor="start" x="133.5" y="-350.8" font-family="Helvetica,sans-Serif" font-size="11.00" fill="#000000">...</text>
<polygon fill="#ffffff" stroke="transparent" points="130.5,-325.7 130.5,-344.7 233.5,-344.7 233.5,-325.7 130.5,-325.7"/>
<polygon fill="none" stroke="#000000" points="130.5,-325.7 130.5,-344.7 233.5,-344.7 233.5,-325.7 130.5,-325.7"/>
<polygon fill="#ffffff" stroke="transparent" points="131.5,-326.7 131.5,-343.7 162.5,-343.7 162.5,-326.7 131.5,-326.7"/>
<text text-anchor="start" x="133.5" y="-331.8" font-family="Helvetica,sans-Serif" font-size="11.00" fill="#000000"> &#160;</text>
<polygon fill="#ffffff" stroke="transparent" points="162.5,-326.7 162.5,-343.7 193.5,-343.7 193.5,-326.7 162.5,-326.7"/>
<text text-anchor="start" x="174.9431" y="-331.8" font-family="Helvetica,sans-Serif" font-size="11.00" fill="#000000"> &#160;</text>
<polygon fill="#ffffff" stroke="transparent" points="193.5,-326.7 193.5,-343.7 232.5,-343.7 232.5,-326.7 193.5,-326.7"/>
<text text-anchor="start" x="214.9053" y="-331.8" font-family="Helvetica,sans-Serif" font-size="11.00" fill="#000000">4 &gt;</text>
<polygon fill="#000000" stroke="#000000" points="162.5,-326.7 162.5,-343.7 162.5,-343.7 162.5,-326.7 162.5,-326.7"/>
<polygon fill="#000000" stroke="#000000" points="193.5,-326.7 193.5,-343.7 193.5,-343.7 193.5,-326.7 193.5,-326.7"/>
</a>
</g>
</g>
<!-- summary_groups&#45;&gt;users -->
<g id="edge6" class="edge">
<title>summary_groups:w&#45;&gt;users:e</title>
<path fill="none" stroke="#000000" d="M268.1253,-443.8447C250.4015,-427.3816 266.679,-374.7 233.5,-374.7"/>
<polygon fill="#000000" stroke="#000000" points="274.449,-446.0575 280.8109,-452.098 278.2245,-447.3788 282,-448.7 282,-448.7 282,-448.7 278.2245,-447.3788 283.1891,-445.302 274.449,-446.0575 274.449,-446.0575"/>
<ellipse fill="none" stroke="#000000" cx="271.4286" cy="-445.0006" rx="3.2" ry="3.2"/>
</g>
<!-- topics -->
<g id="node2" class="node">
<title>topics</title>
<g id="a_node2"><a xlink:href="../../tables/topics.html" xlink:title="topics" target="_top">
<polygon fill="#ffffff" stroke="transparent" points="729,-695.2 729,-800.2 838,-800.2 838,-695.2 729,-695.2"/>
<polygon fill="#f5f5f5" stroke="transparent" points="729.5,-776.7 729.5,-799.7 838.5,-799.7 838.5,-776.7 729.5,-776.7"/>
<polygon fill="none" stroke="#000000" points="729.5,-776.7 729.5,-799.7 838.5,-799.7 838.5,-776.7 729.5,-776.7"/>
<text text-anchor="start" x="734.5" y="-785.3" font-family="Helvetica,sans-Serif" font-weight="bold" font-size="11.00" fill="#000000">topics</text>
<text text-anchor="start" x="803.5437" y="-784.8" font-family="Helvetica,sans-Serif" font-size="11.00" fill="#000000">[table]</text>
<polygon fill="none" stroke="#000000" points="729.5,-754.7 729.5,-776.7 838.5,-776.7 838.5,-754.7 729.5,-754.7"/>
<image xlink:href="../../images/primaryKeys.png" width="11px" height="12px" preserveAspectRatio="xMinYMin meet" x="734.5" y="-771.7"/>
<text text-anchor="start" x="749.5" y="-761.8" font-family="Helvetica,sans-Serif" font-size="11.00" fill="#000000">id</text>
<polygon fill="#ffffff" stroke="transparent" points="729.5,-732.7 729.5,-754.7 838.5,-754.7 838.5,-732.7 729.5,-732.7"/>
<polygon fill="none" stroke="#000000" points="729.5,-732.7 729.5,-754.7 838.5,-754.7 838.5,-732.7 729.5,-732.7"/>
<image xlink:href="../../images/foreignKeys.png" width="11px" height="12px" preserveAspectRatio="xMinYMin meet" x="734.5" y="-749.7"/>
<text text-anchor="start" x="749.5" y="-739.8" font-family="Helvetica,sans-Serif" font-size="11.00" fill="#000000">summary_id</text>
<polygon fill="none" stroke="#000000" points="729.5,-713.7 729.5,-732.7 838.5,-732.7 838.5,-713.7 729.5,-713.7"/>
<text text-anchor="start" x="732.5" y="-719.8" font-family="Helvetica,sans-Serif" font-size="11.00" fill="#000000">...</text>
<polygon fill="#ffffff" stroke="transparent" points="729.5,-694.7 729.5,-713.7 838.5,-713.7 838.5,-694.7 729.5,-694.7"/>
<polygon fill="none" stroke="#000000" points="729.5,-694.7 729.5,-713.7 838.5,-713.7 838.5,-694.7 729.5,-694.7"/>
<polygon fill="#ffffff" stroke="transparent" points="730.5,-695.7 730.5,-712.7 772.5,-712.7 772.5,-695.7 730.5,-695.7"/>
<text text-anchor="start" x="732.5" y="-700.8" font-family="Helvetica,sans-Serif" font-size="11.00" fill="#000000">&lt; 1</text>
<polygon fill="#ffffff" stroke="transparent" points="772.5,-695.7 772.5,-712.7 805.5,-712.7 805.5,-695.7 772.5,-695.7"/>
<text text-anchor="start" x="785.9431" y="-700.8" font-family="Helvetica,sans-Serif" font-size="11.00" fill="#000000"> &#160;</text>
<polygon fill="#ffffff" stroke="transparent" points="805.5,-695.7 805.5,-712.7 837.5,-712.7 837.5,-695.7 805.5,-695.7"/>
<text text-anchor="start" x="829.3862" y="-700.8" font-family="Helvetica,sans-Serif" font-size="11.00" fill="#000000"> &#160;</text>
<polygon fill="#000000" stroke="#000000" points="772.5,-695.7 772.5,-712.7 772.5,-712.7 772.5,-695.7 772.5,-695.7"/>
<polygon fill="#000000" stroke="#000000" points="805.5,-695.7 805.5,-712.7 805.5,-712.7 805.5,-695.7 805.5,-695.7"/>
</a>
</g>
</g>
<!-- summaries -->
<g id="node4" class="node">
<title>summaries</title>
<g id="a_node4"><a xlink:href="../../tables/summaries.html" xlink:title="summaries" target="_top">
<polygon fill="#ffffff" stroke="transparent" points="495,-440.2 495,-589.2 640,-589.2 640,-440.2 495,-440.2"/>
<polygon fill="#f5f5f5" stroke="transparent" points="495.5,-565.7 495.5,-588.7 640.5,-588.7 640.5,-565.7 495.5,-565.7"/>
<polygon fill="none" stroke="#000000" points="495.5,-565.7 495.5,-588.7 640.5,-588.7 640.5,-565.7 495.5,-565.7"/>
<text text-anchor="start" x="500.5" y="-574.3" font-family="Helvetica,sans-Serif" font-weight="bold" font-size="11.00" fill="#000000">summaries</text>
<text text-anchor="start" x="605.5437" y="-573.8" font-family="Helvetica,sans-Serif" font-size="11.00" fill="#000000">[table]</text>
<polygon fill="none" stroke="#000000" points="495.5,-543.7 495.5,-565.7 640.5,-565.7 640.5,-543.7 495.5,-543.7"/>
<image xlink:href="../../images/primaryKeys.png" width="11px" height="12px" preserveAspectRatio="xMinYMin meet" x="500.5" y="-560.7"/>
<text text-anchor="start" x="515.5" y="-550.8" font-family="Helvetica,sans-Serif" font-size="11.00" fill="#000000">id</text>
<polygon fill="#ffffff" stroke="transparent" points="495.5,-521.7 495.5,-543.7 640.5,-543.7 640.5,-521.7 495.5,-521.7"/>
<polygon fill="none" stroke="#000000" points="495.5,-521.7 495.5,-543.7 640.5,-543.7 640.5,-521.7 495.5,-521.7"/>
<text text-anchor="start" x="515.5" y="-528.8" font-family="Helvetica,sans-Serif" font-size="11.00" fill="#000000">content_hash</text>
<polygon fill="#ffffff" stroke="transparent" points="495.5,-499.7 495.5,-521.7 640.5,-521.7 640.5,-499.7 495.5,-499.7"/>
<polygon fill="none" stroke="#000000" points="495.5,-499.7 495.5,-521.7 640.5,-521.7 640.5,-499.7 495.5,-499.7"/>
<image xlink:href="../../images/foreignKeys.png" width="11px" height="12px" preserveAspectRatio="xMinYMin meet" x="500.5" y="-516.7"/>
<text text-anchor="start" x="515.5" y="-506.8" font-family="Helvetica,sans-Serif" font-size="11.00" fill="#000000">user_id</text>
<polygon fill="#ffffff" stroke="transparent" points="495.5,-477.7 495.5,-499.7 640.5,-499.7 640.5,-477.7 495.5,-477.7"/>
<polygon fill="none" stroke="#000000" points="495.5,-477.7 495.5,-499.7 640.5,-499.7 640.5,-477.7 495.5,-477.7"/>
<image xlink:href="../../images/foreignKeys.png" width="11px" height="12px" preserveAspectRatio="xMinYMin meet" x="500.5" y="-494.7"/>
<text text-anchor="start" x="515.5" y="-484.8" font-family="Helvetica,sans-Serif" font-size="11.00" fill="#000000">group_id</text>
<polygon fill="none" stroke="#000000" points="495.5,-458.7 495.5,-477.7 640.5,-477.7 640.5,-458.7 495.5,-458.7"/>
<text text-anchor="start" x="498.5" y="-464.8" font-family="Helvetica,sans-Serif" font-size="11.00" fill="#000000">...</text>
<polygon fill="#ffffff" stroke="transparent" points="495.5,-439.7 495.5,-458.7 640.5,-458.7 640.5,-439.7 495.5,-439.7"/>
<polygon fill="none" stroke="#000000" points="495.5,-439.7 495.5,-458.7 640.5,-458.7 640.5,-439.7 495.5,-439.7"/>
<polygon fill="#ffffff" stroke="transparent" points="496.5,-440.7 496.5,-457.7 547.5,-457.7 547.5,-440.7 496.5,-440.7"/>
<text text-anchor="start" x="498.5" y="-445.8" font-family="Helvetica,sans-Serif" font-size="11.00" fill="#000000">&lt; 2</text>
<polygon fill="#ffffff" stroke="transparent" points="547.5,-440.7 547.5,-457.7 589.5,-457.7 589.5,-440.7 547.5,-440.7"/>
<text text-anchor="start" x="565.4431" y="-445.8" font-family="Helvetica,sans-Serif" font-size="11.00" fill="#000000"> &#160;</text>
<polygon fill="#ffffff" stroke="transparent" points="589.5,-440.7 589.5,-457.7 639.5,-457.7 639.5,-440.7 589.5,-440.7"/>
<text text-anchor="start" x="621.9053" y="-445.8" font-family="Helvetica,sans-Serif" font-size="11.00" fill="#000000">4 &gt;</text>
<polygon fill="#000000" stroke="#000000" points="547.5,-440.7 547.5,-457.7 547.5,-457.7 547.5,-440.7 547.5,-440.7"/>
<polygon fill="#000000" stroke="#000000" points="589.5,-440.7 589.5,-457.7 589.5,-457.7 589.5,-440.7 589.5,-440.7"/>
</a>
</g>
</g>
<!-- topics&#45;&gt;summaries -->
<g id="edge7" class="edge">
<title>topics:w&#45;&gt;summaries:e</title>
<path fill="none" stroke="#000000" d="M715.1489,-741.369C695.5835,-733.8933 694.4169,-709.5528 681,-684.7 652.2516,-631.4478 701.0167,-554.7 640.5,-554.7"/>
<polygon fill="#000000" stroke="#000000" points="721.6035,-742.4173 728.9228,-747.2534 725.5517,-743.0587 729.5,-743.7 729.5,-743.7 729.5,-743.7 725.5517,-743.0587 730.0772,-740.1466 721.6035,-742.4173 721.6035,-742.4173"/>
<ellipse fill="none" stroke="#000000" cx="718.4449" cy="-741.9043" rx="3.2" ry="3.2"/>
</g>
<!-- decisions -->
<g id="node3" class="node">
<title>decisions</title>
<g id="a_node3"><a xlink:href="../../tables/decisions.html" xlink:title="decisions" target="_top">
<polygon fill="#ffffff" stroke="transparent" points="729,-569.2 729,-674.2 838,-674.2 838,-569.2 729,-569.2"/>
<polygon fill="#f5f5f5" stroke="transparent" points="729.5,-650.7 729.5,-673.7 838.5,-673.7 838.5,-650.7 729.5,-650.7"/>
<polygon fill="none" stroke="#000000" points="729.5,-650.7 729.5,-673.7 838.5,-673.7 838.5,-650.7 729.5,-650.7"/>
<text text-anchor="start" x="734.5" y="-659.3" font-family="Helvetica,sans-Serif" font-weight="bold" font-size="11.00" fill="#000000">decisions</text>
<text text-anchor="start" x="803.5437" y="-658.8" font-family="Helvetica,sans-Serif" font-size="11.00" fill="#000000">[table]</text>
<polygon fill="none" stroke="#000000" points="729.5,-628.7 729.5,-650.7 838.5,-650.7 838.5,-628.7 729.5,-628.7"/>
<image xlink:href="../../images/primaryKeys.png" width="11px" height="12px" preserveAspectRatio="xMinYMin meet" x="734.5" y="-645.7"/>
<text text-anchor="start" x="749.5" y="-635.8" font-family="Helvetica,sans-Serif" font-size="11.00" fill="#000000">id</text>
<polygon fill="#ffffff" stroke="transparent" points="729.5,-606.7 729.5,-628.7 838.5,-628.7 838.5,-606.7 729.5,-606.7"/>
<polygon fill="none" stroke="#000000" points="729.5,-606.7 729.5,-628.7 838.5,-628.7 838.5,-606.7 729.5,-606.7"/>
<image xlink:href="../../images/foreignKeys.png" width="11px" height="12px" preserveAspectRatio="xMinYMin meet" x="734.5" y="-623.7"/>
<text text-anchor="start" x="749.5" y="-613.8" font-family="Helvetica,sans-Serif" font-size="11.00" fill="#000000">summary_id</text>
<polygon fill="none" stroke="#000000" points="729.5,-587.7 729.5,-606.7 838.5,-606.7 838.5,-587.7 729.5,-587.7"/>
<text text-anchor="start" x="732.5" y="-593.8" font-family="Helvetica,sans-Serif" font-size="11.00" fill="#000000">...</text>
<polygon fill="#ffffff" stroke="transparent" points="729.5,-568.7 729.5,-587.7 838.5,-587.7 838.5,-568.7 729.5,-568.7"/>
<polygon fill="none" stroke="#000000" points="729.5,-568.7 729.5,-587.7 838.5,-587.7 838.5,-568.7 729.5,-568.7"/>
<polygon fill="#ffffff" stroke="transparent" points="730.5,-569.7 730.5,-586.7 772.5,-586.7 772.5,-569.7 730.5,-569.7"/>
<text text-anchor="start" x="732.5" y="-574.8" font-family="Helvetica,sans-Serif" font-size="11.00" fill="#000000">&lt; 1</text>
<polygon fill="#ffffff" stroke="transparent" points="772.5,-569.7 772.5,-586.7 805.5,-586.7 805.5,-569.7 772.5,-569.7"/>
<text text-anchor="start" x="785.9431" y="-574.8" font-family="Helvetica,sans-Serif" font-size="11.00" fill="#000000"> &#160;</text>
<polygon fill="#ffffff" stroke="transparent" points="805.5,-569.7 805.5,-586.7 837.5,-586.7 837.5,-569.7 805.5,-569.7"/>
<text text-anchor="start" x="829.3862" y="-574.8" font-family="Helvetica,sans-Serif" font-size="11.00" fill="#000000"> &#160;</text>
<polygon fill="#000000" stroke="#000000" points="772.5,-569.7 772.5,-586.7 772.5,-586.7 772.5,-569.7 772.5,-569.7"/>
<polygon fill="#000000" stroke="#000000" points="805.5,-569.7 805.5,-586.7 805.5,-586.7 805.5,-569.7 805.5,-569.7"/>
</a>
</g>
</g>
<!-- decisions&#45;&gt;summaries -->
<g id="edge2" class="edge">
<title>decisions:w&#45;&gt;summaries:e</title>
<path fill="none" stroke="#000000" d="M715.0371,-615.4578C682.1092,-604.235 683.4729,-554.7 640.5,-554.7"/>
<polygon fill="#000000" stroke="#000000" points="721.5944,-616.4743 728.9485,-621.2575 725.5472,-617.0872 729.5,-617.7 729.5,-617.7 729.5,-617.7 725.5472,-617.0872 730.0515,-614.1425 721.5944,-616.4743 721.5944,-616.4743"/>
<ellipse fill="none" stroke="#000000" cx="718.4322" cy="-615.9841" rx="3.2" ry="3.2"/>
</g>
<!-- summaries&#45;&gt;summary_groups -->
<g id="edge4" class="edge">
<title>summaries:w&#45;&gt;summary_groups:e</title>
<path fill="none" stroke="#000000" d="M481.1817,-485.8875C469.4545,-480.825 463.557,-470.7 446,-470.7"/>
<polygon fill="#000000" stroke="#000000" points="487.65,-487.158 494.8061,-492.2325 491.575,-487.929 495.5,-488.7 495.5,-488.7 495.5,-488.7 491.575,-487.929 496.1939,-485.1675 487.65,-487.158 487.65,-487.158"/>
<ellipse fill="none" stroke="#000000" cx="484.51" cy="-486.5412" rx="3.2" ry="3.2"/>
</g>
<!-- summaries&#45;&gt;users -->
<g id="edge5" class="edge">
<title>summaries:w&#45;&gt;users:e</title>
<path fill="none" stroke="#000000" d="M481.0864,-511.6775C472.6642,-512.9054 466.6044,-514.9434 454,-515.7 374.1437,-520.4933 337.9017,-563.8308 274,-515.7 221.9197,-476.4731 298.7005,-374.7 233.5,-374.7"/>
<polygon fill="#000000" stroke="#000000" points="487.5183,-511.2413 495.7436,-514.2917 491.5092,-510.9707 495.5,-510.7 495.5,-510.7 495.5,-510.7 491.5092,-510.9707 495.2564,-507.1083 487.5183,-511.2413 487.5183,-511.2413"/>
<ellipse fill="none" stroke="#000000" cx="484.3257" cy="-511.4579" rx="3.2" ry="3.2"/>
</g>
<!-- transcript_segments -->
<g id="node5" class="node">
<title>transcript_segments</title>
<g id="a_node5"><a xlink:href="../../tables/transcript_segments.html" xlink:title="transcript_segments" target="_top">
<polygon fill="#ffffff" stroke="transparent" points="689,-421.2 689,-548.2 878,-548.2 878,-421.2 689,-421.2"/>
<polygon fill="#f5f5f5" stroke="transparent" points="689.5,-524.7 689.5,-547.7 878.5,-547.7 878.5,-524.7 689.5,-524.7"/>
<polygon fill="none" stroke="#000000" points="689.5,-524.7 689.5,-547.7 878.5,-547.7 878.5,-524.7 689.5,-524.7"/>
<text text-anchor="start" x="694.5" y="-533.3" font-family="Helvetica,sans-Serif" font-weight="bold" font-size="11.00" fill="#000000">transcript_segments</text>
<text text-anchor="start" x="844.0219" y="-532.8" font-family="Helvetica,sans-Serif" font-size="11.00" fill="#000000">[table]</text>
<polygon fill="none" stroke="#000000" points="689.5,-502.7 689.5,-524.7 878.5,-524.7 878.5,-502.7 689.5,-502.7"/>
<image xlink:href="../../images/primaryKeys.png" width="11px" height="12px" preserveAspectRatio="xMinYMin meet" x="694.5" y="-519.7"/>
<text text-anchor="start" x="718.5" y="-509.8" font-family="Helvetica,sans-Serif" font-size="11.00" fill="#000000">id</text>
<polygon fill="#ffffff" stroke="transparent" points="689.5,-480.7 689.5,-502.7 878.5,-502.7 878.5,-480.7 689.5,-480.7"/>
<polygon fill="none" stroke="#000000" points="689.5,-480.7 689.5,-502.7 878.5,-502.7 878.5,-480.7 689.5,-480.7"/>
<image xlink:href="../../images/foreignKeys.png" width="11px" height="12px" preserveAspectRatio="xMinYMin meet" x="694.5" y="-497.7"/>
<text text-anchor="start" x="718.5" y="-487.8" font-family="Helvetica,sans-Serif" font-size="11.00" fill="#000000">summary_id</text>
<polygon fill="#ffffff" stroke="transparent" points="689.5,-458.7 689.5,-480.7 878.5,-480.7 878.5,-458.7 689.5,-458.7"/>
<polygon fill="none" stroke="#000000" points="689.5,-458.7 689.5,-480.7 878.5,-480.7 878.5,-458.7 689.5,-458.7"/>
<text text-anchor="start" x="718.5" y="-465.8" font-family="Helvetica,sans-Serif" font-size="11.00" fill="#000000">rank</text>
<polygon fill="none" stroke="#000000" points="689.5,-439.7 689.5,-458.7 878.5,-458.7 878.5,-439.7 689.5,-439.7"/>
<text text-anchor="start" x="692.5" y="-445.8" font-family="Helvetica,sans-Serif" font-size="11.00" fill="#000000">...</text>
<polygon fill="#ffffff" stroke="transparent" points="689.5,-420.7 689.5,-439.7 878.5,-439.7 878.5,-420.7 689.5,-420.7"/>
<polygon fill="none" stroke="#000000" points="689.5,-420.7 689.5,-439.7 878.5,-439.7 878.5,-420.7 689.5,-420.7"/>
<polygon fill="#ffffff" stroke="transparent" points="690.5,-421.7 690.5,-438.7 759.5,-438.7 759.5,-421.7 690.5,-421.7"/>
<text text-anchor="start" x="692.5" y="-426.8" font-family="Helvetica,sans-Serif" font-size="11.00" fill="#000000">&lt; 1</text>
<polygon fill="#ffffff" stroke="transparent" points="759.5,-421.7 759.5,-438.7 818.5,-438.7 818.5,-421.7 759.5,-421.7"/>
<text text-anchor="start" x="785.9431" y="-426.8" font-family="Helvetica,sans-Serif" font-size="11.00" fill="#000000"> &#160;</text>
<polygon fill="#ffffff" stroke="transparent" points="818.5,-421.7 818.5,-438.7 877.5,-438.7 877.5,-421.7 818.5,-421.7"/>
<text text-anchor="start" x="869.3862" y="-426.8" font-family="Helvetica,sans-Serif" font-size="11.00" fill="#000000"> &#160;</text>
<polygon fill="#000000" stroke="#000000" points="759.5,-421.7 759.5,-438.7 759.5,-438.7 759.5,-421.7 759.5,-421.7"/>
<polygon fill="#000000" stroke="#000000" points="818.5,-421.7 818.5,-438.7 818.5,-438.7 818.5,-421.7 818.5,-421.7"/>
</a>
</g>
</g>
<!-- transcript_segments&#45;&gt;summaries -->
<g id="edge8" class="edge">
<title>transcript_segments:w&#45;&gt;summaries:e</title>
<path fill="none" stroke="#000000" d="M675.7151,-496.6435C659.8751,-511.4952 669.8754,-554.7 640.5,-554.7"/>
<polygon fill="#000000" stroke="#000000" points="681.9696,-494.4006 690.7153,-495.0887 685.7348,-493.0503 689.5,-491.7 689.5,-491.7 689.5,-491.7 685.7348,-493.0503 688.2847,-488.3113 681.9696,-494.4006 681.9696,-494.4006"/>
<ellipse fill="none" stroke="#000000" cx="678.9574" cy="-495.4808" rx="3.2" ry="3.2"/>
</g>
<!-- action_items -->
<g id="node6" class="node">
<title>action_items</title>
<g id="a_node6"><a xlink:href="../../tables/action_items.html" xlink:title="action_items" target="_top">
<polygon fill="#ffffff" stroke="transparent" points="718,-295.2 718,-400.2 849,-400.2 849,-295.2 718,-295.2"/>
<polygon fill="#f5f5f5" stroke="transparent" points="718.5,-376.7 718.5,-399.7 849.5,-399.7 849.5,-376.7 718.5,-376.7"/>
<polygon fill="none" stroke="#000000" points="718.5,-376.7 718.5,-399.7 849.5,-399.7 849.5,-376.7 718.5,-376.7"/>
<text text-anchor="start" x="723.5" y="-385.3" font-family="Helvetica,sans-Serif" font-weight="bold" font-size="11.00" fill="#000000">action_items</text>
<text text-anchor="start" x="815.0219" y="-384.8" font-family="Helvetica,sans-Serif" font-size="11.00" fill="#000000">[table]</text>
<polygon fill="none" stroke="#000000" points="718.5,-354.7 718.5,-376.7 849.5,-376.7 849.5,-354.7 718.5,-354.7"/>
<image xlink:href="../../images/primaryKeys.png" width="11px" height="12px" preserveAspectRatio="xMinYMin meet" x="723.5" y="-371.7"/>
<text text-anchor="start" x="747.5" y="-361.8" font-family="Helvetica,sans-Serif" font-size="11.00" fill="#000000">id</text>
<polygon fill="#ffffff" stroke="transparent" points="718.5,-332.7 718.5,-354.7 849.5,-354.7 849.5,-332.7 718.5,-332.7"/>
<polygon fill="none" stroke="#000000" points="718.5,-332.7 718.5,-354.7 849.5,-354.7 849.5,-332.7 718.5,-332.7"/>
<image xlink:href="../../images/foreignKeys.png" width="11px" height="12px" preserveAspectRatio="xMinYMin meet" x="723.5" y="-349.7"/>
<text text-anchor="start" x="747.5" y="-339.8" font-family="Helvetica,sans-Serif" font-size="11.00" fill="#000000">summary_id</text>
<polygon fill="none" stroke="#000000" points="718.5,-313.7 718.5,-332.7 849.5,-332.7 849.5,-313.7 718.5,-313.7"/>
<text text-anchor="start" x="721.5" y="-319.8" font-family="Helvetica,sans-Serif" font-size="11.00" fill="#000000">...</text>
<polygon fill="#ffffff" stroke="transparent" points="718.5,-294.7 718.5,-313.7 849.5,-313.7 849.5,-294.7 718.5,-294.7"/>
<polygon fill="none" stroke="#000000" points="718.5,-294.7 718.5,-313.7 849.5,-313.7 849.5,-294.7 718.5,-294.7"/>
<polygon fill="#ffffff" stroke="transparent" points="719.5,-295.7 719.5,-312.7 768.5,-312.7 768.5,-295.7 719.5,-295.7"/>
<text text-anchor="start" x="721.5" y="-300.8" font-family="Helvetica,sans-Serif" font-size="11.00" fill="#000000">&lt; 1</text>
<polygon fill="#ffffff" stroke="transparent" points="768.5,-295.7 768.5,-312.7 808.5,-312.7 808.5,-295.7 768.5,-295.7"/>
<text text-anchor="start" x="785.4431" y="-300.8" font-family="Helvetica,sans-Serif" font-size="11.00" fill="#000000"> &#160;</text>
<polygon fill="#ffffff" stroke="transparent" points="808.5,-295.7 808.5,-312.7 848.5,-312.7 848.5,-295.7 808.5,-295.7"/>
<text text-anchor="start" x="840.3862" y="-300.8" font-family="Helvetica,sans-Serif" font-size="11.00" fill="#000000"> &#160;</text>
<polygon fill="#000000" stroke="#000000" points="768.5,-295.7 768.5,-312.7 768.5,-312.7 768.5,-295.7 768.5,-295.7"/>
<polygon fill="#000000" stroke="#000000" points="808.5,-295.7 808.5,-312.7 808.5,-312.7 808.5,-295.7 808.5,-295.7"/>
</a>
</g>
</g>
<!-- action_items&#45;&gt;summaries -->
<g id="edge1" class="edge">
<title>action_items:w&#45;&gt;summaries:e</title>
<path fill="none" stroke="#000000" d="M703.9607,-346.9068C687.1166,-356.3188 691.6999,-384.8327 681,-410.7 655.5878,-472.1347 706.9831,-554.7 640.5,-554.7"/>
<polygon fill="#000000" stroke="#000000" points="710.6878,-345.4231 719.2754,-347.2155 714.5939,-344.5616 718.5,-343.7 718.5,-343.7 718.5,-343.7 714.5939,-344.5616 717.7246,-340.1845 710.6878,-345.4231 710.6878,-345.4231"/>
<ellipse fill="none" stroke="#000000" cx="707.5629" cy="-346.1124" rx="3.2" ry="3.2"/>
</g>
<!-- alembic_version -->
<g id="node7" class="node">
<title>alembic_version</title>
<g id="a_node7"><a xlink:href="../../tables/alembic_version.html" xlink:title="alembic_version" target="_top">
<polygon fill="#ffffff" stroke="transparent" points="8,-891.7 8,-955.7 164,-955.7 164,-891.7 8,-891.7"/>
<polygon fill="#f5f5f5" stroke="transparent" points="8,-932.7 8,-955.7 164,-955.7 164,-932.7 8,-932.7"/>
<polygon fill="none" stroke="#000000" points="8,-932.7 8,-955.7 164,-955.7 164,-932.7 8,-932.7"/>
<text text-anchor="start" x="13" y="-941.3" font-family="Helvetica,sans-Serif" font-weight="bold" font-size="11.00" fill="#000000">alembic_version</text>
<text text-anchor="start" x="129.5219" y="-940.8" font-family="Helvetica,sans-Serif" font-size="11.00" fill="#000000">[table]</text>
<polygon fill="none" stroke="#000000" points="8,-910.7 8,-932.7 164,-932.7 164,-910.7 8,-910.7"/>
<image xlink:href="../../images/primaryKeys.png" width="11px" height="12px" preserveAspectRatio="xMinYMin meet" x="13" y="-927.7"/>
<text text-anchor="start" x="37" y="-917.8" font-family="Helvetica,sans-Serif" font-size="11.00" fill="#000000">version_num</text>
<polygon fill="#ffffff" stroke="transparent" points="8,-891.7 8,-910.7 164,-910.7 164,-891.7 8,-891.7"/>
<polygon fill="none" stroke="#000000" points="8,-891.7 8,-910.7 164,-910.7 164,-891.7 8,-891.7"/>
<polygon fill="#ffffff" stroke="transparent" points="9,-892.7 9,-909.7 61,-909.7 61,-892.7 9,-892.7"/>
<text text-anchor="start" x="11" y="-897.8" font-family="Helvetica,sans-Serif" font-size="11.00" fill="#000000"> &#160;</text>
<polygon fill="#ffffff" stroke="transparent" points="61,-892.7 61,-909.7 112,-909.7 112,-892.7 61,-892.7"/>
<text text-anchor="start" x="83.4431" y="-897.8" font-family="Helvetica,sans-Serif" font-size="11.00" fill="#000000"> &#160;</text>
<polygon fill="#ffffff" stroke="transparent" points="112,-892.7 112,-909.7 163,-909.7 163,-892.7 112,-892.7"/>
<text text-anchor="start" x="154.8862" y="-897.8" font-family="Helvetica,sans-Serif" font-size="11.00" fill="#000000"> &#160;</text>
<polygon fill="#000000" stroke="#000000" points="61,-892.7 61,-909.7 61,-909.7 61,-892.7 61,-892.7"/>
<polygon fill="#000000" stroke="#000000" points="112,-892.7 112,-909.7 112,-909.7 112,-892.7 112,-892.7"/>
</a>
</g>
</g>
<!-- oauth_identities -->
<g id="node9" class="node">
<title>oauth_identities</title>
<g id="a_node9"><a xlink:href="../../tables/oauth_identities.html" xlink:title="oauth_identities" target="_top">
<polygon fill="#ffffff" stroke="transparent" points="285.5,-208.2 285.5,-357.2 442.5,-357.2 442.5,-208.2 285.5,-208.2"/>
<polygon fill="#f5f5f5" stroke="transparent" points="286,-333.7 286,-356.7 443,-356.7 443,-333.7 286,-333.7"/>
<polygon fill="none" stroke="#000000" points="286,-333.7 286,-356.7 443,-356.7 443,-333.7 286,-333.7"/>
<text text-anchor="start" x="291" y="-342.3" font-family="Helvetica,sans-Serif" font-weight="bold" font-size="11.00" fill="#000000">oauth_identities</text>
<text text-anchor="start" x="408.5219" y="-341.8" font-family="Helvetica,sans-Serif" font-size="11.00" fill="#000000">[table]</text>
<polygon fill="none" stroke="#000000" points="286,-311.7 286,-333.7 443,-333.7 443,-311.7 286,-311.7"/>
<image xlink:href="../../images/primaryKeys.png" width="11px" height="12px" preserveAspectRatio="xMinYMin meet" x="291" y="-328.7"/>
<text text-anchor="start" x="315" y="-318.8" font-family="Helvetica,sans-Serif" font-size="11.00" fill="#000000">id</text>
<polygon fill="#ffffff" stroke="transparent" points="286,-289.7 286,-311.7 443,-311.7 443,-289.7 286,-289.7"/>
<polygon fill="none" stroke="#000000" points="286,-289.7 286,-311.7 443,-311.7 443,-289.7 286,-289.7"/>
<image xlink:href="../../images/foreignKeys.png" width="11px" height="12px" preserveAspectRatio="xMinYMin meet" x="291" y="-306.7"/>
<text text-anchor="start" x="315" y="-296.8" font-family="Helvetica,sans-Serif" font-size="11.00" fill="#000000">user_id</text>
<polygon fill="#ffffff" stroke="transparent" points="286,-267.7 286,-289.7 443,-289.7 443,-267.7 286,-267.7"/>
<polygon fill="none" stroke="#000000" points="286,-267.7 286,-289.7 443,-289.7 443,-267.7 286,-267.7"/>
<text text-anchor="start" x="315" y="-274.8" font-family="Helvetica,sans-Serif" font-size="11.00" fill="#000000">provider</text>
<polygon fill="#ffffff" stroke="transparent" points="286,-245.7 286,-267.7 443,-267.7 443,-245.7 286,-245.7"/>
<polygon fill="none" stroke="#000000" points="286,-245.7 286,-267.7 443,-267.7 443,-245.7 286,-245.7"/>
<text text-anchor="start" x="315" y="-252.8" font-family="Helvetica,sans-Serif" font-size="11.00" fill="#000000">subject</text>
<polygon fill="none" stroke="#000000" points="286,-226.7 286,-245.7 443,-245.7 443,-226.7 286,-226.7"/>
<text text-anchor="start" x="289" y="-232.8" font-family="Helvetica,sans-Serif" font-size="11.00" fill="#000000">...</text>
<polygon fill="#ffffff" stroke="transparent" points="286,-207.7 286,-226.7 443,-226.7 443,-207.7 286,-207.7"/>
<polygon fill="none" stroke="#000000" points="286,-207.7 286,-226.7 443,-226.7 443,-207.7 286,-207.7"/>
<polygon fill="#ffffff" stroke="transparent" points="287,-208.7 287,-225.7 345,-225.7 345,-208.7 287,-208.7"/>
<text text-anchor="start" x="289" y="-213.8" font-family="Helvetica,sans-Serif" font-size="11.00" fill="#000000">&lt; 1</text>
<polygon fill="#ffffff" stroke="transparent" points="345,-208.7 345,-225.7 394,-225.7 394,-208.7 345,-208.7"/>
<text text-anchor="start" x="366.4431" y="-213.8" font-family="Helvetica,sans-Serif" font-size="11.00" fill="#000000"> &#160;</text>
<polygon fill="#ffffff" stroke="transparent" points="394,-208.7 394,-225.7 442,-225.7 442,-208.7 394,-208.7"/>
<text text-anchor="start" x="433.8862" y="-213.8" font-family="Helvetica,sans-Serif" font-size="11.00" fill="#000000"> &#160;</text>
<polygon fill="#000000" stroke="#000000" points="345,-208.7 345,-225.7 345,-225.7 345,-208.7 345,-208.7"/>
<polygon fill="#000000" stroke="#000000" points="394,-208.7 394,-225.7 394,-225.7 394,-208.7 394,-208.7"/>
</a>
</g>
</g>
<!-- oauth_identities&#45;&gt;users -->
<g id="edge3" class="edge">
<title>oauth_identities:w&#45;&gt;users:e</title>
<path fill="none" stroke="#000000" d="M272.1211,-305.1074C252.5232,-321.0383 267.8394,-374.7 233.5,-374.7"/>
<polygon fill="#000000" stroke="#000000" points="278.3752,-303.1214 287.0896,-304.1311 282.1876,-301.9107 286,-300.7 286,-300.7 286,-300.7 282.1876,-301.9107 284.9104,-297.2689 278.3752,-303.1214 278.3752,-303.1214"/>
<ellipse fill="none" stroke="#000000" cx="275.3253" cy="-304.0899" rx="3.2" ry="3.2"/>
</g>
<!-- user_sessions -->
<g id="node10" class="node">
<title>user_sessions</title>
<g id="a_node10"><a xlink:href="../../tables/user_sessions.html" xlink:title="user_sessions" target="_top">
<polygon fill="#ffffff" stroke="transparent" points="294,-38.2 294,-187.2 434,-187.2 434,-38.2 294,-38.2"/>
<polygon fill="#f5f5f5" stroke="transparent" points="294,-163.7 294,-186.7 434,-186.7 434,-163.7 294,-163.7"/>
<polygon fill="none" stroke="#000000" points="294,-163.7 294,-186.7 434,-186.7 434,-163.7 294,-163.7"/>
<text text-anchor="start" x="299" y="-172.3" font-family="Helvetica,sans-Serif" font-weight="bold" font-size="11.00" fill="#000000">user_sessions</text>
<text text-anchor="start" x="399.5219" y="-171.8" font-family="Helvetica,sans-Serif" font-size="11.00" fill="#000000">[table]</text>
<polygon fill="none" stroke="#000000" points="294,-141.7 294,-163.7 434,-163.7 434,-141.7 294,-141.7"/>
<image xlink:href="../../images/primaryKeys.png" width="11px" height="12px" preserveAspectRatio="xMinYMin meet" x="299" y="-158.7"/>
<text text-anchor="start" x="323" y="-148.8" font-family="Helvetica,sans-Serif" font-size="11.00" fill="#000000">id</text>
<polygon fill="#ffffff" stroke="transparent" points="294,-119.7 294,-141.7 434,-141.7 434,-119.7 294,-119.7"/>
<polygon fill="none" stroke="#000000" points="294,-119.7 294,-141.7 434,-141.7 434,-119.7 294,-119.7"/>
<image xlink:href="../../images/foreignKeys.png" width="11px" height="12px" preserveAspectRatio="xMinYMin meet" x="299" y="-136.7"/>
<text text-anchor="start" x="323" y="-126.8" font-family="Helvetica,sans-Serif" font-size="11.00" fill="#000000">user_id</text>
<polygon fill="#ffffff" stroke="transparent" points="294,-97.7 294,-119.7 434,-119.7 434,-97.7 294,-97.7"/>
<polygon fill="none" stroke="#000000" points="294,-97.7 294,-119.7 434,-119.7 434,-97.7 294,-97.7"/>
<text text-anchor="start" x="323" y="-104.8" font-family="Helvetica,sans-Serif" font-size="11.00" fill="#000000">token_hash</text>
<polygon fill="#ffffff" stroke="transparent" points="294,-75.7 294,-97.7 434,-97.7 434,-75.7 294,-75.7"/>
<polygon fill="none" stroke="#000000" points="294,-75.7 294,-97.7 434,-97.7 434,-75.7 294,-75.7"/>
<text text-anchor="start" x="323" y="-82.8" font-family="Helvetica,sans-Serif" font-size="11.00" fill="#000000">expires_at</text>
<polygon fill="none" stroke="#000000" points="294,-56.7 294,-75.7 434,-75.7 434,-56.7 294,-56.7"/>
<text text-anchor="start" x="297" y="-62.8" font-family="Helvetica,sans-Serif" font-size="11.00" fill="#000000">...</text>
<polygon fill="#ffffff" stroke="transparent" points="294,-37.7 294,-56.7 434,-56.7 434,-37.7 294,-37.7"/>
<polygon fill="none" stroke="#000000" points="294,-37.7 294,-56.7 434,-56.7 434,-37.7 294,-37.7"/>
<polygon fill="#ffffff" stroke="transparent" points="295,-38.7 295,-55.7 347,-55.7 347,-38.7 295,-38.7"/>
<text text-anchor="start" x="297" y="-43.8" font-family="Helvetica,sans-Serif" font-size="11.00" fill="#000000">&lt; 1</text>
<polygon fill="#ffffff" stroke="transparent" points="347,-38.7 347,-55.7 390,-55.7 390,-38.7 347,-38.7"/>
<text text-anchor="start" x="365.4431" y="-43.8" font-family="Helvetica,sans-Serif" font-size="11.00" fill="#000000"> &#160;</text>
<polygon fill="#ffffff" stroke="transparent" points="390,-38.7 390,-55.7 433,-55.7 433,-38.7 390,-38.7"/>
<text text-anchor="start" x="424.8862" y="-43.8" font-family="Helvetica,sans-Serif" font-size="11.00" fill="#000000"> &#160;</text>
<polygon fill="#000000" stroke="#000000" points="347,-38.7 347,-55.7 347,-55.7 347,-38.7 347,-38.7"/>
<polygon fill="#000000" stroke="#000000" points="390,-38.7 390,-55.7 390,-55.7 390,-38.7 390,-38.7"/>
</a>
</g>
</g>
<!-- user_sessions&#45;&gt;users -->
<g id="edge9" class="edge">
<title>user_sessions:w&#45;&gt;users:e</title>
<path fill="none" stroke="#000000" d="M280.7157,-136.9767C246.9604,-175.1683 284.0178,-374.7 233.5,-374.7"/>
<polygon fill="#000000" stroke="#000000" points="286.7668,-134.1177 295.538,-133.955 290.3834,-132.4088 294,-130.7 294,-130.7 294,-130.7 290.3834,-132.4088 292.462,-127.445 286.7668,-134.1177 286.7668,-134.1177"/>
<ellipse fill="none" stroke="#000000" cx="283.8735" cy="-135.4847" rx="3.2" ry="3.2"/>
</g>
</g>
</svg>
