<?xml version="1.0" encoding="UTF-8" standalone="no"?>
<!DOCTYPE svg PUBLIC "-//W3C//DTD SVG 1.1//EN"
 "http://www.w3.org/Graphics/SVG/1.1/DTD/svg11.dtd">
<!-- Generated by graphviz version 2.40.1 (20161225.0304)
 -->
<!-- Title: twoDegreesRelationshipsDiagram Pages: 1 -->
<svg width="571pt" height="453pt"
 viewBox="0.00 0.00 571.00 452.70" xmlns="http://www.w3.org/2000/svg" xmlns:xlink="http://www.w3.org/1999/xlink">
<g id="graph0" class="graph" transform="scale(1 1) rotate(0) translate(4 448.7)">
<title>twoDegreesRelationshipsDiagram</title>
<polygon fill="#ffffff" stroke="transparent" points="-4,4 -4,-448.7 567,-448.7 567,4 -4,4"/>
<text text-anchor="middle" x="72.4936" y="-7.3" font-family="Helvetica,sans-Serif" font-size="11.00" fill="#000000">Generated by SchemaSpy</text>
<!-- action_items -->
<g id="node1" class="node">
<title>action_items</title>
<g id="a_node1"><a xlink:href="../../tables/action_items.html" xlink:title="action_items" target="_top">
<polygon fill="#ffffff" stroke="transparent" points="329,-284.7 329,-440.7 555,-440.7 555,-284.7 329,-284.7"/>
<polygon fill="#f5f5f5" stroke="transparent" points="331,-415.7 331,-438.7 553,-438.7 553,-415.7 331,-415.7"/>
<polygon fill="none" stroke="#000000" points="331,-415.7 331,-438.7 553,-438.7 553,-415.7 331,-415.7"/>
<text text-anchor="start" x="336" y="-424.3" font-family="Helvetica,sans-Serif" font-weight="bold" font-size="11.00" fill="#000000">action_items</text>
<text text-anchor="start" x="518.0437" y="-423.8" font-family="Helvetica,sans-Serif" font-size="11.00" fill="#000000">[table]</text>
<polygon fill="none" stroke="#000000" points="331,-393.7 331,-415.7 444,-415.7 444,-393.7 331,-393.7"/>
<image xlink:href="../../images/primaryKeys.png" width="11px" height="12px" preserveAspectRatio="xMinYMin meet" x="336" y="-410.7"/>
<text text-anchor="start" x="351" y="-400.8" font-family="Helvetica,sans-Serif" font-size="11.00" fill="#000000">id</text>
<polygon fill="none" stroke="#000000" points="444,-393.7 444,-415.7 553,-415.7 553,-393.7 444,-393.7"/>
<text text-anchor="start" x="447" y="-401.4" font-family="Helvetica,sans-Serif" font-size="11.00" fill="#000000">serial[10]</text>
<polygon fill="#ffffff" stroke="transparent" points="331,-371.7 331,-393.7 444,-393.7 444,-371.7 331,-371.7"/>
<polygon fill="none" stroke="#000000" points="331,-371.7 331,-393.7 444,-393.7 444,-371.7 331,-371.7"/>
<image xlink:href="../../images/foreignKeys.png" width="11px" height="12px" preserveAspectRatio="xMinYMin meet" x="336" y="-388.7"/>
<text text-anchor="start" x="351" y="-378.8" font-family="Helvetica,sans-Serif" font-size="11.00" fill="#000000">summary_id</text>
<polygon fill="none" stroke="#000000" points="444,-371.7 444,-393.7 553,-393.7 553,-371.7 444,-371.7"/>
<text text-anchor="start" x="447" y="-379.4" font-family="Helvetica,sans-Serif" font-size="11.00" fill="#000000">uuid[2147483647]</text>
<polygon fill="none" stroke="#000000" points="331,-349.7 331,-371.7 444,-371.7 444,-349.7 331,-349.7"/>
<text text-anchor="start" x="351" y="-356.8" font-family="Helvetica,sans-Serif" font-size="11.00" fill="#000000">description</text>
<polygon fill="none" stroke="#000000" points="444,-349.7 444,-371.7 553,-371.7 553,-349.7 444,-349.7"/>
<text text-anchor="start" x="446.5344" y="-357.4" font-family="Helvetica,sans-Serif" font-size="11.00" fill="#000000">varchar[2147483647]</text>
<polygon fill="none" stroke="#000000" points="331,-327.7 331,-349.7 444,-349.7 444,-327.7 331,-327.7"/>
<text text-anchor="start" x="351" y="-334.8" font-family="Helvetica,sans-Serif" font-size="11.00" fill="#000000">assignee</text>
<polygon fill="none" stroke="#000000" points="444,-327.7 444,-349.7 553,-349.7 553,-327.7 444,-327.7"/>
<text text-anchor="start" x="446.5344" y="-335.4" font-family="Helvetica,sans-Serif" font-size="11.00" fill="#000000">varchar[2147483647]</text>
<polygon fill="none" stroke="#000000" points="331,-305.7 331,-327.7 444,-327.7 444,-305.7 331,-305.7"/>
<text text-anchor="start" x="351" y="-312.8" font-family="Helvetica,sans-Serif" font-size="11.00" fill="#000000">due_date</text>
<polygon fill="none" stroke="#000000" points="444,-305.7 444,-327.7 553,-327.7 553,-305.7 444,-305.7"/>
<text text-anchor="start" x="447" y="-313.4" font-family="Helvetica,sans-Serif" font-size="11.00" fill="#000000">date[13]</text>
<polygon fill="#ffffff" stroke="transparent" points="331,-286.7 331,-305.7 553,-305.7 553,-286.7 331,-286.7"/>
<polygon fill="none" stroke="#000000" points="331,-286.7 331,-305.7 553,-305.7 553,-286.7 331,-286.7"/>
<polygon fill="#ffffff" stroke="transparent" points="332,-287.7 332,-304.7 409,-304.7 409,-287.7 332,-287.7"/>
<text text-anchor="start" x="334" y="-292.8" font-family="Helvetica,sans-Serif" font-size="11.00" fill="#000000">&lt; 1</text>
<polygon fill="#ffffff" stroke="transparent" points="409,-287.7 409,-304.7 476,-304.7 476,-287.7 409,-287.7"/>
<text text-anchor="start" x="439.4431" y="-292.8" font-family="Helvetica,sans-Serif" font-size="11.00" fill="#000000"> &#160;</text>
<polygon fill="#ffffff" stroke="transparent" points="476,-287.7 476,-304.7 552,-304.7 552,-287.7 476,-287.7"/>
<text text-anchor="start" x="534.4053" y="-292.8" font-family="Helvetica,sans-Serif" font-size="11.00" fill="#000000">0 &gt;</text>
<polygon fill="#000000" stroke="#000000" points="409,-287.7 409,-304.7 409,-304.7 409,-287.7 409,-287.7"/>
<polygon fill="#000000" stroke="#000000" points="476,-287.7 476,-304.7 476,-304.7 476,-287.7 476,-287.7"/>
<polygon fill="none" stroke="#000000" stroke-width="2" points="330,-285.7 330,-439.7 554,-439.7 554,-285.7 330,-285.7"/>
</a>
</g>
</g>
<!-- summaries -->
<g id="node2" class="node">
<title>summaries</title>
<g id="a_node2"><a xlink:href="../../tables/summaries.html" xlink:title="summaries" target="_top">
<polygon fill="#ffffff" stroke="transparent" points="135,-96.2 135,-223.2 280,-223.2 280,-96.2 135,-96.2"/>
<polygon fill="#f5f5f5" stroke="transparent" points="135.5,-199.7 135.5,-222.7 280.5,-222.7 280.5,-199.7 135.5,-199.7"/>
<polygon fill="none" stroke="#000000" points="135.5,-199.7 135.5,-222.7 280.5,-222.7 280.5,-199.7 135.5,-199.7"/>
<text text-anchor="start" x="140.5" y="-208.3" font-family="Helvetica,sans-Serif" font-weight="bold" font-size="11.00" fill="#000000">summaries</text>
<text text-anchor="start" x="245.5437" y="-207.8" font-family="Helvetica,sans-Serif" font-size="11.00" fill="#000000">[table]</text>
<polygon fill="none" stroke="#000000" points="135.5,-177.7 135.5,-199.7 280.5,-199.7 280.5,-177.7 135.5,-177.7"/>
<image xlink:href="../../images/primaryKeys.png" width="11px" height="12px" preserveAspectRatio="xMinYMin meet" x="140.5" y="-194.7"/>
<text text-anchor="start" x="155.5" y="-184.8" font-family="Helvetica,sans-Serif" font-size="11.00" fill="#000000">id</text>
<polygon fill="#ffffff" stroke="transparent" points="135.5,-155.7 135.5,-177.7 280.5,-177.7 280.5,-155.7 135.5,-155.7"/>
<polygon fill="none" stroke="#000000" points="135.5,-155.7 135.5,-177.7 280.5,-177.7 280.5,-155.7 135.5,-155.7"/>
<text text-anchor="start" x="155.5" y="-162.8" font-family="Helvetica,sans-Serif" font-size="11.00" fill="#000000">content_hash</text>
<polygon fill="#ffffff" stroke="transparent" points="135.5,-133.7 135.5,-155.7 280.5,-155.7 280.5,-133.7 135.5,-133.7"/>
<polygon fill="none" stroke="#000000" points="135.5,-133.7 135.5,-155.7 280.5,-155.7 280.5,-133.7 135.5,-133.7"/>
<image xlink:href="../../images/foreignKeys.png" width="11px" height="12px" preserveAspectRatio="xMinYMin meet" x="140.5" y="-150.7"/>
<text text-anchor="start" x="155.5" y="-140.8" font-family="Helvetica,sans-Serif" font-size="11.00" fill="#000000">user_id</text>
<polygon fill="none" stroke="#000000" points="135.5,-114.7 135.5,-133.7 280.5,-133.7 280.5,-114.7 135.5,-114.7"/>
<text text-anchor="start" x="138.5" y="-120.8" font-family="Helvetica,sans-Serif" font-size="11.00" fill="#000000">...</text>
<polygon fill="#ffffff" stroke="transparent" points="135.5,-95.7 135.5,-114.7 280.5,-114.7 280.5,-95.7 135.5,-95.7"/>
<polygon fill="none" stroke="#000000" points="135.5,-95.7 135.5,-114.7 280.5,-114.7 280.5,-95.7 135.5,-95.7"/>
<polygon fill="#ffffff" stroke="transparent" points="136.5,-96.7 136.5,-113.7 187.5,-113.7 187.5,-96.7 136.5,-96.7"/>
<text text-anchor="start" x="138.5" y="-101.8" font-family="Helvetica,sans-Serif" font-size="11.00" fill="#000000">&lt; 1</text>
<polygon fill="#ffffff" stroke="transparent" points="187.5,-96.7 187.5,-113.7 229.5,-113.7 229.5,-96.7 187.5,-96.7"/>
<text text-anchor="start" x="205.4431" y="-101.8" font-family="Helvetica,sans-Serif" font-size="11.00" fill="#000000"> &#160;</text>
<polygon fill="#ffffff" stroke="transparent" points="229.5,-96.7 229.5,-113.7 279.5,-113.7 279.5,-96.7 229.5,-96.7"/>
<text text-anchor="start" x="261.9053" y="-101.8" font-family="Helvetica,sans-Serif" font-size="11.00" fill="#000000">4 &gt;</text>
<polygon fill="#000000" stroke="#000000" points="187.5,-96.7 187.5,-113.7 187.5,-113.7 187.5,-96.7 187.5,-96.7"/>
<polygon fill="#000000" stroke="#000000" points="229.5,-96.7 229.5,-113.7 229.5,-113.7 229.5,-96.7 229.5,-96.7"/>
</a>
</g>
</g>
<!-- action_items&#45;&gt;summaries -->
<g id="edge1" class="edge">
<title>action_items:w&#45;&gt;summaries:e</title>
<path fill="none" stroke="#000000" d="M316.7292,-380.5213C257.019,-359.2078 364.0271,-188.7 280.5,-188.7"/>
<polygon fill="#000000" stroke="#000000" points="323.0916,-381.4926 330.4567,-386.2588 327.0458,-382.0963 331,-382.7 331,-382.7 331,-382.7 327.0458,-382.0963 331.5433,-379.1412 323.0916,-381.4926 323.0916,-381.4926"/>
<ellipse fill="none" stroke="#000000" cx="319.9283" cy="-381.0096" rx="3.2" ry="3.2"/>
</g>
<!-- users -->
<g id="node4" class="node">
<title>users</title>
<g id="a_node4"><a xlink:href="../../tables/users.html" xlink:title="users" target="_top">
<polygon fill="#ffffff" stroke="transparent" points="8,-117.2 8,-178.2 86,-178.2 86,-117.2 8,-117.2"/>
<polygon fill="#f5f5f5" stroke="transparent" points="8,-154.7 8,-177.7 86,-177.7 86,-154.7 8,-154.7"/>
<polygon fill="none" stroke="#000000" points="8,-154.7 8,-177.7 86,-177.7 86,-154.7 8,-154.7"/>
<text text-anchor="start" x="13" y="-163.3" font-family="Helvetica,sans-Serif" font-weight="bold" font-size="11.00" fill="#000000">users</text>
<text text-anchor="start" x="51.5219" y="-162.8" font-family="Helvetica,sans-Serif" font-size="11.00" fill="#000000">[table]</text>
<polygon fill="none" stroke="#000000" points="8,-135.7 8,-154.7 86,-154.7 86,-135.7 8,-135.7"/>
<text text-anchor="start" x="11" y="-141.8" font-family="Helvetica,sans-Serif" font-size="11.00" fill="#000000">...</text>
<polygon fill="#ffffff" stroke="transparent" points="8,-116.7 8,-135.7 86,-135.7 86,-116.7 8,-116.7"/>
<polygon fill="none" stroke="#000000" points="8,-116.7 8,-135.7 86,-135.7 86,-116.7 8,-116.7"/>
<polygon fill="#ffffff" stroke="transparent" points="9,-117.7 9,-134.7 32,-134.7 32,-117.7 9,-117.7"/>
<text text-anchor="start" x="11" y="-122.8" font-family="Helvetica,sans-Serif" font-size="11.00" fill="#000000"> &#160;</text>
<polygon fill="#ffffff" stroke="transparent" points="32,-117.7 32,-134.7 54,-134.7 54,-117.7 32,-117.7"/>
<text text-anchor="start" x="39.9431" y="-122.8" font-family="Helvetica,sans-Serif" font-size="11.00" fill="#000000"> &#160;</text>
<polygon fill="#ffffff" stroke="transparent" points="54,-117.7 54,-134.7 85,-134.7 85,-117.7 54,-117.7"/>
<text text-anchor="start" x="67.4053" y="-122.8" font-family="Helvetica,sans-Serif" font-size="11.00" fill="#000000">3 &gt;</text>
<polygon fill="#000000" stroke="#000000" points="32,-117.7 32,-134.7 32,-134.7 32,-117.7 32,-117.7"/>
<polygon fill="#000000" stroke="#000000" points="54,-117.7 54,-134.7 54,-134.7 54,-117.7 54,-117.7"/>
</a>
</g>
</g>
<!-- summaries&#45;&gt;users -->
<g id="edge3" class="edge">
<title>summaries:w&#45;&gt;users:e</title>
<path fill="none" stroke="#000000" d="M120.8428,-144.7C109.4139,-144.7 102.1563,-144.7 86,-144.7"/>
<polygon fill="#000000" stroke="#000000" points="127.5,-144.7001 135.5,-148.3 131.5,-144.7 135.5,-144.7 135.5,-144.7 135.5,-144.7 131.5,-144.7 135.5,-141.1 127.5,-144.7001 127.5,-144.7001"/>
<ellipse fill="none" stroke="#000000" cx="124.3" cy="-144.7001" rx="3.2" ry="3.2"/>
</g>
<!-- decisions -->
<g id="node3" class="node">
<title>decisions</title>
<g id="a_node3"><a xlink:href="../../tables/decisions.html" xlink:title="decisions" target="_top">
<polygon fill="#ffffff" stroke="transparent" points="388.5,-202.2 388.5,-263.2 495.5,-263.2 495.5,-202.2 388.5,-202.2"/>
<polygon fill="#f5f5f5" stroke="transparent" points="389,-239.7 389,-262.7 496,-262.7 496,-239.7 389,-239.7"/>
<polygon fill="none" stroke="#000000" points="389,-239.7 389,-262.7 496,-262.7 496,-239.7 389,-239.7"/>
<text text-anchor="start" x="394" y="-248.3" font-family="Helvetica,sans-Serif" font-weight="bold" font-size="11.00" fill="#000000">decisions</text>
<text text-anchor="start" x="461.5219" y="-247.8" font-family="Helvetica,sans-Serif" font-size="11.00" fill="#000000">[table]</text>
<polygon fill="none" stroke="#000000" points="389,-220.7 389,-239.7 496,-239.7 496,-220.7 389,-220.7"/>
<text text-anchor="start" x="392" y="-226.8" font-family="Helvetica,sans-Serif" font-size="11.00" fill="#000000">...</text>
<polygon fill="#ffffff" stroke="transparent" points="389,-201.7 389,-220.7 496,-220.7 496,-201.7 389,-201.7"/>
<polygon fill="none" stroke="#000000" points="389,-201.7 389,-220.7 496,-220.7 496,-201.7 389,-201.7"/>
<polygon fill="#ffffff" stroke="transparent" points="390,-202.7 390,-219.7 431,-219.7 431,-202.7 390,-202.7"/>
<text text-anchor="start" x="392" y="-207.8" font-family="Helvetica,sans-Serif" font-size="11.00" fill="#000000">&lt; 1</text>
<polygon fill="#ffffff" stroke="transparent" points="431,-202.7 431,-219.7 463,-219.7 463,-202.7 431,-202.7"/>
<text text-anchor="start" x="443.9431" y="-207.8" font-family="Helvetica,sans-Serif" font-size="11.00" fill="#000000"> &#160;</text>
<polygon fill="#ffffff" stroke="transparent" points="463,-202.7 463,-219.7 495,-219.7 495,-202.7 463,-202.7"/>
<text text-anchor="start" x="486.8862" y="-207.8" font-family="Helvetica,sans-Serif" font-size="11.00" fill="#000000"> &#160;</text>
<polygon fill="#000000" stroke="#000000" points="431,-202.7 431,-219.7 431,-219.7 431,-202.7 431,-202.7"/>
<polygon fill="#000000" stroke="#000000" points="463,-202.7 463,-219.7 463,-219.7 463,-202.7 463,-202.7"/>
</a>
</g>
</g>
<!-- decisions&#45;&gt;summaries -->
<g id="edge2" class="edge">
<title>decisions:w&#45;&gt;summaries:e</title>
<path fill="none" stroke="#000000" d="M374.6247,-228.5172C335.8769,-221.7948 326.8147,-188.7 280.5,-188.7"/>
<polygon fill="#000000" stroke="#000000" points="381.0269,-229.0439 388.7048,-233.2879 385.0135,-229.372 389,-229.7 389,-229.7 389,-229.7 385.0135,-229.372 389.2952,-226.1121 381.0269,-229.0439 381.0269,-229.0439"/>
<ellipse fill="none" stroke="#000000" cx="377.8377" cy="-228.7815" rx="3.2" ry="3.2"/>
</g>
<!-- topics -->
<g id="node5" class="node">
<title>topics</title>
<g id="a_node5"><a xlink:href="../../tables/topics.html" xlink:title="topics" target="_top">
<polygon fill="#ffffff" stroke="transparent" points="400.5,-120.2 400.5,-181.2 483.5,-181.2 483.5,-120.2 400.5,-120.2"/>
<polygon fill="#f5f5f5" stroke="transparent" points="401,-157.7 401,-180.7 484,-180.7 484,-157.7 401,-157.7"/>
<polygon fill="none" stroke="#000000" points="401,-157.7 401,-180.7 484,-180.7 484,-157.7 401,-157.7"/>
<text text-anchor="start" x="406" y="-166.3" font-family="Helvetica,sans-Serif" font-weight="bold" font-size="11.00" fill="#000000">topics</text>
<text text-anchor="start" x="449.5219" y="-165.8" font-family="Helvetica,sans-Serif" font-size="11.00" fill="#000000">[table]</text>
<polygon fill="none" stroke="#000000" points="401,-138.7 401,-157.7 484,-157.7 484,-138.7 401,-138.7"/>
<text text-anchor="start" x="404" y="-144.8" font-family="Helvetica,sans-Serif" font-size="11.00" fill="#000000">...</text>
<polygon fill="#ffffff" stroke="transparent" points="401,-119.7 401,-138.7 484,-138.7 484,-119.7 401,-119.7"/>
<polygon fill="none" stroke="#000000" points="401,-119.7 401,-138.7 484,-138.7 484,-119.7 401,-119.7"/>
<polygon fill="#ffffff" stroke="transparent" points="402,-120.7 402,-137.7 435,-137.7 435,-120.7 402,-120.7"/>
<text text-anchor="start" x="404" y="-125.8" font-family="Helvetica,sans-Serif" font-size="11.00" fill="#000000">&lt; 1</text>
<polygon fill="#ffffff" stroke="transparent" points="435,-120.7 435,-137.7 459,-137.7 459,-120.7 435,-120.7"/>
<text text-anchor="start" x="443.9431" y="-125.8" font-family="Helvetica,sans-Serif" font-size="11.00" fill="#000000"> &#160;</text>
<polygon fill="#ffffff" stroke="transparent" points="459,-120.7 459,-137.7 483,-137.7 483,-120.7 459,-120.7"/>
<text text-anchor="start" x="474.8862" y="-125.8" font-family="Helvetica,sans-Serif" font-size="11.00" fill="#000000"> &#160;</text>
<polygon fill="#000000" stroke="#000000" points="435,-120.7 435,-137.7 435,-137.7 435,-120.7 435,-120.7"/>
<polygon fill="#000000" stroke="#000000" points="459,-120.7 459,-137.7 459,-137.7 459,-120.7 459,-120.7"/>
</a>
</g>
</g>
<!-- topics&#45;&gt;summaries -->
<g id="edge4" class="edge">
<title>topics:w&#45;&gt;summaries:e</title>
<path fill="none" stroke="#000000" d="M386.5889,-148.673C342.6636,-154.8819 331.8777,-188.7 280.5,-188.7"/>
<polygon fill="#000000" stroke="#000000" points="393.0182,-148.239 401.2425,-151.2918 397.0091,-147.9695 401,-147.7 401,-147.7 401,-147.7 397.0091,-147.9695 400.7575,-144.1082 393.0182,-148.239 393.0182,-148.239"/>
<ellipse fill="none" stroke="#000000" cx="389.8254" cy="-148.4546" rx="3.2" ry="3.2"/>
</g>
<!-- transcript_segments -->
<g id="node6" class="node">
<title>transcript_segments</title>
<g id="a_node6"><a xlink:href="../../tables/transcript_segments.html" xlink:title="transcript_segments" target="_top">
<polygon fill="#ffffff" stroke="transparent" points="347.5,-38.2 347.5,-99.2 536.5,-99.2 536.5,-38.2 347.5,-38.2"/>
<polygon fill="#f5f5f5" stroke="transparent" points="348,-75.7 348,-98.7 537,-98.7 537,-75.7 348,-75.7"/>
<polygon fill="none" stroke="#000000" points="348,-75.7 348,-98.7 537,-98.7 537,-75.7 348,-75.7"/>
<text text-anchor="start" x="353" y="-84.3" font-family="Helvetica,sans-Serif" font-weight="bold" font-size="11.00" fill="#000000">transcript_segments</text>
<text text-anchor="start" x="502.5219" y="-83.8" font-family="Helvetica,sans-Serif" font-size="11.00" fill="#000000">[table]</text>
<polygon fill="none" stroke="#000000" points="348,-56.7 348,-75.7 537,-75.7 537,-56.7 348,-56.7"/>
<text text-anchor="start" x="351" y="-62.8" font-family="Helvetica,sans-Serif" font-size="11.00" fill="#000000">...</text>
<polygon fill="#ffffff" stroke="transparent" points="348,-37.7 348,-56.7 537,-56.7 537,-37.7 348,-37.7"/>
<polygon fill="none" stroke="#000000" points="348,-37.7 348,-56.7 537,-56.7 537,-37.7 348,-37.7"/>
<polygon fill="#ffffff" stroke="transparent" points="349,-38.7 349,-55.7 418,-55.7 418,-38.7 349,-38.7"/>
<text text-anchor="start" x="351" y="-43.8" font-family="Helvetica,sans-Serif" font-size="11.00" fill="#000000">&lt; 1</text>
<polygon fill="#ffffff" stroke="transparent" points="418,-38.7 418,-55.7 477,-55.7 477,-38.7 418,-38.7"/>
<text text-anchor="start" x="444.4431" y="-43.8" font-family="Helvetica,sans-Serif" font-size="11.00" fill="#000000"> &#160;</text>
<polygon fill="#ffffff" stroke="transparent" points="477,-38.7 477,-55.7 536,-55.7 536,-38.7 477,-38.7"/>
<text text-anchor="start" x="527.8862" y="-43.8" font-family="Helvetica,sans-Serif" font-size="11.00" fill="#000000"> &#160;</text>
<polygon fill="#000000" stroke="#000000" points="418,-38.7 418,-55.7 418,-55.7 418,-38.7 418,-38.7"/>
<polygon fill="#000000" stroke="#000000" points="477,-38.7 477,-55.7 477,-55.7 477,-38.7 477,-38.7"/>
</a>
</g>
</g>
<!-- transcript_segments&#45;&gt;summaries -->
<g id="edge5" class="edge">
<title>transcript_segments:w&#45;&gt;summaries:e</title>
<path fill="none" stroke="#000000" d="M333.6652,-68.6191C295.1393,-87.2456 337.1332,-188.7 280.5,-188.7"/>
<polygon fill="#000000" stroke="#000000" points="340.1609,-67.2964 348.7184,-69.2276 344.0804,-66.4982 348,-65.7 348,-65.7 348,-65.7 344.0804,-66.4982 347.2816,-62.1724 340.1609,-67.2964 340.1609,-67.2964"/>
<ellipse fill="none" stroke="#000000" cx="337.0252" cy="-67.935" rx="3.2" ry="3.2"/>
</g>
</g>
</svg>
