<?xml version="1.0" encoding="UTF-8" standalone="no"?>
<!DOCTYPE svg PUBLIC "-//W3C//DTD SVG 1.1//EN"
 "http://www.w3.org/Graphics/SVG/1.1/DTD/svg11.dtd">
<!-- Generated by graphviz version 2.40.1 (20161225.0304)
 -->
<!-- Title: twoDegreesRelationshipsDiagram Pages: 1 -->
<svg width="672pt" height="624pt"
 viewBox="0.00 0.00 672.00 624.20" xmlns="http://www.w3.org/2000/svg" xmlns:xlink="http://www.w3.org/1999/xlink">
<g id="graph0" class="graph" transform="scale(1 1) rotate(0) translate(4 620.2)">
<title>twoDegreesRelationshipsDiagram</title>
<polygon fill="#ffffff" stroke="transparent" points="-4,4 -4,-620.2 668,-620.2 668,4 -4,4"/>
<text text-anchor="middle" x="72.4936" y="-7.3" font-family="Helvetica,sans-Serif" font-size="11.00" fill="#000000">Generated by SchemaSpy</text>
<!-- action_items -->
<g id="node1" class="node">
<title>action_items</title>
<g id="a_node1"><a xlink:href="../../tables/action_items.html" xlink:title="action_items" target="_top">
<polygon fill="#ffffff" stroke="transparent" points="496,-507.2 496,-612.2 627,-612.2 627,-507.2 496,-507.2"/>
<polygon fill="#f5f5f5" stroke="transparent" points="496.5,-588.7 496.5,-611.7 627.5,-611.7 627.5,-588.7 496.5,-588.7"/>
<polygon fill="none" stroke="#000000" points="496.5,-588.7 496.5,-611.7 627.5,-611.7 627.5,-588.7 496.5,-588.7"/>
<text text-anchor="start" x="501.5" y="-597.3" font-family="Helvetica,sans-Serif" font-weight="bold" font-size="11.00" fill="#000000">action_items</text>
<text text-anchor="start" x="593.0219" y="-596.8" font-family="Helvetica,sans-Serif" font-size="11.00" fill="#000000">[table]</text>
<polygon fill="none" stroke="#000000" points="496.5,-566.7 496.5,-588.7 627.5,-588.7 627.5,-566.7 496.5,-566.7"/>
<image xlink:href="../../images/primaryKeys.png" width="11px" height="12px" preserveAspectRatio="xMinYMin meet" x="501.5" y="-583.7"/>
<text text-anchor="start" x="525.5" y="-573.8" font-family="Helvetica,sans-Serif" font-size="11.00" fill="#000000">id</text>
<polygon fill="#ffffff" stroke="transparent" points="496.5,-544.7 496.5,-566.7 627.5,-566.7 627.5,-544.7 496.5,-544.7"/>
<polygon fill="none" stroke="#000000" points="496.5,-544.7 496.5,-566.7 627.5,-566.7 627.5,-544.7 496.5,-544.7"/>
<image xlink:href="../../images/foreignKeys.png" width="11px" height="12px" preserveAspectRatio="xMinYMin meet" x="501.5" y="-561.7"/>
<text text-anchor="start" x="525.5" y="-551.8" font-family="Helvetica,sans-Serif" font-size="11.00" fill="#000000">summary_id</text>
<polygon fill="none" stroke="#000000" points="496.5,-525.7 496.5,-544.7 627.5,-544.7 627.5,-525.7 496.5,-525.7"/>
<text text-anchor="start" x="499.5" y="-531.8" font-family="Helvetica,sans-Serif" font-size="11.00" fill="#000000">...</text>
<polygon fill="#ffffff" stroke="transparent" points="496.5,-506.7 496.5,-525.7 627.5,-525.7 627.5,-506.7 496.5,-506.7"/>
<polygon fill="none" stroke="#000000" points="496.5,-506.7 496.5,-525.7 627.5,-525.7 627.5,-506.7 496.5,-506.7"/>
<polygon fill="#ffffff" stroke="transparent" points="497.5,-507.7 497.5,-524.7 546.5,-524.7 546.5,-507.7 497.5,-507.7"/>
<text text-anchor="start" x="499.5" y="-512.8" font-family="Helvetica,sans-Serif" font-size="11.00" fill="#000000">&lt; 1</text>
<polygon fill="#ffffff" stroke="transparent" points="546.5,-507.7 546.5,-524.7 586.5,-524.7 586.5,-507.7 546.5,-507.7"/>
<text text-anchor="start" x="563.4431" y="-512.8" font-family="Helvetica,sans-Serif" font-size="11.00" fill="#000000"> &#160;</text>
<polygon fill="#ffffff" stroke="transparent" points="586.5,-507.7 586.5,-524.7 626.5,-524.7 626.5,-507.7 586.5,-507.7"/>
<text text-anchor="start" x="618.3862" y="-512.8" font-family="Helvetica,sans-Serif" font-size="11.00" fill="#000000"> &#160;</text>
<polygon fill="#000000" stroke="#000000" points="546.5,-507.7 546.5,-524.7 546.5,-524.7 546.5,-507.7 546.5,-507.7"/>
<polygon fill="#000000" stroke="#000000" points="586.5,-507.7 586.5,-524.7 586.5,-524.7 586.5,-507.7 586.5,-507.7"/>
</a>
</g>
</g>
<!-- summaries -->
<g id="node2" class="node">
<title>summaries</title>
<g id="a_node2"><a xlink:href="../../tables/summaries.html" xlink:title="summaries" target="_top">
<polygon fill="#ffffff" stroke="transparent" points="160,-202.7 160,-402.7 418,-402.7 418,-202.7 160,-202.7"/>
<polygon fill="#f5f5f5" stroke="transparent" points="162,-377.7 162,-400.7 416,-400.7 416,-377.7 162,-377.7"/>
<polygon fill="none" stroke="#000000" points="162,-377.7 162,-400.7 416,-400.7 416,-377.7 162,-377.7"/>
<text text-anchor="start" x="167" y="-386.3" font-family="Helvetica,sans-Serif" font-weight="bold" font-size="11.00" fill="#000000">summaries</text>
<text text-anchor="start" x="381.0437" y="-385.8" font-family="Helvetica,sans-Serif" font-size="11.00" fill="#000000">[table]</text>
<polygon fill="none" stroke="#000000" points="162,-355.7 162,-377.7 307,-377.7 307,-355.7 162,-355.7"/>
<image xlink:href="../../images/primaryKeys.png" width="11px" height="12px" preserveAspectRatio="xMinYMin meet" x="167" y="-372.7"/>
<text text-anchor="start" x="182" y="-362.8" font-family="Helvetica,sans-Serif" font-size="11.00" fill="#000000">id</text>
<polygon fill="none" stroke="#000000" points="307,-355.7 307,-377.7 416,-377.7 416,-355.7 307,-355.7"/>
<text text-anchor="start" x="310" y="-363.4" font-family="Helvetica,sans-Serif" font-size="11.00" fill="#000000">uuid[2147483647]</text>
<polygon fill="none" stroke="#000000" points="162,-333.7 162,-355.7 307,-355.7 307,-333.7 162,-333.7"/>
<text text-anchor="start" x="182" y="-340.8" font-family="Helvetica,sans-Serif" font-size="11.00" fill="#000000">filename</text>
<polygon fill="none" stroke="#000000" points="307,-333.7 307,-355.7 416,-355.7 416,-333.7 307,-333.7"/>
<text text-anchor="start" x="310" y="-341.4" font-family="Helvetica,sans-Serif" font-size="11.00" fill="#000000">varchar[255]</text>
<polygon fill="none" stroke="#000000" points="162,-311.7 162,-333.7 307,-333.7 307,-311.7 162,-311.7"/>
<text text-anchor="start" x="182" y="-318.8" font-family="Helvetica,sans-Serif" font-size="11.00" fill="#000000">created_at</text>
<polygon fill="none" stroke="#000000" points="307,-311.7 307,-333.7 416,-333.7 416,-311.7 307,-311.7"/>
<text text-anchor="start" x="310" y="-319.4" font-family="Helvetica,sans-Serif" font-size="11.00" fill="#000000">timestamptz[35,6]</text>
<polygon fill="none" stroke="#000000" points="162,-289.7 162,-311.7 307,-311.7 307,-289.7 162,-289.7"/>
<text text-anchor="start" x="182" y="-296.8" font-family="Helvetica,sans-Serif" font-size="11.00" fill="#000000">overall_summary</text>
<polygon fill="none" stroke="#000000" points="307,-289.7 307,-311.7 416,-311.7 416,-289.7 307,-289.7"/>
<text text-anchor="start" x="309.5344" y="-297.4" font-family="Helvetica,sans-Serif" font-size="11.00" fill="#000000">varchar[2147483647]</text>
<polygon fill="#ffffff" stroke="transparent" points="162,-267.7 162,-289.7 307,-289.7 307,-267.7 162,-267.7"/>
<polygon fill="none" stroke="#000000" points="162,-267.7 162,-289.7 307,-289.7 307,-267.7 162,-267.7"/>
<text text-anchor="start" x="182" y="-274.8" font-family="Helvetica,sans-Serif" font-size="11.00" fill="#000000">content_hash</text>
<polygon fill="none" stroke="#000000" points="307,-267.7 307,-289.7 416,-289.7 416,-267.7 307,-267.7"/>
<text text-anchor="start" x="310" y="-275.4" font-family="Helvetica,sans-Serif" font-size="11.00" fill="#000000">varchar[64]</text>
<polygon fill="#ffffff" stroke="transparent" points="162,-245.7 162,-267.7 307,-267.7 307,-245.7 162,-245.7"/>
<polygon fill="none" stroke="#000000" points="162,-245.7 162,-267.7 307,-267.7 307,-245.7 162,-245.7"/>
<image xlink:href="../../images/foreignKeys.png" width="11px" height="12px" preserveAspectRatio="xMinYMin meet" x="167" y="-262.7"/>
<text text-anchor="start" x="182" y="-252.8" font-family="Helvetica,sans-Serif" font-size="11.00" fill="#000000">user_id</text>
<polygon fill="none" stroke="#000000" points="307,-245.7 307,-267.7 416,-267.7 416,-245.7 307,-245.7"/>
<text text-anchor="start" x="310" y="-253.4" font-family="Helvetica,sans-Serif" font-size="11.00" fill="#000000">uuid[2147483647]</text>
<polygon fill="none" stroke="#000000" points="162,-223.7 162,-245.7 307,-245.7 307,-223.7 162,-223.7"/>
<text text-anchor="start" x="182" y="-230.8" font-family="Helvetica,sans-Serif" font-size="11.00" fill="#000000">deleted_at</text>
<polygon fill="none" stroke="#000000" points="307,-223.7 307,-245.7 416,-245.7 416,-223.7 307,-223.7"/>
<text text-anchor="start" x="310" y="-231.4" font-family="Helvetica,sans-Serif" font-size="11.00" fill="#000000">timestamptz[35,6]</text>
<polygon fill="#ffffff" stroke="transparent" points="162,-204.7 162,-223.7 416,-223.7 416,-204.7 162,-204.7"/>
<polygon fill="none" stroke="#000000" points="162,-204.7 162,-223.7 416,-223.7 416,-204.7 162,-204.7"/>
<polygon fill="#ffffff" stroke="transparent" points="163,-205.7 163,-222.7 250,-222.7 250,-205.7 163,-205.7"/>
<text text-anchor="start" x="165" y="-210.8" font-family="Helvetica,sans-Serif" font-size="11.00" fill="#000000">&lt; 1</text>
<polygon fill="#ffffff" stroke="transparent" points="250,-205.7 250,-222.7 328,-222.7 328,-205.7 250,-205.7"/>
<text text-anchor="start" x="285.9431" y="-210.8" font-family="Helvetica,sans-Serif" font-size="11.00" fill="#000000"> &#160;</text>
<polygon fill="#ffffff" stroke="transparent" points="328,-205.7 328,-222.7 415,-222.7 415,-205.7 328,-205.7"/>
<text text-anchor="start" x="397.4053" y="-210.8" font-family="Helvetica,sans-Serif" font-size="11.00" fill="#000000">4 &gt;</text>
<polygon fill="#000000" stroke="#000000" points="250,-205.7 250,-222.7 250,-222.7 250,-205.7 250,-205.7"/>
<polygon fill="#000000" stroke="#000000" points="328,-205.7 328,-222.7 328,-222.7 328,-205.7 328,-205.7"/>
<polygon fill="none" stroke="#000000" stroke-width="2" points="161,-203.7 161,-401.7 417,-401.7 417,-203.7 161,-203.7"/>
</a>
</g>
</g>
<!-- action_items&#45;&gt;summaries -->
<g id="edge1" class="edge">
<title>action_items:w&#45;&gt;summaries:e</title>
<path fill="none" stroke="#000000" d="M481.957,-553.7053C416.8532,-533.5061 501.7739,-366.7 416,-366.7"/>
<polygon fill="#000000" stroke="#000000" points="488.5742,-554.6129 496.0108,-559.2666 492.5371,-555.1564 496.5,-555.7 496.5,-555.7 496.5,-555.7 492.5371,-555.1564 496.9892,-552.1334 488.5742,-554.6129 488.5742,-554.6129"/>
<ellipse fill="none" stroke="#000000" cx="485.4039" cy="-554.178" rx="3.2" ry="3.2"/>
</g>
<!-- users -->
<g id="node5" class="node">
<title>users</title>
<g id="a_node5"><a xlink:href="../../tables/users.html" xlink:title="users" target="_top">
<polygon fill="#ffffff" stroke="transparent" points="8,-99.2 8,-182.2 111,-182.2 111,-99.2 8,-99.2"/>
<polygon fill="#f5f5f5" stroke="transparent" points="8.5,-158.7 8.5,-181.7 111.5,-181.7 111.5,-158.7 8.5,-158.7"/>
<polygon fill="none" stroke="#000000" points="8.5,-158.7 8.5,-181.7 111.5,-181.7 111.5,-158.7 8.5,-158.7"/>
<text text-anchor="start" x="13.5" y="-167.3" font-family="Helvetica,sans-Serif" font-weight="bold" font-size="11.00" fill="#000000">users</text>
<text text-anchor="start" x="76.5437" y="-166.8" font-family="Helvetica,sans-Serif" font-size="11.00" fill="#000000">[table]</text>
<polygon fill="none" stroke="#000000" points="8.5,-136.7 8.5,-158.7 111.5,-158.7 111.5,-136.7 8.5,-136.7"/>
<image xlink:href="../../images/primaryKeys.png" width="11px" height="12px" preserveAspectRatio="xMinYMin meet" x="13.5" y="-153.7"/>
<text text-anchor="start" x="28.5" y="-143.8" font-family="Helvetica,sans-Serif" font-size="11.00" fill="#000000">id</text>
<polygon fill="none" stroke="#000000" points="8.5,-117.7 8.5,-136.7 111.5,-136.7 111.5,-117.7 8.5,-117.7"/>
<text text-anchor="start" x="11.5" y="-123.8" font-family="Helvetica,sans-Serif" font-size="11.00" fill="#000000">...</text>
<polygon fill="#ffffff" stroke="transparent" points="8.5,-98.7 8.5,-117.7 111.5,-117.7 111.5,-98.7 8.5,-98.7"/>
<polygon fill="none" stroke="#000000" points="8.5,-98.7 8.5,-117.7 111.5,-117.7 111.5,-98.7 8.5,-98.7"/>
<polygon fill="#ffffff" stroke="transparent" points="9.5,-99.7 9.5,-116.7 40.5,-116.7 40.5,-99.7 9.5,-99.7"/>
<text text-anchor="start" x="11.5" y="-104.8" font-family="Helvetica,sans-Serif" font-size="11.00" fill="#000000"> &#160;</text>
<polygon fill="#ffffff" stroke="transparent" points="40.5,-99.7 40.5,-116.7 71.5,-116.7 71.5,-99.7 40.5,-99.7"/>
<text text-anchor="start" x="52.9431" y="-104.8" font-family="Helvetica,sans-Serif" font-size="11.00" fill="#000000"> &#160;</text>
<polygon fill="#ffffff" stroke="transparent" points="71.5,-99.7 71.5,-116.7 110.5,-116.7 110.5,-99.7 71.5,-99.7"/>
<text text-anchor="start" x="92.9053" y="-104.8" font-family="Helvetica,sans-Serif" font-size="11.00" fill="#000000">3 &gt;</text>
<polygon fill="#000000" stroke="#000000" points="40.5,-99.7 40.5,-116.7 40.5,-116.7 40.5,-99.7 40.5,-99.7"/>
<polygon fill="#000000" stroke="#000000" points="71.5,-99.7 71.5,-116.7 71.5,-116.7 71.5,-99.7 71.5,-99.7"/>
</a>
</g>
</g>
<!-- summaries&#45;&gt;users -->
<g id="edge4" class="edge">
<title>summaries:w&#45;&gt;users:e</title>
<path fill="none" stroke="#000000" d="M147.7587,-252.8206C119.9529,-233.4034 158.843,-147.7 111.5,-147.7"/>
<polygon fill="#000000" stroke="#000000" points="154.2813,-254.5974 161.0538,-260.1734 158.1406,-255.6487 162,-256.7 162,-256.7 162,-256.7 158.1406,-255.6487 162.9462,-253.2266 154.2813,-254.5974 154.2813,-254.5974"/>
<ellipse fill="none" stroke="#000000" cx="151.1938" cy="-253.7563" rx="3.2" ry="3.2"/>
</g>
<!-- decisions -->
<g id="node3" class="node">
<title>decisions</title>
<g id="a_node3"><a xlink:href="../../tables/decisions.html" xlink:title="decisions" target="_top">
<polygon fill="#ffffff" stroke="transparent" points="507,-381.2 507,-486.2 616,-486.2 616,-381.2 507,-381.2"/>
<polygon fill="#f5f5f5" stroke="transparent" points="507.5,-462.7 507.5,-485.7 616.5,-485.7 616.5,-462.7 507.5,-462.7"/>
<polygon fill="none" stroke="#000000" points="507.5,-462.7 507.5,-485.7 616.5,-485.7 616.5,-462.7 507.5,-462.7"/>
<text text-anchor="start" x="512.5" y="-471.3" font-family="Helvetica,sans-Serif" font-weight="bold" font-size="11.00" fill="#000000">decisions</text>
<text text-anchor="start" x="581.5437" y="-470.8" font-family="Helvetica,sans-Serif" font-size="11.00" fill="#000000">[table]</text>
<polygon fill="none" stroke="#000000" points="507.5,-440.7 507.5,-462.7 616.5,-462.7 616.5,-440.7 507.5,-440.7"/>
<image xlink:href="../../images/primaryKeys.png" width="11px" height="12px" preserveAspectRatio="xMinYMin meet" x="512.5" y="-457.7"/>
<text text-anchor="start" x="527.5" y="-447.8" font-family="Helvetica,sans-Serif" font-size="11.00" fill="#000000">id</text>
<polygon fill="#ffffff" stroke="transparent" points="507.5,-418.7 507.5,-440.7 616.5,-440.7 616.5,-418.7 507.5,-418.7"/>
<polygon fill="none" stroke="#000000" points="507.5,-418.7 507.5,-440.7 616.5,-440.7 616.5,-418.7 507.5,-418.7"/>
<image xlink:href="../../images/foreignKeys.png" width="11px" height="12px" preserveAspectRatio="xMinYMin meet" x="512.5" y="-435.7"/>
<text text-anchor="start" x="527.5" y="-425.8" font-family="Helvetica,sans-Serif" font-size="11.00" fill="#000000">summary_id</text>
<polygon fill="none" stroke="#000000" points="507.5,-399.7 507.5,-418.7 616.5,-418.7 616.5,-399.7 507.5,-399.7"/>
<text text-anchor="start" x="510.5" y="-405.8" font-family="Helvetica,sans-Serif" font-size="11.00" fill="#000000">...</text>
<polygon fill="#ffffff" stroke="transparent" points="507.5,-380.7 507.5,-399.7 616.5,-399.7 616.5,-380.7 507.5,-380.7"/>
<polygon fill="none" stroke="#000000" points="507.5,-380.7 507.5,-399.7 616.5,-399.7 616.5,-380.7 507.5,-380.7"/>
<polygon fill="#ffffff" stroke="transparent" points="508.5,-381.7 508.5,-398.7 550.5,-398.7 550.5,-381.7 508.5,-381.7"/>
<text text-anchor="start" x="510.5" y="-386.8" font-family="Helvetica,sans-Serif" font-size="11.00" fill="#000000">&lt; 1</text>
<polygon fill="#ffffff" stroke="transparent" points="550.5,-381.7 550.5,-398.7 583.5,-398.7 583.5,-381.7 550.5,-381.7"/>
<text text-anchor="start" x="563.9431" y="-386.8" font-family="Helvetica,sans-Serif" font-size="11.00" fill="#000000"> &#160;</text>
<polygon fill="#ffffff" stroke="transparent" points="583.5,-381.7 583.5,-398.7 615.5,-398.7 615.5,-381.7 583.5,-381.7"/>
<text text-anchor="start" x="607.3862" y="-386.8" font-family="Helvetica,sans-Serif" font-size="11.00" fill="#000000"> &#160;</text>
<polygon fill="#000000" stroke="#000000" points="550.5,-381.7 550.5,-398.7 550.5,-398.7 550.5,-381.7 550.5,-381.7"/>
<polygon fill="#000000" stroke="#000000" points="583.5,-381.7 583.5,-398.7 583.5,-398.7 583.5,-381.7 583.5,-381.7"/>
</a>
</g>
</g>
<!-- decisions&#45;&gt;summaries -->
<g id="edge2" class="edge">
<title>decisions:w&#45;&gt;summaries:e</title>
<path fill="none" stroke="#000000" d="M493.1831,-427.6039C459.0342,-416.6724 459.9736,-366.7 416,-366.7"/>
<polygon fill="#000000" stroke="#000000" points="499.5844,-428.541 506.9785,-433.262 503.5422,-429.1205 507.5,-429.7 507.5,-429.7 507.5,-429.7 503.5422,-429.1205 508.0215,-426.138 499.5844,-428.541 499.5844,-428.541"/>
<ellipse fill="none" stroke="#000000" cx="496.4181" cy="-428.0775" rx="3.2" ry="3.2"/>
</g>
<!-- oauth_identities -->
<g id="node4" class="node">
<title>oauth_identities</title>
<g id="a_node4"><a xlink:href="../../tables/oauth_identities.html" xlink:title="oauth_identities" target="_top">
<polygon fill="#ffffff" stroke="transparent" points="210.5,-120.2 210.5,-181.2 367.5,-181.2 367.5,-120.2 210.5,-120.2"/>
<polygon fill="#f5f5f5" stroke="transparent" points="211,-157.7 211,-180.7 368,-180.7 368,-157.7 211,-157.7"/>
<polygon fill="none" stroke="#000000" points="211,-157.7 211,-180.7 368,-180.7 368,-157.7 211,-157.7"/>
<text text-anchor="start" x="216" y="-166.3" font-family="Helvetica,sans-Serif" font-weight="bold" font-size="11.00" fill="#000000">oauth_identities</text>
<text text-anchor="start" x="333.5219" y="-165.8" font-family="Helvetica,sans-Serif" font-size="11.00" fill="#000000">[table]</text>
<polygon fill="none" stroke="#000000" points="211,-138.7 211,-157.7 368,-157.7 368,-138.7 211,-138.7"/>
<text text-anchor="start" x="214" y="-144.8" font-family="Helvetica,sans-Serif" font-size="11.00" fill="#000000">...</text>
<polygon fill="#ffffff" stroke="transparent" points="211,-119.7 211,-138.7 368,-138.7 368,-119.7 211,-119.7"/>
<polygon fill="none" stroke="#000000" points="211,-119.7 211,-138.7 368,-138.7 368,-119.7 211,-119.7"/>
<polygon fill="#ffffff" stroke="transparent" points="212,-120.7 212,-137.7 270,-137.7 270,-120.7 212,-120.7"/>
<text text-anchor="start" x="214" y="-125.8" font-family="Helvetica,sans-Serif" font-size="11.00" fill="#000000">&lt; 1</text>
<polygon fill="#ffffff" stroke="transparent" points="270,-120.7 270,-137.7 319,-137.7 319,-120.7 270,-120.7"/>
<text text-anchor="start" x="291.4431" y="-125.8" font-family="Helvetica,sans-Serif" font-size="11.00" fill="#000000"> &#160;</text>
<polygon fill="#ffffff" stroke="transparent" points="319,-120.7 319,-137.7 367,-137.7 367,-120.7 319,-120.7"/>
<text text-anchor="start" x="358.8862" y="-125.8" font-family="Helvetica,sans-Serif" font-size="11.00" fill="#000000"> &#160;</text>
<polygon fill="#000000" stroke="#000000" points="270,-120.7 270,-137.7 270,-137.7 270,-120.7 270,-120.7"/>
<polygon fill="#000000" stroke="#000000" points="319,-120.7 319,-137.7 319,-137.7 319,-120.7 319,-120.7"/>
</a>
</g>
</g>
<!-- oauth_identities&#45;&gt;users -->
<g id="edge3" class="edge">
<title>oauth_identities:w&#45;&gt;users:e</title>
<path fill="none" stroke="#000000" d="M196.2761,-147.7C163.6139,-147.7 150.3672,-147.7 111.5,-147.7"/>
<polygon fill="#000000" stroke="#000000" points="203,-147.7001 211,-151.3 207,-147.7 211,-147.7 211,-147.7 211,-147.7 207,-147.7 211,-144.1 203,-147.7001 203,-147.7001"/>
<ellipse fill="none" stroke="#000000" cx="199.8" cy="-147.7001" rx="3.2" ry="3.2"/>
</g>
<!-- topics -->
<g id="node6" class="node">
<title>topics</title>
<g id="a_node6"><a xlink:href="../../tables/topics.html" xlink:title="topics" target="_top">
<polygon fill="#ffffff" stroke="transparent" points="507,-255.2 507,-360.2 616,-360.2 616,-255.2 507,-255.2"/>
<polygon fill="#f5f5f5" stroke="transparent" points="507.5,-336.7 507.5,-359.7 616.5,-359.7 616.5,-336.7 507.5,-336.7"/>
<polygon fill="none" stroke="#000000" points="507.5,-336.7 507.5,-359.7 616.5,-359.7 616.5,-336.7 507.5,-336.7"/>
<text text-anchor="start" x="512.5" y="-345.3" font-family="Helvetica,sans-Serif" font-weight="bold" font-size="11.00" fill="#000000">topics</text>
<text text-anchor="start" x="581.5437" y="-344.8" font-family="Helvetica,sans-Serif" font-size="11.00" fill="#000000">[table]</text>
<polygon fill="none" stroke="#000000" points="507.5,-314.7 507.5,-336.7 616.5,-336.7 616.5,-314.7 507.5,-314.7"/>
<image xlink:href="../../images/primaryKeys.png" width="11px" height="12px" preserveAspectRatio="xMinYMin meet" x="512.5" y="-331.7"/>
<text text-anchor="start" x="527.5" y="-321.8" font-family="Helvetica,sans-Serif" font-size="11.00" fill="#000000">id</text>
<polygon fill="#ffffff" stroke="transparent" points="507.5,-292.7 507.5,-314.7 616.5,-314.7 616.5,-292.7 507.5,-292.7"/>
<polygon fill="none" stroke="#000000" points="507.5,-292.7 507.5,-314.7 616.5,-314.7 616.5,-292.7 507.5,-292.7"/>
<image xlink:href="../../images/foreignKeys.png" width="11px" height="12px" preserveAspectRatio="xMinYMin meet" x="512.5" y="-309.7"/>
<text text-anchor="start" x="527.5" y="-299.8" font-family="Helvetica,sans-Serif" font-size="11.00" fill="#000000">summary_id</text>
<polygon fill="none" stroke="#000000" points="507.5,-273.7 507.5,-292.7 616.5,-292.7 616.5,-273.7 507.5,-273.7"/>
<text text-anchor="start" x="510.5" y="-279.8" font-family="Helvetica,sans-Serif" font-size="11.00" fill="#000000">...</text>
<polygon fill="#ffffff" stroke="transparent" points="507.5,-254.7 507.5,-273.7 616.5,-273.7 616.5,-254.7 507.5,-254.7"/>
<polygon fill="none" stroke="#000000" points="507.5,-254.7 507.5,-273.7 616.5,-273.7 616.5,-254.7 507.5,-254.7"/>
<polygon fill="#ffffff" stroke="transparent" points="508.5,-255.7 508.5,-272.7 550.5,-272.7 550.5,-255.7 508.5,-255.7"/>
<text text-anchor="start" x="510.5" y="-260.8" font-family="Helvetica,sans-Serif" font-size="11.00" fill="#000000">&lt; 1</text>
<polygon fill="#ffffff" stroke="transparent" points="550.5,-255.7 550.5,-272.7 583.5,-272.7 583.5,-255.7 550.5,-255.7"/>
<text text-anchor="start" x="563.9431" y="-260.8" font-family="Helvetica,sans-Serif" font-size="11.00" fill="#000000"> &#160;</text>
<polygon fill="#ffffff" stroke="transparent" points="583.5,-255.7 583.5,-272.7 615.5,-272.7 615.5,-255.7 583.5,-255.7"/>
<text text-anchor="start" x="607.3862" y="-260.8" font-family="Helvetica,sans-Serif" font-size="11.00" fill="#000000"> &#160;</text>
<polygon fill="#000000" stroke="#000000" points="550.5,-255.7 550.5,-272.7 550.5,-272.7 550.5,-255.7 550.5,-255.7"/>
<polygon fill="#000000" stroke="#000000" points="583.5,-255.7 583.5,-272.7 583.5,-272.7 583.5,-255.7 583.5,-255.7"/>
</a>
</g>
</g>
<!-- topics&#45;&gt;summaries -->
<g id="edge5" class="edge">
<title>topics:w&#45;&gt;summaries:e</title>
<path fill="none" stroke="#000000" d="M493.1831,-305.7961C459.0342,-316.7276 459.9736,-366.7 416,-366.7"/>
<polygon fill="#000000" stroke="#000000" points="499.5844,-304.859 508.0215,-307.262 503.5422,-304.2795 507.5,-303.7 507.5,-303.7 507.5,-303.7 503.5422,-304.2795 506.9785,-300.138 499.5844,-304.859 499.5844,-304.859"/>
<ellipse fill="none" stroke="#000000" cx="496.4181" cy="-305.3225" rx="3.2" ry="3.2"/>
</g>
<!-- transcript_segments -->
<g id="node7" class="node">
<title>transcript_segments</title>
<g id="a_node7"><a xlink:href="../../tables/transcript_segments.html" xlink:title="transcript_segments" target="_top">
<polygon fill="#ffffff" stroke="transparent" points="467,-129.2 467,-234.2 656,-234.2 656,-129.2 467,-129.2"/>
<polygon fill="#f5f5f5" stroke="transparent" points="467.5,-210.7 467.5,-233.7 656.5,-233.7 656.5,-210.7 467.5,-210.7"/>
<polygon fill="none" stroke="#000000" points="467.5,-210.7 467.5,-233.7 656.5,-233.7 656.5,-210.7 467.5,-210.7"/>
<text text-anchor="start" x="472.5" y="-219.3" font-family="Helvetica,sans-Serif" font-weight="bold" font-size="11.00" fill="#000000">transcript_segments</text>
<text text-anchor="start" x="622.0219" y="-218.8" font-family="Helvetica,sans-Serif" font-size="11.00" fill="#000000">[table]</text>
<polygon fill="none" stroke="#000000" points="467.5,-188.7 467.5,-210.7 656.5,-210.7 656.5,-188.7 467.5,-188.7"/>
<image xlink:href="../../images/primaryKeys.png" width="11px" height="12px" preserveAspectRatio="xMinYMin meet" x="472.5" y="-205.7"/>
<text text-anchor="start" x="496.5" y="-195.8" font-family="Helvetica,sans-Serif" font-size="11.00" fill="#000000">id</text>
<polygon fill="#ffffff" stroke="transparent" points="467.5,-166.7 467.5,-188.7 656.5,-188.7 656.5,-166.7 467.5,-166.7"/>
<polygon fill="none" stroke="#000000" points="467.5,-166.7 467.5,-188.7 656.5,-188.7 656.5,-166.7 467.5,-166.7"/>
<image xlink:href="../../images/foreignKeys.png" width="11px" height="12px" preserveAspectRatio="xMinYMin meet" x="472.5" y="-183.7"/>
<text text-anchor="start" x="496.5" y="-173.8" font-family="Helvetica,sans-Serif" font-size="11.00" fill="#000000">summary_id</text>
<polygon fill="none" stroke="#000000" points="467.5,-147.7 467.5,-166.7 656.5,-166.7 656.5,-147.7 467.5,-147.7"/>
<text text-anchor="start" x="470.5" y="-153.8" font-family="Helvetica,sans-Serif" font-size="11.00" fill="#000000">...</text>
<polygon fill="#ffffff" stroke="transparent" points="467.5,-128.7 467.5,-147.7 656.5,-147.7 656.5,-128.7 467.5,-128.7"/>
<polygon fill="none" stroke="#000000" points="467.5,-128.7 467.5,-147.7 656.5,-147.7 656.5,-128.7 467.5,-128.7"/>
<polygon fill="#ffffff" stroke="transparent" points="468.5,-129.7 468.5,-146.7 537.5,-146.7 537.5,-129.7 468.5,-129.7"/>
<text text-anchor="start" x="470.5" y="-134.8" font-family="Helvetica,sans-Serif" font-size="11.00" fill="#000000">&lt; 1</text>
<polygon fill="#ffffff" stroke="transparent" points="537.5,-129.7 537.5,-146.7 596.5,-146.7 596.5,-129.7 537.5,-129.7"/>
<text text-anchor="start" x="563.9431" y="-134.8" font-family="Helvetica,sans-Serif" font-size="11.00" fill="#000000"> &#160;</text>
<polygon fill="#ffffff" stroke="transparent" points="596.5,-129.7 596.5,-146.7 655.5,-146.7 655.5,-129.7 596.5,-129.7"/>
<text text-anchor="start" x="647.3862" y="-134.8" font-family="Helvetica,sans-Serif" font-size="11.00" fill="#000000"> &#160;</text>
<polygon fill="#000000" stroke="#000000" points="537.5,-129.7 537.5,-146.7 537.5,-146.7 537.5,-129.7 537.5,-129.7"/>
<polygon fill="#000000" stroke="#000000" points="596.5,-129.7 596.5,-146.7 596.5,-146.7 596.5,-129.7 596.5,-129.7"/>
</a>
</g>
</g>
<!-- transcript_segments&#45;&gt;summaries -->
<g id="edge6" class="edge">
<title>transcript_segments:w&#45;&gt;summaries:e</title>
<path fill="none" stroke="#000000" d="M453.1666,-179.9542C395.3734,-201.2781 497.4512,-366.7 416,-366.7"/>
<polygon fill="#000000" stroke="#000000" points="459.5971,-178.9429 468.0593,-181.2563 463.5486,-178.3215 467.5,-177.7 467.5,-177.7 467.5,-177.7 463.5486,-178.3215 466.9407,-174.1437 459.5971,-178.9429 459.5971,-178.9429"/>
<ellipse fill="none" stroke="#000000" cx="456.436" cy="-179.4401" rx="3.2" ry="3.2"/>
</g>
<!-- user_sessions -->
<g id="node8" class="node">
<title>user_sessions</title>
<g id="a_node8"><a xlink:href="../../tables/user_sessions.html" xlink:title="user_sessions" target="_top">
<polygon fill="#ffffff" stroke="transparent" points="219,-38.2 219,-99.2 359,-99.2 359,-38.2 219,-38.2"/>
<polygon fill="#f5f5f5" stroke="transparent" points="219,-75.7 219,-98.7 359,-98.7 359,-75.7 219,-75.7"/>
<polygon fill="none" stroke="#000000" points="219,-75.7 219,-98.7 359,-98.7 359,-75.7 219,-75.7"/>
<text text-anchor="start" x="224" y="-84.3" font-family="Helvetica,sans-Serif" font-weight="bold" font-size="11.00" fill="#000000">user_sessions</text>
<text text-anchor="start" x="324.5219" y="-83.8" font-family="Helvetica,sans-Serif" font-size="11.00" fill="#000000">[table]</text>
<polygon fill="none" stroke="#000000" points="219,-56.7 219,-75.7 359,-75.7 359,-56.7 219,-56.7"/>
<text text-anchor="start" x="222" y="-62.8" font-family="Helvetica,sans-Serif" font-size="11.00" fill="#000000">...</text>
<polygon fill="#ffffff" stroke="transparent" points="219,-37.7 219,-56.7 359,-56.7 359,-37.7 219,-37.7"/>
<polygon fill="none" stroke="#000000" points="219,-37.7 219,-56.7 359,-56.7 359,-37.7 219,-37.7"/>
<polygon fill="#ffffff" stroke="transparent" points="220,-38.7 220,-55.7 272,-55.7 272,-38.7 220,-38.7"/>
<text text-anchor="start" x="222" y="-43.8" font-family="Helvetica,sans-Serif" font-size="11.00" fill="#000000">&lt; 1</text>
<polygon fill="#ffffff" stroke="transparent" points="272,-38.7 272,-55.7 315,-55.7 315,-38.7 272,-38.7"/>
<text text-anchor="start" x="290.4431" y="-43.8" font-family="Helvetica,sans-Serif" font-size="11.00" fill="#000000"> &#160;</text>
<polygon fill="#ffffff" stroke="transparent" points="315,-38.7 315,-55.7 358,-55.7 358,-38.7 315,-38.7"/>
<text text-anchor="start" x="349.8862" y="-43.8" font-family="Helvetica,sans-Serif" font-size="11.00" fill="#000000"> &#160;</text>
<polygon fill="#000000" stroke="#000000" points="272,-38.7 272,-55.7 272,-55.7 272,-38.7 272,-38.7"/>
<polygon fill="#000000" stroke="#000000" points="315,-38.7 315,-55.7 315,-55.7 315,-38.7 315,-38.7"/>
</a>
</g>
</g>
<!-- user_sessions&#45;&gt;users -->
<g id="edge7" class="edge">
<title>user_sessions:w&#45;&gt;users:e</title>
<path fill="none" stroke="#000000" d="M204.4448,-67.2245C181.7146,-72.5624 175.6104,-91.0972 152,-109.7 132.6122,-124.9757 136.1827,-147.7 111.5,-147.7"/>
<polygon fill="#000000" stroke="#000000" points="211.0435,-66.5334 219.375,-69.2804 215.0218,-66.1167 219,-65.7 219,-65.7 219,-65.7 215.0218,-66.1167 218.625,-62.1196 211.0435,-66.5334 211.0435,-66.5334"/>
<ellipse fill="none" stroke="#000000" cx="207.8609" cy="-66.8667" rx="3.2" ry="3.2"/>
</g>
</g>
</svg>
