<?xml version="1.0" encoding="UTF-8" standalone="no"?>
<!DOCTYPE svg PUBLIC "-//W3C//DTD SVG 1.1//EN"
 "http://www.w3.org/Graphics/SVG/1.1/DTD/svg11.dtd">
<!-- Generated by graphviz version 2.40.1 (20161225.0304)
 -->
<!-- Title: oneDegreeRelationshipsDiagram Pages: 1 -->
<svg width="672pt" height="533pt"
 viewBox="0.00 0.00 672.00 533.20" xmlns="http://www.w3.org/2000/svg" xmlns:xlink="http://www.w3.org/1999/xlink">
<g id="graph0" class="graph" transform="scale(1 1) rotate(0) translate(4 529.2)">
<title>oneDegreeRelationshipsDiagram</title>
<polygon fill="#ffffff" stroke="transparent" points="-4,4 -4,-529.2 668,-529.2 668,4 -4,4"/>
<text text-anchor="middle" x="72.4936" y="-7.3" font-family="Helvetica,sans-Serif" font-size="11.00" fill="#000000">Generated by SchemaSpy</text>
<!-- action_items -->
<g id="node1" class="node">
<title>action_items</title>
<g id="a_node1"><a xlink:href="../../tables/action_items.html" xlink:title="action_items" target="_top">
<polygon fill="#ffffff" stroke="transparent" points="496,-416.2 496,-521.2 627,-521.2 627,-416.2 496,-416.2"/>
<polygon fill="#f5f5f5" stroke="transparent" points="496.5,-497.7 496.5,-520.7 627.5,-520.7 627.5,-497.7 496.5,-497.7"/>
<polygon fill="none" stroke="#000000" points="496.5,-497.7 496.5,-520.7 627.5,-520.7 627.5,-497.7 496.5,-497.7"/>
<text text-anchor="start" x="501.5" y="-506.3" font-family="Helvetica,sans-Serif" font-weight="bold" font-size="11.00" fill="#000000">action_items</text>
<text text-anchor="start" x="593.0219" y="-505.8" font-family="Helvetica,sans-Serif" font-size="11.00" fill="#000000">[table]</text>
<polygon fill="none" stroke="#000000" points="496.5,-475.7 496.5,-497.7 627.5,-497.7 627.5,-475.7 496.5,-475.7"/>
<image xlink:href="../../images/primaryKeys.png" width="11px" height="12px" preserveAspectRatio="xMinYMin meet" x="501.5" y="-492.7"/>
<text text-anchor="start" x="525.5" y="-482.8" font-family="Helvetica,sans-Serif" font-size="11.00" fill="#000000">id</text>
<polygon fill="#ffffff" stroke="transparent" points="496.5,-453.7 496.5,-475.7 627.5,-475.7 627.5,-453.7 496.5,-453.7"/>
<polygon fill="none" stroke="#000000" points="496.5,-453.7 496.5,-475.7 627.5,-475.7 627.5,-453.7 496.5,-453.7"/>
<image xlink:href="../../images/foreignKeys.png" width="11px" height="12px" preserveAspectRatio="xMinYMin meet" x="501.5" y="-470.7"/>
<text text-anchor="start" x="525.5" y="-460.8" font-family="Helvetica,sans-Serif" font-size="11.00" fill="#000000">summary_id</text>
<polygon fill="none" stroke="#000000" points="496.5,-434.7 496.5,-453.7 627.5,-453.7 627.5,-434.7 496.5,-434.7"/>
<text text-anchor="start" x="499.5" y="-440.8" font-family="Helvetica,sans-Serif" font-size="11.00" fill="#000000">...</text>
<polygon fill="#ffffff" stroke="transparent" points="496.5,-415.7 496.5,-434.7 627.5,-434.7 627.5,-415.7 496.5,-415.7"/>
<polygon fill="none" stroke="#000000" points="496.5,-415.7 496.5,-434.7 627.5,-434.7 627.5,-415.7 496.5,-415.7"/>
<polygon fill="#ffffff" stroke="transparent" points="497.5,-416.7 497.5,-433.7 546.5,-433.7 546.5,-416.7 497.5,-416.7"/>
<text text-anchor="start" x="499.5" y="-421.8" font-family="Helvetica,sans-Serif" font-size="11.00" fill="#000000">&lt; 1</text>
<polygon fill="#ffffff" stroke="transparent" points="546.5,-416.7 546.5,-433.7 586.5,-433.7 586.5,-416.7 546.5,-416.7"/>
<text text-anchor="start" x="563.4431" y="-421.8" font-family="Helvetica,sans-Serif" font-size="11.00" fill="#000000"> &#160;</text>
<polygon fill="#ffffff" stroke="transparent" points="586.5,-416.7 586.5,-433.7 626.5,-433.7 626.5,-416.7 586.5,-416.7"/>
<text text-anchor="start" x="618.3862" y="-421.8" font-family="Helvetica,sans-Serif" font-size="11.00" fill="#000000"> &#160;</text>
<polygon fill="#000000" stroke="#000000" points="546.5,-416.7 546.5,-433.7 546.5,-433.7 546.5,-416.7 546.5,-416.7"/>
<polygon fill="#000000" stroke="#000000" points="586.5,-416.7 586.5,-433.7 586.5,-433.7 586.5,-416.7 586.5,-416.7"/>
</a>
</g>
</g>
<!-- summaries -->
<g id="node2" class="node">
<title>summaries</title>
<g id="a_node2"><a xlink:href="../../tables/summaries.html" xlink:title="summaries" target="_top">
<polygon fill="#ffffff" stroke="transparent" points="160,-111.7 160,-311.7 418,-311.7 418,-111.7 160,-111.7"/>
<polygon fill="#f5f5f5" stroke="transparent" points="162,-286.7 162,-309.7 416,-309.7 416,-286.7 162,-286.7"/>
<polygon fill="none" stroke="#000000" points="162,-286.7 162,-309.7 416,-309.7 416,-286.7 162,-286.7"/>
<text text-anchor="start" x="167" y="-295.3" font-family="Helvetica,sans-Serif" font-weight="bold" font-size="11.00" fill="#000000">summaries</text>
<text text-anchor="start" x="381.0437" y="-294.8" font-family="Helvetica,sans-Serif" font-size="11.00" fill="#000000">[table]</text>
<polygon fill="none" stroke="#000000" points="162,-264.7 162,-286.7 307,-286.7 307,-264.7 162,-264.7"/>
<image xlink:href="../../images/primaryKeys.png" width="11px" height="12px" preserveAspectRatio="xMinYMin meet" x="167" y="-281.7"/>
<text text-anchor="start" x="182" y="-271.8" font-family="Helvetica,sans-Serif" font-size="11.00" fill="#000000">id</text>
<polygon fill="none" stroke="#000000" points="307,-264.7 307,-286.7 416,-286.7 416,-264.7 307,-264.7"/>
<text text-anchor="start" x="310" y="-272.4" font-family="Helvetica,sans-Serif" font-size="11.00" fill="#000000">uuid[2147483647]</text>
<polygon fill="none" stroke="#000000" points="162,-242.7 162,-264.7 307,-264.7 307,-242.7 162,-242.7"/>
<text text-anchor="start" x="182" y="-249.8" font-family="Helvetica,sans-Serif" font-size="11.00" fill="#000000">filename</text>
<polygon fill="none" stroke="#000000" points="307,-242.7 307,-264.7 416,-264.7 416,-242.7 307,-242.7"/>
<text text-anchor="start" x="310" y="-250.4" font-family="Helvetica,sans-Serif" font-size="11.00" fill="#000000">varchar[255]</text>
<polygon fill="none" stroke="#000000" points="162,-220.7 162,-242.7 307,-242.7 307,-220.7 162,-220.7"/>
<text text-anchor="start" x="182" y="-227.8" font-family="Helvetica,sans-Serif" font-size="11.00" fill="#000000">created_at</text>
<polygon fill="none" stroke="#000000" points="307,-220.7 307,-242.7 416,-242.7 416,-220.7 307,-220.7"/>
<text text-anchor="start" x="310" y="-228.4" font-family="Helvetica,sans-Serif" font-size="11.00" fill="#000000">timestamptz[35,6]</text>
<polygon fill="none" stroke="#000000" points="162,-198.7 162,-220.7 307,-220.7 307,-198.7 162,-198.7"/>
<text text-anchor="start" x="182" y="-205.8" font-family="Helvetica,sans-Serif" font-size="11.00" fill="#000000">overall_summary</text>
<polygon fill="none" stroke="#000000" points="307,-198.7 307,-220.7 416,-220.7 416,-198.7 307,-198.7"/>
<text text-anchor="start" x="309.5344" y="-206.4" font-family="Helvetica,sans-Serif" font-size="11.00" fill="#000000">varchar[2147483647]</text>
<polygon fill="#ffffff" stroke="transparent" points="162,-176.7 162,-198.7 307,-198.7 307,-176.7 162,-176.7"/>
<polygon fill="none" stroke="#000000" points="162,-176.7 162,-198.7 307,-198.7 307,-176.7 162,-176.7"/>
<text text-anchor="start" x="182" y="-183.8" font-family="Helvetica,sans-Serif" font-size="11.00" fill="#000000">content_hash</text>
<polygon fill="none" stroke="#000000" points="307,-176.7 307,-198.7 416,-198.7 416,-176.7 307,-176.7"/>
<text text-anchor="start" x="310" y="-184.4" font-family="Helvetica,sans-Serif" font-size="11.00" fill="#000000">varchar[64]</text>
<polygon fill="#ffffff" stroke="transparent" points="162,-154.7 162,-176.7 307,-176.7 307,-154.7 162,-154.7"/>
<polygon fill="none" stroke="#000000" points="162,-154.7 162,-176.7 307,-176.7 307,-154.7 162,-154.7"/>
<image xlink:href="../../images/foreignKeys.png" width="11px" height="12px" preserveAspectRatio="xMinYMin meet" x="167" y="-171.7"/>
<text text-anchor="start" x="182" y="-161.8" font-family="Helvetica,sans-Serif" font-size="11.00" fill="#000000">user_id</text>
<polygon fill="none" stroke="#000000" points="307,-154.7 307,-176.7 416,-176.7 416,-154.7 307,-154.7"/>
<text text-anchor="start" x="310" y="-162.4" font-family="Helvetica,sans-Serif" font-size="11.00" fill="#000000">uuid[2147483647]</text>
<polygon fill="none" stroke="#000000" points="162,-132.7 162,-154.7 307,-154.7 307,-132.7 162,-132.7"/>
<text text-anchor="start" x="182" y="-139.8" font-family="Helvetica,sans-Serif" font-size="11.00" fill="#000000">deleted_at</text>
<polygon fill="none" stroke="#000000" points="307,-132.7 307,-154.7 416,-154.7 416,-132.7 307,-132.7"/>
<text text-anchor="start" x="310" y="-140.4" font-family="Helvetica,sans-Serif" font-size="11.00" fill="#000000">timestamptz[35,6]</text>
<polygon fill="#ffffff" stroke="transparent" points="162,-113.7 162,-132.7 416,-132.7 416,-113.7 162,-113.7"/>
<polygon fill="none" stroke="#000000" points="162,-113.7 162,-132.7 416,-132.7 416,-113.7 162,-113.7"/>
<polygon fill="#ffffff" stroke="transparent" points="163,-114.7 163,-131.7 250,-131.7 250,-114.7 163,-114.7"/>
<text text-anchor="start" x="165" y="-119.8" font-family="Helvetica,sans-Serif" font-size="11.00" fill="#000000">&lt; 1</text>
<polygon fill="#ffffff" stroke="transparent" points="250,-114.7 250,-131.7 328,-131.7 328,-114.7 250,-114.7"/>
<text text-anchor="start" x="285.9431" y="-119.8" font-family="Helvetica,sans-Serif" font-size="11.00" fill="#000000"> &#160;</text>
<polygon fill="#ffffff" stroke="transparent" points="328,-114.7 328,-131.7 415,-131.7 415,-114.7 328,-114.7"/>
<text text-anchor="start" x="397.4053" y="-119.8" font-family="Helvetica,sans-Serif" font-size="11.00" fill="#000000">4 &gt;</text>
<polygon fill="#000000" stroke="#000000" points="250,-114.7 250,-131.7 250,-131.7 250,-114.7 250,-114.7"/>
<polygon fill="#000000" stroke="#000000" points="328,-114.7 328,-131.7 328,-131.7 328,-114.7 328,-114.7"/>
<polygon fill="none" stroke="#000000" stroke-width="2" points="161,-112.7 161,-310.7 417,-310.7 417,-112.7 161,-112.7"/>
</a>
</g>
</g>
<!-- action_items&#45;&gt;summaries -->
<g id="edge1" class="edge">
<title>action_items:w&#45;&gt;summaries:e</title>
<path fill="none" stroke="#000000" d="M481.957,-462.7053C416.8532,-442.5061 501.7739,-275.7 416,-275.7"/>
<polygon fill="#000000" stroke="#000000" points="488.5742,-463.6129 496.0108,-468.2666 492.5371,-464.1564 496.5,-464.7 496.5,-464.7 496.5,-464.7 492.5371,-464.1564 496.9892,-461.1334 488.5742,-463.6129 488.5742,-463.6129"/>
<ellipse fill="none" stroke="#000000" cx="485.4039" cy="-463.178" rx="3.2" ry="3.2"/>
</g>
<!-- users -->
<g id="node4" class="node">
<title>users</title>
<g id="a_node4"><a xlink:href="../../tables/users.html" xlink:title="users" target="_top">
<polygon fill="#ffffff" stroke="transparent" points="8,-117.2 8,-200.2 111,-200.2 111,-117.2 8,-117.2"/>
<polygon fill="#f5f5f5" stroke="transparent" points="8.5,-176.7 8.5,-199.7 111.5,-199.7 111.5,-176.7 8.5,-176.7"/>
<polygon fill="none" stroke="#000000" points="8.5,-176.7 8.5,-199.7 111.5,-199.7 111.5,-176.7 8.5,-176.7"/>
<text text-anchor="start" x="13.5" y="-185.3" font-family="Helvetica,sans-Serif" font-weight="bold" font-size="11.00" fill="#000000">users</text>
<text text-anchor="start" x="76.5437" y="-184.8" font-family="Helvetica,sans-Serif" font-size="11.00" fill="#000000">[table]</text>
<polygon fill="none" stroke="#000000" points="8.5,-154.7 8.5,-176.7 111.5,-176.7 111.5,-154.7 8.5,-154.7"/>
<image xlink:href="../../images/primaryKeys.png" width="11px" height="12px" preserveAspectRatio="xMinYMin meet" x="13.5" y="-171.7"/>
<text text-anchor="start" x="28.5" y="-161.8" font-family="Helvetica,sans-Serif" font-size="11.00" fill="#000000">id</text>
<polygon fill="none" stroke="#000000" points="8.5,-135.7 8.5,-154.7 111.5,-154.7 111.5,-135.7 8.5,-135.7"/>
<text text-anchor="start" x="11.5" y="-141.8" font-family="Helvetica,sans-Serif" font-size="11.00" fill="#000000">...</text>
<polygon fill="#ffffff" stroke="transparent" points="8.5,-116.7 8.5,-135.7 111.5,-135.7 111.5,-116.7 8.5,-116.7"/>
<polygon fill="none" stroke="#000000" points="8.5,-116.7 8.5,-135.7 111.5,-135.7 111.5,-116.7 8.5,-116.7"/>
<polygon fill="#ffffff" stroke="transparent" points="9.5,-117.7 9.5,-134.7 40.5,-134.7 40.5,-117.7 9.5,-117.7"/>
<text text-anchor="start" x="11.5" y="-122.8" font-family="Helvetica,sans-Serif" font-size="11.00" fill="#000000"> &#160;</text>
<polygon fill="#ffffff" stroke="transparent" points="40.5,-117.7 40.5,-134.7 71.5,-134.7 71.5,-117.7 40.5,-117.7"/>
<text text-anchor="start" x="52.9431" y="-122.8" font-family="Helvetica,sans-Serif" font-size="11.00" fill="#000000"> &#160;</text>
<polygon fill="#ffffff" stroke="transparent" points="71.5,-117.7 71.5,-134.7 110.5,-134.7 110.5,-117.7 71.5,-117.7"/>
<text text-anchor="start" x="92.9053" y="-122.8" font-family="Helvetica,sans-Serif" font-size="11.00" fill="#000000">3 &gt;</text>
<polygon fill="#000000" stroke="#000000" points="40.5,-117.7 40.5,-134.7 40.5,-134.7 40.5,-117.7 40.5,-117.7"/>
<polygon fill="#000000" stroke="#000000" points="71.5,-117.7 71.5,-134.7 71.5,-134.7 71.5,-117.7 71.5,-117.7"/>
</a>
</g>
</g>
<!-- summaries&#45;&gt;users -->
<g id="edge3" class="edge">
<title>summaries:w&#45;&gt;users:e</title>
<path fill="none" stroke="#000000" d="M147.4203,-165.7C135.5435,-165.7 128.158,-165.7 111.5,-165.7"/>
<polygon fill="#000000" stroke="#000000" points="154,-165.7001 162,-169.3 158,-165.7 162,-165.7 162,-165.7 162,-165.7 158,-165.7 162,-162.1 154,-165.7001 154,-165.7001"/>
<ellipse fill="none" stroke="#000000" cx="150.8" cy="-165.7001" rx="3.2" ry="3.2"/>
</g>
<!-- decisions -->
<g id="node3" class="node">
<title>decisions</title>
<g id="a_node3"><a xlink:href="../../tables/decisions.html" xlink:title="decisions" target="_top">
<polygon fill="#ffffff" stroke="transparent" points="507,-290.2 507,-395.2 616,-395.2 616,-290.2 507,-290.2"/>
<polygon fill="#f5f5f5" stroke="transparent" points="507.5,-371.7 507.5,-394.7 616.5,-394.7 616.5,-371.7 507.5,-371.7"/>
<polygon fill="none" stroke="#000000" points="507.5,-371.7 507.5,-394.7 616.5,-394.7 616.5,-371.7 507.5,-371.7"/>
<text text-anchor="start" x="512.5" y="-380.3" font-family="Helvetica,sans-Serif" font-weight="bold" font-size="11.00" fill="#000000">decisions</text>
<text text-anchor="start" x="581.5437" y="-379.8" font-family="Helvetica,sans-Serif" font-size="11.00" fill="#000000">[table]</text>
<polygon fill="none" stroke="#000000" points="507.5,-349.7 507.5,-371.7 616.5,-371.7 616.5,-349.7 507.5,-349.7"/>
<image xlink:href="../../images/primaryKeys.png" width="11px" height="12px" preserveAspectRatio="xMinYMin meet" x="512.5" y="-366.7"/>
<text text-anchor="start" x="527.5" y="-356.8" font-family="Helvetica,sans-Serif" font-size="11.00" fill="#000000">id</text>
<polygon fill="#ffffff" stroke="transparent" points="507.5,-327.7 507.5,-349.7 616.5,-349.7 616.5,-327.7 507.5,-327.7"/>
<polygon fill="none" stroke="#000000" points="507.5,-327.7 507.5,-349.7 616.5,-349.7 616.5,-327.7 507.5,-327.7"/>
<image xlink:href="../../images/foreignKeys.png" width="11px" height="12px" preserveAspectRatio="xMinYMin meet" x="512.5" y="-344.7"/>
<text text-anchor="start" x="527.5" y="-334.8" font-family="Helvetica,sans-Serif" font-size="11.00" fill="#000000">summary_id</text>
<polygon fill="none" stroke="#000000" points="507.5,-308.7 507.5,-327.7 616.5,-327.7 616.5,-308.7 507.5,-308.7"/>
<text text-anchor="start" x="510.5" y="-314.8" font-family="Helvetica,sans-Serif" font-size="11.00" fill="#000000">...</text>
<polygon fill="#ffffff" stroke="transparent" points="507.5,-289.7 507.5,-308.7 616.5,-308.7 616.5,-289.7 507.5,-289.7"/>
<polygon fill="none" stroke="#000000" points="507.5,-289.7 507.5,-308.7 616.5,-308.7 616.5,-289.7 507.5,-289.7"/>
<polygon fill="#ffffff" stroke="transparent" points="508.5,-290.7 508.5,-307.7 550.5,-307.7 550.5,-290.7 508.5,-290.7"/>
<text text-anchor="start" x="510.5" y="-295.8" font-family="Helvetica,sans-Serif" font-size="11.00" fill="#000000">&lt; 1</text>
<polygon fill="#ffffff" stroke="transparent" points="550.5,-290.7 550.5,-307.7 583.5,-307.7 583.5,-290.7 550.5,-290.7"/>
<text text-anchor="start" x="563.9431" y="-295.8" font-family="Helvetica,sans-Serif" font-size="11.00" fill="#000000"> &#160;</text>
<polygon fill="#ffffff" stroke="transparent" points="583.5,-290.7 583.5,-307.7 615.5,-307.7 615.5,-290.7 583.5,-290.7"/>
<text text-anchor="start" x="607.3862" y="-295.8" font-family="Helvetica,sans-Serif" font-size="11.00" fill="#000000"> &#160;</text>
<polygon fill="#000000" stroke="#000000" points="550.5,-290.7 550.5,-307.7 550.5,-307.7 550.5,-290.7 550.5,-290.7"/>
<polygon fill="#000000" stroke="#000000" points="583.5,-290.7 583.5,-307.7 583.5,-307.7 583.5,-290.7 583.5,-290.7"/>
</a>
</g>
</g>
<!-- decisions&#45;&gt;summaries -->
<g id="edge2" class="edge">
<title>decisions:w&#45;&gt;summaries:e</title>
<path fill="none" stroke="#000000" d="M493.1831,-336.6039C459.0342,-325.6724 459.9736,-275.7 416,-275.7"/>
<polygon fill="#000000" stroke="#000000" points="499.5844,-337.541 506.9785,-342.262 503.5422,-338.1205 507.5,-338.7 507.5,-338.7 507.5,-338.7 503.5422,-338.1205 508.0215,-335.138 499.5844,-337.541 499.5844,-337.541"/>
<ellipse fill="none" stroke="#000000" cx="496.4181" cy="-337.0775" rx="3.2" ry="3.2"/>
</g>
<!-- topics -->
<g id="node5" class="node">
<title>topics</title>
<g id="a_node5"><a xlink:href="../../tables/topics.html" xlink:title="topics" target="_top">
<polygon fill="#ffffff" stroke="transparent" points="507,-164.2 507,-269.2 616,-269.2 616,-164.2 507,-164.2"/>
<polygon fill="#f5f5f5" stroke="transparent" points="507.5,-245.7 507.5,-268.7 616.5,-268.7 616.5,-245.7 507.5,-245.7"/>
<polygon fill="none" stroke="#000000" points="507.5,-245.7 507.5,-268.7 616.5,-268.7 616.5,-245.7 507.5,-245.7"/>
<text text-anchor="start" x="512.5" y="-254.3" font-family="Helvetica,sans-Serif" font-weight="bold" font-size="11.00" fill="#000000">topics</text>
<text text-anchor="start" x="581.5437" y="-253.8" font-family="Helvetica,sans-Serif" font-size="11.00" fill="#000000">[table]</text>
<polygon fill="none" stroke="#000000" points="507.5,-223.7 507.5,-245.7 616.5,-245.7 616.5,-223.7 507.5,-223.7"/>
<image xlink:href="../../images/primaryKeys.png" width="11px" height="12px" preserveAspectRatio="xMinYMin meet" x="512.5" y="-240.7"/>
<text text-anchor="start" x="527.5" y="-230.8" font-family="Helvetica,sans-Serif" font-size="11.00" fill="#000000">id</text>
<polygon fill="#ffffff" stroke="transparent" points="507.5,-201.7 507.5,-223.7 616.5,-223.7 616.5,-201.7 507.5,-201.7"/>
<polygon fill="none" stroke="#000000" points="507.5,-201.7 507.5,-223.7 616.5,-223.7 616.5,-201.7 507.5,-201.7"/>
<image xlink:href="../../images/foreignKeys.png" width="11px" height="12px" preserveAspectRatio="xMinYMin meet" x="512.5" y="-218.7"/>
<text text-anchor="start" x="527.5" y="-208.8" font-family="Helvetica,sans-Serif" font-size="11.00" fill="#000000">summary_id</text>
<polygon fill="none" stroke="#000000" points="507.5,-182.7 507.5,-201.7 616.5,-201.7 616.5,-182.7 507.5,-182.7"/>
<text text-anchor="start" x="510.5" y="-188.8" font-family="Helvetica,sans-Serif" font-size="11.00" fill="#000000">...</text>
<polygon fill="#ffffff" stroke="transparent" points="507.5,-163.7 507.5,-182.7 616.5,-182.7 616.5,-163.7 507.5,-163.7"/>
<polygon fill="none" stroke="#000000" points="507.5,-163.7 507.5,-182.7 616.5,-182.7 616.5,-163.7 507.5,-163.7"/>
<polygon fill="#ffffff" stroke="transparent" points="508.5,-164.7 508.5,-181.7 550.5,-181.7 550.5,-164.7 508.5,-164.7"/>
<text text-anchor="start" x="510.5" y="-169.8" font-family="Helvetica,sans-Serif" font-size="11.00" fill="#000000">&lt; 1</text>
<polygon fill="#ffffff" stroke="transparent" points="550.5,-164.7 550.5,-181.7 583.5,-181.7 583.5,-164.7 550.5,-164.7"/>
<text text-anchor="start" x="563.9431" y="-169.8" font-family="Helvetica,sans-Serif" font-size="11.00" fill="#000000"> &#160;</text>
<polygon fill="#ffffff" stroke="transparent" points="583.5,-164.7 583.5,-181.7 615.5,-181.7 615.5,-164.7 583.5,-164.7"/>
<text text-anchor="start" x="607.3862" y="-169.8" font-family="Helvetica,sans-Serif" font-size="11.00" fill="#000000"> &#160;</text>
<polygon fill="#000000" stroke="#000000" points="550.5,-164.7 550.5,-181.7 550.5,-181.7 550.5,-164.7 550.5,-164.7"/>
<polygon fill="#000000" stroke="#000000" points="583.5,-164.7 583.5,-181.7 583.5,-181.7 583.5,-164.7 583.5,-164.7"/>
</a>
</g>
</g>
<!-- topics&#45;&gt;summaries -->
<g id="edge4" class="edge">
<title>topics:w&#45;&gt;summaries:e</title>
<path fill="none" stroke="#000000" d="M493.1831,-214.7961C459.0342,-225.7276 459.9736,-275.7 416,-275.7"/>
<polygon fill="#000000" stroke="#000000" points="499.5844,-213.859 508.0215,-216.262 503.5422,-213.2795 507.5,-212.7 507.5,-212.7 507.5,-212.7 503.5422,-213.2795 506.9785,-209.138 499.5844,-213.859 499.5844,-213.859"/>
<ellipse fill="none" stroke="#000000" cx="496.4181" cy="-214.3225" rx="3.2" ry="3.2"/>
</g>
<!-- transcript_segments -->
<g id="node6" class="node">
<title>transcript_segments</title>
<g id="a_node6"><a xlink:href="../../tables/transcript_segments.html" xlink:title="transcript_segments" target="_top">
<polygon fill="#ffffff" stroke="transparent" points="467,-38.2 467,-143.2 656,-143.2 656,-38.2 467,-38.2"/>
<polygon fill="#f5f5f5" stroke="transparent" points="467.5,-119.7 467.5,-142.7 656.5,-142.7 656.5,-119.7 467.5,-119.7"/>
<polygon fill="none" stroke="#000000" points="467.5,-119.7 467.5,-142.7 656.5,-142.7 656.5,-119.7 467.5,-119.7"/>
<text text-anchor="start" x="472.5" y="-128.3" font-family="Helvetica,sans-Serif" font-weight="bold" font-size="11.00" fill="#000000">transcript_segments</text>
<text text-anchor="start" x="622.0219" y="-127.8" font-family="Helvetica,sans-Serif" font-size="11.00" fill="#000000">[table]</text>
<polygon fill="none" stroke="#000000" points="467.5,-97.7 467.5,-119.7 656.5,-119.7 656.5,-97.7 467.5,-97.7"/>
<image xlink:href="../../images/primaryKeys.png" width="11px" height="12px" preserveAspectRatio="xMinYMin meet" x="472.5" y="-114.7"/>
<text text-anchor="start" x="496.5" y="-104.8" font-family="Helvetica,sans-Serif" font-size="11.00" fill="#000000">id</text>
<polygon fill="#ffffff" stroke="transparent" points="467.5,-75.7 467.5,-97.7 656.5,-97.7 656.5,-75.7 467.5,-75.7"/>
<polygon fill="none" stroke="#000000" points="467.5,-75.7 467.5,-97.7 656.5,-97.7 656.5,-75.7 467.5,-75.7"/>
<image xlink:href="../../images/foreignKeys.png" width="11px" height="12px" preserveAspectRatio="xMinYMin meet" x="472.5" y="-92.7"/>
<text text-anchor="start" x="496.5" y="-82.8" font-family="Helvetica,sans-Serif" font-size="11.00" fill="#000000">summary_id</text>
<polygon fill="none" stroke="#000000" points="467.5,-56.7 467.5,-75.7 656.5,-75.7 656.5,-56.7 467.5,-56.7"/>
<text text-anchor="start" x="470.5" y="-62.8" font-family="Helvetica,sans-Serif" font-size="11.00" fill="#000000">...</text>
<polygon fill="#ffffff" stroke="transparent" points="467.5,-37.7 467.5,-56.7 656.5,-56.7 656.5,-37.7 467.5,-37.7"/>
<polygon fill="none" stroke="#000000" points="467.5,-37.7 467.5,-56.7 656.5,-56.7 656.5,-37.7 467.5,-37.7"/>
<polygon fill="#ffffff" stroke="transparent" points="468.5,-38.7 468.5,-55.7 537.5,-55.7 537.5,-38.7 468.5,-38.7"/>
<text text-anchor="start" x="470.5" y="-43.8" font-family="Helvetica,sans-Serif" font-size="11.00" fill="#000000">&lt; 1</text>
<polygon fill="#ffffff" stroke="transparent" points="537.5,-38.7 537.5,-55.7 596.5,-55.7 596.5,-38.7 537.5,-38.7"/>
<text text-anchor="start" x="563.9431" y="-43.8" font-family="Helvetica,sans-Serif" font-size="11.00" fill="#000000"> &#160;</text>
<polygon fill="#ffffff" stroke="transparent" points="596.5,-38.7 596.5,-55.7 655.5,-55.7 655.5,-38.7 596.5,-38.7"/>
<text text-anchor="start" x="647.3862" y="-43.8" font-family="Helvetica,sans-Serif" font-size="11.00" fill="#000000"> &#160;</text>
<polygon fill="#000000" stroke="#000000" points="537.5,-38.7 537.5,-55.7 537.5,-55.7 537.5,-38.7 537.5,-38.7"/>
<polygon fill="#000000" stroke="#000000" points="596.5,-38.7 596.5,-55.7 596.5,-55.7 596.5,-38.7 596.5,-38.7"/>
</a>
</g>
</g>
<!-- transcript_segments&#45;&gt;summaries -->
<g id="edge5" class="edge">
<title>transcript_segments:w&#45;&gt;summaries:e</title>
<path fill="none" stroke="#000000" d="M453.1666,-88.9542C395.3734,-110.2781 497.4512,-275.7 416,-275.7"/>
<polygon fill="#000000" stroke="#000000" points="459.5971,-87.9429 468.0593,-90.2563 463.5486,-87.3215 467.5,-86.7 467.5,-86.7 467.5,-86.7 463.5486,-87.3215 466.9407,-83.1437 459.5971,-87.9429 459.5971,-87.9429"/>
<ellipse fill="none" stroke="#000000" cx="456.436" cy="-88.4401" rx="3.2" ry="3.2"/>
</g>
</g>
</svg>
