<?xml version="1.0" encoding="UTF-8" standalone="no"?>
<!DOCTYPE svg PUBLIC "-//W3C//DTD SVG 1.1//EN"
 "http://www.w3.org/Graphics/SVG/1.1/DTD/svg11.dtd">
<!-- Generated by graphviz version 2.40.1 (20161225.0304)
 -->
<!-- Title: oneDegreeRelationshipsDiagram Pages: 1 -->
<svg width="440pt" height="201pt"
 viewBox="0.00 0.00 440.00 200.70" xmlns="http://www.w3.org/2000/svg" xmlns:xlink="http://www.w3.org/1999/xlink">
<g id="graph0" class="graph" transform="scale(1 1) rotate(0) translate(4 196.7)">
<title>oneDegreeRelationshipsDiagram</title>
<polygon fill="#ffffff" stroke="transparent" points="-4,4 -4,-196.7 436,-196.7 436,4 -4,4"/>
<text text-anchor="middle" x="72.4936" y="-7.3" font-family="Helvetica,sans-Serif" font-size="11.00" fill="#000000">Generated by SchemaSpy</text>
<!-- topics -->
<g id="node1" class="node">
<title>topics</title>
<g id="a_node1"><a xlink:href="../../tables/topics.html" xlink:title="topics" target="_top">
<polygon fill="#ffffff" stroke="transparent" points="202,-54.7 202,-188.7 424,-188.7 424,-54.7 202,-54.7"/>
<polygon fill="#f5f5f5" stroke="transparent" points="204,-163.7 204,-186.7 422,-186.7 422,-163.7 204,-163.7"/>
<polygon fill="none" stroke="#000000" points="204,-163.7 204,-186.7 422,-186.7 422,-163.7 204,-163.7"/>
<text text-anchor="start" x="209" y="-172.3" font-family="Helvetica,sans-Serif" font-weight="bold" font-size="11.00" fill="#000000">topics</text>
<text text-anchor="start" x="387.0437" y="-171.8" font-family="Helvetica,sans-Serif" font-size="11.00" fill="#000000">[table]</text>
<polygon fill="none" stroke="#000000" points="204,-141.7 204,-163.7 313,-163.7 313,-141.7 204,-141.7"/>
<image xlink:href="../../images/primaryKeys.png" width="11px" height="12px" preserveAspectRatio="xMinYMin meet" x="209" y="-158.7"/>
<text text-anchor="start" x="224" y="-148.8" font-family="Helvetica,sans-Serif" font-size="11.00" fill="#000000">id</text>
<polygon fill="none" stroke="#000000" points="313,-141.7 313,-163.7 422,-163.7 422,-141.7 313,-141.7"/>
<text text-anchor="start" x="316" y="-149.4" font-family="Helvetica,sans-Serif" font-size="11.00" fill="#000000">serial[10]</text>
<polygon fill="#ffffff" stroke="transparent" points="204,-119.7 204,-141.7 313,-141.7 313,-119.7 204,-119.7"/>
<polygon fill="none" stroke="#000000" points="204,-119.7 204,-141.7 313,-141.7 313,-119.7 204,-119.7"/>
<image xlink:href="../../images/foreignKeys.png" width="11px" height="12px" preserveAspectRatio="xMinYMin meet" x="209" y="-136.7"/>
<text text-anchor="start" x="224" y="-126.8" font-family="Helvetica,sans-Serif" font-size="11.00" fill="#000000">summary_id</text>
<polygon fill="none" stroke="#000000" points="313,-119.7 313,-141.7 422,-141.7 422,-119.7 313,-119.7"/>
<text text-anchor="start" x="316" y="-127.4" font-family="Helvetica,sans-Serif" font-size="11.00" fill="#000000">uuid[2147483647]</text>
<polygon fill="none" stroke="#000000" points="204,-97.7 204,-119.7 313,-119.7 313,-97.7 204,-97.7"/>
<text text-anchor="start" x="224" y="-104.8" font-family="Helvetica,sans-Serif" font-size="11.00" fill="#000000">title</text>
<polygon fill="none" stroke="#000000" points="313,-97.7 313,-119.7 422,-119.7 422,-97.7 313,-97.7"/>
<text text-anchor="start" x="315.5344" y="-105.4" font-family="Helvetica,sans-Serif" font-size="11.00" fill="#000000">varchar[2147483647]</text>
<polygon fill="none" stroke="#000000" points="204,-75.7 204,-97.7 313,-97.7 313,-75.7 204,-75.7"/>
<text text-anchor="start" x="224" y="-82.8" font-family="Helvetica,sans-Serif" font-size="11.00" fill="#000000">summary</text>
<polygon fill="none" stroke="#000000" points="313,-75.7 313,-97.7 422,-97.7 422,-75.7 313,-75.7"/>
<text text-anchor="start" x="315.5344" y="-83.4" font-family="Helvetica,sans-Serif" font-size="11.00" fill="#000000">varchar[2147483647]</text>
<polygon fill="#ffffff" stroke="transparent" points="204,-56.7 204,-75.7 422,-75.7 422,-56.7 204,-56.7"/>
<polygon fill="none" stroke="#000000" points="204,-56.7 204,-75.7 422,-75.7 422,-56.7 204,-56.7"/>
<polygon fill="#ffffff" stroke="transparent" points="205,-57.7 205,-74.7 280,-74.7 280,-57.7 205,-57.7"/>
<text text-anchor="start" x="207" y="-62.8" font-family="Helvetica,sans-Serif" font-size="11.00" fill="#000000">&lt; 1</text>
<polygon fill="#ffffff" stroke="transparent" points="280,-57.7 280,-74.7 346,-74.7 346,-57.7 280,-57.7"/>
<text text-anchor="start" x="309.9431" y="-62.8" font-family="Helvetica,sans-Serif" font-size="11.00" fill="#000000"> &#160;</text>
<polygon fill="#ffffff" stroke="transparent" points="346,-57.7 346,-74.7 421,-74.7 421,-57.7 346,-57.7"/>
<text text-anchor="start" x="403.4053" y="-62.8" font-family="Helvetica,sans-Serif" font-size="11.00" fill="#000000">0 &gt;</text>
<polygon fill="#000000" stroke="#000000" points="280,-57.7 280,-74.7 280,-74.7 280,-57.7 280,-57.7"/>
<polygon fill="#000000" stroke="#000000" points="346,-57.7 346,-74.7 346,-74.7 346,-57.7 346,-57.7"/>
<polygon fill="none" stroke="#000000" stroke-width="2" points="203,-55.7 203,-187.7 423,-187.7 423,-55.7 203,-55.7"/>
</a>
</g>
</g>
<!-- summaries -->
<g id="node2" class="node">
<title>summaries</title>
<g id="a_node2"><a xlink:href="../../tables/summaries.html" xlink:title="summaries" target="_top">
<polygon fill="#ffffff" stroke="transparent" points="8,-38.2 8,-165.2 153,-165.2 153,-38.2 8,-38.2"/>
<polygon fill="#f5f5f5" stroke="transparent" points="8.5,-141.7 8.5,-164.7 153.5,-164.7 153.5,-141.7 8.5,-141.7"/>
<polygon fill="none" stroke="#000000" points="8.5,-141.7 8.5,-164.7 153.5,-164.7 153.5,-141.7 8.5,-141.7"/>
<text text-anchor="start" x="13.5" y="-150.3" font-family="Helvetica,sans-Serif" font-weight="bold" font-size="11.00" fill="#000000">summaries</text>
<text text-anchor="start" x="118.5437" y="-149.8" font-family="Helvetica,sans-Serif" font-size="11.00" fill="#000000">[table]</text>
<polygon fill="none" stroke="#000000" points="8.5,-119.7 8.5,-141.7 153.5,-141.7 153.5,-119.7 8.5,-119.7"/>
<image xlink:href="../../images/primaryKeys.png" width="11px" height="12px" preserveAspectRatio="xMinYMin meet" x="13.5" y="-136.7"/>
<text text-anchor="start" x="28.5" y="-126.8" font-family="Helvetica,sans-Serif" font-size="11.00" fill="#000000">id</text>
<polygon fill="#ffffff" stroke="transparent" points="8.5,-97.7 8.5,-119.7 153.5,-119.7 153.5,-97.7 8.5,-97.7"/>
<polygon fill="none" stroke="#000000" points="8.5,-97.7 8.5,-119.7 153.5,-119.7 153.5,-97.7 8.5,-97.7"/>
<text text-anchor="start" x="28.5" y="-104.8" font-family="Helvetica,sans-Serif" font-size="11.00" fill="#000000">content_hash</text>
<polygon fill="#ffffff" stroke="transparent" points="8.5,-75.7 8.5,-97.7 153.5,-97.7 153.5,-75.7 8.5,-75.7"/>
<polygon fill="none" stroke="#000000" points="8.5,-75.7 8.5,-97.7 153.5,-97.7 153.5,-75.7 8.5,-75.7"/>
<image xlink:href="../../images/foreignKeys.png" width="11px" height="12px" preserveAspectRatio="xMinYMin meet" x="13.5" y="-92.7"/>
<text text-anchor="start" x="28.5" y="-82.8" font-family="Helvetica,sans-Serif" font-size="11.00" fill="#000000">user_id</text>
<polygon fill="none" stroke="#000000" points="8.5,-56.7 8.5,-75.7 153.5,-75.7 153.5,-56.7 8.5,-56.7"/>
<text text-anchor="start" x="11.5" y="-62.8" font-family="Helvetica,sans-Serif" font-size="11.00" fill="#000000">...</text>
<polygon fill="#ffffff" stroke="transparent" points="8.5,-37.7 8.5,-56.7 153.5,-56.7 153.5,-37.7 8.5,-37.7"/>
<polygon fill="none" stroke="#000000" points="8.5,-37.7 8.5,-56.7 153.5,-56.7 153.5,-37.7 8.5,-37.7"/>
<polygon fill="#ffffff" stroke="transparent" points="9.5,-38.7 9.5,-55.7 60.5,-55.7 60.5,-38.7 9.5,-38.7"/>
<text text-anchor="start" x="11.5" y="-43.8" font-family="Helvetica,sans-Serif" font-size="11.00" fill="#000000">&lt; 1</text>
<polygon fill="#ffffff" stroke="transparent" points="60.5,-38.7 60.5,-55.7 102.5,-55.7 102.5,-38.7 60.5,-38.7"/>
<text text-anchor="start" x="78.4431" y="-43.8" font-family="Helvetica,sans-Serif" font-size="11.00" fill="#000000"> &#160;</text>
<polygon fill="#ffffff" stroke="transparent" points="102.5,-38.7 102.5,-55.7 152.5,-55.7 152.5,-38.7 102.5,-38.7"/>
<text text-anchor="start" x="134.9053" y="-43.8" font-family="Helvetica,sans-Serif" font-size="11.00" fill="#000000">4 &gt;</text>
<polygon fill="#000000" stroke="#000000" points="60.5,-38.7 60.5,-55.7 60.5,-55.7 60.5,-38.7 60.5,-38.7"/>
<polygon fill="#000000" stroke="#000000" points="102.5,-38.7 102.5,-55.7 102.5,-55.7 102.5,-38.7 102.5,-38.7"/>
</a>
</g>
</g>
<!-- topics&#45;&gt;summaries -->
<g id="edge1" class="edge">
<title>topics:w&#45;&gt;summaries:e</title>
<path fill="none" stroke="#000000" d="M189.4203,-130.7C177.5435,-130.7 170.158,-130.7 153.5,-130.7"/>
<polygon fill="#000000" stroke="#000000" points="196,-130.7001 204,-134.3 200,-130.7 204,-130.7 204,-130.7 204,-130.7 200,-130.7 204,-127.1 196,-130.7001 196,-130.7001"/>
<ellipse fill="none" stroke="#000000" cx="192.8" cy="-130.7001" rx="3.2" ry="3.2"/>
</g>
</g>
</svg>
