<?xml version="1.0" encoding="UTF-8" standalone="no"?>
<!DOCTYPE svg PUBLIC "-//W3C//DTD SVG 1.1//EN"
 "http://www.w3.org/Graphics/SVG/1.1/DTD/svg11.dtd">
<!-- Generated by graphviz version 2.40.1 (20161225.0304)
 -->
<!-- Title: twoDegreesRelationshipsDiagram Pages: 1 -->
<svg width="567pt" height="431pt"
 viewBox="0.00 0.00 567.00 431.20" xmlns="http://www.w3.org/2000/svg" xmlns:xlink="http://www.w3.org/1999/xlink">
<g id="graph0" class="graph" transform="scale(1 1) rotate(0) translate(4 427.2)">
<title>twoDegreesRelationshipsDiagram</title>
<polygon fill="#ffffff" stroke="transparent" points="-4,4 -4,-427.2 563,-427.2 563,4 -4,4"/>
<text text-anchor="middle" x="72.4936" y="-7.3" font-family="Helvetica,sans-Serif" font-size="11.00" fill="#000000">Generated by SchemaSpy</text>
<!-- action_items -->
<g id="node1" class="node">
<title>action_items</title>
<g id="a_node1"><a xlink:href="../../tables/action_items.html" xlink:title="action_items" target="_top">
<polygon fill="#ffffff" stroke="transparent" points="374.5,-358.2 374.5,-419.2 505.5,-419.2 505.5,-358.2 374.5,-358.2"/>
<polygon fill="#f5f5f5" stroke="transparent" points="375,-395.7 375,-418.7 506,-418.7 506,-395.7 375,-395.7"/>
<polygon fill="none" stroke="#000000" points="375,-395.7 375,-418.7 506,-418.7 506,-395.7 375,-395.7"/>
<text text-anchor="start" x="380" y="-404.3" font-family="Helvetica,sans-Serif" font-weight="bold" font-size="11.00" fill="#000000">action_items</text>
<text text-anchor="start" x="471.5219" y="-403.8" font-family="Helvetica,sans-Serif" font-size="11.00" fill="#000000">[table]</text>
<polygon fill="none" stroke="#000000" points="375,-376.7 375,-395.7 506,-395.7 506,-376.7 375,-376.7"/>
<text text-anchor="start" x="378" y="-382.8" font-family="Helvetica,sans-Serif" font-size="11.00" fill="#000000">...</text>
<polygon fill="#ffffff" stroke="transparent" points="375,-357.7 375,-376.7 506,-376.7 506,-357.7 375,-357.7"/>
<polygon fill="none" stroke="#000000" points="375,-357.7 375,-376.7 506,-376.7 506,-357.7 375,-357.7"/>
<polygon fill="#ffffff" stroke="transparent" points="376,-358.7 376,-375.7 425,-375.7 425,-358.7 376,-358.7"/>
<text text-anchor="start" x="378" y="-363.8" font-family="Helvetica,sans-Serif" font-size="11.00" fill="#000000">&lt; 1</text>
<polygon fill="#ffffff" stroke="transparent" points="425,-358.7 425,-375.7 465,-375.7 465,-358.7 425,-358.7"/>
<text text-anchor="start" x="441.9431" y="-363.8" font-family="Helvetica,sans-Serif" font-size="11.00" fill="#000000"> &#160;</text>
<polygon fill="#ffffff" stroke="transparent" points="465,-358.7 465,-375.7 505,-375.7 505,-358.7 465,-358.7"/>
<text text-anchor="start" x="496.8862" y="-363.8" font-family="Helvetica,sans-Serif" font-size="11.00" fill="#000000"> &#160;</text>
<polygon fill="#000000" stroke="#000000" points="425,-358.7 425,-375.7 425,-375.7 425,-358.7 425,-358.7"/>
<polygon fill="#000000" stroke="#000000" points="465,-358.7 465,-375.7 465,-375.7 465,-358.7 465,-358.7"/>
</a>
</g>
</g>
<!-- summaries -->
<g id="node2" class="node">
<title>summaries</title>
<g id="a_node2"><a xlink:href="../../tables/summaries.html" xlink:title="summaries" target="_top">
<polygon fill="#ffffff" stroke="transparent" points="135,-157.2 135,-284.2 280,-284.2 280,-157.2 135,-157.2"/>
<polygon fill="#f5f5f5" stroke="transparent" points="135.5,-260.7 135.5,-283.7 280.5,-283.7 280.5,-260.7 135.5,-260.7"/>
<polygon fill="none" stroke="#000000" points="135.5,-260.7 135.5,-283.7 280.5,-283.7 280.5,-260.7 135.5,-260.7"/>
<text text-anchor="start" x="140.5" y="-269.3" font-family="Helvetica,sans-Serif" font-weight="bold" font-size="11.00" fill="#000000">summaries</text>
<text text-anchor="start" x="245.5437" y="-268.8" font-family="Helvetica,sans-Serif" font-size="11.00" fill="#000000">[table]</text>
<polygon fill="none" stroke="#000000" points="135.5,-238.7 135.5,-260.7 280.5,-260.7 280.5,-238.7 135.5,-238.7"/>
<image xlink:href="../../images/primaryKeys.png" width="11px" height="12px" preserveAspectRatio="xMinYMin meet" x="140.5" y="-255.7"/>
<text text-anchor="start" x="155.5" y="-245.8" font-family="Helvetica,sans-Serif" font-size="11.00" fill="#000000">id</text>
<polygon fill="#ffffff" stroke="transparent" points="135.5,-216.7 135.5,-238.7 280.5,-238.7 280.5,-216.7 135.5,-216.7"/>
<polygon fill="none" stroke="#000000" points="135.5,-216.7 135.5,-238.7 280.5,-238.7 280.5,-216.7 135.5,-216.7"/>
<text text-anchor="start" x="155.5" y="-223.8" font-family="Helvetica,sans-Serif" font-size="11.00" fill="#000000">content_hash</text>
<polygon fill="#ffffff" stroke="transparent" points="135.5,-194.7 135.5,-216.7 280.5,-216.7 280.5,-194.7 135.5,-194.7"/>
<polygon fill="none" stroke="#000000" points="135.5,-194.7 135.5,-216.7 280.5,-216.7 280.5,-194.7 135.5,-194.7"/>
<image xlink:href="../../images/foreignKeys.png" width="11px" height="12px" preserveAspectRatio="xMinYMin meet" x="140.5" y="-211.7"/>
<text text-anchor="start" x="155.5" y="-201.8" font-family="Helvetica,sans-Serif" font-size="11.00" fill="#000000">user_id</text>
<polygon fill="none" stroke="#000000" points="135.5,-175.7 135.5,-194.7 280.5,-194.7 280.5,-175.7 135.5,-175.7"/>
<text text-anchor="start" x="138.5" y="-181.8" font-family="Helvetica,sans-Serif" font-size="11.00" fill="#000000">...</text>
<polygon fill="#ffffff" stroke="transparent" points="135.5,-156.7 135.5,-175.7 280.5,-175.7 280.5,-156.7 135.5,-156.7"/>
<polygon fill="none" stroke="#000000" points="135.5,-156.7 135.5,-175.7 280.5,-175.7 280.5,-156.7 135.5,-156.7"/>
<polygon fill="#ffffff" stroke="transparent" points="136.5,-157.7 136.5,-174.7 187.5,-174.7 187.5,-157.7 136.5,-157.7"/>
<text text-anchor="start" x="138.5" y="-162.8" font-family="Helvetica,sans-Serif" font-size="11.00" fill="#000000">&lt; 1</text>
<polygon fill="#ffffff" stroke="transparent" points="187.5,-157.7 187.5,-174.7 229.5,-174.7 229.5,-157.7 187.5,-157.7"/>
<text text-anchor="start" x="205.4431" y="-162.8" font-family="Helvetica,sans-Serif" font-size="11.00" fill="#000000"> &#160;</text>
<polygon fill="#ffffff" stroke="transparent" points="229.5,-157.7 229.5,-174.7 279.5,-174.7 279.5,-157.7 229.5,-157.7"/>
<text text-anchor="start" x="261.9053" y="-162.8" font-family="Helvetica,sans-Serif" font-size="11.00" fill="#000000">4 &gt;</text>
<polygon fill="#000000" stroke="#000000" points="187.5,-157.7 187.5,-174.7 187.5,-174.7 187.5,-157.7 187.5,-157.7"/>
<polygon fill="#000000" stroke="#000000" points="229.5,-157.7 229.5,-174.7 229.5,-174.7 229.5,-157.7 229.5,-157.7"/>
</a>
</g>
</g>
<!-- action_items&#45;&gt;summaries -->
<g id="edge1" class="edge">
<title>action_items:w&#45;&gt;summaries:e</title>
<path fill="none" stroke="#000000" d="M360.4336,-384.093C342.7936,-379.6387 335.8238,-366.2298 321,-347.7 291.5592,-310.8988 327.6284,-249.7 280.5,-249.7"/>
<polygon fill="#000000" stroke="#000000" points="367.0482,-384.8227 374.6052,-389.2783 371.0241,-385.2613 375,-385.7 375,-385.7 375,-385.7 371.0241,-385.2613 375.3948,-382.1217 367.0482,-384.8227 367.0482,-384.8227"/>
<ellipse fill="none" stroke="#000000" cx="363.8675" cy="-384.4718" rx="3.2" ry="3.2"/>
</g>
<!-- users -->
<g id="node4" class="node">
<title>users</title>
<g id="a_node4"><a xlink:href="../../tables/users.html" xlink:title="users" target="_top">
<polygon fill="#ffffff" stroke="transparent" points="8,-178.2 8,-239.2 86,-239.2 86,-178.2 8,-178.2"/>
<polygon fill="#f5f5f5" stroke="transparent" points="8,-215.7 8,-238.7 86,-238.7 86,-215.7 8,-215.7"/>
<polygon fill="none" stroke="#000000" points="8,-215.7 8,-238.7 86,-238.7 86,-215.7 8,-215.7"/>
<text text-anchor="start" x="13" y="-224.3" font-family="Helvetica,sans-Serif" font-weight="bold" font-size="11.00" fill="#000000">users</text>
<text text-anchor="start" x="51.5219" y="-223.8" font-family="Helvetica,sans-Serif" font-size="11.00" fill="#000000">[table]</text>
<polygon fill="none" stroke="#000000" points="8,-196.7 8,-215.7 86,-215.7 86,-196.7 8,-196.7"/>
<text text-anchor="start" x="11" y="-202.8" font-family="Helvetica,sans-Serif" font-size="11.00" fill="#000000">...</text>
<polygon fill="#ffffff" stroke="transparent" points="8,-177.7 8,-196.7 86,-196.7 86,-177.7 8,-177.7"/>
<polygon fill="none" stroke="#000000" points="8,-177.7 8,-196.7 86,-196.7 86,-177.7 8,-177.7"/>
<polygon fill="#ffffff" stroke="transparent" points="9,-178.7 9,-195.7 32,-195.7 32,-178.7 9,-178.7"/>
<text text-anchor="start" x="11" y="-183.8" font-family="Helvetica,sans-Serif" font-size="11.00" fill="#000000"> &#160;</text>
<polygon fill="#ffffff" stroke="transparent" points="32,-178.7 32,-195.7 54,-195.7 54,-178.7 32,-178.7"/>
<text text-anchor="start" x="39.9431" y="-183.8" font-family="Helvetica,sans-Serif" font-size="11.00" fill="#000000"> &#160;</text>
<polygon fill="#ffffff" stroke="transparent" points="54,-178.7 54,-195.7 85,-195.7 85,-178.7 54,-178.7"/>
<text text-anchor="start" x="67.4053" y="-183.8" font-family="Helvetica,sans-Serif" font-size="11.00" fill="#000000">3 &gt;</text>
<polygon fill="#000000" stroke="#000000" points="32,-178.7 32,-195.7 32,-195.7 32,-178.7 32,-178.7"/>
<polygon fill="#000000" stroke="#000000" points="54,-178.7 54,-195.7 54,-195.7 54,-178.7 54,-178.7"/>
</a>
</g>
</g>
<!-- summaries&#45;&gt;users -->
<g id="edge3" class="edge">
<title>summaries:w&#45;&gt;users:e</title>
<path fill="none" stroke="#000000" d="M120.8428,-205.7C109.4139,-205.7 102.1563,-205.7 86,-205.7"/>
<polygon fill="#000000" stroke="#000000" points="127.5,-205.7001 135.5,-209.3 131.5,-205.7 135.5,-205.7 135.5,-205.7 135.5,-205.7 131.5,-205.7 135.5,-202.1 127.5,-205.7001 127.5,-205.7001"/>
<ellipse fill="none" stroke="#000000" cx="124.3" cy="-205.7001" rx="3.2" ry="3.2"/>
</g>
<!-- decisions -->
<g id="node3" class="node">
<title>decisions</title>
<g id="a_node3"><a xlink:href="../../tables/decisions.html" xlink:title="decisions" target="_top">
<polygon fill="#ffffff" stroke="transparent" points="386.5,-276.2 386.5,-337.2 493.5,-337.2 493.5,-276.2 386.5,-276.2"/>
<polygon fill="#f5f5f5" stroke="transparent" points="387,-313.7 387,-336.7 494,-336.7 494,-313.7 387,-313.7"/>
<polygon fill="none" stroke="#000000" points="387,-313.7 387,-336.7 494,-336.7 494,-313.7 387,-313.7"/>
<text text-anchor="start" x="392" y="-322.3" font-family="Helvetica,sans-Serif" font-weight="bold" font-size="11.00" fill="#000000">decisions</text>
<text text-anchor="start" x="459.5219" y="-321.8" font-family="Helvetica,sans-Serif" font-size="11.00" fill="#000000">[table]</text>
<polygon fill="none" stroke="#000000" points="387,-294.7 387,-313.7 494,-313.7 494,-294.7 387,-294.7"/>
<text text-anchor="start" x="390" y="-300.8" font-family="Helvetica,sans-Serif" font-size="11.00" fill="#000000">...</text>
<polygon fill="#ffffff" stroke="transparent" points="387,-275.7 387,-294.7 494,-294.7 494,-275.7 387,-275.7"/>
<polygon fill="none" stroke="#000000" points="387,-275.7 387,-294.7 494,-294.7 494,-275.7 387,-275.7"/>
<polygon fill="#ffffff" stroke="transparent" points="388,-276.7 388,-293.7 429,-293.7 429,-276.7 388,-276.7"/>
<text text-anchor="start" x="390" y="-281.8" font-family="Helvetica,sans-Serif" font-size="11.00" fill="#000000">&lt; 1</text>
<polygon fill="#ffffff" stroke="transparent" points="429,-276.7 429,-293.7 461,-293.7 461,-276.7 429,-276.7"/>
<text text-anchor="start" x="441.9431" y="-281.8" font-family="Helvetica,sans-Serif" font-size="11.00" fill="#000000"> &#160;</text>
<polygon fill="#ffffff" stroke="transparent" points="461,-276.7 461,-293.7 493,-293.7 493,-276.7 461,-276.7"/>
<text text-anchor="start" x="484.8862" y="-281.8" font-family="Helvetica,sans-Serif" font-size="11.00" fill="#000000"> &#160;</text>
<polygon fill="#000000" stroke="#000000" points="429,-276.7 429,-293.7 429,-293.7 429,-276.7 429,-276.7"/>
<polygon fill="#000000" stroke="#000000" points="461,-276.7 461,-293.7 461,-293.7 461,-276.7 461,-276.7"/>
</a>
</g>
</g>
<!-- decisions&#45;&gt;summaries -->
<g id="edge2" class="edge">
<title>decisions:w&#45;&gt;summaries:e</title>
<path fill="none" stroke="#000000" d="M372.797,-300.1569C344.4247,-288.1434 302.889,-249.7 280.5,-249.7"/>
<polygon fill="#000000" stroke="#000000" points="379.2379,-301.7636 386.1286,-307.193 383.1189,-302.7318 387,-303.7 387,-303.7 387,-303.7 383.1189,-302.7318 387.8714,-300.207 379.2379,-301.7636 379.2379,-301.7636"/>
<ellipse fill="none" stroke="#000000" cx="376.133" cy="-300.9891" rx="3.2" ry="3.2"/>
</g>
<!-- topics -->
<g id="node5" class="node">
<title>topics</title>
<g id="a_node5"><a xlink:href="../../tables/topics.html" xlink:title="topics" target="_top">
<polygon fill="#ffffff" stroke="transparent" points="329,-120.7 329,-254.7 551,-254.7 551,-120.7 329,-120.7"/>
<polygon fill="#f5f5f5" stroke="transparent" points="331,-229.7 331,-252.7 549,-252.7 549,-229.7 331,-229.7"/>
<polygon fill="none" stroke="#000000" points="331,-229.7 331,-252.7 549,-252.7 549,-229.7 331,-229.7"/>
<text text-anchor="start" x="336" y="-238.3" font-family="Helvetica,sans-Serif" font-weight="bold" font-size="11.00" fill="#000000">topics</text>
<text text-anchor="start" x="514.0437" y="-237.8" font-family="Helvetica,sans-Serif" font-size="11.00" fill="#000000">[table]</text>
<polygon fill="none" stroke="#000000" points="331,-207.7 331,-229.7 440,-229.7 440,-207.7 331,-207.7"/>
<image xlink:href="../../images/primaryKeys.png" width="11px" height="12px" preserveAspectRatio="xMinYMin meet" x="336" y="-224.7"/>
<text text-anchor="start" x="351" y="-214.8" font-family="Helvetica,sans-Serif" font-size="11.00" fill="#000000">id</text>
<polygon fill="none" stroke="#000000" points="440,-207.7 440,-229.7 549,-229.7 549,-207.7 440,-207.7"/>
<text text-anchor="start" x="443" y="-215.4" font-family="Helvetica,sans-Serif" font-size="11.00" fill="#000000">serial[10]</text>
<polygon fill="#ffffff" stroke="transparent" points="331,-185.7 331,-207.7 440,-207.7 440,-185.7 331,-185.7"/>
<polygon fill="none" stroke="#000000" points="331,-185.7 331,-207.7 440,-207.7 440,-185.7 331,-185.7"/>
<image xlink:href="../../images/foreignKeys.png" width="11px" height="12px" preserveAspectRatio="xMinYMin meet" x="336" y="-202.7"/>
<text text-anchor="start" x="351" y="-192.8" font-family="Helvetica,sans-Serif" font-size="11.00" fill="#000000">summary_id</text>
<polygon fill="none" stroke="#000000" points="440,-185.7 440,-207.7 549,-207.7 549,-185.7 440,-185.7"/>
<text text-anchor="start" x="443" y="-193.4" font-family="Helvetica,sans-Serif" font-size="11.00" fill="#000000">uuid[2147483647]</text>
<polygon fill="none" stroke="#000000" points="331,-163.7 331,-185.7 440,-185.7 440,-163.7 331,-163.7"/>
<text text-anchor="start" x="351" y="-170.8" font-family="Helvetica,sans-Serif" font-size="11.00" fill="#000000">title</text>
<polygon fill="none" stroke="#000000" points="440,-163.7 440,-185.7 549,-185.7 549,-163.7 440,-163.7"/>
<text text-anchor="start" x="442.5344" y="-171.4" font-family="Helvetica,sans-Serif" font-size="11.00" fill="#000000">varchar[2147483647]</text>
<polygon fill="none" stroke="#000000" points="331,-141.7 331,-163.7 440,-163.7 440,-141.7 331,-141.7"/>
<text text-anchor="start" x="351" y="-148.8" font-family="Helvetica,sans-Serif" font-size="11.00" fill="#000000">summary</text>
<polygon fill="none" stroke="#000000" points="440,-141.7 440,-163.7 549,-163.7 549,-141.7 440,-141.7"/>
<text text-anchor="start" x="442.5344" y="-149.4" font-family="Helvetica,sans-Serif" font-size="11.00" fill="#000000">varchar[2147483647]</text>
<polygon fill="#ffffff" stroke="transparent" points="331,-122.7 331,-141.7 549,-141.7 549,-122.7 331,-122.7"/>
<polygon fill="none" stroke="#000000" points="331,-122.7 331,-141.7 549,-141.7 549,-122.7 331,-122.7"/>
<polygon fill="#ffffff" stroke="transparent" points="332,-123.7 332,-140.7 407,-140.7 407,-123.7 332,-123.7"/>
<text text-anchor="start" x="334" y="-128.8" font-family="Helvetica,sans-Serif" font-size="11.00" fill="#000000">&lt; 1</text>
<polygon fill="#ffffff" stroke="transparent" points="407,-123.7 407,-140.7 473,-140.7 473,-123.7 407,-123.7"/>
<text text-anchor="start" x="436.9431" y="-128.8" font-family="Helvetica,sans-Serif" font-size="11.00" fill="#000000"> &#160;</text>
<polygon fill="#ffffff" stroke="transparent" points="473,-123.7 473,-140.7 548,-140.7 548,-123.7 473,-123.7"/>
<text text-anchor="start" x="530.4053" y="-128.8" font-family="Helvetica,sans-Serif" font-size="11.00" fill="#000000">0 &gt;</text>
<polygon fill="#000000" stroke="#000000" points="407,-123.7 407,-140.7 407,-140.7 407,-123.7 407,-123.7"/>
<polygon fill="#000000" stroke="#000000" points="473,-123.7 473,-140.7 473,-140.7 473,-123.7 473,-123.7"/>
<polygon fill="none" stroke="#000000" stroke-width="2" points="330,-121.7 330,-253.7 550,-253.7 550,-121.7 330,-121.7"/>
</a>
</g>
</g>
<!-- topics&#45;&gt;summaries -->
<g id="edge4" class="edge">
<title>topics:w&#45;&gt;summaries:e</title>
<path fill="none" stroke="#000000" d="M317.0458,-201.5911C302.2722,-214.7117 306.9358,-249.7 280.5,-249.7"/>
<polygon fill="#000000" stroke="#000000" points="323.4503,-199.3463 332.1908,-200.0974 327.2252,-198.0231 331,-196.7 331,-196.7 331,-196.7 327.2252,-198.0231 329.8092,-193.3026 323.4503,-199.3463 323.4503,-199.3463"/>
<ellipse fill="none" stroke="#000000" cx="320.4305" cy="-200.4048" rx="3.2" ry="3.2"/>
</g>
<!-- transcript_segments -->
<g id="node6" class="node">
<title>transcript_segments</title>
<g id="a_node6"><a xlink:href="../../tables/transcript_segments.html" xlink:title="transcript_segments" target="_top">
<polygon fill="#ffffff" stroke="transparent" points="345.5,-38.2 345.5,-99.2 534.5,-99.2 534.5,-38.2 345.5,-38.2"/>
<polygon fill="#f5f5f5" stroke="transparent" points="346,-75.7 346,-98.7 535,-98.7 535,-75.7 346,-75.7"/>
<polygon fill="none" stroke="#000000" points="346,-75.7 346,-98.7 535,-98.7 535,-75.7 346,-75.7"/>
<text text-anchor="start" x="351" y="-84.3" font-family="Helvetica,sans-Serif" font-weight="bold" font-size="11.00" fill="#000000">transcript_segments</text>
<text text-anchor="start" x="500.5219" y="-83.8" font-family="Helvetica,sans-Serif" font-size="11.00" fill="#000000">[table]</text>
<polygon fill="none" stroke="#000000" points="346,-56.7 346,-75.7 535,-75.7 535,-56.7 346,-56.7"/>
<text text-anchor="start" x="349" y="-62.8" font-family="Helvetica,sans-Serif" font-size="11.00" fill="#000000">...</text>
<polygon fill="#ffffff" stroke="transparent" points="346,-37.7 346,-56.7 535,-56.7 535,-37.7 346,-37.7"/>
<polygon fill="none" stroke="#000000" points="346,-37.7 346,-56.7 535,-56.7 535,-37.7 346,-37.7"/>
<polygon fill="#ffffff" stroke="transparent" points="347,-38.7 347,-55.7 416,-55.7 416,-38.7 347,-38.7"/>
<text text-anchor="start" x="349" y="-43.8" font-family="Helvetica,sans-Serif" font-size="11.00" fill="#000000">&lt; 1</text>
<polygon fill="#ffffff" stroke="transparent" points="416,-38.7 416,-55.7 475,-55.7 475,-38.7 416,-38.7"/>
<text text-anchor="start" x="442.4431" y="-43.8" font-family="Helvetica,sans-Serif" font-size="11.00" fill="#000000"> &#160;</text>
<polygon fill="#ffffff" stroke="transparent" points="475,-38.7 475,-55.7 534,-55.7 534,-38.7 475,-38.7"/>
<text text-anchor="start" x="525.8862" y="-43.8" font-family="Helvetica,sans-Serif" font-size="11.00" fill="#000000"> &#160;</text>
<polygon fill="#000000" stroke="#000000" points="416,-38.7 416,-55.7 416,-55.7 416,-38.7 416,-38.7"/>
<polygon fill="#000000" stroke="#000000" points="475,-38.7 475,-55.7 475,-55.7 475,-38.7 475,-38.7"/>
</a>
</g>
</g>
<!-- transcript_segments&#45;&gt;summaries -->
<g id="edge5" class="edge">
<title>transcript_segments:w&#45;&gt;summaries:e</title>
<path fill="none" stroke="#000000" d="M331.5403,-67.8946C272.3215,-88.6544 361.7099,-249.7 280.5,-249.7"/>
<polygon fill="#000000" stroke="#000000" points="338.0906,-66.9005 346.5402,-69.2592 342.0453,-66.3002 346,-65.7 346,-65.7 346,-65.7 342.0453,-66.3002 345.4598,-62.1408 338.0906,-66.9005 338.0906,-66.9005"/>
<ellipse fill="none" stroke="#000000" cx="334.9268" cy="-67.3807" rx="3.2" ry="3.2"/>
</g>
</g>
</svg>
