<?xml version="1.0" encoding="UTF-8" standalone="no"?>
<!DOCTYPE svg PUBLIC "-//W3C//DTD SVG 1.1//EN"
 "http://www.w3.org/Graphics/SVG/1.1/DTD/svg11.dtd">
<!-- Generated by graphviz version 2.40.1 (20161225.0304)
 -->
<!-- Title: twoDegreesRelationshipsDiagram Pages: 1 -->
<svg width="629pt" height="475pt"
 viewBox="0.00 0.00 629.00 474.70" xmlns="http://www.w3.org/2000/svg" xmlns:xlink="http://www.w3.org/1999/xlink">
<g id="graph0" class="graph" transform="scale(1 1) rotate(0) translate(4 470.7)">
<title>twoDegreesRelationshipsDiagram</title>
<polygon fill="#ffffff" stroke="transparent" points="-4,4 -4,-470.7 625,-470.7 625,4 -4,4"/>
<text text-anchor="middle" x="72.4936" y="-7.3" font-family="Helvetica,sans-Serif" font-size="11.00" fill="#000000">Generated by SchemaSpy</text>
<!-- action_items -->
<g id="node1" class="node">
<title>action_items</title>
<g id="a_node1"><a xlink:href="../../tables/action_items.html" xlink:title="action_items" target="_top">
<polygon fill="#ffffff" stroke="transparent" points="405.5,-401.7 405.5,-462.7 536.5,-462.7 536.5,-401.7 405.5,-401.7"/>
<polygon fill="#f5f5f5" stroke="transparent" points="406,-439.2 406,-462.2 537,-462.2 537,-439.2 406,-439.2"/>
<polygon fill="none" stroke="#000000" points="406,-439.2 406,-462.2 537,-462.2 537,-439.2 406,-439.2"/>
<text text-anchor="start" x="411" y="-447.8" font-family="Helvetica,sans-Serif" font-weight="bold" font-size="11.00" fill="#000000">action_items</text>
<text text-anchor="start" x="502.5219" y="-447.3" font-family="Helvetica,sans-Serif" font-size="11.00" fill="#000000">[table]</text>
<polygon fill="none" stroke="#000000" points="406,-420.2 406,-439.2 537,-439.2 537,-420.2 406,-420.2"/>
<text text-anchor="start" x="409" y="-426.3" font-family="Helvetica,sans-Serif" font-size="11.00" fill="#000000">...</text>
<polygon fill="#ffffff" stroke="transparent" points="406,-401.2 406,-420.2 537,-420.2 537,-401.2 406,-401.2"/>
<polygon fill="none" stroke="#000000" points="406,-401.2 406,-420.2 537,-420.2 537,-401.2 406,-401.2"/>
<polygon fill="#ffffff" stroke="transparent" points="407,-402.2 407,-419.2 456,-419.2 456,-402.2 407,-402.2"/>
<text text-anchor="start" x="409" y="-407.3" font-family="Helvetica,sans-Serif" font-size="11.00" fill="#000000">&lt; 1</text>
<polygon fill="#ffffff" stroke="transparent" points="456,-402.2 456,-419.2 496,-419.2 496,-402.2 456,-402.2"/>
<text text-anchor="start" x="472.9431" y="-407.3" font-family="Helvetica,sans-Serif" font-size="11.00" fill="#000000"> &#160;</text>
<polygon fill="#ffffff" stroke="transparent" points="496,-402.2 496,-419.2 536,-419.2 536,-402.2 496,-402.2"/>
<text text-anchor="start" x="527.8862" y="-407.3" font-family="Helvetica,sans-Serif" font-size="11.00" fill="#000000"> &#160;</text>
<polygon fill="#000000" stroke="#000000" points="456,-402.2 456,-419.2 456,-419.2 456,-402.2 456,-402.2"/>
<polygon fill="#000000" stroke="#000000" points="496,-402.2 496,-419.2 496,-419.2 496,-402.2 496,-402.2"/>
</a>
</g>
</g>
<!-- summaries -->
<g id="node2" class="node">
<title>summaries</title>
<g id="a_node2"><a xlink:href="../../tables/summaries.html" xlink:title="summaries" target="_top">
<polygon fill="#ffffff" stroke="transparent" points="135,-213.7 135,-340.7 280,-340.7 280,-213.7 135,-213.7"/>
<polygon fill="#f5f5f5" stroke="transparent" points="135.5,-317.2 135.5,-340.2 280.5,-340.2 280.5,-317.2 135.5,-317.2"/>
<polygon fill="none" stroke="#000000" points="135.5,-317.2 135.5,-340.2 280.5,-340.2 280.5,-317.2 135.5,-317.2"/>
<text text-anchor="start" x="140.5" y="-325.8" font-family="Helvetica,sans-Serif" font-weight="bold" font-size="11.00" fill="#000000">summaries</text>
<text text-anchor="start" x="245.5437" y="-325.3" font-family="Helvetica,sans-Serif" font-size="11.00" fill="#000000">[table]</text>
<polygon fill="none" stroke="#000000" points="135.5,-295.2 135.5,-317.2 280.5,-317.2 280.5,-295.2 135.5,-295.2"/>
<image xlink:href="../../images/primaryKeys.png" width="11px" height="12px" preserveAspectRatio="xMinYMin meet" x="140.5" y="-312.2"/>
<text text-anchor="start" x="155.5" y="-302.3" font-family="Helvetica,sans-Serif" font-size="11.00" fill="#000000">id</text>
<polygon fill="#ffffff" stroke="transparent" points="135.5,-273.2 135.5,-295.2 280.5,-295.2 280.5,-273.2 135.5,-273.2"/>
<polygon fill="none" stroke="#000000" points="135.5,-273.2 135.5,-295.2 280.5,-295.2 280.5,-273.2 135.5,-273.2"/>
<text text-anchor="start" x="155.5" y="-280.3" font-family="Helvetica,sans-Serif" font-size="11.00" fill="#000000">content_hash</text>
<polygon fill="#ffffff" stroke="transparent" points="135.5,-251.2 135.5,-273.2 280.5,-273.2 280.5,-251.2 135.5,-251.2"/>
<polygon fill="none" stroke="#000000" points="135.5,-251.2 135.5,-273.2 280.5,-273.2 280.5,-251.2 135.5,-251.2"/>
<image xlink:href="../../images/foreignKeys.png" width="11px" height="12px" preserveAspectRatio="xMinYMin meet" x="140.5" y="-268.2"/>
<text text-anchor="start" x="155.5" y="-258.3" font-family="Helvetica,sans-Serif" font-size="11.00" fill="#000000">user_id</text>
<polygon fill="none" stroke="#000000" points="135.5,-232.2 135.5,-251.2 280.5,-251.2 280.5,-232.2 135.5,-232.2"/>
<text text-anchor="start" x="138.5" y="-238.3" font-family="Helvetica,sans-Serif" font-size="11.00" fill="#000000">...</text>
<polygon fill="#ffffff" stroke="transparent" points="135.5,-213.2 135.5,-232.2 280.5,-232.2 280.5,-213.2 135.5,-213.2"/>
<polygon fill="none" stroke="#000000" points="135.5,-213.2 135.5,-232.2 280.5,-232.2 280.5,-213.2 135.5,-213.2"/>
<polygon fill="#ffffff" stroke="transparent" points="136.5,-214.2 136.5,-231.2 187.5,-231.2 187.5,-214.2 136.5,-214.2"/>
<text text-anchor="start" x="138.5" y="-219.3" font-family="Helvetica,sans-Serif" font-size="11.00" fill="#000000">&lt; 1</text>
<polygon fill="#ffffff" stroke="transparent" points="187.5,-214.2 187.5,-231.2 229.5,-231.2 229.5,-214.2 187.5,-214.2"/>
<text text-anchor="start" x="205.4431" y="-219.3" font-family="Helvetica,sans-Serif" font-size="11.00" fill="#000000"> &#160;</text>
<polygon fill="#ffffff" stroke="transparent" points="229.5,-214.2 229.5,-231.2 279.5,-231.2 279.5,-214.2 229.5,-214.2"/>
<text text-anchor="start" x="261.9053" y="-219.3" font-family="Helvetica,sans-Serif" font-size="11.00" fill="#000000">4 &gt;</text>
<polygon fill="#000000" stroke="#000000" points="187.5,-214.2 187.5,-231.2 187.5,-231.2 187.5,-214.2 187.5,-214.2"/>
<polygon fill="#000000" stroke="#000000" points="229.5,-214.2 229.5,-231.2 229.5,-231.2 229.5,-214.2 229.5,-214.2"/>
</a>
</g>
</g>
<!-- action_items&#45;&gt;summaries -->
<g id="edge1" class="edge">
<title>action_items:w&#45;&gt;summaries:e</title>
<path fill="none" stroke="#000000" d="M391.2698,-428.7236C360.7487,-426.5258 346.796,-416.3781 321,-391.2 291.0533,-361.9706 322.3469,-306.2 280.5,-306.2"/>
<polygon fill="#000000" stroke="#000000" points="398.0042,-428.9414 405.8836,-432.7981 402.0021,-429.0707 406,-429.2 406,-429.2 406,-429.2 402.0021,-429.0707 406.1164,-425.6019 398.0042,-428.9414 398.0042,-428.9414"/>
<ellipse fill="none" stroke="#000000" cx="394.8059" cy="-428.8379" rx="3.2" ry="3.2"/>
</g>
<!-- users -->
<g id="node4" class="node">
<title>users</title>
<g id="a_node4"><a xlink:href="../../tables/users.html" xlink:title="users" target="_top">
<polygon fill="#ffffff" stroke="transparent" points="8,-234.7 8,-295.7 86,-295.7 86,-234.7 8,-234.7"/>
<polygon fill="#f5f5f5" stroke="transparent" points="8,-272.2 8,-295.2 86,-295.2 86,-272.2 8,-272.2"/>
<polygon fill="none" stroke="#000000" points="8,-272.2 8,-295.2 86,-295.2 86,-272.2 8,-272.2"/>
<text text-anchor="start" x="13" y="-280.8" font-family="Helvetica,sans-Serif" font-weight="bold" font-size="11.00" fill="#000000">users</text>
<text text-anchor="start" x="51.5219" y="-280.3" font-family="Helvetica,sans-Serif" font-size="11.00" fill="#000000">[table]</text>
<polygon fill="none" stroke="#000000" points="8,-253.2 8,-272.2 86,-272.2 86,-253.2 8,-253.2"/>
<text text-anchor="start" x="11" y="-259.3" font-family="Helvetica,sans-Serif" font-size="11.00" fill="#000000">...</text>
<polygon fill="#ffffff" stroke="transparent" points="8,-234.2 8,-253.2 86,-253.2 86,-234.2 8,-234.2"/>
<polygon fill="none" stroke="#000000" points="8,-234.2 8,-253.2 86,-253.2 86,-234.2 8,-234.2"/>
<polygon fill="#ffffff" stroke="transparent" points="9,-235.2 9,-252.2 32,-252.2 32,-235.2 9,-235.2"/>
<text text-anchor="start" x="11" y="-240.3" font-family="Helvetica,sans-Serif" font-size="11.00" fill="#000000"> &#160;</text>
<polygon fill="#ffffff" stroke="transparent" points="32,-235.2 32,-252.2 54,-252.2 54,-235.2 32,-235.2"/>
<text text-anchor="start" x="39.9431" y="-240.3" font-family="Helvetica,sans-Serif" font-size="11.00" fill="#000000"> &#160;</text>
<polygon fill="#ffffff" stroke="transparent" points="54,-235.2 54,-252.2 85,-252.2 85,-235.2 54,-235.2"/>
<text text-anchor="start" x="67.4053" y="-240.3" font-family="Helvetica,sans-Serif" font-size="11.00" fill="#000000">3 &gt;</text>
<polygon fill="#000000" stroke="#000000" points="32,-235.2 32,-252.2 32,-252.2 32,-235.2 32,-235.2"/>
<polygon fill="#000000" stroke="#000000" points="54,-235.2 54,-252.2 54,-252.2 54,-235.2 54,-235.2"/>
</a>
</g>
</g>
<!-- summaries&#45;&gt;users -->
<g id="edge3" class="edge">
<title>summaries:w&#45;&gt;users:e</title>
<path fill="none" stroke="#000000" d="M120.8428,-262.2C109.4139,-262.2 102.1563,-262.2 86,-262.2"/>
<polygon fill="#000000" stroke="#000000" points="127.5,-262.2001 135.5,-265.8 131.5,-262.2 135.5,-262.2 135.5,-262.2 135.5,-262.2 131.5,-262.2 135.5,-258.6 127.5,-262.2001 127.5,-262.2001"/>
<ellipse fill="none" stroke="#000000" cx="124.3" cy="-262.2001" rx="3.2" ry="3.2"/>
</g>
<!-- decisions -->
<g id="node3" class="node">
<title>decisions</title>
<g id="a_node3"><a xlink:href="../../tables/decisions.html" xlink:title="decisions" target="_top">
<polygon fill="#ffffff" stroke="transparent" points="417.5,-319.7 417.5,-380.7 524.5,-380.7 524.5,-319.7 417.5,-319.7"/>
<polygon fill="#f5f5f5" stroke="transparent" points="418,-357.2 418,-380.2 525,-380.2 525,-357.2 418,-357.2"/>
<polygon fill="none" stroke="#000000" points="418,-357.2 418,-380.2 525,-380.2 525,-357.2 418,-357.2"/>
<text text-anchor="start" x="423" y="-365.8" font-family="Helvetica,sans-Serif" font-weight="bold" font-size="11.00" fill="#000000">decisions</text>
<text text-anchor="start" x="490.5219" y="-365.3" font-family="Helvetica,sans-Serif" font-size="11.00" fill="#000000">[table]</text>
<polygon fill="none" stroke="#000000" points="418,-338.2 418,-357.2 525,-357.2 525,-338.2 418,-338.2"/>
<text text-anchor="start" x="421" y="-344.3" font-family="Helvetica,sans-Serif" font-size="11.00" fill="#000000">...</text>
<polygon fill="#ffffff" stroke="transparent" points="418,-319.2 418,-338.2 525,-338.2 525,-319.2 418,-319.2"/>
<polygon fill="none" stroke="#000000" points="418,-319.2 418,-338.2 525,-338.2 525,-319.2 418,-319.2"/>
<polygon fill="#ffffff" stroke="transparent" points="419,-320.2 419,-337.2 460,-337.2 460,-320.2 419,-320.2"/>
<text text-anchor="start" x="421" y="-325.3" font-family="Helvetica,sans-Serif" font-size="11.00" fill="#000000">&lt; 1</text>
<polygon fill="#ffffff" stroke="transparent" points="460,-320.2 460,-337.2 492,-337.2 492,-320.2 460,-320.2"/>
<text text-anchor="start" x="472.9431" y="-325.3" font-family="Helvetica,sans-Serif" font-size="11.00" fill="#000000"> &#160;</text>
<polygon fill="#ffffff" stroke="transparent" points="492,-320.2 492,-337.2 524,-337.2 524,-320.2 492,-320.2"/>
<text text-anchor="start" x="515.8862" y="-325.3" font-family="Helvetica,sans-Serif" font-size="11.00" fill="#000000"> &#160;</text>
<polygon fill="#000000" stroke="#000000" points="460,-320.2 460,-337.2 460,-337.2 460,-320.2 460,-320.2"/>
<polygon fill="#000000" stroke="#000000" points="492,-320.2 492,-337.2 492,-337.2 492,-320.2 492,-320.2"/>
</a>
</g>
</g>
<!-- decisions&#45;&gt;summaries -->
<g id="edge2" class="edge">
<title>decisions:w&#45;&gt;summaries:e</title>
<path fill="none" stroke="#000000" d="M403.3335,-346.4176C352.2338,-340.7493 339.0389,-306.2 280.5,-306.2"/>
<polygon fill="#000000" stroke="#000000" points="410.0114,-346.7738 417.8082,-350.7949 414.0057,-346.9869 418,-347.2 418,-347.2 418,-347.2 414.0057,-346.9869 418.1918,-343.6051 410.0114,-346.7738 410.0114,-346.7738"/>
<ellipse fill="none" stroke="#000000" cx="406.8159" cy="-346.6033" rx="3.2" ry="3.2"/>
</g>
<!-- topics -->
<g id="node5" class="node">
<title>topics</title>
<g id="a_node5"><a xlink:href="../../tables/topics.html" xlink:title="topics" target="_top">
<polygon fill="#ffffff" stroke="transparent" points="429.5,-237.7 429.5,-298.7 512.5,-298.7 512.5,-237.7 429.5,-237.7"/>
<polygon fill="#f5f5f5" stroke="transparent" points="430,-275.2 430,-298.2 513,-298.2 513,-275.2 430,-275.2"/>
<polygon fill="none" stroke="#000000" points="430,-275.2 430,-298.2 513,-298.2 513,-275.2 430,-275.2"/>
<text text-anchor="start" x="435" y="-283.8" font-family="Helvetica,sans-Serif" font-weight="bold" font-size="11.00" fill="#000000">topics</text>
<text text-anchor="start" x="478.5219" y="-283.3" font-family="Helvetica,sans-Serif" font-size="11.00" fill="#000000">[table]</text>
<polygon fill="none" stroke="#000000" points="430,-256.2 430,-275.2 513,-275.2 513,-256.2 430,-256.2"/>
<text text-anchor="start" x="433" y="-262.3" font-family="Helvetica,sans-Serif" font-size="11.00" fill="#000000">...</text>
<polygon fill="#ffffff" stroke="transparent" points="430,-237.2 430,-256.2 513,-256.2 513,-237.2 430,-237.2"/>
<polygon fill="none" stroke="#000000" points="430,-237.2 430,-256.2 513,-256.2 513,-237.2 430,-237.2"/>
<polygon fill="#ffffff" stroke="transparent" points="431,-238.2 431,-255.2 464,-255.2 464,-238.2 431,-238.2"/>
<text text-anchor="start" x="433" y="-243.3" font-family="Helvetica,sans-Serif" font-size="11.00" fill="#000000">&lt; 1</text>
<polygon fill="#ffffff" stroke="transparent" points="464,-238.2 464,-255.2 488,-255.2 488,-238.2 464,-238.2"/>
<text text-anchor="start" x="472.9431" y="-243.3" font-family="Helvetica,sans-Serif" font-size="11.00" fill="#000000"> &#160;</text>
<polygon fill="#ffffff" stroke="transparent" points="488,-238.2 488,-255.2 512,-255.2 512,-238.2 488,-238.2"/>
<text text-anchor="start" x="503.8862" y="-243.3" font-family="Helvetica,sans-Serif" font-size="11.00" fill="#000000"> &#160;</text>
<polygon fill="#000000" stroke="#000000" points="464,-238.2 464,-255.2 464,-255.2 464,-238.2 464,-238.2"/>
<polygon fill="#000000" stroke="#000000" points="488,-238.2 488,-255.2 488,-255.2 488,-238.2 488,-238.2"/>
</a>
</g>
</g>
<!-- topics&#45;&gt;summaries -->
<g id="edge4" class="edge">
<title>topics:w&#45;&gt;summaries:e</title>
<path fill="none" stroke="#000000" d="M415.5578,-265.844C359.0497,-271.0601 344.2843,-306.2 280.5,-306.2"/>
<polygon fill="#000000" stroke="#000000" points="422.0079,-265.5564 430.1604,-268.7964 426.004,-265.3782 430,-265.2 430,-265.2 430,-265.2 426.004,-265.3782 429.8396,-261.6036 422.0079,-265.5564 422.0079,-265.5564"/>
<ellipse fill="none" stroke="#000000" cx="418.8111" cy="-265.699" rx="3.2" ry="3.2"/>
</g>
<!-- transcript_segments -->
<g id="node6" class="node">
<title>transcript_segments</title>
<g id="a_node6"><a xlink:href="../../tables/transcript_segments.html" xlink:title="transcript_segments" target="_top">
<polygon fill="#ffffff" stroke="transparent" points="329,-38.2 329,-216.2 613,-216.2 613,-38.2 329,-38.2"/>
<polygon fill="#f5f5f5" stroke="transparent" points="331,-191.2 331,-214.2 611,-214.2 611,-191.2 331,-191.2"/>
<polygon fill="none" stroke="#000000" points="331,-191.2 331,-214.2 611,-214.2 611,-191.2 331,-191.2"/>
<text text-anchor="start" x="336" y="-199.8" font-family="Helvetica,sans-Serif" font-weight="bold" font-size="11.00" fill="#000000">transcript_segments</text>
<text text-anchor="start" x="576.0437" y="-199.3" font-family="Helvetica,sans-Serif" font-size="11.00" fill="#000000">[table]</text>
<polygon fill="none" stroke="#000000" points="331,-169.2 331,-191.2 502,-191.2 502,-169.2 331,-169.2"/>
<image xlink:href="../../images/primaryKeys.png" width="11px" height="12px" preserveAspectRatio="xMinYMin meet" x="336" y="-186.2"/>
<text text-anchor="start" x="351" y="-176.3" font-family="Helvetica,sans-Serif" font-size="11.00" fill="#000000">id</text>
<polygon fill="none" stroke="#000000" points="502,-169.2 502,-191.2 611,-191.2 611,-169.2 502,-169.2"/>
<text text-anchor="start" x="505" y="-176.9" font-family="Helvetica,sans-Serif" font-size="11.00" fill="#000000">bigserial[19]</text>
<polygon fill="#ffffff" stroke="transparent" points="331,-147.2 331,-169.2 502,-169.2 502,-147.2 331,-147.2"/>
<polygon fill="none" stroke="#000000" points="331,-147.2 331,-169.2 502,-169.2 502,-147.2 331,-147.2"/>
<image xlink:href="../../images/foreignKeys.png" width="11px" height="12px" preserveAspectRatio="xMinYMin meet" x="336" y="-164.2"/>
<text text-anchor="start" x="351" y="-154.3" font-family="Helvetica,sans-Serif" font-size="11.00" fill="#000000">summary_id</text>
<polygon fill="none" stroke="#000000" points="502,-147.2 502,-169.2 611,-169.2 611,-147.2 502,-147.2"/>
<text text-anchor="start" x="505" y="-154.9" font-family="Helvetica,sans-Serif" font-size="11.00" fill="#000000">uuid[2147483647]</text>
<polygon fill="none" stroke="#000000" points="331,-125.2 331,-147.2 502,-147.2 502,-125.2 331,-125.2"/>
<text text-anchor="start" x="351" y="-132.3" font-family="Helvetica,sans-Serif" font-size="11.00" fill="#000000">speaker_label</text>
<polygon fill="none" stroke="#000000" points="502,-125.2 502,-147.2 611,-147.2 611,-125.2 502,-125.2"/>
<text text-anchor="start" x="505" y="-132.9" font-family="Helvetica,sans-Serif" font-size="11.00" fill="#000000">varchar[64]</text>
<polygon fill="none" stroke="#000000" points="331,-103.2 331,-125.2 502,-125.2 502,-103.2 331,-103.2"/>
<text text-anchor="start" x="351" y="-110.3" font-family="Helvetica,sans-Serif" font-size="11.00" fill="#000000">start_ms</text>
<polygon fill="none" stroke="#000000" points="502,-103.2 502,-125.2 611,-125.2 611,-103.2 502,-103.2"/>
<text text-anchor="start" x="505" y="-110.9" font-family="Helvetica,sans-Serif" font-size="11.00" fill="#000000">int4[10]</text>
<polygon fill="none" stroke="#000000" points="331,-81.2 331,-103.2 502,-103.2 502,-81.2 331,-81.2"/>
<text text-anchor="start" x="351" y="-88.3" font-family="Helvetica,sans-Serif" font-size="11.00" fill="#000000">end_ms</text>
<polygon fill="none" stroke="#000000" points="502,-81.2 502,-103.2 611,-103.2 611,-81.2 502,-81.2"/>
<text text-anchor="start" x="505" y="-88.9" font-family="Helvetica,sans-Serif" font-size="11.00" fill="#000000">int4[10]</text>
<polygon fill="none" stroke="#000000" points="331,-59.2 331,-81.2 502,-81.2 502,-59.2 331,-59.2"/>
<text text-anchor="start" x="351" y="-66.3" font-family="Helvetica,sans-Serif" font-size="11.00" fill="#000000">text</text>
<polygon fill="none" stroke="#000000" points="502,-59.2 502,-81.2 611,-81.2 611,-59.2 502,-59.2"/>
<text text-anchor="start" x="504.5344" y="-66.9" font-family="Helvetica,sans-Serif" font-size="11.00" fill="#000000">varchar[2147483647]</text>
<polygon fill="#ffffff" stroke="transparent" points="331,-40.2 331,-59.2 611,-59.2 611,-40.2 331,-40.2"/>
<polygon fill="none" stroke="#000000" points="331,-40.2 331,-59.2 611,-59.2 611,-40.2 331,-40.2"/>
<polygon fill="#ffffff" stroke="transparent" points="332,-41.2 332,-58.2 428,-58.2 428,-41.2 332,-41.2"/>
<text text-anchor="start" x="334" y="-46.3" font-family="Helvetica,sans-Serif" font-size="11.00" fill="#000000">&lt; 1</text>
<polygon fill="#ffffff" stroke="transparent" points="428,-41.2 428,-58.2 515,-58.2 515,-41.2 428,-41.2"/>
<text text-anchor="start" x="468.4431" y="-46.3" font-family="Helvetica,sans-Serif" font-size="11.00" fill="#000000"> &#160;</text>
<polygon fill="#ffffff" stroke="transparent" points="515,-41.2 515,-58.2 610,-58.2 610,-41.2 515,-41.2"/>
<text text-anchor="start" x="592.4053" y="-46.3" font-family="Helvetica,sans-Serif" font-size="11.00" fill="#000000">0 &gt;</text>
<polygon fill="#000000" stroke="#000000" points="428,-41.2 428,-58.2 428,-58.2 428,-41.2 428,-41.2"/>
<polygon fill="#000000" stroke="#000000" points="515,-41.2 515,-58.2 515,-58.2 515,-41.2 515,-41.2"/>
<polygon fill="none" stroke="#000000" stroke-width="2" points="330,-39.2 330,-215.2 612,-215.2 612,-39.2 330,-39.2"/>
</a>
</g>
</g>
<!-- transcript_segments&#45;&gt;summaries -->
<g id="edge5" class="edge">
<title>transcript_segments:w&#45;&gt;summaries:e</title>
<path fill="none" stroke="#000000" d="M316.6451,-161.1564C275.2497,-182.0155 344.1645,-306.2 280.5,-306.2"/>
<polygon fill="#000000" stroke="#000000" points="323.1644,-159.8138 331.7262,-161.726 327.0822,-159.0069 331,-158.2 331,-158.2 331,-158.2 327.0822,-159.0069 330.2738,-154.674 323.1644,-159.8138 323.1644,-159.8138"/>
<ellipse fill="none" stroke="#000000" cx="320.0302" cy="-160.4593" rx="3.2" ry="3.2"/>
</g>
</g>
</svg>
