<?xml version="1.0" encoding="UTF-8" standalone="no"?>
<!DOCTYPE svg PUBLIC "-//W3C//DTD SVG 1.1//EN"
 "http://www.w3.org/Graphics/SVG/1.1/DTD/svg11.dtd">
<!-- Generated by graphviz version 2.40.1 (20161225.0304)
 -->
<!-- Title: compactRelationshipsDiagram Pages: 1 -->
<svg width="501pt" height="621pt"
 viewBox="0.00 0.00 501.00 620.70" xmlns="http://www.w3.org/2000/svg" xmlns:xlink="http://www.w3.org/1999/xlink">
<g id="graph0" class="graph" transform="scale(1 1) rotate(0) translate(4 616.7)">
<title>compactRelationshipsDiagram</title>
<polygon fill="#ffffff" stroke="transparent" points="-4,4 -4,-616.7 497,-616.7 497,4 -4,4"/>
<text text-anchor="middle" x="72.4936" y="-7.3" font-family="Helvetica,sans-Serif" font-size="11.00" fill="#000000">Generated by SchemaSpy</text>
<!-- topics -->
<g id="node1" class="node">
<title>topics</title>
<g id="a_node1"><a xlink:href="../../tables/topics.html" xlink:title="topics" target="_top">
<polygon fill="#ffffff" stroke="transparent" points="365,-378.2 365,-483.2 474,-483.2 474,-378.2 365,-378.2"/>
<polygon fill="#f5f5f5" stroke="transparent" points="365.5,-459.7 365.5,-482.7 474.5,-482.7 474.5,-459.7 365.5,-459.7"/>
<polygon fill="none" stroke="#000000" points="365.5,-459.7 365.5,-482.7 474.5,-482.7 474.5,-459.7 365.5,-459.7"/>
<text text-anchor="start" x="370.5" y="-468.3" font-family="Helvetica,sans-Serif" font-weight="bold" font-size="11.00" fill="#000000">topics</text>
<text text-anchor="start" x="439.5437" y="-467.8" font-family="Helvetica,sans-Serif" font-size="11.00" fill="#000000">[table]</text>
<polygon fill="none" stroke="#000000" points="365.5,-437.7 365.5,-459.7 474.5,-459.7 474.5,-437.7 365.5,-437.7"/>
<image xlink:href="../../images/primaryKeys.png" width="11px" height="12px" preserveAspectRatio="xMinYMin meet" x="370.5" y="-454.7"/>
<text text-anchor="start" x="385.5" y="-444.8" font-family="Helvetica,sans-Serif" font-size="11.00" fill="#000000">id</text>
<polygon fill="#ffffff" stroke="transparent" points="365.5,-415.7 365.5,-437.7 474.5,-437.7 474.5,-415.7 365.5,-415.7"/>
<polygon fill="none" stroke="#000000" points="365.5,-415.7 365.5,-437.7 474.5,-437.7 474.5,-415.7 365.5,-415.7"/>
<image xlink:href="../../images/foreignKeys.png" width="11px" height="12px" preserveAspectRatio="xMinYMin meet" x="370.5" y="-432.7"/>
<text text-anchor="start" x="385.5" y="-422.8" font-family="Helvetica,sans-Serif" font-size="11.00" fill="#000000">summary_id</text>
<polygon fill="none" stroke="#000000" points="365.5,-396.7 365.5,-415.7 474.5,-415.7 474.5,-396.7 365.5,-396.7"/>
<text text-anchor="start" x="368.5" y="-402.8" font-family="Helvetica,sans-Serif" font-size="11.00" fill="#000000">...</text>
<polygon fill="#ffffff" stroke="transparent" points="365.5,-377.7 365.5,-396.7 474.5,-396.7 474.5,-377.7 365.5,-377.7"/>
<polygon fill="none" stroke="#000000" points="365.5,-377.7 365.5,-396.7 474.5,-396.7 474.5,-377.7 365.5,-377.7"/>
<polygon fill="#ffffff" stroke="transparent" points="366.5,-378.7 366.5,-395.7 408.5,-395.7 408.5,-378.7 366.5,-378.7"/>
<text text-anchor="start" x="368.5" y="-383.8" font-family="Helvetica,sans-Serif" font-size="11.00" fill="#000000">&lt; 1</text>
<polygon fill="#ffffff" stroke="transparent" points="408.5,-378.7 408.5,-395.7 441.5,-395.7 441.5,-378.7 408.5,-378.7"/>
<text text-anchor="start" x="421.9431" y="-383.8" font-family="Helvetica,sans-Serif" font-size="11.00" fill="#000000"> &#160;</text>
<polygon fill="#ffffff" stroke="transparent" points="441.5,-378.7 441.5,-395.7 473.5,-395.7 473.5,-378.7 441.5,-378.7"/>
<text text-anchor="start" x="465.3862" y="-383.8" font-family="Helvetica,sans-Serif" font-size="11.00" fill="#000000"> &#160;</text>
<polygon fill="#000000" stroke="#000000" points="408.5,-378.7 408.5,-395.7 408.5,-395.7 408.5,-378.7 408.5,-378.7"/>
<polygon fill="#000000" stroke="#000000" points="441.5,-378.7 441.5,-395.7 441.5,-395.7 441.5,-378.7 441.5,-378.7"/>
</a>
</g>
</g>
<!-- summaries -->
<g id="node3" class="node">
<title>summaries</title>
<g id="a_node3"><a xlink:href="../../tables/summaries.html" xlink:title="summaries" target="_top">
<polygon fill="#ffffff" stroke="transparent" points="160,-208.2 160,-335.2 305,-335.2 305,-208.2 160,-208.2"/>
<polygon fill="#f5f5f5" stroke="transparent" points="160.5,-311.7 160.5,-334.7 305.5,-334.7 305.5,-311.7 160.5,-311.7"/>
<polygon fill="none" stroke="#000000" points="160.5,-311.7 160.5,-334.7 305.5,-334.7 305.5,-311.7 160.5,-311.7"/>
<text text-anchor="start" x="165.5" y="-320.3" font-family="Helvetica,sans-Serif" font-weight="bold" font-size="11.00" fill="#000000">summaries</text>
<text text-anchor="start" x="270.5437" y="-319.8" font-family="Helvetica,sans-Serif" font-size="11.00" fill="#000000">[table]</text>
<polygon fill="none" stroke="#000000" points="160.5,-289.7 160.5,-311.7 305.5,-311.7 305.5,-289.7 160.5,-289.7"/>
<image xlink:href="../../images/primaryKeys.png" width="11px" height="12px" preserveAspectRatio="xMinYMin meet" x="165.5" y="-306.7"/>
<text text-anchor="start" x="180.5" y="-296.8" font-family="Helvetica,sans-Serif" font-size="11.00" fill="#000000">id</text>
<polygon fill="#ffffff" stroke="transparent" points="160.5,-267.7 160.5,-289.7 305.5,-289.7 305.5,-267.7 160.5,-267.7"/>
<polygon fill="none" stroke="#000000" points="160.5,-267.7 160.5,-289.7 305.5,-289.7 305.5,-267.7 160.5,-267.7"/>
<text text-anchor="start" x="180.5" y="-274.8" font-family="Helvetica,sans-Serif" font-size="11.00" fill="#000000">content_hash</text>
<polygon fill="#ffffff" stroke="transparent" points="160.5,-245.7 160.5,-267.7 305.5,-267.7 305.5,-245.7 160.5,-245.7"/>
<polygon fill="none" stroke="#000000" points="160.5,-245.7 160.5,-267.7 305.5,-267.7 305.5,-245.7 160.5,-245.7"/>
<image xlink:href="../../images/foreignKeys.png" width="11px" height="12px" preserveAspectRatio="xMinYMin meet" x="165.5" y="-262.7"/>
<text text-anchor="start" x="180.5" y="-252.8" font-family="Helvetica,sans-Serif" font-size="11.00" fill="#000000">user_id</text>
<polygon fill="none" stroke="#000000" points="160.5,-226.7 160.5,-245.7 305.5,-245.7 305.5,-226.7 160.5,-226.7"/>
<text text-anchor="start" x="163.5" y="-232.8" font-family="Helvetica,sans-Serif" font-size="11.00" fill="#000000">...</text>
<polygon fill="#ffffff" stroke="transparent" points="160.5,-207.7 160.5,-226.7 305.5,-226.7 305.5,-207.7 160.5,-207.7"/>
<polygon fill="none" stroke="#000000" points="160.5,-207.7 160.5,-226.7 305.5,-226.7 305.5,-207.7 160.5,-207.7"/>
<polygon fill="#ffffff" stroke="transparent" points="161.5,-208.7 161.5,-225.7 212.5,-225.7 212.5,-208.7 161.5,-208.7"/>
<text text-anchor="start" x="163.5" y="-213.8" font-family="Helvetica,sans-Serif" font-size="11.00" fill="#000000">&lt; 1</text>
<polygon fill="#ffffff" stroke="transparent" points="212.5,-208.7 212.5,-225.7 254.5,-225.7 254.5,-208.7 212.5,-208.7"/>
<text text-anchor="start" x="230.4431" y="-213.8" font-family="Helvetica,sans-Serif" font-size="11.00" fill="#000000"> &#160;</text>
<polygon fill="#ffffff" stroke="transparent" points="254.5,-208.7 254.5,-225.7 304.5,-225.7 304.5,-208.7 254.5,-208.7"/>
<text text-anchor="start" x="286.9053" y="-213.8" font-family="Helvetica,sans-Serif" font-size="11.00" fill="#000000">3 &gt;</text>
<polygon fill="#000000" stroke="#000000" points="212.5,-208.7 212.5,-225.7 212.5,-225.7 212.5,-208.7 212.5,-208.7"/>
<polygon fill="#000000" stroke="#000000" points="254.5,-208.7 254.5,-225.7 254.5,-225.7 254.5,-208.7 254.5,-208.7"/>
</a>
</g>
</g>
<!-- topics&#45;&gt;summaries -->
<g id="edge4" class="edge">
<title>topics:w&#45;&gt;summaries:e</title>
<path fill="none" stroke="#000000" d="M351.1719,-423.5854C314.3762,-404.1824 361.7102,-300.7 305.5,-300.7"/>
<polygon fill="#000000" stroke="#000000" points="357.6826,-425.0006 364.7353,-430.2178 361.5913,-425.8503 365.5,-426.7 365.5,-426.7 365.5,-426.7 361.5913,-425.8503 366.2647,-423.1822 357.6826,-425.0006 357.6826,-425.0006"/>
<ellipse fill="none" stroke="#000000" cx="354.5556" cy="-424.3209" rx="3.2" ry="3.2"/>
</g>
<!-- decisions -->
<g id="node2" class="node">
<title>decisions</title>
<g id="a_node2"><a xlink:href="../../tables/decisions.html" xlink:title="decisions" target="_top">
<polygon fill="#ffffff" stroke="transparent" points="365,-252.2 365,-357.2 474,-357.2 474,-252.2 365,-252.2"/>
<polygon fill="#f5f5f5" stroke="transparent" points="365.5,-333.7 365.5,-356.7 474.5,-356.7 474.5,-333.7 365.5,-333.7"/>
<polygon fill="none" stroke="#000000" points="365.5,-333.7 365.5,-356.7 474.5,-356.7 474.5,-333.7 365.5,-333.7"/>
<text text-anchor="start" x="370.5" y="-342.3" font-family="Helvetica,sans-Serif" font-weight="bold" font-size="11.00" fill="#000000">decisions</text>
<text text-anchor="start" x="439.5437" y="-341.8" font-family="Helvetica,sans-Serif" font-size="11.00" fill="#000000">[table]</text>
<polygon fill="none" stroke="#000000" points="365.5,-311.7 365.5,-333.7 474.5,-333.7 474.5,-311.7 365.5,-311.7"/>
<image xlink:href="../../images/primaryKeys.png" width="11px" height="12px" preserveAspectRatio="xMinYMin meet" x="370.5" y="-328.7"/>
<text text-anchor="start" x="385.5" y="-318.8" font-family="Helvetica,sans-Serif" font-size="11.00" fill="#000000">id</text>
<polygon fill="#ffffff" stroke="transparent" points="365.5,-289.7 365.5,-311.7 474.5,-311.7 474.5,-289.7 365.5,-289.7"/>
<polygon fill="none" stroke="#000000" points="365.5,-289.7 365.5,-311.7 474.5,-311.7 474.5,-289.7 365.5,-289.7"/>
<image xlink:href="../../images/foreignKeys.png" width="11px" height="12px" preserveAspectRatio="xMinYMin meet" x="370.5" y="-306.7"/>
<text text-anchor="start" x="385.5" y="-296.8" font-family="Helvetica,sans-Serif" font-size="11.00" fill="#000000">summary_id</text>
<polygon fill="none" stroke="#000000" points="365.5,-270.7 365.5,-289.7 474.5,-289.7 474.5,-270.7 365.5,-270.7"/>
<text text-anchor="start" x="368.5" y="-276.8" font-family="Helvetica,sans-Serif" font-size="11.00" fill="#000000">...</text>
<polygon fill="#ffffff" stroke="transparent" points="365.5,-251.7 365.5,-270.7 474.5,-270.7 474.5,-251.7 365.5,-251.7"/>
<polygon fill="none" stroke="#000000" points="365.5,-251.7 365.5,-270.7 474.5,-270.7 474.5,-251.7 365.5,-251.7"/>
<polygon fill="#ffffff" stroke="transparent" points="366.5,-252.7 366.5,-269.7 408.5,-269.7 408.5,-252.7 366.5,-252.7"/>
<text text-anchor="start" x="368.5" y="-257.8" font-family="Helvetica,sans-Serif" font-size="11.00" fill="#000000">&lt; 1</text>
<polygon fill="#ffffff" stroke="transparent" points="408.5,-252.7 408.5,-269.7 441.5,-269.7 441.5,-252.7 408.5,-252.7"/>
<text text-anchor="start" x="421.9431" y="-257.8" font-family="Helvetica,sans-Serif" font-size="11.00" fill="#000000"> &#160;</text>
<polygon fill="#ffffff" stroke="transparent" points="441.5,-252.7 441.5,-269.7 473.5,-269.7 473.5,-252.7 441.5,-252.7"/>
<text text-anchor="start" x="465.3862" y="-257.8" font-family="Helvetica,sans-Serif" font-size="11.00" fill="#000000"> &#160;</text>
<polygon fill="#000000" stroke="#000000" points="408.5,-252.7 408.5,-269.7 408.5,-269.7 408.5,-252.7 408.5,-252.7"/>
<polygon fill="#000000" stroke="#000000" points="441.5,-252.7 441.5,-269.7 441.5,-269.7 441.5,-252.7 441.5,-252.7"/>
</a>
</g>
</g>
<!-- decisions&#45;&gt;summaries -->
<g id="edge2" class="edge">
<title>decisions:w&#45;&gt;summaries:e</title>
<path fill="none" stroke="#000000" d="M350.9193,-300.7C335.1309,-300.7 326.5417,-300.7 305.5,-300.7"/>
<polygon fill="#000000" stroke="#000000" points="357.5,-300.7001 365.5,-304.3 361.5,-300.7 365.5,-300.7 365.5,-300.7 365.5,-300.7 361.5,-300.7 365.5,-297.1 357.5,-300.7001 357.5,-300.7001"/>
<ellipse fill="none" stroke="#000000" cx="354.3" cy="-300.7001" rx="3.2" ry="3.2"/>
</g>
<!-- users -->
<g id="node6" class="node">
<title>users</title>
<g id="a_node6"><a xlink:href="../../tables/users.html" xlink:title="users" target="_top">
<polygon fill="#ffffff" stroke="transparent" points="8,-101.2 8,-228.2 111,-228.2 111,-101.2 8,-101.2"/>
<polygon fill="#f5f5f5" stroke="transparent" points="8.5,-204.7 8.5,-227.7 111.5,-227.7 111.5,-204.7 8.5,-204.7"/>
<polygon fill="none" stroke="#000000" points="8.5,-204.7 8.5,-227.7 111.5,-227.7 111.5,-204.7 8.5,-204.7"/>
<text text-anchor="start" x="13.5" y="-213.3" font-family="Helvetica,sans-Serif" font-weight="bold" font-size="11.00" fill="#000000">users</text>
<text text-anchor="start" x="76.5437" y="-212.8" font-family="Helvetica,sans-Serif" font-size="11.00" fill="#000000">[table]</text>
<polygon fill="none" stroke="#000000" points="8.5,-182.7 8.5,-204.7 111.5,-204.7 111.5,-182.7 8.5,-182.7"/>
<image xlink:href="../../images/primaryKeys.png" width="11px" height="12px" preserveAspectRatio="xMinYMin meet" x="13.5" y="-199.7"/>
<text text-anchor="start" x="28.5" y="-189.8" font-family="Helvetica,sans-Serif" font-size="11.00" fill="#000000">id</text>
<polygon fill="#ffffff" stroke="transparent" points="8.5,-160.7 8.5,-182.7 111.5,-182.7 111.5,-160.7 8.5,-160.7"/>
<polygon fill="none" stroke="#000000" points="8.5,-160.7 8.5,-182.7 111.5,-182.7 111.5,-160.7 8.5,-160.7"/>
<text text-anchor="start" x="28.5" y="-167.8" font-family="Helvetica,sans-Serif" font-size="11.00" fill="#000000">google_sub</text>
<polygon fill="#ffffff" stroke="transparent" points="8.5,-138.7 8.5,-160.7 111.5,-160.7 111.5,-138.7 8.5,-138.7"/>
<polygon fill="none" stroke="#000000" points="8.5,-138.7 8.5,-160.7 111.5,-160.7 111.5,-138.7 8.5,-138.7"/>
<text text-anchor="start" x="28.5" y="-145.8" font-family="Helvetica,sans-Serif" font-size="11.00" fill="#000000">email</text>
<polygon fill="none" stroke="#000000" points="8.5,-119.7 8.5,-138.7 111.5,-138.7 111.5,-119.7 8.5,-119.7"/>
<text text-anchor="start" x="11.5" y="-125.8" font-family="Helvetica,sans-Serif" font-size="11.00" fill="#000000">...</text>
<polygon fill="#ffffff" stroke="transparent" points="8.5,-100.7 8.5,-119.7 111.5,-119.7 111.5,-100.7 8.5,-100.7"/>
<polygon fill="none" stroke="#000000" points="8.5,-100.7 8.5,-119.7 111.5,-119.7 111.5,-100.7 8.5,-100.7"/>
<polygon fill="#ffffff" stroke="transparent" points="9.5,-101.7 9.5,-118.7 40.5,-118.7 40.5,-101.7 9.5,-101.7"/>
<text text-anchor="start" x="11.5" y="-106.8" font-family="Helvetica,sans-Serif" font-size="11.00" fill="#000000"> &#160;</text>
<polygon fill="#ffffff" stroke="transparent" points="40.5,-101.7 40.5,-118.7 71.5,-118.7 71.5,-101.7 40.5,-101.7"/>
<text text-anchor="start" x="52.9431" y="-106.8" font-family="Helvetica,sans-Serif" font-size="11.00" fill="#000000"> &#160;</text>
<polygon fill="#ffffff" stroke="transparent" points="71.5,-101.7 71.5,-118.7 110.5,-118.7 110.5,-101.7 71.5,-101.7"/>
<text text-anchor="start" x="92.9053" y="-106.8" font-family="Helvetica,sans-Serif" font-size="11.00" fill="#000000">2 &gt;</text>
<polygon fill="#000000" stroke="#000000" points="40.5,-101.7 40.5,-118.7 40.5,-118.7 40.5,-101.7 40.5,-101.7"/>
<polygon fill="#000000" stroke="#000000" points="71.5,-101.7 71.5,-118.7 71.5,-118.7 71.5,-101.7 71.5,-101.7"/>
</a>
</g>
</g>
<!-- summaries&#45;&gt;users -->
<g id="edge3" class="edge">
<title>summaries:w&#45;&gt;users:e</title>
<path fill="none" stroke="#000000" d="M146.7151,-251.7565C130.8751,-236.9048 140.8754,-193.7 111.5,-193.7"/>
<polygon fill="#000000" stroke="#000000" points="152.9696,-253.9994 159.2847,-260.0887 156.7348,-255.3497 160.5,-256.7 160.5,-256.7 160.5,-256.7 156.7348,-255.3497 161.7153,-253.3113 152.9696,-253.9994 152.9696,-253.9994"/>
<ellipse fill="none" stroke="#000000" cx="149.9574" cy="-252.9192" rx="3.2" ry="3.2"/>
</g>
<!-- action_items -->
<g id="node4" class="node">
<title>action_items</title>
<g id="a_node4"><a xlink:href="../../tables/action_items.html" xlink:title="action_items" target="_top">
<polygon fill="#ffffff" stroke="transparent" points="354,-126.2 354,-231.2 485,-231.2 485,-126.2 354,-126.2"/>
<polygon fill="#f5f5f5" stroke="transparent" points="354.5,-207.7 354.5,-230.7 485.5,-230.7 485.5,-207.7 354.5,-207.7"/>
<polygon fill="none" stroke="#000000" points="354.5,-207.7 354.5,-230.7 485.5,-230.7 485.5,-207.7 354.5,-207.7"/>
<text text-anchor="start" x="359.5" y="-216.3" font-family="Helvetica,sans-Serif" font-weight="bold" font-size="11.00" fill="#000000">action_items</text>
<text text-anchor="start" x="451.0219" y="-215.8" font-family="Helvetica,sans-Serif" font-size="11.00" fill="#000000">[table]</text>
<polygon fill="none" stroke="#000000" points="354.5,-185.7 354.5,-207.7 485.5,-207.7 485.5,-185.7 354.5,-185.7"/>
<image xlink:href="../../images/primaryKeys.png" width="11px" height="12px" preserveAspectRatio="xMinYMin meet" x="359.5" y="-202.7"/>
<text text-anchor="start" x="383.5" y="-192.8" font-family="Helvetica,sans-Serif" font-size="11.00" fill="#000000">id</text>
<polygon fill="#ffffff" stroke="transparent" points="354.5,-163.7 354.5,-185.7 485.5,-185.7 485.5,-163.7 354.5,-163.7"/>
<polygon fill="none" stroke="#000000" points="354.5,-163.7 354.5,-185.7 485.5,-185.7 485.5,-163.7 354.5,-163.7"/>
<image xlink:href="../../images/foreignKeys.png" width="11px" height="12px" preserveAspectRatio="xMinYMin meet" x="359.5" y="-180.7"/>
<text text-anchor="start" x="383.5" y="-170.8" font-family="Helvetica,sans-Serif" font-size="11.00" fill="#000000">summary_id</text>
<polygon fill="none" stroke="#000000" points="354.5,-144.7 354.5,-163.7 485.5,-163.7 485.5,-144.7 354.5,-144.7"/>
<text text-anchor="start" x="357.5" y="-150.8" font-family="Helvetica,sans-Serif" font-size="11.00" fill="#000000">...</text>
<polygon fill="#ffffff" stroke="transparent" points="354.5,-125.7 354.5,-144.7 485.5,-144.7 485.5,-125.7 354.5,-125.7"/>
<polygon fill="none" stroke="#000000" points="354.5,-125.7 354.5,-144.7 485.5,-144.7 485.5,-125.7 354.5,-125.7"/>
<polygon fill="#ffffff" stroke="transparent" points="355.5,-126.7 355.5,-143.7 404.5,-143.7 404.5,-126.7 355.5,-126.7"/>
<text text-anchor="start" x="357.5" y="-131.8" font-family="Helvetica,sans-Serif" font-size="11.00" fill="#000000">&lt; 1</text>
<polygon fill="#ffffff" stroke="transparent" points="404.5,-126.7 404.5,-143.7 444.5,-143.7 444.5,-126.7 404.5,-126.7"/>
<text text-anchor="start" x="421.4431" y="-131.8" font-family="Helvetica,sans-Serif" font-size="11.00" fill="#000000"> &#160;</text>
<polygon fill="#ffffff" stroke="transparent" points="444.5,-126.7 444.5,-143.7 484.5,-143.7 484.5,-126.7 444.5,-126.7"/>
<text text-anchor="start" x="476.3862" y="-131.8" font-family="Helvetica,sans-Serif" font-size="11.00" fill="#000000"> &#160;</text>
<polygon fill="#000000" stroke="#000000" points="404.5,-126.7 404.5,-143.7 404.5,-143.7 404.5,-126.7 404.5,-126.7"/>
<polygon fill="#000000" stroke="#000000" points="444.5,-126.7 444.5,-143.7 444.5,-143.7 444.5,-126.7 444.5,-126.7"/>
</a>
</g>
</g>
<!-- action_items&#45;&gt;summaries -->
<g id="edge1" class="edge">
<title>action_items:w&#45;&gt;summaries:e</title>
<path fill="none" stroke="#000000" d="M340.4076,-178.0702C307.0633,-198.1077 359.7178,-300.7 305.5,-300.7"/>
<polygon fill="#000000" stroke="#000000" points="346.7194,-176.5608 355.3373,-178.2013 350.6097,-175.6304 354.5,-174.7 354.5,-174.7 354.5,-174.7 350.6097,-175.6304 353.6627,-171.1987 346.7194,-176.5608 346.7194,-176.5608"/>
<ellipse fill="none" stroke="#000000" cx="343.6072" cy="-177.3051" rx="3.2" ry="3.2"/>
</g>
<!-- alembic_version -->
<g id="node5" class="node">
<title>alembic_version</title>
<g id="a_node5"><a xlink:href="../../tables/alembic_version.html" xlink:title="alembic_version" target="_top">
<polygon fill="#ffffff" stroke="transparent" points="8,-544.7 8,-608.7 164,-608.7 164,-544.7 8,-544.7"/>
<polygon fill="#f5f5f5" stroke="transparent" points="8,-585.7 8,-608.7 164,-608.7 164,-585.7 8,-585.7"/>
<polygon fill="none" stroke="#000000" points="8,-585.7 8,-608.7 164,-608.7 164,-585.7 8,-585.7"/>
<text text-anchor="start" x="13" y="-594.3" font-family="Helvetica,sans-Serif" font-weight="bold" font-size="11.00" fill="#000000">alembic_version</text>
<text text-anchor="start" x="129.5219" y="-593.8" font-family="Helvetica,sans-Serif" font-size="11.00" fill="#000000">[table]</text>
<polygon fill="none" stroke="#000000" points="8,-563.7 8,-585.7 164,-585.7 164,-563.7 8,-563.7"/>
<image xlink:href="../../images/primaryKeys.png" width="11px" height="12px" preserveAspectRatio="xMinYMin meet" x="13" y="-580.7"/>
<text text-anchor="start" x="37" y="-570.8" font-family="Helvetica,sans-Serif" font-size="11.00" fill="#000000">version_num</text>
<polygon fill="#ffffff" stroke="transparent" points="8,-544.7 8,-563.7 164,-563.7 164,-544.7 8,-544.7"/>
<polygon fill="none" stroke="#000000" points="8,-544.7 8,-563.7 164,-563.7 164,-544.7 8,-544.7"/>
<polygon fill="#ffffff" stroke="transparent" points="9,-545.7 9,-562.7 61,-562.7 61,-545.7 9,-545.7"/>
<text text-anchor="start" x="11" y="-550.8" font-family="Helvetica,sans-Serif" font-size="11.00" fill="#000000"> &#160;</text>
<polygon fill="#ffffff" stroke="transparent" points="61,-545.7 61,-562.7 112,-562.7 112,-545.7 61,-545.7"/>
<text text-anchor="start" x="83.4431" y="-550.8" font-family="Helvetica,sans-Serif" font-size="11.00" fill="#000000"> &#160;</text>
<polygon fill="#ffffff" stroke="transparent" points="112,-545.7 112,-562.7 163,-562.7 163,-545.7 112,-545.7"/>
<text text-anchor="start" x="154.8862" y="-550.8" font-family="Helvetica,sans-Serif" font-size="11.00" fill="#000000"> &#160;</text>
<polygon fill="#000000" stroke="#000000" points="61,-545.7 61,-562.7 61,-562.7 61,-545.7 61,-545.7"/>
<polygon fill="#000000" stroke="#000000" points="112,-545.7 112,-562.7 112,-562.7 112,-545.7 112,-545.7"/>
</a>
</g>
</g>
<!-- user_sessions -->
<g id="node7" class="node">
<title>user_sessions</title>
<g id="a_node7"><a xlink:href="../../tables/user_sessions.html" xlink:title="user_sessions" target="_top">
<polygon fill="#ffffff" stroke="transparent" points="162.5,-38.2 162.5,-187.2 302.5,-187.2 302.5,-38.2 162.5,-38.2"/>
<polygon fill="#f5f5f5" stroke="transparent" points="162.5,-163.7 162.5,-186.7 302.5,-186.7 302.5,-163.7 162.5,-163.7"/>
<polygon fill="none" stroke="#000000" points="162.5,-163.7 162.5,-186.7 302.5,-186.7 302.5,-163.7 162.5,-163.7"/>
<text text-anchor="start" x="167.5" y="-172.3" font-family="Helvetica,sans-Serif" font-weight="bold" font-size="11.00" fill="#000000">user_sessions</text>
<text text-anchor="start" x="268.0219" y="-171.8" font-family="Helvetica,sans-Serif" font-size="11.00" fill="#000000">[table]</text>
<polygon fill="none" stroke="#000000" points="162.5,-141.7 162.5,-163.7 302.5,-163.7 302.5,-141.7 162.5,-141.7"/>
<image xlink:href="../../images/primaryKeys.png" width="11px" height="12px" preserveAspectRatio="xMinYMin meet" x="167.5" y="-158.7"/>
<text text-anchor="start" x="191.5" y="-148.8" font-family="Helvetica,sans-Serif" font-size="11.00" fill="#000000">id</text>
<polygon fill="#ffffff" stroke="transparent" points="162.5,-119.7 162.5,-141.7 302.5,-141.7 302.5,-119.7 162.5,-119.7"/>
<polygon fill="none" stroke="#000000" points="162.5,-119.7 162.5,-141.7 302.5,-141.7 302.5,-119.7 162.5,-119.7"/>
<image xlink:href="../../images/foreignKeys.png" width="11px" height="12px" preserveAspectRatio="xMinYMin meet" x="167.5" y="-136.7"/>
<text text-anchor="start" x="191.5" y="-126.8" font-family="Helvetica,sans-Serif" font-size="11.00" fill="#000000">user_id</text>
<polygon fill="#ffffff" stroke="transparent" points="162.5,-97.7 162.5,-119.7 302.5,-119.7 302.5,-97.7 162.5,-97.7"/>
<polygon fill="none" stroke="#000000" points="162.5,-97.7 162.5,-119.7 302.5,-119.7 302.5,-97.7 162.5,-97.7"/>
<text text-anchor="start" x="191.5" y="-104.8" font-family="Helvetica,sans-Serif" font-size="11.00" fill="#000000">token_hash</text>
<polygon fill="#ffffff" stroke="transparent" points="162.5,-75.7 162.5,-97.7 302.5,-97.7 302.5,-75.7 162.5,-75.7"/>
<polygon fill="none" stroke="#000000" points="162.5,-75.7 162.5,-97.7 302.5,-97.7 302.5,-75.7 162.5,-75.7"/>
<text text-anchor="start" x="191.5" y="-82.8" font-family="Helvetica,sans-Serif" font-size="11.00" fill="#000000">expires_at</text>
<polygon fill="none" stroke="#000000" points="162.5,-56.7 162.5,-75.7 302.5,-75.7 302.5,-56.7 162.5,-56.7"/>
<text text-anchor="start" x="165.5" y="-62.8" font-family="Helvetica,sans-Serif" font-size="11.00" fill="#000000">...</text>
<polygon fill="#ffffff" stroke="transparent" points="162.5,-37.7 162.5,-56.7 302.5,-56.7 302.5,-37.7 162.5,-37.7"/>
<polygon fill="none" stroke="#000000" points="162.5,-37.7 162.5,-56.7 302.5,-56.7 302.5,-37.7 162.5,-37.7"/>
<polygon fill="#ffffff" stroke="transparent" points="163.5,-38.7 163.5,-55.7 215.5,-55.7 215.5,-38.7 163.5,-38.7"/>
<text text-anchor="start" x="165.5" y="-43.8" font-family="Helvetica,sans-Serif" font-size="11.00" fill="#000000">&lt; 1</text>
<polygon fill="#ffffff" stroke="transparent" points="215.5,-38.7 215.5,-55.7 258.5,-55.7 258.5,-38.7 215.5,-38.7"/>
<text text-anchor="start" x="233.9431" y="-43.8" font-family="Helvetica,sans-Serif" font-size="11.00" fill="#000000"> &#160;</text>
<polygon fill="#ffffff" stroke="transparent" points="258.5,-38.7 258.5,-55.7 301.5,-55.7 301.5,-38.7 258.5,-38.7"/>
<text text-anchor="start" x="293.3862" y="-43.8" font-family="Helvetica,sans-Serif" font-size="11.00" fill="#000000"> &#160;</text>
<polygon fill="#000000" stroke="#000000" points="215.5,-38.7 215.5,-55.7 215.5,-55.7 215.5,-38.7 215.5,-38.7"/>
<polygon fill="#000000" stroke="#000000" points="258.5,-38.7 258.5,-55.7 258.5,-55.7 258.5,-38.7 258.5,-38.7"/>
</a>
</g>
</g>
<!-- user_sessions&#45;&gt;users -->
<g id="edge5" class="edge">
<title>user_sessions:w&#45;&gt;users:e</title>
<path fill="none" stroke="#000000" d="M148.4033,-135.6435C132.025,-150.4952 141.3329,-193.7 111.5,-193.7"/>
<polygon fill="#000000" stroke="#000000" points="154.9507,-133.3474 163.6913,-134.0972 158.7254,-132.0237 162.5,-130.7 162.5,-130.7 162.5,-130.7 158.7254,-132.0237 161.3087,-127.3028 154.9507,-133.3474 154.9507,-133.3474"/>
<ellipse fill="none" stroke="#000000" cx="151.931" cy="-134.4064" rx="3.2" ry="3.2"/>
</g>
</g>
</svg>
