<?xml version="1.0" encoding="UTF-8" standalone="no"?>
<!DOCTYPE svg PUBLIC "-//W3C//DTD SVG 1.1//EN"
 "http://www.w3.org/Graphics/SVG/1.1/DTD/svg11.dtd">
<!-- Generated by graphviz version 2.40.1 (20161225.0304)
 -->
<!-- Title: largeRelationshipsDiagram Pages: 1 -->
<svg width="752pt" height="730pt"
 viewBox="0.00 0.00 752.00 730.20" xmlns="http://www.w3.org/2000/svg" xmlns:xlink="http://www.w3.org/1999/xlink">
<g id="graph0" class="graph" transform="scale(1 1) rotate(0) translate(4 726.2)">
<title>largeRelationshipsDiagram</title>
<polygon fill="#ffffff" stroke="transparent" points="-4,4 -4,-726.2 748,-726.2 748,4 -4,4"/>
<text text-anchor="middle" x="72.4936" y="-7.3" font-family="Helvetica,sans-Serif" font-size="11.00" fill="#000000">Generated by SchemaSpy</text>
<!-- topics -->
<g id="node1" class="node">
<title>topics</title>
<g id="a_node1"><a xlink:href="../../tables/topics.html" xlink:title="topics" target="_top">
<polygon fill="#ffffff" stroke="transparent" points="365,-516.2 365,-646.2 474,-646.2 474,-516.2 365,-516.2"/>
<polygon fill="#f5f5f5" stroke="transparent" points="365.5,-623.2 365.5,-646.2 474.5,-646.2 474.5,-623.2 365.5,-623.2"/>
<polygon fill="none" stroke="#000000" points="365.5,-623.2 365.5,-646.2 474.5,-646.2 474.5,-623.2 365.5,-623.2"/>
<text text-anchor="start" x="370.5" y="-631.8" font-family="Helvetica,sans-Serif" font-weight="bold" font-size="11.00" fill="#000000">topics</text>
<text text-anchor="start" x="439.5437" y="-631.3" font-family="Helvetica,sans-Serif" font-size="11.00" fill="#000000">[table]</text>
<polygon fill="none" stroke="#000000" points="365.5,-601.2 365.5,-623.2 474.5,-623.2 474.5,-601.2 365.5,-601.2"/>
<image xlink:href="../../images/primaryKeys.png" width="11px" height="12px" preserveAspectRatio="xMinYMin meet" x="370.5" y="-618.2"/>
<text text-anchor="start" x="385.5" y="-608.3" font-family="Helvetica,sans-Serif" font-size="11.00" fill="#000000">id</text>
<polygon fill="#ffffff" stroke="transparent" points="365.5,-579.2 365.5,-601.2 474.5,-601.2 474.5,-579.2 365.5,-579.2"/>
<polygon fill="none" stroke="#000000" points="365.5,-579.2 365.5,-601.2 474.5,-601.2 474.5,-579.2 365.5,-579.2"/>
<image xlink:href="../../images/foreignKeys.png" width="11px" height="12px" preserveAspectRatio="xMinYMin meet" x="370.5" y="-596.2"/>
<text text-anchor="start" x="385.5" y="-586.3" font-family="Helvetica,sans-Serif" font-size="11.00" fill="#000000">summary_id</text>
<polygon fill="none" stroke="#000000" points="365.5,-557.2 365.5,-579.2 474.5,-579.2 474.5,-557.2 365.5,-557.2"/>
<text text-anchor="start" x="385.5" y="-564.3" font-family="Helvetica,sans-Serif" font-size="11.00" fill="#000000">title</text>
<polygon fill="none" stroke="#000000" points="365.5,-535.2 365.5,-557.2 474.5,-557.2 474.5,-535.2 365.5,-535.2"/>
<text text-anchor="start" x="385.5" y="-542.3" font-family="Helvetica,sans-Serif" font-size="11.00" fill="#000000">summary</text>
<polygon fill="#ffffff" stroke="transparent" points="365.5,-516.2 365.5,-535.2 474.5,-535.2 474.5,-516.2 365.5,-516.2"/>
<polygon fill="none" stroke="#000000" points="365.5,-516.2 365.5,-535.2 474.5,-535.2 474.5,-516.2 365.5,-516.2"/>
<polygon fill="#ffffff" stroke="transparent" points="366.5,-517.2 366.5,-534.2 408.5,-534.2 408.5,-517.2 366.5,-517.2"/>
<text text-anchor="start" x="368.5" y="-522.3" font-family="Helvetica,sans-Serif" font-size="11.00" fill="#000000">&lt; 1</text>
<polygon fill="#ffffff" stroke="transparent" points="408.5,-517.2 408.5,-534.2 441.5,-534.2 441.5,-517.2 408.5,-517.2"/>
<text text-anchor="start" x="421.9431" y="-522.3" font-family="Helvetica,sans-Serif" font-size="11.00" fill="#000000"> &#160;</text>
<polygon fill="#ffffff" stroke="transparent" points="441.5,-517.2 441.5,-534.2 473.5,-534.2 473.5,-517.2 441.5,-517.2"/>
<text text-anchor="start" x="465.3862" y="-522.3" font-family="Helvetica,sans-Serif" font-size="11.00" fill="#000000"> &#160;</text>
<polygon fill="#000000" stroke="#000000" points="408.5,-517.2 408.5,-534.2 408.5,-534.2 408.5,-517.2 408.5,-517.2"/>
<polygon fill="#000000" stroke="#000000" points="441.5,-517.2 441.5,-534.2 441.5,-534.2 441.5,-517.2 441.5,-517.2"/>
</a>
</g>
</g>
<!-- summaries -->
<g id="node3" class="node">
<title>summaries</title>
<g id="a_node3"><a xlink:href="../../tables/summaries.html" xlink:title="summaries" target="_top">
<polygon fill="#ffffff" stroke="transparent" points="160,-299.2 160,-473.2 305,-473.2 305,-299.2 160,-299.2"/>
<polygon fill="#f5f5f5" stroke="transparent" points="160.5,-450.2 160.5,-473.2 305.5,-473.2 305.5,-450.2 160.5,-450.2"/>
<polygon fill="none" stroke="#000000" points="160.5,-450.2 160.5,-473.2 305.5,-473.2 305.5,-450.2 160.5,-450.2"/>
<text text-anchor="start" x="165.5" y="-458.8" font-family="Helvetica,sans-Serif" font-weight="bold" font-size="11.00" fill="#000000">summaries</text>
<text text-anchor="start" x="270.5437" y="-458.3" font-family="Helvetica,sans-Serif" font-size="11.00" fill="#000000">[table]</text>
<polygon fill="none" stroke="#000000" points="160.5,-428.2 160.5,-450.2 305.5,-450.2 305.5,-428.2 160.5,-428.2"/>
<image xlink:href="../../images/primaryKeys.png" width="11px" height="12px" preserveAspectRatio="xMinYMin meet" x="165.5" y="-445.2"/>
<text text-anchor="start" x="180.5" y="-435.3" font-family="Helvetica,sans-Serif" font-size="11.00" fill="#000000">id</text>
<polygon fill="none" stroke="#000000" points="160.5,-406.2 160.5,-428.2 305.5,-428.2 305.5,-406.2 160.5,-406.2"/>
<text text-anchor="start" x="180.5" y="-413.3" font-family="Helvetica,sans-Serif" font-size="11.00" fill="#000000">filename</text>
<polygon fill="none" stroke="#000000" points="160.5,-384.2 160.5,-406.2 305.5,-406.2 305.5,-384.2 160.5,-384.2"/>
<text text-anchor="start" x="180.5" y="-391.3" font-family="Helvetica,sans-Serif" font-size="11.00" fill="#000000">created_at</text>
<polygon fill="none" stroke="#000000" points="160.5,-362.2 160.5,-384.2 305.5,-384.2 305.5,-362.2 160.5,-362.2"/>
<text text-anchor="start" x="180.5" y="-369.3" font-family="Helvetica,sans-Serif" font-size="11.00" fill="#000000">overall_summary</text>
<polygon fill="#ffffff" stroke="transparent" points="160.5,-340.2 160.5,-362.2 305.5,-362.2 305.5,-340.2 160.5,-340.2"/>
<polygon fill="none" stroke="#000000" points="160.5,-340.2 160.5,-362.2 305.5,-362.2 305.5,-340.2 160.5,-340.2"/>
<text text-anchor="start" x="180.5" y="-347.3" font-family="Helvetica,sans-Serif" font-size="11.00" fill="#000000">content_hash</text>
<polygon fill="#ffffff" stroke="transparent" points="160.5,-318.2 160.5,-340.2 305.5,-340.2 305.5,-318.2 160.5,-318.2"/>
<polygon fill="none" stroke="#000000" points="160.5,-318.2 160.5,-340.2 305.5,-340.2 305.5,-318.2 160.5,-318.2"/>
<image xlink:href="../../images/foreignKeys.png" width="11px" height="12px" preserveAspectRatio="xMinYMin meet" x="165.5" y="-335.2"/>
<text text-anchor="start" x="180.5" y="-325.3" font-family="Helvetica,sans-Serif" font-size="11.00" fill="#000000">user_id</text>
<polygon fill="#ffffff" stroke="transparent" points="160.5,-299.2 160.5,-318.2 305.5,-318.2 305.5,-299.2 160.5,-299.2"/>
<polygon fill="none" stroke="#000000" points="160.5,-299.2 160.5,-318.2 305.5,-318.2 305.5,-299.2 160.5,-299.2"/>
<polygon fill="#ffffff" stroke="transparent" points="161.5,-300.2 161.5,-317.2 212.5,-317.2 212.5,-300.2 161.5,-300.2"/>
<text text-anchor="start" x="163.5" y="-305.3" font-family="Helvetica,sans-Serif" font-size="11.00" fill="#000000">&lt; 1</text>
<polygon fill="#ffffff" stroke="transparent" points="212.5,-300.2 212.5,-317.2 254.5,-317.2 254.5,-300.2 212.5,-300.2"/>
<text text-anchor="start" x="230.4431" y="-305.3" font-family="Helvetica,sans-Serif" font-size="11.00" fill="#000000"> &#160;</text>
<polygon fill="#ffffff" stroke="transparent" points="254.5,-300.2 254.5,-317.2 304.5,-317.2 304.5,-300.2 254.5,-300.2"/>
<text text-anchor="start" x="286.9053" y="-305.3" font-family="Helvetica,sans-Serif" font-size="11.00" fill="#000000">3 &gt;</text>
<polygon fill="#000000" stroke="#000000" points="212.5,-300.2 212.5,-317.2 212.5,-317.2 212.5,-300.2 212.5,-300.2"/>
<polygon fill="#000000" stroke="#000000" points="254.5,-300.2 254.5,-317.2 254.5,-317.2 254.5,-300.2 254.5,-300.2"/>
</a>
</g>
</g>
<!-- topics&#45;&gt;summaries -->
<g id="edge4" class="edge">
<title>topics:w&#45;&gt;summaries:e</title>
<path fill="none" stroke="#000000" d="M351.2935,-587.5791C305.5211,-567.5279 372.0732,-439.2 305.5,-439.2"/>
<polygon fill="#000000" stroke="#000000" points="357.6328,-588.7486 364.8469,-593.7403 361.5664,-589.4743 365.5,-590.2 365.5,-590.2 365.5,-590.2 361.5664,-589.4743 366.1531,-586.6597 357.6328,-588.7486 357.6328,-588.7486"/>
<ellipse fill="none" stroke="#000000" cx="354.4859" cy="-588.168" rx="3.2" ry="3.2"/>
</g>
<!-- decisions -->
<g id="node2" class="node">
<title>decisions</title>
<g id="a_node2"><a xlink:href="../../tables/decisions.html" xlink:title="decisions" target="_top">
<polygon fill="#ffffff" stroke="transparent" points="365,-365.2 365,-495.2 474,-495.2 474,-365.2 365,-365.2"/>
<polygon fill="#f5f5f5" stroke="transparent" points="365.5,-472.2 365.5,-495.2 474.5,-495.2 474.5,-472.2 365.5,-472.2"/>
<polygon fill="none" stroke="#000000" points="365.5,-472.2 365.5,-495.2 474.5,-495.2 474.5,-472.2 365.5,-472.2"/>
<text text-anchor="start" x="370.5" y="-480.8" font-family="Helvetica,sans-Serif" font-weight="bold" font-size="11.00" fill="#000000">decisions</text>
<text text-anchor="start" x="439.5437" y="-480.3" font-family="Helvetica,sans-Serif" font-size="11.00" fill="#000000">[table]</text>
<polygon fill="none" stroke="#000000" points="365.5,-450.2 365.5,-472.2 474.5,-472.2 474.5,-450.2 365.5,-450.2"/>
<image xlink:href="../../images/primaryKeys.png" width="11px" height="12px" preserveAspectRatio="xMinYMin meet" x="370.5" y="-467.2"/>
<text text-anchor="start" x="385.5" y="-457.3" font-family="Helvetica,sans-Serif" font-size="11.00" fill="#000000">id</text>
<polygon fill="#ffffff" stroke="transparent" points="365.5,-428.2 365.5,-450.2 474.5,-450.2 474.5,-428.2 365.5,-428.2"/>
<polygon fill="none" stroke="#000000" points="365.5,-428.2 365.5,-450.2 474.5,-450.2 474.5,-428.2 365.5,-428.2"/>
<image xlink:href="../../images/foreignKeys.png" width="11px" height="12px" preserveAspectRatio="xMinYMin meet" x="370.5" y="-445.2"/>
<text text-anchor="start" x="385.5" y="-435.3" font-family="Helvetica,sans-Serif" font-size="11.00" fill="#000000">summary_id</text>
<polygon fill="none" stroke="#000000" points="365.5,-406.2 365.5,-428.2 474.5,-428.2 474.5,-406.2 365.5,-406.2"/>
<text text-anchor="start" x="385.5" y="-413.3" font-family="Helvetica,sans-Serif" font-size="11.00" fill="#000000">description</text>
<polygon fill="none" stroke="#000000" points="365.5,-384.2 365.5,-406.2 474.5,-406.2 474.5,-384.2 365.5,-384.2"/>
<text text-anchor="start" x="385.5" y="-391.3" font-family="Helvetica,sans-Serif" font-size="11.00" fill="#000000">decided_by</text>
<polygon fill="#ffffff" stroke="transparent" points="365.5,-365.2 365.5,-384.2 474.5,-384.2 474.5,-365.2 365.5,-365.2"/>
<polygon fill="none" stroke="#000000" points="365.5,-365.2 365.5,-384.2 474.5,-384.2 474.5,-365.2 365.5,-365.2"/>
<polygon fill="#ffffff" stroke="transparent" points="366.5,-366.2 366.5,-383.2 408.5,-383.2 408.5,-366.2 366.5,-366.2"/>
<text text-anchor="start" x="368.5" y="-371.3" font-family="Helvetica,sans-Serif" font-size="11.00" fill="#000000">&lt; 1</text>
<polygon fill="#ffffff" stroke="transparent" points="408.5,-366.2 408.5,-383.2 441.5,-383.2 441.5,-366.2 408.5,-366.2"/>
<text text-anchor="start" x="421.9431" y="-371.3" font-family="Helvetica,sans-Serif" font-size="11.00" fill="#000000"> &#160;</text>
<polygon fill="#ffffff" stroke="transparent" points="441.5,-366.2 441.5,-383.2 473.5,-383.2 473.5,-366.2 441.5,-366.2"/>
<text text-anchor="start" x="465.3862" y="-371.3" font-family="Helvetica,sans-Serif" font-size="11.00" fill="#000000"> &#160;</text>
<polygon fill="#000000" stroke="#000000" points="408.5,-366.2 408.5,-383.2 408.5,-383.2 408.5,-366.2 408.5,-366.2"/>
<polygon fill="#000000" stroke="#000000" points="441.5,-366.2 441.5,-383.2 441.5,-383.2 441.5,-366.2 441.5,-366.2"/>
</a>
</g>
</g>
<!-- decisions&#45;&gt;summaries -->
<g id="edge2" class="edge">
<title>decisions:w&#45;&gt;summaries:e</title>
<path fill="none" stroke="#000000" d="M350.9193,-439.2C335.1309,-439.2 326.5417,-439.2 305.5,-439.2"/>
<polygon fill="#000000" stroke="#000000" points="357.5,-439.2001 365.5,-442.8 361.5,-439.2 365.5,-439.2 365.5,-439.2 365.5,-439.2 361.5,-439.2 365.5,-435.6 357.5,-439.2001 357.5,-439.2001"/>
<ellipse fill="none" stroke="#000000" cx="354.3" cy="-439.2001" rx="3.2" ry="3.2"/>
</g>
<!-- users -->
<g id="node6" class="node">
<title>users</title>
<g id="a_node6"><a xlink:href="../../tables/users.html" xlink:title="users" target="_top">
<polygon fill="#ffffff" stroke="transparent" points="8,-135.2 8,-309.2 111,-309.2 111,-135.2 8,-135.2"/>
<polygon fill="#f5f5f5" stroke="transparent" points="8.5,-286.2 8.5,-309.2 111.5,-309.2 111.5,-286.2 8.5,-286.2"/>
<polygon fill="none" stroke="#000000" points="8.5,-286.2 8.5,-309.2 111.5,-309.2 111.5,-286.2 8.5,-286.2"/>
<text text-anchor="start" x="13.5" y="-294.8" font-family="Helvetica,sans-Serif" font-weight="bold" font-size="11.00" fill="#000000">users</text>
<text text-anchor="start" x="76.5437" y="-294.3" font-family="Helvetica,sans-Serif" font-size="11.00" fill="#000000">[table]</text>
<polygon fill="none" stroke="#000000" points="8.5,-264.2 8.5,-286.2 111.5,-286.2 111.5,-264.2 8.5,-264.2"/>
<image xlink:href="../../images/primaryKeys.png" width="11px" height="12px" preserveAspectRatio="xMinYMin meet" x="13.5" y="-281.2"/>
<text text-anchor="start" x="28.5" y="-271.3" font-family="Helvetica,sans-Serif" font-size="11.00" fill="#000000">id</text>
<polygon fill="#ffffff" stroke="transparent" points="8.5,-242.2 8.5,-264.2 111.5,-264.2 111.5,-242.2 8.5,-242.2"/>
<polygon fill="none" stroke="#000000" points="8.5,-242.2 8.5,-264.2 111.5,-264.2 111.5,-242.2 8.5,-242.2"/>
<text text-anchor="start" x="28.5" y="-249.3" font-family="Helvetica,sans-Serif" font-size="11.00" fill="#000000">google_sub</text>
<polygon fill="#ffffff" stroke="transparent" points="8.5,-220.2 8.5,-242.2 111.5,-242.2 111.5,-220.2 8.5,-220.2"/>
<polygon fill="none" stroke="#000000" points="8.5,-220.2 8.5,-242.2 111.5,-242.2 111.5,-220.2 8.5,-220.2"/>
<text text-anchor="start" x="28.5" y="-227.3" font-family="Helvetica,sans-Serif" font-size="11.00" fill="#000000">email</text>
<polygon fill="none" stroke="#000000" points="8.5,-198.2 8.5,-220.2 111.5,-220.2 111.5,-198.2 8.5,-198.2"/>
<text text-anchor="start" x="28.5" y="-205.3" font-family="Helvetica,sans-Serif" font-size="11.00" fill="#000000">name</text>
<polygon fill="none" stroke="#000000" points="8.5,-176.2 8.5,-198.2 111.5,-198.2 111.5,-176.2 8.5,-176.2"/>
<text text-anchor="start" x="28.5" y="-183.3" font-family="Helvetica,sans-Serif" font-size="11.00" fill="#000000">created_at</text>
<polygon fill="none" stroke="#000000" points="8.5,-154.2 8.5,-176.2 111.5,-176.2 111.5,-154.2 8.5,-154.2"/>
<text text-anchor="start" x="28.5" y="-161.3" font-family="Helvetica,sans-Serif" font-size="11.00" fill="#000000">updated_at</text>
<polygon fill="#ffffff" stroke="transparent" points="8.5,-135.2 8.5,-154.2 111.5,-154.2 111.5,-135.2 8.5,-135.2"/>
<polygon fill="none" stroke="#000000" points="8.5,-135.2 8.5,-154.2 111.5,-154.2 111.5,-135.2 8.5,-135.2"/>
<polygon fill="#ffffff" stroke="transparent" points="9.5,-136.2 9.5,-153.2 40.5,-153.2 40.5,-136.2 9.5,-136.2"/>
<text text-anchor="start" x="11.5" y="-141.3" font-family="Helvetica,sans-Serif" font-size="11.00" fill="#000000"> &#160;</text>
<polygon fill="#ffffff" stroke="transparent" points="40.5,-136.2 40.5,-153.2 71.5,-153.2 71.5,-136.2 40.5,-136.2"/>
<text text-anchor="start" x="52.9431" y="-141.3" font-family="Helvetica,sans-Serif" font-size="11.00" fill="#000000"> &#160;</text>
<polygon fill="#ffffff" stroke="transparent" points="71.5,-136.2 71.5,-153.2 110.5,-153.2 110.5,-136.2 71.5,-136.2"/>
<text text-anchor="start" x="92.9053" y="-141.3" font-family="Helvetica,sans-Serif" font-size="11.00" fill="#000000">2 &gt;</text>
<polygon fill="#000000" stroke="#000000" points="40.5,-136.2 40.5,-153.2 40.5,-153.2 40.5,-136.2 40.5,-136.2"/>
<polygon fill="#000000" stroke="#000000" points="71.5,-136.2 71.5,-153.2 71.5,-153.2 71.5,-136.2 71.5,-136.2"/>
</a>
</g>
</g>
<!-- summaries&#45;&gt;users -->
<g id="edge3" class="edge">
<title>summaries:w&#45;&gt;users:e</title>
<path fill="none" stroke="#000000" d="M146.7209,-324.2166C132.3277,-310.8484 137.8314,-275.2 111.5,-275.2"/>
<polygon fill="#000000" stroke="#000000" points="152.9769,-326.4791 159.2756,-332.5854 156.7384,-327.8396 160.5,-329.2 160.5,-329.2 160.5,-329.2 156.7384,-327.8396 161.7244,-325.8146 152.9769,-326.4791 152.9769,-326.4791"/>
<ellipse fill="none" stroke="#000000" cx="149.9677" cy="-325.3908" rx="3.2" ry="3.2"/>
</g>
<!-- action_items -->
<g id="node4" class="node">
<title>action_items</title>
<g id="a_node4"><a xlink:href="../../tables/action_items.html" xlink:title="action_items" target="_top">
<polygon fill="#ffffff" stroke="transparent" points="354,-192.2 354,-344.2 485,-344.2 485,-192.2 354,-192.2"/>
<polygon fill="#f5f5f5" stroke="transparent" points="354.5,-321.2 354.5,-344.2 485.5,-344.2 485.5,-321.2 354.5,-321.2"/>
<polygon fill="none" stroke="#000000" points="354.5,-321.2 354.5,-344.2 485.5,-344.2 485.5,-321.2 354.5,-321.2"/>
<text text-anchor="start" x="359.5" y="-329.8" font-family="Helvetica,sans-Serif" font-weight="bold" font-size="11.00" fill="#000000">action_items</text>
<text text-anchor="start" x="451.0219" y="-329.3" font-family="Helvetica,sans-Serif" font-size="11.00" fill="#000000">[table]</text>
<polygon fill="none" stroke="#000000" points="354.5,-299.2 354.5,-321.2 485.5,-321.2 485.5,-299.2 354.5,-299.2"/>
<image xlink:href="../../images/primaryKeys.png" width="11px" height="12px" preserveAspectRatio="xMinYMin meet" x="359.5" y="-316.2"/>
<text text-anchor="start" x="383.5" y="-306.3" font-family="Helvetica,sans-Serif" font-size="11.00" fill="#000000">id</text>
<polygon fill="#ffffff" stroke="transparent" points="354.5,-277.2 354.5,-299.2 485.5,-299.2 485.5,-277.2 354.5,-277.2"/>
<polygon fill="none" stroke="#000000" points="354.5,-277.2 354.5,-299.2 485.5,-299.2 485.5,-277.2 354.5,-277.2"/>
<image xlink:href="../../images/foreignKeys.png" width="11px" height="12px" preserveAspectRatio="xMinYMin meet" x="359.5" y="-294.2"/>
<text text-anchor="start" x="383.5" y="-284.3" font-family="Helvetica,sans-Serif" font-size="11.00" fill="#000000">summary_id</text>
<polygon fill="none" stroke="#000000" points="354.5,-255.2 354.5,-277.2 485.5,-277.2 485.5,-255.2 354.5,-255.2"/>
<text text-anchor="start" x="383.5" y="-262.3" font-family="Helvetica,sans-Serif" font-size="11.00" fill="#000000">description</text>
<polygon fill="none" stroke="#000000" points="354.5,-233.2 354.5,-255.2 485.5,-255.2 485.5,-233.2 354.5,-233.2"/>
<text text-anchor="start" x="383.5" y="-240.3" font-family="Helvetica,sans-Serif" font-size="11.00" fill="#000000">assignee</text>
<polygon fill="none" stroke="#000000" points="354.5,-211.2 354.5,-233.2 485.5,-233.2 485.5,-211.2 354.5,-211.2"/>
<text text-anchor="start" x="383.5" y="-218.3" font-family="Helvetica,sans-Serif" font-size="11.00" fill="#000000">due_date</text>
<polygon fill="#ffffff" stroke="transparent" points="354.5,-192.2 354.5,-211.2 485.5,-211.2 485.5,-192.2 354.5,-192.2"/>
<polygon fill="none" stroke="#000000" points="354.5,-192.2 354.5,-211.2 485.5,-211.2 485.5,-192.2 354.5,-192.2"/>
<polygon fill="#ffffff" stroke="transparent" points="355.5,-193.2 355.5,-210.2 404.5,-210.2 404.5,-193.2 355.5,-193.2"/>
<text text-anchor="start" x="357.5" y="-198.3" font-family="Helvetica,sans-Serif" font-size="11.00" fill="#000000">&lt; 1</text>
<polygon fill="#ffffff" stroke="transparent" points="404.5,-193.2 404.5,-210.2 444.5,-210.2 444.5,-193.2 404.5,-193.2"/>
<text text-anchor="start" x="421.4431" y="-198.3" font-family="Helvetica,sans-Serif" font-size="11.00" fill="#000000"> &#160;</text>
<polygon fill="#ffffff" stroke="transparent" points="444.5,-193.2 444.5,-210.2 484.5,-210.2 484.5,-193.2 444.5,-193.2"/>
<text text-anchor="start" x="476.3862" y="-198.3" font-family="Helvetica,sans-Serif" font-size="11.00" fill="#000000"> &#160;</text>
<polygon fill="#000000" stroke="#000000" points="404.5,-193.2 404.5,-210.2 404.5,-210.2 404.5,-193.2 404.5,-193.2"/>
<polygon fill="#000000" stroke="#000000" points="444.5,-193.2 444.5,-210.2 444.5,-210.2 444.5,-193.2 444.5,-193.2"/>
</a>
</g>
</g>
<!-- action_items&#45;&gt;summaries -->
<g id="edge1" class="edge">
<title>action_items:w&#45;&gt;summaries:e</title>
<path fill="none" stroke="#000000" d="M340.2408,-291.0816C297.9614,-311.9573 370.2684,-439.2 305.5,-439.2"/>
<polygon fill="#000000" stroke="#000000" points="346.6585,-289.7847 355.2131,-291.7287 350.5793,-288.9924 354.5,-288.2 354.5,-288.2 354.5,-288.2 350.5793,-288.9924 353.7869,-284.6713 346.6585,-289.7847 346.6585,-289.7847"/>
<ellipse fill="none" stroke="#000000" cx="343.5219" cy="-290.4186" rx="3.2" ry="3.2"/>
</g>
<!-- alembic_version -->
<g id="node5" class="node">
<title>alembic_version</title>
<g id="a_node5"><a xlink:href="../../tables/alembic_version.html" xlink:title="alembic_version" target="_top">
<polygon fill="#ffffff" stroke="transparent" points="580,-654.2 580,-718.2 736,-718.2 736,-654.2 580,-654.2"/>
<polygon fill="#f5f5f5" stroke="transparent" points="580,-695.2 580,-718.2 736,-718.2 736,-695.2 580,-695.2"/>
<polygon fill="none" stroke="#000000" points="580,-695.2 580,-718.2 736,-718.2 736,-695.2 580,-695.2"/>
<text text-anchor="start" x="585" y="-703.8" font-family="Helvetica,sans-Serif" font-weight="bold" font-size="11.00" fill="#000000">alembic_version</text>
<text text-anchor="start" x="701.5219" y="-703.3" font-family="Helvetica,sans-Serif" font-size="11.00" fill="#000000">[table]</text>
<polygon fill="none" stroke="#000000" points="580,-673.2 580,-695.2 736,-695.2 736,-673.2 580,-673.2"/>
<image xlink:href="../../images/primaryKeys.png" width="11px" height="12px" preserveAspectRatio="xMinYMin meet" x="585" y="-690.2"/>
<text text-anchor="start" x="609" y="-680.3" font-family="Helvetica,sans-Serif" font-size="11.00" fill="#000000">version_num</text>
<polygon fill="#ffffff" stroke="transparent" points="580,-654.2 580,-673.2 736,-673.2 736,-654.2 580,-654.2"/>
<polygon fill="none" stroke="#000000" points="580,-654.2 580,-673.2 736,-673.2 736,-654.2 580,-654.2"/>
<polygon fill="#ffffff" stroke="transparent" points="581,-655.2 581,-672.2 633,-672.2 633,-655.2 581,-655.2"/>
<text text-anchor="start" x="583" y="-660.3" font-family="Helvetica,sans-Serif" font-size="11.00" fill="#000000"> &#160;</text>
<polygon fill="#ffffff" stroke="transparent" points="633,-655.2 633,-672.2 684,-672.2 684,-655.2 633,-655.2"/>
<text text-anchor="start" x="655.4431" y="-660.3" font-family="Helvetica,sans-Serif" font-size="11.00" fill="#000000"> &#160;</text>
<polygon fill="#ffffff" stroke="transparent" points="684,-655.2 684,-672.2 735,-672.2 735,-655.2 684,-655.2"/>
<text text-anchor="start" x="726.8862" y="-660.3" font-family="Helvetica,sans-Serif" font-size="11.00" fill="#000000"> &#160;</text>
<polygon fill="#000000" stroke="#000000" points="633,-655.2 633,-672.2 633,-672.2 633,-655.2 633,-655.2"/>
<polygon fill="#000000" stroke="#000000" points="684,-655.2 684,-672.2 684,-672.2 684,-655.2 684,-655.2"/>
</a>
</g>
</g>
<!-- user_sessions -->
<g id="node7" class="node">
<title>user_sessions</title>
<g id="a_node7"><a xlink:href="../../tables/user_sessions.html" xlink:title="user_sessions" target="_top">
<polygon fill="#ffffff" stroke="transparent" points="162.5,-38.2 162.5,-278.2 302.5,-278.2 302.5,-38.2 162.5,-38.2"/>
<polygon fill="#f5f5f5" stroke="transparent" points="162.5,-255.2 162.5,-278.2 302.5,-278.2 302.5,-255.2 162.5,-255.2"/>
<polygon fill="none" stroke="#000000" points="162.5,-255.2 162.5,-278.2 302.5,-278.2 302.5,-255.2 162.5,-255.2"/>
<text text-anchor="start" x="167.5" y="-263.8" font-family="Helvetica,sans-Serif" font-weight="bold" font-size="11.00" fill="#000000">user_sessions</text>
<text text-anchor="start" x="268.0219" y="-263.3" font-family="Helvetica,sans-Serif" font-size="11.00" fill="#000000">[table]</text>
<polygon fill="none" stroke="#000000" points="162.5,-233.2 162.5,-255.2 302.5,-255.2 302.5,-233.2 162.5,-233.2"/>
<image xlink:href="../../images/primaryKeys.png" width="11px" height="12px" preserveAspectRatio="xMinYMin meet" x="167.5" y="-250.2"/>
<text text-anchor="start" x="191.5" y="-240.3" font-family="Helvetica,sans-Serif" font-size="11.00" fill="#000000">id</text>
<polygon fill="#ffffff" stroke="transparent" points="162.5,-211.2 162.5,-233.2 302.5,-233.2 302.5,-211.2 162.5,-211.2"/>
<polygon fill="none" stroke="#000000" points="162.5,-211.2 162.5,-233.2 302.5,-233.2 302.5,-211.2 162.5,-211.2"/>
<image xlink:href="../../images/foreignKeys.png" width="11px" height="12px" preserveAspectRatio="xMinYMin meet" x="167.5" y="-228.2"/>
<text text-anchor="start" x="191.5" y="-218.3" font-family="Helvetica,sans-Serif" font-size="11.00" fill="#000000">user_id</text>
<polygon fill="#ffffff" stroke="transparent" points="162.5,-189.2 162.5,-211.2 302.5,-211.2 302.5,-189.2 162.5,-189.2"/>
<polygon fill="none" stroke="#000000" points="162.5,-189.2 162.5,-211.2 302.5,-211.2 302.5,-189.2 162.5,-189.2"/>
<text text-anchor="start" x="191.5" y="-196.3" font-family="Helvetica,sans-Serif" font-size="11.00" fill="#000000">token_hash</text>
<polygon fill="none" stroke="#000000" points="162.5,-167.2 162.5,-189.2 302.5,-189.2 302.5,-167.2 162.5,-167.2"/>
<text text-anchor="start" x="191.5" y="-174.3" font-family="Helvetica,sans-Serif" font-size="11.00" fill="#000000">created_at</text>
<polygon fill="#ffffff" stroke="transparent" points="162.5,-145.2 162.5,-167.2 302.5,-167.2 302.5,-145.2 162.5,-145.2"/>
<polygon fill="none" stroke="#000000" points="162.5,-145.2 162.5,-167.2 302.5,-167.2 302.5,-145.2 162.5,-145.2"/>
<text text-anchor="start" x="191.5" y="-152.3" font-family="Helvetica,sans-Serif" font-size="11.00" fill="#000000">expires_at</text>
<polygon fill="none" stroke="#000000" points="162.5,-123.2 162.5,-145.2 302.5,-145.2 302.5,-123.2 162.5,-123.2"/>
<text text-anchor="start" x="191.5" y="-130.3" font-family="Helvetica,sans-Serif" font-size="11.00" fill="#000000">last_seen_at</text>
<polygon fill="none" stroke="#000000" points="162.5,-101.2 162.5,-123.2 302.5,-123.2 302.5,-101.2 162.5,-101.2"/>
<text text-anchor="start" x="191.5" y="-108.3" font-family="Helvetica,sans-Serif" font-size="11.00" fill="#000000">revoked_at</text>
<polygon fill="none" stroke="#000000" points="162.5,-79.2 162.5,-101.2 302.5,-101.2 302.5,-79.2 162.5,-79.2"/>
<text text-anchor="start" x="191.5" y="-86.3" font-family="Helvetica,sans-Serif" font-size="11.00" fill="#000000">user_agent</text>
<polygon fill="none" stroke="#000000" points="162.5,-57.2 162.5,-79.2 302.5,-79.2 302.5,-57.2 162.5,-57.2"/>
<text text-anchor="start" x="191.5" y="-64.3" font-family="Helvetica,sans-Serif" font-size="11.00" fill="#000000">ip_address</text>
<polygon fill="#ffffff" stroke="transparent" points="162.5,-38.2 162.5,-57.2 302.5,-57.2 302.5,-38.2 162.5,-38.2"/>
<polygon fill="none" stroke="#000000" points="162.5,-38.2 162.5,-57.2 302.5,-57.2 302.5,-38.2 162.5,-38.2"/>
<polygon fill="#ffffff" stroke="transparent" points="163.5,-39.2 163.5,-56.2 215.5,-56.2 215.5,-39.2 163.5,-39.2"/>
<text text-anchor="start" x="165.5" y="-44.3" font-family="Helvetica,sans-Serif" font-size="11.00" fill="#000000">&lt; 1</text>
<polygon fill="#ffffff" stroke="transparent" points="215.5,-39.2 215.5,-56.2 258.5,-56.2 258.5,-39.2 215.5,-39.2"/>
<text text-anchor="start" x="233.9431" y="-44.3" font-family="Helvetica,sans-Serif" font-size="11.00" fill="#000000"> &#160;</text>
<polygon fill="#ffffff" stroke="transparent" points="258.5,-39.2 258.5,-56.2 301.5,-56.2 301.5,-39.2 258.5,-39.2"/>
<text text-anchor="start" x="293.3862" y="-44.3" font-family="Helvetica,sans-Serif" font-size="11.00" fill="#000000"> &#160;</text>
<polygon fill="#000000" stroke="#000000" points="215.5,-39.2 215.5,-56.2 215.5,-56.2 215.5,-39.2 215.5,-39.2"/>
<polygon fill="#000000" stroke="#000000" points="258.5,-39.2 258.5,-56.2 258.5,-56.2 258.5,-39.2 258.5,-39.2"/>
</a>
</g>
</g>
<!-- user_sessions&#45;&gt;users -->
<g id="edge5" class="edge">
<title>user_sessions:w&#45;&gt;users:e</title>
<path fill="none" stroke="#000000" d="M148.4557,-227.0911C133.5477,-240.2117 138.0607,-275.2 111.5,-275.2"/>
<polygon fill="#000000" stroke="#000000" points="154.945,-224.8311 163.684,-225.5997 158.7225,-223.5156 162.5,-222.2 162.5,-222.2 162.5,-222.2 158.7225,-223.5156 161.316,-218.8003 154.945,-224.8311 154.945,-224.8311"/>
<ellipse fill="none" stroke="#000000" cx="151.9231" cy="-225.8836" rx="3.2" ry="3.2"/>
</g>
</g>
</svg>
