<?xml version="1.0" encoding="UTF-8" standalone="no"?>
<!DOCTYPE svg PUBLIC "-//W3C//DTD SVG 1.1//EN"
 "http://www.w3.org/Graphics/SVG/1.1/DTD/svg11.dtd">
<!-- Generated by graphviz version 2.40.1 (20161225.0304)
 -->
<!-- Title: largeRelationshipsDiagram Pages: 1 -->
<svg width="576pt" height="576pt"
 viewBox="0.00 0.00 576.00 576.20" xmlns="http://www.w3.org/2000/svg" xmlns:xlink="http://www.w3.org/1999/xlink">
<g id="graph0" class="graph" transform="scale(1 1) rotate(0) translate(4 572.2)">
<title>largeRelationshipsDiagram</title>
<polygon fill="#ffffff" stroke="transparent" points="-4,4 -4,-572.2 572,-572.2 572,4 -4,4"/>
<text text-anchor="middle" x="72.4936" y="-7.3" font-family="Helvetica,sans-Serif" font-size="11.00" fill="#000000">Generated by SchemaSpy</text>
<!-- topics -->
<g id="node1" class="node">
<title>topics</title>
<g id="a_node1"><a xlink:href="../../tables/topics.html" xlink:title="topics" target="_top">
<polygon fill="#ffffff" stroke="transparent" points="213,-362.2 213,-492.2 322,-492.2 322,-362.2 213,-362.2"/>
<polygon fill="#f5f5f5" stroke="transparent" points="213.5,-469.2 213.5,-492.2 322.5,-492.2 322.5,-469.2 213.5,-469.2"/>
<polygon fill="none" stroke="#000000" points="213.5,-469.2 213.5,-492.2 322.5,-492.2 322.5,-469.2 213.5,-469.2"/>
<text text-anchor="start" x="218.5" y="-477.8" font-family="Helvetica,sans-Serif" font-weight="bold" font-size="11.00" fill="#000000">topics</text>
<text text-anchor="start" x="287.5437" y="-477.3" font-family="Helvetica,sans-Serif" font-size="11.00" fill="#000000">[table]</text>
<polygon fill="none" stroke="#000000" points="213.5,-447.2 213.5,-469.2 322.5,-469.2 322.5,-447.2 213.5,-447.2"/>
<image xlink:href="../../images/primaryKeys.png" width="11px" height="12px" preserveAspectRatio="xMinYMin meet" x="218.5" y="-464.2"/>
<text text-anchor="start" x="233.5" y="-454.3" font-family="Helvetica,sans-Serif" font-size="11.00" fill="#000000">id</text>
<polygon fill="#ffffff" stroke="transparent" points="213.5,-425.2 213.5,-447.2 322.5,-447.2 322.5,-425.2 213.5,-425.2"/>
<polygon fill="none" stroke="#000000" points="213.5,-425.2 213.5,-447.2 322.5,-447.2 322.5,-425.2 213.5,-425.2"/>
<image xlink:href="../../images/foreignKeys.png" width="11px" height="12px" preserveAspectRatio="xMinYMin meet" x="218.5" y="-442.2"/>
<text text-anchor="start" x="233.5" y="-432.3" font-family="Helvetica,sans-Serif" font-size="11.00" fill="#000000">summary_id</text>
<polygon fill="none" stroke="#000000" points="213.5,-403.2 213.5,-425.2 322.5,-425.2 322.5,-403.2 213.5,-403.2"/>
<text text-anchor="start" x="233.5" y="-410.3" font-family="Helvetica,sans-Serif" font-size="11.00" fill="#000000">title</text>
<polygon fill="none" stroke="#000000" points="213.5,-381.2 213.5,-403.2 322.5,-403.2 322.5,-381.2 213.5,-381.2"/>
<text text-anchor="start" x="233.5" y="-388.3" font-family="Helvetica,sans-Serif" font-size="11.00" fill="#000000">summary</text>
<polygon fill="#ffffff" stroke="transparent" points="213.5,-362.2 213.5,-381.2 322.5,-381.2 322.5,-362.2 213.5,-362.2"/>
<polygon fill="none" stroke="#000000" points="213.5,-362.2 213.5,-381.2 322.5,-381.2 322.5,-362.2 213.5,-362.2"/>
<polygon fill="#ffffff" stroke="transparent" points="214.5,-363.2 214.5,-380.2 256.5,-380.2 256.5,-363.2 214.5,-363.2"/>
<text text-anchor="start" x="216.5" y="-368.3" font-family="Helvetica,sans-Serif" font-size="11.00" fill="#000000">&lt; 1</text>
<polygon fill="#ffffff" stroke="transparent" points="256.5,-363.2 256.5,-380.2 289.5,-380.2 289.5,-363.2 256.5,-363.2"/>
<text text-anchor="start" x="269.9431" y="-368.3" font-family="Helvetica,sans-Serif" font-size="11.00" fill="#000000"> &#160;</text>
<polygon fill="#ffffff" stroke="transparent" points="289.5,-363.2 289.5,-380.2 321.5,-380.2 321.5,-363.2 289.5,-363.2"/>
<text text-anchor="start" x="313.3862" y="-368.3" font-family="Helvetica,sans-Serif" font-size="11.00" fill="#000000"> &#160;</text>
<polygon fill="#000000" stroke="#000000" points="256.5,-363.2 256.5,-380.2 256.5,-380.2 256.5,-363.2 256.5,-363.2"/>
<polygon fill="#000000" stroke="#000000" points="289.5,-363.2 289.5,-380.2 289.5,-380.2 289.5,-363.2 289.5,-363.2"/>
</a>
</g>
</g>
<!-- summaries -->
<g id="node3" class="node">
<title>summaries</title>
<g id="a_node3"><a xlink:href="../../tables/summaries.html" xlink:title="summaries" target="_top">
<polygon fill="#ffffff" stroke="transparent" points="8,-167.2 8,-319.2 153,-319.2 153,-167.2 8,-167.2"/>
<polygon fill="#f5f5f5" stroke="transparent" points="8.5,-296.2 8.5,-319.2 153.5,-319.2 153.5,-296.2 8.5,-296.2"/>
<polygon fill="none" stroke="#000000" points="8.5,-296.2 8.5,-319.2 153.5,-319.2 153.5,-296.2 8.5,-296.2"/>
<text text-anchor="start" x="13.5" y="-304.8" font-family="Helvetica,sans-Serif" font-weight="bold" font-size="11.00" fill="#000000">summaries</text>
<text text-anchor="start" x="118.5437" y="-304.3" font-family="Helvetica,sans-Serif" font-size="11.00" fill="#000000">[table]</text>
<polygon fill="none" stroke="#000000" points="8.5,-274.2 8.5,-296.2 153.5,-296.2 153.5,-274.2 8.5,-274.2"/>
<image xlink:href="../../images/primaryKeys.png" width="11px" height="12px" preserveAspectRatio="xMinYMin meet" x="13.5" y="-291.2"/>
<text text-anchor="start" x="28.5" y="-281.3" font-family="Helvetica,sans-Serif" font-size="11.00" fill="#000000">id</text>
<polygon fill="none" stroke="#000000" points="8.5,-252.2 8.5,-274.2 153.5,-274.2 153.5,-252.2 8.5,-252.2"/>
<text text-anchor="start" x="28.5" y="-259.3" font-family="Helvetica,sans-Serif" font-size="11.00" fill="#000000">filename</text>
<polygon fill="none" stroke="#000000" points="8.5,-230.2 8.5,-252.2 153.5,-252.2 153.5,-230.2 8.5,-230.2"/>
<text text-anchor="start" x="28.5" y="-237.3" font-family="Helvetica,sans-Serif" font-size="11.00" fill="#000000">created_at</text>
<polygon fill="none" stroke="#000000" points="8.5,-208.2 8.5,-230.2 153.5,-230.2 153.5,-208.2 8.5,-208.2"/>
<text text-anchor="start" x="28.5" y="-215.3" font-family="Helvetica,sans-Serif" font-size="11.00" fill="#000000">overall_summary</text>
<polygon fill="#ffffff" stroke="transparent" points="8.5,-186.2 8.5,-208.2 153.5,-208.2 153.5,-186.2 8.5,-186.2"/>
<polygon fill="none" stroke="#000000" points="8.5,-186.2 8.5,-208.2 153.5,-208.2 153.5,-186.2 8.5,-186.2"/>
<text text-anchor="start" x="28.5" y="-193.3" font-family="Helvetica,sans-Serif" font-size="11.00" fill="#000000">content_hash</text>
<polygon fill="#ffffff" stroke="transparent" points="8.5,-167.2 8.5,-186.2 153.5,-186.2 153.5,-167.2 8.5,-167.2"/>
<polygon fill="none" stroke="#000000" points="8.5,-167.2 8.5,-186.2 153.5,-186.2 153.5,-167.2 8.5,-167.2"/>
<polygon fill="#ffffff" stroke="transparent" points="9.5,-168.2 9.5,-185.2 54.5,-185.2 54.5,-168.2 9.5,-168.2"/>
<text text-anchor="start" x="11.5" y="-173.3" font-family="Helvetica,sans-Serif" font-size="11.00" fill="#000000"> &#160;</text>
<polygon fill="#ffffff" stroke="transparent" points="54.5,-168.2 54.5,-185.2 99.5,-185.2 99.5,-168.2 54.5,-168.2"/>
<text text-anchor="start" x="73.9431" y="-173.3" font-family="Helvetica,sans-Serif" font-size="11.00" fill="#000000"> &#160;</text>
<polygon fill="#ffffff" stroke="transparent" points="99.5,-168.2 99.5,-185.2 152.5,-185.2 152.5,-168.2 99.5,-168.2"/>
<text text-anchor="start" x="134.9053" y="-173.3" font-family="Helvetica,sans-Serif" font-size="11.00" fill="#000000">3 &gt;</text>
<polygon fill="#000000" stroke="#000000" points="54.5,-168.2 54.5,-185.2 54.5,-185.2 54.5,-168.2 54.5,-168.2"/>
<polygon fill="#000000" stroke="#000000" points="99.5,-168.2 99.5,-185.2 99.5,-185.2 99.5,-168.2 99.5,-168.2"/>
</a>
</g>
</g>
<!-- topics&#45;&gt;summaries -->
<g id="edge3" class="edge">
<title>topics:w&#45;&gt;summaries:e</title>
<path fill="none" stroke="#000000" d="M199.2935,-433.5791C153.5211,-413.5279 220.0732,-285.2 153.5,-285.2"/>
<polygon fill="#000000" stroke="#000000" points="205.6328,-434.7486 212.8469,-439.7403 209.5664,-435.4743 213.5,-436.2 213.5,-436.2 213.5,-436.2 209.5664,-435.4743 214.1531,-432.6597 205.6328,-434.7486 205.6328,-434.7486"/>
<ellipse fill="none" stroke="#000000" cx="202.4859" cy="-434.168" rx="3.2" ry="3.2"/>
</g>
<!-- decisions -->
<g id="node2" class="node">
<title>decisions</title>
<g id="a_node2"><a xlink:href="../../tables/decisions.html" xlink:title="decisions" target="_top">
<polygon fill="#ffffff" stroke="transparent" points="213,-211.2 213,-341.2 322,-341.2 322,-211.2 213,-211.2"/>
<polygon fill="#f5f5f5" stroke="transparent" points="213.5,-318.2 213.5,-341.2 322.5,-341.2 322.5,-318.2 213.5,-318.2"/>
<polygon fill="none" stroke="#000000" points="213.5,-318.2 213.5,-341.2 322.5,-341.2 322.5,-318.2 213.5,-318.2"/>
<text text-anchor="start" x="218.5" y="-326.8" font-family="Helvetica,sans-Serif" font-weight="bold" font-size="11.00" fill="#000000">decisions</text>
<text text-anchor="start" x="287.5437" y="-326.3" font-family="Helvetica,sans-Serif" font-size="11.00" fill="#000000">[table]</text>
<polygon fill="none" stroke="#000000" points="213.5,-296.2 213.5,-318.2 322.5,-318.2 322.5,-296.2 213.5,-296.2"/>
<image xlink:href="../../images/primaryKeys.png" width="11px" height="12px" preserveAspectRatio="xMinYMin meet" x="218.5" y="-313.2"/>
<text text-anchor="start" x="233.5" y="-303.3" font-family="Helvetica,sans-Serif" font-size="11.00" fill="#000000">id</text>
<polygon fill="#ffffff" stroke="transparent" points="213.5,-274.2 213.5,-296.2 322.5,-296.2 322.5,-274.2 213.5,-274.2"/>
<polygon fill="none" stroke="#000000" points="213.5,-274.2 213.5,-296.2 322.5,-296.2 322.5,-274.2 213.5,-274.2"/>
<image xlink:href="../../images/foreignKeys.png" width="11px" height="12px" preserveAspectRatio="xMinYMin meet" x="218.5" y="-291.2"/>
<text text-anchor="start" x="233.5" y="-281.3" font-family="Helvetica,sans-Serif" font-size="11.00" fill="#000000">summary_id</text>
<polygon fill="none" stroke="#000000" points="213.5,-252.2 213.5,-274.2 322.5,-274.2 322.5,-252.2 213.5,-252.2"/>
<text text-anchor="start" x="233.5" y="-259.3" font-family="Helvetica,sans-Serif" font-size="11.00" fill="#000000">description</text>
<polygon fill="none" stroke="#000000" points="213.5,-230.2 213.5,-252.2 322.5,-252.2 322.5,-230.2 213.5,-230.2"/>
<text text-anchor="start" x="233.5" y="-237.3" font-family="Helvetica,sans-Serif" font-size="11.00" fill="#000000">decided_by</text>
<polygon fill="#ffffff" stroke="transparent" points="213.5,-211.2 213.5,-230.2 322.5,-230.2 322.5,-211.2 213.5,-211.2"/>
<polygon fill="none" stroke="#000000" points="213.5,-211.2 213.5,-230.2 322.5,-230.2 322.5,-211.2 213.5,-211.2"/>
<polygon fill="#ffffff" stroke="transparent" points="214.5,-212.2 214.5,-229.2 256.5,-229.2 256.5,-212.2 214.5,-212.2"/>
<text text-anchor="start" x="216.5" y="-217.3" font-family="Helvetica,sans-Serif" font-size="11.00" fill="#000000">&lt; 1</text>
<polygon fill="#ffffff" stroke="transparent" points="256.5,-212.2 256.5,-229.2 289.5,-229.2 289.5,-212.2 256.5,-212.2"/>
<text text-anchor="start" x="269.9431" y="-217.3" font-family="Helvetica,sans-Serif" font-size="11.00" fill="#000000"> &#160;</text>
<polygon fill="#ffffff" stroke="transparent" points="289.5,-212.2 289.5,-229.2 321.5,-229.2 321.5,-212.2 289.5,-212.2"/>
<text text-anchor="start" x="313.3862" y="-217.3" font-family="Helvetica,sans-Serif" font-size="11.00" fill="#000000"> &#160;</text>
<polygon fill="#000000" stroke="#000000" points="256.5,-212.2 256.5,-229.2 256.5,-229.2 256.5,-212.2 256.5,-212.2"/>
<polygon fill="#000000" stroke="#000000" points="289.5,-212.2 289.5,-229.2 289.5,-229.2 289.5,-212.2 289.5,-212.2"/>
</a>
</g>
</g>
<!-- decisions&#45;&gt;summaries -->
<g id="edge2" class="edge">
<title>decisions:w&#45;&gt;summaries:e</title>
<path fill="none" stroke="#000000" d="M198.9193,-285.2C183.1309,-285.2 174.5417,-285.2 153.5,-285.2"/>
<polygon fill="#000000" stroke="#000000" points="205.5,-285.2001 213.5,-288.8 209.5,-285.2 213.5,-285.2 213.5,-285.2 213.5,-285.2 209.5,-285.2 213.5,-281.6 205.5,-285.2001 205.5,-285.2001"/>
<ellipse fill="none" stroke="#000000" cx="202.3" cy="-285.2001" rx="3.2" ry="3.2"/>
</g>
<!-- action_items -->
<g id="node4" class="node">
<title>action_items</title>
<g id="a_node4"><a xlink:href="../../tables/action_items.html" xlink:title="action_items" target="_top">
<polygon fill="#ffffff" stroke="transparent" points="202,-38.2 202,-190.2 333,-190.2 333,-38.2 202,-38.2"/>
<polygon fill="#f5f5f5" stroke="transparent" points="202.5,-167.2 202.5,-190.2 333.5,-190.2 333.5,-167.2 202.5,-167.2"/>
<polygon fill="none" stroke="#000000" points="202.5,-167.2 202.5,-190.2 333.5,-190.2 333.5,-167.2 202.5,-167.2"/>
<text text-anchor="start" x="207.5" y="-175.8" font-family="Helvetica,sans-Serif" font-weight="bold" font-size="11.00" fill="#000000">action_items</text>
<text text-anchor="start" x="299.0219" y="-175.3" font-family="Helvetica,sans-Serif" font-size="11.00" fill="#000000">[table]</text>
<polygon fill="none" stroke="#000000" points="202.5,-145.2 202.5,-167.2 333.5,-167.2 333.5,-145.2 202.5,-145.2"/>
<image xlink:href="../../images/primaryKeys.png" width="11px" height="12px" preserveAspectRatio="xMinYMin meet" x="207.5" y="-162.2"/>
<text text-anchor="start" x="231.5" y="-152.3" font-family="Helvetica,sans-Serif" font-size="11.00" fill="#000000">id</text>
<polygon fill="#ffffff" stroke="transparent" points="202.5,-123.2 202.5,-145.2 333.5,-145.2 333.5,-123.2 202.5,-123.2"/>
<polygon fill="none" stroke="#000000" points="202.5,-123.2 202.5,-145.2 333.5,-145.2 333.5,-123.2 202.5,-123.2"/>
<image xlink:href="../../images/foreignKeys.png" width="11px" height="12px" preserveAspectRatio="xMinYMin meet" x="207.5" y="-140.2"/>
<text text-anchor="start" x="231.5" y="-130.3" font-family="Helvetica,sans-Serif" font-size="11.00" fill="#000000">summary_id</text>
<polygon fill="none" stroke="#000000" points="202.5,-101.2 202.5,-123.2 333.5,-123.2 333.5,-101.2 202.5,-101.2"/>
<text text-anchor="start" x="231.5" y="-108.3" font-family="Helvetica,sans-Serif" font-size="11.00" fill="#000000">description</text>
<polygon fill="none" stroke="#000000" points="202.5,-79.2 202.5,-101.2 333.5,-101.2 333.5,-79.2 202.5,-79.2"/>
<text text-anchor="start" x="231.5" y="-86.3" font-family="Helvetica,sans-Serif" font-size="11.00" fill="#000000">assignee</text>
<polygon fill="none" stroke="#000000" points="202.5,-57.2 202.5,-79.2 333.5,-79.2 333.5,-57.2 202.5,-57.2"/>
<text text-anchor="start" x="231.5" y="-64.3" font-family="Helvetica,sans-Serif" font-size="11.00" fill="#000000">due_date</text>
<polygon fill="#ffffff" stroke="transparent" points="202.5,-38.2 202.5,-57.2 333.5,-57.2 333.5,-38.2 202.5,-38.2"/>
<polygon fill="none" stroke="#000000" points="202.5,-38.2 202.5,-57.2 333.5,-57.2 333.5,-38.2 202.5,-38.2"/>
<polygon fill="#ffffff" stroke="transparent" points="203.5,-39.2 203.5,-56.2 252.5,-56.2 252.5,-39.2 203.5,-39.2"/>
<text text-anchor="start" x="205.5" y="-44.3" font-family="Helvetica,sans-Serif" font-size="11.00" fill="#000000">&lt; 1</text>
<polygon fill="#ffffff" stroke="transparent" points="252.5,-39.2 252.5,-56.2 292.5,-56.2 292.5,-39.2 252.5,-39.2"/>
<text text-anchor="start" x="269.4431" y="-44.3" font-family="Helvetica,sans-Serif" font-size="11.00" fill="#000000"> &#160;</text>
<polygon fill="#ffffff" stroke="transparent" points="292.5,-39.2 292.5,-56.2 332.5,-56.2 332.5,-39.2 292.5,-39.2"/>
<text text-anchor="start" x="324.3862" y="-44.3" font-family="Helvetica,sans-Serif" font-size="11.00" fill="#000000"> &#160;</text>
<polygon fill="#000000" stroke="#000000" points="252.5,-39.2 252.5,-56.2 252.5,-56.2 252.5,-39.2 252.5,-39.2"/>
<polygon fill="#000000" stroke="#000000" points="292.5,-39.2 292.5,-56.2 292.5,-56.2 292.5,-39.2 292.5,-39.2"/>
</a>
</g>
</g>
<!-- action_items&#45;&gt;summaries -->
<g id="edge1" class="edge">
<title>action_items:w&#45;&gt;summaries:e</title>
<path fill="none" stroke="#000000" d="M188.2408,-137.0816C145.9614,-157.9573 218.2684,-285.2 153.5,-285.2"/>
<polygon fill="#000000" stroke="#000000" points="194.6585,-135.7847 203.2131,-137.7287 198.5793,-134.9924 202.5,-134.2 202.5,-134.2 202.5,-134.2 198.5793,-134.9924 201.7869,-130.6713 194.6585,-135.7847 194.6585,-135.7847"/>
<ellipse fill="none" stroke="#000000" cx="191.5219" cy="-136.4186" rx="3.2" ry="3.2"/>
</g>
<!-- alembic_version -->
<g id="node5" class="node">
<title>alembic_version</title>
<g id="a_node5"><a xlink:href="../../tables/alembic_version.html" xlink:title="alembic_version" target="_top">
<polygon fill="#ffffff" stroke="transparent" points="404,-500.2 404,-564.2 560,-564.2 560,-500.2 404,-500.2"/>
<polygon fill="#f5f5f5" stroke="transparent" points="404,-541.2 404,-564.2 560,-564.2 560,-541.2 404,-541.2"/>
<polygon fill="none" stroke="#000000" points="404,-541.2 404,-564.2 560,-564.2 560,-541.2 404,-541.2"/>
<text text-anchor="start" x="409" y="-549.8" font-family="Helvetica,sans-Serif" font-weight="bold" font-size="11.00" fill="#000000">alembic_version</text>
<text text-anchor="start" x="525.5219" y="-549.3" font-family="Helvetica,sans-Serif" font-size="11.00" fill="#000000">[table]</text>
<polygon fill="none" stroke="#000000" points="404,-519.2 404,-541.2 560,-541.2 560,-519.2 404,-519.2"/>
<image xlink:href="../../images/primaryKeys.png" width="11px" height="12px" preserveAspectRatio="xMinYMin meet" x="409" y="-536.2"/>
<text text-anchor="start" x="433" y="-526.3" font-family="Helvetica,sans-Serif" font-size="11.00" fill="#000000">version_num</text>
<polygon fill="#ffffff" stroke="transparent" points="404,-500.2 404,-519.2 560,-519.2 560,-500.2 404,-500.2"/>
<polygon fill="none" stroke="#000000" points="404,-500.2 404,-519.2 560,-519.2 560,-500.2 404,-500.2"/>
<polygon fill="#ffffff" stroke="transparent" points="405,-501.2 405,-518.2 457,-518.2 457,-501.2 405,-501.2"/>
<text text-anchor="start" x="407" y="-506.3" font-family="Helvetica,sans-Serif" font-size="11.00" fill="#000000"> &#160;</text>
<polygon fill="#ffffff" stroke="transparent" points="457,-501.2 457,-518.2 508,-518.2 508,-501.2 457,-501.2"/>
<text text-anchor="start" x="479.4431" y="-506.3" font-family="Helvetica,sans-Serif" font-size="11.00" fill="#000000"> &#160;</text>
<polygon fill="#ffffff" stroke="transparent" points="508,-501.2 508,-518.2 559,-518.2 559,-501.2 508,-501.2"/>
<text text-anchor="start" x="550.8862" y="-506.3" font-family="Helvetica,sans-Serif" font-size="11.00" fill="#000000"> &#160;</text>
<polygon fill="#000000" stroke="#000000" points="457,-501.2 457,-518.2 457,-518.2 457,-501.2 457,-501.2"/>
<polygon fill="#000000" stroke="#000000" points="508,-501.2 508,-518.2 508,-518.2 508,-501.2 508,-501.2"/>
</a>
</g>
</g>
</g>
</svg>
