<?xml version="1.0" encoding="UTF-8" standalone="no"?>
<!DOCTYPE svg PUBLIC "-//W3C//DTD SVG 1.1//EN"
 "http://www.w3.org/Graphics/SVG/1.1/DTD/svg11.dtd">
<!-- Generated by graphviz version 2.40.1 (20161225.0304)
 -->
<!-- Title: oneDegreeRelationshipsDiagram Pages: 1 -->
<svg width="444pt" height="223pt"
 viewBox="0.00 0.00 444.00 222.70" xmlns="http://www.w3.org/2000/svg" xmlns:xlink="http://www.w3.org/1999/xlink">
<g id="graph0" class="graph" transform="scale(1 1) rotate(0) translate(4 218.7)">
<title>oneDegreeRelationshipsDiagram</title>
<polygon fill="#ffffff" stroke="transparent" points="-4,4 -4,-218.7 440,-218.7 440,4 -4,4"/>
<text text-anchor="middle" x="72.4936" y="-7.3" font-family="Helvetica,sans-Serif" font-size="11.00" fill="#000000">Generated by SchemaSpy</text>
<!-- action_items -->
<g id="node1" class="node">
<title>action_items</title>
<g id="a_node1"><a xlink:href="../../tables/action_items.html" xlink:title="action_items" target="_top">
<polygon fill="#ffffff" stroke="transparent" points="202,-54.7 202,-210.7 428,-210.7 428,-54.7 202,-54.7"/>
<polygon fill="#f5f5f5" stroke="transparent" points="204,-185.7 204,-208.7 426,-208.7 426,-185.7 204,-185.7"/>
<polygon fill="none" stroke="#000000" points="204,-185.7 204,-208.7 426,-208.7 426,-185.7 204,-185.7"/>
<text text-anchor="start" x="209" y="-194.3" font-family="Helvetica,sans-Serif" font-weight="bold" font-size="11.00" fill="#000000">action_items</text>
<text text-anchor="start" x="391.0437" y="-193.8" font-family="Helvetica,sans-Serif" font-size="11.00" fill="#000000">[table]</text>
<polygon fill="none" stroke="#000000" points="204,-163.7 204,-185.7 317,-185.7 317,-163.7 204,-163.7"/>
<image xlink:href="../../images/primaryKeys.png" width="11px" height="12px" preserveAspectRatio="xMinYMin meet" x="209" y="-180.7"/>
<text text-anchor="start" x="224" y="-170.8" font-family="Helvetica,sans-Serif" font-size="11.00" fill="#000000">id</text>
<polygon fill="none" stroke="#000000" points="317,-163.7 317,-185.7 426,-185.7 426,-163.7 317,-163.7"/>
<text text-anchor="start" x="320" y="-171.4" font-family="Helvetica,sans-Serif" font-size="11.00" fill="#000000">serial[10]</text>
<polygon fill="#ffffff" stroke="transparent" points="204,-141.7 204,-163.7 317,-163.7 317,-141.7 204,-141.7"/>
<polygon fill="none" stroke="#000000" points="204,-141.7 204,-163.7 317,-163.7 317,-141.7 204,-141.7"/>
<image xlink:href="../../images/foreignKeys.png" width="11px" height="12px" preserveAspectRatio="xMinYMin meet" x="209" y="-158.7"/>
<text text-anchor="start" x="224" y="-148.8" font-family="Helvetica,sans-Serif" font-size="11.00" fill="#000000">summary_id</text>
<polygon fill="none" stroke="#000000" points="317,-141.7 317,-163.7 426,-163.7 426,-141.7 317,-141.7"/>
<text text-anchor="start" x="320" y="-149.4" font-family="Helvetica,sans-Serif" font-size="11.00" fill="#000000">uuid[2147483647]</text>
<polygon fill="none" stroke="#000000" points="204,-119.7 204,-141.7 317,-141.7 317,-119.7 204,-119.7"/>
<text text-anchor="start" x="224" y="-126.8" font-family="Helvetica,sans-Serif" font-size="11.00" fill="#000000">description</text>
<polygon fill="none" stroke="#000000" points="317,-119.7 317,-141.7 426,-141.7 426,-119.7 317,-119.7"/>
<text text-anchor="start" x="319.5344" y="-127.4" font-family="Helvetica,sans-Serif" font-size="11.00" fill="#000000">varchar[2147483647]</text>
<polygon fill="none" stroke="#000000" points="204,-97.7 204,-119.7 317,-119.7 317,-97.7 204,-97.7"/>
<text text-anchor="start" x="224" y="-104.8" font-family="Helvetica,sans-Serif" font-size="11.00" fill="#000000">assignee</text>
<polygon fill="none" stroke="#000000" points="317,-97.7 317,-119.7 426,-119.7 426,-97.7 317,-97.7"/>
<text text-anchor="start" x="319.5344" y="-105.4" font-family="Helvetica,sans-Serif" font-size="11.00" fill="#000000">varchar[2147483647]</text>
<polygon fill="none" stroke="#000000" points="204,-75.7 204,-97.7 317,-97.7 317,-75.7 204,-75.7"/>
<text text-anchor="start" x="224" y="-82.8" font-family="Helvetica,sans-Serif" font-size="11.00" fill="#000000">due_date</text>
<polygon fill="none" stroke="#000000" points="317,-75.7 317,-97.7 426,-97.7 426,-75.7 317,-75.7"/>
<text text-anchor="start" x="320" y="-83.4" font-family="Helvetica,sans-Serif" font-size="11.00" fill="#000000">date[13]</text>
<polygon fill="#ffffff" stroke="transparent" points="204,-56.7 204,-75.7 426,-75.7 426,-56.7 204,-56.7"/>
<polygon fill="none" stroke="#000000" points="204,-56.7 204,-75.7 426,-75.7 426,-56.7 204,-56.7"/>
<polygon fill="#ffffff" stroke="transparent" points="205,-57.7 205,-74.7 282,-74.7 282,-57.7 205,-57.7"/>
<text text-anchor="start" x="207" y="-62.8" font-family="Helvetica,sans-Serif" font-size="11.00" fill="#000000">&lt; 1</text>
<polygon fill="#ffffff" stroke="transparent" points="282,-57.7 282,-74.7 349,-74.7 349,-57.7 282,-57.7"/>
<text text-anchor="start" x="312.4431" y="-62.8" font-family="Helvetica,sans-Serif" font-size="11.00" fill="#000000"> &#160;</text>
<polygon fill="#ffffff" stroke="transparent" points="349,-57.7 349,-74.7 425,-74.7 425,-57.7 349,-57.7"/>
<text text-anchor="start" x="407.4053" y="-62.8" font-family="Helvetica,sans-Serif" font-size="11.00" fill="#000000">0 &gt;</text>
<polygon fill="#000000" stroke="#000000" points="282,-57.7 282,-74.7 282,-74.7 282,-57.7 282,-57.7"/>
<polygon fill="#000000" stroke="#000000" points="349,-57.7 349,-74.7 349,-74.7 349,-57.7 349,-57.7"/>
<polygon fill="none" stroke="#000000" stroke-width="2" points="203,-55.7 203,-209.7 427,-209.7 427,-55.7 203,-55.7"/>
</a>
</g>
</g>
<!-- summaries -->
<g id="node2" class="node">
<title>summaries</title>
<g id="a_node2"><a xlink:href="../../tables/summaries.html" xlink:title="summaries" target="_top">
<polygon fill="#ffffff" stroke="transparent" points="8,-38.2 8,-187.2 153,-187.2 153,-38.2 8,-38.2"/>
<polygon fill="#f5f5f5" stroke="transparent" points="8.5,-163.7 8.5,-186.7 153.5,-186.7 153.5,-163.7 8.5,-163.7"/>
<polygon fill="none" stroke="#000000" points="8.5,-163.7 8.5,-186.7 153.5,-186.7 153.5,-163.7 8.5,-163.7"/>
<text text-anchor="start" x="13.5" y="-172.3" font-family="Helvetica,sans-Serif" font-weight="bold" font-size="11.00" fill="#000000">summaries</text>
<text text-anchor="start" x="118.5437" y="-171.8" font-family="Helvetica,sans-Serif" font-size="11.00" fill="#000000">[table]</text>
<polygon fill="none" stroke="#000000" points="8.5,-141.7 8.5,-163.7 153.5,-163.7 153.5,-141.7 8.5,-141.7"/>
<image xlink:href="../../images/primaryKeys.png" width="11px" height="12px" preserveAspectRatio="xMinYMin meet" x="13.5" y="-158.7"/>
<text text-anchor="start" x="28.5" y="-148.8" font-family="Helvetica,sans-Serif" font-size="11.00" fill="#000000">id</text>
<polygon fill="#ffffff" stroke="transparent" points="8.5,-119.7 8.5,-141.7 153.5,-141.7 153.5,-119.7 8.5,-119.7"/>
<polygon fill="none" stroke="#000000" points="8.5,-119.7 8.5,-141.7 153.5,-141.7 153.5,-119.7 8.5,-119.7"/>
<text text-anchor="start" x="28.5" y="-126.8" font-family="Helvetica,sans-Serif" font-size="11.00" fill="#000000">content_hash</text>
<polygon fill="#ffffff" stroke="transparent" points="8.5,-97.7 8.5,-119.7 153.5,-119.7 153.5,-97.7 8.5,-97.7"/>
<polygon fill="none" stroke="#000000" points="8.5,-97.7 8.5,-119.7 153.5,-119.7 153.5,-97.7 8.5,-97.7"/>
<image xlink:href="../../images/foreignKeys.png" width="11px" height="12px" preserveAspectRatio="xMinYMin meet" x="13.5" y="-114.7"/>
<text text-anchor="start" x="28.5" y="-104.8" font-family="Helvetica,sans-Serif" font-size="11.00" fill="#000000">user_id</text>
<polygon fill="#ffffff" stroke="transparent" points="8.5,-75.7 8.5,-97.7 153.5,-97.7 153.5,-75.7 8.5,-75.7"/>
<polygon fill="none" stroke="#000000" points="8.5,-75.7 8.5,-97.7 153.5,-97.7 153.5,-75.7 8.5,-75.7"/>
<image xlink:href="../../images/foreignKeys.png" width="11px" height="12px" preserveAspectRatio="xMinYMin meet" x="13.5" y="-92.7"/>
<text text-anchor="start" x="28.5" y="-82.8" font-family="Helvetica,sans-Serif" font-size="11.00" fill="#000000">group_id</text>
<polygon fill="none" stroke="#000000" points="8.5,-56.7 8.5,-75.7 153.5,-75.7 153.5,-56.7 8.5,-56.7"/>
<text text-anchor="start" x="11.5" y="-62.8" font-family="Helvetica,sans-Serif" font-size="11.00" fill="#000000">...</text>
<polygon fill="#ffffff" stroke="transparent" points="8.5,-37.7 8.5,-56.7 153.5,-56.7 153.5,-37.7 8.5,-37.7"/>
<polygon fill="none" stroke="#000000" points="8.5,-37.7 8.5,-56.7 153.5,-56.7 153.5,-37.7 8.5,-37.7"/>
<polygon fill="#ffffff" stroke="transparent" points="9.5,-38.7 9.5,-55.7 60.5,-55.7 60.5,-38.7 9.5,-38.7"/>
<text text-anchor="start" x="11.5" y="-43.8" font-family="Helvetica,sans-Serif" font-size="11.00" fill="#000000">&lt; 2</text>
<polygon fill="#ffffff" stroke="transparent" points="60.5,-38.7 60.5,-55.7 102.5,-55.7 102.5,-38.7 60.5,-38.7"/>
<text text-anchor="start" x="78.4431" y="-43.8" font-family="Helvetica,sans-Serif" font-size="11.00" fill="#000000"> &#160;</text>
<polygon fill="#ffffff" stroke="transparent" points="102.5,-38.7 102.5,-55.7 152.5,-55.7 152.5,-38.7 102.5,-38.7"/>
<text text-anchor="start" x="134.9053" y="-43.8" font-family="Helvetica,sans-Serif" font-size="11.00" fill="#000000">4 &gt;</text>
<polygon fill="#000000" stroke="#000000" points="60.5,-38.7 60.5,-55.7 60.5,-55.7 60.5,-38.7 60.5,-38.7"/>
<polygon fill="#000000" stroke="#000000" points="102.5,-38.7 102.5,-55.7 102.5,-55.7 102.5,-38.7 102.5,-38.7"/>
</a>
</g>
</g>
<!-- action_items&#45;&gt;summaries -->
<g id="edge1" class="edge">
<title>action_items:w&#45;&gt;summaries:e</title>
<path fill="none" stroke="#000000" d="M189.4203,-152.7C177.5435,-152.7 170.158,-152.7 153.5,-152.7"/>
<polygon fill="#000000" stroke="#000000" points="196,-152.7001 204,-156.3 200,-152.7 204,-152.7 204,-152.7 204,-152.7 200,-152.7 204,-149.1 196,-152.7001 196,-152.7001"/>
<ellipse fill="none" stroke="#000000" cx="192.8" cy="-152.7001" rx="3.2" ry="3.2"/>
</g>
</g>
</svg>
