<?xml version="1.0" encoding="UTF-8" standalone="no"?>
<!DOCTYPE svg PUBLIC "-//W3C//DTD SVG 1.1//EN"
 "http://www.w3.org/Graphics/SVG/1.1/DTD/svg11.dtd">
<!-- Generated by graphviz version 2.40.1 (20161225.0304)
 -->
<!-- Title: twoDegreesRelationshipsDiagram Pages: 1 -->
<svg width="581pt" height="420pt"
 viewBox="0.00 0.00 581.00 419.70" xmlns="http://www.w3.org/2000/svg" xmlns:xlink="http://www.w3.org/1999/xlink">
<g id="graph0" class="graph" transform="scale(1 1) rotate(0) translate(4 415.7)">
<title>twoDegreesRelationshipsDiagram</title>
<polygon fill="#ffffff" stroke="transparent" points="-4,4 -4,-415.7 577,-415.7 577,4 -4,4"/>
<text text-anchor="middle" x="72.4936" y="-7.3" font-family="Helvetica,sans-Serif" font-size="11.00" fill="#000000">Generated by SchemaSpy</text>
<!-- oauth_identities -->
<g id="node1" class="node">
<title>oauth_identities</title>
<g id="a_node1"><a xlink:href="../../tables/oauth_identities.html" xlink:title="oauth_identities" target="_top">
<polygon fill="#ffffff" stroke="transparent" points="160,-229.7 160,-407.7 397,-407.7 397,-229.7 160,-229.7"/>
<polygon fill="#f5f5f5" stroke="transparent" points="162.5,-382.7 162.5,-405.7 395.5,-405.7 395.5,-382.7 162.5,-382.7"/>
<polygon fill="none" stroke="#000000" points="162.5,-382.7 162.5,-405.7 395.5,-405.7 395.5,-382.7 162.5,-382.7"/>
<text text-anchor="start" x="167.5" y="-391.3" font-family="Helvetica,sans-Serif" font-weight="bold" font-size="11.00" fill="#000000">oauth_identities</text>
<text text-anchor="start" x="360.5437" y="-390.8" font-family="Helvetica,sans-Serif" font-size="11.00" fill="#000000">[table]</text>
<polygon fill="none" stroke="#000000" points="162.5,-360.7 162.5,-382.7 301.5,-382.7 301.5,-360.7 162.5,-360.7"/>
<image xlink:href="../../images/primaryKeys.png" width="11px" height="12px" preserveAspectRatio="xMinYMin meet" x="167.5" y="-377.7"/>
<text text-anchor="start" x="182.5" y="-367.8" font-family="Helvetica,sans-Serif" font-size="11.00" fill="#000000">id</text>
<polygon fill="none" stroke="#000000" points="301.5,-360.7 301.5,-382.7 395.5,-382.7 395.5,-360.7 301.5,-360.7"/>
<text text-anchor="start" x="304.4758" y="-368.4" font-family="Helvetica,sans-Serif" font-size="11.00" fill="#000000">uuid[2147483647]</text>
<polygon fill="#ffffff" stroke="transparent" points="162.5,-338.7 162.5,-360.7 301.5,-360.7 301.5,-338.7 162.5,-338.7"/>
<polygon fill="none" stroke="#000000" points="162.5,-338.7 162.5,-360.7 301.5,-360.7 301.5,-338.7 162.5,-338.7"/>
<image xlink:href="../../images/foreignKeys.png" width="11px" height="12px" preserveAspectRatio="xMinYMin meet" x="167.5" y="-355.7"/>
<text text-anchor="start" x="182.5" y="-345.8" font-family="Helvetica,sans-Serif" font-size="11.00" fill="#000000">user_id</text>
<polygon fill="none" stroke="#000000" points="301.5,-338.7 301.5,-360.7 395.5,-360.7 395.5,-338.7 301.5,-338.7"/>
<text text-anchor="start" x="304.4758" y="-346.4" font-family="Helvetica,sans-Serif" font-size="11.00" fill="#000000">uuid[2147483647]</text>
<polygon fill="#ffffff" stroke="transparent" points="162.5,-316.7 162.5,-338.7 301.5,-338.7 301.5,-316.7 162.5,-316.7"/>
<polygon fill="none" stroke="#000000" points="162.5,-316.7 162.5,-338.7 301.5,-338.7 301.5,-316.7 162.5,-316.7"/>
<text text-anchor="start" x="182.5" y="-323.8" font-family="Helvetica,sans-Serif" font-size="11.00" fill="#000000">provider</text>
<polygon fill="none" stroke="#000000" points="301.5,-316.7 301.5,-338.7 395.5,-338.7 395.5,-316.7 301.5,-316.7"/>
<text text-anchor="start" x="304.5" y="-324.4" font-family="Helvetica,sans-Serif" font-size="11.00" fill="#000000">varchar[50]</text>
<polygon fill="#ffffff" stroke="transparent" points="162.5,-294.7 162.5,-316.7 301.5,-316.7 301.5,-294.7 162.5,-294.7"/>
<polygon fill="none" stroke="#000000" points="162.5,-294.7 162.5,-316.7 301.5,-316.7 301.5,-294.7 162.5,-294.7"/>
<text text-anchor="start" x="182.5" y="-301.8" font-family="Helvetica,sans-Serif" font-size="11.00" fill="#000000">subject</text>
<polygon fill="none" stroke="#000000" points="301.5,-294.7 301.5,-316.7 395.5,-316.7 395.5,-294.7 301.5,-294.7"/>
<text text-anchor="start" x="304.5" y="-302.4" font-family="Helvetica,sans-Serif" font-size="11.00" fill="#000000">varchar[255]</text>
<polygon fill="none" stroke="#000000" points="162.5,-272.7 162.5,-294.7 301.5,-294.7 301.5,-272.7 162.5,-272.7"/>
<text text-anchor="start" x="182.5" y="-279.8" font-family="Helvetica,sans-Serif" font-size="11.00" fill="#000000">email</text>
<polygon fill="none" stroke="#000000" points="301.5,-272.7 301.5,-294.7 395.5,-294.7 395.5,-272.7 301.5,-272.7"/>
<text text-anchor="start" x="304.5" y="-280.4" font-family="Helvetica,sans-Serif" font-size="11.00" fill="#000000">varchar[320]</text>
<polygon fill="none" stroke="#000000" points="162.5,-250.7 162.5,-272.7 301.5,-272.7 301.5,-250.7 162.5,-250.7"/>
<text text-anchor="start" x="182.5" y="-257.8" font-family="Helvetica,sans-Serif" font-size="11.00" fill="#000000">created_at</text>
<polygon fill="none" stroke="#000000" points="301.5,-250.7 301.5,-272.7 395.5,-272.7 395.5,-250.7 301.5,-250.7"/>
<text text-anchor="start" x="304.5" y="-258.4" font-family="Helvetica,sans-Serif" font-size="11.00" fill="#000000">timestamptz[35,6]</text>
<polygon fill="#ffffff" stroke="transparent" points="162.5,-231.7 162.5,-250.7 395.5,-250.7 395.5,-231.7 162.5,-231.7"/>
<polygon fill="none" stroke="#000000" points="162.5,-231.7 162.5,-250.7 395.5,-250.7 395.5,-231.7 162.5,-231.7"/>
<polygon fill="#ffffff" stroke="transparent" points="163.5,-232.7 163.5,-249.7 243.5,-249.7 243.5,-232.7 163.5,-232.7"/>
<text text-anchor="start" x="165.5" y="-237.8" font-family="Helvetica,sans-Serif" font-size="11.00" fill="#000000">&lt; 1</text>
<polygon fill="#ffffff" stroke="transparent" points="243.5,-232.7 243.5,-249.7 314.5,-249.7 314.5,-232.7 243.5,-232.7"/>
<text text-anchor="start" x="275.9431" y="-237.8" font-family="Helvetica,sans-Serif" font-size="11.00" fill="#000000"> &#160;</text>
<polygon fill="#ffffff" stroke="transparent" points="314.5,-232.7 314.5,-249.7 394.5,-249.7 394.5,-232.7 314.5,-232.7"/>
<text text-anchor="start" x="376.9053" y="-237.8" font-family="Helvetica,sans-Serif" font-size="11.00" fill="#000000">0 &gt;</text>
<polygon fill="#000000" stroke="#000000" points="243.5,-232.7 243.5,-249.7 243.5,-249.7 243.5,-232.7 243.5,-232.7"/>
<polygon fill="#000000" stroke="#000000" points="314.5,-232.7 314.5,-249.7 314.5,-249.7 314.5,-232.7 314.5,-232.7"/>
<polygon fill="none" stroke="#000000" stroke-width="2" points="161,-230.7 161,-406.7 396,-406.7 396,-230.7 161,-230.7"/>
</a>
</g>
</g>
<!-- users -->
<g id="node2" class="node">
<title>users</title>
<g id="a_node2"><a xlink:href="../../tables/users.html" xlink:title="users" target="_top">
<polygon fill="#ffffff" stroke="transparent" points="8,-128.2 8,-211.2 111,-211.2 111,-128.2 8,-128.2"/>
<polygon fill="#f5f5f5" stroke="transparent" points="8.5,-187.7 8.5,-210.7 111.5,-210.7 111.5,-187.7 8.5,-187.7"/>
<polygon fill="none" stroke="#000000" points="8.5,-187.7 8.5,-210.7 111.5,-210.7 111.5,-187.7 8.5,-187.7"/>
<text text-anchor="start" x="13.5" y="-196.3" font-family="Helvetica,sans-Serif" font-weight="bold" font-size="11.00" fill="#000000">users</text>
<text text-anchor="start" x="76.5437" y="-195.8" font-family="Helvetica,sans-Serif" font-size="11.00" fill="#000000">[table]</text>
<polygon fill="none" stroke="#000000" points="8.5,-165.7 8.5,-187.7 111.5,-187.7 111.5,-165.7 8.5,-165.7"/>
<image xlink:href="../../images/primaryKeys.png" width="11px" height="12px" preserveAspectRatio="xMinYMin meet" x="13.5" y="-182.7"/>
<text text-anchor="start" x="28.5" y="-172.8" font-family="Helvetica,sans-Serif" font-size="11.00" fill="#000000">id</text>
<polygon fill="none" stroke="#000000" points="8.5,-146.7 8.5,-165.7 111.5,-165.7 111.5,-146.7 8.5,-146.7"/>
<text text-anchor="start" x="11.5" y="-152.8" font-family="Helvetica,sans-Serif" font-size="11.00" fill="#000000">...</text>
<polygon fill="#ffffff" stroke="transparent" points="8.5,-127.7 8.5,-146.7 111.5,-146.7 111.5,-127.7 8.5,-127.7"/>
<polygon fill="none" stroke="#000000" points="8.5,-127.7 8.5,-146.7 111.5,-146.7 111.5,-127.7 8.5,-127.7"/>
<polygon fill="#ffffff" stroke="transparent" points="9.5,-128.7 9.5,-145.7 40.5,-145.7 40.5,-128.7 9.5,-128.7"/>
<text text-anchor="start" x="11.5" y="-133.8" font-family="Helvetica,sans-Serif" font-size="11.00" fill="#000000"> &#160;</text>
<polygon fill="#ffffff" stroke="transparent" points="40.5,-128.7 40.5,-145.7 71.5,-145.7 71.5,-128.7 40.5,-128.7"/>
<text text-anchor="start" x="52.9431" y="-133.8" font-family="Helvetica,sans-Serif" font-size="11.00" fill="#000000"> &#160;</text>
<polygon fill="#ffffff" stroke="transparent" points="71.5,-128.7 71.5,-145.7 110.5,-145.7 110.5,-128.7 71.5,-128.7"/>
<text text-anchor="start" x="92.9053" y="-133.8" font-family="Helvetica,sans-Serif" font-size="11.00" fill="#000000">4 &gt;</text>
<polygon fill="#000000" stroke="#000000" points="40.5,-128.7 40.5,-145.7 40.5,-145.7 40.5,-128.7 40.5,-128.7"/>
<polygon fill="#000000" stroke="#000000" points="71.5,-128.7 71.5,-145.7 71.5,-145.7 71.5,-128.7 71.5,-128.7"/>
</a>
</g>
</g>
<!-- oauth_identities&#45;&gt;users -->
<g id="edge1" class="edge">
<title>oauth_identities:w&#45;&gt;users:e</title>
<path fill="none" stroke="#000000" d="M148.2697,-347.2544C96.7761,-326.2272 186.0241,-176.7 111.5,-176.7"/>
<polygon fill="#000000" stroke="#000000" points="154.6156,-348.345 161.8902,-353.248 158.5578,-349.0225 162.5,-349.7 162.5,-349.7 162.5,-349.7 158.5578,-349.0225 163.1098,-346.152 154.6156,-348.345 154.6156,-348.345"/>
<ellipse fill="none" stroke="#000000" cx="151.4618" cy="-347.8029" rx="3.2" ry="3.2"/>
</g>
<!-- summaries -->
<g id="node3" class="node">
<title>summaries</title>
<g id="a_node3"><a xlink:href="../../tables/summaries.html" xlink:title="summaries" target="_top">
<polygon fill="#ffffff" stroke="transparent" points="446,-149.2 446,-210.2 565,-210.2 565,-149.2 446,-149.2"/>
<polygon fill="#f5f5f5" stroke="transparent" points="446.5,-186.7 446.5,-209.7 565.5,-209.7 565.5,-186.7 446.5,-186.7"/>
<polygon fill="none" stroke="#000000" points="446.5,-186.7 446.5,-209.7 565.5,-209.7 565.5,-186.7 446.5,-186.7"/>
<text text-anchor="start" x="451.5" y="-195.3" font-family="Helvetica,sans-Serif" font-weight="bold" font-size="11.00" fill="#000000">summaries</text>
<text text-anchor="start" x="531.0219" y="-194.8" font-family="Helvetica,sans-Serif" font-size="11.00" fill="#000000">[table]</text>
<polygon fill="none" stroke="#000000" points="446.5,-167.7 446.5,-186.7 565.5,-186.7 565.5,-167.7 446.5,-167.7"/>
<text text-anchor="start" x="449.5" y="-173.8" font-family="Helvetica,sans-Serif" font-size="11.00" fill="#000000">...</text>
<polygon fill="#ffffff" stroke="transparent" points="446.5,-148.7 446.5,-167.7 565.5,-167.7 565.5,-148.7 446.5,-148.7"/>
<polygon fill="none" stroke="#000000" points="446.5,-148.7 446.5,-167.7 565.5,-167.7 565.5,-148.7 446.5,-148.7"/>
<polygon fill="#ffffff" stroke="transparent" points="447.5,-149.7 447.5,-166.7 489.5,-166.7 489.5,-149.7 447.5,-149.7"/>
<text text-anchor="start" x="449.5" y="-154.8" font-family="Helvetica,sans-Serif" font-size="11.00" fill="#000000">&lt; 2</text>
<polygon fill="#ffffff" stroke="transparent" points="489.5,-149.7 489.5,-166.7 522.5,-166.7 522.5,-149.7 489.5,-149.7"/>
<text text-anchor="start" x="502.9431" y="-154.8" font-family="Helvetica,sans-Serif" font-size="11.00" fill="#000000"> &#160;</text>
<polygon fill="#ffffff" stroke="transparent" points="522.5,-149.7 522.5,-166.7 564.5,-166.7 564.5,-149.7 522.5,-149.7"/>
<text text-anchor="start" x="546.9053" y="-154.8" font-family="Helvetica,sans-Serif" font-size="11.00" fill="#000000">4 &gt;</text>
<polygon fill="#000000" stroke="#000000" points="489.5,-149.7 489.5,-166.7 489.5,-166.7 489.5,-149.7 489.5,-149.7"/>
<polygon fill="#000000" stroke="#000000" points="522.5,-149.7 522.5,-166.7 522.5,-166.7 522.5,-149.7 522.5,-149.7"/>
</a>
</g>
</g>
<!-- summaries&#45;&gt;users -->
<g id="edge3" class="edge">
<title>summaries:w&#45;&gt;users:e</title>
<path fill="none" stroke="#000000" d="M432.0752,-179.4974C423.6461,-183.1561 418.2812,-189.3734 405,-191.7 294.2421,-211.1022 262.6807,-211.538 152,-191.7 133.1062,-188.3135 130.6949,-176.7 111.5,-176.7"/>
<polygon fill="#000000" stroke="#000000" points="438.6463,-178.2231 447.1854,-180.2342 442.5732,-177.4616 446.5,-176.7 446.5,-176.7 446.5,-176.7 442.5732,-177.4616 445.8146,-173.1658 438.6463,-178.2231 438.6463,-178.2231"/>
<ellipse fill="none" stroke="#000000" cx="435.5048" cy="-178.8323" rx="3.2" ry="3.2"/>
</g>
<!-- summary_groups -->
<g id="node4" class="node">
<title>summary_groups</title>
<g id="a_node4"><a xlink:href="../../tables/summary_groups.html" xlink:title="summary_groups" target="_top">
<polygon fill="#ffffff" stroke="transparent" points="196.5,-120.2 196.5,-181.2 360.5,-181.2 360.5,-120.2 196.5,-120.2"/>
<polygon fill="#f5f5f5" stroke="transparent" points="196.5,-157.7 196.5,-180.7 360.5,-180.7 360.5,-157.7 196.5,-157.7"/>
<polygon fill="none" stroke="#000000" points="196.5,-157.7 196.5,-180.7 360.5,-180.7 360.5,-157.7 196.5,-157.7"/>
<text text-anchor="start" x="201.5" y="-166.3" font-family="Helvetica,sans-Serif" font-weight="bold" font-size="11.00" fill="#000000">summary_groups</text>
<text text-anchor="start" x="326.0219" y="-165.8" font-family="Helvetica,sans-Serif" font-size="11.00" fill="#000000">[table]</text>
<polygon fill="none" stroke="#000000" points="196.5,-138.7 196.5,-157.7 360.5,-157.7 360.5,-138.7 196.5,-138.7"/>
<text text-anchor="start" x="199.5" y="-144.8" font-family="Helvetica,sans-Serif" font-size="11.00" fill="#000000">...</text>
<polygon fill="#ffffff" stroke="transparent" points="196.5,-119.7 196.5,-138.7 360.5,-138.7 360.5,-119.7 196.5,-119.7"/>
<polygon fill="none" stroke="#000000" points="196.5,-119.7 196.5,-138.7 360.5,-138.7 360.5,-119.7 196.5,-119.7"/>
<polygon fill="#ffffff" stroke="transparent" points="197.5,-120.7 197.5,-137.7 254.5,-137.7 254.5,-120.7 197.5,-120.7"/>
<text text-anchor="start" x="199.5" y="-125.8" font-family="Helvetica,sans-Serif" font-size="11.00" fill="#000000">&lt; 1</text>
<polygon fill="#ffffff" stroke="transparent" points="254.5,-120.7 254.5,-137.7 302.5,-137.7 302.5,-120.7 254.5,-120.7"/>
<text text-anchor="start" x="275.4431" y="-125.8" font-family="Helvetica,sans-Serif" font-size="11.00" fill="#000000"> &#160;</text>
<polygon fill="#ffffff" stroke="transparent" points="302.5,-120.7 302.5,-137.7 359.5,-137.7 359.5,-120.7 302.5,-120.7"/>
<text text-anchor="start" x="341.9053" y="-125.8" font-family="Helvetica,sans-Serif" font-size="11.00" fill="#000000">1 &gt;</text>
<polygon fill="#000000" stroke="#000000" points="254.5,-120.7 254.5,-137.7 254.5,-137.7 254.5,-120.7 254.5,-120.7"/>
<polygon fill="#000000" stroke="#000000" points="302.5,-120.7 302.5,-137.7 302.5,-137.7 302.5,-120.7 302.5,-120.7"/>
</a>
</g>
</g>
<!-- summaries&#45;&gt;summary_groups -->
<g id="edge2" class="edge">
<title>summaries:w&#45;&gt;summary_groups:e</title>
<path fill="none" stroke="#000000" d="M432.1169,-175.3013C404.1308,-169.5084 395.4796,-147.7 360.5,-147.7"/>
<polygon fill="#000000" stroke="#000000" points="438.5376,-175.9256 446.1515,-180.2831 442.5188,-176.3128 446.5,-176.7 446.5,-176.7 446.5,-176.7 442.5188,-176.3128 446.8485,-173.1169 438.5376,-175.9256 438.5376,-175.9256"/>
<ellipse fill="none" stroke="#000000" cx="435.3526" cy="-175.6159" rx="3.2" ry="3.2"/>
</g>
<!-- summary_groups&#45;&gt;users -->
<g id="edge4" class="edge">
<title>summary_groups:w&#45;&gt;users:e</title>
<path fill="none" stroke="#000000" d="M181.8991,-149.178C154.5214,-155.0876 145.9587,-176.7 111.5,-176.7"/>
<polygon fill="#000000" stroke="#000000" points="188.5407,-148.5057 196.8626,-151.2817 192.5203,-148.1029 196.5,-147.7 196.5,-147.7 196.5,-147.7 192.5203,-148.1029 196.1374,-144.1183 188.5407,-148.5057 188.5407,-148.5057"/>
<ellipse fill="none" stroke="#000000" cx="185.3569" cy="-148.828" rx="3.2" ry="3.2"/>
</g>
<!-- user_sessions -->
<g id="node5" class="node">
<title>user_sessions</title>
<g id="a_node5"><a xlink:href="../../tables/user_sessions.html" xlink:title="user_sessions" target="_top">
<polygon fill="#ffffff" stroke="transparent" points="208.5,-38.2 208.5,-99.2 348.5,-99.2 348.5,-38.2 208.5,-38.2"/>
<polygon fill="#f5f5f5" stroke="transparent" points="208.5,-75.7 208.5,-98.7 348.5,-98.7 348.5,-75.7 208.5,-75.7"/>
<polygon fill="none" stroke="#000000" points="208.5,-75.7 208.5,-98.7 348.5,-98.7 348.5,-75.7 208.5,-75.7"/>
<text text-anchor="start" x="213.5" y="-84.3" font-family="Helvetica,sans-Serif" font-weight="bold" font-size="11.00" fill="#000000">user_sessions</text>
<text text-anchor="start" x="314.0219" y="-83.8" font-family="Helvetica,sans-Serif" font-size="11.00" fill="#000000">[table]</text>
<polygon fill="none" stroke="#000000" points="208.5,-56.7 208.5,-75.7 348.5,-75.7 348.5,-56.7 208.5,-56.7"/>
<text text-anchor="start" x="211.5" y="-62.8" font-family="Helvetica,sans-Serif" font-size="11.00" fill="#000000">...</text>
<polygon fill="#ffffff" stroke="transparent" points="208.5,-37.7 208.5,-56.7 348.5,-56.7 348.5,-37.7 208.5,-37.7"/>
<polygon fill="none" stroke="#000000" points="208.5,-37.7 208.5,-56.7 348.5,-56.7 348.5,-37.7 208.5,-37.7"/>
<polygon fill="#ffffff" stroke="transparent" points="209.5,-38.7 209.5,-55.7 261.5,-55.7 261.5,-38.7 209.5,-38.7"/>
<text text-anchor="start" x="211.5" y="-43.8" font-family="Helvetica,sans-Serif" font-size="11.00" fill="#000000">&lt; 1</text>
<polygon fill="#ffffff" stroke="transparent" points="261.5,-38.7 261.5,-55.7 304.5,-55.7 304.5,-38.7 261.5,-38.7"/>
<text text-anchor="start" x="279.9431" y="-43.8" font-family="Helvetica,sans-Serif" font-size="11.00" fill="#000000"> &#160;</text>
<polygon fill="#ffffff" stroke="transparent" points="304.5,-38.7 304.5,-55.7 347.5,-55.7 347.5,-38.7 304.5,-38.7"/>
<text text-anchor="start" x="339.3862" y="-43.8" font-family="Helvetica,sans-Serif" font-size="11.00" fill="#000000"> &#160;</text>
<polygon fill="#000000" stroke="#000000" points="261.5,-38.7 261.5,-55.7 261.5,-55.7 261.5,-38.7 261.5,-38.7"/>
<polygon fill="#000000" stroke="#000000" points="304.5,-38.7 304.5,-55.7 304.5,-55.7 304.5,-38.7 304.5,-38.7"/>
</a>
</g>
</g>
<!-- user_sessions&#45;&gt;users -->
<g id="edge5" class="edge">
<title>user_sessions:w&#45;&gt;users:e</title>
<path fill="none" stroke="#000000" d="M194.0895,-67.4829C174.8865,-72.9149 169.4238,-90.0895 152,-109.7 128.8889,-135.7114 146.2953,-176.7 111.5,-176.7"/>
<polygon fill="#000000" stroke="#000000" points="200.5605,-66.6823 208.942,-69.2728 204.5303,-66.1912 208.5,-65.7 208.5,-65.7 208.5,-65.7 204.5303,-66.1912 208.058,-62.1272 200.5605,-66.6823 200.5605,-66.6823"/>
<ellipse fill="none" stroke="#000000" cx="197.3847" cy="-67.0753" rx="3.2" ry="3.2"/>
</g>
</g>
</svg>
