<?xml version="1.0" encoding="UTF-8" standalone="no"?>
<!DOCTYPE svg PUBLIC "-//W3C//DTD SVG 1.1//EN"
 "http://www.w3.org/Graphics/SVG/1.1/DTD/svg11.dtd">
<!-- Generated by graphviz version 2.40.1 (20161225.0304)
 -->
<!-- Title: oneDegreeRelationshipsDiagram Pages: 1 -->
<svg width="413pt" height="228pt"
 viewBox="0.00 0.00 413.00 228.20" xmlns="http://www.w3.org/2000/svg" xmlns:xlink="http://www.w3.org/1999/xlink">
<g id="graph0" class="graph" transform="scale(1 1) rotate(0) translate(4 224.2)">
<title>oneDegreeRelationshipsDiagram</title>
<polygon fill="#ffffff" stroke="transparent" points="-4,4 -4,-224.2 409,-224.2 409,4 -4,4"/>
<text text-anchor="middle" x="72.4936" y="-7.3" font-family="Helvetica,sans-Serif" font-size="11.00" fill="#000000">Generated by SchemaSpy</text>
<!-- oauth_identities -->
<g id="node1" class="node">
<title>oauth_identities</title>
<g id="a_node1"><a xlink:href="../../tables/oauth_identities.html" xlink:title="oauth_identities" target="_top">
<polygon fill="#ffffff" stroke="transparent" points="160,-38.2 160,-216.2 397,-216.2 397,-38.2 160,-38.2"/>
<polygon fill="#f5f5f5" stroke="transparent" points="162.5,-191.2 162.5,-214.2 395.5,-214.2 395.5,-191.2 162.5,-191.2"/>
<polygon fill="none" stroke="#000000" points="162.5,-191.2 162.5,-214.2 395.5,-214.2 395.5,-191.2 162.5,-191.2"/>
<text text-anchor="start" x="167.5" y="-199.8" font-family="Helvetica,sans-Serif" font-weight="bold" font-size="11.00" fill="#000000">oauth_identities</text>
<text text-anchor="start" x="360.5437" y="-199.3" font-family="Helvetica,sans-Serif" font-size="11.00" fill="#000000">[table]</text>
<polygon fill="none" stroke="#000000" points="162.5,-169.2 162.5,-191.2 301.5,-191.2 301.5,-169.2 162.5,-169.2"/>
<image xlink:href="../../images/primaryKeys.png" width="11px" height="12px" preserveAspectRatio="xMinYMin meet" x="167.5" y="-186.2"/>
<text text-anchor="start" x="182.5" y="-176.3" font-family="Helvetica,sans-Serif" font-size="11.00" fill="#000000">id</text>
<polygon fill="none" stroke="#000000" points="301.5,-169.2 301.5,-191.2 395.5,-191.2 395.5,-169.2 301.5,-169.2"/>
<text text-anchor="start" x="304.4758" y="-176.9" font-family="Helvetica,sans-Serif" font-size="11.00" fill="#000000">uuid[2147483647]</text>
<polygon fill="#ffffff" stroke="transparent" points="162.5,-147.2 162.5,-169.2 301.5,-169.2 301.5,-147.2 162.5,-147.2"/>
<polygon fill="none" stroke="#000000" points="162.5,-147.2 162.5,-169.2 301.5,-169.2 301.5,-147.2 162.5,-147.2"/>
<image xlink:href="../../images/foreignKeys.png" width="11px" height="12px" preserveAspectRatio="xMinYMin meet" x="167.5" y="-164.2"/>
<text text-anchor="start" x="182.5" y="-154.3" font-family="Helvetica,sans-Serif" font-size="11.00" fill="#000000">user_id</text>
<polygon fill="none" stroke="#000000" points="301.5,-147.2 301.5,-169.2 395.5,-169.2 395.5,-147.2 301.5,-147.2"/>
<text text-anchor="start" x="304.4758" y="-154.9" font-family="Helvetica,sans-Serif" font-size="11.00" fill="#000000">uuid[2147483647]</text>
<polygon fill="#ffffff" stroke="transparent" points="162.5,-125.2 162.5,-147.2 301.5,-147.2 301.5,-125.2 162.5,-125.2"/>
<polygon fill="none" stroke="#000000" points="162.5,-125.2 162.5,-147.2 301.5,-147.2 301.5,-125.2 162.5,-125.2"/>
<text text-anchor="start" x="182.5" y="-132.3" font-family="Helvetica,sans-Serif" font-size="11.00" fill="#000000">provider</text>
<polygon fill="none" stroke="#000000" points="301.5,-125.2 301.5,-147.2 395.5,-147.2 395.5,-125.2 301.5,-125.2"/>
<text text-anchor="start" x="304.5" y="-132.9" font-family="Helvetica,sans-Serif" font-size="11.00" fill="#000000">varchar[50]</text>
<polygon fill="#ffffff" stroke="transparent" points="162.5,-103.2 162.5,-125.2 301.5,-125.2 301.5,-103.2 162.5,-103.2"/>
<polygon fill="none" stroke="#000000" points="162.5,-103.2 162.5,-125.2 301.5,-125.2 301.5,-103.2 162.5,-103.2"/>
<text text-anchor="start" x="182.5" y="-110.3" font-family="Helvetica,sans-Serif" font-size="11.00" fill="#000000">subject</text>
<polygon fill="none" stroke="#000000" points="301.5,-103.2 301.5,-125.2 395.5,-125.2 395.5,-103.2 301.5,-103.2"/>
<text text-anchor="start" x="304.5" y="-110.9" font-family="Helvetica,sans-Serif" font-size="11.00" fill="#000000">varchar[255]</text>
<polygon fill="none" stroke="#000000" points="162.5,-81.2 162.5,-103.2 301.5,-103.2 301.5,-81.2 162.5,-81.2"/>
<text text-anchor="start" x="182.5" y="-88.3" font-family="Helvetica,sans-Serif" font-size="11.00" fill="#000000">email</text>
<polygon fill="none" stroke="#000000" points="301.5,-81.2 301.5,-103.2 395.5,-103.2 395.5,-81.2 301.5,-81.2"/>
<text text-anchor="start" x="304.5" y="-88.9" font-family="Helvetica,sans-Serif" font-size="11.00" fill="#000000">varchar[320]</text>
<polygon fill="none" stroke="#000000" points="162.5,-59.2 162.5,-81.2 301.5,-81.2 301.5,-59.2 162.5,-59.2"/>
<text text-anchor="start" x="182.5" y="-66.3" font-family="Helvetica,sans-Serif" font-size="11.00" fill="#000000">created_at</text>
<polygon fill="none" stroke="#000000" points="301.5,-59.2 301.5,-81.2 395.5,-81.2 395.5,-59.2 301.5,-59.2"/>
<text text-anchor="start" x="304.5" y="-66.9" font-family="Helvetica,sans-Serif" font-size="11.00" fill="#000000">timestamptz[35,6]</text>
<polygon fill="#ffffff" stroke="transparent" points="162.5,-40.2 162.5,-59.2 395.5,-59.2 395.5,-40.2 162.5,-40.2"/>
<polygon fill="none" stroke="#000000" points="162.5,-40.2 162.5,-59.2 395.5,-59.2 395.5,-40.2 162.5,-40.2"/>
<polygon fill="#ffffff" stroke="transparent" points="163.5,-41.2 163.5,-58.2 243.5,-58.2 243.5,-41.2 163.5,-41.2"/>
<text text-anchor="start" x="165.5" y="-46.3" font-family="Helvetica,sans-Serif" font-size="11.00" fill="#000000">&lt; 1</text>
<polygon fill="#ffffff" stroke="transparent" points="243.5,-41.2 243.5,-58.2 314.5,-58.2 314.5,-41.2 243.5,-41.2"/>
<text text-anchor="start" x="275.9431" y="-46.3" font-family="Helvetica,sans-Serif" font-size="11.00" fill="#000000"> &#160;</text>
<polygon fill="#ffffff" stroke="transparent" points="314.5,-41.2 314.5,-58.2 394.5,-58.2 394.5,-41.2 314.5,-41.2"/>
<text text-anchor="start" x="376.9053" y="-46.3" font-family="Helvetica,sans-Serif" font-size="11.00" fill="#000000">0 &gt;</text>
<polygon fill="#000000" stroke="#000000" points="243.5,-41.2 243.5,-58.2 243.5,-58.2 243.5,-41.2 243.5,-41.2"/>
<polygon fill="#000000" stroke="#000000" points="314.5,-41.2 314.5,-58.2 314.5,-58.2 314.5,-41.2 314.5,-41.2"/>
<polygon fill="none" stroke="#000000" stroke-width="2" points="161,-39.2 161,-215.2 396,-215.2 396,-39.2 161,-39.2"/>
</a>
</g>
</g>
<!-- users -->
<g id="node2" class="node">
<title>users</title>
<g id="a_node2"><a xlink:href="../../tables/users.html" xlink:title="users" target="_top">
<polygon fill="#ffffff" stroke="transparent" points="8,-109.7 8,-192.7 111,-192.7 111,-109.7 8,-109.7"/>
<polygon fill="#f5f5f5" stroke="transparent" points="8.5,-169.2 8.5,-192.2 111.5,-192.2 111.5,-169.2 8.5,-169.2"/>
<polygon fill="none" stroke="#000000" points="8.5,-169.2 8.5,-192.2 111.5,-192.2 111.5,-169.2 8.5,-169.2"/>
<text text-anchor="start" x="13.5" y="-177.8" font-family="Helvetica,sans-Serif" font-weight="bold" font-size="11.00" fill="#000000">users</text>
<text text-anchor="start" x="76.5437" y="-177.3" font-family="Helvetica,sans-Serif" font-size="11.00" fill="#000000">[table]</text>
<polygon fill="none" stroke="#000000" points="8.5,-147.2 8.5,-169.2 111.5,-169.2 111.5,-147.2 8.5,-147.2"/>
<image xlink:href="../../images/primaryKeys.png" width="11px" height="12px" preserveAspectRatio="xMinYMin meet" x="13.5" y="-164.2"/>
<text text-anchor="start" x="28.5" y="-154.3" font-family="Helvetica,sans-Serif" font-size="11.00" fill="#000000">id</text>
<polygon fill="none" stroke="#000000" points="8.5,-128.2 8.5,-147.2 111.5,-147.2 111.5,-128.2 8.5,-128.2"/>
<text text-anchor="start" x="11.5" y="-134.3" font-family="Helvetica,sans-Serif" font-size="11.00" fill="#000000">...</text>
<polygon fill="#ffffff" stroke="transparent" points="8.5,-109.2 8.5,-128.2 111.5,-128.2 111.5,-109.2 8.5,-109.2"/>
<polygon fill="none" stroke="#000000" points="8.5,-109.2 8.5,-128.2 111.5,-128.2 111.5,-109.2 8.5,-109.2"/>
<polygon fill="#ffffff" stroke="transparent" points="9.5,-110.2 9.5,-127.2 40.5,-127.2 40.5,-110.2 9.5,-110.2"/>
<text text-anchor="start" x="11.5" y="-115.3" font-family="Helvetica,sans-Serif" font-size="11.00" fill="#000000"> &#160;</text>
<polygon fill="#ffffff" stroke="transparent" points="40.5,-110.2 40.5,-127.2 71.5,-127.2 71.5,-110.2 40.5,-110.2"/>
<text text-anchor="start" x="52.9431" y="-115.3" font-family="Helvetica,sans-Serif" font-size="11.00" fill="#000000"> &#160;</text>
<polygon fill="#ffffff" stroke="transparent" points="71.5,-110.2 71.5,-127.2 110.5,-127.2 110.5,-110.2 71.5,-110.2"/>
<text text-anchor="start" x="92.9053" y="-115.3" font-family="Helvetica,sans-Serif" font-size="11.00" fill="#000000">4 &gt;</text>
<polygon fill="#000000" stroke="#000000" points="40.5,-110.2 40.5,-127.2 40.5,-127.2 40.5,-110.2 40.5,-110.2"/>
<polygon fill="#000000" stroke="#000000" points="71.5,-110.2 71.5,-127.2 71.5,-127.2 71.5,-110.2 71.5,-110.2"/>
</a>
</g>
</g>
<!-- oauth_identities&#45;&gt;users -->
<g id="edge1" class="edge">
<title>oauth_identities:w&#45;&gt;users:e</title>
<path fill="none" stroke="#000000" d="M147.776,-158.2C135.7815,-158.2 128.3229,-158.2 111.5,-158.2"/>
<polygon fill="#000000" stroke="#000000" points="154.5,-158.2001 162.5,-161.8 158.5,-158.2 162.5,-158.2 162.5,-158.2 162.5,-158.2 158.5,-158.2 162.5,-154.6 154.5,-158.2001 154.5,-158.2001"/>
<ellipse fill="none" stroke="#000000" cx="151.3" cy="-158.2001" rx="3.2" ry="3.2"/>
</g>
</g>
</svg>
