<?xml version="1.0" encoding="UTF-8" standalone="no"?>
<!DOCTYPE svg PUBLIC "-//W3C//DTD SVG 1.1//EN"
 "http://www.w3.org/Graphics/SVG/1.1/DTD/svg11.dtd">
<!-- Generated by graphviz version 2.40.1 (20161225.0304)
 -->
<!-- Title: oneDegreeRelationshipsDiagram Pages: 1 -->
<svg width="614pt" height="268pt"
 viewBox="0.00 0.00 614.00 267.70" xmlns="http://www.w3.org/2000/svg" xmlns:xlink="http://www.w3.org/1999/xlink">
<g id="graph0" class="graph" transform="scale(1 1) rotate(0) translate(4 263.7)">
<title>oneDegreeRelationshipsDiagram</title>
<polygon fill="#ffffff" stroke="transparent" points="-4,4 -4,-263.7 610,-263.7 610,4 -4,4"/>
<text text-anchor="middle" x="72.4936" y="-7.3" font-family="Helvetica,sans-Serif" font-size="11.00" fill="#000000">Generated by SchemaSpy</text>
<!-- summaries -->
<g id="node1" class="node">
<title>summaries</title>
<g id="a_node1"><a xlink:href="../../tables/summaries.html" xlink:title="summaries" target="_top">
<polygon fill="#ffffff" stroke="transparent" points="453,-106.7 453,-255.7 598,-255.7 598,-106.7 453,-106.7"/>
<polygon fill="#f5f5f5" stroke="transparent" points="453.5,-232.2 453.5,-255.2 598.5,-255.2 598.5,-232.2 453.5,-232.2"/>
<polygon fill="none" stroke="#000000" points="453.5,-232.2 453.5,-255.2 598.5,-255.2 598.5,-232.2 453.5,-232.2"/>
<text text-anchor="start" x="458.5" y="-240.8" font-family="Helvetica,sans-Serif" font-weight="bold" font-size="11.00" fill="#000000">summaries</text>
<text text-anchor="start" x="563.5437" y="-240.3" font-family="Helvetica,sans-Serif" font-size="11.00" fill="#000000">[table]</text>
<polygon fill="none" stroke="#000000" points="453.5,-210.2 453.5,-232.2 598.5,-232.2 598.5,-210.2 453.5,-210.2"/>
<image xlink:href="../../images/primaryKeys.png" width="11px" height="12px" preserveAspectRatio="xMinYMin meet" x="458.5" y="-227.2"/>
<text text-anchor="start" x="473.5" y="-217.3" font-family="Helvetica,sans-Serif" font-size="11.00" fill="#000000">id</text>
<polygon fill="#ffffff" stroke="transparent" points="453.5,-188.2 453.5,-210.2 598.5,-210.2 598.5,-188.2 453.5,-188.2"/>
<polygon fill="none" stroke="#000000" points="453.5,-188.2 453.5,-210.2 598.5,-210.2 598.5,-188.2 453.5,-188.2"/>
<text text-anchor="start" x="473.5" y="-195.3" font-family="Helvetica,sans-Serif" font-size="11.00" fill="#000000">content_hash</text>
<polygon fill="#ffffff" stroke="transparent" points="453.5,-166.2 453.5,-188.2 598.5,-188.2 598.5,-166.2 453.5,-166.2"/>
<polygon fill="none" stroke="#000000" points="453.5,-166.2 453.5,-188.2 598.5,-188.2 598.5,-166.2 453.5,-166.2"/>
<image xlink:href="../../images/foreignKeys.png" width="11px" height="12px" preserveAspectRatio="xMinYMin meet" x="458.5" y="-183.2"/>
<text text-anchor="start" x="473.5" y="-173.3" font-family="Helvetica,sans-Serif" font-size="11.00" fill="#000000">user_id</text>
<polygon fill="#ffffff" stroke="transparent" points="453.5,-144.2 453.5,-166.2 598.5,-166.2 598.5,-144.2 453.5,-144.2"/>
<polygon fill="none" stroke="#000000" points="453.5,-144.2 453.5,-166.2 598.5,-166.2 598.5,-144.2 453.5,-144.2"/>
<image xlink:href="../../images/foreignKeys.png" width="11px" height="12px" preserveAspectRatio="xMinYMin meet" x="458.5" y="-161.2"/>
<text text-anchor="start" x="473.5" y="-151.3" font-family="Helvetica,sans-Serif" font-size="11.00" fill="#000000">group_id</text>
<polygon fill="none" stroke="#000000" points="453.5,-125.2 453.5,-144.2 598.5,-144.2 598.5,-125.2 453.5,-125.2"/>
<text text-anchor="start" x="456.5" y="-131.3" font-family="Helvetica,sans-Serif" font-size="11.00" fill="#000000">...</text>
<polygon fill="#ffffff" stroke="transparent" points="453.5,-106.2 453.5,-125.2 598.5,-125.2 598.5,-106.2 453.5,-106.2"/>
<polygon fill="none" stroke="#000000" points="453.5,-106.2 453.5,-125.2 598.5,-125.2 598.5,-106.2 453.5,-106.2"/>
<polygon fill="#ffffff" stroke="transparent" points="454.5,-107.2 454.5,-124.2 505.5,-124.2 505.5,-107.2 454.5,-107.2"/>
<text text-anchor="start" x="456.5" y="-112.3" font-family="Helvetica,sans-Serif" font-size="11.00" fill="#000000">&lt; 2</text>
<polygon fill="#ffffff" stroke="transparent" points="505.5,-107.2 505.5,-124.2 547.5,-124.2 547.5,-107.2 505.5,-107.2"/>
<text text-anchor="start" x="523.4431" y="-112.3" font-family="Helvetica,sans-Serif" font-size="11.00" fill="#000000"> &#160;</text>
<polygon fill="#ffffff" stroke="transparent" points="547.5,-107.2 547.5,-124.2 597.5,-124.2 597.5,-107.2 547.5,-107.2"/>
<text text-anchor="start" x="579.9053" y="-112.3" font-family="Helvetica,sans-Serif" font-size="11.00" fill="#000000">4 &gt;</text>
<polygon fill="#000000" stroke="#000000" points="505.5,-107.2 505.5,-124.2 505.5,-124.2 505.5,-107.2 505.5,-107.2"/>
<polygon fill="#000000" stroke="#000000" points="547.5,-107.2 547.5,-124.2 547.5,-124.2 547.5,-107.2 547.5,-107.2"/>
</a>
</g>
</g>
<!-- summary_groups -->
<g id="node2" class="node">
<title>summary_groups</title>
<g id="a_node2"><a xlink:href="../../tables/summary_groups.html" xlink:title="summary_groups" target="_top">
<polygon fill="#ffffff" stroke="transparent" points="160,-38.2 160,-172.2 404,-172.2 404,-38.2 160,-38.2"/>
<polygon fill="#f5f5f5" stroke="transparent" points="162,-147.2 162,-170.2 402,-170.2 402,-147.2 162,-147.2"/>
<polygon fill="none" stroke="#000000" points="162,-147.2 162,-170.2 402,-170.2 402,-147.2 162,-147.2"/>
<text text-anchor="start" x="167" y="-155.8" font-family="Helvetica,sans-Serif" font-weight="bold" font-size="11.00" fill="#000000">summary_groups</text>
<text text-anchor="start" x="367.0437" y="-155.3" font-family="Helvetica,sans-Serif" font-size="11.00" fill="#000000">[table]</text>
<polygon fill="none" stroke="#000000" points="162,-125.2 162,-147.2 308,-147.2 308,-125.2 162,-125.2"/>
<image xlink:href="../../images/primaryKeys.png" width="11px" height="12px" preserveAspectRatio="xMinYMin meet" x="167" y="-142.2"/>
<text text-anchor="start" x="182" y="-132.3" font-family="Helvetica,sans-Serif" font-size="11.00" fill="#000000">id</text>
<polygon fill="none" stroke="#000000" points="308,-125.2 308,-147.2 402,-147.2 402,-125.2 308,-125.2"/>
<text text-anchor="start" x="310.9758" y="-132.9" font-family="Helvetica,sans-Serif" font-size="11.00" fill="#000000">uuid[2147483647]</text>
<polygon fill="#ffffff" stroke="transparent" points="162,-103.2 162,-125.2 308,-125.2 308,-103.2 162,-103.2"/>
<polygon fill="none" stroke="#000000" points="162,-103.2 162,-125.2 308,-125.2 308,-103.2 162,-103.2"/>
<image xlink:href="../../images/foreignKeys.png" width="11px" height="12px" preserveAspectRatio="xMinYMin meet" x="167" y="-120.2"/>
<text text-anchor="start" x="182" y="-110.3" font-family="Helvetica,sans-Serif" font-size="11.00" fill="#000000">user_id</text>
<polygon fill="none" stroke="#000000" points="308,-103.2 308,-125.2 402,-125.2 402,-103.2 308,-103.2"/>
<text text-anchor="start" x="310.9758" y="-110.9" font-family="Helvetica,sans-Serif" font-size="11.00" fill="#000000">uuid[2147483647]</text>
<polygon fill="#ffffff" stroke="transparent" points="162,-81.2 162,-103.2 308,-103.2 308,-81.2 162,-81.2"/>
<polygon fill="none" stroke="#000000" points="162,-81.2 162,-103.2 308,-103.2 308,-81.2 162,-81.2"/>
<text text-anchor="start" x="182" y="-88.3" font-family="Helvetica,sans-Serif" font-size="11.00" fill="#000000">name</text>
<polygon fill="none" stroke="#000000" points="308,-81.2 308,-103.2 402,-103.2 402,-81.2 308,-81.2"/>
<text text-anchor="start" x="311" y="-88.9" font-family="Helvetica,sans-Serif" font-size="11.00" fill="#000000">varchar[255]</text>
<polygon fill="none" stroke="#000000" points="162,-59.2 162,-81.2 308,-81.2 308,-59.2 162,-59.2"/>
<text text-anchor="start" x="182" y="-66.3" font-family="Helvetica,sans-Serif" font-size="11.00" fill="#000000">created_at</text>
<polygon fill="none" stroke="#000000" points="308,-59.2 308,-81.2 402,-81.2 402,-59.2 308,-59.2"/>
<text text-anchor="start" x="311" y="-66.9" font-family="Helvetica,sans-Serif" font-size="11.00" fill="#000000">timestamptz[35,6]</text>
<polygon fill="#ffffff" stroke="transparent" points="162,-40.2 162,-59.2 402,-59.2 402,-40.2 162,-40.2"/>
<polygon fill="none" stroke="#000000" points="162,-40.2 162,-59.2 402,-59.2 402,-40.2 162,-40.2"/>
<polygon fill="#ffffff" stroke="transparent" points="163,-41.2 163,-58.2 246,-58.2 246,-41.2 163,-41.2"/>
<text text-anchor="start" x="165" y="-46.3" font-family="Helvetica,sans-Serif" font-size="11.00" fill="#000000">&lt; 1</text>
<polygon fill="#ffffff" stroke="transparent" points="246,-41.2 246,-58.2 319,-58.2 319,-41.2 246,-41.2"/>
<text text-anchor="start" x="279.4431" y="-46.3" font-family="Helvetica,sans-Serif" font-size="11.00" fill="#000000"> &#160;</text>
<polygon fill="#ffffff" stroke="transparent" points="319,-41.2 319,-58.2 401,-58.2 401,-41.2 319,-41.2"/>
<text text-anchor="start" x="383.4053" y="-46.3" font-family="Helvetica,sans-Serif" font-size="11.00" fill="#000000">1 &gt;</text>
<polygon fill="#000000" stroke="#000000" points="246,-41.2 246,-58.2 246,-58.2 246,-41.2 246,-41.2"/>
<polygon fill="#000000" stroke="#000000" points="319,-41.2 319,-58.2 319,-58.2 319,-41.2 319,-41.2"/>
<polygon fill="none" stroke="#000000" stroke-width="2" points="161,-39.2 161,-171.2 403,-171.2 403,-39.2 161,-39.2"/>
</a>
</g>
</g>
<!-- summaries&#45;&gt;summary_groups -->
<g id="edge1" class="edge">
<title>summaries:w&#45;&gt;summary_groups:e</title>
<path fill="none" stroke="#000000" d="M438.9747,-152.3965C426.52,-147.1113 420.4883,-136.2 402,-136.2"/>
<polygon fill="#000000" stroke="#000000" points="445.645,-153.6839 452.8177,-158.7348 449.5725,-154.4419 453.5,-155.2 453.5,-155.2 453.5,-155.2 449.5725,-154.4419 454.1823,-151.6652 445.645,-153.6839 445.645,-153.6839"/>
<ellipse fill="none" stroke="#000000" cx="442.503" cy="-153.0774" rx="3.2" ry="3.2"/>
</g>
<!-- users -->
<g id="node3" class="node">
<title>users</title>
<g id="a_node3"><a xlink:href="../../tables/users.html" xlink:title="users" target="_top">
<polygon fill="#ffffff" stroke="transparent" points="8,-106.7 8,-189.7 111,-189.7 111,-106.7 8,-106.7"/>
<polygon fill="#f5f5f5" stroke="transparent" points="8.5,-166.2 8.5,-189.2 111.5,-189.2 111.5,-166.2 8.5,-166.2"/>
<polygon fill="none" stroke="#000000" points="8.5,-166.2 8.5,-189.2 111.5,-189.2 111.5,-166.2 8.5,-166.2"/>
<text text-anchor="start" x="13.5" y="-174.8" font-family="Helvetica,sans-Serif" font-weight="bold" font-size="11.00" fill="#000000">users</text>
<text text-anchor="start" x="76.5437" y="-174.3" font-family="Helvetica,sans-Serif" font-size="11.00" fill="#000000">[table]</text>
<polygon fill="none" stroke="#000000" points="8.5,-144.2 8.5,-166.2 111.5,-166.2 111.5,-144.2 8.5,-144.2"/>
<image xlink:href="../../images/primaryKeys.png" width="11px" height="12px" preserveAspectRatio="xMinYMin meet" x="13.5" y="-161.2"/>
<text text-anchor="start" x="28.5" y="-151.3" font-family="Helvetica,sans-Serif" font-size="11.00" fill="#000000">id</text>
<polygon fill="none" stroke="#000000" points="8.5,-125.2 8.5,-144.2 111.5,-144.2 111.5,-125.2 8.5,-125.2"/>
<text text-anchor="start" x="11.5" y="-131.3" font-family="Helvetica,sans-Serif" font-size="11.00" fill="#000000">...</text>
<polygon fill="#ffffff" stroke="transparent" points="8.5,-106.2 8.5,-125.2 111.5,-125.2 111.5,-106.2 8.5,-106.2"/>
<polygon fill="none" stroke="#000000" points="8.5,-106.2 8.5,-125.2 111.5,-125.2 111.5,-106.2 8.5,-106.2"/>
<polygon fill="#ffffff" stroke="transparent" points="9.5,-107.2 9.5,-124.2 40.5,-124.2 40.5,-107.2 9.5,-107.2"/>
<text text-anchor="start" x="11.5" y="-112.3" font-family="Helvetica,sans-Serif" font-size="11.00" fill="#000000"> &#160;</text>
<polygon fill="#ffffff" stroke="transparent" points="40.5,-107.2 40.5,-124.2 71.5,-124.2 71.5,-107.2 40.5,-107.2"/>
<text text-anchor="start" x="52.9431" y="-112.3" font-family="Helvetica,sans-Serif" font-size="11.00" fill="#000000"> &#160;</text>
<polygon fill="#ffffff" stroke="transparent" points="71.5,-107.2 71.5,-124.2 110.5,-124.2 110.5,-107.2 71.5,-107.2"/>
<text text-anchor="start" x="92.9053" y="-112.3" font-family="Helvetica,sans-Serif" font-size="11.00" fill="#000000">4 &gt;</text>
<polygon fill="#000000" stroke="#000000" points="40.5,-107.2 40.5,-124.2 40.5,-124.2 40.5,-107.2 40.5,-107.2"/>
<polygon fill="#000000" stroke="#000000" points="71.5,-107.2 71.5,-124.2 71.5,-124.2 71.5,-107.2 71.5,-107.2"/>
</a>
</g>
</g>
<!-- summaries&#45;&gt;users -->
<g id="edge2" class="edge">
<title>summaries:w&#45;&gt;users:e</title>
<path fill="none" stroke="#000000" d="M439.0864,-178.1775C430.6642,-179.4054 424.6044,-181.4434 412,-182.2 296.652,-189.1236 262.5973,-215.6862 152,-182.2 131.2949,-175.931 133.1333,-155.2 111.5,-155.2"/>
<polygon fill="#000000" stroke="#000000" points="445.5183,-177.7413 453.7436,-180.7917 449.5092,-177.4707 453.5,-177.2 453.5,-177.2 453.5,-177.2 449.5092,-177.4707 453.2564,-173.6083 445.5183,-177.7413 445.5183,-177.7413"/>
<ellipse fill="none" stroke="#000000" cx="442.3257" cy="-177.9579" rx="3.2" ry="3.2"/>
</g>
<!-- summary_groups&#45;&gt;users -->
<g id="edge3" class="edge">
<title>summary_groups:w&#45;&gt;users:e</title>
<path fill="none" stroke="#000000" d="M148.2601,-118.5877C134.5688,-129.1646 134.5379,-155.2 111.5,-155.2"/>
<polygon fill="#000000" stroke="#000000" points="154.3792,-116.6337 163.0952,-117.6294 158.1896,-115.4168 162,-114.2 162,-114.2 162,-114.2 158.1896,-115.4168 160.9048,-110.7706 154.3792,-116.6337 154.3792,-116.6337"/>
<ellipse fill="none" stroke="#000000" cx="151.3308" cy="-117.6072" rx="3.2" ry="3.2"/>
</g>
</g>
</svg>
