<?xml version="1.0" encoding="UTF-8" standalone="no"?>
<!DOCTYPE svg PUBLIC "-//W3C//DTD SVG 1.1//EN"
 "http://www.w3.org/Graphics/SVG/1.1/DTD/svg11.dtd">
<!-- Generated by graphviz version 2.40.1 (20161225.0304)
 -->
<!-- Title: twoDegreesRelationshipsDiagram Pages: 1 -->
<svg width="801pt" height="499pt"
 viewBox="0.00 0.00 801.00 499.20" xmlns="http://www.w3.org/2000/svg" xmlns:xlink="http://www.w3.org/1999/xlink">
<g id="graph0" class="graph" transform="scale(1 1) rotate(0) translate(4 495.2)">
<title>twoDegreesRelationshipsDiagram</title>
<polygon fill="#ffffff" stroke="transparent" points="-4,4 -4,-495.2 797,-495.2 797,4 -4,4"/>
<text text-anchor="middle" x="72.4936" y="-7.3" font-family="Helvetica,sans-Serif" font-size="11.00" fill="#000000">Generated by SchemaSpy</text>
<!-- action_items -->
<g id="node1" class="node">
<title>action_items</title>
<g id="a_node1"><a xlink:href="../../tables/action_items.html" xlink:title="action_items" target="_top">
<polygon fill="#ffffff" stroke="transparent" points="625,-426.2 625,-487.2 756,-487.2 756,-426.2 625,-426.2"/>
<polygon fill="#f5f5f5" stroke="transparent" points="625.5,-463.7 625.5,-486.7 756.5,-486.7 756.5,-463.7 625.5,-463.7"/>
<polygon fill="none" stroke="#000000" points="625.5,-463.7 625.5,-486.7 756.5,-486.7 756.5,-463.7 625.5,-463.7"/>
<text text-anchor="start" x="630.5" y="-472.3" font-family="Helvetica,sans-Serif" font-weight="bold" font-size="11.00" fill="#000000">action_items</text>
<text text-anchor="start" x="722.0219" y="-471.8" font-family="Helvetica,sans-Serif" font-size="11.00" fill="#000000">[table]</text>
<polygon fill="none" stroke="#000000" points="625.5,-444.7 625.5,-463.7 756.5,-463.7 756.5,-444.7 625.5,-444.7"/>
<text text-anchor="start" x="628.5" y="-450.8" font-family="Helvetica,sans-Serif" font-size="11.00" fill="#000000">...</text>
<polygon fill="#ffffff" stroke="transparent" points="625.5,-425.7 625.5,-444.7 756.5,-444.7 756.5,-425.7 625.5,-425.7"/>
<polygon fill="none" stroke="#000000" points="625.5,-425.7 625.5,-444.7 756.5,-444.7 756.5,-425.7 625.5,-425.7"/>
<polygon fill="#ffffff" stroke="transparent" points="626.5,-426.7 626.5,-443.7 675.5,-443.7 675.5,-426.7 626.5,-426.7"/>
<text text-anchor="start" x="628.5" y="-431.8" font-family="Helvetica,sans-Serif" font-size="11.00" fill="#000000">&lt; 1</text>
<polygon fill="#ffffff" stroke="transparent" points="675.5,-426.7 675.5,-443.7 715.5,-443.7 715.5,-426.7 675.5,-426.7"/>
<text text-anchor="start" x="692.4431" y="-431.8" font-family="Helvetica,sans-Serif" font-size="11.00" fill="#000000"> &#160;</text>
<polygon fill="#ffffff" stroke="transparent" points="715.5,-426.7 715.5,-443.7 755.5,-443.7 755.5,-426.7 715.5,-426.7"/>
<text text-anchor="start" x="747.3862" y="-431.8" font-family="Helvetica,sans-Serif" font-size="11.00" fill="#000000"> &#160;</text>
<polygon fill="#000000" stroke="#000000" points="675.5,-426.7 675.5,-443.7 675.5,-443.7 675.5,-426.7 675.5,-426.7"/>
<polygon fill="#000000" stroke="#000000" points="715.5,-426.7 715.5,-443.7 715.5,-443.7 715.5,-426.7 715.5,-426.7"/>
</a>
</g>
</g>
<!-- summaries -->
<g id="node2" class="node">
<title>summaries</title>
<g id="a_node2"><a xlink:href="../../tables/summaries.html" xlink:title="summaries" target="_top">
<polygon fill="#ffffff" stroke="transparent" points="428,-300.2 428,-361.2 547,-361.2 547,-300.2 428,-300.2"/>
<polygon fill="#f5f5f5" stroke="transparent" points="428.5,-337.7 428.5,-360.7 547.5,-360.7 547.5,-337.7 428.5,-337.7"/>
<polygon fill="none" stroke="#000000" points="428.5,-337.7 428.5,-360.7 547.5,-360.7 547.5,-337.7 428.5,-337.7"/>
<text text-anchor="start" x="433.5" y="-346.3" font-family="Helvetica,sans-Serif" font-weight="bold" font-size="11.00" fill="#000000">summaries</text>
<text text-anchor="start" x="513.0219" y="-345.8" font-family="Helvetica,sans-Serif" font-size="11.00" fill="#000000">[table]</text>
<polygon fill="none" stroke="#000000" points="428.5,-318.7 428.5,-337.7 547.5,-337.7 547.5,-318.7 428.5,-318.7"/>
<text text-anchor="start" x="431.5" y="-324.8" font-family="Helvetica,sans-Serif" font-size="11.00" fill="#000000">...</text>
<polygon fill="#ffffff" stroke="transparent" points="428.5,-299.7 428.5,-318.7 547.5,-318.7 547.5,-299.7 428.5,-299.7"/>
<polygon fill="none" stroke="#000000" points="428.5,-299.7 428.5,-318.7 547.5,-318.7 547.5,-299.7 428.5,-299.7"/>
<polygon fill="#ffffff" stroke="transparent" points="429.5,-300.7 429.5,-317.7 471.5,-317.7 471.5,-300.7 429.5,-300.7"/>
<text text-anchor="start" x="431.5" y="-305.8" font-family="Helvetica,sans-Serif" font-size="11.00" fill="#000000">&lt; 2</text>
<polygon fill="#ffffff" stroke="transparent" points="471.5,-300.7 471.5,-317.7 504.5,-317.7 504.5,-300.7 471.5,-300.7"/>
<text text-anchor="start" x="484.9431" y="-305.8" font-family="Helvetica,sans-Serif" font-size="11.00" fill="#000000"> &#160;</text>
<polygon fill="#ffffff" stroke="transparent" points="504.5,-300.7 504.5,-317.7 546.5,-317.7 546.5,-300.7 504.5,-300.7"/>
<text text-anchor="start" x="528.9053" y="-305.8" font-family="Helvetica,sans-Serif" font-size="11.00" fill="#000000">4 &gt;</text>
<polygon fill="#000000" stroke="#000000" points="471.5,-300.7 471.5,-317.7 471.5,-317.7 471.5,-300.7 471.5,-300.7"/>
<polygon fill="#000000" stroke="#000000" points="504.5,-300.7 504.5,-317.7 504.5,-317.7 504.5,-300.7 504.5,-300.7"/>
</a>
</g>
</g>
<!-- action_items&#45;&gt;summaries -->
<g id="edge1" class="edge">
<title>action_items:w&#45;&gt;summaries:e</title>
<path fill="none" stroke="#000000" d="M611.072,-452.437C564.4598,-444.2795 527.6458,-398.3304 506.714,-365.2897"/>
<polygon fill="#000000" stroke="#000000" points="617.5305,-453.0023 625.186,-457.2863 621.5152,-453.3512 625.5,-453.7 625.5,-453.7 625.5,-453.7 621.5152,-453.3512 625.814,-450.1137 617.5305,-453.0023 617.5305,-453.0023"/>
<ellipse fill="none" stroke="#000000" cx="614.3427" cy="-452.7233" rx="3.2" ry="3.2"/>
</g>
<!-- users -->
<g id="node5" class="node">
<title>users</title>
<g id="a_node5"><a xlink:href="../../tables/users.html" xlink:title="users" target="_top">
<polygon fill="#ffffff" stroke="transparent" points="8,-182.2 8,-243.2 86,-243.2 86,-182.2 8,-182.2"/>
<polygon fill="#f5f5f5" stroke="transparent" points="8,-219.7 8,-242.7 86,-242.7 86,-219.7 8,-219.7"/>
<polygon fill="none" stroke="#000000" points="8,-219.7 8,-242.7 86,-242.7 86,-219.7 8,-219.7"/>
<text text-anchor="start" x="13" y="-228.3" font-family="Helvetica,sans-Serif" font-weight="bold" font-size="11.00" fill="#000000">users</text>
<text text-anchor="start" x="51.5219" y="-227.8" font-family="Helvetica,sans-Serif" font-size="11.00" fill="#000000">[table]</text>
<polygon fill="none" stroke="#000000" points="8,-200.7 8,-219.7 86,-219.7 86,-200.7 8,-200.7"/>
<text text-anchor="start" x="11" y="-206.8" font-family="Helvetica,sans-Serif" font-size="11.00" fill="#000000">...</text>
<polygon fill="#ffffff" stroke="transparent" points="8,-181.7 8,-200.7 86,-200.7 86,-181.7 8,-181.7"/>
<polygon fill="none" stroke="#000000" points="8,-181.7 8,-200.7 86,-200.7 86,-181.7 8,-181.7"/>
<polygon fill="#ffffff" stroke="transparent" points="9,-182.7 9,-199.7 32,-199.7 32,-182.7 9,-182.7"/>
<text text-anchor="start" x="11" y="-187.8" font-family="Helvetica,sans-Serif" font-size="11.00" fill="#000000"> &#160;</text>
<polygon fill="#ffffff" stroke="transparent" points="32,-182.7 32,-199.7 54,-199.7 54,-182.7 32,-182.7"/>
<text text-anchor="start" x="39.9431" y="-187.8" font-family="Helvetica,sans-Serif" font-size="11.00" fill="#000000"> &#160;</text>
<polygon fill="#ffffff" stroke="transparent" points="54,-182.7 54,-199.7 85,-199.7 85,-182.7 54,-182.7"/>
<text text-anchor="start" x="67.4053" y="-187.8" font-family="Helvetica,sans-Serif" font-size="11.00" fill="#000000">4 &gt;</text>
<polygon fill="#000000" stroke="#000000" points="32,-182.7 32,-199.7 32,-199.7 32,-182.7 32,-182.7"/>
<polygon fill="#000000" stroke="#000000" points="54,-182.7 54,-199.7 54,-199.7 54,-182.7 54,-182.7"/>
</a>
</g>
</g>
<!-- summaries&#45;&gt;users -->
<g id="edge5" class="edge">
<title>summaries:w&#45;&gt;users:e</title>
<path fill="none" stroke="#000000" d="M405.7746,-358.2187C328.6638,-378.9776 212.4581,-396.3944 127,-347.7 89.482,-326.3221 67.755,-279.6658 56.6473,-247.2278"/>
<polygon fill="#000000" stroke="#000000" points="411.9981,-356.476 420.6725,-357.7855 415.8499,-355.3974 419.7017,-354.3188 419.7017,-354.3188 419.7017,-354.3188 415.8499,-355.3974 418.731,-350.8522 411.9981,-356.476 411.9981,-356.476"/>
<ellipse fill="none" stroke="#000000" cx="408.9166" cy="-357.3389" rx="3.2" ry="3.2"/>
</g>
<!-- summary_groups -->
<g id="node6" class="node">
<title>summary_groups</title>
<g id="a_node6"><a xlink:href="../../tables/summary_groups.html" xlink:title="summary_groups" target="_top">
<polygon fill="#ffffff" stroke="transparent" points="135,-202.7 135,-336.7 379,-336.7 379,-202.7 135,-202.7"/>
<polygon fill="#f5f5f5" stroke="transparent" points="137,-311.7 137,-334.7 377,-334.7 377,-311.7 137,-311.7"/>
<polygon fill="none" stroke="#000000" points="137,-311.7 137,-334.7 377,-334.7 377,-311.7 137,-311.7"/>
<text text-anchor="start" x="142" y="-320.3" font-family="Helvetica,sans-Serif" font-weight="bold" font-size="11.00" fill="#000000">summary_groups</text>
<text text-anchor="start" x="342.0437" y="-319.8" font-family="Helvetica,sans-Serif" font-size="11.00" fill="#000000">[table]</text>
<polygon fill="none" stroke="#000000" points="137,-289.7 137,-311.7 283,-311.7 283,-289.7 137,-289.7"/>
<image xlink:href="../../images/primaryKeys.png" width="11px" height="12px" preserveAspectRatio="xMinYMin meet" x="142" y="-306.7"/>
<text text-anchor="start" x="157" y="-296.8" font-family="Helvetica,sans-Serif" font-size="11.00" fill="#000000">id</text>
<polygon fill="none" stroke="#000000" points="283,-289.7 283,-311.7 377,-311.7 377,-289.7 283,-289.7"/>
<text text-anchor="start" x="285.9758" y="-297.4" font-family="Helvetica,sans-Serif" font-size="11.00" fill="#000000">uuid[2147483647]</text>
<polygon fill="#ffffff" stroke="transparent" points="137,-267.7 137,-289.7 283,-289.7 283,-267.7 137,-267.7"/>
<polygon fill="none" stroke="#000000" points="137,-267.7 137,-289.7 283,-289.7 283,-267.7 137,-267.7"/>
<image xlink:href="../../images/foreignKeys.png" width="11px" height="12px" preserveAspectRatio="xMinYMin meet" x="142" y="-284.7"/>
<text text-anchor="start" x="157" y="-274.8" font-family="Helvetica,sans-Serif" font-size="11.00" fill="#000000">user_id</text>
<polygon fill="none" stroke="#000000" points="283,-267.7 283,-289.7 377,-289.7 377,-267.7 283,-267.7"/>
<text text-anchor="start" x="285.9758" y="-275.4" font-family="Helvetica,sans-Serif" font-size="11.00" fill="#000000">uuid[2147483647]</text>
<polygon fill="#ffffff" stroke="transparent" points="137,-245.7 137,-267.7 283,-267.7 283,-245.7 137,-245.7"/>
<polygon fill="none" stroke="#000000" points="137,-245.7 137,-267.7 283,-267.7 283,-245.7 137,-245.7"/>
<text text-anchor="start" x="157" y="-252.8" font-family="Helvetica,sans-Serif" font-size="11.00" fill="#000000">name</text>
<polygon fill="none" stroke="#000000" points="283,-245.7 283,-267.7 377,-267.7 377,-245.7 283,-245.7"/>
<text text-anchor="start" x="286" y="-253.4" font-family="Helvetica,sans-Serif" font-size="11.00" fill="#000000">varchar[255]</text>
<polygon fill="none" stroke="#000000" points="137,-223.7 137,-245.7 283,-245.7 283,-223.7 137,-223.7"/>
<text text-anchor="start" x="157" y="-230.8" font-family="Helvetica,sans-Serif" font-size="11.00" fill="#000000">created_at</text>
<polygon fill="none" stroke="#000000" points="283,-223.7 283,-245.7 377,-245.7 377,-223.7 283,-223.7"/>
<text text-anchor="start" x="286" y="-231.4" font-family="Helvetica,sans-Serif" font-size="11.00" fill="#000000">timestamptz[35,6]</text>
<polygon fill="#ffffff" stroke="transparent" points="137,-204.7 137,-223.7 377,-223.7 377,-204.7 137,-204.7"/>
<polygon fill="none" stroke="#000000" points="137,-204.7 137,-223.7 377,-223.7 377,-204.7 137,-204.7"/>
<polygon fill="#ffffff" stroke="transparent" points="138,-205.7 138,-222.7 221,-222.7 221,-205.7 138,-205.7"/>
<text text-anchor="start" x="140" y="-210.8" font-family="Helvetica,sans-Serif" font-size="11.00" fill="#000000">&lt; 1</text>
<polygon fill="#ffffff" stroke="transparent" points="221,-205.7 221,-222.7 294,-222.7 294,-205.7 221,-205.7"/>
<text text-anchor="start" x="254.4431" y="-210.8" font-family="Helvetica,sans-Serif" font-size="11.00" fill="#000000"> &#160;</text>
<polygon fill="#ffffff" stroke="transparent" points="294,-205.7 294,-222.7 376,-222.7 376,-205.7 294,-205.7"/>
<text text-anchor="start" x="358.4053" y="-210.8" font-family="Helvetica,sans-Serif" font-size="11.00" fill="#000000">1 &gt;</text>
<polygon fill="#000000" stroke="#000000" points="221,-205.7 221,-222.7 221,-222.7 221,-205.7 221,-205.7"/>
<polygon fill="#000000" stroke="#000000" points="294,-205.7 294,-222.7 294,-222.7 294,-205.7 294,-205.7"/>
<polygon fill="none" stroke="#000000" stroke-width="2" points="136,-203.7 136,-335.7 378,-335.7 378,-203.7 136,-203.7"/>
</a>
</g>
</g>
<!-- summaries&#45;&gt;summary_groups -->
<g id="edge4" class="edge">
<title>summaries:w&#45;&gt;summary_groups:e</title>
<path fill="none" stroke="#000000" d="M405.5778,-303.378C396.0406,-301.7176 386.3724,-300.7 377,-300.7"/>
<polygon fill="#000000" stroke="#000000" points="412.0623,-304.7206 419.1661,-309.868 415.9792,-305.5317 419.8961,-306.3428 419.8961,-306.3428 419.8961,-306.3428 415.9792,-305.5317 420.6261,-302.8176 412.0623,-304.7206 412.0623,-304.7206"/>
<ellipse fill="none" stroke="#000000" cx="408.9288" cy="-304.0718" rx="3.2" ry="3.2"/>
</g>
<!-- decisions -->
<g id="node3" class="node">
<title>decisions</title>
<g id="a_node3"><a xlink:href="../../tables/decisions.html" xlink:title="decisions" target="_top">
<polygon fill="#ffffff" stroke="transparent" points="637,-344.2 637,-405.2 744,-405.2 744,-344.2 637,-344.2"/>
<polygon fill="#f5f5f5" stroke="transparent" points="637.5,-381.7 637.5,-404.7 744.5,-404.7 744.5,-381.7 637.5,-381.7"/>
<polygon fill="none" stroke="#000000" points="637.5,-381.7 637.5,-404.7 744.5,-404.7 744.5,-381.7 637.5,-381.7"/>
<text text-anchor="start" x="642.5" y="-390.3" font-family="Helvetica,sans-Serif" font-weight="bold" font-size="11.00" fill="#000000">decisions</text>
<text text-anchor="start" x="710.0219" y="-389.8" font-family="Helvetica,sans-Serif" font-size="11.00" fill="#000000">[table]</text>
<polygon fill="none" stroke="#000000" points="637.5,-362.7 637.5,-381.7 744.5,-381.7 744.5,-362.7 637.5,-362.7"/>
<text text-anchor="start" x="640.5" y="-368.8" font-family="Helvetica,sans-Serif" font-size="11.00" fill="#000000">...</text>
<polygon fill="#ffffff" stroke="transparent" points="637.5,-343.7 637.5,-362.7 744.5,-362.7 744.5,-343.7 637.5,-343.7"/>
<polygon fill="none" stroke="#000000" points="637.5,-343.7 637.5,-362.7 744.5,-362.7 744.5,-343.7 637.5,-343.7"/>
<polygon fill="#ffffff" stroke="transparent" points="638.5,-344.7 638.5,-361.7 679.5,-361.7 679.5,-344.7 638.5,-344.7"/>
<text text-anchor="start" x="640.5" y="-349.8" font-family="Helvetica,sans-Serif" font-size="11.00" fill="#000000">&lt; 1</text>
<polygon fill="#ffffff" stroke="transparent" points="679.5,-344.7 679.5,-361.7 711.5,-361.7 711.5,-344.7 679.5,-344.7"/>
<text text-anchor="start" x="692.4431" y="-349.8" font-family="Helvetica,sans-Serif" font-size="11.00" fill="#000000"> &#160;</text>
<polygon fill="#ffffff" stroke="transparent" points="711.5,-344.7 711.5,-361.7 743.5,-361.7 743.5,-344.7 711.5,-344.7"/>
<text text-anchor="start" x="735.3862" y="-349.8" font-family="Helvetica,sans-Serif" font-size="11.00" fill="#000000"> &#160;</text>
<polygon fill="#000000" stroke="#000000" points="679.5,-344.7 679.5,-361.7 679.5,-361.7 679.5,-344.7 679.5,-344.7"/>
<polygon fill="#000000" stroke="#000000" points="711.5,-344.7 711.5,-361.7 711.5,-361.7 711.5,-344.7 711.5,-344.7"/>
</a>
</g>
</g>
<!-- decisions&#45;&gt;summaries -->
<g id="edge2" class="edge">
<title>decisions:w&#45;&gt;summaries:e</title>
<path fill="none" stroke="#000000" d="M622.8371,-371.1248C599.7483,-369.3709 576.0894,-363.8146 555.1423,-357.3602"/>
<polygon fill="#000000" stroke="#000000" points="629.5061,-371.3864 637.3589,-375.2972 633.5031,-371.5432 637.5,-371.7 637.5,-371.7 637.5,-371.7 633.5031,-371.5432 637.6411,-368.1028 629.5061,-371.3864 629.5061,-371.3864"/>
<ellipse fill="none" stroke="#000000" cx="626.3086" cy="-371.2609" rx="3.2" ry="3.2"/>
</g>
<!-- oauth_identities -->
<g id="node4" class="node">
<title>oauth_identities</title>
<g id="a_node4"><a xlink:href="../../tables/oauth_identities.html" xlink:title="oauth_identities" target="_top">
<polygon fill="#ffffff" stroke="transparent" points="178.5,-120.2 178.5,-181.2 335.5,-181.2 335.5,-120.2 178.5,-120.2"/>
<polygon fill="#f5f5f5" stroke="transparent" points="179,-157.7 179,-180.7 336,-180.7 336,-157.7 179,-157.7"/>
<polygon fill="none" stroke="#000000" points="179,-157.7 179,-180.7 336,-180.7 336,-157.7 179,-157.7"/>
<text text-anchor="start" x="184" y="-166.3" font-family="Helvetica,sans-Serif" font-weight="bold" font-size="11.00" fill="#000000">oauth_identities</text>
<text text-anchor="start" x="301.5219" y="-165.8" font-family="Helvetica,sans-Serif" font-size="11.00" fill="#000000">[table]</text>
<polygon fill="none" stroke="#000000" points="179,-138.7 179,-157.7 336,-157.7 336,-138.7 179,-138.7"/>
<text text-anchor="start" x="182" y="-144.8" font-family="Helvetica,sans-Serif" font-size="11.00" fill="#000000">...</text>
<polygon fill="#ffffff" stroke="transparent" points="179,-119.7 179,-138.7 336,-138.7 336,-119.7 179,-119.7"/>
<polygon fill="none" stroke="#000000" points="179,-119.7 179,-138.7 336,-138.7 336,-119.7 179,-119.7"/>
<polygon fill="#ffffff" stroke="transparent" points="180,-120.7 180,-137.7 238,-137.7 238,-120.7 180,-120.7"/>
<text text-anchor="start" x="182" y="-125.8" font-family="Helvetica,sans-Serif" font-size="11.00" fill="#000000">&lt; 1</text>
<polygon fill="#ffffff" stroke="transparent" points="238,-120.7 238,-137.7 287,-137.7 287,-120.7 238,-120.7"/>
<text text-anchor="start" x="259.4431" y="-125.8" font-family="Helvetica,sans-Serif" font-size="11.00" fill="#000000"> &#160;</text>
<polygon fill="#ffffff" stroke="transparent" points="287,-120.7 287,-137.7 335,-137.7 335,-120.7 287,-120.7"/>
<text text-anchor="start" x="326.8862" y="-125.8" font-family="Helvetica,sans-Serif" font-size="11.00" fill="#000000"> &#160;</text>
<polygon fill="#000000" stroke="#000000" points="238,-120.7 238,-137.7 238,-137.7 238,-120.7 238,-120.7"/>
<polygon fill="#000000" stroke="#000000" points="287,-120.7 287,-137.7 287,-137.7 287,-120.7 287,-120.7"/>
</a>
</g>
</g>
<!-- oauth_identities&#45;&gt;users -->
<g id="edge3" class="edge">
<title>oauth_identities:w&#45;&gt;users:e</title>
<path fill="none" stroke="#000000" d="M164.3399,-148.7358C138.0172,-152.3667 112.3234,-165.009 91.7221,-178.1066"/>
<polygon fill="#000000" stroke="#000000" points="171.0199,-148.2639 179.2537,-151.291 175.0099,-147.9819 179,-147.7 179,-147.7 179,-147.7 175.0099,-147.9819 178.7463,-144.109 171.0199,-148.2639 171.0199,-148.2639"/>
<ellipse fill="none" stroke="#000000" cx="167.8278" cy="-148.4894" rx="3.2" ry="3.2"/>
</g>
<!-- summary_groups&#45;&gt;users -->
<g id="edge6" class="edge">
<title>summary_groups:w&#45;&gt;users:e</title>
<path fill="none" stroke="#000000" d="M122.656,-276.909C104.3257,-272.3893 87.8242,-259.9715 74.9451,-247.2464"/>
<polygon fill="#000000" stroke="#000000" points="129.0616,-277.7088 136.5539,-282.2723 133.0308,-278.2044 137,-278.7 137,-278.7 137,-278.7 133.0308,-278.2044 137.4461,-275.1277 129.0616,-277.7088 129.0616,-277.7088"/>
<ellipse fill="none" stroke="#000000" cx="125.8863" cy="-277.3123" rx="3.2" ry="3.2"/>
</g>
<!-- topics -->
<g id="node7" class="node">
<title>topics</title>
<g id="a_node7"><a xlink:href="../../tables/topics.html" xlink:title="topics" target="_top">
<polygon fill="#ffffff" stroke="transparent" points="649,-262.2 649,-323.2 732,-323.2 732,-262.2 649,-262.2"/>
<polygon fill="#f5f5f5" stroke="transparent" points="649.5,-299.7 649.5,-322.7 732.5,-322.7 732.5,-299.7 649.5,-299.7"/>
<polygon fill="none" stroke="#000000" points="649.5,-299.7 649.5,-322.7 732.5,-322.7 732.5,-299.7 649.5,-299.7"/>
<text text-anchor="start" x="654.5" y="-308.3" font-family="Helvetica,sans-Serif" font-weight="bold" font-size="11.00" fill="#000000">topics</text>
<text text-anchor="start" x="698.0219" y="-307.8" font-family="Helvetica,sans-Serif" font-size="11.00" fill="#000000">[table]</text>
<polygon fill="none" stroke="#000000" points="649.5,-280.7 649.5,-299.7 732.5,-299.7 732.5,-280.7 649.5,-280.7"/>
<text text-anchor="start" x="652.5" y="-286.8" font-family="Helvetica,sans-Serif" font-size="11.00" fill="#000000">...</text>
<polygon fill="#ffffff" stroke="transparent" points="649.5,-261.7 649.5,-280.7 732.5,-280.7 732.5,-261.7 649.5,-261.7"/>
<polygon fill="none" stroke="#000000" points="649.5,-261.7 649.5,-280.7 732.5,-280.7 732.5,-261.7 649.5,-261.7"/>
<polygon fill="#ffffff" stroke="transparent" points="650.5,-262.7 650.5,-279.7 683.5,-279.7 683.5,-262.7 650.5,-262.7"/>
<text text-anchor="start" x="652.5" y="-267.8" font-family="Helvetica,sans-Serif" font-size="11.00" fill="#000000">&lt; 1</text>
<polygon fill="#ffffff" stroke="transparent" points="683.5,-262.7 683.5,-279.7 707.5,-279.7 707.5,-262.7 683.5,-262.7"/>
<text text-anchor="start" x="692.4431" y="-267.8" font-family="Helvetica,sans-Serif" font-size="11.00" fill="#000000"> &#160;</text>
<polygon fill="#ffffff" stroke="transparent" points="707.5,-262.7 707.5,-279.7 731.5,-279.7 731.5,-262.7 707.5,-262.7"/>
<text text-anchor="start" x="723.3862" y="-267.8" font-family="Helvetica,sans-Serif" font-size="11.00" fill="#000000"> &#160;</text>
<polygon fill="#000000" stroke="#000000" points="683.5,-262.7 683.5,-279.7 683.5,-279.7 683.5,-262.7 683.5,-262.7"/>
<polygon fill="#000000" stroke="#000000" points="707.5,-262.7 707.5,-279.7 707.5,-279.7 707.5,-262.7 707.5,-262.7"/>
</a>
</g>
</g>
<!-- topics&#45;&gt;summaries -->
<g id="edge7" class="edge">
<title>topics:w&#45;&gt;summaries:e</title>
<path fill="none" stroke="#000000" d="M634.9051,-290.1951C607.6233,-291.9903 579.4432,-298.4333 555.122,-305.6691"/>
<polygon fill="#000000" stroke="#000000" points="641.5046,-289.9713 649.6221,-293.2979 645.5023,-289.8357 649.5,-289.7 649.5,-289.7 649.5,-289.7 645.5023,-289.8357 649.3779,-286.1021 641.5046,-289.9713 641.5046,-289.9713"/>
<ellipse fill="none" stroke="#000000" cx="638.3064" cy="-290.0798" rx="3.2" ry="3.2"/>
</g>
<!-- transcript_segments -->
<g id="node8" class="node">
<title>transcript_segments</title>
<g id="a_node8"><a xlink:href="../../tables/transcript_segments.html" xlink:title="transcript_segments" target="_top">
<polygon fill="#ffffff" stroke="transparent" points="596,-180.2 596,-241.2 785,-241.2 785,-180.2 596,-180.2"/>
<polygon fill="#f5f5f5" stroke="transparent" points="596.5,-217.7 596.5,-240.7 785.5,-240.7 785.5,-217.7 596.5,-217.7"/>
<polygon fill="none" stroke="#000000" points="596.5,-217.7 596.5,-240.7 785.5,-240.7 785.5,-217.7 596.5,-217.7"/>
<text text-anchor="start" x="601.5" y="-226.3" font-family="Helvetica,sans-Serif" font-weight="bold" font-size="11.00" fill="#000000">transcript_segments</text>
<text text-anchor="start" x="751.0219" y="-225.8" font-family="Helvetica,sans-Serif" font-size="11.00" fill="#000000">[table]</text>
<polygon fill="none" stroke="#000000" points="596.5,-198.7 596.5,-217.7 785.5,-217.7 785.5,-198.7 596.5,-198.7"/>
<text text-anchor="start" x="599.5" y="-204.8" font-family="Helvetica,sans-Serif" font-size="11.00" fill="#000000">...</text>
<polygon fill="#ffffff" stroke="transparent" points="596.5,-179.7 596.5,-198.7 785.5,-198.7 785.5,-179.7 596.5,-179.7"/>
<polygon fill="none" stroke="#000000" points="596.5,-179.7 596.5,-198.7 785.5,-198.7 785.5,-179.7 596.5,-179.7"/>
<polygon fill="#ffffff" stroke="transparent" points="597.5,-180.7 597.5,-197.7 666.5,-197.7 666.5,-180.7 597.5,-180.7"/>
<text text-anchor="start" x="599.5" y="-185.8" font-family="Helvetica,sans-Serif" font-size="11.00" fill="#000000">&lt; 1</text>
<polygon fill="#ffffff" stroke="transparent" points="666.5,-180.7 666.5,-197.7 725.5,-197.7 725.5,-180.7 666.5,-180.7"/>
<text text-anchor="start" x="692.9431" y="-185.8" font-family="Helvetica,sans-Serif" font-size="11.00" fill="#000000"> &#160;</text>
<polygon fill="#ffffff" stroke="transparent" points="725.5,-180.7 725.5,-197.7 784.5,-197.7 784.5,-180.7 725.5,-180.7"/>
<text text-anchor="start" x="776.3862" y="-185.8" font-family="Helvetica,sans-Serif" font-size="11.00" fill="#000000"> &#160;</text>
<polygon fill="#000000" stroke="#000000" points="666.5,-180.7 666.5,-197.7 666.5,-197.7 666.5,-180.7 666.5,-180.7"/>
<polygon fill="#000000" stroke="#000000" points="725.5,-180.7 725.5,-197.7 725.5,-197.7 725.5,-180.7 725.5,-180.7"/>
</a>
</g>
</g>
<!-- transcript_segments&#45;&gt;summaries -->
<g id="edge8" class="edge">
<title>transcript_segments:w&#45;&gt;summaries:e</title>
<path fill="none" stroke="#000000" d="M581.9918,-209.3569C542.4527,-218.501 515.4405,-263.567 500.7329,-296.1103"/>
<polygon fill="#000000" stroke="#000000" points="588.5517,-208.6078 596.9085,-211.2768 592.5258,-208.1539 596.5,-207.7 596.5,-207.7 596.5,-207.7 592.5258,-208.1539 596.0915,-204.1232 588.5517,-208.6078 588.5517,-208.6078"/>
<ellipse fill="none" stroke="#000000" cx="585.3723" cy="-208.9709" rx="3.2" ry="3.2"/>
</g>
<!-- user_sessions -->
<g id="node9" class="node">
<title>user_sessions</title>
<g id="a_node9"><a xlink:href="../../tables/user_sessions.html" xlink:title="user_sessions" target="_top">
<polygon fill="#ffffff" stroke="transparent" points="187,-38.2 187,-99.2 327,-99.2 327,-38.2 187,-38.2"/>
<polygon fill="#f5f5f5" stroke="transparent" points="187,-75.7 187,-98.7 327,-98.7 327,-75.7 187,-75.7"/>
<polygon fill="none" stroke="#000000" points="187,-75.7 187,-98.7 327,-98.7 327,-75.7 187,-75.7"/>
<text text-anchor="start" x="192" y="-84.3" font-family="Helvetica,sans-Serif" font-weight="bold" font-size="11.00" fill="#000000">user_sessions</text>
<text text-anchor="start" x="292.5219" y="-83.8" font-family="Helvetica,sans-Serif" font-size="11.00" fill="#000000">[table]</text>
<polygon fill="none" stroke="#000000" points="187,-56.7 187,-75.7 327,-75.7 327,-56.7 187,-56.7"/>
<text text-anchor="start" x="190" y="-62.8" font-family="Helvetica,sans-Serif" font-size="11.00" fill="#000000">...</text>
<polygon fill="#ffffff" stroke="transparent" points="187,-37.7 187,-56.7 327,-56.7 327,-37.7 187,-37.7"/>
<polygon fill="none" stroke="#000000" points="187,-37.7 187,-56.7 327,-56.7 327,-37.7 187,-37.7"/>
<polygon fill="#ffffff" stroke="transparent" points="188,-38.7 188,-55.7 240,-55.7 240,-38.7 188,-38.7"/>
<text text-anchor="start" x="190" y="-43.8" font-family="Helvetica,sans-Serif" font-size="11.00" fill="#000000">&lt; 1</text>
<polygon fill="#ffffff" stroke="transparent" points="240,-38.7 240,-55.7 283,-55.7 283,-38.7 240,-38.7"/>
<text text-anchor="start" x="258.4431" y="-43.8" font-family="Helvetica,sans-Serif" font-size="11.00" fill="#000000"> &#160;</text>
<polygon fill="#ffffff" stroke="transparent" points="283,-38.7 283,-55.7 326,-55.7 326,-38.7 283,-38.7"/>
<text text-anchor="start" x="317.8862" y="-43.8" font-family="Helvetica,sans-Serif" font-size="11.00" fill="#000000"> &#160;</text>
<polygon fill="#000000" stroke="#000000" points="240,-38.7 240,-55.7 240,-55.7 240,-38.7 240,-38.7"/>
<polygon fill="#000000" stroke="#000000" points="283,-38.7 283,-55.7 283,-55.7 283,-38.7 283,-38.7"/>
</a>
</g>
</g>
<!-- user_sessions&#45;&gt;users -->
<g id="edge9" class="edge">
<title>user_sessions:w&#45;&gt;users:e</title>
<path fill="none" stroke="#000000" d="M172.5486,-66.9733C118.6142,-76.5399 80.8758,-137.8741 61.6545,-177.8631"/>
<polygon fill="#000000" stroke="#000000" points="179.0309,-66.4022 187.316,-69.2861 183.0154,-66.0511 187,-65.7 187,-65.7 187,-65.7 183.0154,-66.0511 186.684,-62.1139 179.0309,-66.4022 179.0309,-66.4022"/>
<ellipse fill="none" stroke="#000000" cx="175.8432" cy="-66.6831" rx="3.2" ry="3.2"/>
</g>
</g>
</svg>
