<?xml version="1.0" encoding="UTF-8" standalone="no"?>
<!DOCTYPE svg PUBLIC "-//W3C//DTD SVG 1.1//EN"
 "http://www.w3.org/Graphics/SVG/1.1/DTD/svg11.dtd">
<!-- Generated by graphviz version 2.40.1 (20161225.0304)
 -->
<!-- Title: oneDegreeRelationshipsDiagram Pages: 1 -->
<svg width="885pt" height="549pt"
 viewBox="0.00 0.00 885.00 549.20" xmlns="http://www.w3.org/2000/svg" xmlns:xlink="http://www.w3.org/1999/xlink">
<g id="graph0" class="graph" transform="scale(1 1) rotate(0) translate(4 545.2)">
<title>oneDegreeRelationshipsDiagram</title>
<polygon fill="#ffffff" stroke="transparent" points="-4,4 -4,-545.2 881,-545.2 881,4 -4,4"/>
<text text-anchor="middle" x="72.4936" y="-7.3" font-family="Helvetica,sans-Serif" font-size="11.00" fill="#000000">Generated by SchemaSpy</text>
<!-- action_items -->
<g id="node1" class="node">
<title>action_items</title>
<g id="a_node1"><a xlink:href="../../tables/action_items.html" xlink:title="action_items" target="_top">
<polygon fill="#ffffff" stroke="transparent" points="709,-432.2 709,-537.2 840,-537.2 840,-432.2 709,-432.2"/>
<polygon fill="#f5f5f5" stroke="transparent" points="709.5,-513.7 709.5,-536.7 840.5,-536.7 840.5,-513.7 709.5,-513.7"/>
<polygon fill="none" stroke="#000000" points="709.5,-513.7 709.5,-536.7 840.5,-536.7 840.5,-513.7 709.5,-513.7"/>
<text text-anchor="start" x="714.5" y="-522.3" font-family="Helvetica,sans-Serif" font-weight="bold" font-size="11.00" fill="#000000">action_items</text>
<text text-anchor="start" x="806.0219" y="-521.8" font-family="Helvetica,sans-Serif" font-size="11.00" fill="#000000">[table]</text>
<polygon fill="none" stroke="#000000" points="709.5,-491.7 709.5,-513.7 840.5,-513.7 840.5,-491.7 709.5,-491.7"/>
<image xlink:href="../../images/primaryKeys.png" width="11px" height="12px" preserveAspectRatio="xMinYMin meet" x="714.5" y="-508.7"/>
<text text-anchor="start" x="738.5" y="-498.8" font-family="Helvetica,sans-Serif" font-size="11.00" fill="#000000">id</text>
<polygon fill="#ffffff" stroke="transparent" points="709.5,-469.7 709.5,-491.7 840.5,-491.7 840.5,-469.7 709.5,-469.7"/>
<polygon fill="none" stroke="#000000" points="709.5,-469.7 709.5,-491.7 840.5,-491.7 840.5,-469.7 709.5,-469.7"/>
<image xlink:href="../../images/foreignKeys.png" width="11px" height="12px" preserveAspectRatio="xMinYMin meet" x="714.5" y="-486.7"/>
<text text-anchor="start" x="738.5" y="-476.8" font-family="Helvetica,sans-Serif" font-size="11.00" fill="#000000">summary_id</text>
<polygon fill="none" stroke="#000000" points="709.5,-450.7 709.5,-469.7 840.5,-469.7 840.5,-450.7 709.5,-450.7"/>
<text text-anchor="start" x="712.5" y="-456.8" font-family="Helvetica,sans-Serif" font-size="11.00" fill="#000000">...</text>
<polygon fill="#ffffff" stroke="transparent" points="709.5,-431.7 709.5,-450.7 840.5,-450.7 840.5,-431.7 709.5,-431.7"/>
<polygon fill="none" stroke="#000000" points="709.5,-431.7 709.5,-450.7 840.5,-450.7 840.5,-431.7 709.5,-431.7"/>
<polygon fill="#ffffff" stroke="transparent" points="710.5,-432.7 710.5,-449.7 759.5,-449.7 759.5,-432.7 710.5,-432.7"/>
<text text-anchor="start" x="712.5" y="-437.8" font-family="Helvetica,sans-Serif" font-size="11.00" fill="#000000">&lt; 1</text>
<polygon fill="#ffffff" stroke="transparent" points="759.5,-432.7 759.5,-449.7 799.5,-449.7 799.5,-432.7 759.5,-432.7"/>
<text text-anchor="start" x="776.4431" y="-437.8" font-family="Helvetica,sans-Serif" font-size="11.00" fill="#000000"> &#160;</text>
<polygon fill="#ffffff" stroke="transparent" points="799.5,-432.7 799.5,-449.7 839.5,-449.7 839.5,-432.7 799.5,-432.7"/>
<text text-anchor="start" x="831.3862" y="-437.8" font-family="Helvetica,sans-Serif" font-size="11.00" fill="#000000"> &#160;</text>
<polygon fill="#000000" stroke="#000000" points="759.5,-432.7 759.5,-449.7 759.5,-449.7 759.5,-432.7 759.5,-432.7"/>
<polygon fill="#000000" stroke="#000000" points="799.5,-432.7 799.5,-449.7 799.5,-449.7 799.5,-432.7 799.5,-432.7"/>
</a>
</g>
</g>
<!-- summaries -->
<g id="node2" class="node">
<title>summaries</title>
<g id="a_node2"><a xlink:href="../../tables/summaries.html" xlink:title="summaries" target="_top">
<polygon fill="#ffffff" stroke="transparent" points="373,-105.7 373,-327.7 631,-327.7 631,-105.7 373,-105.7"/>
<polygon fill="#f5f5f5" stroke="transparent" points="375,-302.7 375,-325.7 629,-325.7 629,-302.7 375,-302.7"/>
<polygon fill="none" stroke="#000000" points="375,-302.7 375,-325.7 629,-325.7 629,-302.7 375,-302.7"/>
<text text-anchor="start" x="380" y="-311.3" font-family="Helvetica,sans-Serif" font-weight="bold" font-size="11.00" fill="#000000">summaries</text>
<text text-anchor="start" x="594.0437" y="-310.8" font-family="Helvetica,sans-Serif" font-size="11.00" fill="#000000">[table]</text>
<polygon fill="none" stroke="#000000" points="375,-280.7 375,-302.7 520,-302.7 520,-280.7 375,-280.7"/>
<image xlink:href="../../images/primaryKeys.png" width="11px" height="12px" preserveAspectRatio="xMinYMin meet" x="380" y="-297.7"/>
<text text-anchor="start" x="395" y="-287.8" font-family="Helvetica,sans-Serif" font-size="11.00" fill="#000000">id</text>
<polygon fill="none" stroke="#000000" points="520,-280.7 520,-302.7 629,-302.7 629,-280.7 520,-280.7"/>
<text text-anchor="start" x="523" y="-288.4" font-family="Helvetica,sans-Serif" font-size="11.00" fill="#000000">uuid[2147483647]</text>
<polygon fill="none" stroke="#000000" points="375,-258.7 375,-280.7 520,-280.7 520,-258.7 375,-258.7"/>
<text text-anchor="start" x="395" y="-265.8" font-family="Helvetica,sans-Serif" font-size="11.00" fill="#000000">filename</text>
<polygon fill="none" stroke="#000000" points="520,-258.7 520,-280.7 629,-280.7 629,-258.7 520,-258.7"/>
<text text-anchor="start" x="523" y="-266.4" font-family="Helvetica,sans-Serif" font-size="11.00" fill="#000000">varchar[255]</text>
<polygon fill="none" stroke="#000000" points="375,-236.7 375,-258.7 520,-258.7 520,-236.7 375,-236.7"/>
<text text-anchor="start" x="395" y="-243.8" font-family="Helvetica,sans-Serif" font-size="11.00" fill="#000000">created_at</text>
<polygon fill="none" stroke="#000000" points="520,-236.7 520,-258.7 629,-258.7 629,-236.7 520,-236.7"/>
<text text-anchor="start" x="523" y="-244.4" font-family="Helvetica,sans-Serif" font-size="11.00" fill="#000000">timestamptz[35,6]</text>
<polygon fill="none" stroke="#000000" points="375,-214.7 375,-236.7 520,-236.7 520,-214.7 375,-214.7"/>
<text text-anchor="start" x="395" y="-221.8" font-family="Helvetica,sans-Serif" font-size="11.00" fill="#000000">overall_summary</text>
<polygon fill="none" stroke="#000000" points="520,-214.7 520,-236.7 629,-236.7 629,-214.7 520,-214.7"/>
<text text-anchor="start" x="522.5344" y="-222.4" font-family="Helvetica,sans-Serif" font-size="11.00" fill="#000000">varchar[2147483647]</text>
<polygon fill="#ffffff" stroke="transparent" points="375,-192.7 375,-214.7 520,-214.7 520,-192.7 375,-192.7"/>
<polygon fill="none" stroke="#000000" points="375,-192.7 375,-214.7 520,-214.7 520,-192.7 375,-192.7"/>
<text text-anchor="start" x="395" y="-199.8" font-family="Helvetica,sans-Serif" font-size="11.00" fill="#000000">content_hash</text>
<polygon fill="none" stroke="#000000" points="520,-192.7 520,-214.7 629,-214.7 629,-192.7 520,-192.7"/>
<text text-anchor="start" x="523" y="-200.4" font-family="Helvetica,sans-Serif" font-size="11.00" fill="#000000">varchar[64]</text>
<polygon fill="#ffffff" stroke="transparent" points="375,-170.7 375,-192.7 520,-192.7 520,-170.7 375,-170.7"/>
<polygon fill="none" stroke="#000000" points="375,-170.7 375,-192.7 520,-192.7 520,-170.7 375,-170.7"/>
<image xlink:href="../../images/foreignKeys.png" width="11px" height="12px" preserveAspectRatio="xMinYMin meet" x="380" y="-187.7"/>
<text text-anchor="start" x="395" y="-177.8" font-family="Helvetica,sans-Serif" font-size="11.00" fill="#000000">user_id</text>
<polygon fill="none" stroke="#000000" points="520,-170.7 520,-192.7 629,-192.7 629,-170.7 520,-170.7"/>
<text text-anchor="start" x="523" y="-178.4" font-family="Helvetica,sans-Serif" font-size="11.00" fill="#000000">uuid[2147483647]</text>
<polygon fill="none" stroke="#000000" points="375,-148.7 375,-170.7 520,-170.7 520,-148.7 375,-148.7"/>
<text text-anchor="start" x="395" y="-155.8" font-family="Helvetica,sans-Serif" font-size="11.00" fill="#000000">deleted_at</text>
<polygon fill="none" stroke="#000000" points="520,-148.7 520,-170.7 629,-170.7 629,-148.7 520,-148.7"/>
<text text-anchor="start" x="523" y="-156.4" font-family="Helvetica,sans-Serif" font-size="11.00" fill="#000000">timestamptz[35,6]</text>
<polygon fill="#ffffff" stroke="transparent" points="375,-126.7 375,-148.7 520,-148.7 520,-126.7 375,-126.7"/>
<polygon fill="none" stroke="#000000" points="375,-126.7 375,-148.7 520,-148.7 520,-126.7 375,-126.7"/>
<image xlink:href="../../images/foreignKeys.png" width="11px" height="12px" preserveAspectRatio="xMinYMin meet" x="380" y="-143.7"/>
<text text-anchor="start" x="395" y="-133.8" font-family="Helvetica,sans-Serif" font-size="11.00" fill="#000000">group_id</text>
<polygon fill="none" stroke="#000000" points="520,-126.7 520,-148.7 629,-148.7 629,-126.7 520,-126.7"/>
<text text-anchor="start" x="523" y="-134.4" font-family="Helvetica,sans-Serif" font-size="11.00" fill="#000000">uuid[2147483647]</text>
<polygon fill="#ffffff" stroke="transparent" points="375,-107.7 375,-126.7 629,-126.7 629,-107.7 375,-107.7"/>
<polygon fill="none" stroke="#000000" points="375,-107.7 375,-126.7 629,-126.7 629,-107.7 375,-107.7"/>
<polygon fill="#ffffff" stroke="transparent" points="376,-108.7 376,-125.7 463,-125.7 463,-108.7 376,-108.7"/>
<text text-anchor="start" x="378" y="-113.8" font-family="Helvetica,sans-Serif" font-size="11.00" fill="#000000">&lt; 2</text>
<polygon fill="#ffffff" stroke="transparent" points="463,-108.7 463,-125.7 541,-125.7 541,-108.7 463,-108.7"/>
<text text-anchor="start" x="498.9431" y="-113.8" font-family="Helvetica,sans-Serif" font-size="11.00" fill="#000000"> &#160;</text>
<polygon fill="#ffffff" stroke="transparent" points="541,-108.7 541,-125.7 628,-125.7 628,-108.7 541,-108.7"/>
<text text-anchor="start" x="610.4053" y="-113.8" font-family="Helvetica,sans-Serif" font-size="11.00" fill="#000000">4 &gt;</text>
<polygon fill="#000000" stroke="#000000" points="463,-108.7 463,-125.7 463,-125.7 463,-108.7 463,-108.7"/>
<polygon fill="#000000" stroke="#000000" points="541,-108.7 541,-125.7 541,-125.7 541,-108.7 541,-108.7"/>
<polygon fill="none" stroke="#000000" stroke-width="2" points="374,-106.7 374,-326.7 630,-326.7 630,-106.7 374,-106.7"/>
</a>
</g>
</g>
<!-- action_items&#45;&gt;summaries -->
<g id="edge1" class="edge">
<title>action_items:w&#45;&gt;summaries:e</title>
<path fill="none" stroke="#000000" d="M694.957,-478.7053C629.8532,-458.5061 714.7739,-291.7 629,-291.7"/>
<polygon fill="#000000" stroke="#000000" points="701.5742,-479.6129 709.0108,-484.2666 705.5371,-480.1564 709.5,-480.7 709.5,-480.7 709.5,-480.7 705.5371,-480.1564 709.9892,-477.1334 701.5742,-479.6129 701.5742,-479.6129"/>
<ellipse fill="none" stroke="#000000" cx="698.4039" cy="-479.178" rx="3.2" ry="3.2"/>
</g>
<!-- summary_groups -->
<g id="node4" class="node">
<title>summary_groups</title>
<g id="a_node4"><a xlink:href="../../tables/summary_groups.html" xlink:title="summary_groups" target="_top">
<polygon fill="#ffffff" stroke="transparent" points="160,-38.2 160,-165.2 324,-165.2 324,-38.2 160,-38.2"/>
<polygon fill="#f5f5f5" stroke="transparent" points="160,-141.7 160,-164.7 324,-164.7 324,-141.7 160,-141.7"/>
<polygon fill="none" stroke="#000000" points="160,-141.7 160,-164.7 324,-164.7 324,-141.7 160,-141.7"/>
<text text-anchor="start" x="165" y="-150.3" font-family="Helvetica,sans-Serif" font-weight="bold" font-size="11.00" fill="#000000">summary_groups</text>
<text text-anchor="start" x="289.5219" y="-149.8" font-family="Helvetica,sans-Serif" font-size="11.00" fill="#000000">[table]</text>
<polygon fill="none" stroke="#000000" points="160,-119.7 160,-141.7 324,-141.7 324,-119.7 160,-119.7"/>
<image xlink:href="../../images/primaryKeys.png" width="11px" height="12px" preserveAspectRatio="xMinYMin meet" x="165" y="-136.7"/>
<text text-anchor="start" x="189" y="-126.8" font-family="Helvetica,sans-Serif" font-size="11.00" fill="#000000">id</text>
<polygon fill="#ffffff" stroke="transparent" points="160,-97.7 160,-119.7 324,-119.7 324,-97.7 160,-97.7"/>
<polygon fill="none" stroke="#000000" points="160,-97.7 160,-119.7 324,-119.7 324,-97.7 160,-97.7"/>
<image xlink:href="../../images/foreignKeys.png" width="11px" height="12px" preserveAspectRatio="xMinYMin meet" x="165" y="-114.7"/>
<text text-anchor="start" x="189" y="-104.8" font-family="Helvetica,sans-Serif" font-size="11.00" fill="#000000">user_id</text>
<polygon fill="#ffffff" stroke="transparent" points="160,-75.7 160,-97.7 324,-97.7 324,-75.7 160,-75.7"/>
<polygon fill="none" stroke="#000000" points="160,-75.7 160,-97.7 324,-97.7 324,-75.7 160,-75.7"/>
<text text-anchor="start" x="189" y="-82.8" font-family="Helvetica,sans-Serif" font-size="11.00" fill="#000000">name</text>
<polygon fill="none" stroke="#000000" points="160,-56.7 160,-75.7 324,-75.7 324,-56.7 160,-56.7"/>
<text text-anchor="start" x="163" y="-62.8" font-family="Helvetica,sans-Serif" font-size="11.00" fill="#000000">...</text>
<polygon fill="#ffffff" stroke="transparent" points="160,-37.7 160,-56.7 324,-56.7 324,-37.7 160,-37.7"/>
<polygon fill="none" stroke="#000000" points="160,-37.7 160,-56.7 324,-56.7 324,-37.7 160,-37.7"/>
<polygon fill="#ffffff" stroke="transparent" points="161,-38.7 161,-55.7 218,-55.7 218,-38.7 161,-38.7"/>
<text text-anchor="start" x="163" y="-43.8" font-family="Helvetica,sans-Serif" font-size="11.00" fill="#000000">&lt; 1</text>
<polygon fill="#ffffff" stroke="transparent" points="218,-38.7 218,-55.7 266,-55.7 266,-38.7 218,-38.7"/>
<text text-anchor="start" x="238.9431" y="-43.8" font-family="Helvetica,sans-Serif" font-size="11.00" fill="#000000"> &#160;</text>
<polygon fill="#ffffff" stroke="transparent" points="266,-38.7 266,-55.7 323,-55.7 323,-38.7 266,-38.7"/>
<text text-anchor="start" x="305.4053" y="-43.8" font-family="Helvetica,sans-Serif" font-size="11.00" fill="#000000">1 &gt;</text>
<polygon fill="#000000" stroke="#000000" points="218,-38.7 218,-55.7 218,-55.7 218,-38.7 218,-38.7"/>
<polygon fill="#000000" stroke="#000000" points="266,-38.7 266,-55.7 266,-55.7 266,-38.7 266,-38.7"/>
</a>
</g>
</g>
<!-- summaries&#45;&gt;summary_groups -->
<g id="edge3" class="edge">
<title>summaries:w&#45;&gt;summary_groups:e</title>
<path fill="none" stroke="#000000" d="M360.5965,-136.6063C348.3977,-134.6375 341.1594,-130.7 324,-130.7"/>
<polygon fill="#000000" stroke="#000000" points="367.023,-137.0942 374.7274,-141.2897 371.0115,-137.3971 375,-137.7 375,-137.7 375,-137.7 371.0115,-137.3971 375.2726,-134.1103 367.023,-137.0942 367.023,-137.0942"/>
<ellipse fill="none" stroke="#000000" cx="363.8322" cy="-136.8519" rx="3.2" ry="3.2"/>
</g>
<!-- users -->
<g id="node5" class="node">
<title>users</title>
<g id="a_node5"><a xlink:href="../../tables/users.html" xlink:title="users" target="_top">
<polygon fill="#ffffff" stroke="transparent" points="8,-100.2 8,-183.2 111,-183.2 111,-100.2 8,-100.2"/>
<polygon fill="#f5f5f5" stroke="transparent" points="8.5,-159.7 8.5,-182.7 111.5,-182.7 111.5,-159.7 8.5,-159.7"/>
<polygon fill="none" stroke="#000000" points="8.5,-159.7 8.5,-182.7 111.5,-182.7 111.5,-159.7 8.5,-159.7"/>
<text text-anchor="start" x="13.5" y="-168.3" font-family="Helvetica,sans-Serif" font-weight="bold" font-size="11.00" fill="#000000">users</text>
<text text-anchor="start" x="76.5437" y="-167.8" font-family="Helvetica,sans-Serif" font-size="11.00" fill="#000000">[table]</text>
<polygon fill="none" stroke="#000000" points="8.5,-137.7 8.5,-159.7 111.5,-159.7 111.5,-137.7 8.5,-137.7"/>
<image xlink:href="../../images/primaryKeys.png" width="11px" height="12px" preserveAspectRatio="xMinYMin meet" x="13.5" y="-154.7"/>
<text text-anchor="start" x="28.5" y="-144.8" font-family="Helvetica,sans-Serif" font-size="11.00" fill="#000000">id</text>
<polygon fill="none" stroke="#000000" points="8.5,-118.7 8.5,-137.7 111.5,-137.7 111.5,-118.7 8.5,-118.7"/>
<text text-anchor="start" x="11.5" y="-124.8" font-family="Helvetica,sans-Serif" font-size="11.00" fill="#000000">...</text>
<polygon fill="#ffffff" stroke="transparent" points="8.5,-99.7 8.5,-118.7 111.5,-118.7 111.5,-99.7 8.5,-99.7"/>
<polygon fill="none" stroke="#000000" points="8.5,-99.7 8.5,-118.7 111.5,-118.7 111.5,-99.7 8.5,-99.7"/>
<polygon fill="#ffffff" stroke="transparent" points="9.5,-100.7 9.5,-117.7 40.5,-117.7 40.5,-100.7 9.5,-100.7"/>
<text text-anchor="start" x="11.5" y="-105.8" font-family="Helvetica,sans-Serif" font-size="11.00" fill="#000000"> &#160;</text>
<polygon fill="#ffffff" stroke="transparent" points="40.5,-100.7 40.5,-117.7 71.5,-117.7 71.5,-100.7 40.5,-100.7"/>
<text text-anchor="start" x="52.9431" y="-105.8" font-family="Helvetica,sans-Serif" font-size="11.00" fill="#000000"> &#160;</text>
<polygon fill="#ffffff" stroke="transparent" points="71.5,-100.7 71.5,-117.7 110.5,-117.7 110.5,-100.7 71.5,-100.7"/>
<text text-anchor="start" x="92.9053" y="-105.8" font-family="Helvetica,sans-Serif" font-size="11.00" fill="#000000">4 &gt;</text>
<polygon fill="#000000" stroke="#000000" points="40.5,-100.7 40.5,-117.7 40.5,-117.7 40.5,-100.7 40.5,-100.7"/>
<polygon fill="#000000" stroke="#000000" points="71.5,-100.7 71.5,-117.7 71.5,-117.7 71.5,-100.7 71.5,-100.7"/>
</a>
</g>
</g>
<!-- summaries&#45;&gt;users -->
<g id="edge4" class="edge">
<title>summaries:w&#45;&gt;users:e</title>
<path fill="none" stroke="#000000" d="M360.4178,-181.8755C272.7036,-183.9987 241.6991,-204.1812 152,-175.7 131.3811,-169.1531 133.1333,-148.7 111.5,-148.7"/>
<polygon fill="#000000" stroke="#000000" points="367.0006,-181.7963 375.0433,-185.2997 371.0003,-181.7482 375,-181.7 375,-181.7 375,-181.7 371.0003,-181.7482 374.9567,-178.1003 367.0006,-181.7963 367.0006,-181.7963"/>
<ellipse fill="none" stroke="#000000" cx="363.8008" cy="-181.8349" rx="3.2" ry="3.2"/>
</g>
<!-- decisions -->
<g id="node3" class="node">
<title>decisions</title>
<g id="a_node3"><a xlink:href="../../tables/decisions.html" xlink:title="decisions" target="_top">
<polygon fill="#ffffff" stroke="transparent" points="720,-306.2 720,-411.2 829,-411.2 829,-306.2 720,-306.2"/>
<polygon fill="#f5f5f5" stroke="transparent" points="720.5,-387.7 720.5,-410.7 829.5,-410.7 829.5,-387.7 720.5,-387.7"/>
<polygon fill="none" stroke="#000000" points="720.5,-387.7 720.5,-410.7 829.5,-410.7 829.5,-387.7 720.5,-387.7"/>
<text text-anchor="start" x="725.5" y="-396.3" font-family="Helvetica,sans-Serif" font-weight="bold" font-size="11.00" fill="#000000">decisions</text>
<text text-anchor="start" x="794.5437" y="-395.8" font-family="Helvetica,sans-Serif" font-size="11.00" fill="#000000">[table]</text>
<polygon fill="none" stroke="#000000" points="720.5,-365.7 720.5,-387.7 829.5,-387.7 829.5,-365.7 720.5,-365.7"/>
<image xlink:href="../../images/primaryKeys.png" width="11px" height="12px" preserveAspectRatio="xMinYMin meet" x="725.5" y="-382.7"/>
<text text-anchor="start" x="740.5" y="-372.8" font-family="Helvetica,sans-Serif" font-size="11.00" fill="#000000">id</text>
<polygon fill="#ffffff" stroke="transparent" points="720.5,-343.7 720.5,-365.7 829.5,-365.7 829.5,-343.7 720.5,-343.7"/>
<polygon fill="none" stroke="#000000" points="720.5,-343.7 720.5,-365.7 829.5,-365.7 829.5,-343.7 720.5,-343.7"/>
<image xlink:href="../../images/foreignKeys.png" width="11px" height="12px" preserveAspectRatio="xMinYMin meet" x="725.5" y="-360.7"/>
<text text-anchor="start" x="740.5" y="-350.8" font-family="Helvetica,sans-Serif" font-size="11.00" fill="#000000">summary_id</text>
<polygon fill="none" stroke="#000000" points="720.5,-324.7 720.5,-343.7 829.5,-343.7 829.5,-324.7 720.5,-324.7"/>
<text text-anchor="start" x="723.5" y="-330.8" font-family="Helvetica,sans-Serif" font-size="11.00" fill="#000000">...</text>
<polygon fill="#ffffff" stroke="transparent" points="720.5,-305.7 720.5,-324.7 829.5,-324.7 829.5,-305.7 720.5,-305.7"/>
<polygon fill="none" stroke="#000000" points="720.5,-305.7 720.5,-324.7 829.5,-324.7 829.5,-305.7 720.5,-305.7"/>
<polygon fill="#ffffff" stroke="transparent" points="721.5,-306.7 721.5,-323.7 763.5,-323.7 763.5,-306.7 721.5,-306.7"/>
<text text-anchor="start" x="723.5" y="-311.8" font-family="Helvetica,sans-Serif" font-size="11.00" fill="#000000">&lt; 1</text>
<polygon fill="#ffffff" stroke="transparent" points="763.5,-306.7 763.5,-323.7 796.5,-323.7 796.5,-306.7 763.5,-306.7"/>
<text text-anchor="start" x="776.9431" y="-311.8" font-family="Helvetica,sans-Serif" font-size="11.00" fill="#000000"> &#160;</text>
<polygon fill="#ffffff" stroke="transparent" points="796.5,-306.7 796.5,-323.7 828.5,-323.7 828.5,-306.7 796.5,-306.7"/>
<text text-anchor="start" x="820.3862" y="-311.8" font-family="Helvetica,sans-Serif" font-size="11.00" fill="#000000"> &#160;</text>
<polygon fill="#000000" stroke="#000000" points="763.5,-306.7 763.5,-323.7 763.5,-323.7 763.5,-306.7 763.5,-306.7"/>
<polygon fill="#000000" stroke="#000000" points="796.5,-306.7 796.5,-323.7 796.5,-323.7 796.5,-306.7 796.5,-306.7"/>
</a>
</g>
</g>
<!-- decisions&#45;&gt;summaries -->
<g id="edge2" class="edge">
<title>decisions:w&#45;&gt;summaries:e</title>
<path fill="none" stroke="#000000" d="M706.1831,-352.6039C672.0342,-341.6724 672.9736,-291.7 629,-291.7"/>
<polygon fill="#000000" stroke="#000000" points="712.5844,-353.541 719.9785,-358.262 716.5422,-354.1205 720.5,-354.7 720.5,-354.7 720.5,-354.7 716.5422,-354.1205 721.0215,-351.138 712.5844,-353.541 712.5844,-353.541"/>
<ellipse fill="none" stroke="#000000" cx="709.4181" cy="-353.0775" rx="3.2" ry="3.2"/>
</g>
<!-- summary_groups&#45;&gt;users -->
<g id="edge5" class="edge">
<title>summary_groups:w&#45;&gt;users:e</title>
<path fill="none" stroke="#000000" d="M145.9951,-113.6048C133.5984,-124.2859 133.3288,-148.7 111.5,-148.7"/>
<polygon fill="#000000" stroke="#000000" points="152.4496,-111.3443 161.1899,-112.0977 156.2248,-110.0222 160,-108.7 160,-108.7 160,-108.7 156.2248,-110.0222 158.8101,-105.3023 152.4496,-111.3443 152.4496,-111.3443"/>
<ellipse fill="none" stroke="#000000" cx="149.4295" cy="-112.402" rx="3.2" ry="3.2"/>
</g>
<!-- topics -->
<g id="node6" class="node">
<title>topics</title>
<g id="a_node6"><a xlink:href="../../tables/topics.html" xlink:title="topics" target="_top">
<polygon fill="#ffffff" stroke="transparent" points="720,-180.2 720,-285.2 829,-285.2 829,-180.2 720,-180.2"/>
<polygon fill="#f5f5f5" stroke="transparent" points="720.5,-261.7 720.5,-284.7 829.5,-284.7 829.5,-261.7 720.5,-261.7"/>
<polygon fill="none" stroke="#000000" points="720.5,-261.7 720.5,-284.7 829.5,-284.7 829.5,-261.7 720.5,-261.7"/>
<text text-anchor="start" x="725.5" y="-270.3" font-family="Helvetica,sans-Serif" font-weight="bold" font-size="11.00" fill="#000000">topics</text>
<text text-anchor="start" x="794.5437" y="-269.8" font-family="Helvetica,sans-Serif" font-size="11.00" fill="#000000">[table]</text>
<polygon fill="none" stroke="#000000" points="720.5,-239.7 720.5,-261.7 829.5,-261.7 829.5,-239.7 720.5,-239.7"/>
<image xlink:href="../../images/primaryKeys.png" width="11px" height="12px" preserveAspectRatio="xMinYMin meet" x="725.5" y="-256.7"/>
<text text-anchor="start" x="740.5" y="-246.8" font-family="Helvetica,sans-Serif" font-size="11.00" fill="#000000">id</text>
<polygon fill="#ffffff" stroke="transparent" points="720.5,-217.7 720.5,-239.7 829.5,-239.7 829.5,-217.7 720.5,-217.7"/>
<polygon fill="none" stroke="#000000" points="720.5,-217.7 720.5,-239.7 829.5,-239.7 829.5,-217.7 720.5,-217.7"/>
<image xlink:href="../../images/foreignKeys.png" width="11px" height="12px" preserveAspectRatio="xMinYMin meet" x="725.5" y="-234.7"/>
<text text-anchor="start" x="740.5" y="-224.8" font-family="Helvetica,sans-Serif" font-size="11.00" fill="#000000">summary_id</text>
<polygon fill="none" stroke="#000000" points="720.5,-198.7 720.5,-217.7 829.5,-217.7 829.5,-198.7 720.5,-198.7"/>
<text text-anchor="start" x="723.5" y="-204.8" font-family="Helvetica,sans-Serif" font-size="11.00" fill="#000000">...</text>
<polygon fill="#ffffff" stroke="transparent" points="720.5,-179.7 720.5,-198.7 829.5,-198.7 829.5,-179.7 720.5,-179.7"/>
<polygon fill="none" stroke="#000000" points="720.5,-179.7 720.5,-198.7 829.5,-198.7 829.5,-179.7 720.5,-179.7"/>
<polygon fill="#ffffff" stroke="transparent" points="721.5,-180.7 721.5,-197.7 763.5,-197.7 763.5,-180.7 721.5,-180.7"/>
<text text-anchor="start" x="723.5" y="-185.8" font-family="Helvetica,sans-Serif" font-size="11.00" fill="#000000">&lt; 1</text>
<polygon fill="#ffffff" stroke="transparent" points="763.5,-180.7 763.5,-197.7 796.5,-197.7 796.5,-180.7 763.5,-180.7"/>
<text text-anchor="start" x="776.9431" y="-185.8" font-family="Helvetica,sans-Serif" font-size="11.00" fill="#000000"> &#160;</text>
<polygon fill="#ffffff" stroke="transparent" points="796.5,-180.7 796.5,-197.7 828.5,-197.7 828.5,-180.7 796.5,-180.7"/>
<text text-anchor="start" x="820.3862" y="-185.8" font-family="Helvetica,sans-Serif" font-size="11.00" fill="#000000"> &#160;</text>
<polygon fill="#000000" stroke="#000000" points="763.5,-180.7 763.5,-197.7 763.5,-197.7 763.5,-180.7 763.5,-180.7"/>
<polygon fill="#000000" stroke="#000000" points="796.5,-180.7 796.5,-197.7 796.5,-197.7 796.5,-180.7 796.5,-180.7"/>
</a>
</g>
</g>
<!-- topics&#45;&gt;summaries -->
<g id="edge6" class="edge">
<title>topics:w&#45;&gt;summaries:e</title>
<path fill="none" stroke="#000000" d="M706.1831,-230.7961C672.0342,-241.7276 672.9736,-291.7 629,-291.7"/>
<polygon fill="#000000" stroke="#000000" points="712.5844,-229.859 721.0215,-232.262 716.5422,-229.2795 720.5,-228.7 720.5,-228.7 720.5,-228.7 716.5422,-229.2795 719.9785,-225.138 712.5844,-229.859 712.5844,-229.859"/>
<ellipse fill="none" stroke="#000000" cx="709.4181" cy="-230.3225" rx="3.2" ry="3.2"/>
</g>
<!-- transcript_segments -->
<g id="node7" class="node">
<title>transcript_segments</title>
<g id="a_node7"><a xlink:href="../../tables/transcript_segments.html" xlink:title="transcript_segments" target="_top">
<polygon fill="#ffffff" stroke="transparent" points="680,-54.2 680,-159.2 869,-159.2 869,-54.2 680,-54.2"/>
<polygon fill="#f5f5f5" stroke="transparent" points="680.5,-135.7 680.5,-158.7 869.5,-158.7 869.5,-135.7 680.5,-135.7"/>
<polygon fill="none" stroke="#000000" points="680.5,-135.7 680.5,-158.7 869.5,-158.7 869.5,-135.7 680.5,-135.7"/>
<text text-anchor="start" x="685.5" y="-144.3" font-family="Helvetica,sans-Serif" font-weight="bold" font-size="11.00" fill="#000000">transcript_segments</text>
<text text-anchor="start" x="835.0219" y="-143.8" font-family="Helvetica,sans-Serif" font-size="11.00" fill="#000000">[table]</text>
<polygon fill="none" stroke="#000000" points="680.5,-113.7 680.5,-135.7 869.5,-135.7 869.5,-113.7 680.5,-113.7"/>
<image xlink:href="../../images/primaryKeys.png" width="11px" height="12px" preserveAspectRatio="xMinYMin meet" x="685.5" y="-130.7"/>
<text text-anchor="start" x="709.5" y="-120.8" font-family="Helvetica,sans-Serif" font-size="11.00" fill="#000000">id</text>
<polygon fill="#ffffff" stroke="transparent" points="680.5,-91.7 680.5,-113.7 869.5,-113.7 869.5,-91.7 680.5,-91.7"/>
<polygon fill="none" stroke="#000000" points="680.5,-91.7 680.5,-113.7 869.5,-113.7 869.5,-91.7 680.5,-91.7"/>
<image xlink:href="../../images/foreignKeys.png" width="11px" height="12px" preserveAspectRatio="xMinYMin meet" x="685.5" y="-108.7"/>
<text text-anchor="start" x="709.5" y="-98.8" font-family="Helvetica,sans-Serif" font-size="11.00" fill="#000000">summary_id</text>
<polygon fill="none" stroke="#000000" points="680.5,-72.7 680.5,-91.7 869.5,-91.7 869.5,-72.7 680.5,-72.7"/>
<text text-anchor="start" x="683.5" y="-78.8" font-family="Helvetica,sans-Serif" font-size="11.00" fill="#000000">...</text>
<polygon fill="#ffffff" stroke="transparent" points="680.5,-53.7 680.5,-72.7 869.5,-72.7 869.5,-53.7 680.5,-53.7"/>
<polygon fill="none" stroke="#000000" points="680.5,-53.7 680.5,-72.7 869.5,-72.7 869.5,-53.7 680.5,-53.7"/>
<polygon fill="#ffffff" stroke="transparent" points="681.5,-54.7 681.5,-71.7 750.5,-71.7 750.5,-54.7 681.5,-54.7"/>
<text text-anchor="start" x="683.5" y="-59.8" font-family="Helvetica,sans-Serif" font-size="11.00" fill="#000000">&lt; 1</text>
<polygon fill="#ffffff" stroke="transparent" points="750.5,-54.7 750.5,-71.7 809.5,-71.7 809.5,-54.7 750.5,-54.7"/>
<text text-anchor="start" x="776.9431" y="-59.8" font-family="Helvetica,sans-Serif" font-size="11.00" fill="#000000"> &#160;</text>
<polygon fill="#ffffff" stroke="transparent" points="809.5,-54.7 809.5,-71.7 868.5,-71.7 868.5,-54.7 809.5,-54.7"/>
<text text-anchor="start" x="860.3862" y="-59.8" font-family="Helvetica,sans-Serif" font-size="11.00" fill="#000000"> &#160;</text>
<polygon fill="#000000" stroke="#000000" points="750.5,-54.7 750.5,-71.7 750.5,-71.7 750.5,-54.7 750.5,-54.7"/>
<polygon fill="#000000" stroke="#000000" points="809.5,-54.7 809.5,-71.7 809.5,-71.7 809.5,-54.7 809.5,-54.7"/>
</a>
</g>
</g>
<!-- transcript_segments&#45;&gt;summaries -->
<g id="edge7" class="edge">
<title>transcript_segments:w&#45;&gt;summaries:e</title>
<path fill="none" stroke="#000000" d="M666.1666,-104.9542C608.3734,-126.2781 710.4512,-291.7 629,-291.7"/>
<polygon fill="#000000" stroke="#000000" points="672.5971,-103.9429 681.0593,-106.2563 676.5486,-103.3215 680.5,-102.7 680.5,-102.7 680.5,-102.7 676.5486,-103.3215 679.9407,-99.1437 672.5971,-103.9429 672.5971,-103.9429"/>
<ellipse fill="none" stroke="#000000" cx="669.436" cy="-104.4401" rx="3.2" ry="3.2"/>
</g>
</g>
</svg>
