<?xml version="1.0" encoding="UTF-8" standalone="no"?>
<!DOCTYPE svg PUBLIC "-//W3C//DTD SVG 1.1//EN"
 "http://www.w3.org/Graphics/SVG/1.1/DTD/svg11.dtd">
<!-- Generated by graphviz version 2.40.1 (20161225.0304)
 -->
<!-- Title: twoDegreesRelationshipsDiagram Pages: 1 -->
<svg width="873pt" height="604pt"
 viewBox="0.00 0.00 873.00 604.20" xmlns="http://www.w3.org/2000/svg" xmlns:xlink="http://www.w3.org/1999/xlink">
<g id="graph0" class="graph" transform="scale(1 1) rotate(0) translate(4 600.2)">
<title>twoDegreesRelationshipsDiagram</title>
<polygon fill="#ffffff" stroke="transparent" points="-4,4 -4,-600.2 869,-600.2 869,4 -4,4"/>
<text text-anchor="middle" x="72.4936" y="-7.3" font-family="Helvetica,sans-Serif" font-size="11.00" fill="#000000">Generated by SchemaSpy</text>
<!-- action_items -->
<g id="node1" class="node">
<title>action_items</title>
<g id="a_node1"><a xlink:href="../../tables/action_items.html" xlink:title="action_items" target="_top">
<polygon fill="#ffffff" stroke="transparent" points="697,-531.2 697,-592.2 828,-592.2 828,-531.2 697,-531.2"/>
<polygon fill="#f5f5f5" stroke="transparent" points="697.5,-568.7 697.5,-591.7 828.5,-591.7 828.5,-568.7 697.5,-568.7"/>
<polygon fill="none" stroke="#000000" points="697.5,-568.7 697.5,-591.7 828.5,-591.7 828.5,-568.7 697.5,-568.7"/>
<text text-anchor="start" x="702.5" y="-577.3" font-family="Helvetica,sans-Serif" font-weight="bold" font-size="11.00" fill="#000000">action_items</text>
<text text-anchor="start" x="794.0219" y="-576.8" font-family="Helvetica,sans-Serif" font-size="11.00" fill="#000000">[table]</text>
<polygon fill="none" stroke="#000000" points="697.5,-549.7 697.5,-568.7 828.5,-568.7 828.5,-549.7 697.5,-549.7"/>
<text text-anchor="start" x="700.5" y="-555.8" font-family="Helvetica,sans-Serif" font-size="11.00" fill="#000000">...</text>
<polygon fill="#ffffff" stroke="transparent" points="697.5,-530.7 697.5,-549.7 828.5,-549.7 828.5,-530.7 697.5,-530.7"/>
<polygon fill="none" stroke="#000000" points="697.5,-530.7 697.5,-549.7 828.5,-549.7 828.5,-530.7 697.5,-530.7"/>
<polygon fill="#ffffff" stroke="transparent" points="698.5,-531.7 698.5,-548.7 747.5,-548.7 747.5,-531.7 698.5,-531.7"/>
<text text-anchor="start" x="700.5" y="-536.8" font-family="Helvetica,sans-Serif" font-size="11.00" fill="#000000">&lt; 1</text>
<polygon fill="#ffffff" stroke="transparent" points="747.5,-531.7 747.5,-548.7 787.5,-548.7 787.5,-531.7 747.5,-531.7"/>
<text text-anchor="start" x="764.4431" y="-536.8" font-family="Helvetica,sans-Serif" font-size="11.00" fill="#000000"> &#160;</text>
<polygon fill="#ffffff" stroke="transparent" points="787.5,-531.7 787.5,-548.7 827.5,-548.7 827.5,-531.7 787.5,-531.7"/>
<text text-anchor="start" x="819.3862" y="-536.8" font-family="Helvetica,sans-Serif" font-size="11.00" fill="#000000"> &#160;</text>
<polygon fill="#000000" stroke="#000000" points="747.5,-531.7 747.5,-548.7 747.5,-548.7 747.5,-531.7 747.5,-531.7"/>
<polygon fill="#000000" stroke="#000000" points="787.5,-531.7 787.5,-548.7 787.5,-548.7 787.5,-531.7 787.5,-531.7"/>
</a>
</g>
</g>
<!-- summaries -->
<g id="node2" class="node">
<title>summaries</title>
<g id="a_node2"><a xlink:href="../../tables/summaries.html" xlink:title="summaries" target="_top">
<polygon fill="#ffffff" stroke="transparent" points="500,-405.2 500,-466.2 619,-466.2 619,-405.2 500,-405.2"/>
<polygon fill="#f5f5f5" stroke="transparent" points="500.5,-442.7 500.5,-465.7 619.5,-465.7 619.5,-442.7 500.5,-442.7"/>
<polygon fill="none" stroke="#000000" points="500.5,-442.7 500.5,-465.7 619.5,-465.7 619.5,-442.7 500.5,-442.7"/>
<text text-anchor="start" x="505.5" y="-451.3" font-family="Helvetica,sans-Serif" font-weight="bold" font-size="11.00" fill="#000000">summaries</text>
<text text-anchor="start" x="585.0219" y="-450.8" font-family="Helvetica,sans-Serif" font-size="11.00" fill="#000000">[table]</text>
<polygon fill="none" stroke="#000000" points="500.5,-423.7 500.5,-442.7 619.5,-442.7 619.5,-423.7 500.5,-423.7"/>
<text text-anchor="start" x="503.5" y="-429.8" font-family="Helvetica,sans-Serif" font-size="11.00" fill="#000000">...</text>
<polygon fill="#ffffff" stroke="transparent" points="500.5,-404.7 500.5,-423.7 619.5,-423.7 619.5,-404.7 500.5,-404.7"/>
<polygon fill="none" stroke="#000000" points="500.5,-404.7 500.5,-423.7 619.5,-423.7 619.5,-404.7 500.5,-404.7"/>
<polygon fill="#ffffff" stroke="transparent" points="501.5,-405.7 501.5,-422.7 543.5,-422.7 543.5,-405.7 501.5,-405.7"/>
<text text-anchor="start" x="503.5" y="-410.8" font-family="Helvetica,sans-Serif" font-size="11.00" fill="#000000">&lt; 2</text>
<polygon fill="#ffffff" stroke="transparent" points="543.5,-405.7 543.5,-422.7 576.5,-422.7 576.5,-405.7 543.5,-405.7"/>
<text text-anchor="start" x="556.9431" y="-410.8" font-family="Helvetica,sans-Serif" font-size="11.00" fill="#000000"> &#160;</text>
<polygon fill="#ffffff" stroke="transparent" points="576.5,-405.7 576.5,-422.7 618.5,-422.7 618.5,-405.7 576.5,-405.7"/>
<text text-anchor="start" x="600.9053" y="-410.8" font-family="Helvetica,sans-Serif" font-size="11.00" fill="#000000">4 &gt;</text>
<polygon fill="#000000" stroke="#000000" points="543.5,-405.7 543.5,-422.7 543.5,-422.7 543.5,-405.7 543.5,-405.7"/>
<polygon fill="#000000" stroke="#000000" points="576.5,-405.7 576.5,-422.7 576.5,-422.7 576.5,-405.7 576.5,-405.7"/>
</a>
</g>
</g>
<!-- action_items&#45;&gt;summaries -->
<g id="edge1" class="edge">
<title>action_items:w&#45;&gt;summaries:e</title>
<path fill="none" stroke="#000000" d="M683.072,-557.437C636.4598,-549.2795 599.6458,-503.3304 578.714,-470.2897"/>
<polygon fill="#000000" stroke="#000000" points="689.5305,-558.0023 697.186,-562.2863 693.5152,-558.3512 697.5,-558.7 697.5,-558.7 697.5,-558.7 693.5152,-558.3512 697.814,-555.1137 689.5305,-558.0023 689.5305,-558.0023"/>
<ellipse fill="none" stroke="#000000" cx="686.3427" cy="-557.7233" rx="3.2" ry="3.2"/>
</g>
<!-- users -->
<g id="node5" class="node">
<title>users</title>
<g id="a_node5"><a xlink:href="../../tables/users.html" xlink:title="users" target="_top">
<polygon fill="#ffffff" stroke="transparent" points="8,-190.7 8,-390.7 238,-390.7 238,-190.7 8,-190.7"/>
<polygon fill="#f5f5f5" stroke="transparent" points="10,-365.7 10,-388.7 236,-388.7 236,-365.7 10,-365.7"/>
<polygon fill="none" stroke="#000000" points="10,-365.7 10,-388.7 236,-388.7 236,-365.7 10,-365.7"/>
<text text-anchor="start" x="15" y="-374.3" font-family="Helvetica,sans-Serif" font-weight="bold" font-size="11.00" fill="#000000">users</text>
<text text-anchor="start" x="201.0437" y="-373.8" font-family="Helvetica,sans-Serif" font-size="11.00" fill="#000000">[table]</text>
<polygon fill="none" stroke="#000000" points="10,-343.7 10,-365.7 113,-365.7 113,-343.7 10,-343.7"/>
<image xlink:href="../../images/primaryKeys.png" width="11px" height="12px" preserveAspectRatio="xMinYMin meet" x="15" y="-360.7"/>
<text text-anchor="start" x="30" y="-350.8" font-family="Helvetica,sans-Serif" font-size="11.00" fill="#000000">id</text>
<polygon fill="none" stroke="#000000" points="113,-343.7 113,-365.7 236,-365.7 236,-343.7 113,-343.7"/>
<text text-anchor="start" x="116" y="-351.4" font-family="Helvetica,sans-Serif" font-size="11.00" fill="#000000">uuid[2147483647]</text>
<polygon fill="none" stroke="#000000" points="10,-321.7 10,-343.7 113,-343.7 113,-321.7 10,-321.7"/>
<text text-anchor="start" x="30" y="-328.8" font-family="Helvetica,sans-Serif" font-size="11.00" fill="#000000">email</text>
<polygon fill="none" stroke="#000000" points="113,-321.7 113,-343.7 236,-343.7 236,-321.7 113,-321.7"/>
<text text-anchor="start" x="116" y="-329.4" font-family="Helvetica,sans-Serif" font-size="11.00" fill="#000000">varchar[320]</text>
<polygon fill="none" stroke="#000000" points="10,-299.7 10,-321.7 113,-321.7 113,-299.7 10,-299.7"/>
<text text-anchor="start" x="30" y="-306.8" font-family="Helvetica,sans-Serif" font-size="11.00" fill="#000000">name</text>
<polygon fill="none" stroke="#000000" points="113,-299.7 113,-321.7 236,-321.7 236,-299.7 113,-299.7"/>
<text text-anchor="start" x="116" y="-307.4" font-family="Helvetica,sans-Serif" font-size="11.00" fill="#000000">varchar[255]</text>
<polygon fill="none" stroke="#000000" points="10,-277.7 10,-299.7 113,-299.7 113,-277.7 10,-277.7"/>
<text text-anchor="start" x="30" y="-284.8" font-family="Helvetica,sans-Serif" font-size="11.00" fill="#000000">created_at</text>
<polygon fill="none" stroke="#000000" points="113,-277.7 113,-299.7 236,-299.7 236,-277.7 113,-277.7"/>
<text text-anchor="start" x="116" y="-285.4" font-family="Helvetica,sans-Serif" font-size="11.00" fill="#000000">timestamptz[35,6]</text>
<polygon fill="none" stroke="#000000" points="10,-255.7 10,-277.7 113,-277.7 113,-255.7 10,-255.7"/>
<text text-anchor="start" x="30" y="-262.8" font-family="Helvetica,sans-Serif" font-size="11.00" fill="#000000">updated_at</text>
<polygon fill="none" stroke="#000000" points="113,-255.7 113,-277.7 236,-277.7 236,-255.7 113,-255.7"/>
<text text-anchor="start" x="116" y="-263.4" font-family="Helvetica,sans-Serif" font-size="11.00" fill="#000000">timestamptz[35,6]</text>
<polygon fill="none" stroke="#000000" points="10,-233.7 10,-255.7 113,-255.7 113,-233.7 10,-233.7"/>
<text text-anchor="start" x="30" y="-240.8" font-family="Helvetica,sans-Serif" font-size="11.00" fill="#000000">role</text>
<polygon fill="none" stroke="#000000" points="113,-233.7 113,-255.7 236,-255.7 236,-233.7 113,-233.7"/>
<text text-anchor="start" x="116" y="-241.4" font-family="Helvetica,sans-Serif" font-size="11.00" fill="#000000">userrole[2147483647]</text>
<polygon fill="none" stroke="#000000" points="10,-211.7 10,-233.7 113,-233.7 113,-211.7 10,-211.7"/>
<text text-anchor="start" x="30" y="-218.8" font-family="Helvetica,sans-Serif" font-size="11.00" fill="#000000">status</text>
<polygon fill="none" stroke="#000000" points="113,-211.7 113,-233.7 236,-233.7 236,-211.7 113,-211.7"/>
<text text-anchor="start" x="115.501" y="-219.4" font-family="Helvetica,sans-Serif" font-size="11.00" fill="#000000">userstatus[2147483647]</text>
<polygon fill="#ffffff" stroke="transparent" points="10,-192.7 10,-211.7 236,-211.7 236,-192.7 10,-192.7"/>
<polygon fill="none" stroke="#000000" points="10,-192.7 10,-211.7 236,-211.7 236,-192.7 10,-192.7"/>
<polygon fill="#ffffff" stroke="transparent" points="11,-193.7 11,-210.7 89,-210.7 89,-193.7 11,-193.7"/>
<text text-anchor="start" x="13" y="-198.8" font-family="Helvetica,sans-Serif" font-size="11.00" fill="#000000">&lt; 0</text>
<polygon fill="#ffffff" stroke="transparent" points="89,-193.7 89,-210.7 158,-210.7 158,-193.7 89,-193.7"/>
<text text-anchor="start" x="120.4431" y="-198.8" font-family="Helvetica,sans-Serif" font-size="11.00" fill="#000000"> &#160;</text>
<polygon fill="#ffffff" stroke="transparent" points="158,-193.7 158,-210.7 235,-210.7 235,-193.7 158,-193.7"/>
<text text-anchor="start" x="217.4053" y="-198.8" font-family="Helvetica,sans-Serif" font-size="11.00" fill="#000000">4 &gt;</text>
<polygon fill="#000000" stroke="#000000" points="89,-193.7 89,-210.7 89,-210.7 89,-193.7 89,-193.7"/>
<polygon fill="#000000" stroke="#000000" points="158,-193.7 158,-210.7 158,-210.7 158,-193.7 158,-193.7"/>
<polygon fill="none" stroke="#000000" stroke-width="2" points="9,-191.7 9,-389.7 237,-389.7 237,-191.7 9,-191.7"/>
</a>
</g>
</g>
<!-- summaries&#45;&gt;users -->
<g id="edge5" class="edge">
<title>summaries:w&#45;&gt;users:e</title>
<path fill="none" stroke="#000000" d="M477.7902,-463.6296C418.0264,-478.7214 337.5115,-487.4421 279,-449.7 240.0534,-424.578 282.346,-354.7 236,-354.7"/>
<polygon fill="#000000" stroke="#000000" points="484.0134,-461.965 492.672,-463.3755 487.8775,-460.9314 491.7417,-459.8978 491.7417,-459.8978 491.7417,-459.8978 487.8775,-460.9314 490.8114,-456.42 484.0134,-461.965 484.0134,-461.965"/>
<ellipse fill="none" stroke="#000000" cx="480.9221" cy="-462.792" rx="3.2" ry="3.2"/>
</g>
<!-- summary_groups -->
<g id="node6" class="node">
<title>summary_groups</title>
<g id="a_node6"><a xlink:href="../../tables/summary_groups.html" xlink:title="summary_groups" target="_top">
<polygon fill="#ffffff" stroke="transparent" points="287,-378.2 287,-439.2 451,-439.2 451,-378.2 287,-378.2"/>
<polygon fill="#f5f5f5" stroke="transparent" points="287,-415.7 287,-438.7 451,-438.7 451,-415.7 287,-415.7"/>
<polygon fill="none" stroke="#000000" points="287,-415.7 287,-438.7 451,-438.7 451,-415.7 287,-415.7"/>
<text text-anchor="start" x="292" y="-424.3" font-family="Helvetica,sans-Serif" font-weight="bold" font-size="11.00" fill="#000000">summary_groups</text>
<text text-anchor="start" x="416.5219" y="-423.8" font-family="Helvetica,sans-Serif" font-size="11.00" fill="#000000">[table]</text>
<polygon fill="none" stroke="#000000" points="287,-396.7 287,-415.7 451,-415.7 451,-396.7 287,-396.7"/>
<text text-anchor="start" x="290" y="-402.8" font-family="Helvetica,sans-Serif" font-size="11.00" fill="#000000">...</text>
<polygon fill="#ffffff" stroke="transparent" points="287,-377.7 287,-396.7 451,-396.7 451,-377.7 287,-377.7"/>
<polygon fill="none" stroke="#000000" points="287,-377.7 287,-396.7 451,-396.7 451,-377.7 287,-377.7"/>
<polygon fill="#ffffff" stroke="transparent" points="288,-378.7 288,-395.7 345,-395.7 345,-378.7 288,-378.7"/>
<text text-anchor="start" x="290" y="-383.8" font-family="Helvetica,sans-Serif" font-size="11.00" fill="#000000">&lt; 1</text>
<polygon fill="#ffffff" stroke="transparent" points="345,-378.7 345,-395.7 393,-395.7 393,-378.7 345,-378.7"/>
<text text-anchor="start" x="365.9431" y="-383.8" font-family="Helvetica,sans-Serif" font-size="11.00" fill="#000000"> &#160;</text>
<polygon fill="#ffffff" stroke="transparent" points="393,-378.7 393,-395.7 450,-395.7 450,-378.7 393,-378.7"/>
<text text-anchor="start" x="432.4053" y="-383.8" font-family="Helvetica,sans-Serif" font-size="11.00" fill="#000000">1 &gt;</text>
<polygon fill="#000000" stroke="#000000" points="345,-378.7 345,-395.7 345,-395.7 345,-378.7 345,-378.7"/>
<polygon fill="#000000" stroke="#000000" points="393,-378.7 393,-395.7 393,-395.7 393,-378.7 393,-378.7"/>
</a>
</g>
</g>
<!-- summaries&#45;&gt;summary_groups -->
<g id="edge4" class="edge">
<title>summaries:w&#45;&gt;summary_groups:e</title>
<path fill="none" stroke="#000000" d="M477.4126,-424.0656C471.3591,-423.2076 465.2333,-422.3394 459.1355,-421.4751"/>
<polygon fill="#000000" stroke="#000000" points="483.8796,-424.9821 491.2952,-429.6692 487.84,-425.5434 491.8004,-426.1048 491.8004,-426.1048 491.8004,-426.1048 487.84,-425.5434 492.3056,-422.5404 483.8796,-424.9821 483.8796,-424.9821"/>
<ellipse fill="none" stroke="#000000" cx="480.7113" cy="-424.533" rx="3.2" ry="3.2"/>
</g>
<!-- decisions -->
<g id="node3" class="node">
<title>decisions</title>
<g id="a_node3"><a xlink:href="../../tables/decisions.html" xlink:title="decisions" target="_top">
<polygon fill="#ffffff" stroke="transparent" points="709,-449.2 709,-510.2 816,-510.2 816,-449.2 709,-449.2"/>
<polygon fill="#f5f5f5" stroke="transparent" points="709.5,-486.7 709.5,-509.7 816.5,-509.7 816.5,-486.7 709.5,-486.7"/>
<polygon fill="none" stroke="#000000" points="709.5,-486.7 709.5,-509.7 816.5,-509.7 816.5,-486.7 709.5,-486.7"/>
<text text-anchor="start" x="714.5" y="-495.3" font-family="Helvetica,sans-Serif" font-weight="bold" font-size="11.00" fill="#000000">decisions</text>
<text text-anchor="start" x="782.0219" y="-494.8" font-family="Helvetica,sans-Serif" font-size="11.00" fill="#000000">[table]</text>
<polygon fill="none" stroke="#000000" points="709.5,-467.7 709.5,-486.7 816.5,-486.7 816.5,-467.7 709.5,-467.7"/>
<text text-anchor="start" x="712.5" y="-473.8" font-family="Helvetica,sans-Serif" font-size="11.00" fill="#000000">...</text>
<polygon fill="#ffffff" stroke="transparent" points="709.5,-448.7 709.5,-467.7 816.5,-467.7 816.5,-448.7 709.5,-448.7"/>
<polygon fill="none" stroke="#000000" points="709.5,-448.7 709.5,-467.7 816.5,-467.7 816.5,-448.7 709.5,-448.7"/>
<polygon fill="#ffffff" stroke="transparent" points="710.5,-449.7 710.5,-466.7 751.5,-466.7 751.5,-449.7 710.5,-449.7"/>
<text text-anchor="start" x="712.5" y="-454.8" font-family="Helvetica,sans-Serif" font-size="11.00" fill="#000000">&lt; 1</text>
<polygon fill="#ffffff" stroke="transparent" points="751.5,-449.7 751.5,-466.7 783.5,-466.7 783.5,-449.7 751.5,-449.7"/>
<text text-anchor="start" x="764.4431" y="-454.8" font-family="Helvetica,sans-Serif" font-size="11.00" fill="#000000"> &#160;</text>
<polygon fill="#ffffff" stroke="transparent" points="783.5,-449.7 783.5,-466.7 815.5,-466.7 815.5,-449.7 783.5,-449.7"/>
<text text-anchor="start" x="807.3862" y="-454.8" font-family="Helvetica,sans-Serif" font-size="11.00" fill="#000000"> &#160;</text>
<polygon fill="#000000" stroke="#000000" points="751.5,-449.7 751.5,-466.7 751.5,-466.7 751.5,-449.7 751.5,-449.7"/>
<polygon fill="#000000" stroke="#000000" points="783.5,-449.7 783.5,-466.7 783.5,-466.7 783.5,-449.7 783.5,-449.7"/>
</a>
</g>
</g>
<!-- decisions&#45;&gt;summaries -->
<g id="edge2" class="edge">
<title>decisions:w&#45;&gt;summaries:e</title>
<path fill="none" stroke="#000000" d="M694.8371,-476.1248C671.7483,-474.3709 648.0894,-468.8146 627.1423,-462.3602"/>
<polygon fill="#000000" stroke="#000000" points="701.5061,-476.3864 709.3589,-480.2972 705.5031,-476.5432 709.5,-476.7 709.5,-476.7 709.5,-476.7 705.5031,-476.5432 709.6411,-473.1028 701.5061,-476.3864 701.5061,-476.3864"/>
<ellipse fill="none" stroke="#000000" cx="698.3086" cy="-476.2609" rx="3.2" ry="3.2"/>
</g>
<!-- oauth_identities -->
<g id="node4" class="node">
<title>oauth_identities</title>
<g id="a_node4"><a xlink:href="../../tables/oauth_identities.html" xlink:title="oauth_identities" target="_top">
<polygon fill="#ffffff" stroke="transparent" points="290.5,-208.2 290.5,-357.2 447.5,-357.2 447.5,-208.2 290.5,-208.2"/>
<polygon fill="#f5f5f5" stroke="transparent" points="291,-333.7 291,-356.7 448,-356.7 448,-333.7 291,-333.7"/>
<polygon fill="none" stroke="#000000" points="291,-333.7 291,-356.7 448,-356.7 448,-333.7 291,-333.7"/>
<text text-anchor="start" x="296" y="-342.3" font-family="Helvetica,sans-Serif" font-weight="bold" font-size="11.00" fill="#000000">oauth_identities</text>
<text text-anchor="start" x="413.5219" y="-341.8" font-family="Helvetica,sans-Serif" font-size="11.00" fill="#000000">[table]</text>
<polygon fill="none" stroke="#000000" points="291,-311.7 291,-333.7 448,-333.7 448,-311.7 291,-311.7"/>
<image xlink:href="../../images/primaryKeys.png" width="11px" height="12px" preserveAspectRatio="xMinYMin meet" x="296" y="-328.7"/>
<text text-anchor="start" x="320" y="-318.8" font-family="Helvetica,sans-Serif" font-size="11.00" fill="#000000">id</text>
<polygon fill="#ffffff" stroke="transparent" points="291,-289.7 291,-311.7 448,-311.7 448,-289.7 291,-289.7"/>
<polygon fill="none" stroke="#000000" points="291,-289.7 291,-311.7 448,-311.7 448,-289.7 291,-289.7"/>
<image xlink:href="../../images/foreignKeys.png" width="11px" height="12px" preserveAspectRatio="xMinYMin meet" x="296" y="-306.7"/>
<text text-anchor="start" x="320" y="-296.8" font-family="Helvetica,sans-Serif" font-size="11.00" fill="#000000">user_id</text>
<polygon fill="#ffffff" stroke="transparent" points="291,-267.7 291,-289.7 448,-289.7 448,-267.7 291,-267.7"/>
<polygon fill="none" stroke="#000000" points="291,-267.7 291,-289.7 448,-289.7 448,-267.7 291,-267.7"/>
<text text-anchor="start" x="320" y="-274.8" font-family="Helvetica,sans-Serif" font-size="11.00" fill="#000000">provider</text>
<polygon fill="#ffffff" stroke="transparent" points="291,-245.7 291,-267.7 448,-267.7 448,-245.7 291,-245.7"/>
<polygon fill="none" stroke="#000000" points="291,-245.7 291,-267.7 448,-267.7 448,-245.7 291,-245.7"/>
<text text-anchor="start" x="320" y="-252.8" font-family="Helvetica,sans-Serif" font-size="11.00" fill="#000000">subject</text>
<polygon fill="none" stroke="#000000" points="291,-226.7 291,-245.7 448,-245.7 448,-226.7 291,-226.7"/>
<text text-anchor="start" x="294" y="-232.8" font-family="Helvetica,sans-Serif" font-size="11.00" fill="#000000">...</text>
<polygon fill="#ffffff" stroke="transparent" points="291,-207.7 291,-226.7 448,-226.7 448,-207.7 291,-207.7"/>
<polygon fill="none" stroke="#000000" points="291,-207.7 291,-226.7 448,-226.7 448,-207.7 291,-207.7"/>
<polygon fill="#ffffff" stroke="transparent" points="292,-208.7 292,-225.7 350,-225.7 350,-208.7 292,-208.7"/>
<text text-anchor="start" x="294" y="-213.8" font-family="Helvetica,sans-Serif" font-size="11.00" fill="#000000">&lt; 1</text>
<polygon fill="#ffffff" stroke="transparent" points="350,-208.7 350,-225.7 399,-225.7 399,-208.7 350,-208.7"/>
<text text-anchor="start" x="371.4431" y="-213.8" font-family="Helvetica,sans-Serif" font-size="11.00" fill="#000000"> &#160;</text>
<polygon fill="#ffffff" stroke="transparent" points="399,-208.7 399,-225.7 447,-225.7 447,-208.7 399,-208.7"/>
<text text-anchor="start" x="438.8862" y="-213.8" font-family="Helvetica,sans-Serif" font-size="11.00" fill="#000000"> &#160;</text>
<polygon fill="#000000" stroke="#000000" points="350,-208.7 350,-225.7 350,-225.7 350,-208.7 350,-208.7"/>
<polygon fill="#000000" stroke="#000000" points="399,-208.7 399,-225.7 399,-225.7 399,-208.7 399,-208.7"/>
</a>
</g>
</g>
<!-- oauth_identities&#45;&gt;users -->
<g id="edge3" class="edge">
<title>oauth_identities:w&#45;&gt;users:e</title>
<path fill="none" stroke="#000000" d="M277.0848,-304.9373C259.9773,-317.6673 264.3689,-354.7 236,-354.7"/>
<polygon fill="#000000" stroke="#000000" points="283.3469,-303.0305 292.0487,-304.1439 287.1735,-301.8652 291,-300.7 291,-300.7 291,-300.7 287.1735,-301.8652 289.9513,-297.2561 283.3469,-303.0305 283.3469,-303.0305"/>
<ellipse fill="none" stroke="#000000" cx="280.2857" cy="-303.9626" rx="3.2" ry="3.2"/>
</g>
<!-- summary_groups&#45;&gt;users -->
<g id="edge6" class="edge">
<title>summary_groups:w&#45;&gt;users:e</title>
<path fill="none" stroke="#000000" d="M277.5557,-368.6941C257.8583,-360.6971 241.3152,-354.7 236,-354.7"/>
<polygon fill="#000000" stroke="#000000" points="283.4751,-371.1401 289.494,-377.5224 287.172,-372.6677 290.8688,-374.1952 290.8688,-374.1952 290.8688,-374.1952 287.172,-372.6677 292.2436,-370.8681 283.4751,-371.1401 283.4751,-371.1401"/>
<ellipse fill="none" stroke="#000000" cx="280.5177" cy="-369.918" rx="3.2" ry="3.2"/>
</g>
<!-- topics -->
<g id="node7" class="node">
<title>topics</title>
<g id="a_node7"><a xlink:href="../../tables/topics.html" xlink:title="topics" target="_top">
<polygon fill="#ffffff" stroke="transparent" points="721,-367.2 721,-428.2 804,-428.2 804,-367.2 721,-367.2"/>
<polygon fill="#f5f5f5" stroke="transparent" points="721.5,-404.7 721.5,-427.7 804.5,-427.7 804.5,-404.7 721.5,-404.7"/>
<polygon fill="none" stroke="#000000" points="721.5,-404.7 721.5,-427.7 804.5,-427.7 804.5,-404.7 721.5,-404.7"/>
<text text-anchor="start" x="726.5" y="-413.3" font-family="Helvetica,sans-Serif" font-weight="bold" font-size="11.00" fill="#000000">topics</text>
<text text-anchor="start" x="770.0219" y="-412.8" font-family="Helvetica,sans-Serif" font-size="11.00" fill="#000000">[table]</text>
<polygon fill="none" stroke="#000000" points="721.5,-385.7 721.5,-404.7 804.5,-404.7 804.5,-385.7 721.5,-385.7"/>
<text text-anchor="start" x="724.5" y="-391.8" font-family="Helvetica,sans-Serif" font-size="11.00" fill="#000000">...</text>
<polygon fill="#ffffff" stroke="transparent" points="721.5,-366.7 721.5,-385.7 804.5,-385.7 804.5,-366.7 721.5,-366.7"/>
<polygon fill="none" stroke="#000000" points="721.5,-366.7 721.5,-385.7 804.5,-385.7 804.5,-366.7 721.5,-366.7"/>
<polygon fill="#ffffff" stroke="transparent" points="722.5,-367.7 722.5,-384.7 755.5,-384.7 755.5,-367.7 722.5,-367.7"/>
<text text-anchor="start" x="724.5" y="-372.8" font-family="Helvetica,sans-Serif" font-size="11.00" fill="#000000">&lt; 1</text>
<polygon fill="#ffffff" stroke="transparent" points="755.5,-367.7 755.5,-384.7 779.5,-384.7 779.5,-367.7 755.5,-367.7"/>
<text text-anchor="start" x="764.4431" y="-372.8" font-family="Helvetica,sans-Serif" font-size="11.00" fill="#000000"> &#160;</text>
<polygon fill="#ffffff" stroke="transparent" points="779.5,-367.7 779.5,-384.7 803.5,-384.7 803.5,-367.7 779.5,-367.7"/>
<text text-anchor="start" x="795.3862" y="-372.8" font-family="Helvetica,sans-Serif" font-size="11.00" fill="#000000"> &#160;</text>
<polygon fill="#000000" stroke="#000000" points="755.5,-367.7 755.5,-384.7 755.5,-384.7 755.5,-367.7 755.5,-367.7"/>
<polygon fill="#000000" stroke="#000000" points="779.5,-367.7 779.5,-384.7 779.5,-384.7 779.5,-367.7 779.5,-367.7"/>
</a>
</g>
</g>
<!-- topics&#45;&gt;summaries -->
<g id="edge7" class="edge">
<title>topics:w&#45;&gt;summaries:e</title>
<path fill="none" stroke="#000000" d="M706.9051,-395.1951C679.6233,-396.9903 651.4432,-403.4333 627.122,-410.6691"/>
<polygon fill="#000000" stroke="#000000" points="713.5046,-394.9713 721.6221,-398.2979 717.5023,-394.8357 721.5,-394.7 721.5,-394.7 721.5,-394.7 717.5023,-394.8357 721.3779,-391.1021 713.5046,-394.9713 713.5046,-394.9713"/>
<ellipse fill="none" stroke="#000000" cx="710.3064" cy="-395.0798" rx="3.2" ry="3.2"/>
</g>
<!-- transcript_segments -->
<g id="node8" class="node">
<title>transcript_segments</title>
<g id="a_node8"><a xlink:href="../../tables/transcript_segments.html" xlink:title="transcript_segments" target="_top">
<polygon fill="#ffffff" stroke="transparent" points="668,-285.2 668,-346.2 857,-346.2 857,-285.2 668,-285.2"/>
<polygon fill="#f5f5f5" stroke="transparent" points="668.5,-322.7 668.5,-345.7 857.5,-345.7 857.5,-322.7 668.5,-322.7"/>
<polygon fill="none" stroke="#000000" points="668.5,-322.7 668.5,-345.7 857.5,-345.7 857.5,-322.7 668.5,-322.7"/>
<text text-anchor="start" x="673.5" y="-331.3" font-family="Helvetica,sans-Serif" font-weight="bold" font-size="11.00" fill="#000000">transcript_segments</text>
<text text-anchor="start" x="823.0219" y="-330.8" font-family="Helvetica,sans-Serif" font-size="11.00" fill="#000000">[table]</text>
<polygon fill="none" stroke="#000000" points="668.5,-303.7 668.5,-322.7 857.5,-322.7 857.5,-303.7 668.5,-303.7"/>
<text text-anchor="start" x="671.5" y="-309.8" font-family="Helvetica,sans-Serif" font-size="11.00" fill="#000000">...</text>
<polygon fill="#ffffff" stroke="transparent" points="668.5,-284.7 668.5,-303.7 857.5,-303.7 857.5,-284.7 668.5,-284.7"/>
<polygon fill="none" stroke="#000000" points="668.5,-284.7 668.5,-303.7 857.5,-303.7 857.5,-284.7 668.5,-284.7"/>
<polygon fill="#ffffff" stroke="transparent" points="669.5,-285.7 669.5,-302.7 738.5,-302.7 738.5,-285.7 669.5,-285.7"/>
<text text-anchor="start" x="671.5" y="-290.8" font-family="Helvetica,sans-Serif" font-size="11.00" fill="#000000">&lt; 1</text>
<polygon fill="#ffffff" stroke="transparent" points="738.5,-285.7 738.5,-302.7 797.5,-302.7 797.5,-285.7 738.5,-285.7"/>
<text text-anchor="start" x="764.9431" y="-290.8" font-family="Helvetica,sans-Serif" font-size="11.00" fill="#000000"> &#160;</text>
<polygon fill="#ffffff" stroke="transparent" points="797.5,-285.7 797.5,-302.7 856.5,-302.7 856.5,-285.7 797.5,-285.7"/>
<text text-anchor="start" x="848.3862" y="-290.8" font-family="Helvetica,sans-Serif" font-size="11.00" fill="#000000"> &#160;</text>
<polygon fill="#000000" stroke="#000000" points="738.5,-285.7 738.5,-302.7 738.5,-302.7 738.5,-285.7 738.5,-285.7"/>
<polygon fill="#000000" stroke="#000000" points="797.5,-285.7 797.5,-302.7 797.5,-302.7 797.5,-285.7 797.5,-285.7"/>
</a>
</g>
</g>
<!-- transcript_segments&#45;&gt;summaries -->
<g id="edge8" class="edge">
<title>transcript_segments:w&#45;&gt;summaries:e</title>
<path fill="none" stroke="#000000" d="M653.9918,-314.3569C614.4527,-323.501 587.4405,-368.567 572.7329,-401.1103"/>
<polygon fill="#000000" stroke="#000000" points="660.5517,-313.6078 668.9085,-316.2768 664.5258,-313.1539 668.5,-312.7 668.5,-312.7 668.5,-312.7 664.5258,-313.1539 668.0915,-309.1232 660.5517,-313.6078 660.5517,-313.6078"/>
<ellipse fill="none" stroke="#000000" cx="657.3723" cy="-313.9709" rx="3.2" ry="3.2"/>
</g>
<!-- user_sessions -->
<g id="node9" class="node">
<title>user_sessions</title>
<g id="a_node9"><a xlink:href="../../tables/user_sessions.html" xlink:title="user_sessions" target="_top">
<polygon fill="#ffffff" stroke="transparent" points="299,-38.2 299,-187.2 439,-187.2 439,-38.2 299,-38.2"/>
<polygon fill="#f5f5f5" stroke="transparent" points="299,-163.7 299,-186.7 439,-186.7 439,-163.7 299,-163.7"/>
<polygon fill="none" stroke="#000000" points="299,-163.7 299,-186.7 439,-186.7 439,-163.7 299,-163.7"/>
<text text-anchor="start" x="304" y="-172.3" font-family="Helvetica,sans-Serif" font-weight="bold" font-size="11.00" fill="#000000">user_sessions</text>
<text text-anchor="start" x="404.5219" y="-171.8" font-family="Helvetica,sans-Serif" font-size="11.00" fill="#000000">[table]</text>
<polygon fill="none" stroke="#000000" points="299,-141.7 299,-163.7 439,-163.7 439,-141.7 299,-141.7"/>
<image xlink:href="../../images/primaryKeys.png" width="11px" height="12px" preserveAspectRatio="xMinYMin meet" x="304" y="-158.7"/>
<text text-anchor="start" x="328" y="-148.8" font-family="Helvetica,sans-Serif" font-size="11.00" fill="#000000">id</text>
<polygon fill="#ffffff" stroke="transparent" points="299,-119.7 299,-141.7 439,-141.7 439,-119.7 299,-119.7"/>
<polygon fill="none" stroke="#000000" points="299,-119.7 299,-141.7 439,-141.7 439,-119.7 299,-119.7"/>
<image xlink:href="../../images/foreignKeys.png" width="11px" height="12px" preserveAspectRatio="xMinYMin meet" x="304" y="-136.7"/>
<text text-anchor="start" x="328" y="-126.8" font-family="Helvetica,sans-Serif" font-size="11.00" fill="#000000">user_id</text>
<polygon fill="#ffffff" stroke="transparent" points="299,-97.7 299,-119.7 439,-119.7 439,-97.7 299,-97.7"/>
<polygon fill="none" stroke="#000000" points="299,-97.7 299,-119.7 439,-119.7 439,-97.7 299,-97.7"/>
<text text-anchor="start" x="328" y="-104.8" font-family="Helvetica,sans-Serif" font-size="11.00" fill="#000000">token_hash</text>
<polygon fill="#ffffff" stroke="transparent" points="299,-75.7 299,-97.7 439,-97.7 439,-75.7 299,-75.7"/>
<polygon fill="none" stroke="#000000" points="299,-75.7 299,-97.7 439,-97.7 439,-75.7 299,-75.7"/>
<text text-anchor="start" x="328" y="-82.8" font-family="Helvetica,sans-Serif" font-size="11.00" fill="#000000">expires_at</text>
<polygon fill="none" stroke="#000000" points="299,-56.7 299,-75.7 439,-75.7 439,-56.7 299,-56.7"/>
<text text-anchor="start" x="302" y="-62.8" font-family="Helvetica,sans-Serif" font-size="11.00" fill="#000000">...</text>
<polygon fill="#ffffff" stroke="transparent" points="299,-37.7 299,-56.7 439,-56.7 439,-37.7 299,-37.7"/>
<polygon fill="none" stroke="#000000" points="299,-37.7 299,-56.7 439,-56.7 439,-37.7 299,-37.7"/>
<polygon fill="#ffffff" stroke="transparent" points="300,-38.7 300,-55.7 352,-55.7 352,-38.7 300,-38.7"/>
<text text-anchor="start" x="302" y="-43.8" font-family="Helvetica,sans-Serif" font-size="11.00" fill="#000000">&lt; 1</text>
<polygon fill="#ffffff" stroke="transparent" points="352,-38.7 352,-55.7 395,-55.7 395,-38.7 352,-38.7"/>
<text text-anchor="start" x="370.4431" y="-43.8" font-family="Helvetica,sans-Serif" font-size="11.00" fill="#000000"> &#160;</text>
<polygon fill="#ffffff" stroke="transparent" points="395,-38.7 395,-55.7 438,-55.7 438,-38.7 395,-38.7"/>
<text text-anchor="start" x="429.8862" y="-43.8" font-family="Helvetica,sans-Serif" font-size="11.00" fill="#000000"> &#160;</text>
<polygon fill="#000000" stroke="#000000" points="352,-38.7 352,-55.7 352,-55.7 352,-38.7 352,-38.7"/>
<polygon fill="#000000" stroke="#000000" points="395,-38.7 395,-55.7 395,-55.7 395,-38.7 395,-38.7"/>
</a>
</g>
</g>
<!-- user_sessions&#45;&gt;users -->
<g id="edge9" class="edge">
<title>user_sessions:w&#45;&gt;users:e</title>
<path fill="none" stroke="#000000" d="M284.6292,-132.5031C210.0645,-153.7021 333.9644,-354.7 236,-354.7"/>
<polygon fill="#000000" stroke="#000000" points="291.0622,-131.696 299.4482,-134.272 295.0311,-131.198 299,-130.7 299,-130.7 299,-130.7 295.0311,-131.198 298.5518,-127.128 291.0622,-131.696 291.0622,-131.696"/>
<ellipse fill="none" stroke="#000000" cx="287.8871" cy="-132.0944" rx="3.2" ry="3.2"/>
</g>
</g>
</svg>
