<?xml version="1.0" encoding="UTF-8" standalone="no"?>
<!DOCTYPE svg PUBLIC "-//W3C//DTD SVG 1.1//EN"
 "http://www.w3.org/Graphics/SVG/1.1/DTD/svg11.dtd">
<!-- Generated by graphviz version 2.40.1 (20161225.0304)
 -->
<!-- Title: twoDegreesRelationshipsDiagram Pages: 1 -->
<svg width="564pt" height="487pt"
 viewBox="0.00 0.00 564.00 486.70" xmlns="http://www.w3.org/2000/svg" xmlns:xlink="http://www.w3.org/1999/xlink">
<g id="graph0" class="graph" transform="scale(1 1) rotate(0) translate(4 482.7)">
<title>twoDegreesRelationshipsDiagram</title>
<polygon fill="#ffffff" stroke="transparent" points="-4,4 -4,-482.7 560,-482.7 560,4 -4,4"/>
<text text-anchor="middle" x="72.4936" y="-7.3" font-family="Helvetica,sans-Serif" font-size="11.00" fill="#000000">Generated by SchemaSpy</text>
<!-- oauth_identities -->
<g id="node1" class="node">
<title>oauth_identities</title>
<g id="a_node1"><a xlink:href="../../tables/oauth_identities.html" xlink:title="oauth_identities" target="_top">
<polygon fill="#ffffff" stroke="transparent" points="191.5,-413.7 191.5,-474.7 348.5,-474.7 348.5,-413.7 191.5,-413.7"/>
<polygon fill="#f5f5f5" stroke="transparent" points="192,-451.2 192,-474.2 349,-474.2 349,-451.2 192,-451.2"/>
<polygon fill="none" stroke="#000000" points="192,-451.2 192,-474.2 349,-474.2 349,-451.2 192,-451.2"/>
<text text-anchor="start" x="197" y="-459.8" font-family="Helvetica,sans-Serif" font-weight="bold" font-size="11.00" fill="#000000">oauth_identities</text>
<text text-anchor="start" x="314.5219" y="-459.3" font-family="Helvetica,sans-Serif" font-size="11.00" fill="#000000">[table]</text>
<polygon fill="none" stroke="#000000" points="192,-432.2 192,-451.2 349,-451.2 349,-432.2 192,-432.2"/>
<text text-anchor="start" x="195" y="-438.3" font-family="Helvetica,sans-Serif" font-size="11.00" fill="#000000">...</text>
<polygon fill="#ffffff" stroke="transparent" points="192,-413.2 192,-432.2 349,-432.2 349,-413.2 192,-413.2"/>
<polygon fill="none" stroke="#000000" points="192,-413.2 192,-432.2 349,-432.2 349,-413.2 192,-413.2"/>
<polygon fill="#ffffff" stroke="transparent" points="193,-414.2 193,-431.2 251,-431.2 251,-414.2 193,-414.2"/>
<text text-anchor="start" x="195" y="-419.3" font-family="Helvetica,sans-Serif" font-size="11.00" fill="#000000">&lt; 1</text>
<polygon fill="#ffffff" stroke="transparent" points="251,-414.2 251,-431.2 300,-431.2 300,-414.2 251,-414.2"/>
<text text-anchor="start" x="272.4431" y="-419.3" font-family="Helvetica,sans-Serif" font-size="11.00" fill="#000000"> &#160;</text>
<polygon fill="#ffffff" stroke="transparent" points="300,-414.2 300,-431.2 348,-431.2 348,-414.2 300,-414.2"/>
<text text-anchor="start" x="339.8862" y="-419.3" font-family="Helvetica,sans-Serif" font-size="11.00" fill="#000000"> &#160;</text>
<polygon fill="#000000" stroke="#000000" points="251,-414.2 251,-431.2 251,-431.2 251,-414.2 251,-414.2"/>
<polygon fill="#000000" stroke="#000000" points="300,-414.2 300,-431.2 300,-431.2 300,-414.2 300,-414.2"/>
</a>
</g>
</g>
<!-- users -->
<g id="node2" class="node">
<title>users</title>
<g id="a_node2"><a xlink:href="../../tables/users.html" xlink:title="users" target="_top">
<polygon fill="#ffffff" stroke="transparent" points="8,-311.7 8,-394.7 111,-394.7 111,-311.7 8,-311.7"/>
<polygon fill="#f5f5f5" stroke="transparent" points="8.5,-371.2 8.5,-394.2 111.5,-394.2 111.5,-371.2 8.5,-371.2"/>
<polygon fill="none" stroke="#000000" points="8.5,-371.2 8.5,-394.2 111.5,-394.2 111.5,-371.2 8.5,-371.2"/>
<text text-anchor="start" x="13.5" y="-379.8" font-family="Helvetica,sans-Serif" font-weight="bold" font-size="11.00" fill="#000000">users</text>
<text text-anchor="start" x="76.5437" y="-379.3" font-family="Helvetica,sans-Serif" font-size="11.00" fill="#000000">[table]</text>
<polygon fill="none" stroke="#000000" points="8.5,-349.2 8.5,-371.2 111.5,-371.2 111.5,-349.2 8.5,-349.2"/>
<image xlink:href="../../images/primaryKeys.png" width="11px" height="12px" preserveAspectRatio="xMinYMin meet" x="13.5" y="-366.2"/>
<text text-anchor="start" x="28.5" y="-356.3" font-family="Helvetica,sans-Serif" font-size="11.00" fill="#000000">id</text>
<polygon fill="none" stroke="#000000" points="8.5,-330.2 8.5,-349.2 111.5,-349.2 111.5,-330.2 8.5,-330.2"/>
<text text-anchor="start" x="11.5" y="-336.3" font-family="Helvetica,sans-Serif" font-size="11.00" fill="#000000">...</text>
<polygon fill="#ffffff" stroke="transparent" points="8.5,-311.2 8.5,-330.2 111.5,-330.2 111.5,-311.2 8.5,-311.2"/>
<polygon fill="none" stroke="#000000" points="8.5,-311.2 8.5,-330.2 111.5,-330.2 111.5,-311.2 8.5,-311.2"/>
<polygon fill="#ffffff" stroke="transparent" points="9.5,-312.2 9.5,-329.2 40.5,-329.2 40.5,-312.2 9.5,-312.2"/>
<text text-anchor="start" x="11.5" y="-317.3" font-family="Helvetica,sans-Serif" font-size="11.00" fill="#000000"> &#160;</text>
<polygon fill="#ffffff" stroke="transparent" points="40.5,-312.2 40.5,-329.2 71.5,-329.2 71.5,-312.2 40.5,-312.2"/>
<text text-anchor="start" x="52.9431" y="-317.3" font-family="Helvetica,sans-Serif" font-size="11.00" fill="#000000"> &#160;</text>
<polygon fill="#ffffff" stroke="transparent" points="71.5,-312.2 71.5,-329.2 110.5,-329.2 110.5,-312.2 71.5,-312.2"/>
<text text-anchor="start" x="92.9053" y="-317.3" font-family="Helvetica,sans-Serif" font-size="11.00" fill="#000000">4 &gt;</text>
<polygon fill="#000000" stroke="#000000" points="40.5,-312.2 40.5,-329.2 40.5,-329.2 40.5,-312.2 40.5,-312.2"/>
<polygon fill="#000000" stroke="#000000" points="71.5,-312.2 71.5,-329.2 71.5,-329.2 71.5,-312.2 71.5,-312.2"/>
</a>
</g>
</g>
<!-- oauth_identities&#45;&gt;users -->
<g id="edge1" class="edge">
<title>oauth_identities:w&#45;&gt;users:e</title>
<path fill="none" stroke="#000000" d="M177.7338,-438.505C144.9825,-424.4502 156.7035,-360.2 111.5,-360.2"/>
<polygon fill="#000000" stroke="#000000" points="184.139,-439.7149 191.3317,-444.7374 188.0695,-440.4575 192,-441.2 192,-441.2 192,-441.2 188.0695,-440.4575 192.6683,-437.6626 184.139,-439.7149 184.139,-439.7149"/>
<ellipse fill="none" stroke="#000000" cx="180.9946" cy="-439.1209" rx="3.2" ry="3.2"/>
</g>
<!-- summaries -->
<g id="node3" class="node">
<title>summaries</title>
<g id="a_node3"><a xlink:href="../../tables/summaries.html" xlink:title="summaries" target="_top">
<polygon fill="#ffffff" stroke="transparent" points="429,-332.7 429,-393.7 548,-393.7 548,-332.7 429,-332.7"/>
<polygon fill="#f5f5f5" stroke="transparent" points="429.5,-370.2 429.5,-393.2 548.5,-393.2 548.5,-370.2 429.5,-370.2"/>
<polygon fill="none" stroke="#000000" points="429.5,-370.2 429.5,-393.2 548.5,-393.2 548.5,-370.2 429.5,-370.2"/>
<text text-anchor="start" x="434.5" y="-378.8" font-family="Helvetica,sans-Serif" font-weight="bold" font-size="11.00" fill="#000000">summaries</text>
<text text-anchor="start" x="514.0219" y="-378.3" font-family="Helvetica,sans-Serif" font-size="11.00" fill="#000000">[table]</text>
<polygon fill="none" stroke="#000000" points="429.5,-351.2 429.5,-370.2 548.5,-370.2 548.5,-351.2 429.5,-351.2"/>
<text text-anchor="start" x="432.5" y="-357.3" font-family="Helvetica,sans-Serif" font-size="11.00" fill="#000000">...</text>
<polygon fill="#ffffff" stroke="transparent" points="429.5,-332.2 429.5,-351.2 548.5,-351.2 548.5,-332.2 429.5,-332.2"/>
<polygon fill="none" stroke="#000000" points="429.5,-332.2 429.5,-351.2 548.5,-351.2 548.5,-332.2 429.5,-332.2"/>
<polygon fill="#ffffff" stroke="transparent" points="430.5,-333.2 430.5,-350.2 472.5,-350.2 472.5,-333.2 430.5,-333.2"/>
<text text-anchor="start" x="432.5" y="-338.3" font-family="Helvetica,sans-Serif" font-size="11.00" fill="#000000">&lt; 2</text>
<polygon fill="#ffffff" stroke="transparent" points="472.5,-333.2 472.5,-350.2 505.5,-350.2 505.5,-333.2 472.5,-333.2"/>
<text text-anchor="start" x="485.9431" y="-338.3" font-family="Helvetica,sans-Serif" font-size="11.00" fill="#000000"> &#160;</text>
<polygon fill="#ffffff" stroke="transparent" points="505.5,-333.2 505.5,-350.2 547.5,-350.2 547.5,-333.2 505.5,-333.2"/>
<text text-anchor="start" x="529.9053" y="-338.3" font-family="Helvetica,sans-Serif" font-size="11.00" fill="#000000">4 &gt;</text>
<polygon fill="#000000" stroke="#000000" points="472.5,-333.2 472.5,-350.2 472.5,-350.2 472.5,-333.2 472.5,-333.2"/>
<polygon fill="#000000" stroke="#000000" points="505.5,-333.2 505.5,-350.2 505.5,-350.2 505.5,-333.2 505.5,-333.2"/>
</a>
</g>
</g>
<!-- summaries&#45;&gt;users -->
<g id="edge3" class="edge">
<title>summaries:w&#45;&gt;users:e</title>
<path fill="none" stroke="#000000" d="M415.0752,-362.9974C406.6461,-366.6561 401.2812,-372.8734 388,-375.2 284.6844,-393.2985 255.2436,-393.705 152,-375.2 133.1062,-371.8135 130.6949,-360.2 111.5,-360.2"/>
<polygon fill="#000000" stroke="#000000" points="421.6463,-361.7231 430.1854,-363.7342 425.5732,-360.9616 429.5,-360.2 429.5,-360.2 429.5,-360.2 425.5732,-360.9616 428.8146,-356.6658 421.6463,-361.7231 421.6463,-361.7231"/>
<ellipse fill="none" stroke="#000000" cx="418.5048" cy="-362.3323" rx="3.2" ry="3.2"/>
</g>
<!-- summary_groups -->
<g id="node4" class="node">
<title>summary_groups</title>
<g id="a_node4"><a xlink:href="../../tables/summary_groups.html" xlink:title="summary_groups" target="_top">
<polygon fill="#ffffff" stroke="transparent" points="188,-303.7 188,-364.7 352,-364.7 352,-303.7 188,-303.7"/>
<polygon fill="#f5f5f5" stroke="transparent" points="188,-341.2 188,-364.2 352,-364.2 352,-341.2 188,-341.2"/>
<polygon fill="none" stroke="#000000" points="188,-341.2 188,-364.2 352,-364.2 352,-341.2 188,-341.2"/>
<text text-anchor="start" x="193" y="-349.8" font-family="Helvetica,sans-Serif" font-weight="bold" font-size="11.00" fill="#000000">summary_groups</text>
<text text-anchor="start" x="317.5219" y="-349.3" font-family="Helvetica,sans-Serif" font-size="11.00" fill="#000000">[table]</text>
<polygon fill="none" stroke="#000000" points="188,-322.2 188,-341.2 352,-341.2 352,-322.2 188,-322.2"/>
<text text-anchor="start" x="191" y="-328.3" font-family="Helvetica,sans-Serif" font-size="11.00" fill="#000000">...</text>
<polygon fill="#ffffff" stroke="transparent" points="188,-303.2 188,-322.2 352,-322.2 352,-303.2 188,-303.2"/>
<polygon fill="none" stroke="#000000" points="188,-303.2 188,-322.2 352,-322.2 352,-303.2 188,-303.2"/>
<polygon fill="#ffffff" stroke="transparent" points="189,-304.2 189,-321.2 246,-321.2 246,-304.2 189,-304.2"/>
<text text-anchor="start" x="191" y="-309.3" font-family="Helvetica,sans-Serif" font-size="11.00" fill="#000000">&lt; 1</text>
<polygon fill="#ffffff" stroke="transparent" points="246,-304.2 246,-321.2 294,-321.2 294,-304.2 246,-304.2"/>
<text text-anchor="start" x="266.9431" y="-309.3" font-family="Helvetica,sans-Serif" font-size="11.00" fill="#000000"> &#160;</text>
<polygon fill="#ffffff" stroke="transparent" points="294,-304.2 294,-321.2 351,-321.2 351,-304.2 294,-304.2"/>
<text text-anchor="start" x="333.4053" y="-309.3" font-family="Helvetica,sans-Serif" font-size="11.00" fill="#000000">1 &gt;</text>
<polygon fill="#000000" stroke="#000000" points="246,-304.2 246,-321.2 246,-321.2 246,-304.2 246,-304.2"/>
<polygon fill="#000000" stroke="#000000" points="294,-304.2 294,-321.2 294,-321.2 294,-304.2 294,-304.2"/>
</a>
</g>
</g>
<!-- summaries&#45;&gt;summary_groups -->
<g id="edge2" class="edge">
<title>summaries:w&#45;&gt;summary_groups:e</title>
<path fill="none" stroke="#000000" d="M415.0782,-358.4728C390.8282,-352.2296 383.3179,-331.2 352,-331.2"/>
<polygon fill="#000000" stroke="#000000" points="421.5568,-359.2486 429.0719,-363.7745 425.5284,-359.7243 429.5,-360.2 429.5,-360.2 429.5,-360.2 425.5284,-359.7243 429.9281,-356.6255 421.5568,-359.2486 421.5568,-359.2486"/>
<ellipse fill="none" stroke="#000000" cx="418.3795" cy="-358.8681" rx="3.2" ry="3.2"/>
</g>
<!-- summary_groups&#45;&gt;users -->
<g id="edge4" class="edge">
<title>summary_groups:w&#45;&gt;users:e</title>
<path fill="none" stroke="#000000" d="M173.4201,-333.0141C149.7317,-339.3629 142.3216,-360.2 111.5,-360.2"/>
<polygon fill="#000000" stroke="#000000" points="180.0612,-332.1878 188.4445,-334.7725 184.0306,-331.6939 188,-331.2 188,-331.2 188,-331.2 184.0306,-331.6939 187.5555,-327.6275 180.0612,-332.1878 180.0612,-332.1878"/>
<ellipse fill="none" stroke="#000000" cx="176.8857" cy="-332.5829" rx="3.2" ry="3.2"/>
</g>
<!-- user_sessions -->
<g id="node5" class="node">
<title>user_sessions</title>
<g id="a_node5"><a xlink:href="../../tables/user_sessions.html" xlink:title="user_sessions" target="_top">
<polygon fill="#ffffff" stroke="transparent" points="160,-38.2 160,-282.2 380,-282.2 380,-38.2 160,-38.2"/>
<polygon fill="#f5f5f5" stroke="transparent" points="162,-257.2 162,-280.2 378,-280.2 378,-257.2 162,-257.2"/>
<polygon fill="none" stroke="#000000" points="162,-257.2 162,-280.2 378,-280.2 378,-257.2 162,-257.2"/>
<text text-anchor="start" x="167" y="-265.8" font-family="Helvetica,sans-Serif" font-weight="bold" font-size="11.00" fill="#000000">user_sessions</text>
<text text-anchor="start" x="343.0437" y="-265.3" font-family="Helvetica,sans-Serif" font-size="11.00" fill="#000000">[table]</text>
<polygon fill="none" stroke="#000000" points="162,-235.2 162,-257.2 284,-257.2 284,-235.2 162,-235.2"/>
<image xlink:href="../../images/primaryKeys.png" width="11px" height="12px" preserveAspectRatio="xMinYMin meet" x="167" y="-252.2"/>
<text text-anchor="start" x="182" y="-242.3" font-family="Helvetica,sans-Serif" font-size="11.00" fill="#000000">id</text>
<polygon fill="none" stroke="#000000" points="284,-235.2 284,-257.2 378,-257.2 378,-235.2 284,-235.2"/>
<text text-anchor="start" x="286.9758" y="-242.9" font-family="Helvetica,sans-Serif" font-size="11.00" fill="#000000">uuid[2147483647]</text>
<polygon fill="#ffffff" stroke="transparent" points="162,-213.2 162,-235.2 284,-235.2 284,-213.2 162,-213.2"/>
<polygon fill="none" stroke="#000000" points="162,-213.2 162,-235.2 284,-235.2 284,-213.2 162,-213.2"/>
<image xlink:href="../../images/foreignKeys.png" width="11px" height="12px" preserveAspectRatio="xMinYMin meet" x="167" y="-230.2"/>
<text text-anchor="start" x="182" y="-220.3" font-family="Helvetica,sans-Serif" font-size="11.00" fill="#000000">user_id</text>
<polygon fill="none" stroke="#000000" points="284,-213.2 284,-235.2 378,-235.2 378,-213.2 284,-213.2"/>
<text text-anchor="start" x="286.9758" y="-220.9" font-family="Helvetica,sans-Serif" font-size="11.00" fill="#000000">uuid[2147483647]</text>
<polygon fill="#ffffff" stroke="transparent" points="162,-191.2 162,-213.2 284,-213.2 284,-191.2 162,-191.2"/>
<polygon fill="none" stroke="#000000" points="162,-191.2 162,-213.2 284,-213.2 284,-191.2 162,-191.2"/>
<text text-anchor="start" x="182" y="-198.3" font-family="Helvetica,sans-Serif" font-size="11.00" fill="#000000">token_hash</text>
<polygon fill="none" stroke="#000000" points="284,-191.2 284,-213.2 378,-213.2 378,-191.2 284,-191.2"/>
<text text-anchor="start" x="287" y="-198.9" font-family="Helvetica,sans-Serif" font-size="11.00" fill="#000000">varchar[64]</text>
<polygon fill="none" stroke="#000000" points="162,-169.2 162,-191.2 284,-191.2 284,-169.2 162,-169.2"/>
<text text-anchor="start" x="182" y="-176.3" font-family="Helvetica,sans-Serif" font-size="11.00" fill="#000000">created_at</text>
<polygon fill="none" stroke="#000000" points="284,-169.2 284,-191.2 378,-191.2 378,-169.2 284,-169.2"/>
<text text-anchor="start" x="287" y="-176.9" font-family="Helvetica,sans-Serif" font-size="11.00" fill="#000000">timestamptz[35,6]</text>
<polygon fill="#ffffff" stroke="transparent" points="162,-147.2 162,-169.2 284,-169.2 284,-147.2 162,-147.2"/>
<polygon fill="none" stroke="#000000" points="162,-147.2 162,-169.2 284,-169.2 284,-147.2 162,-147.2"/>
<text text-anchor="start" x="182" y="-154.3" font-family="Helvetica,sans-Serif" font-size="11.00" fill="#000000">expires_at</text>
<polygon fill="none" stroke="#000000" points="284,-147.2 284,-169.2 378,-169.2 378,-147.2 284,-147.2"/>
<text text-anchor="start" x="287" y="-154.9" font-family="Helvetica,sans-Serif" font-size="11.00" fill="#000000">timestamptz[35,6]</text>
<polygon fill="none" stroke="#000000" points="162,-125.2 162,-147.2 284,-147.2 284,-125.2 162,-125.2"/>
<text text-anchor="start" x="182" y="-132.3" font-family="Helvetica,sans-Serif" font-size="11.00" fill="#000000">last_seen_at</text>
<polygon fill="none" stroke="#000000" points="284,-125.2 284,-147.2 378,-147.2 378,-125.2 284,-125.2"/>
<text text-anchor="start" x="287" y="-132.9" font-family="Helvetica,sans-Serif" font-size="11.00" fill="#000000">timestamptz[35,6]</text>
<polygon fill="none" stroke="#000000" points="162,-103.2 162,-125.2 284,-125.2 284,-103.2 162,-103.2"/>
<text text-anchor="start" x="182" y="-110.3" font-family="Helvetica,sans-Serif" font-size="11.00" fill="#000000">revoked_at</text>
<polygon fill="none" stroke="#000000" points="284,-103.2 284,-125.2 378,-125.2 378,-103.2 284,-103.2"/>
<text text-anchor="start" x="287" y="-110.9" font-family="Helvetica,sans-Serif" font-size="11.00" fill="#000000">timestamptz[35,6]</text>
<polygon fill="none" stroke="#000000" points="162,-81.2 162,-103.2 284,-103.2 284,-81.2 162,-81.2"/>
<text text-anchor="start" x="182" y="-88.3" font-family="Helvetica,sans-Serif" font-size="11.00" fill="#000000">user_agent</text>
<polygon fill="none" stroke="#000000" points="284,-81.2 284,-103.2 378,-103.2 378,-81.2 284,-81.2"/>
<text text-anchor="start" x="287" y="-88.9" font-family="Helvetica,sans-Serif" font-size="11.00" fill="#000000">varchar[512]</text>
<polygon fill="none" stroke="#000000" points="162,-59.2 162,-81.2 284,-81.2 284,-59.2 162,-59.2"/>
<text text-anchor="start" x="182" y="-66.3" font-family="Helvetica,sans-Serif" font-size="11.00" fill="#000000">ip_address</text>
<polygon fill="none" stroke="#000000" points="284,-59.2 284,-81.2 378,-81.2 378,-59.2 284,-59.2"/>
<text text-anchor="start" x="287" y="-66.9" font-family="Helvetica,sans-Serif" font-size="11.00" fill="#000000">varchar[45]</text>
<polygon fill="#ffffff" stroke="transparent" points="162,-40.2 162,-59.2 378,-59.2 378,-40.2 162,-40.2"/>
<polygon fill="none" stroke="#000000" points="162,-40.2 162,-59.2 378,-59.2 378,-40.2 162,-40.2"/>
<polygon fill="#ffffff" stroke="transparent" points="163,-41.2 163,-58.2 238,-58.2 238,-41.2 163,-41.2"/>
<text text-anchor="start" x="165" y="-46.3" font-family="Helvetica,sans-Serif" font-size="11.00" fill="#000000">&lt; 1</text>
<polygon fill="#ffffff" stroke="transparent" points="238,-41.2 238,-58.2 303,-58.2 303,-41.2 238,-41.2"/>
<text text-anchor="start" x="267.4431" y="-46.3" font-family="Helvetica,sans-Serif" font-size="11.00" fill="#000000"> &#160;</text>
<polygon fill="#ffffff" stroke="transparent" points="303,-41.2 303,-58.2 377,-58.2 377,-41.2 303,-41.2"/>
<text text-anchor="start" x="359.4053" y="-46.3" font-family="Helvetica,sans-Serif" font-size="11.00" fill="#000000">0 &gt;</text>
<polygon fill="#000000" stroke="#000000" points="238,-41.2 238,-58.2 238,-58.2 238,-41.2 238,-41.2"/>
<polygon fill="#000000" stroke="#000000" points="303,-41.2 303,-58.2 303,-58.2 303,-41.2 303,-41.2"/>
<polygon fill="none" stroke="#000000" stroke-width="2" points="161,-39.2 161,-281.2 379,-281.2 379,-39.2 161,-39.2"/>
</a>
</g>
</g>
<!-- user_sessions&#45;&gt;users -->
<g id="edge5" class="edge">
<title>user_sessions:w&#45;&gt;users:e</title>
<path fill="none" stroke="#000000" d="M147.8753,-227.2961C110.4665,-247.5397 170.1841,-360.2 111.5,-360.2"/>
<polygon fill="#000000" stroke="#000000" points="154.1855,-225.9129 162.7708,-227.7165 158.0928,-225.0565 162,-224.2 162,-224.2 162,-224.2 158.0928,-225.0565 161.2292,-220.6835 154.1855,-225.9129 154.1855,-225.9129"/>
<ellipse fill="none" stroke="#000000" cx="151.0597" cy="-226.5981" rx="3.2" ry="3.2"/>
</g>
</g>
</svg>
