<?xml version="1.0" encoding="UTF-8" standalone="no"?>
<!DOCTYPE svg PUBLIC "-//W3C//DTD SVG 1.1//EN"
 "http://www.w3.org/Graphics/SVG/1.1/DTD/svg11.dtd">
<!-- Generated by graphviz version 2.40.1 (20161225.0304)
 -->
<!-- Title: compactRelationshipsDiagram Pages: 1 -->
<svg width="570pt" height="504pt"
 viewBox="0.00 0.00 570.00 503.70" xmlns="http://www.w3.org/2000/svg" xmlns:xlink="http://www.w3.org/1999/xlink">
<g id="graph0" class="graph" transform="scale(1 1) rotate(0) translate(4 499.7)">
<title>compactRelationshipsDiagram</title>
<polygon fill="#ffffff" stroke="transparent" points="-4,4 -4,-499.7 566,-499.7 566,4 -4,4"/>
<text text-anchor="middle" x="72.4936" y="-7.3" font-family="Helvetica,sans-Serif" font-size="11.00" fill="#000000">Generated by SchemaSpy</text>
<!-- topics -->
<g id="node1" class="node">
<title>topics</title>
<g id="a_node1"><a xlink:href="../../tables/topics.html" xlink:title="topics" target="_top">
<polygon fill="#ffffff" stroke="transparent" points="213,-290.2 213,-395.2 322,-395.2 322,-290.2 213,-290.2"/>
<polygon fill="#f5f5f5" stroke="transparent" points="213.5,-371.7 213.5,-394.7 322.5,-394.7 322.5,-371.7 213.5,-371.7"/>
<polygon fill="none" stroke="#000000" points="213.5,-371.7 213.5,-394.7 322.5,-394.7 322.5,-371.7 213.5,-371.7"/>
<text text-anchor="start" x="218.5" y="-380.3" font-family="Helvetica,sans-Serif" font-weight="bold" font-size="11.00" fill="#000000">topics</text>
<text text-anchor="start" x="287.5437" y="-379.8" font-family="Helvetica,sans-Serif" font-size="11.00" fill="#000000">[table]</text>
<polygon fill="none" stroke="#000000" points="213.5,-349.7 213.5,-371.7 322.5,-371.7 322.5,-349.7 213.5,-349.7"/>
<image xlink:href="../../images/primaryKeys.png" width="11px" height="12px" preserveAspectRatio="xMinYMin meet" x="218.5" y="-366.7"/>
<text text-anchor="start" x="233.5" y="-356.8" font-family="Helvetica,sans-Serif" font-size="11.00" fill="#000000">id</text>
<polygon fill="#ffffff" stroke="transparent" points="213.5,-327.7 213.5,-349.7 322.5,-349.7 322.5,-327.7 213.5,-327.7"/>
<polygon fill="none" stroke="#000000" points="213.5,-327.7 213.5,-349.7 322.5,-349.7 322.5,-327.7 213.5,-327.7"/>
<image xlink:href="../../images/foreignKeys.png" width="11px" height="12px" preserveAspectRatio="xMinYMin meet" x="218.5" y="-344.7"/>
<text text-anchor="start" x="233.5" y="-334.8" font-family="Helvetica,sans-Serif" font-size="11.00" fill="#000000">summary_id</text>
<polygon fill="none" stroke="#000000" points="213.5,-308.7 213.5,-327.7 322.5,-327.7 322.5,-308.7 213.5,-308.7"/>
<text text-anchor="start" x="216.5" y="-314.8" font-family="Helvetica,sans-Serif" font-size="11.00" fill="#000000">...</text>
<polygon fill="#ffffff" stroke="transparent" points="213.5,-289.7 213.5,-308.7 322.5,-308.7 322.5,-289.7 213.5,-289.7"/>
<polygon fill="none" stroke="#000000" points="213.5,-289.7 213.5,-308.7 322.5,-308.7 322.5,-289.7 213.5,-289.7"/>
<polygon fill="#ffffff" stroke="transparent" points="214.5,-290.7 214.5,-307.7 256.5,-307.7 256.5,-290.7 214.5,-290.7"/>
<text text-anchor="start" x="216.5" y="-295.8" font-family="Helvetica,sans-Serif" font-size="11.00" fill="#000000">&lt; 1</text>
<polygon fill="#ffffff" stroke="transparent" points="256.5,-290.7 256.5,-307.7 289.5,-307.7 289.5,-290.7 256.5,-290.7"/>
<text text-anchor="start" x="269.9431" y="-295.8" font-family="Helvetica,sans-Serif" font-size="11.00" fill="#000000"> &#160;</text>
<polygon fill="#ffffff" stroke="transparent" points="289.5,-290.7 289.5,-307.7 321.5,-307.7 321.5,-290.7 289.5,-290.7"/>
<text text-anchor="start" x="313.3862" y="-295.8" font-family="Helvetica,sans-Serif" font-size="11.00" fill="#000000"> &#160;</text>
<polygon fill="#000000" stroke="#000000" points="256.5,-290.7 256.5,-307.7 256.5,-307.7 256.5,-290.7 256.5,-290.7"/>
<polygon fill="#000000" stroke="#000000" points="289.5,-290.7 289.5,-307.7 289.5,-307.7 289.5,-290.7 289.5,-290.7"/>
</a>
</g>
</g>
<!-- summaries -->
<g id="node3" class="node">
<title>summaries</title>
<g id="a_node3"><a xlink:href="../../tables/summaries.html" xlink:title="summaries" target="_top">
<polygon fill="#ffffff" stroke="transparent" points="8,-142.2 8,-247.2 153,-247.2 153,-142.2 8,-142.2"/>
<polygon fill="#f5f5f5" stroke="transparent" points="8.5,-223.7 8.5,-246.7 153.5,-246.7 153.5,-223.7 8.5,-223.7"/>
<polygon fill="none" stroke="#000000" points="8.5,-223.7 8.5,-246.7 153.5,-246.7 153.5,-223.7 8.5,-223.7"/>
<text text-anchor="start" x="13.5" y="-232.3" font-family="Helvetica,sans-Serif" font-weight="bold" font-size="11.00" fill="#000000">summaries</text>
<text text-anchor="start" x="118.5437" y="-231.8" font-family="Helvetica,sans-Serif" font-size="11.00" fill="#000000">[table]</text>
<polygon fill="none" stroke="#000000" points="8.5,-201.7 8.5,-223.7 153.5,-223.7 153.5,-201.7 8.5,-201.7"/>
<image xlink:href="../../images/primaryKeys.png" width="11px" height="12px" preserveAspectRatio="xMinYMin meet" x="13.5" y="-218.7"/>
<text text-anchor="start" x="28.5" y="-208.8" font-family="Helvetica,sans-Serif" font-size="11.00" fill="#000000">id</text>
<polygon fill="#ffffff" stroke="transparent" points="8.5,-179.7 8.5,-201.7 153.5,-201.7 153.5,-179.7 8.5,-179.7"/>
<polygon fill="none" stroke="#000000" points="8.5,-179.7 8.5,-201.7 153.5,-201.7 153.5,-179.7 8.5,-179.7"/>
<text text-anchor="start" x="28.5" y="-186.8" font-family="Helvetica,sans-Serif" font-size="11.00" fill="#000000">content_hash</text>
<polygon fill="none" stroke="#000000" points="8.5,-160.7 8.5,-179.7 153.5,-179.7 153.5,-160.7 8.5,-160.7"/>
<text text-anchor="start" x="11.5" y="-166.8" font-family="Helvetica,sans-Serif" font-size="11.00" fill="#000000">...</text>
<polygon fill="#ffffff" stroke="transparent" points="8.5,-141.7 8.5,-160.7 153.5,-160.7 153.5,-141.7 8.5,-141.7"/>
<polygon fill="none" stroke="#000000" points="8.5,-141.7 8.5,-160.7 153.5,-160.7 153.5,-141.7 8.5,-141.7"/>
<polygon fill="#ffffff" stroke="transparent" points="9.5,-142.7 9.5,-159.7 54.5,-159.7 54.5,-142.7 9.5,-142.7"/>
<text text-anchor="start" x="11.5" y="-147.8" font-family="Helvetica,sans-Serif" font-size="11.00" fill="#000000"> &#160;</text>
<polygon fill="#ffffff" stroke="transparent" points="54.5,-142.7 54.5,-159.7 99.5,-159.7 99.5,-142.7 54.5,-142.7"/>
<text text-anchor="start" x="73.9431" y="-147.8" font-family="Helvetica,sans-Serif" font-size="11.00" fill="#000000"> &#160;</text>
<polygon fill="#ffffff" stroke="transparent" points="99.5,-142.7 99.5,-159.7 152.5,-159.7 152.5,-142.7 99.5,-142.7"/>
<text text-anchor="start" x="134.9053" y="-147.8" font-family="Helvetica,sans-Serif" font-size="11.00" fill="#000000">3 &gt;</text>
<polygon fill="#000000" stroke="#000000" points="54.5,-142.7 54.5,-159.7 54.5,-159.7 54.5,-142.7 54.5,-142.7"/>
<polygon fill="#000000" stroke="#000000" points="99.5,-142.7 99.5,-159.7 99.5,-159.7 99.5,-142.7 99.5,-142.7"/>
</a>
</g>
</g>
<!-- topics&#45;&gt;summaries -->
<g id="edge3" class="edge">
<title>topics:w&#45;&gt;summaries:e</title>
<path fill="none" stroke="#000000" d="M199.1719,-335.5854C162.3762,-316.1824 209.7102,-212.7 153.5,-212.7"/>
<polygon fill="#000000" stroke="#000000" points="205.6826,-337.0006 212.7353,-342.2178 209.5913,-337.8503 213.5,-338.7 213.5,-338.7 213.5,-338.7 209.5913,-337.8503 214.2647,-335.1822 205.6826,-337.0006 205.6826,-337.0006"/>
<ellipse fill="none" stroke="#000000" cx="202.5556" cy="-336.3209" rx="3.2" ry="3.2"/>
</g>
<!-- decisions -->
<g id="node2" class="node">
<title>decisions</title>
<g id="a_node2"><a xlink:href="../../tables/decisions.html" xlink:title="decisions" target="_top">
<polygon fill="#ffffff" stroke="transparent" points="213,-164.2 213,-269.2 322,-269.2 322,-164.2 213,-164.2"/>
<polygon fill="#f5f5f5" stroke="transparent" points="213.5,-245.7 213.5,-268.7 322.5,-268.7 322.5,-245.7 213.5,-245.7"/>
<polygon fill="none" stroke="#000000" points="213.5,-245.7 213.5,-268.7 322.5,-268.7 322.5,-245.7 213.5,-245.7"/>
<text text-anchor="start" x="218.5" y="-254.3" font-family="Helvetica,sans-Serif" font-weight="bold" font-size="11.00" fill="#000000">decisions</text>
<text text-anchor="start" x="287.5437" y="-253.8" font-family="Helvetica,sans-Serif" font-size="11.00" fill="#000000">[table]</text>
<polygon fill="none" stroke="#000000" points="213.5,-223.7 213.5,-245.7 322.5,-245.7 322.5,-223.7 213.5,-223.7"/>
<image xlink:href="../../images/primaryKeys.png" width="11px" height="12px" preserveAspectRatio="xMinYMin meet" x="218.5" y="-240.7"/>
<text text-anchor="start" x="233.5" y="-230.8" font-family="Helvetica,sans-Serif" font-size="11.00" fill="#000000">id</text>
<polygon fill="#ffffff" stroke="transparent" points="213.5,-201.7 213.5,-223.7 322.5,-223.7 322.5,-201.7 213.5,-201.7"/>
<polygon fill="none" stroke="#000000" points="213.5,-201.7 213.5,-223.7 322.5,-223.7 322.5,-201.7 213.5,-201.7"/>
<image xlink:href="../../images/foreignKeys.png" width="11px" height="12px" preserveAspectRatio="xMinYMin meet" x="218.5" y="-218.7"/>
<text text-anchor="start" x="233.5" y="-208.8" font-family="Helvetica,sans-Serif" font-size="11.00" fill="#000000">summary_id</text>
<polygon fill="none" stroke="#000000" points="213.5,-182.7 213.5,-201.7 322.5,-201.7 322.5,-182.7 213.5,-182.7"/>
<text text-anchor="start" x="216.5" y="-188.8" font-family="Helvetica,sans-Serif" font-size="11.00" fill="#000000">...</text>
<polygon fill="#ffffff" stroke="transparent" points="213.5,-163.7 213.5,-182.7 322.5,-182.7 322.5,-163.7 213.5,-163.7"/>
<polygon fill="none" stroke="#000000" points="213.5,-163.7 213.5,-182.7 322.5,-182.7 322.5,-163.7 213.5,-163.7"/>
<polygon fill="#ffffff" stroke="transparent" points="214.5,-164.7 214.5,-181.7 256.5,-181.7 256.5,-164.7 214.5,-164.7"/>
<text text-anchor="start" x="216.5" y="-169.8" font-family="Helvetica,sans-Serif" font-size="11.00" fill="#000000">&lt; 1</text>
<polygon fill="#ffffff" stroke="transparent" points="256.5,-164.7 256.5,-181.7 289.5,-181.7 289.5,-164.7 256.5,-164.7"/>
<text text-anchor="start" x="269.9431" y="-169.8" font-family="Helvetica,sans-Serif" font-size="11.00" fill="#000000"> &#160;</text>
<polygon fill="#ffffff" stroke="transparent" points="289.5,-164.7 289.5,-181.7 321.5,-181.7 321.5,-164.7 289.5,-164.7"/>
<text text-anchor="start" x="313.3862" y="-169.8" font-family="Helvetica,sans-Serif" font-size="11.00" fill="#000000"> &#160;</text>
<polygon fill="#000000" stroke="#000000" points="256.5,-164.7 256.5,-181.7 256.5,-181.7 256.5,-164.7 256.5,-164.7"/>
<polygon fill="#000000" stroke="#000000" points="289.5,-164.7 289.5,-181.7 289.5,-181.7 289.5,-164.7 289.5,-164.7"/>
</a>
</g>
</g>
<!-- decisions&#45;&gt;summaries -->
<g id="edge2" class="edge">
<title>decisions:w&#45;&gt;summaries:e</title>
<path fill="none" stroke="#000000" d="M198.9193,-212.7C183.1309,-212.7 174.5417,-212.7 153.5,-212.7"/>
<polygon fill="#000000" stroke="#000000" points="205.5,-212.7001 213.5,-216.3 209.5,-212.7 213.5,-212.7 213.5,-212.7 213.5,-212.7 209.5,-212.7 213.5,-209.1 205.5,-212.7001 205.5,-212.7001"/>
<ellipse fill="none" stroke="#000000" cx="202.3" cy="-212.7001" rx="3.2" ry="3.2"/>
</g>
<!-- action_items -->
<g id="node4" class="node">
<title>action_items</title>
<g id="a_node4"><a xlink:href="../../tables/action_items.html" xlink:title="action_items" target="_top">
<polygon fill="#ffffff" stroke="transparent" points="202,-38.2 202,-143.2 333,-143.2 333,-38.2 202,-38.2"/>
<polygon fill="#f5f5f5" stroke="transparent" points="202.5,-119.7 202.5,-142.7 333.5,-142.7 333.5,-119.7 202.5,-119.7"/>
<polygon fill="none" stroke="#000000" points="202.5,-119.7 202.5,-142.7 333.5,-142.7 333.5,-119.7 202.5,-119.7"/>
<text text-anchor="start" x="207.5" y="-128.3" font-family="Helvetica,sans-Serif" font-weight="bold" font-size="11.00" fill="#000000">action_items</text>
<text text-anchor="start" x="299.0219" y="-127.8" font-family="Helvetica,sans-Serif" font-size="11.00" fill="#000000">[table]</text>
<polygon fill="none" stroke="#000000" points="202.5,-97.7 202.5,-119.7 333.5,-119.7 333.5,-97.7 202.5,-97.7"/>
<image xlink:href="../../images/primaryKeys.png" width="11px" height="12px" preserveAspectRatio="xMinYMin meet" x="207.5" y="-114.7"/>
<text text-anchor="start" x="231.5" y="-104.8" font-family="Helvetica,sans-Serif" font-size="11.00" fill="#000000">id</text>
<polygon fill="#ffffff" stroke="transparent" points="202.5,-75.7 202.5,-97.7 333.5,-97.7 333.5,-75.7 202.5,-75.7"/>
<polygon fill="none" stroke="#000000" points="202.5,-75.7 202.5,-97.7 333.5,-97.7 333.5,-75.7 202.5,-75.7"/>
<image xlink:href="../../images/foreignKeys.png" width="11px" height="12px" preserveAspectRatio="xMinYMin meet" x="207.5" y="-92.7"/>
<text text-anchor="start" x="231.5" y="-82.8" font-family="Helvetica,sans-Serif" font-size="11.00" fill="#000000">summary_id</text>
<polygon fill="none" stroke="#000000" points="202.5,-56.7 202.5,-75.7 333.5,-75.7 333.5,-56.7 202.5,-56.7"/>
<text text-anchor="start" x="205.5" y="-62.8" font-family="Helvetica,sans-Serif" font-size="11.00" fill="#000000">...</text>
<polygon fill="#ffffff" stroke="transparent" points="202.5,-37.7 202.5,-56.7 333.5,-56.7 333.5,-37.7 202.5,-37.7"/>
<polygon fill="none" stroke="#000000" points="202.5,-37.7 202.5,-56.7 333.5,-56.7 333.5,-37.7 202.5,-37.7"/>
<polygon fill="#ffffff" stroke="transparent" points="203.5,-38.7 203.5,-55.7 252.5,-55.7 252.5,-38.7 203.5,-38.7"/>
<text text-anchor="start" x="205.5" y="-43.8" font-family="Helvetica,sans-Serif" font-size="11.00" fill="#000000">&lt; 1</text>
<polygon fill="#ffffff" stroke="transparent" points="252.5,-38.7 252.5,-55.7 292.5,-55.7 292.5,-38.7 252.5,-38.7"/>
<text text-anchor="start" x="269.4431" y="-43.8" font-family="Helvetica,sans-Serif" font-size="11.00" fill="#000000"> &#160;</text>
<polygon fill="#ffffff" stroke="transparent" points="292.5,-38.7 292.5,-55.7 332.5,-55.7 332.5,-38.7 292.5,-38.7"/>
<text text-anchor="start" x="324.3862" y="-43.8" font-family="Helvetica,sans-Serif" font-size="11.00" fill="#000000"> &#160;</text>
<polygon fill="#000000" stroke="#000000" points="252.5,-38.7 252.5,-55.7 252.5,-55.7 252.5,-38.7 252.5,-38.7"/>
<polygon fill="#000000" stroke="#000000" points="292.5,-38.7 292.5,-55.7 292.5,-55.7 292.5,-38.7 292.5,-38.7"/>
</a>
</g>
</g>
<!-- action_items&#45;&gt;summaries -->
<g id="edge1" class="edge">
<title>action_items:w&#45;&gt;summaries:e</title>
<path fill="none" stroke="#000000" d="M188.4076,-90.0702C155.0633,-110.1077 207.7178,-212.7 153.5,-212.7"/>
<polygon fill="#000000" stroke="#000000" points="194.7194,-88.5608 203.3373,-90.2013 198.6097,-87.6304 202.5,-86.7 202.5,-86.7 202.5,-86.7 198.6097,-87.6304 201.6627,-83.1987 194.7194,-88.5608 194.7194,-88.5608"/>
<ellipse fill="none" stroke="#000000" cx="191.6072" cy="-89.3051" rx="3.2" ry="3.2"/>
</g>
<!-- alembic_version -->
<g id="node5" class="node">
<title>alembic_version</title>
<g id="a_node5"><a xlink:href="../../tables/alembic_version.html" xlink:title="alembic_version" target="_top">
<polygon fill="#ffffff" stroke="transparent" points="398,-427.7 398,-491.7 554,-491.7 554,-427.7 398,-427.7"/>
<polygon fill="#f5f5f5" stroke="transparent" points="398,-468.7 398,-491.7 554,-491.7 554,-468.7 398,-468.7"/>
<polygon fill="none" stroke="#000000" points="398,-468.7 398,-491.7 554,-491.7 554,-468.7 398,-468.7"/>
<text text-anchor="start" x="403" y="-477.3" font-family="Helvetica,sans-Serif" font-weight="bold" font-size="11.00" fill="#000000">alembic_version</text>
<text text-anchor="start" x="519.5219" y="-476.8" font-family="Helvetica,sans-Serif" font-size="11.00" fill="#000000">[table]</text>
<polygon fill="none" stroke="#000000" points="398,-446.7 398,-468.7 554,-468.7 554,-446.7 398,-446.7"/>
<image xlink:href="../../images/primaryKeys.png" width="11px" height="12px" preserveAspectRatio="xMinYMin meet" x="403" y="-463.7"/>
<text text-anchor="start" x="427" y="-453.8" font-family="Helvetica,sans-Serif" font-size="11.00" fill="#000000">version_num</text>
<polygon fill="#ffffff" stroke="transparent" points="398,-427.7 398,-446.7 554,-446.7 554,-427.7 398,-427.7"/>
<polygon fill="none" stroke="#000000" points="398,-427.7 398,-446.7 554,-446.7 554,-427.7 398,-427.7"/>
<polygon fill="#ffffff" stroke="transparent" points="399,-428.7 399,-445.7 451,-445.7 451,-428.7 399,-428.7"/>
<text text-anchor="start" x="401" y="-433.8" font-family="Helvetica,sans-Serif" font-size="11.00" fill="#000000"> &#160;</text>
<polygon fill="#ffffff" stroke="transparent" points="451,-428.7 451,-445.7 502,-445.7 502,-428.7 451,-428.7"/>
<text text-anchor="start" x="473.4431" y="-433.8" font-family="Helvetica,sans-Serif" font-size="11.00" fill="#000000"> &#160;</text>
<polygon fill="#ffffff" stroke="transparent" points="502,-428.7 502,-445.7 553,-445.7 553,-428.7 502,-428.7"/>
<text text-anchor="start" x="544.8862" y="-433.8" font-family="Helvetica,sans-Serif" font-size="11.00" fill="#000000"> &#160;</text>
<polygon fill="#000000" stroke="#000000" points="451,-428.7 451,-445.7 451,-445.7 451,-428.7 451,-428.7"/>
<polygon fill="#000000" stroke="#000000" points="502,-428.7 502,-445.7 502,-445.7 502,-428.7 502,-428.7"/>
</a>
</g>
</g>
</g>
</svg>
