<?xml version="1.0" encoding="UTF-8" standalone="no"?>
<!DOCTYPE svg PUBLIC "-//W3C//DTD SVG 1.1//EN"
 "http://www.w3.org/Graphics/SVG/1.1/DTD/svg11.dtd">
<!-- Generated by graphviz version 2.40.1 (20161225.0304)
 -->
<!-- Title: compactRelationshipsDiagram Pages: 1 -->
<svg width="765pt" height="744pt"
 viewBox="0.00 0.00 765.00 743.70" xmlns="http://www.w3.org/2000/svg" xmlns:xlink="http://www.w3.org/1999/xlink">
<g id="graph0" class="graph" transform="scale(1 1) rotate(0) translate(4 739.7)">
<title>compactRelationshipsDiagram</title>
<polygon fill="#ffffff" stroke="transparent" points="-4,4 -4,-739.7 761,-739.7 761,4 -4,4"/>
<text text-anchor="middle" x="72.4936" y="-7.3" font-family="Helvetica,sans-Serif" font-size="11.00" fill="#000000">Generated by SchemaSpy</text>
<!-- topics -->
<g id="node1" class="node">
<title>topics</title>
<g id="a_node1"><a xlink:href="../../tables/topics.html" xlink:title="topics" target="_top">
<polygon fill="#ffffff" stroke="transparent" points="377,-548.2 377,-653.2 486,-653.2 486,-548.2 377,-548.2"/>
<polygon fill="#f5f5f5" stroke="transparent" points="377.5,-629.7 377.5,-652.7 486.5,-652.7 486.5,-629.7 377.5,-629.7"/>
<polygon fill="none" stroke="#000000" points="377.5,-629.7 377.5,-652.7 486.5,-652.7 486.5,-629.7 377.5,-629.7"/>
<text text-anchor="start" x="382.5" y="-638.3" font-family="Helvetica,sans-Serif" font-weight="bold" font-size="11.00" fill="#000000">topics</text>
<text text-anchor="start" x="451.5437" y="-637.8" font-family="Helvetica,sans-Serif" font-size="11.00" fill="#000000">[table]</text>
<polygon fill="none" stroke="#000000" points="377.5,-607.7 377.5,-629.7 486.5,-629.7 486.5,-607.7 377.5,-607.7"/>
<image xlink:href="../../images/primaryKeys.png" width="11px" height="12px" preserveAspectRatio="xMinYMin meet" x="382.5" y="-624.7"/>
<text text-anchor="start" x="397.5" y="-614.8" font-family="Helvetica,sans-Serif" font-size="11.00" fill="#000000">id</text>
<polygon fill="#ffffff" stroke="transparent" points="377.5,-585.7 377.5,-607.7 486.5,-607.7 486.5,-585.7 377.5,-585.7"/>
<polygon fill="none" stroke="#000000" points="377.5,-585.7 377.5,-607.7 486.5,-607.7 486.5,-585.7 377.5,-585.7"/>
<image xlink:href="../../images/foreignKeys.png" width="11px" height="12px" preserveAspectRatio="xMinYMin meet" x="382.5" y="-602.7"/>
<text text-anchor="start" x="397.5" y="-592.8" font-family="Helvetica,sans-Serif" font-size="11.00" fill="#000000">summary_id</text>
<polygon fill="none" stroke="#000000" points="377.5,-566.7 377.5,-585.7 486.5,-585.7 486.5,-566.7 377.5,-566.7"/>
<text text-anchor="start" x="380.5" y="-572.8" font-family="Helvetica,sans-Serif" font-size="11.00" fill="#000000">...</text>
<polygon fill="#ffffff" stroke="transparent" points="377.5,-547.7 377.5,-566.7 486.5,-566.7 486.5,-547.7 377.5,-547.7"/>
<polygon fill="none" stroke="#000000" points="377.5,-547.7 377.5,-566.7 486.5,-566.7 486.5,-547.7 377.5,-547.7"/>
<polygon fill="#ffffff" stroke="transparent" points="378.5,-548.7 378.5,-565.7 420.5,-565.7 420.5,-548.7 378.5,-548.7"/>
<text text-anchor="start" x="380.5" y="-553.8" font-family="Helvetica,sans-Serif" font-size="11.00" fill="#000000">&lt; 1</text>
<polygon fill="#ffffff" stroke="transparent" points="420.5,-548.7 420.5,-565.7 453.5,-565.7 453.5,-548.7 420.5,-548.7"/>
<text text-anchor="start" x="433.9431" y="-553.8" font-family="Helvetica,sans-Serif" font-size="11.00" fill="#000000"> &#160;</text>
<polygon fill="#ffffff" stroke="transparent" points="453.5,-548.7 453.5,-565.7 485.5,-565.7 485.5,-548.7 453.5,-548.7"/>
<text text-anchor="start" x="477.3862" y="-553.8" font-family="Helvetica,sans-Serif" font-size="11.00" fill="#000000"> &#160;</text>
<polygon fill="#000000" stroke="#000000" points="420.5,-548.7 420.5,-565.7 420.5,-565.7 420.5,-548.7 420.5,-548.7"/>
<polygon fill="#000000" stroke="#000000" points="453.5,-548.7 453.5,-565.7 453.5,-565.7 453.5,-548.7 453.5,-548.7"/>
</a>
</g>
</g>
<!-- summaries -->
<g id="node3" class="node">
<title>summaries</title>
<g id="a_node3"><a xlink:href="../../tables/summaries.html" xlink:title="summaries" target="_top">
<polygon fill="#ffffff" stroke="transparent" points="166,-378.2 166,-505.2 311,-505.2 311,-378.2 166,-378.2"/>
<polygon fill="#f5f5f5" stroke="transparent" points="166.5,-481.7 166.5,-504.7 311.5,-504.7 311.5,-481.7 166.5,-481.7"/>
<polygon fill="none" stroke="#000000" points="166.5,-481.7 166.5,-504.7 311.5,-504.7 311.5,-481.7 166.5,-481.7"/>
<text text-anchor="start" x="171.5" y="-490.3" font-family="Helvetica,sans-Serif" font-weight="bold" font-size="11.00" fill="#000000">summaries</text>
<text text-anchor="start" x="276.5437" y="-489.8" font-family="Helvetica,sans-Serif" font-size="11.00" fill="#000000">[table]</text>
<polygon fill="none" stroke="#000000" points="166.5,-459.7 166.5,-481.7 311.5,-481.7 311.5,-459.7 166.5,-459.7"/>
<image xlink:href="../../images/primaryKeys.png" width="11px" height="12px" preserveAspectRatio="xMinYMin meet" x="171.5" y="-476.7"/>
<text text-anchor="start" x="186.5" y="-466.8" font-family="Helvetica,sans-Serif" font-size="11.00" fill="#000000">id</text>
<polygon fill="#ffffff" stroke="transparent" points="166.5,-437.7 166.5,-459.7 311.5,-459.7 311.5,-437.7 166.5,-437.7"/>
<polygon fill="none" stroke="#000000" points="166.5,-437.7 166.5,-459.7 311.5,-459.7 311.5,-437.7 166.5,-437.7"/>
<text text-anchor="start" x="186.5" y="-444.8" font-family="Helvetica,sans-Serif" font-size="11.00" fill="#000000">content_hash</text>
<polygon fill="#ffffff" stroke="transparent" points="166.5,-415.7 166.5,-437.7 311.5,-437.7 311.5,-415.7 166.5,-415.7"/>
<polygon fill="none" stroke="#000000" points="166.5,-415.7 166.5,-437.7 311.5,-437.7 311.5,-415.7 166.5,-415.7"/>
<image xlink:href="../../images/foreignKeys.png" width="11px" height="12px" preserveAspectRatio="xMinYMin meet" x="171.5" y="-432.7"/>
<text text-anchor="start" x="186.5" y="-422.8" font-family="Helvetica,sans-Serif" font-size="11.00" fill="#000000">user_id</text>
<polygon fill="none" stroke="#000000" points="166.5,-396.7 166.5,-415.7 311.5,-415.7 311.5,-396.7 166.5,-396.7"/>
<text text-anchor="start" x="169.5" y="-402.8" font-family="Helvetica,sans-Serif" font-size="11.00" fill="#000000">...</text>
<polygon fill="#ffffff" stroke="transparent" points="166.5,-377.7 166.5,-396.7 311.5,-396.7 311.5,-377.7 166.5,-377.7"/>
<polygon fill="none" stroke="#000000" points="166.5,-377.7 166.5,-396.7 311.5,-396.7 311.5,-377.7 166.5,-377.7"/>
<polygon fill="#ffffff" stroke="transparent" points="167.5,-378.7 167.5,-395.7 218.5,-395.7 218.5,-378.7 167.5,-378.7"/>
<text text-anchor="start" x="169.5" y="-383.8" font-family="Helvetica,sans-Serif" font-size="11.00" fill="#000000">&lt; 1</text>
<polygon fill="#ffffff" stroke="transparent" points="218.5,-378.7 218.5,-395.7 260.5,-395.7 260.5,-378.7 218.5,-378.7"/>
<text text-anchor="start" x="236.4431" y="-383.8" font-family="Helvetica,sans-Serif" font-size="11.00" fill="#000000"> &#160;</text>
<polygon fill="#ffffff" stroke="transparent" points="260.5,-378.7 260.5,-395.7 310.5,-395.7 310.5,-378.7 260.5,-378.7"/>
<text text-anchor="start" x="292.9053" y="-383.8" font-family="Helvetica,sans-Serif" font-size="11.00" fill="#000000">3 &gt;</text>
<polygon fill="#000000" stroke="#000000" points="218.5,-378.7 218.5,-395.7 218.5,-395.7 218.5,-378.7 218.5,-378.7"/>
<polygon fill="#000000" stroke="#000000" points="260.5,-378.7 260.5,-395.7 260.5,-395.7 260.5,-378.7 260.5,-378.7"/>
</a>
</g>
</g>
<!-- topics&#45;&gt;summaries -->
<g id="edge5" class="edge">
<title>topics:w&#45;&gt;summaries:e</title>
<path fill="none" stroke="#000000" d="M363.2759,-593.8316C324.1438,-575.0764 369.0377,-470.7 311.5,-470.7"/>
<polygon fill="#000000" stroke="#000000" points="369.6579,-595.1185 376.7883,-600.229 373.5789,-595.9093 377.5,-596.7 377.5,-596.7 377.5,-596.7 373.5789,-595.9093 378.2117,-593.171 369.6579,-595.1185 369.6579,-595.1185"/>
<ellipse fill="none" stroke="#000000" cx="366.521" cy="-594.4859" rx="3.2" ry="3.2"/>
</g>
<!-- decisions -->
<g id="node2" class="node">
<title>decisions</title>
<g id="a_node2"><a xlink:href="../../tables/decisions.html" xlink:title="decisions" target="_top">
<polygon fill="#ffffff" stroke="transparent" points="377,-422.2 377,-527.2 486,-527.2 486,-422.2 377,-422.2"/>
<polygon fill="#f5f5f5" stroke="transparent" points="377.5,-503.7 377.5,-526.7 486.5,-526.7 486.5,-503.7 377.5,-503.7"/>
<polygon fill="none" stroke="#000000" points="377.5,-503.7 377.5,-526.7 486.5,-526.7 486.5,-503.7 377.5,-503.7"/>
<text text-anchor="start" x="382.5" y="-512.3" font-family="Helvetica,sans-Serif" font-weight="bold" font-size="11.00" fill="#000000">decisions</text>
<text text-anchor="start" x="451.5437" y="-511.8" font-family="Helvetica,sans-Serif" font-size="11.00" fill="#000000">[table]</text>
<polygon fill="none" stroke="#000000" points="377.5,-481.7 377.5,-503.7 486.5,-503.7 486.5,-481.7 377.5,-481.7"/>
<image xlink:href="../../images/primaryKeys.png" width="11px" height="12px" preserveAspectRatio="xMinYMin meet" x="382.5" y="-498.7"/>
<text text-anchor="start" x="397.5" y="-488.8" font-family="Helvetica,sans-Serif" font-size="11.00" fill="#000000">id</text>
<polygon fill="#ffffff" stroke="transparent" points="377.5,-459.7 377.5,-481.7 486.5,-481.7 486.5,-459.7 377.5,-459.7"/>
<polygon fill="none" stroke="#000000" points="377.5,-459.7 377.5,-481.7 486.5,-481.7 486.5,-459.7 377.5,-459.7"/>
<image xlink:href="../../images/foreignKeys.png" width="11px" height="12px" preserveAspectRatio="xMinYMin meet" x="382.5" y="-476.7"/>
<text text-anchor="start" x="397.5" y="-466.8" font-family="Helvetica,sans-Serif" font-size="11.00" fill="#000000">summary_id</text>
<polygon fill="none" stroke="#000000" points="377.5,-440.7 377.5,-459.7 486.5,-459.7 486.5,-440.7 377.5,-440.7"/>
<text text-anchor="start" x="380.5" y="-446.8" font-family="Helvetica,sans-Serif" font-size="11.00" fill="#000000">...</text>
<polygon fill="#ffffff" stroke="transparent" points="377.5,-421.7 377.5,-440.7 486.5,-440.7 486.5,-421.7 377.5,-421.7"/>
<polygon fill="none" stroke="#000000" points="377.5,-421.7 377.5,-440.7 486.5,-440.7 486.5,-421.7 377.5,-421.7"/>
<polygon fill="#ffffff" stroke="transparent" points="378.5,-422.7 378.5,-439.7 420.5,-439.7 420.5,-422.7 378.5,-422.7"/>
<text text-anchor="start" x="380.5" y="-427.8" font-family="Helvetica,sans-Serif" font-size="11.00" fill="#000000">&lt; 1</text>
<polygon fill="#ffffff" stroke="transparent" points="420.5,-422.7 420.5,-439.7 453.5,-439.7 453.5,-422.7 420.5,-422.7"/>
<text text-anchor="start" x="433.9431" y="-427.8" font-family="Helvetica,sans-Serif" font-size="11.00" fill="#000000"> &#160;</text>
<polygon fill="#ffffff" stroke="transparent" points="453.5,-422.7 453.5,-439.7 485.5,-439.7 485.5,-422.7 453.5,-422.7"/>
<text text-anchor="start" x="477.3862" y="-427.8" font-family="Helvetica,sans-Serif" font-size="11.00" fill="#000000"> &#160;</text>
<polygon fill="#000000" stroke="#000000" points="420.5,-422.7 420.5,-439.7 420.5,-439.7 420.5,-422.7 420.5,-422.7"/>
<polygon fill="#000000" stroke="#000000" points="453.5,-422.7 453.5,-439.7 453.5,-439.7 453.5,-422.7 453.5,-422.7"/>
</a>
</g>
</g>
<!-- decisions&#45;&gt;summaries -->
<g id="edge2" class="edge">
<title>decisions:w&#45;&gt;summaries:e</title>
<path fill="none" stroke="#000000" d="M363.0303,-470.7C344.6432,-470.7 335.3333,-470.7 311.5,-470.7"/>
<polygon fill="#000000" stroke="#000000" points="369.5,-470.7001 377.5,-474.3 373.5,-470.7 377.5,-470.7 377.5,-470.7 377.5,-470.7 373.5,-470.7 377.5,-467.1 369.5,-470.7001 369.5,-470.7001"/>
<ellipse fill="none" stroke="#000000" cx="366.3" cy="-470.7001" rx="3.2" ry="3.2"/>
</g>
<!-- users -->
<g id="node6" class="node">
<title>users</title>
<g id="a_node6"><a xlink:href="../../tables/users.html" xlink:title="users" target="_top">
<polygon fill="#ffffff" stroke="transparent" points="8,-252.2 8,-335.2 111,-335.2 111,-252.2 8,-252.2"/>
<polygon fill="#f5f5f5" stroke="transparent" points="8.5,-311.7 8.5,-334.7 111.5,-334.7 111.5,-311.7 8.5,-311.7"/>
<polygon fill="none" stroke="#000000" points="8.5,-311.7 8.5,-334.7 111.5,-334.7 111.5,-311.7 8.5,-311.7"/>
<text text-anchor="start" x="13.5" y="-320.3" font-family="Helvetica,sans-Serif" font-weight="bold" font-size="11.00" fill="#000000">users</text>
<text text-anchor="start" x="76.5437" y="-319.8" font-family="Helvetica,sans-Serif" font-size="11.00" fill="#000000">[table]</text>
<polygon fill="none" stroke="#000000" points="8.5,-289.7 8.5,-311.7 111.5,-311.7 111.5,-289.7 8.5,-289.7"/>
<image xlink:href="../../images/primaryKeys.png" width="11px" height="12px" preserveAspectRatio="xMinYMin meet" x="13.5" y="-306.7"/>
<text text-anchor="start" x="28.5" y="-296.8" font-family="Helvetica,sans-Serif" font-size="11.00" fill="#000000">id</text>
<polygon fill="none" stroke="#000000" points="8.5,-270.7 8.5,-289.7 111.5,-289.7 111.5,-270.7 8.5,-270.7"/>
<text text-anchor="start" x="11.5" y="-276.8" font-family="Helvetica,sans-Serif" font-size="11.00" fill="#000000">...</text>
<polygon fill="#ffffff" stroke="transparent" points="8.5,-251.7 8.5,-270.7 111.5,-270.7 111.5,-251.7 8.5,-251.7"/>
<polygon fill="none" stroke="#000000" points="8.5,-251.7 8.5,-270.7 111.5,-270.7 111.5,-251.7 8.5,-251.7"/>
<polygon fill="#ffffff" stroke="transparent" points="9.5,-252.7 9.5,-269.7 40.5,-269.7 40.5,-252.7 9.5,-252.7"/>
<text text-anchor="start" x="11.5" y="-257.8" font-family="Helvetica,sans-Serif" font-size="11.00" fill="#000000"> &#160;</text>
<polygon fill="#ffffff" stroke="transparent" points="40.5,-252.7 40.5,-269.7 71.5,-269.7 71.5,-252.7 40.5,-252.7"/>
<text text-anchor="start" x="52.9431" y="-257.8" font-family="Helvetica,sans-Serif" font-size="11.00" fill="#000000"> &#160;</text>
<polygon fill="#ffffff" stroke="transparent" points="71.5,-252.7 71.5,-269.7 110.5,-269.7 110.5,-252.7 71.5,-252.7"/>
<text text-anchor="start" x="92.9053" y="-257.8" font-family="Helvetica,sans-Serif" font-size="11.00" fill="#000000">3 &gt;</text>
<polygon fill="#000000" stroke="#000000" points="40.5,-252.7 40.5,-269.7 40.5,-269.7 40.5,-252.7 40.5,-252.7"/>
<polygon fill="#000000" stroke="#000000" points="71.5,-252.7 71.5,-269.7 71.5,-269.7 71.5,-252.7 71.5,-252.7"/>
</a>
</g>
</g>
<!-- summaries&#45;&gt;users -->
<g id="edge4" class="edge">
<title>summaries:w&#45;&gt;users:e</title>
<path fill="none" stroke="#000000" d="M152.0308,-423.3298C117.2998,-403.2923 166.6356,-300.7 111.5,-300.7"/>
<polygon fill="#000000" stroke="#000000" points="158.7086,-424.8852 165.6833,-430.2061 162.6043,-425.7926 166.5,-426.7 166.5,-426.7 166.5,-426.7 162.6043,-425.7926 167.3167,-423.1939 158.7086,-424.8852 158.7086,-424.8852"/>
<ellipse fill="none" stroke="#000000" cx="155.592" cy="-424.1592" rx="3.2" ry="3.2"/>
</g>
<!-- action_items -->
<g id="node4" class="node">
<title>action_items</title>
<g id="a_node4"><a xlink:href="../../tables/action_items.html" xlink:title="action_items" target="_top">
<polygon fill="#ffffff" stroke="transparent" points="366,-296.2 366,-401.2 497,-401.2 497,-296.2 366,-296.2"/>
<polygon fill="#f5f5f5" stroke="transparent" points="366.5,-377.7 366.5,-400.7 497.5,-400.7 497.5,-377.7 366.5,-377.7"/>
<polygon fill="none" stroke="#000000" points="366.5,-377.7 366.5,-400.7 497.5,-400.7 497.5,-377.7 366.5,-377.7"/>
<text text-anchor="start" x="371.5" y="-386.3" font-family="Helvetica,sans-Serif" font-weight="bold" font-size="11.00" fill="#000000">action_items</text>
<text text-anchor="start" x="463.0219" y="-385.8" font-family="Helvetica,sans-Serif" font-size="11.00" fill="#000000">[table]</text>
<polygon fill="none" stroke="#000000" points="366.5,-355.7 366.5,-377.7 497.5,-377.7 497.5,-355.7 366.5,-355.7"/>
<image xlink:href="../../images/primaryKeys.png" width="11px" height="12px" preserveAspectRatio="xMinYMin meet" x="371.5" y="-372.7"/>
<text text-anchor="start" x="395.5" y="-362.8" font-family="Helvetica,sans-Serif" font-size="11.00" fill="#000000">id</text>
<polygon fill="#ffffff" stroke="transparent" points="366.5,-333.7 366.5,-355.7 497.5,-355.7 497.5,-333.7 366.5,-333.7"/>
<polygon fill="none" stroke="#000000" points="366.5,-333.7 366.5,-355.7 497.5,-355.7 497.5,-333.7 366.5,-333.7"/>
<image xlink:href="../../images/foreignKeys.png" width="11px" height="12px" preserveAspectRatio="xMinYMin meet" x="371.5" y="-350.7"/>
<text text-anchor="start" x="395.5" y="-340.8" font-family="Helvetica,sans-Serif" font-size="11.00" fill="#000000">summary_id</text>
<polygon fill="none" stroke="#000000" points="366.5,-314.7 366.5,-333.7 497.5,-333.7 497.5,-314.7 366.5,-314.7"/>
<text text-anchor="start" x="369.5" y="-320.8" font-family="Helvetica,sans-Serif" font-size="11.00" fill="#000000">...</text>
<polygon fill="#ffffff" stroke="transparent" points="366.5,-295.7 366.5,-314.7 497.5,-314.7 497.5,-295.7 366.5,-295.7"/>
<polygon fill="none" stroke="#000000" points="366.5,-295.7 366.5,-314.7 497.5,-314.7 497.5,-295.7 366.5,-295.7"/>
<polygon fill="#ffffff" stroke="transparent" points="367.5,-296.7 367.5,-313.7 416.5,-313.7 416.5,-296.7 367.5,-296.7"/>
<text text-anchor="start" x="369.5" y="-301.8" font-family="Helvetica,sans-Serif" font-size="11.00" fill="#000000">&lt; 1</text>
<polygon fill="#ffffff" stroke="transparent" points="416.5,-296.7 416.5,-313.7 456.5,-313.7 456.5,-296.7 416.5,-296.7"/>
<text text-anchor="start" x="433.4431" y="-301.8" font-family="Helvetica,sans-Serif" font-size="11.00" fill="#000000"> &#160;</text>
<polygon fill="#ffffff" stroke="transparent" points="456.5,-296.7 456.5,-313.7 496.5,-313.7 496.5,-296.7 456.5,-296.7"/>
<text text-anchor="start" x="488.3862" y="-301.8" font-family="Helvetica,sans-Serif" font-size="11.00" fill="#000000"> &#160;</text>
<polygon fill="#000000" stroke="#000000" points="416.5,-296.7 416.5,-313.7 416.5,-313.7 416.5,-296.7 416.5,-296.7"/>
<polygon fill="#000000" stroke="#000000" points="456.5,-296.7 456.5,-313.7 456.5,-313.7 456.5,-296.7 456.5,-296.7"/>
</a>
</g>
</g>
<!-- action_items&#45;&gt;summaries -->
<g id="edge1" class="edge">
<title>action_items:w&#45;&gt;summaries:e</title>
<path fill="none" stroke="#000000" d="M352.0308,-348.0702C317.2998,-368.1077 366.6356,-470.7 311.5,-470.7"/>
<polygon fill="#000000" stroke="#000000" points="358.7086,-346.5148 367.3167,-348.2061 362.6043,-345.6074 366.5,-344.7 366.5,-344.7 366.5,-344.7 362.6043,-345.6074 365.6833,-341.1939 358.7086,-346.5148 358.7086,-346.5148"/>
<ellipse fill="none" stroke="#000000" cx="355.592" cy="-347.2408" rx="3.2" ry="3.2"/>
</g>
<!-- alembic_version -->
<g id="node5" class="node">
<title>alembic_version</title>
<g id="a_node5"><a xlink:href="../../tables/alembic_version.html" xlink:title="alembic_version" target="_top">
<polygon fill="#ffffff" stroke="transparent" points="593,-667.7 593,-731.7 749,-731.7 749,-667.7 593,-667.7"/>
<polygon fill="#f5f5f5" stroke="transparent" points="593,-708.7 593,-731.7 749,-731.7 749,-708.7 593,-708.7"/>
<polygon fill="none" stroke="#000000" points="593,-708.7 593,-731.7 749,-731.7 749,-708.7 593,-708.7"/>
<text text-anchor="start" x="598" y="-717.3" font-family="Helvetica,sans-Serif" font-weight="bold" font-size="11.00" fill="#000000">alembic_version</text>
<text text-anchor="start" x="714.5219" y="-716.8" font-family="Helvetica,sans-Serif" font-size="11.00" fill="#000000">[table]</text>
<polygon fill="none" stroke="#000000" points="593,-686.7 593,-708.7 749,-708.7 749,-686.7 593,-686.7"/>
<image xlink:href="../../images/primaryKeys.png" width="11px" height="12px" preserveAspectRatio="xMinYMin meet" x="598" y="-703.7"/>
<text text-anchor="start" x="622" y="-693.8" font-family="Helvetica,sans-Serif" font-size="11.00" fill="#000000">version_num</text>
<polygon fill="#ffffff" stroke="transparent" points="593,-667.7 593,-686.7 749,-686.7 749,-667.7 593,-667.7"/>
<polygon fill="none" stroke="#000000" points="593,-667.7 593,-686.7 749,-686.7 749,-667.7 593,-667.7"/>
<polygon fill="#ffffff" stroke="transparent" points="594,-668.7 594,-685.7 646,-685.7 646,-668.7 594,-668.7"/>
<text text-anchor="start" x="596" y="-673.8" font-family="Helvetica,sans-Serif" font-size="11.00" fill="#000000"> &#160;</text>
<polygon fill="#ffffff" stroke="transparent" points="646,-668.7 646,-685.7 697,-685.7 697,-668.7 646,-668.7"/>
<text text-anchor="start" x="668.4431" y="-673.8" font-family="Helvetica,sans-Serif" font-size="11.00" fill="#000000"> &#160;</text>
<polygon fill="#ffffff" stroke="transparent" points="697,-668.7 697,-685.7 748,-685.7 748,-668.7 697,-668.7"/>
<text text-anchor="start" x="739.8862" y="-673.8" font-family="Helvetica,sans-Serif" font-size="11.00" fill="#000000"> &#160;</text>
<polygon fill="#000000" stroke="#000000" points="646,-668.7 646,-685.7 646,-685.7 646,-668.7 646,-668.7"/>
<polygon fill="#000000" stroke="#000000" points="697,-668.7 697,-685.7 697,-685.7 697,-668.7 697,-668.7"/>
</a>
</g>
</g>
<!-- oauth_identities -->
<g id="node7" class="node">
<title>oauth_identities</title>
<g id="a_node7"><a xlink:href="../../tables/oauth_identities.html" xlink:title="oauth_identities" target="_top">
<polygon fill="#ffffff" stroke="transparent" points="160,-208.2 160,-357.2 317,-357.2 317,-208.2 160,-208.2"/>
<polygon fill="#f5f5f5" stroke="transparent" points="160.5,-333.7 160.5,-356.7 317.5,-356.7 317.5,-333.7 160.5,-333.7"/>
<polygon fill="none" stroke="#000000" points="160.5,-333.7 160.5,-356.7 317.5,-356.7 317.5,-333.7 160.5,-333.7"/>
<text text-anchor="start" x="165.5" y="-342.3" font-family="Helvetica,sans-Serif" font-weight="bold" font-size="11.00" fill="#000000">oauth_identities</text>
<text text-anchor="start" x="283.0219" y="-341.8" font-family="Helvetica,sans-Serif" font-size="11.00" fill="#000000">[table]</text>
<polygon fill="none" stroke="#000000" points="160.5,-311.7 160.5,-333.7 317.5,-333.7 317.5,-311.7 160.5,-311.7"/>
<image xlink:href="../../images/primaryKeys.png" width="11px" height="12px" preserveAspectRatio="xMinYMin meet" x="165.5" y="-328.7"/>
<text text-anchor="start" x="189.5" y="-318.8" font-family="Helvetica,sans-Serif" font-size="11.00" fill="#000000">id</text>
<polygon fill="#ffffff" stroke="transparent" points="160.5,-289.7 160.5,-311.7 317.5,-311.7 317.5,-289.7 160.5,-289.7"/>
<polygon fill="none" stroke="#000000" points="160.5,-289.7 160.5,-311.7 317.5,-311.7 317.5,-289.7 160.5,-289.7"/>
<image xlink:href="../../images/foreignKeys.png" width="11px" height="12px" preserveAspectRatio="xMinYMin meet" x="165.5" y="-306.7"/>
<text text-anchor="start" x="189.5" y="-296.8" font-family="Helvetica,sans-Serif" font-size="11.00" fill="#000000">user_id</text>
<polygon fill="#ffffff" stroke="transparent" points="160.5,-267.7 160.5,-289.7 317.5,-289.7 317.5,-267.7 160.5,-267.7"/>
<polygon fill="none" stroke="#000000" points="160.5,-267.7 160.5,-289.7 317.5,-289.7 317.5,-267.7 160.5,-267.7"/>
<text text-anchor="start" x="189.5" y="-274.8" font-family="Helvetica,sans-Serif" font-size="11.00" fill="#000000">provider</text>
<polygon fill="#ffffff" stroke="transparent" points="160.5,-245.7 160.5,-267.7 317.5,-267.7 317.5,-245.7 160.5,-245.7"/>
<polygon fill="none" stroke="#000000" points="160.5,-245.7 160.5,-267.7 317.5,-267.7 317.5,-245.7 160.5,-245.7"/>
<text text-anchor="start" x="189.5" y="-252.8" font-family="Helvetica,sans-Serif" font-size="11.00" fill="#000000">subject</text>
<polygon fill="none" stroke="#000000" points="160.5,-226.7 160.5,-245.7 317.5,-245.7 317.5,-226.7 160.5,-226.7"/>
<text text-anchor="start" x="163.5" y="-232.8" font-family="Helvetica,sans-Serif" font-size="11.00" fill="#000000">...</text>
<polygon fill="#ffffff" stroke="transparent" points="160.5,-207.7 160.5,-226.7 317.5,-226.7 317.5,-207.7 160.5,-207.7"/>
<polygon fill="none" stroke="#000000" points="160.5,-207.7 160.5,-226.7 317.5,-226.7 317.5,-207.7 160.5,-207.7"/>
<polygon fill="#ffffff" stroke="transparent" points="161.5,-208.7 161.5,-225.7 219.5,-225.7 219.5,-208.7 161.5,-208.7"/>
<text text-anchor="start" x="163.5" y="-213.8" font-family="Helvetica,sans-Serif" font-size="11.00" fill="#000000">&lt; 1</text>
<polygon fill="#ffffff" stroke="transparent" points="219.5,-208.7 219.5,-225.7 268.5,-225.7 268.5,-208.7 219.5,-208.7"/>
<text text-anchor="start" x="240.9431" y="-213.8" font-family="Helvetica,sans-Serif" font-size="11.00" fill="#000000"> &#160;</text>
<polygon fill="#ffffff" stroke="transparent" points="268.5,-208.7 268.5,-225.7 316.5,-225.7 316.5,-208.7 268.5,-208.7"/>
<text text-anchor="start" x="308.3862" y="-213.8" font-family="Helvetica,sans-Serif" font-size="11.00" fill="#000000"> &#160;</text>
<polygon fill="#000000" stroke="#000000" points="219.5,-208.7 219.5,-225.7 219.5,-225.7 219.5,-208.7 219.5,-208.7"/>
<polygon fill="#000000" stroke="#000000" points="268.5,-208.7 268.5,-225.7 268.5,-225.7 268.5,-208.7 268.5,-208.7"/>
</a>
</g>
</g>
<!-- oauth_identities&#45;&gt;users -->
<g id="edge3" class="edge">
<title>oauth_identities:w&#45;&gt;users:e</title>
<path fill="none" stroke="#000000" d="M145.9909,-300.7C134.6774,-300.7 127.4931,-300.7 111.5,-300.7"/>
<polygon fill="#000000" stroke="#000000" points="152.5,-300.7001 160.5,-304.3 156.5,-300.7 160.5,-300.7 160.5,-300.7 160.5,-300.7 156.5,-300.7 160.5,-297.1 152.5,-300.7001 152.5,-300.7001"/>
<ellipse fill="none" stroke="#000000" cx="149.3" cy="-300.7001" rx="3.2" ry="3.2"/>
</g>
<!-- user_sessions -->
<g id="node8" class="node">
<title>user_sessions</title>
<g id="a_node8"><a xlink:href="../../tables/user_sessions.html" xlink:title="user_sessions" target="_top">
<polygon fill="#ffffff" stroke="transparent" points="168.5,-38.2 168.5,-187.2 308.5,-187.2 308.5,-38.2 168.5,-38.2"/>
<polygon fill="#f5f5f5" stroke="transparent" points="168.5,-163.7 168.5,-186.7 308.5,-186.7 308.5,-163.7 168.5,-163.7"/>
<polygon fill="none" stroke="#000000" points="168.5,-163.7 168.5,-186.7 308.5,-186.7 308.5,-163.7 168.5,-163.7"/>
<text text-anchor="start" x="173.5" y="-172.3" font-family="Helvetica,sans-Serif" font-weight="bold" font-size="11.00" fill="#000000">user_sessions</text>
<text text-anchor="start" x="274.0219" y="-171.8" font-family="Helvetica,sans-Serif" font-size="11.00" fill="#000000">[table]</text>
<polygon fill="none" stroke="#000000" points="168.5,-141.7 168.5,-163.7 308.5,-163.7 308.5,-141.7 168.5,-141.7"/>
<image xlink:href="../../images/primaryKeys.png" width="11px" height="12px" preserveAspectRatio="xMinYMin meet" x="173.5" y="-158.7"/>
<text text-anchor="start" x="197.5" y="-148.8" font-family="Helvetica,sans-Serif" font-size="11.00" fill="#000000">id</text>
<polygon fill="#ffffff" stroke="transparent" points="168.5,-119.7 168.5,-141.7 308.5,-141.7 308.5,-119.7 168.5,-119.7"/>
<polygon fill="none" stroke="#000000" points="168.5,-119.7 168.5,-141.7 308.5,-141.7 308.5,-119.7 168.5,-119.7"/>
<image xlink:href="../../images/foreignKeys.png" width="11px" height="12px" preserveAspectRatio="xMinYMin meet" x="173.5" y="-136.7"/>
<text text-anchor="start" x="197.5" y="-126.8" font-family="Helvetica,sans-Serif" font-size="11.00" fill="#000000">user_id</text>
<polygon fill="#ffffff" stroke="transparent" points="168.5,-97.7 168.5,-119.7 308.5,-119.7 308.5,-97.7 168.5,-97.7"/>
<polygon fill="none" stroke="#000000" points="168.5,-97.7 168.5,-119.7 308.5,-119.7 308.5,-97.7 168.5,-97.7"/>
<text text-anchor="start" x="197.5" y="-104.8" font-family="Helvetica,sans-Serif" font-size="11.00" fill="#000000">token_hash</text>
<polygon fill="#ffffff" stroke="transparent" points="168.5,-75.7 168.5,-97.7 308.5,-97.7 308.5,-75.7 168.5,-75.7"/>
<polygon fill="none" stroke="#000000" points="168.5,-75.7 168.5,-97.7 308.5,-97.7 308.5,-75.7 168.5,-75.7"/>
<text text-anchor="start" x="197.5" y="-82.8" font-family="Helvetica,sans-Serif" font-size="11.00" fill="#000000">expires_at</text>
<polygon fill="none" stroke="#000000" points="168.5,-56.7 168.5,-75.7 308.5,-75.7 308.5,-56.7 168.5,-56.7"/>
<text text-anchor="start" x="171.5" y="-62.8" font-family="Helvetica,sans-Serif" font-size="11.00" fill="#000000">...</text>
<polygon fill="#ffffff" stroke="transparent" points="168.5,-37.7 168.5,-56.7 308.5,-56.7 308.5,-37.7 168.5,-37.7"/>
<polygon fill="none" stroke="#000000" points="168.5,-37.7 168.5,-56.7 308.5,-56.7 308.5,-37.7 168.5,-37.7"/>
<polygon fill="#ffffff" stroke="transparent" points="169.5,-38.7 169.5,-55.7 221.5,-55.7 221.5,-38.7 169.5,-38.7"/>
<text text-anchor="start" x="171.5" y="-43.8" font-family="Helvetica,sans-Serif" font-size="11.00" fill="#000000">&lt; 1</text>
<polygon fill="#ffffff" stroke="transparent" points="221.5,-38.7 221.5,-55.7 264.5,-55.7 264.5,-38.7 221.5,-38.7"/>
<text text-anchor="start" x="239.9431" y="-43.8" font-family="Helvetica,sans-Serif" font-size="11.00" fill="#000000"> &#160;</text>
<polygon fill="#ffffff" stroke="transparent" points="264.5,-38.7 264.5,-55.7 307.5,-55.7 307.5,-38.7 264.5,-38.7"/>
<text text-anchor="start" x="299.3862" y="-43.8" font-family="Helvetica,sans-Serif" font-size="11.00" fill="#000000"> &#160;</text>
<polygon fill="#000000" stroke="#000000" points="221.5,-38.7 221.5,-55.7 221.5,-55.7 221.5,-38.7 221.5,-38.7"/>
<polygon fill="#000000" stroke="#000000" points="264.5,-38.7 264.5,-55.7 264.5,-55.7 264.5,-38.7 264.5,-38.7"/>
</a>
</g>
</g>
<!-- user_sessions&#45;&gt;users -->
<g id="edge6" class="edge">
<title>user_sessions:w&#45;&gt;users:e</title>
<path fill="none" stroke="#000000" d="M154.2643,-133.1032C102.3074,-153.7658 185.5864,-300.7 111.5,-300.7"/>
<polygon fill="#000000" stroke="#000000" points="160.6116,-132.0317 169.0993,-134.2498 164.5558,-131.3659 168.5,-130.7 168.5,-130.7 168.5,-130.7 164.5558,-131.3659 167.9007,-127.1502 160.6116,-132.0317 160.6116,-132.0317"/>
<ellipse fill="none" stroke="#000000" cx="157.4563" cy="-132.5644" rx="3.2" ry="3.2"/>
</g>
</g>
</svg>
