<?xml version="1.0" encoding="UTF-8" standalone="no"?>
<!DOCTYPE svg PUBLIC "-//W3C//DTD SVG 1.1//EN"
 "http://www.w3.org/Graphics/SVG/1.1/DTD/svg11.dtd">
<!-- Generated by graphviz version 2.40.1 (20161225.0304)
 -->
<!-- Title: twoDegreesRelationshipsDiagram Pages: 1 -->
<svg width="440pt" height="349pt"
 viewBox="0.00 0.00 440.00 349.20" xmlns="http://www.w3.org/2000/svg" xmlns:xlink="http://www.w3.org/1999/xlink">
<g id="graph0" class="graph" transform="scale(1 1) rotate(0) translate(4 345.2)">
<title>twoDegreesRelationshipsDiagram</title>
<polygon fill="#ffffff" stroke="transparent" points="-4,4 -4,-345.2 436,-345.2 436,4 -4,4"/>
<text text-anchor="middle" x="72.4936" y="-7.3" font-family="Helvetica,sans-Serif" font-size="11.00" fill="#000000">Generated by SchemaSpy</text>
<!-- action_items -->
<g id="node1" class="node">
<title>action_items</title>
<g id="a_node1"><a xlink:href="../../tables/action_items.html" xlink:title="action_items" target="_top">
<polygon fill="#ffffff" stroke="transparent" points="247.5,-276.2 247.5,-337.2 378.5,-337.2 378.5,-276.2 247.5,-276.2"/>
<polygon fill="#f5f5f5" stroke="transparent" points="248,-313.7 248,-336.7 379,-336.7 379,-313.7 248,-313.7"/>
<polygon fill="none" stroke="#000000" points="248,-313.7 248,-336.7 379,-336.7 379,-313.7 248,-313.7"/>
<text text-anchor="start" x="253" y="-322.3" font-family="Helvetica,sans-Serif" font-weight="bold" font-size="11.00" fill="#000000">action_items</text>
<text text-anchor="start" x="344.5219" y="-321.8" font-family="Helvetica,sans-Serif" font-size="11.00" fill="#000000">[table]</text>
<polygon fill="none" stroke="#000000" points="248,-294.7 248,-313.7 379,-313.7 379,-294.7 248,-294.7"/>
<text text-anchor="start" x="251" y="-300.8" font-family="Helvetica,sans-Serif" font-size="11.00" fill="#000000">...</text>
<polygon fill="#ffffff" stroke="transparent" points="248,-275.7 248,-294.7 379,-294.7 379,-275.7 248,-275.7"/>
<polygon fill="none" stroke="#000000" points="248,-275.7 248,-294.7 379,-294.7 379,-275.7 248,-275.7"/>
<polygon fill="#ffffff" stroke="transparent" points="249,-276.7 249,-293.7 298,-293.7 298,-276.7 249,-276.7"/>
<text text-anchor="start" x="251" y="-281.8" font-family="Helvetica,sans-Serif" font-size="11.00" fill="#000000">&lt; 1</text>
<polygon fill="#ffffff" stroke="transparent" points="298,-276.7 298,-293.7 338,-293.7 338,-276.7 298,-276.7"/>
<text text-anchor="start" x="314.9431" y="-281.8" font-family="Helvetica,sans-Serif" font-size="11.00" fill="#000000"> &#160;</text>
<polygon fill="#ffffff" stroke="transparent" points="338,-276.7 338,-293.7 378,-293.7 378,-276.7 338,-276.7"/>
<text text-anchor="start" x="369.8862" y="-281.8" font-family="Helvetica,sans-Serif" font-size="11.00" fill="#000000"> &#160;</text>
<polygon fill="#000000" stroke="#000000" points="298,-276.7 298,-293.7 298,-293.7 298,-276.7 298,-276.7"/>
<polygon fill="#000000" stroke="#000000" points="338,-276.7 338,-293.7 338,-293.7 338,-276.7 338,-276.7"/>
</a>
</g>
</g>
<!-- summaries -->
<g id="node2" class="node">
<title>summaries</title>
<g id="a_node2"><a xlink:href="../../tables/summaries.html" xlink:title="summaries" target="_top">
<polygon fill="#ffffff" stroke="transparent" points="8,-126.2 8,-231.2 153,-231.2 153,-126.2 8,-126.2"/>
<polygon fill="#f5f5f5" stroke="transparent" points="8.5,-207.7 8.5,-230.7 153.5,-230.7 153.5,-207.7 8.5,-207.7"/>
<polygon fill="none" stroke="#000000" points="8.5,-207.7 8.5,-230.7 153.5,-230.7 153.5,-207.7 8.5,-207.7"/>
<text text-anchor="start" x="13.5" y="-216.3" font-family="Helvetica,sans-Serif" font-weight="bold" font-size="11.00" fill="#000000">summaries</text>
<text text-anchor="start" x="118.5437" y="-215.8" font-family="Helvetica,sans-Serif" font-size="11.00" fill="#000000">[table]</text>
<polygon fill="none" stroke="#000000" points="8.5,-185.7 8.5,-207.7 153.5,-207.7 153.5,-185.7 8.5,-185.7"/>
<image xlink:href="../../images/primaryKeys.png" width="11px" height="12px" preserveAspectRatio="xMinYMin meet" x="13.5" y="-202.7"/>
<text text-anchor="start" x="28.5" y="-192.8" font-family="Helvetica,sans-Serif" font-size="11.00" fill="#000000">id</text>
<polygon fill="#ffffff" stroke="transparent" points="8.5,-163.7 8.5,-185.7 153.5,-185.7 153.5,-163.7 8.5,-163.7"/>
<polygon fill="none" stroke="#000000" points="8.5,-163.7 8.5,-185.7 153.5,-185.7 153.5,-163.7 8.5,-163.7"/>
<text text-anchor="start" x="28.5" y="-170.8" font-family="Helvetica,sans-Serif" font-size="11.00" fill="#000000">content_hash</text>
<polygon fill="none" stroke="#000000" points="8.5,-144.7 8.5,-163.7 153.5,-163.7 153.5,-144.7 8.5,-144.7"/>
<text text-anchor="start" x="11.5" y="-150.8" font-family="Helvetica,sans-Serif" font-size="11.00" fill="#000000">...</text>
<polygon fill="#ffffff" stroke="transparent" points="8.5,-125.7 8.5,-144.7 153.5,-144.7 153.5,-125.7 8.5,-125.7"/>
<polygon fill="none" stroke="#000000" points="8.5,-125.7 8.5,-144.7 153.5,-144.7 153.5,-125.7 8.5,-125.7"/>
<polygon fill="#ffffff" stroke="transparent" points="9.5,-126.7 9.5,-143.7 54.5,-143.7 54.5,-126.7 9.5,-126.7"/>
<text text-anchor="start" x="11.5" y="-131.8" font-family="Helvetica,sans-Serif" font-size="11.00" fill="#000000"> &#160;</text>
<polygon fill="#ffffff" stroke="transparent" points="54.5,-126.7 54.5,-143.7 99.5,-143.7 99.5,-126.7 54.5,-126.7"/>
<text text-anchor="start" x="73.9431" y="-131.8" font-family="Helvetica,sans-Serif" font-size="11.00" fill="#000000"> &#160;</text>
<polygon fill="#ffffff" stroke="transparent" points="99.5,-126.7 99.5,-143.7 152.5,-143.7 152.5,-126.7 99.5,-126.7"/>
<text text-anchor="start" x="134.9053" y="-131.8" font-family="Helvetica,sans-Serif" font-size="11.00" fill="#000000">3 &gt;</text>
<polygon fill="#000000" stroke="#000000" points="54.5,-126.7 54.5,-143.7 54.5,-143.7 54.5,-126.7 54.5,-126.7"/>
<polygon fill="#000000" stroke="#000000" points="99.5,-126.7 99.5,-143.7 99.5,-143.7 99.5,-126.7 99.5,-126.7"/>
</a>
</g>
</g>
<!-- action_items&#45;&gt;summaries -->
<g id="edge1" class="edge">
<title>action_items:w&#45;&gt;summaries:e</title>
<path fill="none" stroke="#000000" d="M233.3211,-301.9056C216.212,-297.0919 209.9961,-283.0722 194,-265.7 169.9134,-239.5413 189.059,-196.7 153.5,-196.7"/>
<polygon fill="#000000" stroke="#000000" points="240.0591,-302.7292 247.5632,-307.2734 244.0296,-303.2146 248,-303.7 248,-303.7 248,-303.7 244.0296,-303.2146 248.4368,-300.1266 240.0591,-302.7292 240.0591,-302.7292"/>
<ellipse fill="none" stroke="#000000" cx="236.8828" cy="-302.3409" rx="3.2" ry="3.2"/>
</g>
<!-- decisions -->
<g id="node3" class="node">
<title>decisions</title>
<g id="a_node3"><a xlink:href="../../tables/decisions.html" xlink:title="decisions" target="_top">
<polygon fill="#ffffff" stroke="transparent" points="202,-120.7 202,-254.7 424,-254.7 424,-120.7 202,-120.7"/>
<polygon fill="#f5f5f5" stroke="transparent" points="204,-229.7 204,-252.7 422,-252.7 422,-229.7 204,-229.7"/>
<polygon fill="none" stroke="#000000" points="204,-229.7 204,-252.7 422,-252.7 422,-229.7 204,-229.7"/>
<text text-anchor="start" x="209" y="-238.3" font-family="Helvetica,sans-Serif" font-weight="bold" font-size="11.00" fill="#000000">decisions</text>
<text text-anchor="start" x="387.0437" y="-237.8" font-family="Helvetica,sans-Serif" font-size="11.00" fill="#000000">[table]</text>
<polygon fill="none" stroke="#000000" points="204,-207.7 204,-229.7 313,-229.7 313,-207.7 204,-207.7"/>
<image xlink:href="../../images/primaryKeys.png" width="11px" height="12px" preserveAspectRatio="xMinYMin meet" x="209" y="-224.7"/>
<text text-anchor="start" x="224" y="-214.8" font-family="Helvetica,sans-Serif" font-size="11.00" fill="#000000">id</text>
<polygon fill="none" stroke="#000000" points="313,-207.7 313,-229.7 422,-229.7 422,-207.7 313,-207.7"/>
<text text-anchor="start" x="316" y="-215.4" font-family="Helvetica,sans-Serif" font-size="11.00" fill="#000000">serial[10]</text>
<polygon fill="#ffffff" stroke="transparent" points="204,-185.7 204,-207.7 313,-207.7 313,-185.7 204,-185.7"/>
<polygon fill="none" stroke="#000000" points="204,-185.7 204,-207.7 313,-207.7 313,-185.7 204,-185.7"/>
<image xlink:href="../../images/foreignKeys.png" width="11px" height="12px" preserveAspectRatio="xMinYMin meet" x="209" y="-202.7"/>
<text text-anchor="start" x="224" y="-192.8" font-family="Helvetica,sans-Serif" font-size="11.00" fill="#000000">summary_id</text>
<polygon fill="none" stroke="#000000" points="313,-185.7 313,-207.7 422,-207.7 422,-185.7 313,-185.7"/>
<text text-anchor="start" x="316" y="-193.4" font-family="Helvetica,sans-Serif" font-size="11.00" fill="#000000">uuid[2147483647]</text>
<polygon fill="none" stroke="#000000" points="204,-163.7 204,-185.7 313,-185.7 313,-163.7 204,-163.7"/>
<text text-anchor="start" x="224" y="-170.8" font-family="Helvetica,sans-Serif" font-size="11.00" fill="#000000">description</text>
<polygon fill="none" stroke="#000000" points="313,-163.7 313,-185.7 422,-185.7 422,-163.7 313,-163.7"/>
<text text-anchor="start" x="315.5344" y="-171.4" font-family="Helvetica,sans-Serif" font-size="11.00" fill="#000000">varchar[2147483647]</text>
<polygon fill="none" stroke="#000000" points="204,-141.7 204,-163.7 313,-163.7 313,-141.7 204,-141.7"/>
<text text-anchor="start" x="224" y="-148.8" font-family="Helvetica,sans-Serif" font-size="11.00" fill="#000000">decided_by</text>
<polygon fill="none" stroke="#000000" points="313,-141.7 313,-163.7 422,-163.7 422,-141.7 313,-141.7"/>
<text text-anchor="start" x="315.5344" y="-149.4" font-family="Helvetica,sans-Serif" font-size="11.00" fill="#000000">varchar[2147483647]</text>
<polygon fill="#ffffff" stroke="transparent" points="204,-122.7 204,-141.7 422,-141.7 422,-122.7 204,-122.7"/>
<polygon fill="none" stroke="#000000" points="204,-122.7 204,-141.7 422,-141.7 422,-122.7 204,-122.7"/>
<polygon fill="#ffffff" stroke="transparent" points="205,-123.7 205,-140.7 280,-140.7 280,-123.7 205,-123.7"/>
<text text-anchor="start" x="207" y="-128.8" font-family="Helvetica,sans-Serif" font-size="11.00" fill="#000000">&lt; 1</text>
<polygon fill="#ffffff" stroke="transparent" points="280,-123.7 280,-140.7 346,-140.7 346,-123.7 280,-123.7"/>
<text text-anchor="start" x="309.9431" y="-128.8" font-family="Helvetica,sans-Serif" font-size="11.00" fill="#000000"> &#160;</text>
<polygon fill="#ffffff" stroke="transparent" points="346,-123.7 346,-140.7 421,-140.7 421,-123.7 346,-123.7"/>
<text text-anchor="start" x="403.4053" y="-128.8" font-family="Helvetica,sans-Serif" font-size="11.00" fill="#000000">0 &gt;</text>
<polygon fill="#000000" stroke="#000000" points="280,-123.7 280,-140.7 280,-140.7 280,-123.7 280,-123.7"/>
<polygon fill="#000000" stroke="#000000" points="346,-123.7 346,-140.7 346,-140.7 346,-123.7 346,-123.7"/>
<polygon fill="none" stroke="#000000" stroke-width="2" points="203,-121.7 203,-253.7 423,-253.7 423,-121.7 203,-121.7"/>
</a>
</g>
</g>
<!-- decisions&#45;&gt;summaries -->
<g id="edge2" class="edge">
<title>decisions:w&#45;&gt;summaries:e</title>
<path fill="none" stroke="#000000" d="M189.4203,-196.7C177.5435,-196.7 170.158,-196.7 153.5,-196.7"/>
<polygon fill="#000000" stroke="#000000" points="196,-196.7001 204,-200.3 200,-196.7 204,-196.7 204,-196.7 204,-196.7 200,-196.7 204,-193.1 196,-196.7001 196,-196.7001"/>
<ellipse fill="none" stroke="#000000" cx="192.8" cy="-196.7001" rx="3.2" ry="3.2"/>
</g>
<!-- topics -->
<g id="node4" class="node">
<title>topics</title>
<g id="a_node4"><a xlink:href="../../tables/topics.html" xlink:title="topics" target="_top">
<polygon fill="#ffffff" stroke="transparent" points="271.5,-38.2 271.5,-99.2 354.5,-99.2 354.5,-38.2 271.5,-38.2"/>
<polygon fill="#f5f5f5" stroke="transparent" points="272,-75.7 272,-98.7 355,-98.7 355,-75.7 272,-75.7"/>
<polygon fill="none" stroke="#000000" points="272,-75.7 272,-98.7 355,-98.7 355,-75.7 272,-75.7"/>
<text text-anchor="start" x="277" y="-84.3" font-family="Helvetica,sans-Serif" font-weight="bold" font-size="11.00" fill="#000000">topics</text>
<text text-anchor="start" x="320.5219" y="-83.8" font-family="Helvetica,sans-Serif" font-size="11.00" fill="#000000">[table]</text>
<polygon fill="none" stroke="#000000" points="272,-56.7 272,-75.7 355,-75.7 355,-56.7 272,-56.7"/>
<text text-anchor="start" x="275" y="-62.8" font-family="Helvetica,sans-Serif" font-size="11.00" fill="#000000">...</text>
<polygon fill="#ffffff" stroke="transparent" points="272,-37.7 272,-56.7 355,-56.7 355,-37.7 272,-37.7"/>
<polygon fill="none" stroke="#000000" points="272,-37.7 272,-56.7 355,-56.7 355,-37.7 272,-37.7"/>
<polygon fill="#ffffff" stroke="transparent" points="273,-38.7 273,-55.7 306,-55.7 306,-38.7 273,-38.7"/>
<text text-anchor="start" x="275" y="-43.8" font-family="Helvetica,sans-Serif" font-size="11.00" fill="#000000">&lt; 1</text>
<polygon fill="#ffffff" stroke="transparent" points="306,-38.7 306,-55.7 330,-55.7 330,-38.7 306,-38.7"/>
<text text-anchor="start" x="314.9431" y="-43.8" font-family="Helvetica,sans-Serif" font-size="11.00" fill="#000000"> &#160;</text>
<polygon fill="#ffffff" stroke="transparent" points="330,-38.7 330,-55.7 354,-55.7 354,-38.7 330,-38.7"/>
<text text-anchor="start" x="345.8862" y="-43.8" font-family="Helvetica,sans-Serif" font-size="11.00" fill="#000000"> &#160;</text>
<polygon fill="#000000" stroke="#000000" points="306,-38.7 306,-55.7 306,-55.7 306,-38.7 306,-38.7"/>
<polygon fill="#000000" stroke="#000000" points="330,-38.7 330,-55.7 330,-55.7 330,-38.7 330,-38.7"/>
</a>
</g>
</g>
<!-- topics&#45;&gt;summaries -->
<g id="edge3" class="edge">
<title>topics:w&#45;&gt;summaries:e</title>
<path fill="none" stroke="#000000" d="M257.4896,-66.5189C228.802,-70.0752 217.5001,-85.1597 194,-110.7 165.3933,-141.7902 195.7485,-196.7 153.5,-196.7"/>
<polygon fill="#000000" stroke="#000000" points="264.0127,-66.1508 272.2029,-69.2943 268.0064,-65.9254 272,-65.7 272,-65.7 272,-65.7 268.0064,-65.9254 271.7971,-62.1057 264.0127,-66.1508 264.0127,-66.1508"/>
<ellipse fill="none" stroke="#000000" cx="260.8178" cy="-66.3312" rx="3.2" ry="3.2"/>
</g>
</g>
</svg>
