<?xml version="1.0" encoding="UTF-8" standalone="no"?>
<!DOCTYPE svg PUBLIC "-//W3C//DTD SVG 1.1//EN"
 "http://www.w3.org/Graphics/SVG/1.1/DTD/svg11.dtd">
<!-- Generated by graphviz version 2.40.1 (20161225.0304)
 -->
<!-- Title: twoDegreesRelationshipsDiagram Pages: 1 -->
<svg width="571pt" height="371pt"
 viewBox="0.00 0.00 571.00 370.70" xmlns="http://www.w3.org/2000/svg" xmlns:xlink="http://www.w3.org/1999/xlink">
<g id="graph0" class="graph" transform="scale(1 1) rotate(0) translate(4 366.7)">
<title>twoDegreesRelationshipsDiagram</title>
<polygon fill="#ffffff" stroke="transparent" points="-4,4 -4,-366.7 567,-366.7 567,4 -4,4"/>
<text text-anchor="middle" x="72.4936" y="-7.3" font-family="Helvetica,sans-Serif" font-size="11.00" fill="#000000">Generated by SchemaSpy</text>
<!-- action_items -->
<g id="node1" class="node">
<title>action_items</title>
<g id="a_node1"><a xlink:href="../../tables/action_items.html" xlink:title="action_items" target="_top">
<polygon fill="#ffffff" stroke="transparent" points="329,-202.7 329,-358.7 555,-358.7 555,-202.7 329,-202.7"/>
<polygon fill="#f5f5f5" stroke="transparent" points="331,-333.7 331,-356.7 553,-356.7 553,-333.7 331,-333.7"/>
<polygon fill="none" stroke="#000000" points="331,-333.7 331,-356.7 553,-356.7 553,-333.7 331,-333.7"/>
<text text-anchor="start" x="336" y="-342.3" font-family="Helvetica,sans-Serif" font-weight="bold" font-size="11.00" fill="#000000">action_items</text>
<text text-anchor="start" x="518.0437" y="-341.8" font-family="Helvetica,sans-Serif" font-size="11.00" fill="#000000">[table]</text>
<polygon fill="none" stroke="#000000" points="331,-311.7 331,-333.7 444,-333.7 444,-311.7 331,-311.7"/>
<image xlink:href="../../images/primaryKeys.png" width="11px" height="12px" preserveAspectRatio="xMinYMin meet" x="336" y="-328.7"/>
<text text-anchor="start" x="351" y="-318.8" font-family="Helvetica,sans-Serif" font-size="11.00" fill="#000000">id</text>
<polygon fill="none" stroke="#000000" points="444,-311.7 444,-333.7 553,-333.7 553,-311.7 444,-311.7"/>
<text text-anchor="start" x="447" y="-319.4" font-family="Helvetica,sans-Serif" font-size="11.00" fill="#000000">serial[10]</text>
<polygon fill="#ffffff" stroke="transparent" points="331,-289.7 331,-311.7 444,-311.7 444,-289.7 331,-289.7"/>
<polygon fill="none" stroke="#000000" points="331,-289.7 331,-311.7 444,-311.7 444,-289.7 331,-289.7"/>
<image xlink:href="../../images/foreignKeys.png" width="11px" height="12px" preserveAspectRatio="xMinYMin meet" x="336" y="-306.7"/>
<text text-anchor="start" x="351" y="-296.8" font-family="Helvetica,sans-Serif" font-size="11.00" fill="#000000">summary_id</text>
<polygon fill="none" stroke="#000000" points="444,-289.7 444,-311.7 553,-311.7 553,-289.7 444,-289.7"/>
<text text-anchor="start" x="447" y="-297.4" font-family="Helvetica,sans-Serif" font-size="11.00" fill="#000000">uuid[2147483647]</text>
<polygon fill="none" stroke="#000000" points="331,-267.7 331,-289.7 444,-289.7 444,-267.7 331,-267.7"/>
<text text-anchor="start" x="351" y="-274.8" font-family="Helvetica,sans-Serif" font-size="11.00" fill="#000000">description</text>
<polygon fill="none" stroke="#000000" points="444,-267.7 444,-289.7 553,-289.7 553,-267.7 444,-267.7"/>
<text text-anchor="start" x="446.5344" y="-275.4" font-family="Helvetica,sans-Serif" font-size="11.00" fill="#000000">varchar[2147483647]</text>
<polygon fill="none" stroke="#000000" points="331,-245.7 331,-267.7 444,-267.7 444,-245.7 331,-245.7"/>
<text text-anchor="start" x="351" y="-252.8" font-family="Helvetica,sans-Serif" font-size="11.00" fill="#000000">assignee</text>
<polygon fill="none" stroke="#000000" points="444,-245.7 444,-267.7 553,-267.7 553,-245.7 444,-245.7"/>
<text text-anchor="start" x="446.5344" y="-253.4" font-family="Helvetica,sans-Serif" font-size="11.00" fill="#000000">varchar[2147483647]</text>
<polygon fill="none" stroke="#000000" points="331,-223.7 331,-245.7 444,-245.7 444,-223.7 331,-223.7"/>
<text text-anchor="start" x="351" y="-230.8" font-family="Helvetica,sans-Serif" font-size="11.00" fill="#000000">due_date</text>
<polygon fill="none" stroke="#000000" points="444,-223.7 444,-245.7 553,-245.7 553,-223.7 444,-223.7"/>
<text text-anchor="start" x="447" y="-231.4" font-family="Helvetica,sans-Serif" font-size="11.00" fill="#000000">date[13]</text>
<polygon fill="#ffffff" stroke="transparent" points="331,-204.7 331,-223.7 553,-223.7 553,-204.7 331,-204.7"/>
<polygon fill="none" stroke="#000000" points="331,-204.7 331,-223.7 553,-223.7 553,-204.7 331,-204.7"/>
<polygon fill="#ffffff" stroke="transparent" points="332,-205.7 332,-222.7 409,-222.7 409,-205.7 332,-205.7"/>
<text text-anchor="start" x="334" y="-210.8" font-family="Helvetica,sans-Serif" font-size="11.00" fill="#000000">&lt; 1</text>
<polygon fill="#ffffff" stroke="transparent" points="409,-205.7 409,-222.7 476,-222.7 476,-205.7 409,-205.7"/>
<text text-anchor="start" x="439.4431" y="-210.8" font-family="Helvetica,sans-Serif" font-size="11.00" fill="#000000"> &#160;</text>
<polygon fill="#ffffff" stroke="transparent" points="476,-205.7 476,-222.7 552,-222.7 552,-205.7 476,-205.7"/>
<text text-anchor="start" x="534.4053" y="-210.8" font-family="Helvetica,sans-Serif" font-size="11.00" fill="#000000">0 &gt;</text>
<polygon fill="#000000" stroke="#000000" points="409,-205.7 409,-222.7 409,-222.7 409,-205.7 409,-205.7"/>
<polygon fill="#000000" stroke="#000000" points="476,-205.7 476,-222.7 476,-222.7 476,-205.7 476,-205.7"/>
<polygon fill="none" stroke="#000000" stroke-width="2" points="330,-203.7 330,-357.7 554,-357.7 554,-203.7 330,-203.7"/>
</a>
</g>
</g>
<!-- summaries -->
<g id="node2" class="node">
<title>summaries</title>
<g id="a_node2"><a xlink:href="../../tables/summaries.html" xlink:title="summaries" target="_top">
<polygon fill="#ffffff" stroke="transparent" points="135,-55.2 135,-182.2 280,-182.2 280,-55.2 135,-55.2"/>
<polygon fill="#f5f5f5" stroke="transparent" points="135.5,-158.7 135.5,-181.7 280.5,-181.7 280.5,-158.7 135.5,-158.7"/>
<polygon fill="none" stroke="#000000" points="135.5,-158.7 135.5,-181.7 280.5,-181.7 280.5,-158.7 135.5,-158.7"/>
<text text-anchor="start" x="140.5" y="-167.3" font-family="Helvetica,sans-Serif" font-weight="bold" font-size="11.00" fill="#000000">summaries</text>
<text text-anchor="start" x="245.5437" y="-166.8" font-family="Helvetica,sans-Serif" font-size="11.00" fill="#000000">[table]</text>
<polygon fill="none" stroke="#000000" points="135.5,-136.7 135.5,-158.7 280.5,-158.7 280.5,-136.7 135.5,-136.7"/>
<image xlink:href="../../images/primaryKeys.png" width="11px" height="12px" preserveAspectRatio="xMinYMin meet" x="140.5" y="-153.7"/>
<text text-anchor="start" x="155.5" y="-143.8" font-family="Helvetica,sans-Serif" font-size="11.00" fill="#000000">id</text>
<polygon fill="#ffffff" stroke="transparent" points="135.5,-114.7 135.5,-136.7 280.5,-136.7 280.5,-114.7 135.5,-114.7"/>
<polygon fill="none" stroke="#000000" points="135.5,-114.7 135.5,-136.7 280.5,-136.7 280.5,-114.7 135.5,-114.7"/>
<text text-anchor="start" x="155.5" y="-121.8" font-family="Helvetica,sans-Serif" font-size="11.00" fill="#000000">content_hash</text>
<polygon fill="#ffffff" stroke="transparent" points="135.5,-92.7 135.5,-114.7 280.5,-114.7 280.5,-92.7 135.5,-92.7"/>
<polygon fill="none" stroke="#000000" points="135.5,-92.7 135.5,-114.7 280.5,-114.7 280.5,-92.7 135.5,-92.7"/>
<image xlink:href="../../images/foreignKeys.png" width="11px" height="12px" preserveAspectRatio="xMinYMin meet" x="140.5" y="-109.7"/>
<text text-anchor="start" x="155.5" y="-99.8" font-family="Helvetica,sans-Serif" font-size="11.00" fill="#000000">user_id</text>
<polygon fill="none" stroke="#000000" points="135.5,-73.7 135.5,-92.7 280.5,-92.7 280.5,-73.7 135.5,-73.7"/>
<text text-anchor="start" x="138.5" y="-79.8" font-family="Helvetica,sans-Serif" font-size="11.00" fill="#000000">...</text>
<polygon fill="#ffffff" stroke="transparent" points="135.5,-54.7 135.5,-73.7 280.5,-73.7 280.5,-54.7 135.5,-54.7"/>
<polygon fill="none" stroke="#000000" points="135.5,-54.7 135.5,-73.7 280.5,-73.7 280.5,-54.7 135.5,-54.7"/>
<polygon fill="#ffffff" stroke="transparent" points="136.5,-55.7 136.5,-72.7 187.5,-72.7 187.5,-55.7 136.5,-55.7"/>
<text text-anchor="start" x="138.5" y="-60.8" font-family="Helvetica,sans-Serif" font-size="11.00" fill="#000000">&lt; 1</text>
<polygon fill="#ffffff" stroke="transparent" points="187.5,-55.7 187.5,-72.7 229.5,-72.7 229.5,-55.7 187.5,-55.7"/>
<text text-anchor="start" x="205.4431" y="-60.8" font-family="Helvetica,sans-Serif" font-size="11.00" fill="#000000"> &#160;</text>
<polygon fill="#ffffff" stroke="transparent" points="229.5,-55.7 229.5,-72.7 279.5,-72.7 279.5,-55.7 229.5,-55.7"/>
<text text-anchor="start" x="261.9053" y="-60.8" font-family="Helvetica,sans-Serif" font-size="11.00" fill="#000000">3 &gt;</text>
<polygon fill="#000000" stroke="#000000" points="187.5,-55.7 187.5,-72.7 187.5,-72.7 187.5,-55.7 187.5,-55.7"/>
<polygon fill="#000000" stroke="#000000" points="229.5,-55.7 229.5,-72.7 229.5,-72.7 229.5,-55.7 229.5,-55.7"/>
</a>
</g>
</g>
<!-- action_items&#45;&gt;summaries -->
<g id="edge1" class="edge">
<title>action_items:w&#45;&gt;summaries:e</title>
<path fill="none" stroke="#000000" d="M316.7897,-297.9138C273.1871,-277.1772 346.3741,-147.7 280.5,-147.7"/>
<polygon fill="#000000" stroke="#000000" points="323.1495,-299.1607 330.3073,-304.2327 327.0747,-299.9304 331,-300.7 331,-300.7 331,-300.7 327.0747,-299.9304 331.6927,-297.1673 323.1495,-299.1607 323.1495,-299.1607"/>
<ellipse fill="none" stroke="#000000" cx="320.0093" cy="-298.545" rx="3.2" ry="3.2"/>
</g>
<!-- users -->
<g id="node4" class="node">
<title>users</title>
<g id="a_node4"><a xlink:href="../../tables/users.html" xlink:title="users" target="_top">
<polygon fill="#ffffff" stroke="transparent" points="8,-76.2 8,-137.2 86,-137.2 86,-76.2 8,-76.2"/>
<polygon fill="#f5f5f5" stroke="transparent" points="8,-113.7 8,-136.7 86,-136.7 86,-113.7 8,-113.7"/>
<polygon fill="none" stroke="#000000" points="8,-113.7 8,-136.7 86,-136.7 86,-113.7 8,-113.7"/>
<text text-anchor="start" x="13" y="-122.3" font-family="Helvetica,sans-Serif" font-weight="bold" font-size="11.00" fill="#000000">users</text>
<text text-anchor="start" x="51.5219" y="-121.8" font-family="Helvetica,sans-Serif" font-size="11.00" fill="#000000">[table]</text>
<polygon fill="none" stroke="#000000" points="8,-94.7 8,-113.7 86,-113.7 86,-94.7 8,-94.7"/>
<text text-anchor="start" x="11" y="-100.8" font-family="Helvetica,sans-Serif" font-size="11.00" fill="#000000">...</text>
<polygon fill="#ffffff" stroke="transparent" points="8,-75.7 8,-94.7 86,-94.7 86,-75.7 8,-75.7"/>
<polygon fill="none" stroke="#000000" points="8,-75.7 8,-94.7 86,-94.7 86,-75.7 8,-75.7"/>
<polygon fill="#ffffff" stroke="transparent" points="9,-76.7 9,-93.7 32,-93.7 32,-76.7 9,-76.7"/>
<text text-anchor="start" x="11" y="-81.8" font-family="Helvetica,sans-Serif" font-size="11.00" fill="#000000"> &#160;</text>
<polygon fill="#ffffff" stroke="transparent" points="32,-76.7 32,-93.7 54,-93.7 54,-76.7 32,-76.7"/>
<text text-anchor="start" x="39.9431" y="-81.8" font-family="Helvetica,sans-Serif" font-size="11.00" fill="#000000"> &#160;</text>
<polygon fill="#ffffff" stroke="transparent" points="54,-76.7 54,-93.7 85,-93.7 85,-76.7 54,-76.7"/>
<text text-anchor="start" x="67.4053" y="-81.8" font-family="Helvetica,sans-Serif" font-size="11.00" fill="#000000">3 &gt;</text>
<polygon fill="#000000" stroke="#000000" points="32,-76.7 32,-93.7 32,-93.7 32,-76.7 32,-76.7"/>
<polygon fill="#000000" stroke="#000000" points="54,-76.7 54,-93.7 54,-93.7 54,-76.7 54,-76.7"/>
</a>
</g>
</g>
<!-- summaries&#45;&gt;users -->
<g id="edge3" class="edge">
<title>summaries:w&#45;&gt;users:e</title>
<path fill="none" stroke="#000000" d="M120.8428,-103.7C109.4139,-103.7 102.1563,-103.7 86,-103.7"/>
<polygon fill="#000000" stroke="#000000" points="127.5,-103.7001 135.5,-107.3 131.5,-103.7 135.5,-103.7 135.5,-103.7 135.5,-103.7 131.5,-103.7 135.5,-100.1 127.5,-103.7001 127.5,-103.7001"/>
<ellipse fill="none" stroke="#000000" cx="124.3" cy="-103.7001" rx="3.2" ry="3.2"/>
</g>
<!-- decisions -->
<g id="node3" class="node">
<title>decisions</title>
<g id="a_node3"><a xlink:href="../../tables/decisions.html" xlink:title="decisions" target="_top">
<polygon fill="#ffffff" stroke="transparent" points="388.5,-120.2 388.5,-181.2 495.5,-181.2 495.5,-120.2 388.5,-120.2"/>
<polygon fill="#f5f5f5" stroke="transparent" points="389,-157.7 389,-180.7 496,-180.7 496,-157.7 389,-157.7"/>
<polygon fill="none" stroke="#000000" points="389,-157.7 389,-180.7 496,-180.7 496,-157.7 389,-157.7"/>
<text text-anchor="start" x="394" y="-166.3" font-family="Helvetica,sans-Serif" font-weight="bold" font-size="11.00" fill="#000000">decisions</text>
<text text-anchor="start" x="461.5219" y="-165.8" font-family="Helvetica,sans-Serif" font-size="11.00" fill="#000000">[table]</text>
<polygon fill="none" stroke="#000000" points="389,-138.7 389,-157.7 496,-157.7 496,-138.7 389,-138.7"/>
<text text-anchor="start" x="392" y="-144.8" font-family="Helvetica,sans-Serif" font-size="11.00" fill="#000000">...</text>
<polygon fill="#ffffff" stroke="transparent" points="389,-119.7 389,-138.7 496,-138.7 496,-119.7 389,-119.7"/>
<polygon fill="none" stroke="#000000" points="389,-119.7 389,-138.7 496,-138.7 496,-119.7 389,-119.7"/>
<polygon fill="#ffffff" stroke="transparent" points="390,-120.7 390,-137.7 431,-137.7 431,-120.7 390,-120.7"/>
<text text-anchor="start" x="392" y="-125.8" font-family="Helvetica,sans-Serif" font-size="11.00" fill="#000000">&lt; 1</text>
<polygon fill="#ffffff" stroke="transparent" points="431,-120.7 431,-137.7 463,-137.7 463,-120.7 431,-120.7"/>
<text text-anchor="start" x="443.9431" y="-125.8" font-family="Helvetica,sans-Serif" font-size="11.00" fill="#000000"> &#160;</text>
<polygon fill="#ffffff" stroke="transparent" points="463,-120.7 463,-137.7 495,-137.7 495,-120.7 463,-120.7"/>
<text text-anchor="start" x="486.8862" y="-125.8" font-family="Helvetica,sans-Serif" font-size="11.00" fill="#000000"> &#160;</text>
<polygon fill="#000000" stroke="#000000" points="431,-120.7 431,-137.7 431,-137.7 431,-120.7 431,-120.7"/>
<polygon fill="#000000" stroke="#000000" points="463,-120.7 463,-137.7 463,-137.7 463,-120.7 463,-120.7"/>
</a>
</g>
</g>
<!-- decisions&#45;&gt;summaries -->
<g id="edge2" class="edge">
<title>decisions:w&#45;&gt;summaries:e</title>
<path fill="none" stroke="#000000" d="M374.3804,-147.7C337.708,-147.7 323.4479,-147.7 280.5,-147.7"/>
<polygon fill="#000000" stroke="#000000" points="381,-147.7001 389,-151.3 385,-147.7 389,-147.7 389,-147.7 389,-147.7 385,-147.7 389,-144.1 381,-147.7001 381,-147.7001"/>
<ellipse fill="none" stroke="#000000" cx="377.8" cy="-147.7001" rx="3.2" ry="3.2"/>
</g>
<!-- topics -->
<g id="node5" class="node">
<title>topics</title>
<g id="a_node5"><a xlink:href="../../tables/topics.html" xlink:title="topics" target="_top">
<polygon fill="#ffffff" stroke="transparent" points="400.5,-38.2 400.5,-99.2 483.5,-99.2 483.5,-38.2 400.5,-38.2"/>
<polygon fill="#f5f5f5" stroke="transparent" points="401,-75.7 401,-98.7 484,-98.7 484,-75.7 401,-75.7"/>
<polygon fill="none" stroke="#000000" points="401,-75.7 401,-98.7 484,-98.7 484,-75.7 401,-75.7"/>
<text text-anchor="start" x="406" y="-84.3" font-family="Helvetica,sans-Serif" font-weight="bold" font-size="11.00" fill="#000000">topics</text>
<text text-anchor="start" x="449.5219" y="-83.8" font-family="Helvetica,sans-Serif" font-size="11.00" fill="#000000">[table]</text>
<polygon fill="none" stroke="#000000" points="401,-56.7 401,-75.7 484,-75.7 484,-56.7 401,-56.7"/>
<text text-anchor="start" x="404" y="-62.8" font-family="Helvetica,sans-Serif" font-size="11.00" fill="#000000">...</text>
<polygon fill="#ffffff" stroke="transparent" points="401,-37.7 401,-56.7 484,-56.7 484,-37.7 401,-37.7"/>
<polygon fill="none" stroke="#000000" points="401,-37.7 401,-56.7 484,-56.7 484,-37.7 401,-37.7"/>
<polygon fill="#ffffff" stroke="transparent" points="402,-38.7 402,-55.7 435,-55.7 435,-38.7 402,-38.7"/>
<text text-anchor="start" x="404" y="-43.8" font-family="Helvetica,sans-Serif" font-size="11.00" fill="#000000">&lt; 1</text>
<polygon fill="#ffffff" stroke="transparent" points="435,-38.7 435,-55.7 459,-55.7 459,-38.7 435,-38.7"/>
<text text-anchor="start" x="443.9431" y="-43.8" font-family="Helvetica,sans-Serif" font-size="11.00" fill="#000000"> &#160;</text>
<polygon fill="#ffffff" stroke="transparent" points="459,-38.7 459,-55.7 483,-55.7 483,-38.7 459,-38.7"/>
<text text-anchor="start" x="474.8862" y="-43.8" font-family="Helvetica,sans-Serif" font-size="11.00" fill="#000000"> &#160;</text>
<polygon fill="#000000" stroke="#000000" points="435,-38.7 435,-55.7 435,-55.7 435,-38.7 435,-38.7"/>
<polygon fill="#000000" stroke="#000000" points="459,-38.7 459,-55.7 459,-55.7 459,-38.7 459,-38.7"/>
</a>
</g>
</g>
<!-- topics&#45;&gt;summaries -->
<g id="edge4" class="edge">
<title>topics:w&#45;&gt;summaries:e</title>
<path fill="none" stroke="#000000" d="M386.4895,-66.7279C358.2081,-71.1181 349.4711,-89.0196 321,-109.7 301.0296,-124.2058 305.1827,-147.7 280.5,-147.7"/>
<polygon fill="#000000" stroke="#000000" points="393.02,-66.2653 401.2544,-69.291 397.01,-65.9827 401,-65.7 401,-65.7 401,-65.7 397.01,-65.9827 400.7456,-62.109 393.02,-66.2653 393.02,-66.2653"/>
<ellipse fill="none" stroke="#000000" cx="389.828" cy="-66.4914" rx="3.2" ry="3.2"/>
</g>
</g>
</svg>
