<?xml version="1.0" encoding="UTF-8" standalone="no"?>
<!DOCTYPE svg PUBLIC "-//W3C//DTD SVG 1.1//EN"
 "http://www.w3.org/Graphics/SVG/1.1/DTD/svg11.dtd">
<!-- Generated by graphviz version 2.40.1 (20161225.0304)
 -->
<!-- Title: twoDegreesRelationshipsDiagram Pages: 1 -->
<svg width="567pt" height="349pt"
 viewBox="0.00 0.00 567.00 349.20" xmlns="http://www.w3.org/2000/svg" xmlns:xlink="http://www.w3.org/1999/xlink">
<g id="graph0" class="graph" transform="scale(1 1) rotate(0) translate(4 345.2)">
<title>twoDegreesRelationshipsDiagram</title>
<polygon fill="#ffffff" stroke="transparent" points="-4,4 -4,-345.2 563,-345.2 563,4 -4,4"/>
<text text-anchor="middle" x="72.4936" y="-7.3" font-family="Helvetica,sans-Serif" font-size="11.00" fill="#000000">Generated by SchemaSpy</text>
<!-- action_items -->
<g id="node1" class="node">
<title>action_items</title>
<g id="a_node1"><a xlink:href="../../tables/action_items.html" xlink:title="action_items" target="_top">
<polygon fill="#ffffff" stroke="transparent" points="374.5,-276.2 374.5,-337.2 505.5,-337.2 505.5,-276.2 374.5,-276.2"/>
<polygon fill="#f5f5f5" stroke="transparent" points="375,-313.7 375,-336.7 506,-336.7 506,-313.7 375,-313.7"/>
<polygon fill="none" stroke="#000000" points="375,-313.7 375,-336.7 506,-336.7 506,-313.7 375,-313.7"/>
<text text-anchor="start" x="380" y="-322.3" font-family="Helvetica,sans-Serif" font-weight="bold" font-size="11.00" fill="#000000">action_items</text>
<text text-anchor="start" x="471.5219" y="-321.8" font-family="Helvetica,sans-Serif" font-size="11.00" fill="#000000">[table]</text>
<polygon fill="none" stroke="#000000" points="375,-294.7 375,-313.7 506,-313.7 506,-294.7 375,-294.7"/>
<text text-anchor="start" x="378" y="-300.8" font-family="Helvetica,sans-Serif" font-size="11.00" fill="#000000">...</text>
<polygon fill="#ffffff" stroke="transparent" points="375,-275.7 375,-294.7 506,-294.7 506,-275.7 375,-275.7"/>
<polygon fill="none" stroke="#000000" points="375,-275.7 375,-294.7 506,-294.7 506,-275.7 375,-275.7"/>
<polygon fill="#ffffff" stroke="transparent" points="376,-276.7 376,-293.7 425,-293.7 425,-276.7 376,-276.7"/>
<text text-anchor="start" x="378" y="-281.8" font-family="Helvetica,sans-Serif" font-size="11.00" fill="#000000">&lt; 1</text>
<polygon fill="#ffffff" stroke="transparent" points="425,-276.7 425,-293.7 465,-293.7 465,-276.7 425,-276.7"/>
<text text-anchor="start" x="441.9431" y="-281.8" font-family="Helvetica,sans-Serif" font-size="11.00" fill="#000000"> &#160;</text>
<polygon fill="#ffffff" stroke="transparent" points="465,-276.7 465,-293.7 505,-293.7 505,-276.7 465,-276.7"/>
<text text-anchor="start" x="496.8862" y="-281.8" font-family="Helvetica,sans-Serif" font-size="11.00" fill="#000000"> &#160;</text>
<polygon fill="#000000" stroke="#000000" points="425,-276.7 425,-293.7 425,-293.7 425,-276.7 425,-276.7"/>
<polygon fill="#000000" stroke="#000000" points="465,-276.7 465,-293.7 465,-293.7 465,-276.7 465,-276.7"/>
</a>
</g>
</g>
<!-- summaries -->
<g id="node2" class="node">
<title>summaries</title>
<g id="a_node2"><a xlink:href="../../tables/summaries.html" xlink:title="summaries" target="_top">
<polygon fill="#ffffff" stroke="transparent" points="135,-104.2 135,-231.2 280,-231.2 280,-104.2 135,-104.2"/>
<polygon fill="#f5f5f5" stroke="transparent" points="135.5,-207.7 135.5,-230.7 280.5,-230.7 280.5,-207.7 135.5,-207.7"/>
<polygon fill="none" stroke="#000000" points="135.5,-207.7 135.5,-230.7 280.5,-230.7 280.5,-207.7 135.5,-207.7"/>
<text text-anchor="start" x="140.5" y="-216.3" font-family="Helvetica,sans-Serif" font-weight="bold" font-size="11.00" fill="#000000">summaries</text>
<text text-anchor="start" x="245.5437" y="-215.8" font-family="Helvetica,sans-Serif" font-size="11.00" fill="#000000">[table]</text>
<polygon fill="none" stroke="#000000" points="135.5,-185.7 135.5,-207.7 280.5,-207.7 280.5,-185.7 135.5,-185.7"/>
<image xlink:href="../../images/primaryKeys.png" width="11px" height="12px" preserveAspectRatio="xMinYMin meet" x="140.5" y="-202.7"/>
<text text-anchor="start" x="155.5" y="-192.8" font-family="Helvetica,sans-Serif" font-size="11.00" fill="#000000">id</text>
<polygon fill="#ffffff" stroke="transparent" points="135.5,-163.7 135.5,-185.7 280.5,-185.7 280.5,-163.7 135.5,-163.7"/>
<polygon fill="none" stroke="#000000" points="135.5,-163.7 135.5,-185.7 280.5,-185.7 280.5,-163.7 135.5,-163.7"/>
<text text-anchor="start" x="155.5" y="-170.8" font-family="Helvetica,sans-Serif" font-size="11.00" fill="#000000">content_hash</text>
<polygon fill="#ffffff" stroke="transparent" points="135.5,-141.7 135.5,-163.7 280.5,-163.7 280.5,-141.7 135.5,-141.7"/>
<polygon fill="none" stroke="#000000" points="135.5,-141.7 135.5,-163.7 280.5,-163.7 280.5,-141.7 135.5,-141.7"/>
<image xlink:href="../../images/foreignKeys.png" width="11px" height="12px" preserveAspectRatio="xMinYMin meet" x="140.5" y="-158.7"/>
<text text-anchor="start" x="155.5" y="-148.8" font-family="Helvetica,sans-Serif" font-size="11.00" fill="#000000">user_id</text>
<polygon fill="none" stroke="#000000" points="135.5,-122.7 135.5,-141.7 280.5,-141.7 280.5,-122.7 135.5,-122.7"/>
<text text-anchor="start" x="138.5" y="-128.8" font-family="Helvetica,sans-Serif" font-size="11.00" fill="#000000">...</text>
<polygon fill="#ffffff" stroke="transparent" points="135.5,-103.7 135.5,-122.7 280.5,-122.7 280.5,-103.7 135.5,-103.7"/>
<polygon fill="none" stroke="#000000" points="135.5,-103.7 135.5,-122.7 280.5,-122.7 280.5,-103.7 135.5,-103.7"/>
<polygon fill="#ffffff" stroke="transparent" points="136.5,-104.7 136.5,-121.7 187.5,-121.7 187.5,-104.7 136.5,-104.7"/>
<text text-anchor="start" x="138.5" y="-109.8" font-family="Helvetica,sans-Serif" font-size="11.00" fill="#000000">&lt; 1</text>
<polygon fill="#ffffff" stroke="transparent" points="187.5,-104.7 187.5,-121.7 229.5,-121.7 229.5,-104.7 187.5,-104.7"/>
<text text-anchor="start" x="205.4431" y="-109.8" font-family="Helvetica,sans-Serif" font-size="11.00" fill="#000000"> &#160;</text>
<polygon fill="#ffffff" stroke="transparent" points="229.5,-104.7 229.5,-121.7 279.5,-121.7 279.5,-104.7 229.5,-104.7"/>
<text text-anchor="start" x="261.9053" y="-109.8" font-family="Helvetica,sans-Serif" font-size="11.00" fill="#000000">3 &gt;</text>
<polygon fill="#000000" stroke="#000000" points="187.5,-104.7 187.5,-121.7 187.5,-121.7 187.5,-104.7 187.5,-104.7"/>
<polygon fill="#000000" stroke="#000000" points="229.5,-104.7 229.5,-121.7 229.5,-121.7 229.5,-104.7 229.5,-104.7"/>
</a>
</g>
</g>
<!-- action_items&#45;&gt;summaries -->
<g id="edge1" class="edge">
<title>action_items:w&#45;&gt;summaries:e</title>
<path fill="none" stroke="#000000" d="M360.3211,-301.9056C343.212,-297.0919 336.9961,-283.0722 321,-265.7 296.9134,-239.5413 316.059,-196.7 280.5,-196.7"/>
<polygon fill="#000000" stroke="#000000" points="367.0591,-302.7292 374.5632,-307.2734 371.0296,-303.2146 375,-303.7 375,-303.7 375,-303.7 371.0296,-303.2146 375.4368,-300.1266 367.0591,-302.7292 367.0591,-302.7292"/>
<ellipse fill="none" stroke="#000000" cx="363.8828" cy="-302.3409" rx="3.2" ry="3.2"/>
</g>
<!-- users -->
<g id="node4" class="node">
<title>users</title>
<g id="a_node4"><a xlink:href="../../tables/users.html" xlink:title="users" target="_top">
<polygon fill="#ffffff" stroke="transparent" points="8,-125.2 8,-186.2 86,-186.2 86,-125.2 8,-125.2"/>
<polygon fill="#f5f5f5" stroke="transparent" points="8,-162.7 8,-185.7 86,-185.7 86,-162.7 8,-162.7"/>
<polygon fill="none" stroke="#000000" points="8,-162.7 8,-185.7 86,-185.7 86,-162.7 8,-162.7"/>
<text text-anchor="start" x="13" y="-171.3" font-family="Helvetica,sans-Serif" font-weight="bold" font-size="11.00" fill="#000000">users</text>
<text text-anchor="start" x="51.5219" y="-170.8" font-family="Helvetica,sans-Serif" font-size="11.00" fill="#000000">[table]</text>
<polygon fill="none" stroke="#000000" points="8,-143.7 8,-162.7 86,-162.7 86,-143.7 8,-143.7"/>
<text text-anchor="start" x="11" y="-149.8" font-family="Helvetica,sans-Serif" font-size="11.00" fill="#000000">...</text>
<polygon fill="#ffffff" stroke="transparent" points="8,-124.7 8,-143.7 86,-143.7 86,-124.7 8,-124.7"/>
<polygon fill="none" stroke="#000000" points="8,-124.7 8,-143.7 86,-143.7 86,-124.7 8,-124.7"/>
<polygon fill="#ffffff" stroke="transparent" points="9,-125.7 9,-142.7 32,-142.7 32,-125.7 9,-125.7"/>
<text text-anchor="start" x="11" y="-130.8" font-family="Helvetica,sans-Serif" font-size="11.00" fill="#000000"> &#160;</text>
<polygon fill="#ffffff" stroke="transparent" points="32,-125.7 32,-142.7 54,-142.7 54,-125.7 32,-125.7"/>
<text text-anchor="start" x="39.9431" y="-130.8" font-family="Helvetica,sans-Serif" font-size="11.00" fill="#000000"> &#160;</text>
<polygon fill="#ffffff" stroke="transparent" points="54,-125.7 54,-142.7 85,-142.7 85,-125.7 54,-125.7"/>
<text text-anchor="start" x="67.4053" y="-130.8" font-family="Helvetica,sans-Serif" font-size="11.00" fill="#000000">2 &gt;</text>
<polygon fill="#000000" stroke="#000000" points="32,-125.7 32,-142.7 32,-142.7 32,-125.7 32,-125.7"/>
<polygon fill="#000000" stroke="#000000" points="54,-125.7 54,-142.7 54,-142.7 54,-125.7 54,-125.7"/>
</a>
</g>
</g>
<!-- summaries&#45;&gt;users -->
<g id="edge3" class="edge">
<title>summaries:w&#45;&gt;users:e</title>
<path fill="none" stroke="#000000" d="M120.8428,-152.7C109.4139,-152.7 102.1563,-152.7 86,-152.7"/>
<polygon fill="#000000" stroke="#000000" points="127.5,-152.7001 135.5,-156.3 131.5,-152.7 135.5,-152.7 135.5,-152.7 135.5,-152.7 131.5,-152.7 135.5,-149.1 127.5,-152.7001 127.5,-152.7001"/>
<ellipse fill="none" stroke="#000000" cx="124.3" cy="-152.7001" rx="3.2" ry="3.2"/>
</g>
<!-- decisions -->
<g id="node3" class="node">
<title>decisions</title>
<g id="a_node3"><a xlink:href="../../tables/decisions.html" xlink:title="decisions" target="_top">
<polygon fill="#ffffff" stroke="transparent" points="329,-120.7 329,-254.7 551,-254.7 551,-120.7 329,-120.7"/>
<polygon fill="#f5f5f5" stroke="transparent" points="331,-229.7 331,-252.7 549,-252.7 549,-229.7 331,-229.7"/>
<polygon fill="none" stroke="#000000" points="331,-229.7 331,-252.7 549,-252.7 549,-229.7 331,-229.7"/>
<text text-anchor="start" x="336" y="-238.3" font-family="Helvetica,sans-Serif" font-weight="bold" font-size="11.00" fill="#000000">decisions</text>
<text text-anchor="start" x="514.0437" y="-237.8" font-family="Helvetica,sans-Serif" font-size="11.00" fill="#000000">[table]</text>
<polygon fill="none" stroke="#000000" points="331,-207.7 331,-229.7 440,-229.7 440,-207.7 331,-207.7"/>
<image xlink:href="../../images/primaryKeys.png" width="11px" height="12px" preserveAspectRatio="xMinYMin meet" x="336" y="-224.7"/>
<text text-anchor="start" x="351" y="-214.8" font-family="Helvetica,sans-Serif" font-size="11.00" fill="#000000">id</text>
<polygon fill="none" stroke="#000000" points="440,-207.7 440,-229.7 549,-229.7 549,-207.7 440,-207.7"/>
<text text-anchor="start" x="443" y="-215.4" font-family="Helvetica,sans-Serif" font-size="11.00" fill="#000000">serial[10]</text>
<polygon fill="#ffffff" stroke="transparent" points="331,-185.7 331,-207.7 440,-207.7 440,-185.7 331,-185.7"/>
<polygon fill="none" stroke="#000000" points="331,-185.7 331,-207.7 440,-207.7 440,-185.7 331,-185.7"/>
<image xlink:href="../../images/foreignKeys.png" width="11px" height="12px" preserveAspectRatio="xMinYMin meet" x="336" y="-202.7"/>
<text text-anchor="start" x="351" y="-192.8" font-family="Helvetica,sans-Serif" font-size="11.00" fill="#000000">summary_id</text>
<polygon fill="none" stroke="#000000" points="440,-185.7 440,-207.7 549,-207.7 549,-185.7 440,-185.7"/>
<text text-anchor="start" x="443" y="-193.4" font-family="Helvetica,sans-Serif" font-size="11.00" fill="#000000">uuid[2147483647]</text>
<polygon fill="none" stroke="#000000" points="331,-163.7 331,-185.7 440,-185.7 440,-163.7 331,-163.7"/>
<text text-anchor="start" x="351" y="-170.8" font-family="Helvetica,sans-Serif" font-size="11.00" fill="#000000">description</text>
<polygon fill="none" stroke="#000000" points="440,-163.7 440,-185.7 549,-185.7 549,-163.7 440,-163.7"/>
<text text-anchor="start" x="442.5344" y="-171.4" font-family="Helvetica,sans-Serif" font-size="11.00" fill="#000000">varchar[2147483647]</text>
<polygon fill="none" stroke="#000000" points="331,-141.7 331,-163.7 440,-163.7 440,-141.7 331,-141.7"/>
<text text-anchor="start" x="351" y="-148.8" font-family="Helvetica,sans-Serif" font-size="11.00" fill="#000000">decided_by</text>
<polygon fill="none" stroke="#000000" points="440,-141.7 440,-163.7 549,-163.7 549,-141.7 440,-141.7"/>
<text text-anchor="start" x="442.5344" y="-149.4" font-family="Helvetica,sans-Serif" font-size="11.00" fill="#000000">varchar[2147483647]</text>
<polygon fill="#ffffff" stroke="transparent" points="331,-122.7 331,-141.7 549,-141.7 549,-122.7 331,-122.7"/>
<polygon fill="none" stroke="#000000" points="331,-122.7 331,-141.7 549,-141.7 549,-122.7 331,-122.7"/>
<polygon fill="#ffffff" stroke="transparent" points="332,-123.7 332,-140.7 407,-140.7 407,-123.7 332,-123.7"/>
<text text-anchor="start" x="334" y="-128.8" font-family="Helvetica,sans-Serif" font-size="11.00" fill="#000000">&lt; 1</text>
<polygon fill="#ffffff" stroke="transparent" points="407,-123.7 407,-140.7 473,-140.7 473,-123.7 407,-123.7"/>
<text text-anchor="start" x="436.9431" y="-128.8" font-family="Helvetica,sans-Serif" font-size="11.00" fill="#000000"> &#160;</text>
<polygon fill="#ffffff" stroke="transparent" points="473,-123.7 473,-140.7 548,-140.7 548,-123.7 473,-123.7"/>
<text text-anchor="start" x="530.4053" y="-128.8" font-family="Helvetica,sans-Serif" font-size="11.00" fill="#000000">0 &gt;</text>
<polygon fill="#000000" stroke="#000000" points="407,-123.7 407,-140.7 407,-140.7 407,-123.7 407,-123.7"/>
<polygon fill="#000000" stroke="#000000" points="473,-123.7 473,-140.7 473,-140.7 473,-123.7 473,-123.7"/>
<polygon fill="none" stroke="#000000" stroke-width="2" points="330,-121.7 330,-253.7 550,-253.7 550,-121.7 330,-121.7"/>
</a>
</g>
</g>
<!-- decisions&#45;&gt;summaries -->
<g id="edge2" class="edge">
<title>decisions:w&#45;&gt;summaries:e</title>
<path fill="none" stroke="#000000" d="M316.4203,-196.7C304.5435,-196.7 297.158,-196.7 280.5,-196.7"/>
<polygon fill="#000000" stroke="#000000" points="323,-196.7001 331,-200.3 327,-196.7 331,-196.7 331,-196.7 331,-196.7 327,-196.7 331,-193.1 323,-196.7001 323,-196.7001"/>
<ellipse fill="none" stroke="#000000" cx="319.8" cy="-196.7001" rx="3.2" ry="3.2"/>
</g>
<!-- topics -->
<g id="node5" class="node">
<title>topics</title>
<g id="a_node5"><a xlink:href="../../tables/topics.html" xlink:title="topics" target="_top">
<polygon fill="#ffffff" stroke="transparent" points="398.5,-38.2 398.5,-99.2 481.5,-99.2 481.5,-38.2 398.5,-38.2"/>
<polygon fill="#f5f5f5" stroke="transparent" points="399,-75.7 399,-98.7 482,-98.7 482,-75.7 399,-75.7"/>
<polygon fill="none" stroke="#000000" points="399,-75.7 399,-98.7 482,-98.7 482,-75.7 399,-75.7"/>
<text text-anchor="start" x="404" y="-84.3" font-family="Helvetica,sans-Serif" font-weight="bold" font-size="11.00" fill="#000000">topics</text>
<text text-anchor="start" x="447.5219" y="-83.8" font-family="Helvetica,sans-Serif" font-size="11.00" fill="#000000">[table]</text>
<polygon fill="none" stroke="#000000" points="399,-56.7 399,-75.7 482,-75.7 482,-56.7 399,-56.7"/>
<text text-anchor="start" x="402" y="-62.8" font-family="Helvetica,sans-Serif" font-size="11.00" fill="#000000">...</text>
<polygon fill="#ffffff" stroke="transparent" points="399,-37.7 399,-56.7 482,-56.7 482,-37.7 399,-37.7"/>
<polygon fill="none" stroke="#000000" points="399,-37.7 399,-56.7 482,-56.7 482,-37.7 399,-37.7"/>
<polygon fill="#ffffff" stroke="transparent" points="400,-38.7 400,-55.7 433,-55.7 433,-38.7 400,-38.7"/>
<text text-anchor="start" x="402" y="-43.8" font-family="Helvetica,sans-Serif" font-size="11.00" fill="#000000">&lt; 1</text>
<polygon fill="#ffffff" stroke="transparent" points="433,-38.7 433,-55.7 457,-55.7 457,-38.7 433,-38.7"/>
<text text-anchor="start" x="441.9431" y="-43.8" font-family="Helvetica,sans-Serif" font-size="11.00" fill="#000000"> &#160;</text>
<polygon fill="#ffffff" stroke="transparent" points="457,-38.7 457,-55.7 481,-55.7 481,-38.7 457,-38.7"/>
<text text-anchor="start" x="472.8862" y="-43.8" font-family="Helvetica,sans-Serif" font-size="11.00" fill="#000000"> &#160;</text>
<polygon fill="#000000" stroke="#000000" points="433,-38.7 433,-55.7 433,-55.7 433,-38.7 433,-38.7"/>
<polygon fill="#000000" stroke="#000000" points="457,-38.7 457,-55.7 457,-55.7 457,-38.7 457,-38.7"/>
</a>
</g>
</g>
<!-- topics&#45;&gt;summaries -->
<g id="edge4" class="edge">
<title>topics:w&#45;&gt;summaries:e</title>
<path fill="none" stroke="#000000" d="M384.4896,-66.5189C355.802,-70.0752 344.5001,-85.1597 321,-110.7 292.3933,-141.7902 322.7485,-196.7 280.5,-196.7"/>
<polygon fill="#000000" stroke="#000000" points="391.0127,-66.1508 399.2029,-69.2943 395.0064,-65.9254 399,-65.7 399,-65.7 399,-65.7 395.0064,-65.9254 398.7971,-62.1057 391.0127,-66.1508 391.0127,-66.1508"/>
<ellipse fill="none" stroke="#000000" cx="387.8178" cy="-66.3312" rx="3.2" ry="3.2"/>
</g>
</g>
</svg>
