<?xml version="1.0" encoding="UTF-8" standalone="no"?>
<!DOCTYPE svg PUBLIC "-//W3C//DTD SVG 1.1//EN"
 "http://www.w3.org/Graphics/SVG/1.1/DTD/svg11.dtd">
<!-- Generated by graphviz version 2.40.1 (20161225.0304)
 -->
<!-- Title: twoDegreesRelationshipsDiagram Pages: 1 -->
<svg width="614pt" height="479pt"
 viewBox="0.00 0.00 614.00 479.20" xmlns="http://www.w3.org/2000/svg" xmlns:xlink="http://www.w3.org/1999/xlink">
<g id="graph0" class="graph" transform="scale(1 1) rotate(0) translate(4 475.2)">
<title>twoDegreesRelationshipsDiagram</title>
<polygon fill="#ffffff" stroke="transparent" points="-4,4 -4,-475.2 610,-475.2 610,4 -4,4"/>
<text text-anchor="middle" x="72.4936" y="-7.3" font-family="Helvetica,sans-Serif" font-size="11.00" fill="#000000">Generated by SchemaSpy</text>
<!-- action_items -->
<g id="node1" class="node">
<title>action_items</title>
<g id="a_node1"><a xlink:href="../../tables/action_items.html" xlink:title="action_items" target="_top">
<polygon fill="#ffffff" stroke="transparent" points="467,-362.2 467,-467.2 598,-467.2 598,-362.2 467,-362.2"/>
<polygon fill="#f5f5f5" stroke="transparent" points="467.5,-443.7 467.5,-466.7 598.5,-466.7 598.5,-443.7 467.5,-443.7"/>
<polygon fill="none" stroke="#000000" points="467.5,-443.7 467.5,-466.7 598.5,-466.7 598.5,-443.7 467.5,-443.7"/>
<text text-anchor="start" x="472.5" y="-452.3" font-family="Helvetica,sans-Serif" font-weight="bold" font-size="11.00" fill="#000000">action_items</text>
<text text-anchor="start" x="564.0219" y="-451.8" font-family="Helvetica,sans-Serif" font-size="11.00" fill="#000000">[table]</text>
<polygon fill="none" stroke="#000000" points="467.5,-421.7 467.5,-443.7 598.5,-443.7 598.5,-421.7 467.5,-421.7"/>
<image xlink:href="../../images/primaryKeys.png" width="11px" height="12px" preserveAspectRatio="xMinYMin meet" x="472.5" y="-438.7"/>
<text text-anchor="start" x="496.5" y="-428.8" font-family="Helvetica,sans-Serif" font-size="11.00" fill="#000000">id</text>
<polygon fill="#ffffff" stroke="transparent" points="467.5,-399.7 467.5,-421.7 598.5,-421.7 598.5,-399.7 467.5,-399.7"/>
<polygon fill="none" stroke="#000000" points="467.5,-399.7 467.5,-421.7 598.5,-421.7 598.5,-399.7 467.5,-399.7"/>
<image xlink:href="../../images/foreignKeys.png" width="11px" height="12px" preserveAspectRatio="xMinYMin meet" x="472.5" y="-416.7"/>
<text text-anchor="start" x="496.5" y="-406.8" font-family="Helvetica,sans-Serif" font-size="11.00" fill="#000000">summary_id</text>
<polygon fill="none" stroke="#000000" points="467.5,-380.7 467.5,-399.7 598.5,-399.7 598.5,-380.7 467.5,-380.7"/>
<text text-anchor="start" x="470.5" y="-386.8" font-family="Helvetica,sans-Serif" font-size="11.00" fill="#000000">...</text>
<polygon fill="#ffffff" stroke="transparent" points="467.5,-361.7 467.5,-380.7 598.5,-380.7 598.5,-361.7 467.5,-361.7"/>
<polygon fill="none" stroke="#000000" points="467.5,-361.7 467.5,-380.7 598.5,-380.7 598.5,-361.7 467.5,-361.7"/>
<polygon fill="#ffffff" stroke="transparent" points="468.5,-362.7 468.5,-379.7 517.5,-379.7 517.5,-362.7 468.5,-362.7"/>
<text text-anchor="start" x="470.5" y="-367.8" font-family="Helvetica,sans-Serif" font-size="11.00" fill="#000000">&lt; 1</text>
<polygon fill="#ffffff" stroke="transparent" points="517.5,-362.7 517.5,-379.7 557.5,-379.7 557.5,-362.7 517.5,-362.7"/>
<text text-anchor="start" x="534.4431" y="-367.8" font-family="Helvetica,sans-Serif" font-size="11.00" fill="#000000"> &#160;</text>
<polygon fill="#ffffff" stroke="transparent" points="557.5,-362.7 557.5,-379.7 597.5,-379.7 597.5,-362.7 557.5,-362.7"/>
<text text-anchor="start" x="589.3862" y="-367.8" font-family="Helvetica,sans-Serif" font-size="11.00" fill="#000000"> &#160;</text>
<polygon fill="#000000" stroke="#000000" points="517.5,-362.7 517.5,-379.7 517.5,-379.7 517.5,-362.7 517.5,-362.7"/>
<polygon fill="#000000" stroke="#000000" points="557.5,-362.7 557.5,-379.7 557.5,-379.7 557.5,-362.7 557.5,-362.7"/>
</a>
</g>
</g>
<!-- summaries -->
<g id="node2" class="node">
<title>summaries</title>
<g id="a_node2"><a xlink:href="../../tables/summaries.html" xlink:title="summaries" target="_top">
<polygon fill="#ffffff" stroke="transparent" points="160,-142.7 160,-320.7 418,-320.7 418,-142.7 160,-142.7"/>
<polygon fill="#f5f5f5" stroke="transparent" points="162,-295.7 162,-318.7 416,-318.7 416,-295.7 162,-295.7"/>
<polygon fill="none" stroke="#000000" points="162,-295.7 162,-318.7 416,-318.7 416,-295.7 162,-295.7"/>
<text text-anchor="start" x="167" y="-304.3" font-family="Helvetica,sans-Serif" font-weight="bold" font-size="11.00" fill="#000000">summaries</text>
<text text-anchor="start" x="381.0437" y="-303.8" font-family="Helvetica,sans-Serif" font-size="11.00" fill="#000000">[table]</text>
<polygon fill="none" stroke="#000000" points="162,-273.7 162,-295.7 307,-295.7 307,-273.7 162,-273.7"/>
<image xlink:href="../../images/primaryKeys.png" width="11px" height="12px" preserveAspectRatio="xMinYMin meet" x="167" y="-290.7"/>
<text text-anchor="start" x="182" y="-280.8" font-family="Helvetica,sans-Serif" font-size="11.00" fill="#000000">id</text>
<polygon fill="none" stroke="#000000" points="307,-273.7 307,-295.7 416,-295.7 416,-273.7 307,-273.7"/>
<text text-anchor="start" x="310" y="-281.4" font-family="Helvetica,sans-Serif" font-size="11.00" fill="#000000">uuid[2147483647]</text>
<polygon fill="none" stroke="#000000" points="162,-251.7 162,-273.7 307,-273.7 307,-251.7 162,-251.7"/>
<text text-anchor="start" x="182" y="-258.8" font-family="Helvetica,sans-Serif" font-size="11.00" fill="#000000">filename</text>
<polygon fill="none" stroke="#000000" points="307,-251.7 307,-273.7 416,-273.7 416,-251.7 307,-251.7"/>
<text text-anchor="start" x="310" y="-259.4" font-family="Helvetica,sans-Serif" font-size="11.00" fill="#000000">varchar[255]</text>
<polygon fill="none" stroke="#000000" points="162,-229.7 162,-251.7 307,-251.7 307,-229.7 162,-229.7"/>
<text text-anchor="start" x="182" y="-236.8" font-family="Helvetica,sans-Serif" font-size="11.00" fill="#000000">created_at</text>
<polygon fill="none" stroke="#000000" points="307,-229.7 307,-251.7 416,-251.7 416,-229.7 307,-229.7"/>
<text text-anchor="start" x="310" y="-237.4" font-family="Helvetica,sans-Serif" font-size="11.00" fill="#000000">timestamptz[35,6]</text>
<polygon fill="none" stroke="#000000" points="162,-207.7 162,-229.7 307,-229.7 307,-207.7 162,-207.7"/>
<text text-anchor="start" x="182" y="-214.8" font-family="Helvetica,sans-Serif" font-size="11.00" fill="#000000">overall_summary</text>
<polygon fill="none" stroke="#000000" points="307,-207.7 307,-229.7 416,-229.7 416,-207.7 307,-207.7"/>
<text text-anchor="start" x="309.5344" y="-215.4" font-family="Helvetica,sans-Serif" font-size="11.00" fill="#000000">varchar[2147483647]</text>
<polygon fill="#ffffff" stroke="transparent" points="162,-185.7 162,-207.7 307,-207.7 307,-185.7 162,-185.7"/>
<polygon fill="none" stroke="#000000" points="162,-185.7 162,-207.7 307,-207.7 307,-185.7 162,-185.7"/>
<text text-anchor="start" x="182" y="-192.8" font-family="Helvetica,sans-Serif" font-size="11.00" fill="#000000">content_hash</text>
<polygon fill="none" stroke="#000000" points="307,-185.7 307,-207.7 416,-207.7 416,-185.7 307,-185.7"/>
<text text-anchor="start" x="310" y="-193.4" font-family="Helvetica,sans-Serif" font-size="11.00" fill="#000000">varchar[64]</text>
<polygon fill="#ffffff" stroke="transparent" points="162,-163.7 162,-185.7 307,-185.7 307,-163.7 162,-163.7"/>
<polygon fill="none" stroke="#000000" points="162,-163.7 162,-185.7 307,-185.7 307,-163.7 162,-163.7"/>
<image xlink:href="../../images/foreignKeys.png" width="11px" height="12px" preserveAspectRatio="xMinYMin meet" x="167" y="-180.7"/>
<text text-anchor="start" x="182" y="-170.8" font-family="Helvetica,sans-Serif" font-size="11.00" fill="#000000">user_id</text>
<polygon fill="none" stroke="#000000" points="307,-163.7 307,-185.7 416,-185.7 416,-163.7 307,-163.7"/>
<text text-anchor="start" x="310" y="-171.4" font-family="Helvetica,sans-Serif" font-size="11.00" fill="#000000">uuid[2147483647]</text>
<polygon fill="#ffffff" stroke="transparent" points="162,-144.7 162,-163.7 416,-163.7 416,-144.7 162,-144.7"/>
<polygon fill="none" stroke="#000000" points="162,-144.7 162,-163.7 416,-163.7 416,-144.7 162,-144.7"/>
<polygon fill="#ffffff" stroke="transparent" points="163,-145.7 163,-162.7 250,-162.7 250,-145.7 163,-145.7"/>
<text text-anchor="start" x="165" y="-150.8" font-family="Helvetica,sans-Serif" font-size="11.00" fill="#000000">&lt; 1</text>
<polygon fill="#ffffff" stroke="transparent" points="250,-145.7 250,-162.7 328,-162.7 328,-145.7 250,-145.7"/>
<text text-anchor="start" x="285.9431" y="-150.8" font-family="Helvetica,sans-Serif" font-size="11.00" fill="#000000"> &#160;</text>
<polygon fill="#ffffff" stroke="transparent" points="328,-145.7 328,-162.7 415,-162.7 415,-145.7 328,-145.7"/>
<text text-anchor="start" x="397.4053" y="-150.8" font-family="Helvetica,sans-Serif" font-size="11.00" fill="#000000">3 &gt;</text>
<polygon fill="#000000" stroke="#000000" points="250,-145.7 250,-162.7 250,-162.7 250,-145.7 250,-145.7"/>
<polygon fill="#000000" stroke="#000000" points="328,-145.7 328,-162.7 328,-162.7 328,-145.7 328,-145.7"/>
<polygon fill="none" stroke="#000000" stroke-width="2" points="161,-143.7 161,-319.7 417,-319.7 417,-143.7 161,-143.7"/>
</a>
</g>
</g>
<!-- action_items&#45;&gt;summaries -->
<g id="edge1" class="edge">
<title>action_items:w&#45;&gt;summaries:e</title>
<path fill="none" stroke="#000000" d="M453.2532,-407.3298C419.3363,-387.2923 470.5892,-284.7 416,-284.7"/>
<polygon fill="#000000" stroke="#000000" points="459.7149,-408.8583 466.6712,-414.2033 463.6074,-409.7792 467.5,-410.7 467.5,-410.7 467.5,-410.7 463.6074,-409.7792 468.3288,-407.1967 459.7149,-408.8583 459.7149,-408.8583"/>
<ellipse fill="none" stroke="#000000" cx="456.6008" cy="-408.1217" rx="3.2" ry="3.2"/>
</g>
<!-- users -->
<g id="node4" class="node">
<title>users</title>
<g id="a_node4"><a xlink:href="../../tables/users.html" xlink:title="users" target="_top">
<polygon fill="#ffffff" stroke="transparent" points="8,-38.2 8,-165.2 111,-165.2 111,-38.2 8,-38.2"/>
<polygon fill="#f5f5f5" stroke="transparent" points="8.5,-141.7 8.5,-164.7 111.5,-164.7 111.5,-141.7 8.5,-141.7"/>
<polygon fill="none" stroke="#000000" points="8.5,-141.7 8.5,-164.7 111.5,-164.7 111.5,-141.7 8.5,-141.7"/>
<text text-anchor="start" x="13.5" y="-150.3" font-family="Helvetica,sans-Serif" font-weight="bold" font-size="11.00" fill="#000000">users</text>
<text text-anchor="start" x="76.5437" y="-149.8" font-family="Helvetica,sans-Serif" font-size="11.00" fill="#000000">[table]</text>
<polygon fill="none" stroke="#000000" points="8.5,-119.7 8.5,-141.7 111.5,-141.7 111.5,-119.7 8.5,-119.7"/>
<image xlink:href="../../images/primaryKeys.png" width="11px" height="12px" preserveAspectRatio="xMinYMin meet" x="13.5" y="-136.7"/>
<text text-anchor="start" x="28.5" y="-126.8" font-family="Helvetica,sans-Serif" font-size="11.00" fill="#000000">id</text>
<polygon fill="#ffffff" stroke="transparent" points="8.5,-97.7 8.5,-119.7 111.5,-119.7 111.5,-97.7 8.5,-97.7"/>
<polygon fill="none" stroke="#000000" points="8.5,-97.7 8.5,-119.7 111.5,-119.7 111.5,-97.7 8.5,-97.7"/>
<text text-anchor="start" x="28.5" y="-104.8" font-family="Helvetica,sans-Serif" font-size="11.00" fill="#000000">google_sub</text>
<polygon fill="#ffffff" stroke="transparent" points="8.5,-75.7 8.5,-97.7 111.5,-97.7 111.5,-75.7 8.5,-75.7"/>
<polygon fill="none" stroke="#000000" points="8.5,-75.7 8.5,-97.7 111.5,-97.7 111.5,-75.7 8.5,-75.7"/>
<text text-anchor="start" x="28.5" y="-82.8" font-family="Helvetica,sans-Serif" font-size="11.00" fill="#000000">email</text>
<polygon fill="none" stroke="#000000" points="8.5,-56.7 8.5,-75.7 111.5,-75.7 111.5,-56.7 8.5,-56.7"/>
<text text-anchor="start" x="11.5" y="-62.8" font-family="Helvetica,sans-Serif" font-size="11.00" fill="#000000">...</text>
<polygon fill="#ffffff" stroke="transparent" points="8.5,-37.7 8.5,-56.7 111.5,-56.7 111.5,-37.7 8.5,-37.7"/>
<polygon fill="none" stroke="#000000" points="8.5,-37.7 8.5,-56.7 111.5,-56.7 111.5,-37.7 8.5,-37.7"/>
<polygon fill="#ffffff" stroke="transparent" points="9.5,-38.7 9.5,-55.7 40.5,-55.7 40.5,-38.7 9.5,-38.7"/>
<text text-anchor="start" x="11.5" y="-43.8" font-family="Helvetica,sans-Serif" font-size="11.00" fill="#000000"> &#160;</text>
<polygon fill="#ffffff" stroke="transparent" points="40.5,-38.7 40.5,-55.7 71.5,-55.7 71.5,-38.7 40.5,-38.7"/>
<text text-anchor="start" x="52.9431" y="-43.8" font-family="Helvetica,sans-Serif" font-size="11.00" fill="#000000"> &#160;</text>
<polygon fill="#ffffff" stroke="transparent" points="71.5,-38.7 71.5,-55.7 110.5,-55.7 110.5,-38.7 71.5,-38.7"/>
<text text-anchor="start" x="92.9053" y="-43.8" font-family="Helvetica,sans-Serif" font-size="11.00" fill="#000000">2 &gt;</text>
<polygon fill="#000000" stroke="#000000" points="40.5,-38.7 40.5,-55.7 40.5,-55.7 40.5,-38.7 40.5,-38.7"/>
<polygon fill="#000000" stroke="#000000" points="71.5,-38.7 71.5,-55.7 71.5,-55.7 71.5,-38.7 71.5,-38.7"/>
</a>
</g>
</g>
<!-- summaries&#45;&gt;users -->
<g id="edge3" class="edge">
<title>summaries:w&#45;&gt;users:e</title>
<path fill="none" stroke="#000000" d="M148.0126,-169.9912C134.3016,-158.6404 135.2219,-130.7 111.5,-130.7"/>
<polygon fill="#000000" stroke="#000000" points="154.4181,-172.1476 160.8514,-178.1119 158.209,-173.4238 162,-174.7 162,-174.7 162,-174.7 158.209,-173.4238 163.1486,-171.2881 154.4181,-172.1476 154.4181,-172.1476"/>
<ellipse fill="none" stroke="#000000" cx="151.3853" cy="-171.1266" rx="3.2" ry="3.2"/>
</g>
<!-- decisions -->
<g id="node3" class="node">
<title>decisions</title>
<g id="a_node3"><a xlink:href="../../tables/decisions.html" xlink:title="decisions" target="_top">
<polygon fill="#ffffff" stroke="transparent" points="478,-236.2 478,-341.2 587,-341.2 587,-236.2 478,-236.2"/>
<polygon fill="#f5f5f5" stroke="transparent" points="478.5,-317.7 478.5,-340.7 587.5,-340.7 587.5,-317.7 478.5,-317.7"/>
<polygon fill="none" stroke="#000000" points="478.5,-317.7 478.5,-340.7 587.5,-340.7 587.5,-317.7 478.5,-317.7"/>
<text text-anchor="start" x="483.5" y="-326.3" font-family="Helvetica,sans-Serif" font-weight="bold" font-size="11.00" fill="#000000">decisions</text>
<text text-anchor="start" x="552.5437" y="-325.8" font-family="Helvetica,sans-Serif" font-size="11.00" fill="#000000">[table]</text>
<polygon fill="none" stroke="#000000" points="478.5,-295.7 478.5,-317.7 587.5,-317.7 587.5,-295.7 478.5,-295.7"/>
<image xlink:href="../../images/primaryKeys.png" width="11px" height="12px" preserveAspectRatio="xMinYMin meet" x="483.5" y="-312.7"/>
<text text-anchor="start" x="498.5" y="-302.8" font-family="Helvetica,sans-Serif" font-size="11.00" fill="#000000">id</text>
<polygon fill="#ffffff" stroke="transparent" points="478.5,-273.7 478.5,-295.7 587.5,-295.7 587.5,-273.7 478.5,-273.7"/>
<polygon fill="none" stroke="#000000" points="478.5,-273.7 478.5,-295.7 587.5,-295.7 587.5,-273.7 478.5,-273.7"/>
<image xlink:href="../../images/foreignKeys.png" width="11px" height="12px" preserveAspectRatio="xMinYMin meet" x="483.5" y="-290.7"/>
<text text-anchor="start" x="498.5" y="-280.8" font-family="Helvetica,sans-Serif" font-size="11.00" fill="#000000">summary_id</text>
<polygon fill="none" stroke="#000000" points="478.5,-254.7 478.5,-273.7 587.5,-273.7 587.5,-254.7 478.5,-254.7"/>
<text text-anchor="start" x="481.5" y="-260.8" font-family="Helvetica,sans-Serif" font-size="11.00" fill="#000000">...</text>
<polygon fill="#ffffff" stroke="transparent" points="478.5,-235.7 478.5,-254.7 587.5,-254.7 587.5,-235.7 478.5,-235.7"/>
<polygon fill="none" stroke="#000000" points="478.5,-235.7 478.5,-254.7 587.5,-254.7 587.5,-235.7 478.5,-235.7"/>
<polygon fill="#ffffff" stroke="transparent" points="479.5,-236.7 479.5,-253.7 521.5,-253.7 521.5,-236.7 479.5,-236.7"/>
<text text-anchor="start" x="481.5" y="-241.8" font-family="Helvetica,sans-Serif" font-size="11.00" fill="#000000">&lt; 1</text>
<polygon fill="#ffffff" stroke="transparent" points="521.5,-236.7 521.5,-253.7 554.5,-253.7 554.5,-236.7 521.5,-236.7"/>
<text text-anchor="start" x="534.9431" y="-241.8" font-family="Helvetica,sans-Serif" font-size="11.00" fill="#000000"> &#160;</text>
<polygon fill="#ffffff" stroke="transparent" points="554.5,-236.7 554.5,-253.7 586.5,-253.7 586.5,-236.7 554.5,-236.7"/>
<text text-anchor="start" x="578.3862" y="-241.8" font-family="Helvetica,sans-Serif" font-size="11.00" fill="#000000"> &#160;</text>
<polygon fill="#000000" stroke="#000000" points="521.5,-236.7 521.5,-253.7 521.5,-253.7 521.5,-236.7 521.5,-236.7"/>
<polygon fill="#000000" stroke="#000000" points="554.5,-236.7 554.5,-253.7 554.5,-253.7 554.5,-236.7 554.5,-236.7"/>
</a>
</g>
</g>
<!-- decisions&#45;&gt;summaries -->
<g id="edge2" class="edge">
<title>decisions:w&#45;&gt;summaries:e</title>
<path fill="none" stroke="#000000" d="M463.8024,-284.7C447.0415,-284.7 438.1354,-284.7 416,-284.7"/>
<polygon fill="#000000" stroke="#000000" points="470.5,-284.7001 478.5,-288.3 474.5,-284.7 478.5,-284.7 478.5,-284.7 478.5,-284.7 474.5,-284.7 478.5,-281.1 470.5,-284.7001 470.5,-284.7001"/>
<ellipse fill="none" stroke="#000000" cx="467.3" cy="-284.7001" rx="3.2" ry="3.2"/>
</g>
<!-- topics -->
<g id="node5" class="node">
<title>topics</title>
<g id="a_node5"><a xlink:href="../../tables/topics.html" xlink:title="topics" target="_top">
<polygon fill="#ffffff" stroke="transparent" points="478,-110.2 478,-215.2 587,-215.2 587,-110.2 478,-110.2"/>
<polygon fill="#f5f5f5" stroke="transparent" points="478.5,-191.7 478.5,-214.7 587.5,-214.7 587.5,-191.7 478.5,-191.7"/>
<polygon fill="none" stroke="#000000" points="478.5,-191.7 478.5,-214.7 587.5,-214.7 587.5,-191.7 478.5,-191.7"/>
<text text-anchor="start" x="483.5" y="-200.3" font-family="Helvetica,sans-Serif" font-weight="bold" font-size="11.00" fill="#000000">topics</text>
<text text-anchor="start" x="552.5437" y="-199.8" font-family="Helvetica,sans-Serif" font-size="11.00" fill="#000000">[table]</text>
<polygon fill="none" stroke="#000000" points="478.5,-169.7 478.5,-191.7 587.5,-191.7 587.5,-169.7 478.5,-169.7"/>
<image xlink:href="../../images/primaryKeys.png" width="11px" height="12px" preserveAspectRatio="xMinYMin meet" x="483.5" y="-186.7"/>
<text text-anchor="start" x="498.5" y="-176.8" font-family="Helvetica,sans-Serif" font-size="11.00" fill="#000000">id</text>
<polygon fill="#ffffff" stroke="transparent" points="478.5,-147.7 478.5,-169.7 587.5,-169.7 587.5,-147.7 478.5,-147.7"/>
<polygon fill="none" stroke="#000000" points="478.5,-147.7 478.5,-169.7 587.5,-169.7 587.5,-147.7 478.5,-147.7"/>
<image xlink:href="../../images/foreignKeys.png" width="11px" height="12px" preserveAspectRatio="xMinYMin meet" x="483.5" y="-164.7"/>
<text text-anchor="start" x="498.5" y="-154.8" font-family="Helvetica,sans-Serif" font-size="11.00" fill="#000000">summary_id</text>
<polygon fill="none" stroke="#000000" points="478.5,-128.7 478.5,-147.7 587.5,-147.7 587.5,-128.7 478.5,-128.7"/>
<text text-anchor="start" x="481.5" y="-134.8" font-family="Helvetica,sans-Serif" font-size="11.00" fill="#000000">...</text>
<polygon fill="#ffffff" stroke="transparent" points="478.5,-109.7 478.5,-128.7 587.5,-128.7 587.5,-109.7 478.5,-109.7"/>
<polygon fill="none" stroke="#000000" points="478.5,-109.7 478.5,-128.7 587.5,-128.7 587.5,-109.7 478.5,-109.7"/>
<polygon fill="#ffffff" stroke="transparent" points="479.5,-110.7 479.5,-127.7 521.5,-127.7 521.5,-110.7 479.5,-110.7"/>
<text text-anchor="start" x="481.5" y="-115.8" font-family="Helvetica,sans-Serif" font-size="11.00" fill="#000000">&lt; 1</text>
<polygon fill="#ffffff" stroke="transparent" points="521.5,-110.7 521.5,-127.7 554.5,-127.7 554.5,-110.7 521.5,-110.7"/>
<text text-anchor="start" x="534.9431" y="-115.8" font-family="Helvetica,sans-Serif" font-size="11.00" fill="#000000"> &#160;</text>
<polygon fill="#ffffff" stroke="transparent" points="554.5,-110.7 554.5,-127.7 586.5,-127.7 586.5,-110.7 554.5,-110.7"/>
<text text-anchor="start" x="578.3862" y="-115.8" font-family="Helvetica,sans-Serif" font-size="11.00" fill="#000000"> &#160;</text>
<polygon fill="#000000" stroke="#000000" points="521.5,-110.7 521.5,-127.7 521.5,-127.7 521.5,-110.7 521.5,-110.7"/>
<polygon fill="#000000" stroke="#000000" points="554.5,-110.7 554.5,-127.7 554.5,-127.7 554.5,-110.7 554.5,-110.7"/>
</a>
</g>
</g>
<!-- topics&#45;&gt;summaries -->
<g id="edge4" class="edge">
<title>topics:w&#45;&gt;summaries:e</title>
<path fill="none" stroke="#000000" d="M464.0095,-161.8146C426.6131,-181.2176 472.6504,-284.7 416,-284.7"/>
<polygon fill="#000000" stroke="#000000" points="470.6786,-160.3812 479.2565,-162.2196 474.5893,-159.5406 478.5,-158.7 478.5,-158.7 478.5,-158.7 474.5893,-159.5406 477.7435,-155.1804 470.6786,-160.3812 470.6786,-160.3812"/>
<ellipse fill="none" stroke="#000000" cx="467.5501" cy="-161.0537" rx="3.2" ry="3.2"/>
</g>
<!-- user_sessions -->
<g id="node6" class="node">
<title>user_sessions</title>
<g id="a_node6"><a xlink:href="../../tables/user_sessions.html" xlink:title="user_sessions" target="_top">
<polygon fill="#ffffff" stroke="transparent" points="219,-60.2 219,-121.2 359,-121.2 359,-60.2 219,-60.2"/>
<polygon fill="#f5f5f5" stroke="transparent" points="219,-97.7 219,-120.7 359,-120.7 359,-97.7 219,-97.7"/>
<polygon fill="none" stroke="#000000" points="219,-97.7 219,-120.7 359,-120.7 359,-97.7 219,-97.7"/>
<text text-anchor="start" x="224" y="-106.3" font-family="Helvetica,sans-Serif" font-weight="bold" font-size="11.00" fill="#000000">user_sessions</text>
<text text-anchor="start" x="324.5219" y="-105.8" font-family="Helvetica,sans-Serif" font-size="11.00" fill="#000000">[table]</text>
<polygon fill="none" stroke="#000000" points="219,-78.7 219,-97.7 359,-97.7 359,-78.7 219,-78.7"/>
<text text-anchor="start" x="222" y="-84.8" font-family="Helvetica,sans-Serif" font-size="11.00" fill="#000000">...</text>
<polygon fill="#ffffff" stroke="transparent" points="219,-59.7 219,-78.7 359,-78.7 359,-59.7 219,-59.7"/>
<polygon fill="none" stroke="#000000" points="219,-59.7 219,-78.7 359,-78.7 359,-59.7 219,-59.7"/>
<polygon fill="#ffffff" stroke="transparent" points="220,-60.7 220,-77.7 272,-77.7 272,-60.7 220,-60.7"/>
<text text-anchor="start" x="222" y="-65.8" font-family="Helvetica,sans-Serif" font-size="11.00" fill="#000000">&lt; 1</text>
<polygon fill="#ffffff" stroke="transparent" points="272,-60.7 272,-77.7 315,-77.7 315,-60.7 272,-60.7"/>
<text text-anchor="start" x="290.4431" y="-65.8" font-family="Helvetica,sans-Serif" font-size="11.00" fill="#000000"> &#160;</text>
<polygon fill="#ffffff" stroke="transparent" points="315,-60.7 315,-77.7 358,-77.7 358,-60.7 315,-60.7"/>
<text text-anchor="start" x="349.8862" y="-65.8" font-family="Helvetica,sans-Serif" font-size="11.00" fill="#000000"> &#160;</text>
<polygon fill="#000000" stroke="#000000" points="272,-60.7 272,-77.7 272,-77.7 272,-60.7 272,-60.7"/>
<polygon fill="#000000" stroke="#000000" points="315,-60.7 315,-77.7 315,-77.7 315,-60.7 315,-60.7"/>
</a>
</g>
</g>
<!-- user_sessions&#45;&gt;users -->
<g id="edge5" class="edge">
<title>user_sessions:w&#45;&gt;users:e</title>
<path fill="none" stroke="#000000" d="M204.4227,-88.9869C166.0905,-96.1416 157.6315,-130.7 111.5,-130.7"/>
<polygon fill="#000000" stroke="#000000" points="211.031,-88.4036 219.3166,-91.2861 215.0155,-88.0518 219,-87.7 219,-87.7 219,-87.7 215.0155,-88.0518 218.6834,-84.1139 211.031,-88.4036 211.031,-88.4036"/>
<ellipse fill="none" stroke="#000000" cx="207.8434" cy="-88.685" rx="3.2" ry="3.2"/>
</g>
</g>
</svg>
