<?xml version="1.0" encoding="UTF-8" standalone="no"?>
<!DOCTYPE svg PUBLIC "-//W3C//DTD SVG 1.1//EN"
 "http://www.w3.org/Graphics/SVG/1.1/DTD/svg11.dtd">
<!-- Generated by graphviz version 2.40.1 (20161225.0304)
 -->
<!-- Title: oneDegreeRelationshipsDiagram Pages: 1 -->
<svg width="614pt" height="435pt"
 viewBox="0.00 0.00 614.00 435.20" xmlns="http://www.w3.org/2000/svg" xmlns:xlink="http://www.w3.org/1999/xlink">
<g id="graph0" class="graph" transform="scale(1 1) rotate(0) translate(4 431.2)">
<title>oneDegreeRelationshipsDiagram</title>
<polygon fill="#ffffff" stroke="transparent" points="-4,4 -4,-431.2 610,-431.2 610,4 -4,4"/>
<text text-anchor="middle" x="72.4936" y="-7.3" font-family="Helvetica,sans-Serif" font-size="11.00" fill="#000000">Generated by SchemaSpy</text>
<!-- action_items -->
<g id="node1" class="node">
<title>action_items</title>
<g id="a_node1"><a xlink:href="../../tables/action_items.html" xlink:title="action_items" target="_top">
<polygon fill="#ffffff" stroke="transparent" points="467,-318.2 467,-423.2 598,-423.2 598,-318.2 467,-318.2"/>
<polygon fill="#f5f5f5" stroke="transparent" points="467.5,-399.7 467.5,-422.7 598.5,-422.7 598.5,-399.7 467.5,-399.7"/>
<polygon fill="none" stroke="#000000" points="467.5,-399.7 467.5,-422.7 598.5,-422.7 598.5,-399.7 467.5,-399.7"/>
<text text-anchor="start" x="472.5" y="-408.3" font-family="Helvetica,sans-Serif" font-weight="bold" font-size="11.00" fill="#000000">action_items</text>
<text text-anchor="start" x="564.0219" y="-407.8" font-family="Helvetica,sans-Serif" font-size="11.00" fill="#000000">[table]</text>
<polygon fill="none" stroke="#000000" points="467.5,-377.7 467.5,-399.7 598.5,-399.7 598.5,-377.7 467.5,-377.7"/>
<image xlink:href="../../images/primaryKeys.png" width="11px" height="12px" preserveAspectRatio="xMinYMin meet" x="472.5" y="-394.7"/>
<text text-anchor="start" x="496.5" y="-384.8" font-family="Helvetica,sans-Serif" font-size="11.00" fill="#000000">id</text>
<polygon fill="#ffffff" stroke="transparent" points="467.5,-355.7 467.5,-377.7 598.5,-377.7 598.5,-355.7 467.5,-355.7"/>
<polygon fill="none" stroke="#000000" points="467.5,-355.7 467.5,-377.7 598.5,-377.7 598.5,-355.7 467.5,-355.7"/>
<image xlink:href="../../images/foreignKeys.png" width="11px" height="12px" preserveAspectRatio="xMinYMin meet" x="472.5" y="-372.7"/>
<text text-anchor="start" x="496.5" y="-362.8" font-family="Helvetica,sans-Serif" font-size="11.00" fill="#000000">summary_id</text>
<polygon fill="none" stroke="#000000" points="467.5,-336.7 467.5,-355.7 598.5,-355.7 598.5,-336.7 467.5,-336.7"/>
<text text-anchor="start" x="470.5" y="-342.8" font-family="Helvetica,sans-Serif" font-size="11.00" fill="#000000">...</text>
<polygon fill="#ffffff" stroke="transparent" points="467.5,-317.7 467.5,-336.7 598.5,-336.7 598.5,-317.7 467.5,-317.7"/>
<polygon fill="none" stroke="#000000" points="467.5,-317.7 467.5,-336.7 598.5,-336.7 598.5,-317.7 467.5,-317.7"/>
<polygon fill="#ffffff" stroke="transparent" points="468.5,-318.7 468.5,-335.7 517.5,-335.7 517.5,-318.7 468.5,-318.7"/>
<text text-anchor="start" x="470.5" y="-323.8" font-family="Helvetica,sans-Serif" font-size="11.00" fill="#000000">&lt; 1</text>
<polygon fill="#ffffff" stroke="transparent" points="517.5,-318.7 517.5,-335.7 557.5,-335.7 557.5,-318.7 517.5,-318.7"/>
<text text-anchor="start" x="534.4431" y="-323.8" font-family="Helvetica,sans-Serif" font-size="11.00" fill="#000000"> &#160;</text>
<polygon fill="#ffffff" stroke="transparent" points="557.5,-318.7 557.5,-335.7 597.5,-335.7 597.5,-318.7 557.5,-318.7"/>
<text text-anchor="start" x="589.3862" y="-323.8" font-family="Helvetica,sans-Serif" font-size="11.00" fill="#000000"> &#160;</text>
<polygon fill="#000000" stroke="#000000" points="517.5,-318.7 517.5,-335.7 517.5,-335.7 517.5,-318.7 517.5,-318.7"/>
<polygon fill="#000000" stroke="#000000" points="557.5,-318.7 557.5,-335.7 557.5,-335.7 557.5,-318.7 557.5,-318.7"/>
</a>
</g>
</g>
<!-- summaries -->
<g id="node2" class="node">
<title>summaries</title>
<g id="a_node2"><a xlink:href="../../tables/summaries.html" xlink:title="summaries" target="_top">
<polygon fill="#ffffff" stroke="transparent" points="160,-98.7 160,-276.7 418,-276.7 418,-98.7 160,-98.7"/>
<polygon fill="#f5f5f5" stroke="transparent" points="162,-251.7 162,-274.7 416,-274.7 416,-251.7 162,-251.7"/>
<polygon fill="none" stroke="#000000" points="162,-251.7 162,-274.7 416,-274.7 416,-251.7 162,-251.7"/>
<text text-anchor="start" x="167" y="-260.3" font-family="Helvetica,sans-Serif" font-weight="bold" font-size="11.00" fill="#000000">summaries</text>
<text text-anchor="start" x="381.0437" y="-259.8" font-family="Helvetica,sans-Serif" font-size="11.00" fill="#000000">[table]</text>
<polygon fill="none" stroke="#000000" points="162,-229.7 162,-251.7 307,-251.7 307,-229.7 162,-229.7"/>
<image xlink:href="../../images/primaryKeys.png" width="11px" height="12px" preserveAspectRatio="xMinYMin meet" x="167" y="-246.7"/>
<text text-anchor="start" x="182" y="-236.8" font-family="Helvetica,sans-Serif" font-size="11.00" fill="#000000">id</text>
<polygon fill="none" stroke="#000000" points="307,-229.7 307,-251.7 416,-251.7 416,-229.7 307,-229.7"/>
<text text-anchor="start" x="310" y="-237.4" font-family="Helvetica,sans-Serif" font-size="11.00" fill="#000000">uuid[2147483647]</text>
<polygon fill="none" stroke="#000000" points="162,-207.7 162,-229.7 307,-229.7 307,-207.7 162,-207.7"/>
<text text-anchor="start" x="182" y="-214.8" font-family="Helvetica,sans-Serif" font-size="11.00" fill="#000000">filename</text>
<polygon fill="none" stroke="#000000" points="307,-207.7 307,-229.7 416,-229.7 416,-207.7 307,-207.7"/>
<text text-anchor="start" x="310" y="-215.4" font-family="Helvetica,sans-Serif" font-size="11.00" fill="#000000">varchar[255]</text>
<polygon fill="none" stroke="#000000" points="162,-185.7 162,-207.7 307,-207.7 307,-185.7 162,-185.7"/>
<text text-anchor="start" x="182" y="-192.8" font-family="Helvetica,sans-Serif" font-size="11.00" fill="#000000">created_at</text>
<polygon fill="none" stroke="#000000" points="307,-185.7 307,-207.7 416,-207.7 416,-185.7 307,-185.7"/>
<text text-anchor="start" x="310" y="-193.4" font-family="Helvetica,sans-Serif" font-size="11.00" fill="#000000">timestamptz[35,6]</text>
<polygon fill="none" stroke="#000000" points="162,-163.7 162,-185.7 307,-185.7 307,-163.7 162,-163.7"/>
<text text-anchor="start" x="182" y="-170.8" font-family="Helvetica,sans-Serif" font-size="11.00" fill="#000000">overall_summary</text>
<polygon fill="none" stroke="#000000" points="307,-163.7 307,-185.7 416,-185.7 416,-163.7 307,-163.7"/>
<text text-anchor="start" x="309.5344" y="-171.4" font-family="Helvetica,sans-Serif" font-size="11.00" fill="#000000">varchar[2147483647]</text>
<polygon fill="#ffffff" stroke="transparent" points="162,-141.7 162,-163.7 307,-163.7 307,-141.7 162,-141.7"/>
<polygon fill="none" stroke="#000000" points="162,-141.7 162,-163.7 307,-163.7 307,-141.7 162,-141.7"/>
<text text-anchor="start" x="182" y="-148.8" font-family="Helvetica,sans-Serif" font-size="11.00" fill="#000000">content_hash</text>
<polygon fill="none" stroke="#000000" points="307,-141.7 307,-163.7 416,-163.7 416,-141.7 307,-141.7"/>
<text text-anchor="start" x="310" y="-149.4" font-family="Helvetica,sans-Serif" font-size="11.00" fill="#000000">varchar[64]</text>
<polygon fill="#ffffff" stroke="transparent" points="162,-119.7 162,-141.7 307,-141.7 307,-119.7 162,-119.7"/>
<polygon fill="none" stroke="#000000" points="162,-119.7 162,-141.7 307,-141.7 307,-119.7 162,-119.7"/>
<image xlink:href="../../images/foreignKeys.png" width="11px" height="12px" preserveAspectRatio="xMinYMin meet" x="167" y="-136.7"/>
<text text-anchor="start" x="182" y="-126.8" font-family="Helvetica,sans-Serif" font-size="11.00" fill="#000000">user_id</text>
<polygon fill="none" stroke="#000000" points="307,-119.7 307,-141.7 416,-141.7 416,-119.7 307,-119.7"/>
<text text-anchor="start" x="310" y="-127.4" font-family="Helvetica,sans-Serif" font-size="11.00" fill="#000000">uuid[2147483647]</text>
<polygon fill="#ffffff" stroke="transparent" points="162,-100.7 162,-119.7 416,-119.7 416,-100.7 162,-100.7"/>
<polygon fill="none" stroke="#000000" points="162,-100.7 162,-119.7 416,-119.7 416,-100.7 162,-100.7"/>
<polygon fill="#ffffff" stroke="transparent" points="163,-101.7 163,-118.7 250,-118.7 250,-101.7 163,-101.7"/>
<text text-anchor="start" x="165" y="-106.8" font-family="Helvetica,sans-Serif" font-size="11.00" fill="#000000">&lt; 1</text>
<polygon fill="#ffffff" stroke="transparent" points="250,-101.7 250,-118.7 328,-118.7 328,-101.7 250,-101.7"/>
<text text-anchor="start" x="285.9431" y="-106.8" font-family="Helvetica,sans-Serif" font-size="11.00" fill="#000000"> &#160;</text>
<polygon fill="#ffffff" stroke="transparent" points="328,-101.7 328,-118.7 415,-118.7 415,-101.7 328,-101.7"/>
<text text-anchor="start" x="397.4053" y="-106.8" font-family="Helvetica,sans-Serif" font-size="11.00" fill="#000000">3 &gt;</text>
<polygon fill="#000000" stroke="#000000" points="250,-101.7 250,-118.7 250,-118.7 250,-101.7 250,-101.7"/>
<polygon fill="#000000" stroke="#000000" points="328,-101.7 328,-118.7 328,-118.7 328,-101.7 328,-101.7"/>
<polygon fill="none" stroke="#000000" stroke-width="2" points="161,-99.7 161,-275.7 417,-275.7 417,-99.7 161,-99.7"/>
</a>
</g>
</g>
<!-- action_items&#45;&gt;summaries -->
<g id="edge1" class="edge">
<title>action_items:w&#45;&gt;summaries:e</title>
<path fill="none" stroke="#000000" d="M453.2532,-363.3298C419.3363,-343.2923 470.5892,-240.7 416,-240.7"/>
<polygon fill="#000000" stroke="#000000" points="459.7149,-364.8583 466.6712,-370.2033 463.6074,-365.7792 467.5,-366.7 467.5,-366.7 467.5,-366.7 463.6074,-365.7792 468.3288,-363.1967 459.7149,-364.8583 459.7149,-364.8583"/>
<ellipse fill="none" stroke="#000000" cx="456.6008" cy="-364.1217" rx="3.2" ry="3.2"/>
</g>
<!-- users -->
<g id="node4" class="node">
<title>users</title>
<g id="a_node4"><a xlink:href="../../tables/users.html" xlink:title="users" target="_top">
<polygon fill="#ffffff" stroke="transparent" points="8,-38.2 8,-165.2 111,-165.2 111,-38.2 8,-38.2"/>
<polygon fill="#f5f5f5" stroke="transparent" points="8.5,-141.7 8.5,-164.7 111.5,-164.7 111.5,-141.7 8.5,-141.7"/>
<polygon fill="none" stroke="#000000" points="8.5,-141.7 8.5,-164.7 111.5,-164.7 111.5,-141.7 8.5,-141.7"/>
<text text-anchor="start" x="13.5" y="-150.3" font-family="Helvetica,sans-Serif" font-weight="bold" font-size="11.00" fill="#000000">users</text>
<text text-anchor="start" x="76.5437" y="-149.8" font-family="Helvetica,sans-Serif" font-size="11.00" fill="#000000">[table]</text>
<polygon fill="none" stroke="#000000" points="8.5,-119.7 8.5,-141.7 111.5,-141.7 111.5,-119.7 8.5,-119.7"/>
<image xlink:href="../../images/primaryKeys.png" width="11px" height="12px" preserveAspectRatio="xMinYMin meet" x="13.5" y="-136.7"/>
<text text-anchor="start" x="28.5" y="-126.8" font-family="Helvetica,sans-Serif" font-size="11.00" fill="#000000">id</text>
<polygon fill="#ffffff" stroke="transparent" points="8.5,-97.7 8.5,-119.7 111.5,-119.7 111.5,-97.7 8.5,-97.7"/>
<polygon fill="none" stroke="#000000" points="8.5,-97.7 8.5,-119.7 111.5,-119.7 111.5,-97.7 8.5,-97.7"/>
<text text-anchor="start" x="28.5" y="-104.8" font-family="Helvetica,sans-Serif" font-size="11.00" fill="#000000">google_sub</text>
<polygon fill="#ffffff" stroke="transparent" points="8.5,-75.7 8.5,-97.7 111.5,-97.7 111.5,-75.7 8.5,-75.7"/>
<polygon fill="none" stroke="#000000" points="8.5,-75.7 8.5,-97.7 111.5,-97.7 111.5,-75.7 8.5,-75.7"/>
<text text-anchor="start" x="28.5" y="-82.8" font-family="Helvetica,sans-Serif" font-size="11.00" fill="#000000">email</text>
<polygon fill="none" stroke="#000000" points="8.5,-56.7 8.5,-75.7 111.5,-75.7 111.5,-56.7 8.5,-56.7"/>
<text text-anchor="start" x="11.5" y="-62.8" font-family="Helvetica,sans-Serif" font-size="11.00" fill="#000000">...</text>
<polygon fill="#ffffff" stroke="transparent" points="8.5,-37.7 8.5,-56.7 111.5,-56.7 111.5,-37.7 8.5,-37.7"/>
<polygon fill="none" stroke="#000000" points="8.5,-37.7 8.5,-56.7 111.5,-56.7 111.5,-37.7 8.5,-37.7"/>
<polygon fill="#ffffff" stroke="transparent" points="9.5,-38.7 9.5,-55.7 40.5,-55.7 40.5,-38.7 9.5,-38.7"/>
<text text-anchor="start" x="11.5" y="-43.8" font-family="Helvetica,sans-Serif" font-size="11.00" fill="#000000"> &#160;</text>
<polygon fill="#ffffff" stroke="transparent" points="40.5,-38.7 40.5,-55.7 71.5,-55.7 71.5,-38.7 40.5,-38.7"/>
<text text-anchor="start" x="52.9431" y="-43.8" font-family="Helvetica,sans-Serif" font-size="11.00" fill="#000000"> &#160;</text>
<polygon fill="#ffffff" stroke="transparent" points="71.5,-38.7 71.5,-55.7 110.5,-55.7 110.5,-38.7 71.5,-38.7"/>
<text text-anchor="start" x="92.9053" y="-43.8" font-family="Helvetica,sans-Serif" font-size="11.00" fill="#000000">2 &gt;</text>
<polygon fill="#000000" stroke="#000000" points="40.5,-38.7 40.5,-55.7 40.5,-55.7 40.5,-38.7 40.5,-38.7"/>
<polygon fill="#000000" stroke="#000000" points="71.5,-38.7 71.5,-55.7 71.5,-55.7 71.5,-38.7 71.5,-38.7"/>
</a>
</g>
</g>
<!-- summaries&#45;&gt;users -->
<g id="edge3" class="edge">
<title>summaries:w&#45;&gt;users:e</title>
<path fill="none" stroke="#000000" d="M147.4203,-130.7C135.5435,-130.7 128.158,-130.7 111.5,-130.7"/>
<polygon fill="#000000" stroke="#000000" points="154,-130.7001 162,-134.3 158,-130.7 162,-130.7 162,-130.7 162,-130.7 158,-130.7 162,-127.1 154,-130.7001 154,-130.7001"/>
<ellipse fill="none" stroke="#000000" cx="150.8" cy="-130.7001" rx="3.2" ry="3.2"/>
</g>
<!-- decisions -->
<g id="node3" class="node">
<title>decisions</title>
<g id="a_node3"><a xlink:href="../../tables/decisions.html" xlink:title="decisions" target="_top">
<polygon fill="#ffffff" stroke="transparent" points="478,-192.2 478,-297.2 587,-297.2 587,-192.2 478,-192.2"/>
<polygon fill="#f5f5f5" stroke="transparent" points="478.5,-273.7 478.5,-296.7 587.5,-296.7 587.5,-273.7 478.5,-273.7"/>
<polygon fill="none" stroke="#000000" points="478.5,-273.7 478.5,-296.7 587.5,-296.7 587.5,-273.7 478.5,-273.7"/>
<text text-anchor="start" x="483.5" y="-282.3" font-family="Helvetica,sans-Serif" font-weight="bold" font-size="11.00" fill="#000000">decisions</text>
<text text-anchor="start" x="552.5437" y="-281.8" font-family="Helvetica,sans-Serif" font-size="11.00" fill="#000000">[table]</text>
<polygon fill="none" stroke="#000000" points="478.5,-251.7 478.5,-273.7 587.5,-273.7 587.5,-251.7 478.5,-251.7"/>
<image xlink:href="../../images/primaryKeys.png" width="11px" height="12px" preserveAspectRatio="xMinYMin meet" x="483.5" y="-268.7"/>
<text text-anchor="start" x="498.5" y="-258.8" font-family="Helvetica,sans-Serif" font-size="11.00" fill="#000000">id</text>
<polygon fill="#ffffff" stroke="transparent" points="478.5,-229.7 478.5,-251.7 587.5,-251.7 587.5,-229.7 478.5,-229.7"/>
<polygon fill="none" stroke="#000000" points="478.5,-229.7 478.5,-251.7 587.5,-251.7 587.5,-229.7 478.5,-229.7"/>
<image xlink:href="../../images/foreignKeys.png" width="11px" height="12px" preserveAspectRatio="xMinYMin meet" x="483.5" y="-246.7"/>
<text text-anchor="start" x="498.5" y="-236.8" font-family="Helvetica,sans-Serif" font-size="11.00" fill="#000000">summary_id</text>
<polygon fill="none" stroke="#000000" points="478.5,-210.7 478.5,-229.7 587.5,-229.7 587.5,-210.7 478.5,-210.7"/>
<text text-anchor="start" x="481.5" y="-216.8" font-family="Helvetica,sans-Serif" font-size="11.00" fill="#000000">...</text>
<polygon fill="#ffffff" stroke="transparent" points="478.5,-191.7 478.5,-210.7 587.5,-210.7 587.5,-191.7 478.5,-191.7"/>
<polygon fill="none" stroke="#000000" points="478.5,-191.7 478.5,-210.7 587.5,-210.7 587.5,-191.7 478.5,-191.7"/>
<polygon fill="#ffffff" stroke="transparent" points="479.5,-192.7 479.5,-209.7 521.5,-209.7 521.5,-192.7 479.5,-192.7"/>
<text text-anchor="start" x="481.5" y="-197.8" font-family="Helvetica,sans-Serif" font-size="11.00" fill="#000000">&lt; 1</text>
<polygon fill="#ffffff" stroke="transparent" points="521.5,-192.7 521.5,-209.7 554.5,-209.7 554.5,-192.7 521.5,-192.7"/>
<text text-anchor="start" x="534.9431" y="-197.8" font-family="Helvetica,sans-Serif" font-size="11.00" fill="#000000"> &#160;</text>
<polygon fill="#ffffff" stroke="transparent" points="554.5,-192.7 554.5,-209.7 586.5,-209.7 586.5,-192.7 554.5,-192.7"/>
<text text-anchor="start" x="578.3862" y="-197.8" font-family="Helvetica,sans-Serif" font-size="11.00" fill="#000000"> &#160;</text>
<polygon fill="#000000" stroke="#000000" points="521.5,-192.7 521.5,-209.7 521.5,-209.7 521.5,-192.7 521.5,-192.7"/>
<polygon fill="#000000" stroke="#000000" points="554.5,-192.7 554.5,-209.7 554.5,-209.7 554.5,-192.7 554.5,-192.7"/>
</a>
</g>
</g>
<!-- decisions&#45;&gt;summaries -->
<g id="edge2" class="edge">
<title>decisions:w&#45;&gt;summaries:e</title>
<path fill="none" stroke="#000000" d="M463.8024,-240.7C447.0415,-240.7 438.1354,-240.7 416,-240.7"/>
<polygon fill="#000000" stroke="#000000" points="470.5,-240.7001 478.5,-244.3 474.5,-240.7 478.5,-240.7 478.5,-240.7 478.5,-240.7 474.5,-240.7 478.5,-237.1 470.5,-240.7001 470.5,-240.7001"/>
<ellipse fill="none" stroke="#000000" cx="467.3" cy="-240.7001" rx="3.2" ry="3.2"/>
</g>
<!-- topics -->
<g id="node5" class="node">
<title>topics</title>
<g id="a_node5"><a xlink:href="../../tables/topics.html" xlink:title="topics" target="_top">
<polygon fill="#ffffff" stroke="transparent" points="478,-66.2 478,-171.2 587,-171.2 587,-66.2 478,-66.2"/>
<polygon fill="#f5f5f5" stroke="transparent" points="478.5,-147.7 478.5,-170.7 587.5,-170.7 587.5,-147.7 478.5,-147.7"/>
<polygon fill="none" stroke="#000000" points="478.5,-147.7 478.5,-170.7 587.5,-170.7 587.5,-147.7 478.5,-147.7"/>
<text text-anchor="start" x="483.5" y="-156.3" font-family="Helvetica,sans-Serif" font-weight="bold" font-size="11.00" fill="#000000">topics</text>
<text text-anchor="start" x="552.5437" y="-155.8" font-family="Helvetica,sans-Serif" font-size="11.00" fill="#000000">[table]</text>
<polygon fill="none" stroke="#000000" points="478.5,-125.7 478.5,-147.7 587.5,-147.7 587.5,-125.7 478.5,-125.7"/>
<image xlink:href="../../images/primaryKeys.png" width="11px" height="12px" preserveAspectRatio="xMinYMin meet" x="483.5" y="-142.7"/>
<text text-anchor="start" x="498.5" y="-132.8" font-family="Helvetica,sans-Serif" font-size="11.00" fill="#000000">id</text>
<polygon fill="#ffffff" stroke="transparent" points="478.5,-103.7 478.5,-125.7 587.5,-125.7 587.5,-103.7 478.5,-103.7"/>
<polygon fill="none" stroke="#000000" points="478.5,-103.7 478.5,-125.7 587.5,-125.7 587.5,-103.7 478.5,-103.7"/>
<image xlink:href="../../images/foreignKeys.png" width="11px" height="12px" preserveAspectRatio="xMinYMin meet" x="483.5" y="-120.7"/>
<text text-anchor="start" x="498.5" y="-110.8" font-family="Helvetica,sans-Serif" font-size="11.00" fill="#000000">summary_id</text>
<polygon fill="none" stroke="#000000" points="478.5,-84.7 478.5,-103.7 587.5,-103.7 587.5,-84.7 478.5,-84.7"/>
<text text-anchor="start" x="481.5" y="-90.8" font-family="Helvetica,sans-Serif" font-size="11.00" fill="#000000">...</text>
<polygon fill="#ffffff" stroke="transparent" points="478.5,-65.7 478.5,-84.7 587.5,-84.7 587.5,-65.7 478.5,-65.7"/>
<polygon fill="none" stroke="#000000" points="478.5,-65.7 478.5,-84.7 587.5,-84.7 587.5,-65.7 478.5,-65.7"/>
<polygon fill="#ffffff" stroke="transparent" points="479.5,-66.7 479.5,-83.7 521.5,-83.7 521.5,-66.7 479.5,-66.7"/>
<text text-anchor="start" x="481.5" y="-71.8" font-family="Helvetica,sans-Serif" font-size="11.00" fill="#000000">&lt; 1</text>
<polygon fill="#ffffff" stroke="transparent" points="521.5,-66.7 521.5,-83.7 554.5,-83.7 554.5,-66.7 521.5,-66.7"/>
<text text-anchor="start" x="534.9431" y="-71.8" font-family="Helvetica,sans-Serif" font-size="11.00" fill="#000000"> &#160;</text>
<polygon fill="#ffffff" stroke="transparent" points="554.5,-66.7 554.5,-83.7 586.5,-83.7 586.5,-66.7 554.5,-66.7"/>
<text text-anchor="start" x="578.3862" y="-71.8" font-family="Helvetica,sans-Serif" font-size="11.00" fill="#000000"> &#160;</text>
<polygon fill="#000000" stroke="#000000" points="521.5,-66.7 521.5,-83.7 521.5,-83.7 521.5,-66.7 521.5,-66.7"/>
<polygon fill="#000000" stroke="#000000" points="554.5,-66.7 554.5,-83.7 554.5,-83.7 554.5,-66.7 554.5,-66.7"/>
</a>
</g>
</g>
<!-- topics&#45;&gt;summaries -->
<g id="edge4" class="edge">
<title>topics:w&#45;&gt;summaries:e</title>
<path fill="none" stroke="#000000" d="M464.0095,-117.8146C426.6131,-137.2176 472.6504,-240.7 416,-240.7"/>
<polygon fill="#000000" stroke="#000000" points="470.6786,-116.3812 479.2565,-118.2196 474.5893,-115.5406 478.5,-114.7 478.5,-114.7 478.5,-114.7 474.5893,-115.5406 477.7435,-111.1804 470.6786,-116.3812 470.6786,-116.3812"/>
<ellipse fill="none" stroke="#000000" cx="467.5501" cy="-117.0537" rx="3.2" ry="3.2"/>
</g>
</g>
</svg>
