<?xml version="1.0" encoding="UTF-8" standalone="no"?>
<!DOCTYPE svg PUBLIC "-//W3C//DTD SVG 1.1//EN"
 "http://www.w3.org/Graphics/SVG/1.1/DTD/svg11.dtd">
<!-- Generated by graphviz version 2.40.1 (20161225.0304)
 -->
<!-- Title: twoDegreesRelationshipsDiagram Pages: 1 -->
<svg width="614pt" height="539pt"
 viewBox="0.00 0.00 614.00 539.20" xmlns="http://www.w3.org/2000/svg" xmlns:xlink="http://www.w3.org/1999/xlink">
<g id="graph0" class="graph" transform="scale(1 1) rotate(0) translate(4 535.2)">
<title>twoDegreesRelationshipsDiagram</title>
<polygon fill="#ffffff" stroke="transparent" points="-4,4 -4,-535.2 610,-535.2 610,4 -4,4"/>
<text text-anchor="middle" x="72.4936" y="-7.3" font-family="Helvetica,sans-Serif" font-size="11.00" fill="#000000">Generated by SchemaSpy</text>
<!-- action_items -->
<g id="node1" class="node">
<title>action_items</title>
<g id="a_node1"><a xlink:href="../../tables/action_items.html" xlink:title="action_items" target="_top">
<polygon fill="#ffffff" stroke="transparent" points="467,-422.2 467,-527.2 598,-527.2 598,-422.2 467,-422.2"/>
<polygon fill="#f5f5f5" stroke="transparent" points="467.5,-503.7 467.5,-526.7 598.5,-526.7 598.5,-503.7 467.5,-503.7"/>
<polygon fill="none" stroke="#000000" points="467.5,-503.7 467.5,-526.7 598.5,-526.7 598.5,-503.7 467.5,-503.7"/>
<text text-anchor="start" x="472.5" y="-512.3" font-family="Helvetica,sans-Serif" font-weight="bold" font-size="11.00" fill="#000000">action_items</text>
<text text-anchor="start" x="564.0219" y="-511.8" font-family="Helvetica,sans-Serif" font-size="11.00" fill="#000000">[table]</text>
<polygon fill="none" stroke="#000000" points="467.5,-481.7 467.5,-503.7 598.5,-503.7 598.5,-481.7 467.5,-481.7"/>
<image xlink:href="../../images/primaryKeys.png" width="11px" height="12px" preserveAspectRatio="xMinYMin meet" x="472.5" y="-498.7"/>
<text text-anchor="start" x="496.5" y="-488.8" font-family="Helvetica,sans-Serif" font-size="11.00" fill="#000000">id</text>
<polygon fill="#ffffff" stroke="transparent" points="467.5,-459.7 467.5,-481.7 598.5,-481.7 598.5,-459.7 467.5,-459.7"/>
<polygon fill="none" stroke="#000000" points="467.5,-459.7 467.5,-481.7 598.5,-481.7 598.5,-459.7 467.5,-459.7"/>
<image xlink:href="../../images/foreignKeys.png" width="11px" height="12px" preserveAspectRatio="xMinYMin meet" x="472.5" y="-476.7"/>
<text text-anchor="start" x="496.5" y="-466.8" font-family="Helvetica,sans-Serif" font-size="11.00" fill="#000000">summary_id</text>
<polygon fill="none" stroke="#000000" points="467.5,-440.7 467.5,-459.7 598.5,-459.7 598.5,-440.7 467.5,-440.7"/>
<text text-anchor="start" x="470.5" y="-446.8" font-family="Helvetica,sans-Serif" font-size="11.00" fill="#000000">...</text>
<polygon fill="#ffffff" stroke="transparent" points="467.5,-421.7 467.5,-440.7 598.5,-440.7 598.5,-421.7 467.5,-421.7"/>
<polygon fill="none" stroke="#000000" points="467.5,-421.7 467.5,-440.7 598.5,-440.7 598.5,-421.7 467.5,-421.7"/>
<polygon fill="#ffffff" stroke="transparent" points="468.5,-422.7 468.5,-439.7 517.5,-439.7 517.5,-422.7 468.5,-422.7"/>
<text text-anchor="start" x="470.5" y="-427.8" font-family="Helvetica,sans-Serif" font-size="11.00" fill="#000000">&lt; 1</text>
<polygon fill="#ffffff" stroke="transparent" points="517.5,-422.7 517.5,-439.7 557.5,-439.7 557.5,-422.7 517.5,-422.7"/>
<text text-anchor="start" x="534.4431" y="-427.8" font-family="Helvetica,sans-Serif" font-size="11.00" fill="#000000"> &#160;</text>
<polygon fill="#ffffff" stroke="transparent" points="557.5,-422.7 557.5,-439.7 597.5,-439.7 597.5,-422.7 557.5,-422.7"/>
<text text-anchor="start" x="589.3862" y="-427.8" font-family="Helvetica,sans-Serif" font-size="11.00" fill="#000000"> &#160;</text>
<polygon fill="#000000" stroke="#000000" points="517.5,-422.7 517.5,-439.7 517.5,-439.7 517.5,-422.7 517.5,-422.7"/>
<polygon fill="#000000" stroke="#000000" points="557.5,-422.7 557.5,-439.7 557.5,-439.7 557.5,-422.7 557.5,-422.7"/>
</a>
</g>
</g>
<!-- summaries -->
<g id="node2" class="node">
<title>summaries</title>
<g id="a_node2"><a xlink:href="../../tables/summaries.html" xlink:title="summaries" target="_top">
<polygon fill="#ffffff" stroke="transparent" points="160,-202.7 160,-380.7 418,-380.7 418,-202.7 160,-202.7"/>
<polygon fill="#f5f5f5" stroke="transparent" points="162,-355.7 162,-378.7 416,-378.7 416,-355.7 162,-355.7"/>
<polygon fill="none" stroke="#000000" points="162,-355.7 162,-378.7 416,-378.7 416,-355.7 162,-355.7"/>
<text text-anchor="start" x="167" y="-364.3" font-family="Helvetica,sans-Serif" font-weight="bold" font-size="11.00" fill="#000000">summaries</text>
<text text-anchor="start" x="381.0437" y="-363.8" font-family="Helvetica,sans-Serif" font-size="11.00" fill="#000000">[table]</text>
<polygon fill="none" stroke="#000000" points="162,-333.7 162,-355.7 307,-355.7 307,-333.7 162,-333.7"/>
<image xlink:href="../../images/primaryKeys.png" width="11px" height="12px" preserveAspectRatio="xMinYMin meet" x="167" y="-350.7"/>
<text text-anchor="start" x="182" y="-340.8" font-family="Helvetica,sans-Serif" font-size="11.00" fill="#000000">id</text>
<polygon fill="none" stroke="#000000" points="307,-333.7 307,-355.7 416,-355.7 416,-333.7 307,-333.7"/>
<text text-anchor="start" x="310" y="-341.4" font-family="Helvetica,sans-Serif" font-size="11.00" fill="#000000">uuid[2147483647]</text>
<polygon fill="none" stroke="#000000" points="162,-311.7 162,-333.7 307,-333.7 307,-311.7 162,-311.7"/>
<text text-anchor="start" x="182" y="-318.8" font-family="Helvetica,sans-Serif" font-size="11.00" fill="#000000">filename</text>
<polygon fill="none" stroke="#000000" points="307,-311.7 307,-333.7 416,-333.7 416,-311.7 307,-311.7"/>
<text text-anchor="start" x="310" y="-319.4" font-family="Helvetica,sans-Serif" font-size="11.00" fill="#000000">varchar[255]</text>
<polygon fill="none" stroke="#000000" points="162,-289.7 162,-311.7 307,-311.7 307,-289.7 162,-289.7"/>
<text text-anchor="start" x="182" y="-296.8" font-family="Helvetica,sans-Serif" font-size="11.00" fill="#000000">created_at</text>
<polygon fill="none" stroke="#000000" points="307,-289.7 307,-311.7 416,-311.7 416,-289.7 307,-289.7"/>
<text text-anchor="start" x="310" y="-297.4" font-family="Helvetica,sans-Serif" font-size="11.00" fill="#000000">timestamptz[35,6]</text>
<polygon fill="none" stroke="#000000" points="162,-267.7 162,-289.7 307,-289.7 307,-267.7 162,-267.7"/>
<text text-anchor="start" x="182" y="-274.8" font-family="Helvetica,sans-Serif" font-size="11.00" fill="#000000">overall_summary</text>
<polygon fill="none" stroke="#000000" points="307,-267.7 307,-289.7 416,-289.7 416,-267.7 307,-267.7"/>
<text text-anchor="start" x="309.5344" y="-275.4" font-family="Helvetica,sans-Serif" font-size="11.00" fill="#000000">varchar[2147483647]</text>
<polygon fill="#ffffff" stroke="transparent" points="162,-245.7 162,-267.7 307,-267.7 307,-245.7 162,-245.7"/>
<polygon fill="none" stroke="#000000" points="162,-245.7 162,-267.7 307,-267.7 307,-245.7 162,-245.7"/>
<text text-anchor="start" x="182" y="-252.8" font-family="Helvetica,sans-Serif" font-size="11.00" fill="#000000">content_hash</text>
<polygon fill="none" stroke="#000000" points="307,-245.7 307,-267.7 416,-267.7 416,-245.7 307,-245.7"/>
<text text-anchor="start" x="310" y="-253.4" font-family="Helvetica,sans-Serif" font-size="11.00" fill="#000000">varchar[64]</text>
<polygon fill="#ffffff" stroke="transparent" points="162,-223.7 162,-245.7 307,-245.7 307,-223.7 162,-223.7"/>
<polygon fill="none" stroke="#000000" points="162,-223.7 162,-245.7 307,-245.7 307,-223.7 162,-223.7"/>
<image xlink:href="../../images/foreignKeys.png" width="11px" height="12px" preserveAspectRatio="xMinYMin meet" x="167" y="-240.7"/>
<text text-anchor="start" x="182" y="-230.8" font-family="Helvetica,sans-Serif" font-size="11.00" fill="#000000">user_id</text>
<polygon fill="none" stroke="#000000" points="307,-223.7 307,-245.7 416,-245.7 416,-223.7 307,-223.7"/>
<text text-anchor="start" x="310" y="-231.4" font-family="Helvetica,sans-Serif" font-size="11.00" fill="#000000">uuid[2147483647]</text>
<polygon fill="#ffffff" stroke="transparent" points="162,-204.7 162,-223.7 416,-223.7 416,-204.7 162,-204.7"/>
<polygon fill="none" stroke="#000000" points="162,-204.7 162,-223.7 416,-223.7 416,-204.7 162,-204.7"/>
<polygon fill="#ffffff" stroke="transparent" points="163,-205.7 163,-222.7 250,-222.7 250,-205.7 163,-205.7"/>
<text text-anchor="start" x="165" y="-210.8" font-family="Helvetica,sans-Serif" font-size="11.00" fill="#000000">&lt; 1</text>
<polygon fill="#ffffff" stroke="transparent" points="250,-205.7 250,-222.7 328,-222.7 328,-205.7 250,-205.7"/>
<text text-anchor="start" x="285.9431" y="-210.8" font-family="Helvetica,sans-Serif" font-size="11.00" fill="#000000"> &#160;</text>
<polygon fill="#ffffff" stroke="transparent" points="328,-205.7 328,-222.7 415,-222.7 415,-205.7 328,-205.7"/>
<text text-anchor="start" x="397.4053" y="-210.8" font-family="Helvetica,sans-Serif" font-size="11.00" fill="#000000">3 &gt;</text>
<polygon fill="#000000" stroke="#000000" points="250,-205.7 250,-222.7 250,-222.7 250,-205.7 250,-205.7"/>
<polygon fill="#000000" stroke="#000000" points="328,-205.7 328,-222.7 328,-222.7 328,-205.7 328,-205.7"/>
<polygon fill="none" stroke="#000000" stroke-width="2" points="161,-203.7 161,-379.7 417,-379.7 417,-203.7 161,-203.7"/>
</a>
</g>
</g>
<!-- action_items&#45;&gt;summaries -->
<g id="edge1" class="edge">
<title>action_items:w&#45;&gt;summaries:e</title>
<path fill="none" stroke="#000000" d="M453.2532,-467.3298C419.3363,-447.2923 470.5892,-344.7 416,-344.7"/>
<polygon fill="#000000" stroke="#000000" points="459.7149,-468.8583 466.6712,-474.2033 463.6074,-469.7792 467.5,-470.7 467.5,-470.7 467.5,-470.7 463.6074,-469.7792 468.3288,-467.1967 459.7149,-468.8583 459.7149,-468.8583"/>
<ellipse fill="none" stroke="#000000" cx="456.6008" cy="-468.1217" rx="3.2" ry="3.2"/>
</g>
<!-- users -->
<g id="node5" class="node">
<title>users</title>
<g id="a_node5"><a xlink:href="../../tables/users.html" xlink:title="users" target="_top">
<polygon fill="#ffffff" stroke="transparent" points="8,-99.2 8,-182.2 111,-182.2 111,-99.2 8,-99.2"/>
<polygon fill="#f5f5f5" stroke="transparent" points="8.5,-158.7 8.5,-181.7 111.5,-181.7 111.5,-158.7 8.5,-158.7"/>
<polygon fill="none" stroke="#000000" points="8.5,-158.7 8.5,-181.7 111.5,-181.7 111.5,-158.7 8.5,-158.7"/>
<text text-anchor="start" x="13.5" y="-167.3" font-family="Helvetica,sans-Serif" font-weight="bold" font-size="11.00" fill="#000000">users</text>
<text text-anchor="start" x="76.5437" y="-166.8" font-family="Helvetica,sans-Serif" font-size="11.00" fill="#000000">[table]</text>
<polygon fill="none" stroke="#000000" points="8.5,-136.7 8.5,-158.7 111.5,-158.7 111.5,-136.7 8.5,-136.7"/>
<image xlink:href="../../images/primaryKeys.png" width="11px" height="12px" preserveAspectRatio="xMinYMin meet" x="13.5" y="-153.7"/>
<text text-anchor="start" x="28.5" y="-143.8" font-family="Helvetica,sans-Serif" font-size="11.00" fill="#000000">id</text>
<polygon fill="none" stroke="#000000" points="8.5,-117.7 8.5,-136.7 111.5,-136.7 111.5,-117.7 8.5,-117.7"/>
<text text-anchor="start" x="11.5" y="-123.8" font-family="Helvetica,sans-Serif" font-size="11.00" fill="#000000">...</text>
<polygon fill="#ffffff" stroke="transparent" points="8.5,-98.7 8.5,-117.7 111.5,-117.7 111.5,-98.7 8.5,-98.7"/>
<polygon fill="none" stroke="#000000" points="8.5,-98.7 8.5,-117.7 111.5,-117.7 111.5,-98.7 8.5,-98.7"/>
<polygon fill="#ffffff" stroke="transparent" points="9.5,-99.7 9.5,-116.7 40.5,-116.7 40.5,-99.7 9.5,-99.7"/>
<text text-anchor="start" x="11.5" y="-104.8" font-family="Helvetica,sans-Serif" font-size="11.00" fill="#000000"> &#160;</text>
<polygon fill="#ffffff" stroke="transparent" points="40.5,-99.7 40.5,-116.7 71.5,-116.7 71.5,-99.7 40.5,-99.7"/>
<text text-anchor="start" x="52.9431" y="-104.8" font-family="Helvetica,sans-Serif" font-size="11.00" fill="#000000"> &#160;</text>
<polygon fill="#ffffff" stroke="transparent" points="71.5,-99.7 71.5,-116.7 110.5,-116.7 110.5,-99.7 71.5,-99.7"/>
<text text-anchor="start" x="92.9053" y="-104.8" font-family="Helvetica,sans-Serif" font-size="11.00" fill="#000000">3 &gt;</text>
<polygon fill="#000000" stroke="#000000" points="40.5,-99.7 40.5,-116.7 40.5,-116.7 40.5,-99.7 40.5,-99.7"/>
<polygon fill="#000000" stroke="#000000" points="71.5,-99.7 71.5,-116.7 71.5,-116.7 71.5,-99.7 71.5,-99.7"/>
</a>
</g>
</g>
<!-- summaries&#45;&gt;users -->
<g id="edge4" class="edge">
<title>summaries:w&#45;&gt;users:e</title>
<path fill="none" stroke="#000000" d="M148.2198,-230.5038C126.1537,-213.1252 150.2708,-147.7 111.5,-147.7"/>
<polygon fill="#000000" stroke="#000000" points="154.347,-232.3695 160.9513,-238.1439 158.1735,-233.5348 162,-234.7 162,-234.7 162,-234.7 158.1735,-233.5348 163.0487,-231.2561 154.347,-232.3695 154.347,-232.3695"/>
<ellipse fill="none" stroke="#000000" cx="151.2857" cy="-231.4373" rx="3.2" ry="3.2"/>
</g>
<!-- decisions -->
<g id="node3" class="node">
<title>decisions</title>
<g id="a_node3"><a xlink:href="../../tables/decisions.html" xlink:title="decisions" target="_top">
<polygon fill="#ffffff" stroke="transparent" points="478,-296.2 478,-401.2 587,-401.2 587,-296.2 478,-296.2"/>
<polygon fill="#f5f5f5" stroke="transparent" points="478.5,-377.7 478.5,-400.7 587.5,-400.7 587.5,-377.7 478.5,-377.7"/>
<polygon fill="none" stroke="#000000" points="478.5,-377.7 478.5,-400.7 587.5,-400.7 587.5,-377.7 478.5,-377.7"/>
<text text-anchor="start" x="483.5" y="-386.3" font-family="Helvetica,sans-Serif" font-weight="bold" font-size="11.00" fill="#000000">decisions</text>
<text text-anchor="start" x="552.5437" y="-385.8" font-family="Helvetica,sans-Serif" font-size="11.00" fill="#000000">[table]</text>
<polygon fill="none" stroke="#000000" points="478.5,-355.7 478.5,-377.7 587.5,-377.7 587.5,-355.7 478.5,-355.7"/>
<image xlink:href="../../images/primaryKeys.png" width="11px" height="12px" preserveAspectRatio="xMinYMin meet" x="483.5" y="-372.7"/>
<text text-anchor="start" x="498.5" y="-362.8" font-family="Helvetica,sans-Serif" font-size="11.00" fill="#000000">id</text>
<polygon fill="#ffffff" stroke="transparent" points="478.5,-333.7 478.5,-355.7 587.5,-355.7 587.5,-333.7 478.5,-333.7"/>
<polygon fill="none" stroke="#000000" points="478.5,-333.7 478.5,-355.7 587.5,-355.7 587.5,-333.7 478.5,-333.7"/>
<image xlink:href="../../images/foreignKeys.png" width="11px" height="12px" preserveAspectRatio="xMinYMin meet" x="483.5" y="-350.7"/>
<text text-anchor="start" x="498.5" y="-340.8" font-family="Helvetica,sans-Serif" font-size="11.00" fill="#000000">summary_id</text>
<polygon fill="none" stroke="#000000" points="478.5,-314.7 478.5,-333.7 587.5,-333.7 587.5,-314.7 478.5,-314.7"/>
<text text-anchor="start" x="481.5" y="-320.8" font-family="Helvetica,sans-Serif" font-size="11.00" fill="#000000">...</text>
<polygon fill="#ffffff" stroke="transparent" points="478.5,-295.7 478.5,-314.7 587.5,-314.7 587.5,-295.7 478.5,-295.7"/>
<polygon fill="none" stroke="#000000" points="478.5,-295.7 478.5,-314.7 587.5,-314.7 587.5,-295.7 478.5,-295.7"/>
<polygon fill="#ffffff" stroke="transparent" points="479.5,-296.7 479.5,-313.7 521.5,-313.7 521.5,-296.7 479.5,-296.7"/>
<text text-anchor="start" x="481.5" y="-301.8" font-family="Helvetica,sans-Serif" font-size="11.00" fill="#000000">&lt; 1</text>
<polygon fill="#ffffff" stroke="transparent" points="521.5,-296.7 521.5,-313.7 554.5,-313.7 554.5,-296.7 521.5,-296.7"/>
<text text-anchor="start" x="534.9431" y="-301.8" font-family="Helvetica,sans-Serif" font-size="11.00" fill="#000000"> &#160;</text>
<polygon fill="#ffffff" stroke="transparent" points="554.5,-296.7 554.5,-313.7 586.5,-313.7 586.5,-296.7 554.5,-296.7"/>
<text text-anchor="start" x="578.3862" y="-301.8" font-family="Helvetica,sans-Serif" font-size="11.00" fill="#000000"> &#160;</text>
<polygon fill="#000000" stroke="#000000" points="521.5,-296.7 521.5,-313.7 521.5,-313.7 521.5,-296.7 521.5,-296.7"/>
<polygon fill="#000000" stroke="#000000" points="554.5,-296.7 554.5,-313.7 554.5,-313.7 554.5,-296.7 554.5,-296.7"/>
</a>
</g>
</g>
<!-- decisions&#45;&gt;summaries -->
<g id="edge2" class="edge">
<title>decisions:w&#45;&gt;summaries:e</title>
<path fill="none" stroke="#000000" d="M463.8024,-344.7C447.0415,-344.7 438.1354,-344.7 416,-344.7"/>
<polygon fill="#000000" stroke="#000000" points="470.5,-344.7001 478.5,-348.3 474.5,-344.7 478.5,-344.7 478.5,-344.7 478.5,-344.7 474.5,-344.7 478.5,-341.1 470.5,-344.7001 470.5,-344.7001"/>
<ellipse fill="none" stroke="#000000" cx="467.3" cy="-344.7001" rx="3.2" ry="3.2"/>
</g>
<!-- oauth_identities -->
<g id="node4" class="node">
<title>oauth_identities</title>
<g id="a_node4"><a xlink:href="../../tables/oauth_identities.html" xlink:title="oauth_identities" target="_top">
<polygon fill="#ffffff" stroke="transparent" points="210.5,-120.2 210.5,-181.2 367.5,-181.2 367.5,-120.2 210.5,-120.2"/>
<polygon fill="#f5f5f5" stroke="transparent" points="211,-157.7 211,-180.7 368,-180.7 368,-157.7 211,-157.7"/>
<polygon fill="none" stroke="#000000" points="211,-157.7 211,-180.7 368,-180.7 368,-157.7 211,-157.7"/>
<text text-anchor="start" x="216" y="-166.3" font-family="Helvetica,sans-Serif" font-weight="bold" font-size="11.00" fill="#000000">oauth_identities</text>
<text text-anchor="start" x="333.5219" y="-165.8" font-family="Helvetica,sans-Serif" font-size="11.00" fill="#000000">[table]</text>
<polygon fill="none" stroke="#000000" points="211,-138.7 211,-157.7 368,-157.7 368,-138.7 211,-138.7"/>
<text text-anchor="start" x="214" y="-144.8" font-family="Helvetica,sans-Serif" font-size="11.00" fill="#000000">...</text>
<polygon fill="#ffffff" stroke="transparent" points="211,-119.7 211,-138.7 368,-138.7 368,-119.7 211,-119.7"/>
<polygon fill="none" stroke="#000000" points="211,-119.7 211,-138.7 368,-138.7 368,-119.7 211,-119.7"/>
<polygon fill="#ffffff" stroke="transparent" points="212,-120.7 212,-137.7 270,-137.7 270,-120.7 212,-120.7"/>
<text text-anchor="start" x="214" y="-125.8" font-family="Helvetica,sans-Serif" font-size="11.00" fill="#000000">&lt; 1</text>
<polygon fill="#ffffff" stroke="transparent" points="270,-120.7 270,-137.7 319,-137.7 319,-120.7 270,-120.7"/>
<text text-anchor="start" x="291.4431" y="-125.8" font-family="Helvetica,sans-Serif" font-size="11.00" fill="#000000"> &#160;</text>
<polygon fill="#ffffff" stroke="transparent" points="319,-120.7 319,-137.7 367,-137.7 367,-120.7 319,-120.7"/>
<text text-anchor="start" x="358.8862" y="-125.8" font-family="Helvetica,sans-Serif" font-size="11.00" fill="#000000"> &#160;</text>
<polygon fill="#000000" stroke="#000000" points="270,-120.7 270,-137.7 270,-137.7 270,-120.7 270,-120.7"/>
<polygon fill="#000000" stroke="#000000" points="319,-120.7 319,-137.7 319,-137.7 319,-120.7 319,-120.7"/>
</a>
</g>
</g>
<!-- oauth_identities&#45;&gt;users -->
<g id="edge3" class="edge">
<title>oauth_identities:w&#45;&gt;users:e</title>
<path fill="none" stroke="#000000" d="M196.2761,-147.7C163.6139,-147.7 150.3672,-147.7 111.5,-147.7"/>
<polygon fill="#000000" stroke="#000000" points="203,-147.7001 211,-151.3 207,-147.7 211,-147.7 211,-147.7 211,-147.7 207,-147.7 211,-144.1 203,-147.7001 203,-147.7001"/>
<ellipse fill="none" stroke="#000000" cx="199.8" cy="-147.7001" rx="3.2" ry="3.2"/>
</g>
<!-- topics -->
<g id="node6" class="node">
<title>topics</title>
<g id="a_node6"><a xlink:href="../../tables/topics.html" xlink:title="topics" target="_top">
<polygon fill="#ffffff" stroke="transparent" points="478,-170.2 478,-275.2 587,-275.2 587,-170.2 478,-170.2"/>
<polygon fill="#f5f5f5" stroke="transparent" points="478.5,-251.7 478.5,-274.7 587.5,-274.7 587.5,-251.7 478.5,-251.7"/>
<polygon fill="none" stroke="#000000" points="478.5,-251.7 478.5,-274.7 587.5,-274.7 587.5,-251.7 478.5,-251.7"/>
<text text-anchor="start" x="483.5" y="-260.3" font-family="Helvetica,sans-Serif" font-weight="bold" font-size="11.00" fill="#000000">topics</text>
<text text-anchor="start" x="552.5437" y="-259.8" font-family="Helvetica,sans-Serif" font-size="11.00" fill="#000000">[table]</text>
<polygon fill="none" stroke="#000000" points="478.5,-229.7 478.5,-251.7 587.5,-251.7 587.5,-229.7 478.5,-229.7"/>
<image xlink:href="../../images/primaryKeys.png" width="11px" height="12px" preserveAspectRatio="xMinYMin meet" x="483.5" y="-246.7"/>
<text text-anchor="start" x="498.5" y="-236.8" font-family="Helvetica,sans-Serif" font-size="11.00" fill="#000000">id</text>
<polygon fill="#ffffff" stroke="transparent" points="478.5,-207.7 478.5,-229.7 587.5,-229.7 587.5,-207.7 478.5,-207.7"/>
<polygon fill="none" stroke="#000000" points="478.5,-207.7 478.5,-229.7 587.5,-229.7 587.5,-207.7 478.5,-207.7"/>
<image xlink:href="../../images/foreignKeys.png" width="11px" height="12px" preserveAspectRatio="xMinYMin meet" x="483.5" y="-224.7"/>
<text text-anchor="start" x="498.5" y="-214.8" font-family="Helvetica,sans-Serif" font-size="11.00" fill="#000000">summary_id</text>
<polygon fill="none" stroke="#000000" points="478.5,-188.7 478.5,-207.7 587.5,-207.7 587.5,-188.7 478.5,-188.7"/>
<text text-anchor="start" x="481.5" y="-194.8" font-family="Helvetica,sans-Serif" font-size="11.00" fill="#000000">...</text>
<polygon fill="#ffffff" stroke="transparent" points="478.5,-169.7 478.5,-188.7 587.5,-188.7 587.5,-169.7 478.5,-169.7"/>
<polygon fill="none" stroke="#000000" points="478.5,-169.7 478.5,-188.7 587.5,-188.7 587.5,-169.7 478.5,-169.7"/>
<polygon fill="#ffffff" stroke="transparent" points="479.5,-170.7 479.5,-187.7 521.5,-187.7 521.5,-170.7 479.5,-170.7"/>
<text text-anchor="start" x="481.5" y="-175.8" font-family="Helvetica,sans-Serif" font-size="11.00" fill="#000000">&lt; 1</text>
<polygon fill="#ffffff" stroke="transparent" points="521.5,-170.7 521.5,-187.7 554.5,-187.7 554.5,-170.7 521.5,-170.7"/>
<text text-anchor="start" x="534.9431" y="-175.8" font-family="Helvetica,sans-Serif" font-size="11.00" fill="#000000"> &#160;</text>
<polygon fill="#ffffff" stroke="transparent" points="554.5,-170.7 554.5,-187.7 586.5,-187.7 586.5,-170.7 554.5,-170.7"/>
<text text-anchor="start" x="578.3862" y="-175.8" font-family="Helvetica,sans-Serif" font-size="11.00" fill="#000000"> &#160;</text>
<polygon fill="#000000" stroke="#000000" points="521.5,-170.7 521.5,-187.7 521.5,-187.7 521.5,-170.7 521.5,-170.7"/>
<polygon fill="#000000" stroke="#000000" points="554.5,-170.7 554.5,-187.7 554.5,-187.7 554.5,-170.7 554.5,-170.7"/>
</a>
</g>
</g>
<!-- topics&#45;&gt;summaries -->
<g id="edge5" class="edge">
<title>topics:w&#45;&gt;summaries:e</title>
<path fill="none" stroke="#000000" d="M464.0095,-221.8146C426.6131,-241.2176 472.6504,-344.7 416,-344.7"/>
<polygon fill="#000000" stroke="#000000" points="470.6786,-220.3812 479.2565,-222.2196 474.5893,-219.5406 478.5,-218.7 478.5,-218.7 478.5,-218.7 474.5893,-219.5406 477.7435,-215.1804 470.6786,-220.3812 470.6786,-220.3812"/>
<ellipse fill="none" stroke="#000000" cx="467.5501" cy="-221.0537" rx="3.2" ry="3.2"/>
</g>
<!-- user_sessions -->
<g id="node7" class="node">
<title>user_sessions</title>
<g id="a_node7"><a xlink:href="../../tables/user_sessions.html" xlink:title="user_sessions" target="_top">
<polygon fill="#ffffff" stroke="transparent" points="219,-38.2 219,-99.2 359,-99.2 359,-38.2 219,-38.2"/>
<polygon fill="#f5f5f5" stroke="transparent" points="219,-75.7 219,-98.7 359,-98.7 359,-75.7 219,-75.7"/>
<polygon fill="none" stroke="#000000" points="219,-75.7 219,-98.7 359,-98.7 359,-75.7 219,-75.7"/>
<text text-anchor="start" x="224" y="-84.3" font-family="Helvetica,sans-Serif" font-weight="bold" font-size="11.00" fill="#000000">user_sessions</text>
<text text-anchor="start" x="324.5219" y="-83.8" font-family="Helvetica,sans-Serif" font-size="11.00" fill="#000000">[table]</text>
<polygon fill="none" stroke="#000000" points="219,-56.7 219,-75.7 359,-75.7 359,-56.7 219,-56.7"/>
<text text-anchor="start" x="222" y="-62.8" font-family="Helvetica,sans-Serif" font-size="11.00" fill="#000000">...</text>
<polygon fill="#ffffff" stroke="transparent" points="219,-37.7 219,-56.7 359,-56.7 359,-37.7 219,-37.7"/>
<polygon fill="none" stroke="#000000" points="219,-37.7 219,-56.7 359,-56.7 359,-37.7 219,-37.7"/>
<polygon fill="#ffffff" stroke="transparent" points="220,-38.7 220,-55.7 272,-55.7 272,-38.7 220,-38.7"/>
<text text-anchor="start" x="222" y="-43.8" font-family="Helvetica,sans-Serif" font-size="11.00" fill="#000000">&lt; 1</text>
<polygon fill="#ffffff" stroke="transparent" points="272,-38.7 272,-55.7 315,-55.7 315,-38.7 272,-38.7"/>
<text text-anchor="start" x="290.4431" y="-43.8" font-family="Helvetica,sans-Serif" font-size="11.00" fill="#000000"> &#160;</text>
<polygon fill="#ffffff" stroke="transparent" points="315,-38.7 315,-55.7 358,-55.7 358,-38.7 315,-38.7"/>
<text text-anchor="start" x="349.8862" y="-43.8" font-family="Helvetica,sans-Serif" font-size="11.00" fill="#000000"> &#160;</text>
<polygon fill="#000000" stroke="#000000" points="272,-38.7 272,-55.7 272,-55.7 272,-38.7 272,-38.7"/>
<polygon fill="#000000" stroke="#000000" points="315,-38.7 315,-55.7 315,-55.7 315,-38.7 315,-38.7"/>
</a>
</g>
</g>
<!-- user_sessions&#45;&gt;users -->
<g id="edge6" class="edge">
<title>user_sessions:w&#45;&gt;users:e</title>
<path fill="none" stroke="#000000" d="M204.4448,-67.2245C181.7146,-72.5624 175.6104,-91.0972 152,-109.7 132.6122,-124.9757 136.1827,-147.7 111.5,-147.7"/>
<polygon fill="#000000" stroke="#000000" points="211.0435,-66.5334 219.375,-69.2804 215.0218,-66.1167 219,-65.7 219,-65.7 219,-65.7 215.0218,-66.1167 218.625,-62.1196 211.0435,-66.5334 211.0435,-66.5334"/>
<ellipse fill="none" stroke="#000000" cx="207.8609" cy="-66.8667" rx="3.2" ry="3.2"/>
</g>
</g>
</svg>
