<?xml version="1.0" encoding="UTF-8" standalone="no"?>
<!DOCTYPE svg PUBLIC "-//W3C//DTD SVG 1.1//EN"
 "http://www.w3.org/Graphics/SVG/1.1/DTD/svg11.dtd">
<!-- Generated by graphviz version 2.40.1 (20161225.0304)
 -->
<!-- Title: twoDegreesRelationshipsDiagram Pages: 1 -->
<svg width="567pt" height="349pt"
 viewBox="0.00 0.00 567.00 348.70" xmlns="http://www.w3.org/2000/svg" xmlns:xlink="http://www.w3.org/1999/xlink">
<g id="graph0" class="graph" transform="scale(1 1) rotate(0) translate(4 344.7)">
<title>twoDegreesRelationshipsDiagram</title>
<polygon fill="#ffffff" stroke="transparent" points="-4,4 -4,-344.7 563,-344.7 563,4 -4,4"/>
<text text-anchor="middle" x="72.4936" y="-7.3" font-family="Helvetica,sans-Serif" font-size="11.00" fill="#000000">Generated by SchemaSpy</text>
<!-- action_items -->
<g id="node1" class="node">
<title>action_items</title>
<g id="a_node1"><a xlink:href="../../tables/action_items.html" xlink:title="action_items" target="_top">
<polygon fill="#ffffff" stroke="transparent" points="374.5,-275.7 374.5,-336.7 505.5,-336.7 505.5,-275.7 374.5,-275.7"/>
<polygon fill="#f5f5f5" stroke="transparent" points="375,-313.2 375,-336.2 506,-336.2 506,-313.2 375,-313.2"/>
<polygon fill="none" stroke="#000000" points="375,-313.2 375,-336.2 506,-336.2 506,-313.2 375,-313.2"/>
<text text-anchor="start" x="380" y="-321.8" font-family="Helvetica,sans-Serif" font-weight="bold" font-size="11.00" fill="#000000">action_items</text>
<text text-anchor="start" x="471.5219" y="-321.3" font-family="Helvetica,sans-Serif" font-size="11.00" fill="#000000">[table]</text>
<polygon fill="none" stroke="#000000" points="375,-294.2 375,-313.2 506,-313.2 506,-294.2 375,-294.2"/>
<text text-anchor="start" x="378" y="-300.3" font-family="Helvetica,sans-Serif" font-size="11.00" fill="#000000">...</text>
<polygon fill="#ffffff" stroke="transparent" points="375,-275.2 375,-294.2 506,-294.2 506,-275.2 375,-275.2"/>
<polygon fill="none" stroke="#000000" points="375,-275.2 375,-294.2 506,-294.2 506,-275.2 375,-275.2"/>
<polygon fill="#ffffff" stroke="transparent" points="376,-276.2 376,-293.2 425,-293.2 425,-276.2 376,-276.2"/>
<text text-anchor="start" x="378" y="-281.3" font-family="Helvetica,sans-Serif" font-size="11.00" fill="#000000">&lt; 1</text>
<polygon fill="#ffffff" stroke="transparent" points="425,-276.2 425,-293.2 465,-293.2 465,-276.2 425,-276.2"/>
<text text-anchor="start" x="441.9431" y="-281.3" font-family="Helvetica,sans-Serif" font-size="11.00" fill="#000000"> &#160;</text>
<polygon fill="#ffffff" stroke="transparent" points="465,-276.2 465,-293.2 505,-293.2 505,-276.2 465,-276.2"/>
<text text-anchor="start" x="496.8862" y="-281.3" font-family="Helvetica,sans-Serif" font-size="11.00" fill="#000000"> &#160;</text>
<polygon fill="#000000" stroke="#000000" points="425,-276.2 425,-293.2 425,-293.2 425,-276.2 425,-276.2"/>
<polygon fill="#000000" stroke="#000000" points="465,-276.2 465,-293.2 465,-293.2 465,-276.2 465,-276.2"/>
</a>
</g>
</g>
<!-- summaries -->
<g id="node2" class="node">
<title>summaries</title>
<g id="a_node2"><a xlink:href="../../tables/summaries.html" xlink:title="summaries" target="_top">
<polygon fill="#ffffff" stroke="transparent" points="135,-128.7 135,-255.7 280,-255.7 280,-128.7 135,-128.7"/>
<polygon fill="#f5f5f5" stroke="transparent" points="135.5,-232.2 135.5,-255.2 280.5,-255.2 280.5,-232.2 135.5,-232.2"/>
<polygon fill="none" stroke="#000000" points="135.5,-232.2 135.5,-255.2 280.5,-255.2 280.5,-232.2 135.5,-232.2"/>
<text text-anchor="start" x="140.5" y="-240.8" font-family="Helvetica,sans-Serif" font-weight="bold" font-size="11.00" fill="#000000">summaries</text>
<text text-anchor="start" x="245.5437" y="-240.3" font-family="Helvetica,sans-Serif" font-size="11.00" fill="#000000">[table]</text>
<polygon fill="none" stroke="#000000" points="135.5,-210.2 135.5,-232.2 280.5,-232.2 280.5,-210.2 135.5,-210.2"/>
<image xlink:href="../../images/primaryKeys.png" width="11px" height="12px" preserveAspectRatio="xMinYMin meet" x="140.5" y="-227.2"/>
<text text-anchor="start" x="155.5" y="-217.3" font-family="Helvetica,sans-Serif" font-size="11.00" fill="#000000">id</text>
<polygon fill="#ffffff" stroke="transparent" points="135.5,-188.2 135.5,-210.2 280.5,-210.2 280.5,-188.2 135.5,-188.2"/>
<polygon fill="none" stroke="#000000" points="135.5,-188.2 135.5,-210.2 280.5,-210.2 280.5,-188.2 135.5,-188.2"/>
<text text-anchor="start" x="155.5" y="-195.3" font-family="Helvetica,sans-Serif" font-size="11.00" fill="#000000">content_hash</text>
<polygon fill="#ffffff" stroke="transparent" points="135.5,-166.2 135.5,-188.2 280.5,-188.2 280.5,-166.2 135.5,-166.2"/>
<polygon fill="none" stroke="#000000" points="135.5,-166.2 135.5,-188.2 280.5,-188.2 280.5,-166.2 135.5,-166.2"/>
<image xlink:href="../../images/foreignKeys.png" width="11px" height="12px" preserveAspectRatio="xMinYMin meet" x="140.5" y="-183.2"/>
<text text-anchor="start" x="155.5" y="-173.3" font-family="Helvetica,sans-Serif" font-size="11.00" fill="#000000">user_id</text>
<polygon fill="none" stroke="#000000" points="135.5,-147.2 135.5,-166.2 280.5,-166.2 280.5,-147.2 135.5,-147.2"/>
<text text-anchor="start" x="138.5" y="-153.3" font-family="Helvetica,sans-Serif" font-size="11.00" fill="#000000">...</text>
<polygon fill="#ffffff" stroke="transparent" points="135.5,-128.2 135.5,-147.2 280.5,-147.2 280.5,-128.2 135.5,-128.2"/>
<polygon fill="none" stroke="#000000" points="135.5,-128.2 135.5,-147.2 280.5,-147.2 280.5,-128.2 135.5,-128.2"/>
<polygon fill="#ffffff" stroke="transparent" points="136.5,-129.2 136.5,-146.2 187.5,-146.2 187.5,-129.2 136.5,-129.2"/>
<text text-anchor="start" x="138.5" y="-134.3" font-family="Helvetica,sans-Serif" font-size="11.00" fill="#000000">&lt; 1</text>
<polygon fill="#ffffff" stroke="transparent" points="187.5,-129.2 187.5,-146.2 229.5,-146.2 229.5,-129.2 187.5,-129.2"/>
<text text-anchor="start" x="205.4431" y="-134.3" font-family="Helvetica,sans-Serif" font-size="11.00" fill="#000000"> &#160;</text>
<polygon fill="#ffffff" stroke="transparent" points="229.5,-129.2 229.5,-146.2 279.5,-146.2 279.5,-129.2 229.5,-129.2"/>
<text text-anchor="start" x="261.9053" y="-134.3" font-family="Helvetica,sans-Serif" font-size="11.00" fill="#000000">3 &gt;</text>
<polygon fill="#000000" stroke="#000000" points="187.5,-129.2 187.5,-146.2 187.5,-146.2 187.5,-129.2 187.5,-129.2"/>
<polygon fill="#000000" stroke="#000000" points="229.5,-129.2 229.5,-146.2 229.5,-146.2 229.5,-129.2 229.5,-129.2"/>
</a>
</g>
</g>
<!-- action_items&#45;&gt;summaries -->
<g id="edge1" class="edge">
<title>action_items:w&#45;&gt;summaries:e</title>
<path fill="none" stroke="#000000" d="M360.5222,-301.1995C343.8986,-295.8884 338.7539,-280.7714 321,-265.2 301.0181,-247.6745 307.0786,-221.2 280.5,-221.2"/>
<polygon fill="#000000" stroke="#000000" points="367.0753,-302.1049 374.5072,-306.7661 371.0376,-302.6525 375,-303.2 375,-303.2 375,-303.2 371.0376,-302.6525 375.4928,-299.6339 367.0753,-302.1049 367.0753,-302.1049"/>
<ellipse fill="none" stroke="#000000" cx="363.9054" cy="-301.6669" rx="3.2" ry="3.2"/>
</g>
<!-- users -->
<g id="node4" class="node">
<title>users</title>
<g id="a_node4"><a xlink:href="../../tables/users.html" xlink:title="users" target="_top">
<polygon fill="#ffffff" stroke="transparent" points="8,-149.7 8,-210.7 86,-210.7 86,-149.7 8,-149.7"/>
<polygon fill="#f5f5f5" stroke="transparent" points="8,-187.2 8,-210.2 86,-210.2 86,-187.2 8,-187.2"/>
<polygon fill="none" stroke="#000000" points="8,-187.2 8,-210.2 86,-210.2 86,-187.2 8,-187.2"/>
<text text-anchor="start" x="13" y="-195.8" font-family="Helvetica,sans-Serif" font-weight="bold" font-size="11.00" fill="#000000">users</text>
<text text-anchor="start" x="51.5219" y="-195.3" font-family="Helvetica,sans-Serif" font-size="11.00" fill="#000000">[table]</text>
<polygon fill="none" stroke="#000000" points="8,-168.2 8,-187.2 86,-187.2 86,-168.2 8,-168.2"/>
<text text-anchor="start" x="11" y="-174.3" font-family="Helvetica,sans-Serif" font-size="11.00" fill="#000000">...</text>
<polygon fill="#ffffff" stroke="transparent" points="8,-149.2 8,-168.2 86,-168.2 86,-149.2 8,-149.2"/>
<polygon fill="none" stroke="#000000" points="8,-149.2 8,-168.2 86,-168.2 86,-149.2 8,-149.2"/>
<polygon fill="#ffffff" stroke="transparent" points="9,-150.2 9,-167.2 32,-167.2 32,-150.2 9,-150.2"/>
<text text-anchor="start" x="11" y="-155.3" font-family="Helvetica,sans-Serif" font-size="11.00" fill="#000000"> &#160;</text>
<polygon fill="#ffffff" stroke="transparent" points="32,-150.2 32,-167.2 54,-167.2 54,-150.2 32,-150.2"/>
<text text-anchor="start" x="39.9431" y="-155.3" font-family="Helvetica,sans-Serif" font-size="11.00" fill="#000000"> &#160;</text>
<polygon fill="#ffffff" stroke="transparent" points="54,-150.2 54,-167.2 85,-167.2 85,-150.2 54,-150.2"/>
<text text-anchor="start" x="67.4053" y="-155.3" font-family="Helvetica,sans-Serif" font-size="11.00" fill="#000000">3 &gt;</text>
<polygon fill="#000000" stroke="#000000" points="32,-150.2 32,-167.2 32,-167.2 32,-150.2 32,-150.2"/>
<polygon fill="#000000" stroke="#000000" points="54,-150.2 54,-167.2 54,-167.2 54,-150.2 54,-150.2"/>
</a>
</g>
</g>
<!-- summaries&#45;&gt;users -->
<g id="edge3" class="edge">
<title>summaries:w&#45;&gt;users:e</title>
<path fill="none" stroke="#000000" d="M120.8428,-177.2C109.4139,-177.2 102.1563,-177.2 86,-177.2"/>
<polygon fill="#000000" stroke="#000000" points="127.5,-177.2001 135.5,-180.8 131.5,-177.2 135.5,-177.2 135.5,-177.2 135.5,-177.2 131.5,-177.2 135.5,-173.6 127.5,-177.2001 127.5,-177.2001"/>
<ellipse fill="none" stroke="#000000" cx="124.3" cy="-177.2001" rx="3.2" ry="3.2"/>
</g>
<!-- decisions -->
<g id="node3" class="node">
<title>decisions</title>
<g id="a_node3"><a xlink:href="../../tables/decisions.html" xlink:title="decisions" target="_top">
<polygon fill="#ffffff" stroke="transparent" points="386.5,-193.7 386.5,-254.7 493.5,-254.7 493.5,-193.7 386.5,-193.7"/>
<polygon fill="#f5f5f5" stroke="transparent" points="387,-231.2 387,-254.2 494,-254.2 494,-231.2 387,-231.2"/>
<polygon fill="none" stroke="#000000" points="387,-231.2 387,-254.2 494,-254.2 494,-231.2 387,-231.2"/>
<text text-anchor="start" x="392" y="-239.8" font-family="Helvetica,sans-Serif" font-weight="bold" font-size="11.00" fill="#000000">decisions</text>
<text text-anchor="start" x="459.5219" y="-239.3" font-family="Helvetica,sans-Serif" font-size="11.00" fill="#000000">[table]</text>
<polygon fill="none" stroke="#000000" points="387,-212.2 387,-231.2 494,-231.2 494,-212.2 387,-212.2"/>
<text text-anchor="start" x="390" y="-218.3" font-family="Helvetica,sans-Serif" font-size="11.00" fill="#000000">...</text>
<polygon fill="#ffffff" stroke="transparent" points="387,-193.2 387,-212.2 494,-212.2 494,-193.2 387,-193.2"/>
<polygon fill="none" stroke="#000000" points="387,-193.2 387,-212.2 494,-212.2 494,-193.2 387,-193.2"/>
<polygon fill="#ffffff" stroke="transparent" points="388,-194.2 388,-211.2 429,-211.2 429,-194.2 388,-194.2"/>
<text text-anchor="start" x="390" y="-199.3" font-family="Helvetica,sans-Serif" font-size="11.00" fill="#000000">&lt; 1</text>
<polygon fill="#ffffff" stroke="transparent" points="429,-194.2 429,-211.2 461,-211.2 461,-194.2 429,-194.2"/>
<text text-anchor="start" x="441.9431" y="-199.3" font-family="Helvetica,sans-Serif" font-size="11.00" fill="#000000"> &#160;</text>
<polygon fill="#ffffff" stroke="transparent" points="461,-194.2 461,-211.2 493,-211.2 493,-194.2 461,-194.2"/>
<text text-anchor="start" x="484.8862" y="-199.3" font-family="Helvetica,sans-Serif" font-size="11.00" fill="#000000"> &#160;</text>
<polygon fill="#000000" stroke="#000000" points="429,-194.2 429,-211.2 429,-211.2 429,-194.2 429,-194.2"/>
<polygon fill="#000000" stroke="#000000" points="461,-194.2 461,-211.2 461,-211.2 461,-194.2 461,-194.2"/>
</a>
</g>
</g>
<!-- decisions&#45;&gt;summaries -->
<g id="edge2" class="edge">
<title>decisions:w&#45;&gt;summaries:e</title>
<path fill="none" stroke="#000000" d="M372.1775,-221.2C336.5301,-221.2 322.4714,-221.2 280.5,-221.2"/>
<polygon fill="#000000" stroke="#000000" points="379,-221.2001 387,-224.8 383,-221.2 387,-221.2 387,-221.2 387,-221.2 383,-221.2 387,-217.6 379,-221.2001 379,-221.2001"/>
<ellipse fill="none" stroke="#000000" cx="375.8" cy="-221.2001" rx="3.2" ry="3.2"/>
</g>
<!-- topics -->
<g id="node5" class="node">
<title>topics</title>
<g id="a_node5"><a xlink:href="../../tables/topics.html" xlink:title="topics" target="_top">
<polygon fill="#ffffff" stroke="transparent" points="329,-38.2 329,-172.2 551,-172.2 551,-38.2 329,-38.2"/>
<polygon fill="#f5f5f5" stroke="transparent" points="331,-147.2 331,-170.2 549,-170.2 549,-147.2 331,-147.2"/>
<polygon fill="none" stroke="#000000" points="331,-147.2 331,-170.2 549,-170.2 549,-147.2 331,-147.2"/>
<text text-anchor="start" x="336" y="-155.8" font-family="Helvetica,sans-Serif" font-weight="bold" font-size="11.00" fill="#000000">topics</text>
<text text-anchor="start" x="514.0437" y="-155.3" font-family="Helvetica,sans-Serif" font-size="11.00" fill="#000000">[table]</text>
<polygon fill="none" stroke="#000000" points="331,-125.2 331,-147.2 440,-147.2 440,-125.2 331,-125.2"/>
<image xlink:href="../../images/primaryKeys.png" width="11px" height="12px" preserveAspectRatio="xMinYMin meet" x="336" y="-142.2"/>
<text text-anchor="start" x="351" y="-132.3" font-family="Helvetica,sans-Serif" font-size="11.00" fill="#000000">id</text>
<polygon fill="none" stroke="#000000" points="440,-125.2 440,-147.2 549,-147.2 549,-125.2 440,-125.2"/>
<text text-anchor="start" x="443" y="-132.9" font-family="Helvetica,sans-Serif" font-size="11.00" fill="#000000">serial[10]</text>
<polygon fill="#ffffff" stroke="transparent" points="331,-103.2 331,-125.2 440,-125.2 440,-103.2 331,-103.2"/>
<polygon fill="none" stroke="#000000" points="331,-103.2 331,-125.2 440,-125.2 440,-103.2 331,-103.2"/>
<image xlink:href="../../images/foreignKeys.png" width="11px" height="12px" preserveAspectRatio="xMinYMin meet" x="336" y="-120.2"/>
<text text-anchor="start" x="351" y="-110.3" font-family="Helvetica,sans-Serif" font-size="11.00" fill="#000000">summary_id</text>
<polygon fill="none" stroke="#000000" points="440,-103.2 440,-125.2 549,-125.2 549,-103.2 440,-103.2"/>
<text text-anchor="start" x="443" y="-110.9" font-family="Helvetica,sans-Serif" font-size="11.00" fill="#000000">uuid[2147483647]</text>
<polygon fill="none" stroke="#000000" points="331,-81.2 331,-103.2 440,-103.2 440,-81.2 331,-81.2"/>
<text text-anchor="start" x="351" y="-88.3" font-family="Helvetica,sans-Serif" font-size="11.00" fill="#000000">title</text>
<polygon fill="none" stroke="#000000" points="440,-81.2 440,-103.2 549,-103.2 549,-81.2 440,-81.2"/>
<text text-anchor="start" x="442.5344" y="-88.9" font-family="Helvetica,sans-Serif" font-size="11.00" fill="#000000">varchar[2147483647]</text>
<polygon fill="none" stroke="#000000" points="331,-59.2 331,-81.2 440,-81.2 440,-59.2 331,-59.2"/>
<text text-anchor="start" x="351" y="-66.3" font-family="Helvetica,sans-Serif" font-size="11.00" fill="#000000">summary</text>
<polygon fill="none" stroke="#000000" points="440,-59.2 440,-81.2 549,-81.2 549,-59.2 440,-59.2"/>
<text text-anchor="start" x="442.5344" y="-66.9" font-family="Helvetica,sans-Serif" font-size="11.00" fill="#000000">varchar[2147483647]</text>
<polygon fill="#ffffff" stroke="transparent" points="331,-40.2 331,-59.2 549,-59.2 549,-40.2 331,-40.2"/>
<polygon fill="none" stroke="#000000" points="331,-40.2 331,-59.2 549,-59.2 549,-40.2 331,-40.2"/>
<polygon fill="#ffffff" stroke="transparent" points="332,-41.2 332,-58.2 407,-58.2 407,-41.2 332,-41.2"/>
<text text-anchor="start" x="334" y="-46.3" font-family="Helvetica,sans-Serif" font-size="11.00" fill="#000000">&lt; 1</text>
<polygon fill="#ffffff" stroke="transparent" points="407,-41.2 407,-58.2 473,-58.2 473,-41.2 407,-41.2"/>
<text text-anchor="start" x="436.9431" y="-46.3" font-family="Helvetica,sans-Serif" font-size="11.00" fill="#000000"> &#160;</text>
<polygon fill="#ffffff" stroke="transparent" points="473,-41.2 473,-58.2 548,-58.2 548,-41.2 473,-41.2"/>
<text text-anchor="start" x="530.4053" y="-46.3" font-family="Helvetica,sans-Serif" font-size="11.00" fill="#000000">0 &gt;</text>
<polygon fill="#000000" stroke="#000000" points="407,-41.2 407,-58.2 407,-58.2 407,-41.2 407,-41.2"/>
<polygon fill="#000000" stroke="#000000" points="473,-41.2 473,-58.2 473,-58.2 473,-41.2 473,-41.2"/>
<polygon fill="none" stroke="#000000" stroke-width="2" points="330,-39.2 330,-171.2 550,-171.2 550,-39.2 330,-39.2"/>
</a>
</g>
</g>
<!-- topics&#45;&gt;summaries -->
<g id="edge4" class="edge">
<title>topics:w&#45;&gt;summaries:e</title>
<path fill="none" stroke="#000000" d="M316.9464,-118.0082C289.4242,-137.0691 327.129,-221.2 280.5,-221.2"/>
<polygon fill="#000000" stroke="#000000" points="323.2785,-116.2924 331.9416,-117.6747 327.1392,-115.2462 331,-114.2 331,-114.2 331,-114.2 327.1392,-115.2462 330.0584,-110.7253 323.2785,-116.2924 323.2785,-116.2924"/>
<ellipse fill="none" stroke="#000000" cx="320.1898" cy="-117.1293" rx="3.2" ry="3.2"/>
</g>
</g>
</svg>
