<?xml version="1.0" encoding="UTF-8" standalone="no"?>
<!DOCTYPE svg PUBLIC "-//W3C//DTD SVG 1.1//EN"
 "http://www.w3.org/Graphics/SVG/1.1/DTD/svg11.dtd">
<!-- Generated by graphviz version 2.40.1 (20161225.0304)
 -->
<!-- Title: twoDegreesRelationshipsDiagram Pages: 1 -->
<svg width="611pt" height="598pt"
 viewBox="0.00 0.00 611.00 598.20" xmlns="http://www.w3.org/2000/svg" xmlns:xlink="http://www.w3.org/1999/xlink">
<g id="graph0" class="graph" transform="scale(1 1) rotate(0) translate(4 594.2)">
<title>twoDegreesRelationshipsDiagram</title>
<polygon fill="#ffffff" stroke="transparent" points="-4,4 -4,-594.2 607,-594.2 607,4 -4,4"/>
<text text-anchor="middle" x="72.4936" y="-7.3" font-family="Helvetica,sans-Serif" font-size="11.00" fill="#000000">Generated by SchemaSpy</text>
<!-- action_items -->
<g id="node1" class="node">
<title>action_items</title>
<g id="a_node1"><a xlink:href="../../tables/action_items.html" xlink:title="action_items" target="_top">
<polygon fill="#ffffff" stroke="transparent" points="464,-525.2 464,-586.2 595,-586.2 595,-525.2 464,-525.2"/>
<polygon fill="#f5f5f5" stroke="transparent" points="464.5,-562.7 464.5,-585.7 595.5,-585.7 595.5,-562.7 464.5,-562.7"/>
<polygon fill="none" stroke="#000000" points="464.5,-562.7 464.5,-585.7 595.5,-585.7 595.5,-562.7 464.5,-562.7"/>
<text text-anchor="start" x="469.5" y="-571.3" font-family="Helvetica,sans-Serif" font-weight="bold" font-size="11.00" fill="#000000">action_items</text>
<text text-anchor="start" x="561.0219" y="-570.8" font-family="Helvetica,sans-Serif" font-size="11.00" fill="#000000">[table]</text>
<polygon fill="none" stroke="#000000" points="464.5,-543.7 464.5,-562.7 595.5,-562.7 595.5,-543.7 464.5,-543.7"/>
<text text-anchor="start" x="467.5" y="-549.8" font-family="Helvetica,sans-Serif" font-size="11.00" fill="#000000">...</text>
<polygon fill="#ffffff" stroke="transparent" points="464.5,-524.7 464.5,-543.7 595.5,-543.7 595.5,-524.7 464.5,-524.7"/>
<polygon fill="none" stroke="#000000" points="464.5,-524.7 464.5,-543.7 595.5,-543.7 595.5,-524.7 464.5,-524.7"/>
<polygon fill="#ffffff" stroke="transparent" points="465.5,-525.7 465.5,-542.7 514.5,-542.7 514.5,-525.7 465.5,-525.7"/>
<text text-anchor="start" x="467.5" y="-530.8" font-family="Helvetica,sans-Serif" font-size="11.00" fill="#000000">&lt; 1</text>
<polygon fill="#ffffff" stroke="transparent" points="514.5,-525.7 514.5,-542.7 554.5,-542.7 554.5,-525.7 514.5,-525.7"/>
<text text-anchor="start" x="531.4431" y="-530.8" font-family="Helvetica,sans-Serif" font-size="11.00" fill="#000000"> &#160;</text>
<polygon fill="#ffffff" stroke="transparent" points="554.5,-525.7 554.5,-542.7 594.5,-542.7 594.5,-525.7 554.5,-525.7"/>
<text text-anchor="start" x="586.3862" y="-530.8" font-family="Helvetica,sans-Serif" font-size="11.00" fill="#000000"> &#160;</text>
<polygon fill="#000000" stroke="#000000" points="514.5,-525.7 514.5,-542.7 514.5,-542.7 514.5,-525.7 514.5,-525.7"/>
<polygon fill="#000000" stroke="#000000" points="554.5,-525.7 554.5,-542.7 554.5,-542.7 554.5,-525.7 554.5,-525.7"/>
</a>
</g>
</g>
<!-- summaries -->
<g id="node2" class="node">
<title>summaries</title>
<g id="a_node2"><a xlink:href="../../tables/summaries.html" xlink:title="summaries" target="_top">
<polygon fill="#ffffff" stroke="transparent" points="264,-378.2 264,-505.2 409,-505.2 409,-378.2 264,-378.2"/>
<polygon fill="#f5f5f5" stroke="transparent" points="264.5,-481.7 264.5,-504.7 409.5,-504.7 409.5,-481.7 264.5,-481.7"/>
<polygon fill="none" stroke="#000000" points="264.5,-481.7 264.5,-504.7 409.5,-504.7 409.5,-481.7 264.5,-481.7"/>
<text text-anchor="start" x="269.5" y="-490.3" font-family="Helvetica,sans-Serif" font-weight="bold" font-size="11.00" fill="#000000">summaries</text>
<text text-anchor="start" x="374.5437" y="-489.8" font-family="Helvetica,sans-Serif" font-size="11.00" fill="#000000">[table]</text>
<polygon fill="none" stroke="#000000" points="264.5,-459.7 264.5,-481.7 409.5,-481.7 409.5,-459.7 264.5,-459.7"/>
<image xlink:href="../../images/primaryKeys.png" width="11px" height="12px" preserveAspectRatio="xMinYMin meet" x="269.5" y="-476.7"/>
<text text-anchor="start" x="284.5" y="-466.8" font-family="Helvetica,sans-Serif" font-size="11.00" fill="#000000">id</text>
<polygon fill="#ffffff" stroke="transparent" points="264.5,-437.7 264.5,-459.7 409.5,-459.7 409.5,-437.7 264.5,-437.7"/>
<polygon fill="none" stroke="#000000" points="264.5,-437.7 264.5,-459.7 409.5,-459.7 409.5,-437.7 264.5,-437.7"/>
<text text-anchor="start" x="284.5" y="-444.8" font-family="Helvetica,sans-Serif" font-size="11.00" fill="#000000">content_hash</text>
<polygon fill="#ffffff" stroke="transparent" points="264.5,-415.7 264.5,-437.7 409.5,-437.7 409.5,-415.7 264.5,-415.7"/>
<polygon fill="none" stroke="#000000" points="264.5,-415.7 264.5,-437.7 409.5,-437.7 409.5,-415.7 264.5,-415.7"/>
<image xlink:href="../../images/foreignKeys.png" width="11px" height="12px" preserveAspectRatio="xMinYMin meet" x="269.5" y="-432.7"/>
<text text-anchor="start" x="284.5" y="-422.8" font-family="Helvetica,sans-Serif" font-size="11.00" fill="#000000">user_id</text>
<polygon fill="none" stroke="#000000" points="264.5,-396.7 264.5,-415.7 409.5,-415.7 409.5,-396.7 264.5,-396.7"/>
<text text-anchor="start" x="267.5" y="-402.8" font-family="Helvetica,sans-Serif" font-size="11.00" fill="#000000">...</text>
<polygon fill="#ffffff" stroke="transparent" points="264.5,-377.7 264.5,-396.7 409.5,-396.7 409.5,-377.7 264.5,-377.7"/>
<polygon fill="none" stroke="#000000" points="264.5,-377.7 264.5,-396.7 409.5,-396.7 409.5,-377.7 264.5,-377.7"/>
<polygon fill="#ffffff" stroke="transparent" points="265.5,-378.7 265.5,-395.7 316.5,-395.7 316.5,-378.7 265.5,-378.7"/>
<text text-anchor="start" x="267.5" y="-383.8" font-family="Helvetica,sans-Serif" font-size="11.00" fill="#000000">&lt; 1</text>
<polygon fill="#ffffff" stroke="transparent" points="316.5,-378.7 316.5,-395.7 358.5,-395.7 358.5,-378.7 316.5,-378.7"/>
<text text-anchor="start" x="334.4431" y="-383.8" font-family="Helvetica,sans-Serif" font-size="11.00" fill="#000000"> &#160;</text>
<polygon fill="#ffffff" stroke="transparent" points="358.5,-378.7 358.5,-395.7 408.5,-395.7 408.5,-378.7 358.5,-378.7"/>
<text text-anchor="start" x="390.9053" y="-383.8" font-family="Helvetica,sans-Serif" font-size="11.00" fill="#000000">3 &gt;</text>
<polygon fill="#000000" stroke="#000000" points="316.5,-378.7 316.5,-395.7 316.5,-395.7 316.5,-378.7 316.5,-378.7"/>
<polygon fill="#000000" stroke="#000000" points="358.5,-378.7 358.5,-395.7 358.5,-395.7 358.5,-378.7 358.5,-378.7"/>
</a>
</g>
</g>
<!-- action_items&#45;&gt;summaries -->
<g id="edge1" class="edge">
<title>action_items:w&#45;&gt;summaries:e</title>
<path fill="none" stroke="#000000" d="M450.4075,-548.5209C428.1437,-531.8109 447.3835,-470.7 409.5,-470.7"/>
<polygon fill="#000000" stroke="#000000" points="456.8301,-550.4255 463.4765,-556.1514 460.6651,-551.5627 464.5,-552.7 464.5,-552.7 464.5,-552.7 460.6651,-551.5627 465.5235,-549.2486 456.8301,-550.4255 456.8301,-550.4255"/>
<ellipse fill="none" stroke="#000000" cx="453.7622" cy="-549.5157" rx="3.2" ry="3.2"/>
</g>
<!-- users -->
<g id="node5" class="node">
<title>users</title>
<g id="a_node5"><a xlink:href="../../tables/users.html" xlink:title="users" target="_top">
<polygon fill="#ffffff" stroke="transparent" points="8,-180.7 8,-336.7 209,-336.7 209,-180.7 8,-180.7"/>
<polygon fill="#f5f5f5" stroke="transparent" points="10.5,-311.7 10.5,-334.7 207.5,-334.7 207.5,-311.7 10.5,-311.7"/>
<polygon fill="none" stroke="#000000" points="10.5,-311.7 10.5,-334.7 207.5,-334.7 207.5,-311.7 10.5,-311.7"/>
<text text-anchor="start" x="15.5" y="-320.3" font-family="Helvetica,sans-Serif" font-weight="bold" font-size="11.00" fill="#000000">users</text>
<text text-anchor="start" x="172.5437" y="-319.8" font-family="Helvetica,sans-Serif" font-size="11.00" fill="#000000">[table]</text>
<polygon fill="none" stroke="#000000" points="10.5,-289.7 10.5,-311.7 113.5,-311.7 113.5,-289.7 10.5,-289.7"/>
<image xlink:href="../../images/primaryKeys.png" width="11px" height="12px" preserveAspectRatio="xMinYMin meet" x="15.5" y="-306.7"/>
<text text-anchor="start" x="30.5" y="-296.8" font-family="Helvetica,sans-Serif" font-size="11.00" fill="#000000">id</text>
<polygon fill="none" stroke="#000000" points="113.5,-289.7 113.5,-311.7 207.5,-311.7 207.5,-289.7 113.5,-289.7"/>
<text text-anchor="start" x="116.4758" y="-297.4" font-family="Helvetica,sans-Serif" font-size="11.00" fill="#000000">uuid[2147483647]</text>
<polygon fill="none" stroke="#000000" points="10.5,-267.7 10.5,-289.7 113.5,-289.7 113.5,-267.7 10.5,-267.7"/>
<text text-anchor="start" x="30.5" y="-274.8" font-family="Helvetica,sans-Serif" font-size="11.00" fill="#000000">email</text>
<polygon fill="none" stroke="#000000" points="113.5,-267.7 113.5,-289.7 207.5,-289.7 207.5,-267.7 113.5,-267.7"/>
<text text-anchor="start" x="116.5" y="-275.4" font-family="Helvetica,sans-Serif" font-size="11.00" fill="#000000">varchar[320]</text>
<polygon fill="none" stroke="#000000" points="10.5,-245.7 10.5,-267.7 113.5,-267.7 113.5,-245.7 10.5,-245.7"/>
<text text-anchor="start" x="30.5" y="-252.8" font-family="Helvetica,sans-Serif" font-size="11.00" fill="#000000">name</text>
<polygon fill="none" stroke="#000000" points="113.5,-245.7 113.5,-267.7 207.5,-267.7 207.5,-245.7 113.5,-245.7"/>
<text text-anchor="start" x="116.5" y="-253.4" font-family="Helvetica,sans-Serif" font-size="11.00" fill="#000000">varchar[255]</text>
<polygon fill="none" stroke="#000000" points="10.5,-223.7 10.5,-245.7 113.5,-245.7 113.5,-223.7 10.5,-223.7"/>
<text text-anchor="start" x="30.5" y="-230.8" font-family="Helvetica,sans-Serif" font-size="11.00" fill="#000000">created_at</text>
<polygon fill="none" stroke="#000000" points="113.5,-223.7 113.5,-245.7 207.5,-245.7 207.5,-223.7 113.5,-223.7"/>
<text text-anchor="start" x="116.5" y="-231.4" font-family="Helvetica,sans-Serif" font-size="11.00" fill="#000000">timestamptz[35,6]</text>
<polygon fill="none" stroke="#000000" points="10.5,-201.7 10.5,-223.7 113.5,-223.7 113.5,-201.7 10.5,-201.7"/>
<text text-anchor="start" x="30.5" y="-208.8" font-family="Helvetica,sans-Serif" font-size="11.00" fill="#000000">updated_at</text>
<polygon fill="none" stroke="#000000" points="113.5,-201.7 113.5,-223.7 207.5,-223.7 207.5,-201.7 113.5,-201.7"/>
<text text-anchor="start" x="116.5" y="-209.4" font-family="Helvetica,sans-Serif" font-size="11.00" fill="#000000">timestamptz[35,6]</text>
<polygon fill="#ffffff" stroke="transparent" points="10.5,-182.7 10.5,-201.7 207.5,-201.7 207.5,-182.7 10.5,-182.7"/>
<polygon fill="none" stroke="#000000" points="10.5,-182.7 10.5,-201.7 207.5,-201.7 207.5,-182.7 10.5,-182.7"/>
<polygon fill="#ffffff" stroke="transparent" points="11.5,-183.7 11.5,-200.7 79.5,-200.7 79.5,-183.7 11.5,-183.7"/>
<text text-anchor="start" x="13.5" y="-188.8" font-family="Helvetica,sans-Serif" font-size="11.00" fill="#000000">&lt; 0</text>
<polygon fill="#ffffff" stroke="transparent" points="79.5,-183.7 79.5,-200.7 138.5,-200.7 138.5,-183.7 79.5,-183.7"/>
<text text-anchor="start" x="105.9431" y="-188.8" font-family="Helvetica,sans-Serif" font-size="11.00" fill="#000000"> &#160;</text>
<polygon fill="#ffffff" stroke="transparent" points="138.5,-183.7 138.5,-200.7 206.5,-200.7 206.5,-183.7 138.5,-183.7"/>
<text text-anchor="start" x="188.9053" y="-188.8" font-family="Helvetica,sans-Serif" font-size="11.00" fill="#000000">3 &gt;</text>
<polygon fill="#000000" stroke="#000000" points="79.5,-183.7 79.5,-200.7 79.5,-200.7 79.5,-183.7 79.5,-183.7"/>
<polygon fill="#000000" stroke="#000000" points="138.5,-183.7 138.5,-200.7 138.5,-200.7 138.5,-183.7 138.5,-183.7"/>
<polygon fill="none" stroke="#000000" stroke-width="2" points="9,-181.7 9,-335.7 208,-335.7 208,-181.7 9,-181.7"/>
</a>
</g>
</g>
<!-- summaries&#45;&gt;users -->
<g id="edge4" class="edge">
<title>summaries:w&#45;&gt;users:e</title>
<path fill="none" stroke="#000000" d="M250.3624,-423.5854C214.2781,-404.1824 263.2014,-300.7 207.5,-300.7"/>
<polygon fill="#000000" stroke="#000000" points="256.6873,-424.9788 263.7254,-430.2157 260.5937,-425.8394 264.5,-426.7 264.5,-426.7 264.5,-426.7 260.5937,-425.8394 265.2746,-423.1843 256.6873,-424.9788 256.6873,-424.9788"/>
<ellipse fill="none" stroke="#000000" cx="253.5623" cy="-424.2903" rx="3.2" ry="3.2"/>
</g>
<!-- decisions -->
<g id="node3" class="node">
<title>decisions</title>
<g id="a_node3"><a xlink:href="../../tables/decisions.html" xlink:title="decisions" target="_top">
<polygon fill="#ffffff" stroke="transparent" points="476,-443.2 476,-504.2 583,-504.2 583,-443.2 476,-443.2"/>
<polygon fill="#f5f5f5" stroke="transparent" points="476.5,-480.7 476.5,-503.7 583.5,-503.7 583.5,-480.7 476.5,-480.7"/>
<polygon fill="none" stroke="#000000" points="476.5,-480.7 476.5,-503.7 583.5,-503.7 583.5,-480.7 476.5,-480.7"/>
<text text-anchor="start" x="481.5" y="-489.3" font-family="Helvetica,sans-Serif" font-weight="bold" font-size="11.00" fill="#000000">decisions</text>
<text text-anchor="start" x="549.0219" y="-488.8" font-family="Helvetica,sans-Serif" font-size="11.00" fill="#000000">[table]</text>
<polygon fill="none" stroke="#000000" points="476.5,-461.7 476.5,-480.7 583.5,-480.7 583.5,-461.7 476.5,-461.7"/>
<text text-anchor="start" x="479.5" y="-467.8" font-family="Helvetica,sans-Serif" font-size="11.00" fill="#000000">...</text>
<polygon fill="#ffffff" stroke="transparent" points="476.5,-442.7 476.5,-461.7 583.5,-461.7 583.5,-442.7 476.5,-442.7"/>
<polygon fill="none" stroke="#000000" points="476.5,-442.7 476.5,-461.7 583.5,-461.7 583.5,-442.7 476.5,-442.7"/>
<polygon fill="#ffffff" stroke="transparent" points="477.5,-443.7 477.5,-460.7 518.5,-460.7 518.5,-443.7 477.5,-443.7"/>
<text text-anchor="start" x="479.5" y="-448.8" font-family="Helvetica,sans-Serif" font-size="11.00" fill="#000000">&lt; 1</text>
<polygon fill="#ffffff" stroke="transparent" points="518.5,-443.7 518.5,-460.7 550.5,-460.7 550.5,-443.7 518.5,-443.7"/>
<text text-anchor="start" x="531.4431" y="-448.8" font-family="Helvetica,sans-Serif" font-size="11.00" fill="#000000"> &#160;</text>
<polygon fill="#ffffff" stroke="transparent" points="550.5,-443.7 550.5,-460.7 582.5,-460.7 582.5,-443.7 550.5,-443.7"/>
<text text-anchor="start" x="574.3862" y="-448.8" font-family="Helvetica,sans-Serif" font-size="11.00" fill="#000000"> &#160;</text>
<polygon fill="#000000" stroke="#000000" points="518.5,-443.7 518.5,-460.7 518.5,-460.7 518.5,-443.7 518.5,-443.7"/>
<polygon fill="#000000" stroke="#000000" points="550.5,-443.7 550.5,-460.7 550.5,-460.7 550.5,-443.7 550.5,-443.7"/>
</a>
</g>
</g>
<!-- decisions&#45;&gt;summaries -->
<g id="edge2" class="edge">
<title>decisions:w&#45;&gt;summaries:e</title>
<path fill="none" stroke="#000000" d="M462.0809,-470.7C443.2359,-470.7 433.8108,-470.7 409.5,-470.7"/>
<polygon fill="#000000" stroke="#000000" points="468.5,-470.7001 476.5,-474.3 472.5,-470.7 476.5,-470.7 476.5,-470.7 476.5,-470.7 472.5,-470.7 476.5,-467.1 468.5,-470.7001 468.5,-470.7001"/>
<ellipse fill="none" stroke="#000000" cx="465.3" cy="-470.7001" rx="3.2" ry="3.2"/>
</g>
<!-- oauth_identities -->
<g id="node4" class="node">
<title>oauth_identities</title>
<g id="a_node4"><a xlink:href="../../tables/oauth_identities.html" xlink:title="oauth_identities" target="_top">
<polygon fill="#ffffff" stroke="transparent" points="258,-208.2 258,-357.2 415,-357.2 415,-208.2 258,-208.2"/>
<polygon fill="#f5f5f5" stroke="transparent" points="258.5,-333.7 258.5,-356.7 415.5,-356.7 415.5,-333.7 258.5,-333.7"/>
<polygon fill="none" stroke="#000000" points="258.5,-333.7 258.5,-356.7 415.5,-356.7 415.5,-333.7 258.5,-333.7"/>
<text text-anchor="start" x="263.5" y="-342.3" font-family="Helvetica,sans-Serif" font-weight="bold" font-size="11.00" fill="#000000">oauth_identities</text>
<text text-anchor="start" x="381.0219" y="-341.8" font-family="Helvetica,sans-Serif" font-size="11.00" fill="#000000">[table]</text>
<polygon fill="none" stroke="#000000" points="258.5,-311.7 258.5,-333.7 415.5,-333.7 415.5,-311.7 258.5,-311.7"/>
<image xlink:href="../../images/primaryKeys.png" width="11px" height="12px" preserveAspectRatio="xMinYMin meet" x="263.5" y="-328.7"/>
<text text-anchor="start" x="287.5" y="-318.8" font-family="Helvetica,sans-Serif" font-size="11.00" fill="#000000">id</text>
<polygon fill="#ffffff" stroke="transparent" points="258.5,-289.7 258.5,-311.7 415.5,-311.7 415.5,-289.7 258.5,-289.7"/>
<polygon fill="none" stroke="#000000" points="258.5,-289.7 258.5,-311.7 415.5,-311.7 415.5,-289.7 258.5,-289.7"/>
<image xlink:href="../../images/foreignKeys.png" width="11px" height="12px" preserveAspectRatio="xMinYMin meet" x="263.5" y="-306.7"/>
<text text-anchor="start" x="287.5" y="-296.8" font-family="Helvetica,sans-Serif" font-size="11.00" fill="#000000">user_id</text>
<polygon fill="#ffffff" stroke="transparent" points="258.5,-267.7 258.5,-289.7 415.5,-289.7 415.5,-267.7 258.5,-267.7"/>
<polygon fill="none" stroke="#000000" points="258.5,-267.7 258.5,-289.7 415.5,-289.7 415.5,-267.7 258.5,-267.7"/>
<text text-anchor="start" x="287.5" y="-274.8" font-family="Helvetica,sans-Serif" font-size="11.00" fill="#000000">provider</text>
<polygon fill="#ffffff" stroke="transparent" points="258.5,-245.7 258.5,-267.7 415.5,-267.7 415.5,-245.7 258.5,-245.7"/>
<polygon fill="none" stroke="#000000" points="258.5,-245.7 258.5,-267.7 415.5,-267.7 415.5,-245.7 258.5,-245.7"/>
<text text-anchor="start" x="287.5" y="-252.8" font-family="Helvetica,sans-Serif" font-size="11.00" fill="#000000">subject</text>
<polygon fill="none" stroke="#000000" points="258.5,-226.7 258.5,-245.7 415.5,-245.7 415.5,-226.7 258.5,-226.7"/>
<text text-anchor="start" x="261.5" y="-232.8" font-family="Helvetica,sans-Serif" font-size="11.00" fill="#000000">...</text>
<polygon fill="#ffffff" stroke="transparent" points="258.5,-207.7 258.5,-226.7 415.5,-226.7 415.5,-207.7 258.5,-207.7"/>
<polygon fill="none" stroke="#000000" points="258.5,-207.7 258.5,-226.7 415.5,-226.7 415.5,-207.7 258.5,-207.7"/>
<polygon fill="#ffffff" stroke="transparent" points="259.5,-208.7 259.5,-225.7 317.5,-225.7 317.5,-208.7 259.5,-208.7"/>
<text text-anchor="start" x="261.5" y="-213.8" font-family="Helvetica,sans-Serif" font-size="11.00" fill="#000000">&lt; 1</text>
<polygon fill="#ffffff" stroke="transparent" points="317.5,-208.7 317.5,-225.7 366.5,-225.7 366.5,-208.7 317.5,-208.7"/>
<text text-anchor="start" x="338.9431" y="-213.8" font-family="Helvetica,sans-Serif" font-size="11.00" fill="#000000"> &#160;</text>
<polygon fill="#ffffff" stroke="transparent" points="366.5,-208.7 366.5,-225.7 414.5,-225.7 414.5,-208.7 366.5,-208.7"/>
<text text-anchor="start" x="406.3862" y="-213.8" font-family="Helvetica,sans-Serif" font-size="11.00" fill="#000000"> &#160;</text>
<polygon fill="#000000" stroke="#000000" points="317.5,-208.7 317.5,-225.7 317.5,-225.7 317.5,-208.7 317.5,-208.7"/>
<polygon fill="#000000" stroke="#000000" points="366.5,-208.7 366.5,-225.7 366.5,-225.7 366.5,-208.7 366.5,-208.7"/>
</a>
</g>
</g>
<!-- oauth_identities&#45;&gt;users -->
<g id="edge3" class="edge">
<title>oauth_identities:w&#45;&gt;users:e</title>
<path fill="none" stroke="#000000" d="M243.776,-300.7C231.7815,-300.7 224.3229,-300.7 207.5,-300.7"/>
<polygon fill="#000000" stroke="#000000" points="250.5,-300.7001 258.5,-304.3 254.5,-300.7 258.5,-300.7 258.5,-300.7 258.5,-300.7 254.5,-300.7 258.5,-297.1 250.5,-300.7001 250.5,-300.7001"/>
<ellipse fill="none" stroke="#000000" cx="247.3" cy="-300.7001" rx="3.2" ry="3.2"/>
</g>
<!-- topics -->
<g id="node6" class="node">
<title>topics</title>
<g id="a_node6"><a xlink:href="../../tables/topics.html" xlink:title="topics" target="_top">
<polygon fill="#ffffff" stroke="transparent" points="488,-361.2 488,-422.2 571,-422.2 571,-361.2 488,-361.2"/>
<polygon fill="#f5f5f5" stroke="transparent" points="488.5,-398.7 488.5,-421.7 571.5,-421.7 571.5,-398.7 488.5,-398.7"/>
<polygon fill="none" stroke="#000000" points="488.5,-398.7 488.5,-421.7 571.5,-421.7 571.5,-398.7 488.5,-398.7"/>
<text text-anchor="start" x="493.5" y="-407.3" font-family="Helvetica,sans-Serif" font-weight="bold" font-size="11.00" fill="#000000">topics</text>
<text text-anchor="start" x="537.0219" y="-406.8" font-family="Helvetica,sans-Serif" font-size="11.00" fill="#000000">[table]</text>
<polygon fill="none" stroke="#000000" points="488.5,-379.7 488.5,-398.7 571.5,-398.7 571.5,-379.7 488.5,-379.7"/>
<text text-anchor="start" x="491.5" y="-385.8" font-family="Helvetica,sans-Serif" font-size="11.00" fill="#000000">...</text>
<polygon fill="#ffffff" stroke="transparent" points="488.5,-360.7 488.5,-379.7 571.5,-379.7 571.5,-360.7 488.5,-360.7"/>
<polygon fill="none" stroke="#000000" points="488.5,-360.7 488.5,-379.7 571.5,-379.7 571.5,-360.7 488.5,-360.7"/>
<polygon fill="#ffffff" stroke="transparent" points="489.5,-361.7 489.5,-378.7 522.5,-378.7 522.5,-361.7 489.5,-361.7"/>
<text text-anchor="start" x="491.5" y="-366.8" font-family="Helvetica,sans-Serif" font-size="11.00" fill="#000000">&lt; 1</text>
<polygon fill="#ffffff" stroke="transparent" points="522.5,-361.7 522.5,-378.7 546.5,-378.7 546.5,-361.7 522.5,-361.7"/>
<text text-anchor="start" x="531.4431" y="-366.8" font-family="Helvetica,sans-Serif" font-size="11.00" fill="#000000"> &#160;</text>
<polygon fill="#ffffff" stroke="transparent" points="546.5,-361.7 546.5,-378.7 570.5,-378.7 570.5,-361.7 546.5,-361.7"/>
<text text-anchor="start" x="562.3862" y="-366.8" font-family="Helvetica,sans-Serif" font-size="11.00" fill="#000000"> &#160;</text>
<polygon fill="#000000" stroke="#000000" points="522.5,-361.7 522.5,-378.7 522.5,-378.7 522.5,-361.7 522.5,-361.7"/>
<polygon fill="#000000" stroke="#000000" points="546.5,-361.7 546.5,-378.7 546.5,-378.7 546.5,-361.7 546.5,-361.7"/>
</a>
</g>
</g>
<!-- topics&#45;&gt;summaries -->
<g id="edge5" class="edge">
<title>topics:w&#45;&gt;summaries:e</title>
<path fill="none" stroke="#000000" d="M474.3176,-391.4283C441.8816,-405.6565 454.5711,-470.7 409.5,-470.7"/>
<polygon fill="#000000" stroke="#000000" points="480.644,-390.2113 489.1801,-392.2352 484.572,-389.4557 488.5,-388.7 488.5,-388.7 488.5,-388.7 484.572,-389.4557 487.8199,-385.1648 480.644,-390.2113 480.644,-390.2113"/>
<ellipse fill="none" stroke="#000000" cx="477.5017" cy="-390.8158" rx="3.2" ry="3.2"/>
</g>
<!-- user_sessions -->
<g id="node7" class="node">
<title>user_sessions</title>
<g id="a_node7"><a xlink:href="../../tables/user_sessions.html" xlink:title="user_sessions" target="_top">
<polygon fill="#ffffff" stroke="transparent" points="266.5,-38.2 266.5,-187.2 406.5,-187.2 406.5,-38.2 266.5,-38.2"/>
<polygon fill="#f5f5f5" stroke="transparent" points="266.5,-163.7 266.5,-186.7 406.5,-186.7 406.5,-163.7 266.5,-163.7"/>
<polygon fill="none" stroke="#000000" points="266.5,-163.7 266.5,-186.7 406.5,-186.7 406.5,-163.7 266.5,-163.7"/>
<text text-anchor="start" x="271.5" y="-172.3" font-family="Helvetica,sans-Serif" font-weight="bold" font-size="11.00" fill="#000000">user_sessions</text>
<text text-anchor="start" x="372.0219" y="-171.8" font-family="Helvetica,sans-Serif" font-size="11.00" fill="#000000">[table]</text>
<polygon fill="none" stroke="#000000" points="266.5,-141.7 266.5,-163.7 406.5,-163.7 406.5,-141.7 266.5,-141.7"/>
<image xlink:href="../../images/primaryKeys.png" width="11px" height="12px" preserveAspectRatio="xMinYMin meet" x="271.5" y="-158.7"/>
<text text-anchor="start" x="295.5" y="-148.8" font-family="Helvetica,sans-Serif" font-size="11.00" fill="#000000">id</text>
<polygon fill="#ffffff" stroke="transparent" points="266.5,-119.7 266.5,-141.7 406.5,-141.7 406.5,-119.7 266.5,-119.7"/>
<polygon fill="none" stroke="#000000" points="266.5,-119.7 266.5,-141.7 406.5,-141.7 406.5,-119.7 266.5,-119.7"/>
<image xlink:href="../../images/foreignKeys.png" width="11px" height="12px" preserveAspectRatio="xMinYMin meet" x="271.5" y="-136.7"/>
<text text-anchor="start" x="295.5" y="-126.8" font-family="Helvetica,sans-Serif" font-size="11.00" fill="#000000">user_id</text>
<polygon fill="#ffffff" stroke="transparent" points="266.5,-97.7 266.5,-119.7 406.5,-119.7 406.5,-97.7 266.5,-97.7"/>
<polygon fill="none" stroke="#000000" points="266.5,-97.7 266.5,-119.7 406.5,-119.7 406.5,-97.7 266.5,-97.7"/>
<text text-anchor="start" x="295.5" y="-104.8" font-family="Helvetica,sans-Serif" font-size="11.00" fill="#000000">token_hash</text>
<polygon fill="#ffffff" stroke="transparent" points="266.5,-75.7 266.5,-97.7 406.5,-97.7 406.5,-75.7 266.5,-75.7"/>
<polygon fill="none" stroke="#000000" points="266.5,-75.7 266.5,-97.7 406.5,-97.7 406.5,-75.7 266.5,-75.7"/>
<text text-anchor="start" x="295.5" y="-82.8" font-family="Helvetica,sans-Serif" font-size="11.00" fill="#000000">expires_at</text>
<polygon fill="none" stroke="#000000" points="266.5,-56.7 266.5,-75.7 406.5,-75.7 406.5,-56.7 266.5,-56.7"/>
<text text-anchor="start" x="269.5" y="-62.8" font-family="Helvetica,sans-Serif" font-size="11.00" fill="#000000">...</text>
<polygon fill="#ffffff" stroke="transparent" points="266.5,-37.7 266.5,-56.7 406.5,-56.7 406.5,-37.7 266.5,-37.7"/>
<polygon fill="none" stroke="#000000" points="266.5,-37.7 266.5,-56.7 406.5,-56.7 406.5,-37.7 266.5,-37.7"/>
<polygon fill="#ffffff" stroke="transparent" points="267.5,-38.7 267.5,-55.7 319.5,-55.7 319.5,-38.7 267.5,-38.7"/>
<text text-anchor="start" x="269.5" y="-43.8" font-family="Helvetica,sans-Serif" font-size="11.00" fill="#000000">&lt; 1</text>
<polygon fill="#ffffff" stroke="transparent" points="319.5,-38.7 319.5,-55.7 362.5,-55.7 362.5,-38.7 319.5,-38.7"/>
<text text-anchor="start" x="337.9431" y="-43.8" font-family="Helvetica,sans-Serif" font-size="11.00" fill="#000000"> &#160;</text>
<polygon fill="#ffffff" stroke="transparent" points="362.5,-38.7 362.5,-55.7 405.5,-55.7 405.5,-38.7 362.5,-38.7"/>
<text text-anchor="start" x="397.3862" y="-43.8" font-family="Helvetica,sans-Serif" font-size="11.00" fill="#000000"> &#160;</text>
<polygon fill="#000000" stroke="#000000" points="319.5,-38.7 319.5,-55.7 319.5,-55.7 319.5,-38.7 319.5,-38.7"/>
<polygon fill="#000000" stroke="#000000" points="362.5,-38.7 362.5,-55.7 362.5,-55.7 362.5,-38.7 362.5,-38.7"/>
</a>
</g>
</g>
<!-- user_sessions&#45;&gt;users -->
<g id="edge6" class="edge">
<title>user_sessions:w&#45;&gt;users:e</title>
<path fill="none" stroke="#000000" d="M252.1876,-133.1032C199.8255,-153.7658 281.8532,-300.7 207.5,-300.7"/>
<polygon fill="#000000" stroke="#000000" points="258.6104,-132.0248 267.0961,-134.2503 262.5552,-131.3624 266.5,-130.7 266.5,-130.7 266.5,-130.7 262.5552,-131.3624 265.9039,-127.1497 258.6104,-132.0248 258.6104,-132.0248"/>
<ellipse fill="none" stroke="#000000" cx="255.4546" cy="-132.5547" rx="3.2" ry="3.2"/>
</g>
</g>
</svg>
