<?xml version="1.0" encoding="UTF-8" standalone="no"?>
<!DOCTYPE svg PUBLIC "-//W3C//DTD SVG 1.1//EN"
 "http://www.w3.org/Graphics/SVG/1.1/DTD/svg11.dtd">
<!-- Generated by graphviz version 2.40.1 (20161225.0304)
 -->
<!-- Title: twoDegreesRelationshipsDiagram Pages: 1 -->
<svg width="396pt" height="377pt"
 viewBox="0.00 0.00 396.00 376.70" xmlns="http://www.w3.org/2000/svg" xmlns:xlink="http://www.w3.org/1999/xlink">
<g id="graph0" class="graph" transform="scale(1 1) rotate(0) translate(4 372.7)">
<title>twoDegreesRelationshipsDiagram</title>
<polygon fill="#ffffff" stroke="transparent" points="-4,4 -4,-372.7 392,-372.7 392,4 -4,4"/>
<text text-anchor="middle" x="72.4936" y="-7.3" font-family="Helvetica,sans-Serif" font-size="11.00" fill="#000000">Generated by SchemaSpy</text>
<!-- summaries -->
<g id="node1" class="node">
<title>summaries</title>
<g id="a_node1"><a xlink:href="../../tables/summaries.html" xlink:title="summaries" target="_top">
<polygon fill="#ffffff" stroke="transparent" points="210.5,-303.7 210.5,-364.7 329.5,-364.7 329.5,-303.7 210.5,-303.7"/>
<polygon fill="#f5f5f5" stroke="transparent" points="211,-341.2 211,-364.2 330,-364.2 330,-341.2 211,-341.2"/>
<polygon fill="none" stroke="#000000" points="211,-341.2 211,-364.2 330,-364.2 330,-341.2 211,-341.2"/>
<text text-anchor="start" x="216" y="-349.8" font-family="Helvetica,sans-Serif" font-weight="bold" font-size="11.00" fill="#000000">summaries</text>
<text text-anchor="start" x="295.5219" y="-349.3" font-family="Helvetica,sans-Serif" font-size="11.00" fill="#000000">[table]</text>
<polygon fill="none" stroke="#000000" points="211,-322.2 211,-341.2 330,-341.2 330,-322.2 211,-322.2"/>
<text text-anchor="start" x="214" y="-328.3" font-family="Helvetica,sans-Serif" font-size="11.00" fill="#000000">...</text>
<polygon fill="#ffffff" stroke="transparent" points="211,-303.2 211,-322.2 330,-322.2 330,-303.2 211,-303.2"/>
<polygon fill="none" stroke="#000000" points="211,-303.2 211,-322.2 330,-322.2 330,-303.2 211,-303.2"/>
<polygon fill="#ffffff" stroke="transparent" points="212,-304.2 212,-321.2 254,-321.2 254,-304.2 212,-304.2"/>
<text text-anchor="start" x="214" y="-309.3" font-family="Helvetica,sans-Serif" font-size="11.00" fill="#000000">&lt; 1</text>
<polygon fill="#ffffff" stroke="transparent" points="254,-304.2 254,-321.2 287,-321.2 287,-304.2 254,-304.2"/>
<text text-anchor="start" x="267.4431" y="-309.3" font-family="Helvetica,sans-Serif" font-size="11.00" fill="#000000"> &#160;</text>
<polygon fill="#ffffff" stroke="transparent" points="287,-304.2 287,-321.2 329,-321.2 329,-304.2 287,-304.2"/>
<text text-anchor="start" x="311.4053" y="-309.3" font-family="Helvetica,sans-Serif" font-size="11.00" fill="#000000">3 &gt;</text>
<polygon fill="#000000" stroke="#000000" points="254,-304.2 254,-321.2 254,-321.2 254,-304.2 254,-304.2"/>
<polygon fill="#000000" stroke="#000000" points="287,-304.2 287,-321.2 287,-321.2 287,-304.2 287,-304.2"/>
</a>
</g>
</g>
<!-- users -->
<g id="node2" class="node">
<title>users</title>
<g id="a_node2"><a xlink:href="../../tables/users.html" xlink:title="users" target="_top">
<polygon fill="#ffffff" stroke="transparent" points="8,-184.7 8,-311.7 111,-311.7 111,-184.7 8,-184.7"/>
<polygon fill="#f5f5f5" stroke="transparent" points="8.5,-288.2 8.5,-311.2 111.5,-311.2 111.5,-288.2 8.5,-288.2"/>
<polygon fill="none" stroke="#000000" points="8.5,-288.2 8.5,-311.2 111.5,-311.2 111.5,-288.2 8.5,-288.2"/>
<text text-anchor="start" x="13.5" y="-296.8" font-family="Helvetica,sans-Serif" font-weight="bold" font-size="11.00" fill="#000000">users</text>
<text text-anchor="start" x="76.5437" y="-296.3" font-family="Helvetica,sans-Serif" font-size="11.00" fill="#000000">[table]</text>
<polygon fill="none" stroke="#000000" points="8.5,-266.2 8.5,-288.2 111.5,-288.2 111.5,-266.2 8.5,-266.2"/>
<image xlink:href="../../images/primaryKeys.png" width="11px" height="12px" preserveAspectRatio="xMinYMin meet" x="13.5" y="-283.2"/>
<text text-anchor="start" x="28.5" y="-273.3" font-family="Helvetica,sans-Serif" font-size="11.00" fill="#000000">id</text>
<polygon fill="#ffffff" stroke="transparent" points="8.5,-244.2 8.5,-266.2 111.5,-266.2 111.5,-244.2 8.5,-244.2"/>
<polygon fill="none" stroke="#000000" points="8.5,-244.2 8.5,-266.2 111.5,-266.2 111.5,-244.2 8.5,-244.2"/>
<text text-anchor="start" x="28.5" y="-251.3" font-family="Helvetica,sans-Serif" font-size="11.00" fill="#000000">google_sub</text>
<polygon fill="#ffffff" stroke="transparent" points="8.5,-222.2 8.5,-244.2 111.5,-244.2 111.5,-222.2 8.5,-222.2"/>
<polygon fill="none" stroke="#000000" points="8.5,-222.2 8.5,-244.2 111.5,-244.2 111.5,-222.2 8.5,-222.2"/>
<text text-anchor="start" x="28.5" y="-229.3" font-family="Helvetica,sans-Serif" font-size="11.00" fill="#000000">email</text>
<polygon fill="none" stroke="#000000" points="8.5,-203.2 8.5,-222.2 111.5,-222.2 111.5,-203.2 8.5,-203.2"/>
<text text-anchor="start" x="11.5" y="-209.3" font-family="Helvetica,sans-Serif" font-size="11.00" fill="#000000">...</text>
<polygon fill="#ffffff" stroke="transparent" points="8.5,-184.2 8.5,-203.2 111.5,-203.2 111.5,-184.2 8.5,-184.2"/>
<polygon fill="none" stroke="#000000" points="8.5,-184.2 8.5,-203.2 111.5,-203.2 111.5,-184.2 8.5,-184.2"/>
<polygon fill="#ffffff" stroke="transparent" points="9.5,-185.2 9.5,-202.2 40.5,-202.2 40.5,-185.2 9.5,-185.2"/>
<text text-anchor="start" x="11.5" y="-190.3" font-family="Helvetica,sans-Serif" font-size="11.00" fill="#000000"> &#160;</text>
<polygon fill="#ffffff" stroke="transparent" points="40.5,-185.2 40.5,-202.2 71.5,-202.2 71.5,-185.2 40.5,-185.2"/>
<text text-anchor="start" x="52.9431" y="-190.3" font-family="Helvetica,sans-Serif" font-size="11.00" fill="#000000"> &#160;</text>
<polygon fill="#ffffff" stroke="transparent" points="71.5,-185.2 71.5,-202.2 110.5,-202.2 110.5,-185.2 71.5,-185.2"/>
<text text-anchor="start" x="92.9053" y="-190.3" font-family="Helvetica,sans-Serif" font-size="11.00" fill="#000000">2 &gt;</text>
<polygon fill="#000000" stroke="#000000" points="40.5,-185.2 40.5,-202.2 40.5,-202.2 40.5,-185.2 40.5,-185.2"/>
<polygon fill="#000000" stroke="#000000" points="71.5,-185.2 71.5,-202.2 71.5,-202.2 71.5,-185.2 71.5,-185.2"/>
</a>
</g>
</g>
<!-- summaries&#45;&gt;users -->
<g id="edge1" class="edge">
<title>summaries:w&#45;&gt;users:e</title>
<path fill="none" stroke="#000000" d="M196.6761,-329.5247C160.3511,-320.4101 156.5084,-277.2 111.5,-277.2"/>
<polygon fill="#000000" stroke="#000000" points="203.0542,-330.2706 210.5818,-334.7756 207.0271,-330.7353 211,-331.2 211,-331.2 211,-331.2 207.0271,-330.7353 211.4182,-327.6244 203.0542,-330.2706 203.0542,-330.2706"/>
<ellipse fill="none" stroke="#000000" cx="199.8758" cy="-329.8988" rx="3.2" ry="3.2"/>
</g>
<!-- user_sessions -->
<g id="node3" class="node">
<title>user_sessions</title>
<g id="a_node3"><a xlink:href="../../tables/user_sessions.html" xlink:title="user_sessions" target="_top">
<polygon fill="#ffffff" stroke="transparent" points="160,-38.2 160,-282.2 380,-282.2 380,-38.2 160,-38.2"/>
<polygon fill="#f5f5f5" stroke="transparent" points="162,-257.2 162,-280.2 378,-280.2 378,-257.2 162,-257.2"/>
<polygon fill="none" stroke="#000000" points="162,-257.2 162,-280.2 378,-280.2 378,-257.2 162,-257.2"/>
<text text-anchor="start" x="167" y="-265.8" font-family="Helvetica,sans-Serif" font-weight="bold" font-size="11.00" fill="#000000">user_sessions</text>
<text text-anchor="start" x="343.0437" y="-265.3" font-family="Helvetica,sans-Serif" font-size="11.00" fill="#000000">[table]</text>
<polygon fill="none" stroke="#000000" points="162,-235.2 162,-257.2 284,-257.2 284,-235.2 162,-235.2"/>
<image xlink:href="../../images/primaryKeys.png" width="11px" height="12px" preserveAspectRatio="xMinYMin meet" x="167" y="-252.2"/>
<text text-anchor="start" x="182" y="-242.3" font-family="Helvetica,sans-Serif" font-size="11.00" fill="#000000">id</text>
<polygon fill="none" stroke="#000000" points="284,-235.2 284,-257.2 378,-257.2 378,-235.2 284,-235.2"/>
<text text-anchor="start" x="286.9758" y="-242.9" font-family="Helvetica,sans-Serif" font-size="11.00" fill="#000000">uuid[2147483647]</text>
<polygon fill="#ffffff" stroke="transparent" points="162,-213.2 162,-235.2 284,-235.2 284,-213.2 162,-213.2"/>
<polygon fill="none" stroke="#000000" points="162,-213.2 162,-235.2 284,-235.2 284,-213.2 162,-213.2"/>
<image xlink:href="../../images/foreignKeys.png" width="11px" height="12px" preserveAspectRatio="xMinYMin meet" x="167" y="-230.2"/>
<text text-anchor="start" x="182" y="-220.3" font-family="Helvetica,sans-Serif" font-size="11.00" fill="#000000">user_id</text>
<polygon fill="none" stroke="#000000" points="284,-213.2 284,-235.2 378,-235.2 378,-213.2 284,-213.2"/>
<text text-anchor="start" x="286.9758" y="-220.9" font-family="Helvetica,sans-Serif" font-size="11.00" fill="#000000">uuid[2147483647]</text>
<polygon fill="#ffffff" stroke="transparent" points="162,-191.2 162,-213.2 284,-213.2 284,-191.2 162,-191.2"/>
<polygon fill="none" stroke="#000000" points="162,-191.2 162,-213.2 284,-213.2 284,-191.2 162,-191.2"/>
<text text-anchor="start" x="182" y="-198.3" font-family="Helvetica,sans-Serif" font-size="11.00" fill="#000000">token_hash</text>
<polygon fill="none" stroke="#000000" points="284,-191.2 284,-213.2 378,-213.2 378,-191.2 284,-191.2"/>
<text text-anchor="start" x="287" y="-198.9" font-family="Helvetica,sans-Serif" font-size="11.00" fill="#000000">varchar[64]</text>
<polygon fill="none" stroke="#000000" points="162,-169.2 162,-191.2 284,-191.2 284,-169.2 162,-169.2"/>
<text text-anchor="start" x="182" y="-176.3" font-family="Helvetica,sans-Serif" font-size="11.00" fill="#000000">created_at</text>
<polygon fill="none" stroke="#000000" points="284,-169.2 284,-191.2 378,-191.2 378,-169.2 284,-169.2"/>
<text text-anchor="start" x="287" y="-176.9" font-family="Helvetica,sans-Serif" font-size="11.00" fill="#000000">timestamptz[35,6]</text>
<polygon fill="#ffffff" stroke="transparent" points="162,-147.2 162,-169.2 284,-169.2 284,-147.2 162,-147.2"/>
<polygon fill="none" stroke="#000000" points="162,-147.2 162,-169.2 284,-169.2 284,-147.2 162,-147.2"/>
<text text-anchor="start" x="182" y="-154.3" font-family="Helvetica,sans-Serif" font-size="11.00" fill="#000000">expires_at</text>
<polygon fill="none" stroke="#000000" points="284,-147.2 284,-169.2 378,-169.2 378,-147.2 284,-147.2"/>
<text text-anchor="start" x="287" y="-154.9" font-family="Helvetica,sans-Serif" font-size="11.00" fill="#000000">timestamptz[35,6]</text>
<polygon fill="none" stroke="#000000" points="162,-125.2 162,-147.2 284,-147.2 284,-125.2 162,-125.2"/>
<text text-anchor="start" x="182" y="-132.3" font-family="Helvetica,sans-Serif" font-size="11.00" fill="#000000">last_seen_at</text>
<polygon fill="none" stroke="#000000" points="284,-125.2 284,-147.2 378,-147.2 378,-125.2 284,-125.2"/>
<text text-anchor="start" x="287" y="-132.9" font-family="Helvetica,sans-Serif" font-size="11.00" fill="#000000">timestamptz[35,6]</text>
<polygon fill="none" stroke="#000000" points="162,-103.2 162,-125.2 284,-125.2 284,-103.2 162,-103.2"/>
<text text-anchor="start" x="182" y="-110.3" font-family="Helvetica,sans-Serif" font-size="11.00" fill="#000000">revoked_at</text>
<polygon fill="none" stroke="#000000" points="284,-103.2 284,-125.2 378,-125.2 378,-103.2 284,-103.2"/>
<text text-anchor="start" x="287" y="-110.9" font-family="Helvetica,sans-Serif" font-size="11.00" fill="#000000">timestamptz[35,6]</text>
<polygon fill="none" stroke="#000000" points="162,-81.2 162,-103.2 284,-103.2 284,-81.2 162,-81.2"/>
<text text-anchor="start" x="182" y="-88.3" font-family="Helvetica,sans-Serif" font-size="11.00" fill="#000000">user_agent</text>
<polygon fill="none" stroke="#000000" points="284,-81.2 284,-103.2 378,-103.2 378,-81.2 284,-81.2"/>
<text text-anchor="start" x="287" y="-88.9" font-family="Helvetica,sans-Serif" font-size="11.00" fill="#000000">varchar[512]</text>
<polygon fill="none" stroke="#000000" points="162,-59.2 162,-81.2 284,-81.2 284,-59.2 162,-59.2"/>
<text text-anchor="start" x="182" y="-66.3" font-family="Helvetica,sans-Serif" font-size="11.00" fill="#000000">ip_address</text>
<polygon fill="none" stroke="#000000" points="284,-59.2 284,-81.2 378,-81.2 378,-59.2 284,-59.2"/>
<text text-anchor="start" x="287" y="-66.9" font-family="Helvetica,sans-Serif" font-size="11.00" fill="#000000">varchar[45]</text>
<polygon fill="#ffffff" stroke="transparent" points="162,-40.2 162,-59.2 378,-59.2 378,-40.2 162,-40.2"/>
<polygon fill="none" stroke="#000000" points="162,-40.2 162,-59.2 378,-59.2 378,-40.2 162,-40.2"/>
<polygon fill="#ffffff" stroke="transparent" points="163,-41.2 163,-58.2 238,-58.2 238,-41.2 163,-41.2"/>
<text text-anchor="start" x="165" y="-46.3" font-family="Helvetica,sans-Serif" font-size="11.00" fill="#000000">&lt; 1</text>
<polygon fill="#ffffff" stroke="transparent" points="238,-41.2 238,-58.2 303,-58.2 303,-41.2 238,-41.2"/>
<text text-anchor="start" x="267.4431" y="-46.3" font-family="Helvetica,sans-Serif" font-size="11.00" fill="#000000"> &#160;</text>
<polygon fill="#ffffff" stroke="transparent" points="303,-41.2 303,-58.2 377,-58.2 377,-41.2 303,-41.2"/>
<text text-anchor="start" x="359.4053" y="-46.3" font-family="Helvetica,sans-Serif" font-size="11.00" fill="#000000">0 &gt;</text>
<polygon fill="#000000" stroke="#000000" points="238,-41.2 238,-58.2 238,-58.2 238,-41.2 238,-41.2"/>
<polygon fill="#000000" stroke="#000000" points="303,-41.2 303,-58.2 303,-58.2 303,-41.2 303,-41.2"/>
<polygon fill="none" stroke="#000000" stroke-width="2" points="161,-39.2 161,-281.2 379,-281.2 379,-39.2 161,-39.2"/>
</a>
</g>
</g>
<!-- user_sessions&#45;&gt;users -->
<g id="edge2" class="edge">
<title>user_sessions:w&#45;&gt;users:e</title>
<path fill="none" stroke="#000000" d="M148.0458,-229.0911C133.2722,-242.2117 137.9358,-277.2 111.5,-277.2"/>
<polygon fill="#000000" stroke="#000000" points="154.4503,-226.8463 163.1908,-227.5974 158.2252,-225.5231 162,-224.2 162,-224.2 162,-224.2 158.2252,-225.5231 160.8092,-220.8026 154.4503,-226.8463 154.4503,-226.8463"/>
<ellipse fill="none" stroke="#000000" cx="151.4305" cy="-227.9048" rx="3.2" ry="3.2"/>
</g>
</g>
</svg>
