<?xml version="1.0" encoding="UTF-8" standalone="no"?>
<!DOCTYPE svg PUBLIC "-//W3C//DTD SVG 1.1//EN"
 "http://www.w3.org/Graphics/SVG/1.1/DTD/svg11.dtd">
<!-- Generated by graphviz version 2.40.1 (20161225.0304)
 -->
<!-- Title: oneDegreeRelationshipsDiagram Pages: 1 -->
<svg width="431pt" height="517pt"
 viewBox="0.00 0.00 431.00 517.20" xmlns="http://www.w3.org/2000/svg" xmlns:xlink="http://www.w3.org/1999/xlink">
<g id="graph0" class="graph" transform="scale(1 1) rotate(0) translate(4 513.2)">
<title>oneDegreeRelationshipsDiagram</title>
<polygon fill="#ffffff" stroke="transparent" points="-4,4 -4,-513.2 427,-513.2 427,4 -4,4"/>
<text text-anchor="middle" x="72.4936" y="-7.3" font-family="Helvetica,sans-Serif" font-size="11.00" fill="#000000">Generated by SchemaSpy</text>
<!-- oauth_identities -->
<g id="node1" class="node">
<title>oauth_identities</title>
<g id="a_node1"><a xlink:href="../../tables/oauth_identities.html" xlink:title="oauth_identities" target="_top">
<polygon fill="#ffffff" stroke="transparent" points="258,-356.2 258,-505.2 415,-505.2 415,-356.2 258,-356.2"/>
<polygon fill="#f5f5f5" stroke="transparent" points="258.5,-481.7 258.5,-504.7 415.5,-504.7 415.5,-481.7 258.5,-481.7"/>
<polygon fill="none" stroke="#000000" points="258.5,-481.7 258.5,-504.7 415.5,-504.7 415.5,-481.7 258.5,-481.7"/>
<text text-anchor="start" x="263.5" y="-490.3" font-family="Helvetica,sans-Serif" font-weight="bold" font-size="11.00" fill="#000000">oauth_identities</text>
<text text-anchor="start" x="381.0219" y="-489.8" font-family="Helvetica,sans-Serif" font-size="11.00" fill="#000000">[table]</text>
<polygon fill="none" stroke="#000000" points="258.5,-459.7 258.5,-481.7 415.5,-481.7 415.5,-459.7 258.5,-459.7"/>
<image xlink:href="../../images/primaryKeys.png" width="11px" height="12px" preserveAspectRatio="xMinYMin meet" x="263.5" y="-476.7"/>
<text text-anchor="start" x="287.5" y="-466.8" font-family="Helvetica,sans-Serif" font-size="11.00" fill="#000000">id</text>
<polygon fill="#ffffff" stroke="transparent" points="258.5,-437.7 258.5,-459.7 415.5,-459.7 415.5,-437.7 258.5,-437.7"/>
<polygon fill="none" stroke="#000000" points="258.5,-437.7 258.5,-459.7 415.5,-459.7 415.5,-437.7 258.5,-437.7"/>
<image xlink:href="../../images/foreignKeys.png" width="11px" height="12px" preserveAspectRatio="xMinYMin meet" x="263.5" y="-454.7"/>
<text text-anchor="start" x="287.5" y="-444.8" font-family="Helvetica,sans-Serif" font-size="11.00" fill="#000000">user_id</text>
<polygon fill="#ffffff" stroke="transparent" points="258.5,-415.7 258.5,-437.7 415.5,-437.7 415.5,-415.7 258.5,-415.7"/>
<polygon fill="none" stroke="#000000" points="258.5,-415.7 258.5,-437.7 415.5,-437.7 415.5,-415.7 258.5,-415.7"/>
<text text-anchor="start" x="287.5" y="-422.8" font-family="Helvetica,sans-Serif" font-size="11.00" fill="#000000">provider</text>
<polygon fill="#ffffff" stroke="transparent" points="258.5,-393.7 258.5,-415.7 415.5,-415.7 415.5,-393.7 258.5,-393.7"/>
<polygon fill="none" stroke="#000000" points="258.5,-393.7 258.5,-415.7 415.5,-415.7 415.5,-393.7 258.5,-393.7"/>
<text text-anchor="start" x="287.5" y="-400.8" font-family="Helvetica,sans-Serif" font-size="11.00" fill="#000000">subject</text>
<polygon fill="none" stroke="#000000" points="258.5,-374.7 258.5,-393.7 415.5,-393.7 415.5,-374.7 258.5,-374.7"/>
<text text-anchor="start" x="261.5" y="-380.8" font-family="Helvetica,sans-Serif" font-size="11.00" fill="#000000">...</text>
<polygon fill="#ffffff" stroke="transparent" points="258.5,-355.7 258.5,-374.7 415.5,-374.7 415.5,-355.7 258.5,-355.7"/>
<polygon fill="none" stroke="#000000" points="258.5,-355.7 258.5,-374.7 415.5,-374.7 415.5,-355.7 258.5,-355.7"/>
<polygon fill="#ffffff" stroke="transparent" points="259.5,-356.7 259.5,-373.7 317.5,-373.7 317.5,-356.7 259.5,-356.7"/>
<text text-anchor="start" x="261.5" y="-361.8" font-family="Helvetica,sans-Serif" font-size="11.00" fill="#000000">&lt; 1</text>
<polygon fill="#ffffff" stroke="transparent" points="317.5,-356.7 317.5,-373.7 366.5,-373.7 366.5,-356.7 317.5,-356.7"/>
<text text-anchor="start" x="338.9431" y="-361.8" font-family="Helvetica,sans-Serif" font-size="11.00" fill="#000000"> &#160;</text>
<polygon fill="#ffffff" stroke="transparent" points="366.5,-356.7 366.5,-373.7 414.5,-373.7 414.5,-356.7 366.5,-356.7"/>
<text text-anchor="start" x="406.3862" y="-361.8" font-family="Helvetica,sans-Serif" font-size="11.00" fill="#000000"> &#160;</text>
<polygon fill="#000000" stroke="#000000" points="317.5,-356.7 317.5,-373.7 317.5,-373.7 317.5,-356.7 317.5,-356.7"/>
<polygon fill="#000000" stroke="#000000" points="366.5,-356.7 366.5,-373.7 366.5,-373.7 366.5,-356.7 366.5,-356.7"/>
</a>
</g>
</g>
<!-- users -->
<g id="node2" class="node">
<title>users</title>
<g id="a_node2"><a xlink:href="../../tables/users.html" xlink:title="users" target="_top">
<polygon fill="#ffffff" stroke="transparent" points="8,-136.7 8,-292.7 209,-292.7 209,-136.7 8,-136.7"/>
<polygon fill="#f5f5f5" stroke="transparent" points="10.5,-267.7 10.5,-290.7 207.5,-290.7 207.5,-267.7 10.5,-267.7"/>
<polygon fill="none" stroke="#000000" points="10.5,-267.7 10.5,-290.7 207.5,-290.7 207.5,-267.7 10.5,-267.7"/>
<text text-anchor="start" x="15.5" y="-276.3" font-family="Helvetica,sans-Serif" font-weight="bold" font-size="11.00" fill="#000000">users</text>
<text text-anchor="start" x="172.5437" y="-275.8" font-family="Helvetica,sans-Serif" font-size="11.00" fill="#000000">[table]</text>
<polygon fill="none" stroke="#000000" points="10.5,-245.7 10.5,-267.7 113.5,-267.7 113.5,-245.7 10.5,-245.7"/>
<image xlink:href="../../images/primaryKeys.png" width="11px" height="12px" preserveAspectRatio="xMinYMin meet" x="15.5" y="-262.7"/>
<text text-anchor="start" x="30.5" y="-252.8" font-family="Helvetica,sans-Serif" font-size="11.00" fill="#000000">id</text>
<polygon fill="none" stroke="#000000" points="113.5,-245.7 113.5,-267.7 207.5,-267.7 207.5,-245.7 113.5,-245.7"/>
<text text-anchor="start" x="116.4758" y="-253.4" font-family="Helvetica,sans-Serif" font-size="11.00" fill="#000000">uuid[2147483647]</text>
<polygon fill="none" stroke="#000000" points="10.5,-223.7 10.5,-245.7 113.5,-245.7 113.5,-223.7 10.5,-223.7"/>
<text text-anchor="start" x="30.5" y="-230.8" font-family="Helvetica,sans-Serif" font-size="11.00" fill="#000000">email</text>
<polygon fill="none" stroke="#000000" points="113.5,-223.7 113.5,-245.7 207.5,-245.7 207.5,-223.7 113.5,-223.7"/>
<text text-anchor="start" x="116.5" y="-231.4" font-family="Helvetica,sans-Serif" font-size="11.00" fill="#000000">varchar[320]</text>
<polygon fill="none" stroke="#000000" points="10.5,-201.7 10.5,-223.7 113.5,-223.7 113.5,-201.7 10.5,-201.7"/>
<text text-anchor="start" x="30.5" y="-208.8" font-family="Helvetica,sans-Serif" font-size="11.00" fill="#000000">name</text>
<polygon fill="none" stroke="#000000" points="113.5,-201.7 113.5,-223.7 207.5,-223.7 207.5,-201.7 113.5,-201.7"/>
<text text-anchor="start" x="116.5" y="-209.4" font-family="Helvetica,sans-Serif" font-size="11.00" fill="#000000">varchar[255]</text>
<polygon fill="none" stroke="#000000" points="10.5,-179.7 10.5,-201.7 113.5,-201.7 113.5,-179.7 10.5,-179.7"/>
<text text-anchor="start" x="30.5" y="-186.8" font-family="Helvetica,sans-Serif" font-size="11.00" fill="#000000">created_at</text>
<polygon fill="none" stroke="#000000" points="113.5,-179.7 113.5,-201.7 207.5,-201.7 207.5,-179.7 113.5,-179.7"/>
<text text-anchor="start" x="116.5" y="-187.4" font-family="Helvetica,sans-Serif" font-size="11.00" fill="#000000">timestamptz[35,6]</text>
<polygon fill="none" stroke="#000000" points="10.5,-157.7 10.5,-179.7 113.5,-179.7 113.5,-157.7 10.5,-157.7"/>
<text text-anchor="start" x="30.5" y="-164.8" font-family="Helvetica,sans-Serif" font-size="11.00" fill="#000000">updated_at</text>
<polygon fill="none" stroke="#000000" points="113.5,-157.7 113.5,-179.7 207.5,-179.7 207.5,-157.7 113.5,-157.7"/>
<text text-anchor="start" x="116.5" y="-165.4" font-family="Helvetica,sans-Serif" font-size="11.00" fill="#000000">timestamptz[35,6]</text>
<polygon fill="#ffffff" stroke="transparent" points="10.5,-138.7 10.5,-157.7 207.5,-157.7 207.5,-138.7 10.5,-138.7"/>
<polygon fill="none" stroke="#000000" points="10.5,-138.7 10.5,-157.7 207.5,-157.7 207.5,-138.7 10.5,-138.7"/>
<polygon fill="#ffffff" stroke="transparent" points="11.5,-139.7 11.5,-156.7 79.5,-156.7 79.5,-139.7 11.5,-139.7"/>
<text text-anchor="start" x="13.5" y="-144.8" font-family="Helvetica,sans-Serif" font-size="11.00" fill="#000000">&lt; 0</text>
<polygon fill="#ffffff" stroke="transparent" points="79.5,-139.7 79.5,-156.7 138.5,-156.7 138.5,-139.7 79.5,-139.7"/>
<text text-anchor="start" x="105.9431" y="-144.8" font-family="Helvetica,sans-Serif" font-size="11.00" fill="#000000"> &#160;</text>
<polygon fill="#ffffff" stroke="transparent" points="138.5,-139.7 138.5,-156.7 206.5,-156.7 206.5,-139.7 138.5,-139.7"/>
<text text-anchor="start" x="188.9053" y="-144.8" font-family="Helvetica,sans-Serif" font-size="11.00" fill="#000000">3 &gt;</text>
<polygon fill="#000000" stroke="#000000" points="79.5,-139.7 79.5,-156.7 79.5,-156.7 79.5,-139.7 79.5,-139.7"/>
<polygon fill="#000000" stroke="#000000" points="138.5,-139.7 138.5,-156.7 138.5,-156.7 138.5,-139.7 138.5,-139.7"/>
<polygon fill="none" stroke="#000000" stroke-width="2" points="9,-137.7 9,-291.7 208,-291.7 208,-137.7 9,-137.7"/>
</a>
</g>
</g>
<!-- oauth_identities&#45;&gt;users -->
<g id="edge1" class="edge">
<title>oauth_identities:w&#45;&gt;users:e</title>
<path fill="none" stroke="#000000" d="M243.9788,-446.41C185.5077,-424.7476 290.1017,-256.7 207.5,-256.7"/>
<polygon fill="#000000" stroke="#000000" points="250.5977,-447.4538 257.9392,-452.2561 254.5488,-448.0769 258.5,-448.7 258.5,-448.7 258.5,-448.7 254.5488,-448.0769 259.0608,-445.1439 250.5977,-447.4538 250.5977,-447.4538"/>
<ellipse fill="none" stroke="#000000" cx="247.4367" cy="-446.9553" rx="3.2" ry="3.2"/>
</g>
<!-- summaries -->
<g id="node3" class="node">
<title>summaries</title>
<g id="a_node3"><a xlink:href="../../tables/summaries.html" xlink:title="summaries" target="_top">
<polygon fill="#ffffff" stroke="transparent" points="264,-208.2 264,-335.2 409,-335.2 409,-208.2 264,-208.2"/>
<polygon fill="#f5f5f5" stroke="transparent" points="264.5,-311.7 264.5,-334.7 409.5,-334.7 409.5,-311.7 264.5,-311.7"/>
<polygon fill="none" stroke="#000000" points="264.5,-311.7 264.5,-334.7 409.5,-334.7 409.5,-311.7 264.5,-311.7"/>
<text text-anchor="start" x="269.5" y="-320.3" font-family="Helvetica,sans-Serif" font-weight="bold" font-size="11.00" fill="#000000">summaries</text>
<text text-anchor="start" x="374.5437" y="-319.8" font-family="Helvetica,sans-Serif" font-size="11.00" fill="#000000">[table]</text>
<polygon fill="none" stroke="#000000" points="264.5,-289.7 264.5,-311.7 409.5,-311.7 409.5,-289.7 264.5,-289.7"/>
<image xlink:href="../../images/primaryKeys.png" width="11px" height="12px" preserveAspectRatio="xMinYMin meet" x="269.5" y="-306.7"/>
<text text-anchor="start" x="284.5" y="-296.8" font-family="Helvetica,sans-Serif" font-size="11.00" fill="#000000">id</text>
<polygon fill="#ffffff" stroke="transparent" points="264.5,-267.7 264.5,-289.7 409.5,-289.7 409.5,-267.7 264.5,-267.7"/>
<polygon fill="none" stroke="#000000" points="264.5,-267.7 264.5,-289.7 409.5,-289.7 409.5,-267.7 264.5,-267.7"/>
<text text-anchor="start" x="284.5" y="-274.8" font-family="Helvetica,sans-Serif" font-size="11.00" fill="#000000">content_hash</text>
<polygon fill="#ffffff" stroke="transparent" points="264.5,-245.7 264.5,-267.7 409.5,-267.7 409.5,-245.7 264.5,-245.7"/>
<polygon fill="none" stroke="#000000" points="264.5,-245.7 264.5,-267.7 409.5,-267.7 409.5,-245.7 264.5,-245.7"/>
<image xlink:href="../../images/foreignKeys.png" width="11px" height="12px" preserveAspectRatio="xMinYMin meet" x="269.5" y="-262.7"/>
<text text-anchor="start" x="284.5" y="-252.8" font-family="Helvetica,sans-Serif" font-size="11.00" fill="#000000">user_id</text>
<polygon fill="none" stroke="#000000" points="264.5,-226.7 264.5,-245.7 409.5,-245.7 409.5,-226.7 264.5,-226.7"/>
<text text-anchor="start" x="267.5" y="-232.8" font-family="Helvetica,sans-Serif" font-size="11.00" fill="#000000">...</text>
<polygon fill="#ffffff" stroke="transparent" points="264.5,-207.7 264.5,-226.7 409.5,-226.7 409.5,-207.7 264.5,-207.7"/>
<polygon fill="none" stroke="#000000" points="264.5,-207.7 264.5,-226.7 409.5,-226.7 409.5,-207.7 264.5,-207.7"/>
<polygon fill="#ffffff" stroke="transparent" points="265.5,-208.7 265.5,-225.7 316.5,-225.7 316.5,-208.7 265.5,-208.7"/>
<text text-anchor="start" x="267.5" y="-213.8" font-family="Helvetica,sans-Serif" font-size="11.00" fill="#000000">&lt; 1</text>
<polygon fill="#ffffff" stroke="transparent" points="316.5,-208.7 316.5,-225.7 358.5,-225.7 358.5,-208.7 316.5,-208.7"/>
<text text-anchor="start" x="334.4431" y="-213.8" font-family="Helvetica,sans-Serif" font-size="11.00" fill="#000000"> &#160;</text>
<polygon fill="#ffffff" stroke="transparent" points="358.5,-208.7 358.5,-225.7 408.5,-225.7 408.5,-208.7 358.5,-208.7"/>
<text text-anchor="start" x="390.9053" y="-213.8" font-family="Helvetica,sans-Serif" font-size="11.00" fill="#000000">3 &gt;</text>
<polygon fill="#000000" stroke="#000000" points="316.5,-208.7 316.5,-225.7 316.5,-225.7 316.5,-208.7 316.5,-208.7"/>
<polygon fill="#000000" stroke="#000000" points="358.5,-208.7 358.5,-225.7 358.5,-225.7 358.5,-208.7 358.5,-208.7"/>
</a>
</g>
</g>
<!-- summaries&#45;&gt;users -->
<g id="edge2" class="edge">
<title>summaries:w&#45;&gt;users:e</title>
<path fill="none" stroke="#000000" d="M249.7652,-256.7C235.3216,-256.7 227.0938,-256.7 207.5,-256.7"/>
<polygon fill="#000000" stroke="#000000" points="256.5,-256.7001 264.5,-260.3 260.5,-256.7 264.5,-256.7 264.5,-256.7 264.5,-256.7 260.5,-256.7 264.5,-253.1 256.5,-256.7001 256.5,-256.7001"/>
<ellipse fill="none" stroke="#000000" cx="253.3" cy="-256.7001" rx="3.2" ry="3.2"/>
</g>
<!-- user_sessions -->
<g id="node4" class="node">
<title>user_sessions</title>
<g id="a_node4"><a xlink:href="../../tables/user_sessions.html" xlink:title="user_sessions" target="_top">
<polygon fill="#ffffff" stroke="transparent" points="266.5,-38.2 266.5,-187.2 406.5,-187.2 406.5,-38.2 266.5,-38.2"/>
<polygon fill="#f5f5f5" stroke="transparent" points="266.5,-163.7 266.5,-186.7 406.5,-186.7 406.5,-163.7 266.5,-163.7"/>
<polygon fill="none" stroke="#000000" points="266.5,-163.7 266.5,-186.7 406.5,-186.7 406.5,-163.7 266.5,-163.7"/>
<text text-anchor="start" x="271.5" y="-172.3" font-family="Helvetica,sans-Serif" font-weight="bold" font-size="11.00" fill="#000000">user_sessions</text>
<text text-anchor="start" x="372.0219" y="-171.8" font-family="Helvetica,sans-Serif" font-size="11.00" fill="#000000">[table]</text>
<polygon fill="none" stroke="#000000" points="266.5,-141.7 266.5,-163.7 406.5,-163.7 406.5,-141.7 266.5,-141.7"/>
<image xlink:href="../../images/primaryKeys.png" width="11px" height="12px" preserveAspectRatio="xMinYMin meet" x="271.5" y="-158.7"/>
<text text-anchor="start" x="295.5" y="-148.8" font-family="Helvetica,sans-Serif" font-size="11.00" fill="#000000">id</text>
<polygon fill="#ffffff" stroke="transparent" points="266.5,-119.7 266.5,-141.7 406.5,-141.7 406.5,-119.7 266.5,-119.7"/>
<polygon fill="none" stroke="#000000" points="266.5,-119.7 266.5,-141.7 406.5,-141.7 406.5,-119.7 266.5,-119.7"/>
<image xlink:href="../../images/foreignKeys.png" width="11px" height="12px" preserveAspectRatio="xMinYMin meet" x="271.5" y="-136.7"/>
<text text-anchor="start" x="295.5" y="-126.8" font-family="Helvetica,sans-Serif" font-size="11.00" fill="#000000">user_id</text>
<polygon fill="#ffffff" stroke="transparent" points="266.5,-97.7 266.5,-119.7 406.5,-119.7 406.5,-97.7 266.5,-97.7"/>
<polygon fill="none" stroke="#000000" points="266.5,-97.7 266.5,-119.7 406.5,-119.7 406.5,-97.7 266.5,-97.7"/>
<text text-anchor="start" x="295.5" y="-104.8" font-family="Helvetica,sans-Serif" font-size="11.00" fill="#000000">token_hash</text>
<polygon fill="#ffffff" stroke="transparent" points="266.5,-75.7 266.5,-97.7 406.5,-97.7 406.5,-75.7 266.5,-75.7"/>
<polygon fill="none" stroke="#000000" points="266.5,-75.7 266.5,-97.7 406.5,-97.7 406.5,-75.7 266.5,-75.7"/>
<text text-anchor="start" x="295.5" y="-82.8" font-family="Helvetica,sans-Serif" font-size="11.00" fill="#000000">expires_at</text>
<polygon fill="none" stroke="#000000" points="266.5,-56.7 266.5,-75.7 406.5,-75.7 406.5,-56.7 266.5,-56.7"/>
<text text-anchor="start" x="269.5" y="-62.8" font-family="Helvetica,sans-Serif" font-size="11.00" fill="#000000">...</text>
<polygon fill="#ffffff" stroke="transparent" points="266.5,-37.7 266.5,-56.7 406.5,-56.7 406.5,-37.7 266.5,-37.7"/>
<polygon fill="none" stroke="#000000" points="266.5,-37.7 266.5,-56.7 406.5,-56.7 406.5,-37.7 266.5,-37.7"/>
<polygon fill="#ffffff" stroke="transparent" points="267.5,-38.7 267.5,-55.7 319.5,-55.7 319.5,-38.7 267.5,-38.7"/>
<text text-anchor="start" x="269.5" y="-43.8" font-family="Helvetica,sans-Serif" font-size="11.00" fill="#000000">&lt; 1</text>
<polygon fill="#ffffff" stroke="transparent" points="319.5,-38.7 319.5,-55.7 362.5,-55.7 362.5,-38.7 319.5,-38.7"/>
<text text-anchor="start" x="337.9431" y="-43.8" font-family="Helvetica,sans-Serif" font-size="11.00" fill="#000000"> &#160;</text>
<polygon fill="#ffffff" stroke="transparent" points="362.5,-38.7 362.5,-55.7 405.5,-55.7 405.5,-38.7 362.5,-38.7"/>
<text text-anchor="start" x="397.3862" y="-43.8" font-family="Helvetica,sans-Serif" font-size="11.00" fill="#000000"> &#160;</text>
<polygon fill="#000000" stroke="#000000" points="319.5,-38.7 319.5,-55.7 319.5,-55.7 319.5,-38.7 319.5,-38.7"/>
<polygon fill="#000000" stroke="#000000" points="362.5,-38.7 362.5,-55.7 362.5,-55.7 362.5,-38.7 362.5,-38.7"/>
</a>
</g>
</g>
<!-- user_sessions&#45;&gt;users -->
<g id="edge3" class="edge">
<title>user_sessions:w&#45;&gt;users:e</title>
<path fill="none" stroke="#000000" d="M252.236,-133.8146C215.6786,-153.2176 263.5382,-256.7 207.5,-256.7"/>
<polygon fill="#000000" stroke="#000000" points="258.6842,-132.4067 267.268,-134.2171 262.5921,-131.5533 266.5,-130.7 266.5,-130.7 266.5,-130.7 262.5921,-131.5533 265.732,-127.1829 258.6842,-132.4067 258.6842,-132.4067"/>
<ellipse fill="none" stroke="#000000" cx="255.5578" cy="-133.0893" rx="3.2" ry="3.2"/>
</g>
</g>
</svg>
