<?xml version="1.0" encoding="UTF-8" standalone="no"?>
<!DOCTYPE svg PUBLIC "-//W3C//DTD SVG 1.1//EN"
 "http://www.w3.org/Graphics/SVG/1.1/DTD/svg11.dtd">
<!-- Generated by graphviz version 2.40.1 (20161225.0304)
 -->
<!-- Title: twoDegreesRelationshipsDiagram Pages: 1 -->
<svg width="599pt" height="428pt"
 viewBox="0.00 0.00 599.00 428.20" xmlns="http://www.w3.org/2000/svg" xmlns:xlink="http://www.w3.org/1999/xlink">
<g id="graph0" class="graph" transform="scale(1 1) rotate(0) translate(4 424.2)">
<title>twoDegreesRelationshipsDiagram</title>
<polygon fill="#ffffff" stroke="transparent" points="-4,4 -4,-424.2 595,-424.2 595,4 -4,4"/>
<text text-anchor="middle" x="72.4936" y="-7.3" font-family="Helvetica,sans-Serif" font-size="11.00" fill="#000000">Generated by SchemaSpy</text>
<!-- action_items -->
<g id="node1" class="node">
<title>action_items</title>
<g id="a_node1"><a xlink:href="../../tables/action_items.html" xlink:title="action_items" target="_top">
<polygon fill="#ffffff" stroke="transparent" points="452,-355.2 452,-416.2 583,-416.2 583,-355.2 452,-355.2"/>
<polygon fill="#f5f5f5" stroke="transparent" points="452.5,-392.7 452.5,-415.7 583.5,-415.7 583.5,-392.7 452.5,-392.7"/>
<polygon fill="none" stroke="#000000" points="452.5,-392.7 452.5,-415.7 583.5,-415.7 583.5,-392.7 452.5,-392.7"/>
<text text-anchor="start" x="457.5" y="-401.3" font-family="Helvetica,sans-Serif" font-weight="bold" font-size="11.00" fill="#000000">action_items</text>
<text text-anchor="start" x="549.0219" y="-400.8" font-family="Helvetica,sans-Serif" font-size="11.00" fill="#000000">[table]</text>
<polygon fill="none" stroke="#000000" points="452.5,-373.7 452.5,-392.7 583.5,-392.7 583.5,-373.7 452.5,-373.7"/>
<text text-anchor="start" x="455.5" y="-379.8" font-family="Helvetica,sans-Serif" font-size="11.00" fill="#000000">...</text>
<polygon fill="#ffffff" stroke="transparent" points="452.5,-354.7 452.5,-373.7 583.5,-373.7 583.5,-354.7 452.5,-354.7"/>
<polygon fill="none" stroke="#000000" points="452.5,-354.7 452.5,-373.7 583.5,-373.7 583.5,-354.7 452.5,-354.7"/>
<polygon fill="#ffffff" stroke="transparent" points="453.5,-355.7 453.5,-372.7 502.5,-372.7 502.5,-355.7 453.5,-355.7"/>
<text text-anchor="start" x="455.5" y="-360.8" font-family="Helvetica,sans-Serif" font-size="11.00" fill="#000000">&lt; 1</text>
<polygon fill="#ffffff" stroke="transparent" points="502.5,-355.7 502.5,-372.7 542.5,-372.7 542.5,-355.7 502.5,-355.7"/>
<text text-anchor="start" x="519.4431" y="-360.8" font-family="Helvetica,sans-Serif" font-size="11.00" fill="#000000"> &#160;</text>
<polygon fill="#ffffff" stroke="transparent" points="542.5,-355.7 542.5,-372.7 582.5,-372.7 582.5,-355.7 542.5,-355.7"/>
<text text-anchor="start" x="574.3862" y="-360.8" font-family="Helvetica,sans-Serif" font-size="11.00" fill="#000000"> &#160;</text>
<polygon fill="#000000" stroke="#000000" points="502.5,-355.7 502.5,-372.7 502.5,-372.7 502.5,-355.7 502.5,-355.7"/>
<polygon fill="#000000" stroke="#000000" points="542.5,-355.7 542.5,-372.7 542.5,-372.7 542.5,-355.7 542.5,-355.7"/>
</a>
</g>
</g>
<!-- summaries -->
<g id="node2" class="node">
<title>summaries</title>
<g id="a_node2"><a xlink:href="../../tables/summaries.html" xlink:title="summaries" target="_top">
<polygon fill="#ffffff" stroke="transparent" points="258,-208.2 258,-335.2 403,-335.2 403,-208.2 258,-208.2"/>
<polygon fill="#f5f5f5" stroke="transparent" points="258.5,-311.7 258.5,-334.7 403.5,-334.7 403.5,-311.7 258.5,-311.7"/>
<polygon fill="none" stroke="#000000" points="258.5,-311.7 258.5,-334.7 403.5,-334.7 403.5,-311.7 258.5,-311.7"/>
<text text-anchor="start" x="263.5" y="-320.3" font-family="Helvetica,sans-Serif" font-weight="bold" font-size="11.00" fill="#000000">summaries</text>
<text text-anchor="start" x="368.5437" y="-319.8" font-family="Helvetica,sans-Serif" font-size="11.00" fill="#000000">[table]</text>
<polygon fill="none" stroke="#000000" points="258.5,-289.7 258.5,-311.7 403.5,-311.7 403.5,-289.7 258.5,-289.7"/>
<image xlink:href="../../images/primaryKeys.png" width="11px" height="12px" preserveAspectRatio="xMinYMin meet" x="263.5" y="-306.7"/>
<text text-anchor="start" x="278.5" y="-296.8" font-family="Helvetica,sans-Serif" font-size="11.00" fill="#000000">id</text>
<polygon fill="#ffffff" stroke="transparent" points="258.5,-267.7 258.5,-289.7 403.5,-289.7 403.5,-267.7 258.5,-267.7"/>
<polygon fill="none" stroke="#000000" points="258.5,-267.7 258.5,-289.7 403.5,-289.7 403.5,-267.7 258.5,-267.7"/>
<text text-anchor="start" x="278.5" y="-274.8" font-family="Helvetica,sans-Serif" font-size="11.00" fill="#000000">content_hash</text>
<polygon fill="#ffffff" stroke="transparent" points="258.5,-245.7 258.5,-267.7 403.5,-267.7 403.5,-245.7 258.5,-245.7"/>
<polygon fill="none" stroke="#000000" points="258.5,-245.7 258.5,-267.7 403.5,-267.7 403.5,-245.7 258.5,-245.7"/>
<image xlink:href="../../images/foreignKeys.png" width="11px" height="12px" preserveAspectRatio="xMinYMin meet" x="263.5" y="-262.7"/>
<text text-anchor="start" x="278.5" y="-252.8" font-family="Helvetica,sans-Serif" font-size="11.00" fill="#000000">user_id</text>
<polygon fill="none" stroke="#000000" points="258.5,-226.7 258.5,-245.7 403.5,-245.7 403.5,-226.7 258.5,-226.7"/>
<text text-anchor="start" x="261.5" y="-232.8" font-family="Helvetica,sans-Serif" font-size="11.00" fill="#000000">...</text>
<polygon fill="#ffffff" stroke="transparent" points="258.5,-207.7 258.5,-226.7 403.5,-226.7 403.5,-207.7 258.5,-207.7"/>
<polygon fill="none" stroke="#000000" points="258.5,-207.7 258.5,-226.7 403.5,-226.7 403.5,-207.7 258.5,-207.7"/>
<polygon fill="#ffffff" stroke="transparent" points="259.5,-208.7 259.5,-225.7 310.5,-225.7 310.5,-208.7 259.5,-208.7"/>
<text text-anchor="start" x="261.5" y="-213.8" font-family="Helvetica,sans-Serif" font-size="11.00" fill="#000000">&lt; 1</text>
<polygon fill="#ffffff" stroke="transparent" points="310.5,-208.7 310.5,-225.7 352.5,-225.7 352.5,-208.7 310.5,-208.7"/>
<text text-anchor="start" x="328.4431" y="-213.8" font-family="Helvetica,sans-Serif" font-size="11.00" fill="#000000"> &#160;</text>
<polygon fill="#ffffff" stroke="transparent" points="352.5,-208.7 352.5,-225.7 402.5,-225.7 402.5,-208.7 352.5,-208.7"/>
<text text-anchor="start" x="384.9053" y="-213.8" font-family="Helvetica,sans-Serif" font-size="11.00" fill="#000000">3 &gt;</text>
<polygon fill="#000000" stroke="#000000" points="310.5,-208.7 310.5,-225.7 310.5,-225.7 310.5,-208.7 310.5,-208.7"/>
<polygon fill="#000000" stroke="#000000" points="352.5,-208.7 352.5,-225.7 352.5,-225.7 352.5,-208.7 352.5,-208.7"/>
</a>
</g>
</g>
<!-- action_items&#45;&gt;summaries -->
<g id="edge1" class="edge">
<title>action_items:w&#45;&gt;summaries:e</title>
<path fill="none" stroke="#000000" d="M438.5294,-378.0564C418.788,-360.7098 439.8194,-300.7 403.5,-300.7"/>
<polygon fill="#000000" stroke="#000000" points="444.9084,-380.1766 451.3645,-386.1162 448.7042,-381.4383 452.5,-382.7 452.5,-382.7 452.5,-382.7 448.7042,-381.4383 453.6355,-379.2838 444.9084,-380.1766 444.9084,-380.1766"/>
<ellipse fill="none" stroke="#000000" cx="441.8717" cy="-379.1673" rx="3.2" ry="3.2"/>
</g>
<!-- users -->
<g id="node4" class="node">
<title>users</title>
<g id="a_node4"><a xlink:href="../../tables/users.html" xlink:title="users" target="_top">
<polygon fill="#ffffff" stroke="transparent" points="8,-51.7 8,-229.7 209,-229.7 209,-51.7 8,-51.7"/>
<polygon fill="#f5f5f5" stroke="transparent" points="10.5,-204.7 10.5,-227.7 207.5,-227.7 207.5,-204.7 10.5,-204.7"/>
<polygon fill="none" stroke="#000000" points="10.5,-204.7 10.5,-227.7 207.5,-227.7 207.5,-204.7 10.5,-204.7"/>
<text text-anchor="start" x="15.5" y="-213.3" font-family="Helvetica,sans-Serif" font-weight="bold" font-size="11.00" fill="#000000">users</text>
<text text-anchor="start" x="172.5437" y="-212.8" font-family="Helvetica,sans-Serif" font-size="11.00" fill="#000000">[table]</text>
<polygon fill="none" stroke="#000000" points="10.5,-182.7 10.5,-204.7 113.5,-204.7 113.5,-182.7 10.5,-182.7"/>
<image xlink:href="../../images/primaryKeys.png" width="11px" height="12px" preserveAspectRatio="xMinYMin meet" x="15.5" y="-199.7"/>
<text text-anchor="start" x="30.5" y="-189.8" font-family="Helvetica,sans-Serif" font-size="11.00" fill="#000000">id</text>
<polygon fill="none" stroke="#000000" points="113.5,-182.7 113.5,-204.7 207.5,-204.7 207.5,-182.7 113.5,-182.7"/>
<text text-anchor="start" x="116.4758" y="-190.4" font-family="Helvetica,sans-Serif" font-size="11.00" fill="#000000">uuid[2147483647]</text>
<polygon fill="#ffffff" stroke="transparent" points="10.5,-160.7 10.5,-182.7 113.5,-182.7 113.5,-160.7 10.5,-160.7"/>
<polygon fill="none" stroke="#000000" points="10.5,-160.7 10.5,-182.7 113.5,-182.7 113.5,-160.7 10.5,-160.7"/>
<text text-anchor="start" x="30.5" y="-167.8" font-family="Helvetica,sans-Serif" font-size="11.00" fill="#000000">google_sub</text>
<polygon fill="none" stroke="#000000" points="113.5,-160.7 113.5,-182.7 207.5,-182.7 207.5,-160.7 113.5,-160.7"/>
<text text-anchor="start" x="116.5" y="-168.4" font-family="Helvetica,sans-Serif" font-size="11.00" fill="#000000">varchar[255]</text>
<polygon fill="#ffffff" stroke="transparent" points="10.5,-138.7 10.5,-160.7 113.5,-160.7 113.5,-138.7 10.5,-138.7"/>
<polygon fill="none" stroke="#000000" points="10.5,-138.7 10.5,-160.7 113.5,-160.7 113.5,-138.7 10.5,-138.7"/>
<text text-anchor="start" x="30.5" y="-145.8" font-family="Helvetica,sans-Serif" font-size="11.00" fill="#000000">email</text>
<polygon fill="none" stroke="#000000" points="113.5,-138.7 113.5,-160.7 207.5,-160.7 207.5,-138.7 113.5,-138.7"/>
<text text-anchor="start" x="116.5" y="-146.4" font-family="Helvetica,sans-Serif" font-size="11.00" fill="#000000">varchar[320]</text>
<polygon fill="none" stroke="#000000" points="10.5,-116.7 10.5,-138.7 113.5,-138.7 113.5,-116.7 10.5,-116.7"/>
<text text-anchor="start" x="30.5" y="-123.8" font-family="Helvetica,sans-Serif" font-size="11.00" fill="#000000">name</text>
<polygon fill="none" stroke="#000000" points="113.5,-116.7 113.5,-138.7 207.5,-138.7 207.5,-116.7 113.5,-116.7"/>
<text text-anchor="start" x="116.5" y="-124.4" font-family="Helvetica,sans-Serif" font-size="11.00" fill="#000000">varchar[255]</text>
<polygon fill="none" stroke="#000000" points="10.5,-94.7 10.5,-116.7 113.5,-116.7 113.5,-94.7 10.5,-94.7"/>
<text text-anchor="start" x="30.5" y="-101.8" font-family="Helvetica,sans-Serif" font-size="11.00" fill="#000000">created_at</text>
<polygon fill="none" stroke="#000000" points="113.5,-94.7 113.5,-116.7 207.5,-116.7 207.5,-94.7 113.5,-94.7"/>
<text text-anchor="start" x="116.5" y="-102.4" font-family="Helvetica,sans-Serif" font-size="11.00" fill="#000000">timestamptz[35,6]</text>
<polygon fill="none" stroke="#000000" points="10.5,-72.7 10.5,-94.7 113.5,-94.7 113.5,-72.7 10.5,-72.7"/>
<text text-anchor="start" x="30.5" y="-79.8" font-family="Helvetica,sans-Serif" font-size="11.00" fill="#000000">updated_at</text>
<polygon fill="none" stroke="#000000" points="113.5,-72.7 113.5,-94.7 207.5,-94.7 207.5,-72.7 113.5,-72.7"/>
<text text-anchor="start" x="116.5" y="-80.4" font-family="Helvetica,sans-Serif" font-size="11.00" fill="#000000">timestamptz[35,6]</text>
<polygon fill="#ffffff" stroke="transparent" points="10.5,-53.7 10.5,-72.7 207.5,-72.7 207.5,-53.7 10.5,-53.7"/>
<polygon fill="none" stroke="#000000" points="10.5,-53.7 10.5,-72.7 207.5,-72.7 207.5,-53.7 10.5,-53.7"/>
<polygon fill="#ffffff" stroke="transparent" points="11.5,-54.7 11.5,-71.7 79.5,-71.7 79.5,-54.7 11.5,-54.7"/>
<text text-anchor="start" x="13.5" y="-59.8" font-family="Helvetica,sans-Serif" font-size="11.00" fill="#000000">&lt; 0</text>
<polygon fill="#ffffff" stroke="transparent" points="79.5,-54.7 79.5,-71.7 138.5,-71.7 138.5,-54.7 79.5,-54.7"/>
<text text-anchor="start" x="105.9431" y="-59.8" font-family="Helvetica,sans-Serif" font-size="11.00" fill="#000000"> &#160;</text>
<polygon fill="#ffffff" stroke="transparent" points="138.5,-54.7 138.5,-71.7 206.5,-71.7 206.5,-54.7 138.5,-54.7"/>
<text text-anchor="start" x="188.9053" y="-59.8" font-family="Helvetica,sans-Serif" font-size="11.00" fill="#000000">2 &gt;</text>
<polygon fill="#000000" stroke="#000000" points="79.5,-54.7 79.5,-71.7 79.5,-71.7 79.5,-54.7 79.5,-54.7"/>
<polygon fill="#000000" stroke="#000000" points="138.5,-54.7 138.5,-71.7 138.5,-71.7 138.5,-54.7 138.5,-54.7"/>
<polygon fill="none" stroke="#000000" stroke-width="2" points="9,-52.7 9,-228.7 208,-228.7 208,-52.7 9,-52.7"/>
</a>
</g>
</g>
<!-- summaries&#45;&gt;users -->
<g id="edge3" class="edge">
<title>summaries:w&#45;&gt;users:e</title>
<path fill="none" stroke="#000000" d="M244.4033,-251.7565C228.025,-236.9048 237.3329,-193.7 207.5,-193.7"/>
<polygon fill="#000000" stroke="#000000" points="250.9507,-254.0526 257.3087,-260.0972 254.7254,-255.3763 258.5,-256.7 258.5,-256.7 258.5,-256.7 254.7254,-255.3763 259.6913,-253.3028 250.9507,-254.0526 250.9507,-254.0526"/>
<ellipse fill="none" stroke="#000000" cx="247.931" cy="-252.9936" rx="3.2" ry="3.2"/>
</g>
<!-- decisions -->
<g id="node3" class="node">
<title>decisions</title>
<g id="a_node3"><a xlink:href="../../tables/decisions.html" xlink:title="decisions" target="_top">
<polygon fill="#ffffff" stroke="transparent" points="464,-273.2 464,-334.2 571,-334.2 571,-273.2 464,-273.2"/>
<polygon fill="#f5f5f5" stroke="transparent" points="464.5,-310.7 464.5,-333.7 571.5,-333.7 571.5,-310.7 464.5,-310.7"/>
<polygon fill="none" stroke="#000000" points="464.5,-310.7 464.5,-333.7 571.5,-333.7 571.5,-310.7 464.5,-310.7"/>
<text text-anchor="start" x="469.5" y="-319.3" font-family="Helvetica,sans-Serif" font-weight="bold" font-size="11.00" fill="#000000">decisions</text>
<text text-anchor="start" x="537.0219" y="-318.8" font-family="Helvetica,sans-Serif" font-size="11.00" fill="#000000">[table]</text>
<polygon fill="none" stroke="#000000" points="464.5,-291.7 464.5,-310.7 571.5,-310.7 571.5,-291.7 464.5,-291.7"/>
<text text-anchor="start" x="467.5" y="-297.8" font-family="Helvetica,sans-Serif" font-size="11.00" fill="#000000">...</text>
<polygon fill="#ffffff" stroke="transparent" points="464.5,-272.7 464.5,-291.7 571.5,-291.7 571.5,-272.7 464.5,-272.7"/>
<polygon fill="none" stroke="#000000" points="464.5,-272.7 464.5,-291.7 571.5,-291.7 571.5,-272.7 464.5,-272.7"/>
<polygon fill="#ffffff" stroke="transparent" points="465.5,-273.7 465.5,-290.7 506.5,-290.7 506.5,-273.7 465.5,-273.7"/>
<text text-anchor="start" x="467.5" y="-278.8" font-family="Helvetica,sans-Serif" font-size="11.00" fill="#000000">&lt; 1</text>
<polygon fill="#ffffff" stroke="transparent" points="506.5,-273.7 506.5,-290.7 538.5,-290.7 538.5,-273.7 506.5,-273.7"/>
<text text-anchor="start" x="519.4431" y="-278.8" font-family="Helvetica,sans-Serif" font-size="11.00" fill="#000000"> &#160;</text>
<polygon fill="#ffffff" stroke="transparent" points="538.5,-273.7 538.5,-290.7 570.5,-290.7 570.5,-273.7 538.5,-273.7"/>
<text text-anchor="start" x="562.3862" y="-278.8" font-family="Helvetica,sans-Serif" font-size="11.00" fill="#000000"> &#160;</text>
<polygon fill="#000000" stroke="#000000" points="506.5,-273.7 506.5,-290.7 506.5,-290.7 506.5,-273.7 506.5,-273.7"/>
<polygon fill="#000000" stroke="#000000" points="538.5,-273.7 538.5,-290.7 538.5,-290.7 538.5,-273.7 538.5,-273.7"/>
</a>
</g>
</g>
<!-- decisions&#45;&gt;summaries -->
<g id="edge2" class="edge">
<title>decisions:w&#45;&gt;summaries:e</title>
<path fill="none" stroke="#000000" d="M449.6762,-300.7C433.6248,-300.7 424.8924,-300.7 403.5,-300.7"/>
<polygon fill="#000000" stroke="#000000" points="456.5,-300.7001 464.5,-304.3 460.5,-300.7 464.5,-300.7 464.5,-300.7 464.5,-300.7 460.5,-300.7 464.5,-297.1 456.5,-300.7001 456.5,-300.7001"/>
<ellipse fill="none" stroke="#000000" cx="453.3" cy="-300.7001" rx="3.2" ry="3.2"/>
</g>
<!-- topics -->
<g id="node5" class="node">
<title>topics</title>
<g id="a_node5"><a xlink:href="../../tables/topics.html" xlink:title="topics" target="_top">
<polygon fill="#ffffff" stroke="transparent" points="476,-191.2 476,-252.2 559,-252.2 559,-191.2 476,-191.2"/>
<polygon fill="#f5f5f5" stroke="transparent" points="476.5,-228.7 476.5,-251.7 559.5,-251.7 559.5,-228.7 476.5,-228.7"/>
<polygon fill="none" stroke="#000000" points="476.5,-228.7 476.5,-251.7 559.5,-251.7 559.5,-228.7 476.5,-228.7"/>
<text text-anchor="start" x="481.5" y="-237.3" font-family="Helvetica,sans-Serif" font-weight="bold" font-size="11.00" fill="#000000">topics</text>
<text text-anchor="start" x="525.0219" y="-236.8" font-family="Helvetica,sans-Serif" font-size="11.00" fill="#000000">[table]</text>
<polygon fill="none" stroke="#000000" points="476.5,-209.7 476.5,-228.7 559.5,-228.7 559.5,-209.7 476.5,-209.7"/>
<text text-anchor="start" x="479.5" y="-215.8" font-family="Helvetica,sans-Serif" font-size="11.00" fill="#000000">...</text>
<polygon fill="#ffffff" stroke="transparent" points="476.5,-190.7 476.5,-209.7 559.5,-209.7 559.5,-190.7 476.5,-190.7"/>
<polygon fill="none" stroke="#000000" points="476.5,-190.7 476.5,-209.7 559.5,-209.7 559.5,-190.7 476.5,-190.7"/>
<polygon fill="#ffffff" stroke="transparent" points="477.5,-191.7 477.5,-208.7 510.5,-208.7 510.5,-191.7 477.5,-191.7"/>
<text text-anchor="start" x="479.5" y="-196.8" font-family="Helvetica,sans-Serif" font-size="11.00" fill="#000000">&lt; 1</text>
<polygon fill="#ffffff" stroke="transparent" points="510.5,-191.7 510.5,-208.7 534.5,-208.7 534.5,-191.7 510.5,-191.7"/>
<text text-anchor="start" x="519.4431" y="-196.8" font-family="Helvetica,sans-Serif" font-size="11.00" fill="#000000"> &#160;</text>
<polygon fill="#ffffff" stroke="transparent" points="534.5,-191.7 534.5,-208.7 558.5,-208.7 558.5,-191.7 534.5,-191.7"/>
<text text-anchor="start" x="550.3862" y="-196.8" font-family="Helvetica,sans-Serif" font-size="11.00" fill="#000000"> &#160;</text>
<polygon fill="#000000" stroke="#000000" points="510.5,-191.7 510.5,-208.7 510.5,-208.7 510.5,-191.7 510.5,-191.7"/>
<polygon fill="#000000" stroke="#000000" points="534.5,-191.7 534.5,-208.7 534.5,-208.7 534.5,-191.7 534.5,-191.7"/>
</a>
</g>
</g>
<!-- topics&#45;&gt;summaries -->
<g id="edge4" class="edge">
<title>topics:w&#45;&gt;summaries:e</title>
<path fill="none" stroke="#000000" d="M462.1329,-221.8144C432.4612,-236.7927 446.5758,-300.7 403.5,-300.7"/>
<polygon fill="#000000" stroke="#000000" points="468.6816,-220.3949 477.2627,-222.2183 472.5908,-219.5474 476.5,-218.7 476.5,-218.7 476.5,-218.7 472.5908,-219.5474 475.7373,-215.1817 468.6816,-220.3949 468.6816,-220.3949"/>
<ellipse fill="none" stroke="#000000" cx="465.5542" cy="-221.0728" rx="3.2" ry="3.2"/>
</g>
<!-- user_sessions -->
<g id="node6" class="node">
<title>user_sessions</title>
<g id="a_node6"><a xlink:href="../../tables/user_sessions.html" xlink:title="user_sessions" target="_top">
<polygon fill="#ffffff" stroke="transparent" points="260.5,-38.2 260.5,-187.2 400.5,-187.2 400.5,-38.2 260.5,-38.2"/>
<polygon fill="#f5f5f5" stroke="transparent" points="260.5,-163.7 260.5,-186.7 400.5,-186.7 400.5,-163.7 260.5,-163.7"/>
<polygon fill="none" stroke="#000000" points="260.5,-163.7 260.5,-186.7 400.5,-186.7 400.5,-163.7 260.5,-163.7"/>
<text text-anchor="start" x="265.5" y="-172.3" font-family="Helvetica,sans-Serif" font-weight="bold" font-size="11.00" fill="#000000">user_sessions</text>
<text text-anchor="start" x="366.0219" y="-171.8" font-family="Helvetica,sans-Serif" font-size="11.00" fill="#000000">[table]</text>
<polygon fill="none" stroke="#000000" points="260.5,-141.7 260.5,-163.7 400.5,-163.7 400.5,-141.7 260.5,-141.7"/>
<image xlink:href="../../images/primaryKeys.png" width="11px" height="12px" preserveAspectRatio="xMinYMin meet" x="265.5" y="-158.7"/>
<text text-anchor="start" x="289.5" y="-148.8" font-family="Helvetica,sans-Serif" font-size="11.00" fill="#000000">id</text>
<polygon fill="#ffffff" stroke="transparent" points="260.5,-119.7 260.5,-141.7 400.5,-141.7 400.5,-119.7 260.5,-119.7"/>
<polygon fill="none" stroke="#000000" points="260.5,-119.7 260.5,-141.7 400.5,-141.7 400.5,-119.7 260.5,-119.7"/>
<image xlink:href="../../images/foreignKeys.png" width="11px" height="12px" preserveAspectRatio="xMinYMin meet" x="265.5" y="-136.7"/>
<text text-anchor="start" x="289.5" y="-126.8" font-family="Helvetica,sans-Serif" font-size="11.00" fill="#000000">user_id</text>
<polygon fill="#ffffff" stroke="transparent" points="260.5,-97.7 260.5,-119.7 400.5,-119.7 400.5,-97.7 260.5,-97.7"/>
<polygon fill="none" stroke="#000000" points="260.5,-97.7 260.5,-119.7 400.5,-119.7 400.5,-97.7 260.5,-97.7"/>
<text text-anchor="start" x="289.5" y="-104.8" font-family="Helvetica,sans-Serif" font-size="11.00" fill="#000000">token_hash</text>
<polygon fill="#ffffff" stroke="transparent" points="260.5,-75.7 260.5,-97.7 400.5,-97.7 400.5,-75.7 260.5,-75.7"/>
<polygon fill="none" stroke="#000000" points="260.5,-75.7 260.5,-97.7 400.5,-97.7 400.5,-75.7 260.5,-75.7"/>
<text text-anchor="start" x="289.5" y="-82.8" font-family="Helvetica,sans-Serif" font-size="11.00" fill="#000000">expires_at</text>
<polygon fill="none" stroke="#000000" points="260.5,-56.7 260.5,-75.7 400.5,-75.7 400.5,-56.7 260.5,-56.7"/>
<text text-anchor="start" x="263.5" y="-62.8" font-family="Helvetica,sans-Serif" font-size="11.00" fill="#000000">...</text>
<polygon fill="#ffffff" stroke="transparent" points="260.5,-37.7 260.5,-56.7 400.5,-56.7 400.5,-37.7 260.5,-37.7"/>
<polygon fill="none" stroke="#000000" points="260.5,-37.7 260.5,-56.7 400.5,-56.7 400.5,-37.7 260.5,-37.7"/>
<polygon fill="#ffffff" stroke="transparent" points="261.5,-38.7 261.5,-55.7 313.5,-55.7 313.5,-38.7 261.5,-38.7"/>
<text text-anchor="start" x="263.5" y="-43.8" font-family="Helvetica,sans-Serif" font-size="11.00" fill="#000000">&lt; 1</text>
<polygon fill="#ffffff" stroke="transparent" points="313.5,-38.7 313.5,-55.7 356.5,-55.7 356.5,-38.7 313.5,-38.7"/>
<text text-anchor="start" x="331.9431" y="-43.8" font-family="Helvetica,sans-Serif" font-size="11.00" fill="#000000"> &#160;</text>
<polygon fill="#ffffff" stroke="transparent" points="356.5,-38.7 356.5,-55.7 399.5,-55.7 399.5,-38.7 356.5,-38.7"/>
<text text-anchor="start" x="391.3862" y="-43.8" font-family="Helvetica,sans-Serif" font-size="11.00" fill="#000000"> &#160;</text>
<polygon fill="#000000" stroke="#000000" points="313.5,-38.7 313.5,-55.7 313.5,-55.7 313.5,-38.7 313.5,-38.7"/>
<polygon fill="#000000" stroke="#000000" points="356.5,-38.7 356.5,-55.7 356.5,-55.7 356.5,-38.7 356.5,-38.7"/>
</a>
</g>
</g>
<!-- user_sessions&#45;&gt;users -->
<g id="edge5" class="edge">
<title>user_sessions:w&#45;&gt;users:e</title>
<path fill="none" stroke="#000000" d="M246.5735,-135.2308C229.0033,-149.6761 238.0874,-193.7 207.5,-193.7"/>
<polygon fill="#000000" stroke="#000000" points="252.8925,-133.175 261.6138,-134.1234 256.6962,-131.9375 260.5,-130.7 260.5,-130.7 260.5,-130.7 256.6962,-131.9375 259.3862,-127.2766 252.8925,-133.175 252.8925,-133.175"/>
<ellipse fill="none" stroke="#000000" cx="249.8495" cy="-134.1651" rx="3.2" ry="3.2"/>
</g>
</g>
</svg>
