<?xml version="1.0" encoding="UTF-8" standalone="no"?>
<!DOCTYPE svg PUBLIC "-//W3C//DTD SVG 1.1//EN"
 "http://www.w3.org/Graphics/SVG/1.1/DTD/svg11.dtd">
<!-- Generated by graphviz version 2.40.1 (20161225.0304)
 -->
<!-- Title: twoDegreesRelationshipsDiagram Pages: 1 -->
<svg width="396pt" height="459pt"
 viewBox="0.00 0.00 396.00 458.70" xmlns="http://www.w3.org/2000/svg" xmlns:xlink="http://www.w3.org/1999/xlink">
<g id="graph0" class="graph" transform="scale(1 1) rotate(0) translate(4 454.7)">
<title>twoDegreesRelationshipsDiagram</title>
<polygon fill="#ffffff" stroke="transparent" points="-4,4 -4,-454.7 392,-454.7 392,4 -4,4"/>
<text text-anchor="middle" x="72.4936" y="-7.3" font-family="Helvetica,sans-Serif" font-size="11.00" fill="#000000">Generated by SchemaSpy</text>
<!-- oauth_identities -->
<g id="node1" class="node">
<title>oauth_identities</title>
<g id="a_node1"><a xlink:href="../../tables/oauth_identities.html" xlink:title="oauth_identities" target="_top">
<polygon fill="#ffffff" stroke="transparent" points="191.5,-385.7 191.5,-446.7 348.5,-446.7 348.5,-385.7 191.5,-385.7"/>
<polygon fill="#f5f5f5" stroke="transparent" points="192,-423.2 192,-446.2 349,-446.2 349,-423.2 192,-423.2"/>
<polygon fill="none" stroke="#000000" points="192,-423.2 192,-446.2 349,-446.2 349,-423.2 192,-423.2"/>
<text text-anchor="start" x="197" y="-431.8" font-family="Helvetica,sans-Serif" font-weight="bold" font-size="11.00" fill="#000000">oauth_identities</text>
<text text-anchor="start" x="314.5219" y="-431.3" font-family="Helvetica,sans-Serif" font-size="11.00" fill="#000000">[table]</text>
<polygon fill="none" stroke="#000000" points="192,-404.2 192,-423.2 349,-423.2 349,-404.2 192,-404.2"/>
<text text-anchor="start" x="195" y="-410.3" font-family="Helvetica,sans-Serif" font-size="11.00" fill="#000000">...</text>
<polygon fill="#ffffff" stroke="transparent" points="192,-385.2 192,-404.2 349,-404.2 349,-385.2 192,-385.2"/>
<polygon fill="none" stroke="#000000" points="192,-385.2 192,-404.2 349,-404.2 349,-385.2 192,-385.2"/>
<polygon fill="#ffffff" stroke="transparent" points="193,-386.2 193,-403.2 251,-403.2 251,-386.2 193,-386.2"/>
<text text-anchor="start" x="195" y="-391.3" font-family="Helvetica,sans-Serif" font-size="11.00" fill="#000000">&lt; 1</text>
<polygon fill="#ffffff" stroke="transparent" points="251,-386.2 251,-403.2 300,-403.2 300,-386.2 251,-386.2"/>
<text text-anchor="start" x="272.4431" y="-391.3" font-family="Helvetica,sans-Serif" font-size="11.00" fill="#000000"> &#160;</text>
<polygon fill="#ffffff" stroke="transparent" points="300,-386.2 300,-403.2 348,-403.2 348,-386.2 300,-386.2"/>
<text text-anchor="start" x="339.8862" y="-391.3" font-family="Helvetica,sans-Serif" font-size="11.00" fill="#000000"> &#160;</text>
<polygon fill="#000000" stroke="#000000" points="251,-386.2 251,-403.2 251,-403.2 251,-386.2 251,-386.2"/>
<polygon fill="#000000" stroke="#000000" points="300,-386.2 300,-403.2 300,-403.2 300,-386.2 300,-386.2"/>
</a>
</g>
</g>
<!-- users -->
<g id="node2" class="node">
<title>users</title>
<g id="a_node2"><a xlink:href="../../tables/users.html" xlink:title="users" target="_top">
<polygon fill="#ffffff" stroke="transparent" points="8,-282.7 8,-365.7 111,-365.7 111,-282.7 8,-282.7"/>
<polygon fill="#f5f5f5" stroke="transparent" points="8.5,-342.2 8.5,-365.2 111.5,-365.2 111.5,-342.2 8.5,-342.2"/>
<polygon fill="none" stroke="#000000" points="8.5,-342.2 8.5,-365.2 111.5,-365.2 111.5,-342.2 8.5,-342.2"/>
<text text-anchor="start" x="13.5" y="-350.8" font-family="Helvetica,sans-Serif" font-weight="bold" font-size="11.00" fill="#000000">users</text>
<text text-anchor="start" x="76.5437" y="-350.3" font-family="Helvetica,sans-Serif" font-size="11.00" fill="#000000">[table]</text>
<polygon fill="none" stroke="#000000" points="8.5,-320.2 8.5,-342.2 111.5,-342.2 111.5,-320.2 8.5,-320.2"/>
<image xlink:href="../../images/primaryKeys.png" width="11px" height="12px" preserveAspectRatio="xMinYMin meet" x="13.5" y="-337.2"/>
<text text-anchor="start" x="28.5" y="-327.3" font-family="Helvetica,sans-Serif" font-size="11.00" fill="#000000">id</text>
<polygon fill="none" stroke="#000000" points="8.5,-301.2 8.5,-320.2 111.5,-320.2 111.5,-301.2 8.5,-301.2"/>
<text text-anchor="start" x="11.5" y="-307.3" font-family="Helvetica,sans-Serif" font-size="11.00" fill="#000000">...</text>
<polygon fill="#ffffff" stroke="transparent" points="8.5,-282.2 8.5,-301.2 111.5,-301.2 111.5,-282.2 8.5,-282.2"/>
<polygon fill="none" stroke="#000000" points="8.5,-282.2 8.5,-301.2 111.5,-301.2 111.5,-282.2 8.5,-282.2"/>
<polygon fill="#ffffff" stroke="transparent" points="9.5,-283.2 9.5,-300.2 40.5,-300.2 40.5,-283.2 9.5,-283.2"/>
<text text-anchor="start" x="11.5" y="-288.3" font-family="Helvetica,sans-Serif" font-size="11.00" fill="#000000"> &#160;</text>
<polygon fill="#ffffff" stroke="transparent" points="40.5,-283.2 40.5,-300.2 71.5,-300.2 71.5,-283.2 40.5,-283.2"/>
<text text-anchor="start" x="52.9431" y="-288.3" font-family="Helvetica,sans-Serif" font-size="11.00" fill="#000000"> &#160;</text>
<polygon fill="#ffffff" stroke="transparent" points="71.5,-283.2 71.5,-300.2 110.5,-300.2 110.5,-283.2 71.5,-283.2"/>
<text text-anchor="start" x="92.9053" y="-288.3" font-family="Helvetica,sans-Serif" font-size="11.00" fill="#000000">3 &gt;</text>
<polygon fill="#000000" stroke="#000000" points="40.5,-283.2 40.5,-300.2 40.5,-300.2 40.5,-283.2 40.5,-283.2"/>
<polygon fill="#000000" stroke="#000000" points="71.5,-283.2 71.5,-300.2 71.5,-300.2 71.5,-283.2 71.5,-283.2"/>
</a>
</g>
</g>
<!-- oauth_identities&#45;&gt;users -->
<g id="edge1" class="edge">
<title>oauth_identities:w&#45;&gt;users:e</title>
<path fill="none" stroke="#000000" d="M177.8242,-409.7199C167.1576,-403.1282 164.9014,-388.3063 152,-375.2 133.3548,-356.2586 138.0786,-331.2 111.5,-331.2"/>
<polygon fill="#000000" stroke="#000000" points="184.2307,-411.2927 191.1417,-416.6962 188.1153,-412.2463 192,-413.2 192,-413.2 192,-413.2 188.1153,-412.2463 192.8583,-409.7038 184.2307,-411.2927 184.2307,-411.2927"/>
<ellipse fill="none" stroke="#000000" cx="181.123" cy="-410.5297" rx="3.2" ry="3.2"/>
</g>
<!-- summaries -->
<g id="node3" class="node">
<title>summaries</title>
<g id="a_node3"><a xlink:href="../../tables/summaries.html" xlink:title="summaries" target="_top">
<polygon fill="#ffffff" stroke="transparent" points="210.5,-303.7 210.5,-364.7 329.5,-364.7 329.5,-303.7 210.5,-303.7"/>
<polygon fill="#f5f5f5" stroke="transparent" points="211,-341.2 211,-364.2 330,-364.2 330,-341.2 211,-341.2"/>
<polygon fill="none" stroke="#000000" points="211,-341.2 211,-364.2 330,-364.2 330,-341.2 211,-341.2"/>
<text text-anchor="start" x="216" y="-349.8" font-family="Helvetica,sans-Serif" font-weight="bold" font-size="11.00" fill="#000000">summaries</text>
<text text-anchor="start" x="295.5219" y="-349.3" font-family="Helvetica,sans-Serif" font-size="11.00" fill="#000000">[table]</text>
<polygon fill="none" stroke="#000000" points="211,-322.2 211,-341.2 330,-341.2 330,-322.2 211,-322.2"/>
<text text-anchor="start" x="214" y="-328.3" font-family="Helvetica,sans-Serif" font-size="11.00" fill="#000000">...</text>
<polygon fill="#ffffff" stroke="transparent" points="211,-303.2 211,-322.2 330,-322.2 330,-303.2 211,-303.2"/>
<polygon fill="none" stroke="#000000" points="211,-303.2 211,-322.2 330,-322.2 330,-303.2 211,-303.2"/>
<polygon fill="#ffffff" stroke="transparent" points="212,-304.2 212,-321.2 254,-321.2 254,-304.2 212,-304.2"/>
<text text-anchor="start" x="214" y="-309.3" font-family="Helvetica,sans-Serif" font-size="11.00" fill="#000000">&lt; 1</text>
<polygon fill="#ffffff" stroke="transparent" points="254,-304.2 254,-321.2 287,-321.2 287,-304.2 254,-304.2"/>
<text text-anchor="start" x="267.4431" y="-309.3" font-family="Helvetica,sans-Serif" font-size="11.00" fill="#000000"> &#160;</text>
<polygon fill="#ffffff" stroke="transparent" points="287,-304.2 287,-321.2 329,-321.2 329,-304.2 287,-304.2"/>
<text text-anchor="start" x="311.4053" y="-309.3" font-family="Helvetica,sans-Serif" font-size="11.00" fill="#000000">3 &gt;</text>
<polygon fill="#000000" stroke="#000000" points="254,-304.2 254,-321.2 254,-321.2 254,-304.2 254,-304.2"/>
<polygon fill="#000000" stroke="#000000" points="287,-304.2 287,-321.2 287,-321.2 287,-304.2 287,-304.2"/>
</a>
</g>
</g>
<!-- summaries&#45;&gt;users -->
<g id="edge2" class="edge">
<title>summaries:w&#45;&gt;users:e</title>
<path fill="none" stroke="#000000" d="M196.2761,-331.2C163.6139,-331.2 150.3672,-331.2 111.5,-331.2"/>
<polygon fill="#000000" stroke="#000000" points="203,-331.2001 211,-334.8 207,-331.2 211,-331.2 211,-331.2 211,-331.2 207,-331.2 211,-327.6 203,-331.2001 203,-331.2001"/>
<ellipse fill="none" stroke="#000000" cx="199.8" cy="-331.2001" rx="3.2" ry="3.2"/>
</g>
<!-- user_sessions -->
<g id="node4" class="node">
<title>user_sessions</title>
<g id="a_node4"><a xlink:href="../../tables/user_sessions.html" xlink:title="user_sessions" target="_top">
<polygon fill="#ffffff" stroke="transparent" points="160,-38.2 160,-282.2 380,-282.2 380,-38.2 160,-38.2"/>
<polygon fill="#f5f5f5" stroke="transparent" points="162,-257.2 162,-280.2 378,-280.2 378,-257.2 162,-257.2"/>
<polygon fill="none" stroke="#000000" points="162,-257.2 162,-280.2 378,-280.2 378,-257.2 162,-257.2"/>
<text text-anchor="start" x="167" y="-265.8" font-family="Helvetica,sans-Serif" font-weight="bold" font-size="11.00" fill="#000000">user_sessions</text>
<text text-anchor="start" x="343.0437" y="-265.3" font-family="Helvetica,sans-Serif" font-size="11.00" fill="#000000">[table]</text>
<polygon fill="none" stroke="#000000" points="162,-235.2 162,-257.2 284,-257.2 284,-235.2 162,-235.2"/>
<image xlink:href="../../images/primaryKeys.png" width="11px" height="12px" preserveAspectRatio="xMinYMin meet" x="167" y="-252.2"/>
<text text-anchor="start" x="182" y="-242.3" font-family="Helvetica,sans-Serif" font-size="11.00" fill="#000000">id</text>
<polygon fill="none" stroke="#000000" points="284,-235.2 284,-257.2 378,-257.2 378,-235.2 284,-235.2"/>
<text text-anchor="start" x="286.9758" y="-242.9" font-family="Helvetica,sans-Serif" font-size="11.00" fill="#000000">uuid[2147483647]</text>
<polygon fill="#ffffff" stroke="transparent" points="162,-213.2 162,-235.2 284,-235.2 284,-213.2 162,-213.2"/>
<polygon fill="none" stroke="#000000" points="162,-213.2 162,-235.2 284,-235.2 284,-213.2 162,-213.2"/>
<image xlink:href="../../images/foreignKeys.png" width="11px" height="12px" preserveAspectRatio="xMinYMin meet" x="167" y="-230.2"/>
<text text-anchor="start" x="182" y="-220.3" font-family="Helvetica,sans-Serif" font-size="11.00" fill="#000000">user_id</text>
<polygon fill="none" stroke="#000000" points="284,-213.2 284,-235.2 378,-235.2 378,-213.2 284,-213.2"/>
<text text-anchor="start" x="286.9758" y="-220.9" font-family="Helvetica,sans-Serif" font-size="11.00" fill="#000000">uuid[2147483647]</text>
<polygon fill="#ffffff" stroke="transparent" points="162,-191.2 162,-213.2 284,-213.2 284,-191.2 162,-191.2"/>
<polygon fill="none" stroke="#000000" points="162,-191.2 162,-213.2 284,-213.2 284,-191.2 162,-191.2"/>
<text text-anchor="start" x="182" y="-198.3" font-family="Helvetica,sans-Serif" font-size="11.00" fill="#000000">token_hash</text>
<polygon fill="none" stroke="#000000" points="284,-191.2 284,-213.2 378,-213.2 378,-191.2 284,-191.2"/>
<text text-anchor="start" x="287" y="-198.9" font-family="Helvetica,sans-Serif" font-size="11.00" fill="#000000">varchar[64]</text>
<polygon fill="none" stroke="#000000" points="162,-169.2 162,-191.2 284,-191.2 284,-169.2 162,-169.2"/>
<text text-anchor="start" x="182" y="-176.3" font-family="Helvetica,sans-Serif" font-size="11.00" fill="#000000">created_at</text>
<polygon fill="none" stroke="#000000" points="284,-169.2 284,-191.2 378,-191.2 378,-169.2 284,-169.2"/>
<text text-anchor="start" x="287" y="-176.9" font-family="Helvetica,sans-Serif" font-size="11.00" fill="#000000">timestamptz[35,6]</text>
<polygon fill="#ffffff" stroke="transparent" points="162,-147.2 162,-169.2 284,-169.2 284,-147.2 162,-147.2"/>
<polygon fill="none" stroke="#000000" points="162,-147.2 162,-169.2 284,-169.2 284,-147.2 162,-147.2"/>
<text text-anchor="start" x="182" y="-154.3" font-family="Helvetica,sans-Serif" font-size="11.00" fill="#000000">expires_at</text>
<polygon fill="none" stroke="#000000" points="284,-147.2 284,-169.2 378,-169.2 378,-147.2 284,-147.2"/>
<text text-anchor="start" x="287" y="-154.9" font-family="Helvetica,sans-Serif" font-size="11.00" fill="#000000">timestamptz[35,6]</text>
<polygon fill="none" stroke="#000000" points="162,-125.2 162,-147.2 284,-147.2 284,-125.2 162,-125.2"/>
<text text-anchor="start" x="182" y="-132.3" font-family="Helvetica,sans-Serif" font-size="11.00" fill="#000000">last_seen_at</text>
<polygon fill="none" stroke="#000000" points="284,-125.2 284,-147.2 378,-147.2 378,-125.2 284,-125.2"/>
<text text-anchor="start" x="287" y="-132.9" font-family="Helvetica,sans-Serif" font-size="11.00" fill="#000000">timestamptz[35,6]</text>
<polygon fill="none" stroke="#000000" points="162,-103.2 162,-125.2 284,-125.2 284,-103.2 162,-103.2"/>
<text text-anchor="start" x="182" y="-110.3" font-family="Helvetica,sans-Serif" font-size="11.00" fill="#000000">revoked_at</text>
<polygon fill="none" stroke="#000000" points="284,-103.2 284,-125.2 378,-125.2 378,-103.2 284,-103.2"/>
<text text-anchor="start" x="287" y="-110.9" font-family="Helvetica,sans-Serif" font-size="11.00" fill="#000000">timestamptz[35,6]</text>
<polygon fill="none" stroke="#000000" points="162,-81.2 162,-103.2 284,-103.2 284,-81.2 162,-81.2"/>
<text text-anchor="start" x="182" y="-88.3" font-family="Helvetica,sans-Serif" font-size="11.00" fill="#000000">user_agent</text>
<polygon fill="none" stroke="#000000" points="284,-81.2 284,-103.2 378,-103.2 378,-81.2 284,-81.2"/>
<text text-anchor="start" x="287" y="-88.9" font-family="Helvetica,sans-Serif" font-size="11.00" fill="#000000">varchar[512]</text>
<polygon fill="none" stroke="#000000" points="162,-59.2 162,-81.2 284,-81.2 284,-59.2 162,-59.2"/>
<text text-anchor="start" x="182" y="-66.3" font-family="Helvetica,sans-Serif" font-size="11.00" fill="#000000">ip_address</text>
<polygon fill="none" stroke="#000000" points="284,-59.2 284,-81.2 378,-81.2 378,-59.2 284,-59.2"/>
<text text-anchor="start" x="287" y="-66.9" font-family="Helvetica,sans-Serif" font-size="11.00" fill="#000000">varchar[45]</text>
<polygon fill="#ffffff" stroke="transparent" points="162,-40.2 162,-59.2 378,-59.2 378,-40.2 162,-40.2"/>
<polygon fill="none" stroke="#000000" points="162,-40.2 162,-59.2 378,-59.2 378,-40.2 162,-40.2"/>
<polygon fill="#ffffff" stroke="transparent" points="163,-41.2 163,-58.2 238,-58.2 238,-41.2 163,-41.2"/>
<text text-anchor="start" x="165" y="-46.3" font-family="Helvetica,sans-Serif" font-size="11.00" fill="#000000">&lt; 1</text>
<polygon fill="#ffffff" stroke="transparent" points="238,-41.2 238,-58.2 303,-58.2 303,-41.2 238,-41.2"/>
<text text-anchor="start" x="267.4431" y="-46.3" font-family="Helvetica,sans-Serif" font-size="11.00" fill="#000000"> &#160;</text>
<polygon fill="#ffffff" stroke="transparent" points="303,-41.2 303,-58.2 377,-58.2 377,-41.2 303,-41.2"/>
<text text-anchor="start" x="359.4053" y="-46.3" font-family="Helvetica,sans-Serif" font-size="11.00" fill="#000000">0 &gt;</text>
<polygon fill="#000000" stroke="#000000" points="238,-41.2 238,-58.2 238,-58.2 238,-41.2 238,-41.2"/>
<polygon fill="#000000" stroke="#000000" points="303,-41.2 303,-58.2 303,-58.2 303,-41.2 303,-41.2"/>
<polygon fill="none" stroke="#000000" stroke-width="2" points="161,-39.2 161,-281.2 379,-281.2 379,-39.2 161,-39.2"/>
</a>
</g>
</g>
<!-- user_sessions&#45;&gt;users -->
<g id="edge3" class="edge">
<title>user_sessions:w&#45;&gt;users:e</title>
<path fill="none" stroke="#000000" d="M147.9464,-228.0082C120.4242,-247.0691 158.129,-331.2 111.5,-331.2"/>
<polygon fill="#000000" stroke="#000000" points="154.2785,-226.2924 162.9416,-227.6747 158.1392,-225.2462 162,-224.2 162,-224.2 162,-224.2 158.1392,-225.2462 161.0584,-220.7253 154.2785,-226.2924 154.2785,-226.2924"/>
<ellipse fill="none" stroke="#000000" cx="151.1898" cy="-227.1293" rx="3.2" ry="3.2"/>
</g>
</g>
</svg>
