<?xml version="1.0" encoding="UTF-8" standalone="no"?>
<!DOCTYPE svg PUBLIC "-//W3C//DTD SVG 1.1//EN"
 "http://www.w3.org/Graphics/SVG/1.1/DTD/svg11.dtd">
<!-- Generated by graphviz version 2.40.1 (20161225.0304)
 -->
<!-- Title: twoDegreesRelationshipsDiagram Pages: 1 -->
<svg width="784pt" height="535pt"
 viewBox="0.00 0.00 784.00 534.70" xmlns="http://www.w3.org/2000/svg" xmlns:xlink="http://www.w3.org/1999/xlink">
<g id="graph0" class="graph" transform="scale(1 1) rotate(0) translate(4 530.7)">
<title>twoDegreesRelationshipsDiagram</title>
<polygon fill="#ffffff" stroke="transparent" points="-4,4 -4,-530.7 780,-530.7 780,4 -4,4"/>
<text text-anchor="middle" x="72.4936" y="-7.3" font-family="Helvetica,sans-Serif" font-size="11.00" fill="#000000">Generated by SchemaSpy</text>
<!-- action_items -->
<g id="node1" class="node">
<title>action_items</title>
<g id="a_node1"><a xlink:href="../../tables/action_items.html" xlink:title="action_items" target="_top">
<polygon fill="#ffffff" stroke="transparent" points="542,-366.7 542,-522.7 768,-522.7 768,-366.7 542,-366.7"/>
<polygon fill="#f5f5f5" stroke="transparent" points="544,-497.7 544,-520.7 766,-520.7 766,-497.7 544,-497.7"/>
<polygon fill="none" stroke="#000000" points="544,-497.7 544,-520.7 766,-520.7 766,-497.7 544,-497.7"/>
<text text-anchor="start" x="549" y="-506.3" font-family="Helvetica,sans-Serif" font-weight="bold" font-size="11.00" fill="#000000">action_items</text>
<text text-anchor="start" x="731.0437" y="-505.8" font-family="Helvetica,sans-Serif" font-size="11.00" fill="#000000">[table]</text>
<polygon fill="none" stroke="#000000" points="544,-475.7 544,-497.7 657,-497.7 657,-475.7 544,-475.7"/>
<image xlink:href="../../images/primaryKeys.png" width="11px" height="12px" preserveAspectRatio="xMinYMin meet" x="549" y="-492.7"/>
<text text-anchor="start" x="564" y="-482.8" font-family="Helvetica,sans-Serif" font-size="11.00" fill="#000000">id</text>
<polygon fill="none" stroke="#000000" points="657,-475.7 657,-497.7 766,-497.7 766,-475.7 657,-475.7"/>
<text text-anchor="start" x="660" y="-483.4" font-family="Helvetica,sans-Serif" font-size="11.00" fill="#000000">serial[10]</text>
<polygon fill="#ffffff" stroke="transparent" points="544,-453.7 544,-475.7 657,-475.7 657,-453.7 544,-453.7"/>
<polygon fill="none" stroke="#000000" points="544,-453.7 544,-475.7 657,-475.7 657,-453.7 544,-453.7"/>
<image xlink:href="../../images/foreignKeys.png" width="11px" height="12px" preserveAspectRatio="xMinYMin meet" x="549" y="-470.7"/>
<text text-anchor="start" x="564" y="-460.8" font-family="Helvetica,sans-Serif" font-size="11.00" fill="#000000">summary_id</text>
<polygon fill="none" stroke="#000000" points="657,-453.7 657,-475.7 766,-475.7 766,-453.7 657,-453.7"/>
<text text-anchor="start" x="660" y="-461.4" font-family="Helvetica,sans-Serif" font-size="11.00" fill="#000000">uuid[2147483647]</text>
<polygon fill="none" stroke="#000000" points="544,-431.7 544,-453.7 657,-453.7 657,-431.7 544,-431.7"/>
<text text-anchor="start" x="564" y="-438.8" font-family="Helvetica,sans-Serif" font-size="11.00" fill="#000000">description</text>
<polygon fill="none" stroke="#000000" points="657,-431.7 657,-453.7 766,-453.7 766,-431.7 657,-431.7"/>
<text text-anchor="start" x="659.5344" y="-439.4" font-family="Helvetica,sans-Serif" font-size="11.00" fill="#000000">varchar[2147483647]</text>
<polygon fill="none" stroke="#000000" points="544,-409.7 544,-431.7 657,-431.7 657,-409.7 544,-409.7"/>
<text text-anchor="start" x="564" y="-416.8" font-family="Helvetica,sans-Serif" font-size="11.00" fill="#000000">assignee</text>
<polygon fill="none" stroke="#000000" points="657,-409.7 657,-431.7 766,-431.7 766,-409.7 657,-409.7"/>
<text text-anchor="start" x="659.5344" y="-417.4" font-family="Helvetica,sans-Serif" font-size="11.00" fill="#000000">varchar[2147483647]</text>
<polygon fill="none" stroke="#000000" points="544,-387.7 544,-409.7 657,-409.7 657,-387.7 544,-387.7"/>
<text text-anchor="start" x="564" y="-394.8" font-family="Helvetica,sans-Serif" font-size="11.00" fill="#000000">due_date</text>
<polygon fill="none" stroke="#000000" points="657,-387.7 657,-409.7 766,-409.7 766,-387.7 657,-387.7"/>
<text text-anchor="start" x="660" y="-395.4" font-family="Helvetica,sans-Serif" font-size="11.00" fill="#000000">date[13]</text>
<polygon fill="#ffffff" stroke="transparent" points="544,-368.7 544,-387.7 766,-387.7 766,-368.7 544,-368.7"/>
<polygon fill="none" stroke="#000000" points="544,-368.7 544,-387.7 766,-387.7 766,-368.7 544,-368.7"/>
<polygon fill="#ffffff" stroke="transparent" points="545,-369.7 545,-386.7 622,-386.7 622,-369.7 545,-369.7"/>
<text text-anchor="start" x="547" y="-374.8" font-family="Helvetica,sans-Serif" font-size="11.00" fill="#000000">&lt; 1</text>
<polygon fill="#ffffff" stroke="transparent" points="622,-369.7 622,-386.7 689,-386.7 689,-369.7 622,-369.7"/>
<text text-anchor="start" x="652.4431" y="-374.8" font-family="Helvetica,sans-Serif" font-size="11.00" fill="#000000"> &#160;</text>
<polygon fill="#ffffff" stroke="transparent" points="689,-369.7 689,-386.7 765,-386.7 765,-369.7 689,-369.7"/>
<text text-anchor="start" x="747.4053" y="-374.8" font-family="Helvetica,sans-Serif" font-size="11.00" fill="#000000">0 &gt;</text>
<polygon fill="#000000" stroke="#000000" points="622,-369.7 622,-386.7 622,-386.7 622,-369.7 622,-369.7"/>
<polygon fill="#000000" stroke="#000000" points="689,-369.7 689,-386.7 689,-386.7 689,-369.7 689,-369.7"/>
<polygon fill="none" stroke="#000000" stroke-width="2" points="543,-367.7 543,-521.7 767,-521.7 767,-367.7 543,-367.7"/>
</a>
</g>
</g>
<!-- summaries -->
<g id="node2" class="node">
<title>summaries</title>
<g id="a_node2"><a xlink:href="../../tables/summaries.html" xlink:title="summaries" target="_top">
<polygon fill="#ffffff" stroke="transparent" points="348,-112.2 348,-261.2 493,-261.2 493,-112.2 348,-112.2"/>
<polygon fill="#f5f5f5" stroke="transparent" points="348.5,-237.7 348.5,-260.7 493.5,-260.7 493.5,-237.7 348.5,-237.7"/>
<polygon fill="none" stroke="#000000" points="348.5,-237.7 348.5,-260.7 493.5,-260.7 493.5,-237.7 348.5,-237.7"/>
<text text-anchor="start" x="353.5" y="-246.3" font-family="Helvetica,sans-Serif" font-weight="bold" font-size="11.00" fill="#000000">summaries</text>
<text text-anchor="start" x="458.5437" y="-245.8" font-family="Helvetica,sans-Serif" font-size="11.00" fill="#000000">[table]</text>
<polygon fill="none" stroke="#000000" points="348.5,-215.7 348.5,-237.7 493.5,-237.7 493.5,-215.7 348.5,-215.7"/>
<image xlink:href="../../images/primaryKeys.png" width="11px" height="12px" preserveAspectRatio="xMinYMin meet" x="353.5" y="-232.7"/>
<text text-anchor="start" x="368.5" y="-222.8" font-family="Helvetica,sans-Serif" font-size="11.00" fill="#000000">id</text>
<polygon fill="#ffffff" stroke="transparent" points="348.5,-193.7 348.5,-215.7 493.5,-215.7 493.5,-193.7 348.5,-193.7"/>
<polygon fill="none" stroke="#000000" points="348.5,-193.7 348.5,-215.7 493.5,-215.7 493.5,-193.7 348.5,-193.7"/>
<text text-anchor="start" x="368.5" y="-200.8" font-family="Helvetica,sans-Serif" font-size="11.00" fill="#000000">content_hash</text>
<polygon fill="#ffffff" stroke="transparent" points="348.5,-171.7 348.5,-193.7 493.5,-193.7 493.5,-171.7 348.5,-171.7"/>
<polygon fill="none" stroke="#000000" points="348.5,-171.7 348.5,-193.7 493.5,-193.7 493.5,-171.7 348.5,-171.7"/>
<image xlink:href="../../images/foreignKeys.png" width="11px" height="12px" preserveAspectRatio="xMinYMin meet" x="353.5" y="-188.7"/>
<text text-anchor="start" x="368.5" y="-178.8" font-family="Helvetica,sans-Serif" font-size="11.00" fill="#000000">user_id</text>
<polygon fill="#ffffff" stroke="transparent" points="348.5,-149.7 348.5,-171.7 493.5,-171.7 493.5,-149.7 348.5,-149.7"/>
<polygon fill="none" stroke="#000000" points="348.5,-149.7 348.5,-171.7 493.5,-171.7 493.5,-149.7 348.5,-149.7"/>
<image xlink:href="../../images/foreignKeys.png" width="11px" height="12px" preserveAspectRatio="xMinYMin meet" x="353.5" y="-166.7"/>
<text text-anchor="start" x="368.5" y="-156.8" font-family="Helvetica,sans-Serif" font-size="11.00" fill="#000000">group_id</text>
<polygon fill="none" stroke="#000000" points="348.5,-130.7 348.5,-149.7 493.5,-149.7 493.5,-130.7 348.5,-130.7"/>
<text text-anchor="start" x="351.5" y="-136.8" font-family="Helvetica,sans-Serif" font-size="11.00" fill="#000000">...</text>
<polygon fill="#ffffff" stroke="transparent" points="348.5,-111.7 348.5,-130.7 493.5,-130.7 493.5,-111.7 348.5,-111.7"/>
<polygon fill="none" stroke="#000000" points="348.5,-111.7 348.5,-130.7 493.5,-130.7 493.5,-111.7 348.5,-111.7"/>
<polygon fill="#ffffff" stroke="transparent" points="349.5,-112.7 349.5,-129.7 400.5,-129.7 400.5,-112.7 349.5,-112.7"/>
<text text-anchor="start" x="351.5" y="-117.8" font-family="Helvetica,sans-Serif" font-size="11.00" fill="#000000">&lt; 2</text>
<polygon fill="#ffffff" stroke="transparent" points="400.5,-112.7 400.5,-129.7 442.5,-129.7 442.5,-112.7 400.5,-112.7"/>
<text text-anchor="start" x="418.4431" y="-117.8" font-family="Helvetica,sans-Serif" font-size="11.00" fill="#000000"> &#160;</text>
<polygon fill="#ffffff" stroke="transparent" points="442.5,-112.7 442.5,-129.7 492.5,-129.7 492.5,-112.7 442.5,-112.7"/>
<text text-anchor="start" x="474.9053" y="-117.8" font-family="Helvetica,sans-Serif" font-size="11.00" fill="#000000">5 &gt;</text>
<polygon fill="#000000" stroke="#000000" points="400.5,-112.7 400.5,-129.7 400.5,-129.7 400.5,-112.7 400.5,-112.7"/>
<polygon fill="#000000" stroke="#000000" points="442.5,-112.7 442.5,-129.7 442.5,-129.7 442.5,-112.7 442.5,-112.7"/>
</a>
</g>
</g>
<!-- action_items&#45;&gt;summaries -->
<g id="edge1" class="edge">
<title>action_items:w&#45;&gt;summaries:e</title>
<path fill="none" stroke="#000000" d="M529.5739,-462.9211C451.9965,-441.1419 596.1416,-226.7 493.5,-226.7"/>
<polygon fill="#000000" stroke="#000000" points="536.0601,-463.7209 543.5594,-468.2729 540.0301,-464.2104 544,-464.7 544,-464.7 544,-464.7 540.0301,-464.2104 544.4406,-461.1271 536.0601,-463.7209 536.0601,-463.7209"/>
<ellipse fill="none" stroke="#000000" cx="532.8842" cy="-463.3292" rx="3.2" ry="3.2"/>
</g>
<!-- summary_groups -->
<g id="node4" class="node">
<title>summary_groups</title>
<g id="a_node4"><a xlink:href="../../tables/summary_groups.html" xlink:title="summary_groups" target="_top">
<polygon fill="#ffffff" stroke="transparent" points="135,-97.2 135,-158.2 299,-158.2 299,-97.2 135,-97.2"/>
<polygon fill="#f5f5f5" stroke="transparent" points="135,-134.7 135,-157.7 299,-157.7 299,-134.7 135,-134.7"/>
<polygon fill="none" stroke="#000000" points="135,-134.7 135,-157.7 299,-157.7 299,-134.7 135,-134.7"/>
<text text-anchor="start" x="140" y="-143.3" font-family="Helvetica,sans-Serif" font-weight="bold" font-size="11.00" fill="#000000">summary_groups</text>
<text text-anchor="start" x="264.5219" y="-142.8" font-family="Helvetica,sans-Serif" font-size="11.00" fill="#000000">[table]</text>
<polygon fill="none" stroke="#000000" points="135,-115.7 135,-134.7 299,-134.7 299,-115.7 135,-115.7"/>
<text text-anchor="start" x="138" y="-121.8" font-family="Helvetica,sans-Serif" font-size="11.00" fill="#000000">...</text>
<polygon fill="#ffffff" stroke="transparent" points="135,-96.7 135,-115.7 299,-115.7 299,-96.7 135,-96.7"/>
<polygon fill="none" stroke="#000000" points="135,-96.7 135,-115.7 299,-115.7 299,-96.7 135,-96.7"/>
<polygon fill="#ffffff" stroke="transparent" points="136,-97.7 136,-114.7 193,-114.7 193,-97.7 136,-97.7"/>
<text text-anchor="start" x="138" y="-102.8" font-family="Helvetica,sans-Serif" font-size="11.00" fill="#000000">&lt; 1</text>
<polygon fill="#ffffff" stroke="transparent" points="193,-97.7 193,-114.7 241,-114.7 241,-97.7 193,-97.7"/>
<text text-anchor="start" x="213.9431" y="-102.8" font-family="Helvetica,sans-Serif" font-size="11.00" fill="#000000"> &#160;</text>
<polygon fill="#ffffff" stroke="transparent" points="241,-97.7 241,-114.7 298,-114.7 298,-97.7 241,-97.7"/>
<text text-anchor="start" x="280.4053" y="-102.8" font-family="Helvetica,sans-Serif" font-size="11.00" fill="#000000">1 &gt;</text>
<polygon fill="#000000" stroke="#000000" points="193,-97.7 193,-114.7 193,-114.7 193,-97.7 193,-97.7"/>
<polygon fill="#000000" stroke="#000000" points="241,-97.7 241,-114.7 241,-114.7 241,-97.7 241,-97.7"/>
</a>
</g>
</g>
<!-- summaries&#45;&gt;summary_groups -->
<g id="edge3" class="edge">
<title>summaries:w&#45;&gt;summary_groups:e</title>
<path fill="none" stroke="#000000" d="M334.5852,-156.2857C321.9069,-146.6727 320.2523,-124.7 299,-124.7"/>
<polygon fill="#000000" stroke="#000000" points="340.8745,-158.2809 347.4114,-164.1315 344.6873,-159.4904 348.5,-160.7 348.5,-160.7 348.5,-160.7 344.6873,-159.4904 349.5886,-157.2685 340.8745,-158.2809 340.8745,-158.2809"/>
<ellipse fill="none" stroke="#000000" cx="337.8243" cy="-157.3132" rx="3.2" ry="3.2"/>
</g>
<!-- users -->
<g id="node5" class="node">
<title>users</title>
<g id="a_node5"><a xlink:href="../../tables/users.html" xlink:title="users" target="_top">
<polygon fill="#ffffff" stroke="transparent" points="8,-97.2 8,-158.2 86,-158.2 86,-97.2 8,-97.2"/>
<polygon fill="#f5f5f5" stroke="transparent" points="8,-134.7 8,-157.7 86,-157.7 86,-134.7 8,-134.7"/>
<polygon fill="none" stroke="#000000" points="8,-134.7 8,-157.7 86,-157.7 86,-134.7 8,-134.7"/>
<text text-anchor="start" x="13" y="-143.3" font-family="Helvetica,sans-Serif" font-weight="bold" font-size="11.00" fill="#000000">users</text>
<text text-anchor="start" x="51.5219" y="-142.8" font-family="Helvetica,sans-Serif" font-size="11.00" fill="#000000">[table]</text>
<polygon fill="none" stroke="#000000" points="8,-115.7 8,-134.7 86,-134.7 86,-115.7 8,-115.7"/>
<text text-anchor="start" x="11" y="-121.8" font-family="Helvetica,sans-Serif" font-size="11.00" fill="#000000">...</text>
<polygon fill="#ffffff" stroke="transparent" points="8,-96.7 8,-115.7 86,-115.7 86,-96.7 8,-96.7"/>
<polygon fill="none" stroke="#000000" points="8,-96.7 8,-115.7 86,-115.7 86,-96.7 8,-96.7"/>
<polygon fill="#ffffff" stroke="transparent" points="9,-97.7 9,-114.7 32,-114.7 32,-97.7 9,-97.7"/>
<text text-anchor="start" x="11" y="-102.8" font-family="Helvetica,sans-Serif" font-size="11.00" fill="#000000"> &#160;</text>
<polygon fill="#ffffff" stroke="transparent" points="32,-97.7 32,-114.7 54,-114.7 54,-97.7 32,-97.7"/>
<text text-anchor="start" x="39.9431" y="-102.8" font-family="Helvetica,sans-Serif" font-size="11.00" fill="#000000"> &#160;</text>
<polygon fill="#ffffff" stroke="transparent" points="54,-97.7 54,-114.7 85,-114.7 85,-97.7 54,-97.7"/>
<text text-anchor="start" x="67.4053" y="-102.8" font-family="Helvetica,sans-Serif" font-size="11.00" fill="#000000">5 &gt;</text>
<polygon fill="#000000" stroke="#000000" points="32,-97.7 32,-114.7 32,-114.7 32,-97.7 32,-97.7"/>
<polygon fill="#000000" stroke="#000000" points="54,-97.7 54,-114.7 54,-114.7 54,-97.7 54,-97.7"/>
</a>
</g>
</g>
<!-- summaries&#45;&gt;users -->
<g id="edge4" class="edge">
<title>summaries:w&#45;&gt;users:e</title>
<path fill="none" stroke="#000000" d="M333.9594,-182.9051C246.2941,-185.381 211.6376,-208.7423 127,-168.7 102.8381,-157.2689 112.7296,-124.7 86,-124.7"/>
<polygon fill="#000000" stroke="#000000" points="340.5008,-182.8129 348.5508,-186.2996 344.5004,-182.7565 348.5,-182.7 348.5,-182.7 348.5,-182.7 344.5004,-182.7565 348.4492,-179.1004 340.5008,-182.8129 340.5008,-182.8129"/>
<ellipse fill="none" stroke="#000000" cx="337.3011" cy="-182.8581" rx="3.2" ry="3.2"/>
</g>
<!-- decisions -->
<g id="node3" class="node">
<title>decisions</title>
<g id="a_node3"><a xlink:href="../../tables/decisions.html" xlink:title="decisions" target="_top">
<polygon fill="#ffffff" stroke="transparent" points="601.5,-284.2 601.5,-345.2 708.5,-345.2 708.5,-284.2 601.5,-284.2"/>
<polygon fill="#f5f5f5" stroke="transparent" points="602,-321.7 602,-344.7 709,-344.7 709,-321.7 602,-321.7"/>
<polygon fill="none" stroke="#000000" points="602,-321.7 602,-344.7 709,-344.7 709,-321.7 602,-321.7"/>
<text text-anchor="start" x="607" y="-330.3" font-family="Helvetica,sans-Serif" font-weight="bold" font-size="11.00" fill="#000000">decisions</text>
<text text-anchor="start" x="674.5219" y="-329.8" font-family="Helvetica,sans-Serif" font-size="11.00" fill="#000000">[table]</text>
<polygon fill="none" stroke="#000000" points="602,-302.7 602,-321.7 709,-321.7 709,-302.7 602,-302.7"/>
<text text-anchor="start" x="605" y="-308.8" font-family="Helvetica,sans-Serif" font-size="11.00" fill="#000000">...</text>
<polygon fill="#ffffff" stroke="transparent" points="602,-283.7 602,-302.7 709,-302.7 709,-283.7 602,-283.7"/>
<polygon fill="none" stroke="#000000" points="602,-283.7 602,-302.7 709,-302.7 709,-283.7 602,-283.7"/>
<polygon fill="#ffffff" stroke="transparent" points="603,-284.7 603,-301.7 644,-301.7 644,-284.7 603,-284.7"/>
<text text-anchor="start" x="605" y="-289.8" font-family="Helvetica,sans-Serif" font-size="11.00" fill="#000000">&lt; 1</text>
<polygon fill="#ffffff" stroke="transparent" points="644,-284.7 644,-301.7 676,-301.7 676,-284.7 644,-284.7"/>
<text text-anchor="start" x="656.9431" y="-289.8" font-family="Helvetica,sans-Serif" font-size="11.00" fill="#000000"> &#160;</text>
<polygon fill="#ffffff" stroke="transparent" points="676,-284.7 676,-301.7 708,-301.7 708,-284.7 676,-284.7"/>
<text text-anchor="start" x="699.8862" y="-289.8" font-family="Helvetica,sans-Serif" font-size="11.00" fill="#000000"> &#160;</text>
<polygon fill="#000000" stroke="#000000" points="644,-284.7 644,-301.7 644,-301.7 644,-284.7 644,-284.7"/>
<polygon fill="#000000" stroke="#000000" points="676,-284.7 676,-301.7 676,-301.7 676,-284.7 676,-284.7"/>
</a>
</g>
</g>
<!-- decisions&#45;&gt;summaries -->
<g id="edge2" class="edge">
<title>decisions:w&#45;&gt;summaries:e</title>
<path fill="none" stroke="#000000" d="M587.6424,-310.5596C564.8348,-306.5251 556.6299,-292.1716 534,-273.7 512.6384,-256.2636 521.0744,-226.7 493.5,-226.7"/>
<polygon fill="#000000" stroke="#000000" points="594.0251,-311.0665 601.7149,-315.2887 598.0126,-311.3833 602,-311.7 602,-311.7 602,-311.7 598.0126,-311.3833 602.2851,-308.1113 594.0251,-311.0665 594.0251,-311.0665"/>
<ellipse fill="none" stroke="#000000" cx="590.8352" cy="-310.8131" rx="3.2" ry="3.2"/>
</g>
<!-- summary_groups&#45;&gt;users -->
<g id="edge5" class="edge">
<title>summary_groups:w&#45;&gt;users:e</title>
<path fill="none" stroke="#000000" d="M120.4909,-124.7C109.1774,-124.7 101.9931,-124.7 86,-124.7"/>
<polygon fill="#000000" stroke="#000000" points="127,-124.7001 135,-128.3 131,-124.7 135,-124.7 135,-124.7 135,-124.7 131,-124.7 135,-121.1 127,-124.7001 127,-124.7001"/>
<ellipse fill="none" stroke="#000000" cx="123.8" cy="-124.7001" rx="3.2" ry="3.2"/>
</g>
<!-- topics -->
<g id="node6" class="node">
<title>topics</title>
<g id="a_node6"><a xlink:href="../../tables/topics.html" xlink:title="topics" target="_top">
<polygon fill="#ffffff" stroke="transparent" points="613.5,-202.2 613.5,-263.2 696.5,-263.2 696.5,-202.2 613.5,-202.2"/>
<polygon fill="#f5f5f5" stroke="transparent" points="614,-239.7 614,-262.7 697,-262.7 697,-239.7 614,-239.7"/>
<polygon fill="none" stroke="#000000" points="614,-239.7 614,-262.7 697,-262.7 697,-239.7 614,-239.7"/>
<text text-anchor="start" x="619" y="-248.3" font-family="Helvetica,sans-Serif" font-weight="bold" font-size="11.00" fill="#000000">topics</text>
<text text-anchor="start" x="662.5219" y="-247.8" font-family="Helvetica,sans-Serif" font-size="11.00" fill="#000000">[table]</text>
<polygon fill="none" stroke="#000000" points="614,-220.7 614,-239.7 697,-239.7 697,-220.7 614,-220.7"/>
<text text-anchor="start" x="617" y="-226.8" font-family="Helvetica,sans-Serif" font-size="11.00" fill="#000000">...</text>
<polygon fill="#ffffff" stroke="transparent" points="614,-201.7 614,-220.7 697,-220.7 697,-201.7 614,-201.7"/>
<polygon fill="none" stroke="#000000" points="614,-201.7 614,-220.7 697,-220.7 697,-201.7 614,-201.7"/>
<polygon fill="#ffffff" stroke="transparent" points="615,-202.7 615,-219.7 648,-219.7 648,-202.7 615,-202.7"/>
<text text-anchor="start" x="617" y="-207.8" font-family="Helvetica,sans-Serif" font-size="11.00" fill="#000000">&lt; 1</text>
<polygon fill="#ffffff" stroke="transparent" points="648,-202.7 648,-219.7 672,-219.7 672,-202.7 648,-202.7"/>
<text text-anchor="start" x="656.9431" y="-207.8" font-family="Helvetica,sans-Serif" font-size="11.00" fill="#000000"> &#160;</text>
<polygon fill="#ffffff" stroke="transparent" points="672,-202.7 672,-219.7 696,-219.7 696,-202.7 672,-202.7"/>
<text text-anchor="start" x="687.8862" y="-207.8" font-family="Helvetica,sans-Serif" font-size="11.00" fill="#000000"> &#160;</text>
<polygon fill="#000000" stroke="#000000" points="648,-202.7 648,-219.7 648,-219.7 648,-202.7 648,-202.7"/>
<polygon fill="#000000" stroke="#000000" points="672,-202.7 672,-219.7 672,-219.7 672,-202.7 672,-202.7"/>
</a>
</g>
</g>
<!-- topics&#45;&gt;summaries -->
<g id="edge6" class="edge">
<title>topics:w&#45;&gt;summaries:e</title>
<path fill="none" stroke="#000000" d="M599.3807,-229.6198C557.4358,-229.1427 541.8405,-226.7 493.5,-226.7"/>
<polygon fill="#000000" stroke="#000000" points="606.0001,-229.656 613.9802,-233.2999 610.0001,-229.678 614,-229.7 614,-229.7 614,-229.7 610.0001,-229.678 614.0198,-226.1001 606.0001,-229.656 606.0001,-229.656"/>
<ellipse fill="none" stroke="#000000" cx="602.8002" cy="-229.6384" rx="3.2" ry="3.2"/>
</g>
<!-- transcript_segments -->
<g id="node7" class="node">
<title>transcript_segments</title>
<g id="a_node7"><a xlink:href="../../tables/transcript_segments.html" xlink:title="transcript_segments" target="_top">
<polygon fill="#ffffff" stroke="transparent" points="560.5,-120.2 560.5,-181.2 749.5,-181.2 749.5,-120.2 560.5,-120.2"/>
<polygon fill="#f5f5f5" stroke="transparent" points="561,-157.7 561,-180.7 750,-180.7 750,-157.7 561,-157.7"/>
<polygon fill="none" stroke="#000000" points="561,-157.7 561,-180.7 750,-180.7 750,-157.7 561,-157.7"/>
<text text-anchor="start" x="566" y="-166.3" font-family="Helvetica,sans-Serif" font-weight="bold" font-size="11.00" fill="#000000">transcript_segments</text>
<text text-anchor="start" x="715.5219" y="-165.8" font-family="Helvetica,sans-Serif" font-size="11.00" fill="#000000">[table]</text>
<polygon fill="none" stroke="#000000" points="561,-138.7 561,-157.7 750,-157.7 750,-138.7 561,-138.7"/>
<text text-anchor="start" x="564" y="-144.8" font-family="Helvetica,sans-Serif" font-size="11.00" fill="#000000">...</text>
<polygon fill="#ffffff" stroke="transparent" points="561,-119.7 561,-138.7 750,-138.7 750,-119.7 561,-119.7"/>
<polygon fill="none" stroke="#000000" points="561,-119.7 561,-138.7 750,-138.7 750,-119.7 561,-119.7"/>
<polygon fill="#ffffff" stroke="transparent" points="562,-120.7 562,-137.7 631,-137.7 631,-120.7 562,-120.7"/>
<text text-anchor="start" x="564" y="-125.8" font-family="Helvetica,sans-Serif" font-size="11.00" fill="#000000">&lt; 1</text>
<polygon fill="#ffffff" stroke="transparent" points="631,-120.7 631,-137.7 690,-137.7 690,-120.7 631,-120.7"/>
<text text-anchor="start" x="657.4431" y="-125.8" font-family="Helvetica,sans-Serif" font-size="11.00" fill="#000000"> &#160;</text>
<polygon fill="#ffffff" stroke="transparent" points="690,-120.7 690,-137.7 749,-137.7 749,-120.7 690,-120.7"/>
<text text-anchor="start" x="740.8862" y="-125.8" font-family="Helvetica,sans-Serif" font-size="11.00" fill="#000000"> &#160;</text>
<polygon fill="#000000" stroke="#000000" points="631,-120.7 631,-137.7 631,-137.7 631,-120.7 631,-120.7"/>
<polygon fill="#000000" stroke="#000000" points="690,-120.7 690,-137.7 690,-137.7 690,-120.7 690,-120.7"/>
</a>
</g>
</g>
<!-- transcript_segments&#45;&gt;summaries -->
<g id="edge7" class="edge">
<title>transcript_segments:w&#45;&gt;summaries:e</title>
<path fill="none" stroke="#000000" d="M546.7345,-151.0945C519.9238,-166.2156 533.9094,-226.7 493.5,-226.7"/>
<polygon fill="#000000" stroke="#000000" points="553.2173,-149.552 561.8334,-151.2022 557.1087,-148.626 561,-147.7 561,-147.7 561,-147.7 557.1087,-148.626 560.1666,-144.1978 553.2173,-149.552 553.2173,-149.552"/>
<ellipse fill="none" stroke="#000000" cx="550.1042" cy="-150.2927" rx="3.2" ry="3.2"/>
</g>
<!-- transcription_jobs -->
<g id="node8" class="node">
<title>transcription_jobs</title>
<g id="a_node8"><a xlink:href="../../tables/transcription_jobs.html" xlink:title="transcription_jobs" target="_top">
<polygon fill="#ffffff" stroke="transparent" points="569.5,-38.2 569.5,-99.2 740.5,-99.2 740.5,-38.2 569.5,-38.2"/>
<polygon fill="#f5f5f5" stroke="transparent" points="570,-75.7 570,-98.7 741,-98.7 741,-75.7 570,-75.7"/>
<polygon fill="none" stroke="#000000" points="570,-75.7 570,-98.7 741,-98.7 741,-75.7 570,-75.7"/>
<text text-anchor="start" x="575" y="-84.3" font-family="Helvetica,sans-Serif" font-weight="bold" font-size="11.00" fill="#000000">transcription_jobs</text>
<text text-anchor="start" x="706.5219" y="-83.8" font-family="Helvetica,sans-Serif" font-size="11.00" fill="#000000">[table]</text>
<polygon fill="none" stroke="#000000" points="570,-56.7 570,-75.7 741,-75.7 741,-56.7 570,-56.7"/>
<text text-anchor="start" x="573" y="-62.8" font-family="Helvetica,sans-Serif" font-size="11.00" fill="#000000">...</text>
<polygon fill="#ffffff" stroke="transparent" points="570,-37.7 570,-56.7 741,-56.7 741,-37.7 570,-37.7"/>
<polygon fill="none" stroke="#000000" points="570,-37.7 570,-56.7 741,-56.7 741,-37.7 570,-37.7"/>
<polygon fill="#ffffff" stroke="transparent" points="571,-38.7 571,-55.7 634,-55.7 634,-38.7 571,-38.7"/>
<text text-anchor="start" x="573" y="-43.8" font-family="Helvetica,sans-Serif" font-size="11.00" fill="#000000">&lt; 2</text>
<polygon fill="#ffffff" stroke="transparent" points="634,-38.7 634,-55.7 687,-55.7 687,-38.7 634,-38.7"/>
<text text-anchor="start" x="657.4431" y="-43.8" font-family="Helvetica,sans-Serif" font-size="11.00" fill="#000000"> &#160;</text>
<polygon fill="#ffffff" stroke="transparent" points="687,-38.7 687,-55.7 740,-55.7 740,-38.7 687,-38.7"/>
<text text-anchor="start" x="731.8862" y="-43.8" font-family="Helvetica,sans-Serif" font-size="11.00" fill="#000000"> &#160;</text>
<polygon fill="#000000" stroke="#000000" points="634,-38.7 634,-55.7 634,-55.7 634,-38.7 634,-38.7"/>
<polygon fill="#000000" stroke="#000000" points="687,-38.7 687,-55.7 687,-55.7 687,-38.7 687,-38.7"/>
</a>
</g>
</g>
<!-- transcription_jobs&#45;&gt;summaries -->
<g id="edge8" class="edge">
<title>transcription_jobs:w&#45;&gt;summaries:e</title>
<path fill="none" stroke="#000000" d="M555.5673,-67.9759C501.5043,-87.5447 567.1521,-226.7 493.5,-226.7"/>
<polygon fill="#000000" stroke="#000000" points="562.0977,-66.9462 570.5608,-69.2561 566.0488,-66.3231 570,-65.7 570,-65.7 570,-65.7 566.0488,-66.3231 569.4392,-62.1439 562.0977,-66.9462 562.0977,-66.9462"/>
<ellipse fill="none" stroke="#000000" cx="558.9367" cy="-67.4447" rx="3.2" ry="3.2"/>
</g>
<!-- transcription_jobs&#45;&gt;users -->
<g id="edge9" class="edge">
<title>transcription_jobs:w&#45;&gt;users:e</title>
<path fill="none" stroke="#000000" d="M555.518,-65.6C369.6226,-63.028 304.2229,-12.3128 127,-86.7 104.091,-96.3158 110.8452,-124.7 86,-124.7"/>
<polygon fill="#000000" stroke="#000000" points="562.0002,-65.6447 569.9751,-69.2999 566.0001,-65.6724 570,-65.7 570,-65.7 570,-65.7 566.0001,-65.6724 570.0249,-62.1001 562.0002,-65.6447 562.0002,-65.6447"/>
<ellipse fill="none" stroke="#000000" cx="558.8003" cy="-65.6226" rx="3.2" ry="3.2"/>
</g>
</g>
</svg>
