<?xml version="1.0" encoding="UTF-8" standalone="no"?>
<!DOCTYPE svg PUBLIC "-//W3C//DTD SVG 1.1//EN"
 "http://www.w3.org/Graphics/SVG/1.1/DTD/svg11.dtd">
<!-- Generated by graphviz version 2.40.1 (20161225.0304)
 -->
<!-- Title: twoDegreesRelationshipsDiagram Pages: 1 -->
<svg width="780pt" height="513pt"
 viewBox="0.00 0.00 780.00 513.20" xmlns="http://www.w3.org/2000/svg" xmlns:xlink="http://www.w3.org/1999/xlink">
<g id="graph0" class="graph" transform="scale(1 1) rotate(0) translate(4 509.2)">
<title>twoDegreesRelationshipsDiagram</title>
<polygon fill="#ffffff" stroke="transparent" points="-4,4 -4,-509.2 776,-509.2 776,4 -4,4"/>
<text text-anchor="middle" x="72.4936" y="-7.3" font-family="Helvetica,sans-Serif" font-size="11.00" fill="#000000">Generated by SchemaSpy</text>
<!-- action_items -->
<g id="node1" class="node">
<title>action_items</title>
<g id="a_node1"><a xlink:href="../../tables/action_items.html" xlink:title="action_items" target="_top">
<polygon fill="#ffffff" stroke="transparent" points="587.5,-440.2 587.5,-501.2 718.5,-501.2 718.5,-440.2 587.5,-440.2"/>
<polygon fill="#f5f5f5" stroke="transparent" points="588,-477.7 588,-500.7 719,-500.7 719,-477.7 588,-477.7"/>
<polygon fill="none" stroke="#000000" points="588,-477.7 588,-500.7 719,-500.7 719,-477.7 588,-477.7"/>
<text text-anchor="start" x="593" y="-486.3" font-family="Helvetica,sans-Serif" font-weight="bold" font-size="11.00" fill="#000000">action_items</text>
<text text-anchor="start" x="684.5219" y="-485.8" font-family="Helvetica,sans-Serif" font-size="11.00" fill="#000000">[table]</text>
<polygon fill="none" stroke="#000000" points="588,-458.7 588,-477.7 719,-477.7 719,-458.7 588,-458.7"/>
<text text-anchor="start" x="591" y="-464.8" font-family="Helvetica,sans-Serif" font-size="11.00" fill="#000000">...</text>
<polygon fill="#ffffff" stroke="transparent" points="588,-439.7 588,-458.7 719,-458.7 719,-439.7 588,-439.7"/>
<polygon fill="none" stroke="#000000" points="588,-439.7 588,-458.7 719,-458.7 719,-439.7 588,-439.7"/>
<polygon fill="#ffffff" stroke="transparent" points="589,-440.7 589,-457.7 638,-457.7 638,-440.7 589,-440.7"/>
<text text-anchor="start" x="591" y="-445.8" font-family="Helvetica,sans-Serif" font-size="11.00" fill="#000000">&lt; 1</text>
<polygon fill="#ffffff" stroke="transparent" points="638,-440.7 638,-457.7 678,-457.7 678,-440.7 638,-440.7"/>
<text text-anchor="start" x="654.9431" y="-445.8" font-family="Helvetica,sans-Serif" font-size="11.00" fill="#000000"> &#160;</text>
<polygon fill="#ffffff" stroke="transparent" points="678,-440.7 678,-457.7 718,-457.7 718,-440.7 678,-440.7"/>
<text text-anchor="start" x="709.8862" y="-445.8" font-family="Helvetica,sans-Serif" font-size="11.00" fill="#000000"> &#160;</text>
<polygon fill="#000000" stroke="#000000" points="638,-440.7 638,-457.7 638,-457.7 638,-440.7 638,-440.7"/>
<polygon fill="#000000" stroke="#000000" points="678,-440.7 678,-457.7 678,-457.7 678,-440.7 678,-440.7"/>
</a>
</g>
</g>
<!-- summaries -->
<g id="node2" class="node">
<title>summaries</title>
<g id="a_node2"><a xlink:href="../../tables/summaries.html" xlink:title="summaries" target="_top">
<polygon fill="#ffffff" stroke="transparent" points="348,-112.2 348,-261.2 493,-261.2 493,-112.2 348,-112.2"/>
<polygon fill="#f5f5f5" stroke="transparent" points="348.5,-237.7 348.5,-260.7 493.5,-260.7 493.5,-237.7 348.5,-237.7"/>
<polygon fill="none" stroke="#000000" points="348.5,-237.7 348.5,-260.7 493.5,-260.7 493.5,-237.7 348.5,-237.7"/>
<text text-anchor="start" x="353.5" y="-246.3" font-family="Helvetica,sans-Serif" font-weight="bold" font-size="11.00" fill="#000000">summaries</text>
<text text-anchor="start" x="458.5437" y="-245.8" font-family="Helvetica,sans-Serif" font-size="11.00" fill="#000000">[table]</text>
<polygon fill="none" stroke="#000000" points="348.5,-215.7 348.5,-237.7 493.5,-237.7 493.5,-215.7 348.5,-215.7"/>
<image xlink:href="../../images/primaryKeys.png" width="11px" height="12px" preserveAspectRatio="xMinYMin meet" x="353.5" y="-232.7"/>
<text text-anchor="start" x="368.5" y="-222.8" font-family="Helvetica,sans-Serif" font-size="11.00" fill="#000000">id</text>
<polygon fill="#ffffff" stroke="transparent" points="348.5,-193.7 348.5,-215.7 493.5,-215.7 493.5,-193.7 348.5,-193.7"/>
<polygon fill="none" stroke="#000000" points="348.5,-193.7 348.5,-215.7 493.5,-215.7 493.5,-193.7 348.5,-193.7"/>
<text text-anchor="start" x="368.5" y="-200.8" font-family="Helvetica,sans-Serif" font-size="11.00" fill="#000000">content_hash</text>
<polygon fill="#ffffff" stroke="transparent" points="348.5,-171.7 348.5,-193.7 493.5,-193.7 493.5,-171.7 348.5,-171.7"/>
<polygon fill="none" stroke="#000000" points="348.5,-171.7 348.5,-193.7 493.5,-193.7 493.5,-171.7 348.5,-171.7"/>
<image xlink:href="../../images/foreignKeys.png" width="11px" height="12px" preserveAspectRatio="xMinYMin meet" x="353.5" y="-188.7"/>
<text text-anchor="start" x="368.5" y="-178.8" font-family="Helvetica,sans-Serif" font-size="11.00" fill="#000000">user_id</text>
<polygon fill="#ffffff" stroke="transparent" points="348.5,-149.7 348.5,-171.7 493.5,-171.7 493.5,-149.7 348.5,-149.7"/>
<polygon fill="none" stroke="#000000" points="348.5,-149.7 348.5,-171.7 493.5,-171.7 493.5,-149.7 348.5,-149.7"/>
<image xlink:href="../../images/foreignKeys.png" width="11px" height="12px" preserveAspectRatio="xMinYMin meet" x="353.5" y="-166.7"/>
<text text-anchor="start" x="368.5" y="-156.8" font-family="Helvetica,sans-Serif" font-size="11.00" fill="#000000">group_id</text>
<polygon fill="none" stroke="#000000" points="348.5,-130.7 348.5,-149.7 493.5,-149.7 493.5,-130.7 348.5,-130.7"/>
<text text-anchor="start" x="351.5" y="-136.8" font-family="Helvetica,sans-Serif" font-size="11.00" fill="#000000">...</text>
<polygon fill="#ffffff" stroke="transparent" points="348.5,-111.7 348.5,-130.7 493.5,-130.7 493.5,-111.7 348.5,-111.7"/>
<polygon fill="none" stroke="#000000" points="348.5,-111.7 348.5,-130.7 493.5,-130.7 493.5,-111.7 348.5,-111.7"/>
<polygon fill="#ffffff" stroke="transparent" points="349.5,-112.7 349.5,-129.7 400.5,-129.7 400.5,-112.7 349.5,-112.7"/>
<text text-anchor="start" x="351.5" y="-117.8" font-family="Helvetica,sans-Serif" font-size="11.00" fill="#000000">&lt; 2</text>
<polygon fill="#ffffff" stroke="transparent" points="400.5,-112.7 400.5,-129.7 442.5,-129.7 442.5,-112.7 400.5,-112.7"/>
<text text-anchor="start" x="418.4431" y="-117.8" font-family="Helvetica,sans-Serif" font-size="11.00" fill="#000000"> &#160;</text>
<polygon fill="#ffffff" stroke="transparent" points="442.5,-112.7 442.5,-129.7 492.5,-129.7 492.5,-112.7 442.5,-112.7"/>
<text text-anchor="start" x="474.9053" y="-117.8" font-family="Helvetica,sans-Serif" font-size="11.00" fill="#000000">5 &gt;</text>
<polygon fill="#000000" stroke="#000000" points="400.5,-112.7 400.5,-129.7 400.5,-129.7 400.5,-112.7 400.5,-112.7"/>
<polygon fill="#000000" stroke="#000000" points="442.5,-112.7 442.5,-129.7 442.5,-129.7 442.5,-112.7 442.5,-112.7"/>
</a>
</g>
</g>
<!-- action_items&#45;&gt;summaries -->
<g id="edge1" class="edge">
<title>action_items:w&#45;&gt;summaries:e</title>
<path fill="none" stroke="#000000" d="M573.4914,-466.3005C555.1546,-462.2787 547.0124,-449.6806 534,-429.7 483.793,-352.6071 585.5003,-226.7 493.5,-226.7"/>
<polygon fill="#000000" stroke="#000000" points="580.037,-466.9318 587.6543,-471.2834 584.0185,-467.3159 588,-467.7 588,-467.7 588,-467.7 584.0185,-467.3159 588.3457,-464.1166 580.037,-466.9318 580.037,-466.9318"/>
<ellipse fill="none" stroke="#000000" cx="576.8517" cy="-466.6246" rx="3.2" ry="3.2"/>
</g>
<!-- summary_groups -->
<g id="node4" class="node">
<title>summary_groups</title>
<g id="a_node4"><a xlink:href="../../tables/summary_groups.html" xlink:title="summary_groups" target="_top">
<polygon fill="#ffffff" stroke="transparent" points="135,-97.2 135,-158.2 299,-158.2 299,-97.2 135,-97.2"/>
<polygon fill="#f5f5f5" stroke="transparent" points="135,-134.7 135,-157.7 299,-157.7 299,-134.7 135,-134.7"/>
<polygon fill="none" stroke="#000000" points="135,-134.7 135,-157.7 299,-157.7 299,-134.7 135,-134.7"/>
<text text-anchor="start" x="140" y="-143.3" font-family="Helvetica,sans-Serif" font-weight="bold" font-size="11.00" fill="#000000">summary_groups</text>
<text text-anchor="start" x="264.5219" y="-142.8" font-family="Helvetica,sans-Serif" font-size="11.00" fill="#000000">[table]</text>
<polygon fill="none" stroke="#000000" points="135,-115.7 135,-134.7 299,-134.7 299,-115.7 135,-115.7"/>
<text text-anchor="start" x="138" y="-121.8" font-family="Helvetica,sans-Serif" font-size="11.00" fill="#000000">...</text>
<polygon fill="#ffffff" stroke="transparent" points="135,-96.7 135,-115.7 299,-115.7 299,-96.7 135,-96.7"/>
<polygon fill="none" stroke="#000000" points="135,-96.7 135,-115.7 299,-115.7 299,-96.7 135,-96.7"/>
<polygon fill="#ffffff" stroke="transparent" points="136,-97.7 136,-114.7 193,-114.7 193,-97.7 136,-97.7"/>
<text text-anchor="start" x="138" y="-102.8" font-family="Helvetica,sans-Serif" font-size="11.00" fill="#000000">&lt; 1</text>
<polygon fill="#ffffff" stroke="transparent" points="193,-97.7 193,-114.7 241,-114.7 241,-97.7 193,-97.7"/>
<text text-anchor="start" x="213.9431" y="-102.8" font-family="Helvetica,sans-Serif" font-size="11.00" fill="#000000"> &#160;</text>
<polygon fill="#ffffff" stroke="transparent" points="241,-97.7 241,-114.7 298,-114.7 298,-97.7 241,-97.7"/>
<text text-anchor="start" x="280.4053" y="-102.8" font-family="Helvetica,sans-Serif" font-size="11.00" fill="#000000">1 &gt;</text>
<polygon fill="#000000" stroke="#000000" points="193,-97.7 193,-114.7 193,-114.7 193,-97.7 193,-97.7"/>
<polygon fill="#000000" stroke="#000000" points="241,-97.7 241,-114.7 241,-114.7 241,-97.7 241,-97.7"/>
</a>
</g>
</g>
<!-- summaries&#45;&gt;summary_groups -->
<g id="edge3" class="edge">
<title>summaries:w&#45;&gt;summary_groups:e</title>
<path fill="none" stroke="#000000" d="M334.5852,-156.2857C321.9069,-146.6727 320.2523,-124.7 299,-124.7"/>
<polygon fill="#000000" stroke="#000000" points="340.8745,-158.2809 347.4114,-164.1315 344.6873,-159.4904 348.5,-160.7 348.5,-160.7 348.5,-160.7 344.6873,-159.4904 349.5886,-157.2685 340.8745,-158.2809 340.8745,-158.2809"/>
<ellipse fill="none" stroke="#000000" cx="337.8243" cy="-157.3132" rx="3.2" ry="3.2"/>
</g>
<!-- users -->
<g id="node5" class="node">
<title>users</title>
<g id="a_node5"><a xlink:href="../../tables/users.html" xlink:title="users" target="_top">
<polygon fill="#ffffff" stroke="transparent" points="8,-97.2 8,-158.2 86,-158.2 86,-97.2 8,-97.2"/>
<polygon fill="#f5f5f5" stroke="transparent" points="8,-134.7 8,-157.7 86,-157.7 86,-134.7 8,-134.7"/>
<polygon fill="none" stroke="#000000" points="8,-134.7 8,-157.7 86,-157.7 86,-134.7 8,-134.7"/>
<text text-anchor="start" x="13" y="-143.3" font-family="Helvetica,sans-Serif" font-weight="bold" font-size="11.00" fill="#000000">users</text>
<text text-anchor="start" x="51.5219" y="-142.8" font-family="Helvetica,sans-Serif" font-size="11.00" fill="#000000">[table]</text>
<polygon fill="none" stroke="#000000" points="8,-115.7 8,-134.7 86,-134.7 86,-115.7 8,-115.7"/>
<text text-anchor="start" x="11" y="-121.8" font-family="Helvetica,sans-Serif" font-size="11.00" fill="#000000">...</text>
<polygon fill="#ffffff" stroke="transparent" points="8,-96.7 8,-115.7 86,-115.7 86,-96.7 8,-96.7"/>
<polygon fill="none" stroke="#000000" points="8,-96.7 8,-115.7 86,-115.7 86,-96.7 8,-96.7"/>
<polygon fill="#ffffff" stroke="transparent" points="9,-97.7 9,-114.7 32,-114.7 32,-97.7 9,-97.7"/>
<text text-anchor="start" x="11" y="-102.8" font-family="Helvetica,sans-Serif" font-size="11.00" fill="#000000"> &#160;</text>
<polygon fill="#ffffff" stroke="transparent" points="32,-97.7 32,-114.7 54,-114.7 54,-97.7 32,-97.7"/>
<text text-anchor="start" x="39.9431" y="-102.8" font-family="Helvetica,sans-Serif" font-size="11.00" fill="#000000"> &#160;</text>
<polygon fill="#ffffff" stroke="transparent" points="54,-97.7 54,-114.7 85,-114.7 85,-97.7 54,-97.7"/>
<text text-anchor="start" x="67.4053" y="-102.8" font-family="Helvetica,sans-Serif" font-size="11.00" fill="#000000">5 &gt;</text>
<polygon fill="#000000" stroke="#000000" points="32,-97.7 32,-114.7 32,-114.7 32,-97.7 32,-97.7"/>
<polygon fill="#000000" stroke="#000000" points="54,-97.7 54,-114.7 54,-114.7 54,-97.7 54,-97.7"/>
</a>
</g>
</g>
<!-- summaries&#45;&gt;users -->
<g id="edge4" class="edge">
<title>summaries:w&#45;&gt;users:e</title>
<path fill="none" stroke="#000000" d="M333.9594,-182.9051C246.2941,-185.381 211.6376,-208.7423 127,-168.7 102.8381,-157.2689 112.7296,-124.7 86,-124.7"/>
<polygon fill="#000000" stroke="#000000" points="340.5008,-182.8129 348.5508,-186.2996 344.5004,-182.7565 348.5,-182.7 348.5,-182.7 348.5,-182.7 344.5004,-182.7565 348.4492,-179.1004 340.5008,-182.8129 340.5008,-182.8129"/>
<ellipse fill="none" stroke="#000000" cx="337.3011" cy="-182.8581" rx="3.2" ry="3.2"/>
</g>
<!-- decisions -->
<g id="node3" class="node">
<title>decisions</title>
<g id="a_node3"><a xlink:href="../../tables/decisions.html" xlink:title="decisions" target="_top">
<polygon fill="#ffffff" stroke="transparent" points="542,-284.7 542,-418.7 764,-418.7 764,-284.7 542,-284.7"/>
<polygon fill="#f5f5f5" stroke="transparent" points="544,-393.7 544,-416.7 762,-416.7 762,-393.7 544,-393.7"/>
<polygon fill="none" stroke="#000000" points="544,-393.7 544,-416.7 762,-416.7 762,-393.7 544,-393.7"/>
<text text-anchor="start" x="549" y="-402.3" font-family="Helvetica,sans-Serif" font-weight="bold" font-size="11.00" fill="#000000">decisions</text>
<text text-anchor="start" x="727.0437" y="-401.8" font-family="Helvetica,sans-Serif" font-size="11.00" fill="#000000">[table]</text>
<polygon fill="none" stroke="#000000" points="544,-371.7 544,-393.7 653,-393.7 653,-371.7 544,-371.7"/>
<image xlink:href="../../images/primaryKeys.png" width="11px" height="12px" preserveAspectRatio="xMinYMin meet" x="549" y="-388.7"/>
<text text-anchor="start" x="564" y="-378.8" font-family="Helvetica,sans-Serif" font-size="11.00" fill="#000000">id</text>
<polygon fill="none" stroke="#000000" points="653,-371.7 653,-393.7 762,-393.7 762,-371.7 653,-371.7"/>
<text text-anchor="start" x="656" y="-379.4" font-family="Helvetica,sans-Serif" font-size="11.00" fill="#000000">serial[10]</text>
<polygon fill="#ffffff" stroke="transparent" points="544,-349.7 544,-371.7 653,-371.7 653,-349.7 544,-349.7"/>
<polygon fill="none" stroke="#000000" points="544,-349.7 544,-371.7 653,-371.7 653,-349.7 544,-349.7"/>
<image xlink:href="../../images/foreignKeys.png" width="11px" height="12px" preserveAspectRatio="xMinYMin meet" x="549" y="-366.7"/>
<text text-anchor="start" x="564" y="-356.8" font-family="Helvetica,sans-Serif" font-size="11.00" fill="#000000">summary_id</text>
<polygon fill="none" stroke="#000000" points="653,-349.7 653,-371.7 762,-371.7 762,-349.7 653,-349.7"/>
<text text-anchor="start" x="656" y="-357.4" font-family="Helvetica,sans-Serif" font-size="11.00" fill="#000000">uuid[2147483647]</text>
<polygon fill="none" stroke="#000000" points="544,-327.7 544,-349.7 653,-349.7 653,-327.7 544,-327.7"/>
<text text-anchor="start" x="564" y="-334.8" font-family="Helvetica,sans-Serif" font-size="11.00" fill="#000000">description</text>
<polygon fill="none" stroke="#000000" points="653,-327.7 653,-349.7 762,-349.7 762,-327.7 653,-327.7"/>
<text text-anchor="start" x="655.5344" y="-335.4" font-family="Helvetica,sans-Serif" font-size="11.00" fill="#000000">varchar[2147483647]</text>
<polygon fill="none" stroke="#000000" points="544,-305.7 544,-327.7 653,-327.7 653,-305.7 544,-305.7"/>
<text text-anchor="start" x="564" y="-312.8" font-family="Helvetica,sans-Serif" font-size="11.00" fill="#000000">decided_by</text>
<polygon fill="none" stroke="#000000" points="653,-305.7 653,-327.7 762,-327.7 762,-305.7 653,-305.7"/>
<text text-anchor="start" x="655.5344" y="-313.4" font-family="Helvetica,sans-Serif" font-size="11.00" fill="#000000">varchar[2147483647]</text>
<polygon fill="#ffffff" stroke="transparent" points="544,-286.7 544,-305.7 762,-305.7 762,-286.7 544,-286.7"/>
<polygon fill="none" stroke="#000000" points="544,-286.7 544,-305.7 762,-305.7 762,-286.7 544,-286.7"/>
<polygon fill="#ffffff" stroke="transparent" points="545,-287.7 545,-304.7 620,-304.7 620,-287.7 545,-287.7"/>
<text text-anchor="start" x="547" y="-292.8" font-family="Helvetica,sans-Serif" font-size="11.00" fill="#000000">&lt; 1</text>
<polygon fill="#ffffff" stroke="transparent" points="620,-287.7 620,-304.7 686,-304.7 686,-287.7 620,-287.7"/>
<text text-anchor="start" x="649.9431" y="-292.8" font-family="Helvetica,sans-Serif" font-size="11.00" fill="#000000"> &#160;</text>
<polygon fill="#ffffff" stroke="transparent" points="686,-287.7 686,-304.7 761,-304.7 761,-287.7 686,-287.7"/>
<text text-anchor="start" x="743.4053" y="-292.8" font-family="Helvetica,sans-Serif" font-size="11.00" fill="#000000">0 &gt;</text>
<polygon fill="#000000" stroke="#000000" points="620,-287.7 620,-304.7 620,-304.7 620,-287.7 620,-287.7"/>
<polygon fill="#000000" stroke="#000000" points="686,-287.7 686,-304.7 686,-304.7 686,-287.7 686,-287.7"/>
<polygon fill="none" stroke="#000000" stroke-width="2" points="543,-285.7 543,-417.7 763,-417.7 763,-285.7 543,-285.7"/>
</a>
</g>
</g>
<!-- decisions&#45;&gt;summaries -->
<g id="edge2" class="edge">
<title>decisions:w&#45;&gt;summaries:e</title>
<path fill="none" stroke="#000000" d="M529.5714,-357.3876C493.5192,-336.7527 551.1778,-226.7 493.5,-226.7"/>
<polygon fill="#000000" stroke="#000000" points="536.2028,-358.91 543.1945,-364.2087 540.1014,-359.805 544,-360.7 544,-360.7 544,-360.7 540.1014,-359.805 544.8055,-357.1913 536.2028,-358.91 536.2028,-358.91"/>
<ellipse fill="none" stroke="#000000" cx="533.084" cy="-358.1939" rx="3.2" ry="3.2"/>
</g>
<!-- summary_groups&#45;&gt;users -->
<g id="edge5" class="edge">
<title>summary_groups:w&#45;&gt;users:e</title>
<path fill="none" stroke="#000000" d="M120.4909,-124.7C109.1774,-124.7 101.9931,-124.7 86,-124.7"/>
<polygon fill="#000000" stroke="#000000" points="127,-124.7001 135,-128.3 131,-124.7 135,-124.7 135,-124.7 135,-124.7 131,-124.7 135,-121.1 127,-124.7001 127,-124.7001"/>
<ellipse fill="none" stroke="#000000" cx="123.8" cy="-124.7001" rx="3.2" ry="3.2"/>
</g>
<!-- topics -->
<g id="node6" class="node">
<title>topics</title>
<g id="a_node6"><a xlink:href="../../tables/topics.html" xlink:title="topics" target="_top">
<polygon fill="#ffffff" stroke="transparent" points="611.5,-202.2 611.5,-263.2 694.5,-263.2 694.5,-202.2 611.5,-202.2"/>
<polygon fill="#f5f5f5" stroke="transparent" points="612,-239.7 612,-262.7 695,-262.7 695,-239.7 612,-239.7"/>
<polygon fill="none" stroke="#000000" points="612,-239.7 612,-262.7 695,-262.7 695,-239.7 612,-239.7"/>
<text text-anchor="start" x="617" y="-248.3" font-family="Helvetica,sans-Serif" font-weight="bold" font-size="11.00" fill="#000000">topics</text>
<text text-anchor="start" x="660.5219" y="-247.8" font-family="Helvetica,sans-Serif" font-size="11.00" fill="#000000">[table]</text>
<polygon fill="none" stroke="#000000" points="612,-220.7 612,-239.7 695,-239.7 695,-220.7 612,-220.7"/>
<text text-anchor="start" x="615" y="-226.8" font-family="Helvetica,sans-Serif" font-size="11.00" fill="#000000">...</text>
<polygon fill="#ffffff" stroke="transparent" points="612,-201.7 612,-220.7 695,-220.7 695,-201.7 612,-201.7"/>
<polygon fill="none" stroke="#000000" points="612,-201.7 612,-220.7 695,-220.7 695,-201.7 612,-201.7"/>
<polygon fill="#ffffff" stroke="transparent" points="613,-202.7 613,-219.7 646,-219.7 646,-202.7 613,-202.7"/>
<text text-anchor="start" x="615" y="-207.8" font-family="Helvetica,sans-Serif" font-size="11.00" fill="#000000">&lt; 1</text>
<polygon fill="#ffffff" stroke="transparent" points="646,-202.7 646,-219.7 670,-219.7 670,-202.7 646,-202.7"/>
<text text-anchor="start" x="654.9431" y="-207.8" font-family="Helvetica,sans-Serif" font-size="11.00" fill="#000000"> &#160;</text>
<polygon fill="#ffffff" stroke="transparent" points="670,-202.7 670,-219.7 694,-219.7 694,-202.7 670,-202.7"/>
<text text-anchor="start" x="685.8862" y="-207.8" font-family="Helvetica,sans-Serif" font-size="11.00" fill="#000000"> &#160;</text>
<polygon fill="#000000" stroke="#000000" points="646,-202.7 646,-219.7 646,-219.7 646,-202.7 646,-202.7"/>
<polygon fill="#000000" stroke="#000000" points="670,-202.7 670,-219.7 670,-219.7 670,-202.7 670,-202.7"/>
</a>
</g>
</g>
<!-- topics&#45;&gt;summaries -->
<g id="edge6" class="edge">
<title>topics:w&#45;&gt;summaries:e</title>
<path fill="none" stroke="#000000" d="M597.3558,-229.6166C556.3077,-229.1321 540.9358,-226.7 493.5,-226.7"/>
<polygon fill="#000000" stroke="#000000" points="604.0001,-229.6544 611.9795,-233.2999 608.0001,-229.6772 612,-229.7 612,-229.7 612,-229.7 608.0001,-229.6772 612.0205,-226.1001 604.0001,-229.6544 604.0001,-229.6544"/>
<ellipse fill="none" stroke="#000000" cx="600.8002" cy="-229.6362" rx="3.2" ry="3.2"/>
</g>
<!-- transcript_segments -->
<g id="node7" class="node">
<title>transcript_segments</title>
<g id="a_node7"><a xlink:href="../../tables/transcript_segments.html" xlink:title="transcript_segments" target="_top">
<polygon fill="#ffffff" stroke="transparent" points="558.5,-120.2 558.5,-181.2 747.5,-181.2 747.5,-120.2 558.5,-120.2"/>
<polygon fill="#f5f5f5" stroke="transparent" points="559,-157.7 559,-180.7 748,-180.7 748,-157.7 559,-157.7"/>
<polygon fill="none" stroke="#000000" points="559,-157.7 559,-180.7 748,-180.7 748,-157.7 559,-157.7"/>
<text text-anchor="start" x="564" y="-166.3" font-family="Helvetica,sans-Serif" font-weight="bold" font-size="11.00" fill="#000000">transcript_segments</text>
<text text-anchor="start" x="713.5219" y="-165.8" font-family="Helvetica,sans-Serif" font-size="11.00" fill="#000000">[table]</text>
<polygon fill="none" stroke="#000000" points="559,-138.7 559,-157.7 748,-157.7 748,-138.7 559,-138.7"/>
<text text-anchor="start" x="562" y="-144.8" font-family="Helvetica,sans-Serif" font-size="11.00" fill="#000000">...</text>
<polygon fill="#ffffff" stroke="transparent" points="559,-119.7 559,-138.7 748,-138.7 748,-119.7 559,-119.7"/>
<polygon fill="none" stroke="#000000" points="559,-119.7 559,-138.7 748,-138.7 748,-119.7 559,-119.7"/>
<polygon fill="#ffffff" stroke="transparent" points="560,-120.7 560,-137.7 629,-137.7 629,-120.7 560,-120.7"/>
<text text-anchor="start" x="562" y="-125.8" font-family="Helvetica,sans-Serif" font-size="11.00" fill="#000000">&lt; 1</text>
<polygon fill="#ffffff" stroke="transparent" points="629,-120.7 629,-137.7 688,-137.7 688,-120.7 629,-120.7"/>
<text text-anchor="start" x="655.4431" y="-125.8" font-family="Helvetica,sans-Serif" font-size="11.00" fill="#000000"> &#160;</text>
<polygon fill="#ffffff" stroke="transparent" points="688,-120.7 688,-137.7 747,-137.7 747,-120.7 688,-120.7"/>
<text text-anchor="start" x="738.8862" y="-125.8" font-family="Helvetica,sans-Serif" font-size="11.00" fill="#000000"> &#160;</text>
<polygon fill="#000000" stroke="#000000" points="629,-120.7 629,-137.7 629,-137.7 629,-120.7 629,-120.7"/>
<polygon fill="#000000" stroke="#000000" points="688,-120.7 688,-137.7 688,-137.7 688,-120.7 688,-120.7"/>
</a>
</g>
</g>
<!-- transcript_segments&#45;&gt;summaries -->
<g id="edge7" class="edge">
<title>transcript_segments:w&#45;&gt;summaries:e</title>
<path fill="none" stroke="#000000" d="M544.9613,-151.0945C518.7056,-166.2156 533.4085,-226.7 493.5,-226.7"/>
<polygon fill="#000000" stroke="#000000" points="551.2241,-149.5802 559.8461,-151.1992 555.112,-148.6401 559,-147.7 559,-147.7 559,-147.7 555.112,-148.6401 558.1539,-144.2008 551.2241,-149.5802 551.2241,-149.5802"/>
<ellipse fill="none" stroke="#000000" cx="548.1137" cy="-150.3323" rx="3.2" ry="3.2"/>
</g>
<!-- transcription_jobs -->
<g id="node8" class="node">
<title>transcription_jobs</title>
<g id="a_node8"><a xlink:href="../../tables/transcription_jobs.html" xlink:title="transcription_jobs" target="_top">
<polygon fill="#ffffff" stroke="transparent" points="567.5,-38.2 567.5,-99.2 738.5,-99.2 738.5,-38.2 567.5,-38.2"/>
<polygon fill="#f5f5f5" stroke="transparent" points="568,-75.7 568,-98.7 739,-98.7 739,-75.7 568,-75.7"/>
<polygon fill="none" stroke="#000000" points="568,-75.7 568,-98.7 739,-98.7 739,-75.7 568,-75.7"/>
<text text-anchor="start" x="573" y="-84.3" font-family="Helvetica,sans-Serif" font-weight="bold" font-size="11.00" fill="#000000">transcription_jobs</text>
<text text-anchor="start" x="704.5219" y="-83.8" font-family="Helvetica,sans-Serif" font-size="11.00" fill="#000000">[table]</text>
<polygon fill="none" stroke="#000000" points="568,-56.7 568,-75.7 739,-75.7 739,-56.7 568,-56.7"/>
<text text-anchor="start" x="571" y="-62.8" font-family="Helvetica,sans-Serif" font-size="11.00" fill="#000000">...</text>
<polygon fill="#ffffff" stroke="transparent" points="568,-37.7 568,-56.7 739,-56.7 739,-37.7 568,-37.7"/>
<polygon fill="none" stroke="#000000" points="568,-37.7 568,-56.7 739,-56.7 739,-37.7 568,-37.7"/>
<polygon fill="#ffffff" stroke="transparent" points="569,-38.7 569,-55.7 632,-55.7 632,-38.7 569,-38.7"/>
<text text-anchor="start" x="571" y="-43.8" font-family="Helvetica,sans-Serif" font-size="11.00" fill="#000000">&lt; 2</text>
<polygon fill="#ffffff" stroke="transparent" points="632,-38.7 632,-55.7 685,-55.7 685,-38.7 632,-38.7"/>
<text text-anchor="start" x="655.4431" y="-43.8" font-family="Helvetica,sans-Serif" font-size="11.00" fill="#000000"> &#160;</text>
<polygon fill="#ffffff" stroke="transparent" points="685,-38.7 685,-55.7 738,-55.7 738,-38.7 685,-38.7"/>
<text text-anchor="start" x="729.8862" y="-43.8" font-family="Helvetica,sans-Serif" font-size="11.00" fill="#000000"> &#160;</text>
<polygon fill="#000000" stroke="#000000" points="632,-38.7 632,-55.7 632,-55.7 632,-38.7 632,-38.7"/>
<polygon fill="#000000" stroke="#000000" points="685,-38.7 685,-55.7 685,-55.7 685,-38.7 685,-38.7"/>
</a>
</g>
</g>
<!-- transcription_jobs&#45;&gt;summaries -->
<g id="edge8" class="edge">
<title>transcription_jobs:w&#45;&gt;summaries:e</title>
<path fill="none" stroke="#000000" d="M553.6592,-67.9759C500.0525,-87.5447 566.8013,-226.7 493.5,-226.7"/>
<polygon fill="#000000" stroke="#000000" points="560.0989,-66.954 568.5643,-69.2555 564.0494,-66.327 568,-65.7 568,-65.7 568,-65.7 564.0494,-66.327 567.4357,-62.1445 560.0989,-66.954 560.0989,-66.954"/>
<ellipse fill="none" stroke="#000000" cx="556.9384" cy="-67.4556" rx="3.2" ry="3.2"/>
</g>
<!-- transcription_jobs&#45;&gt;users -->
<g id="edge9" class="edge">
<title>transcription_jobs:w&#45;&gt;users:e</title>
<path fill="none" stroke="#000000" d="M553.5832,-65.6006C368.525,-63.0438 303.4167,-12.629 127,-86.7 104.0921,-96.3182 110.8452,-124.7 86,-124.7"/>
<polygon fill="#000000" stroke="#000000" points="560.0002,-65.6448 567.9752,-69.2999 564.0001,-65.6724 568,-65.7 568,-65.7 568,-65.7 564.0001,-65.6724 568.0248,-62.1001 560.0002,-65.6448 560.0002,-65.6448"/>
<ellipse fill="none" stroke="#000000" cx="556.8003" cy="-65.6227" rx="3.2" ry="3.2"/>
</g>
</g>
</svg>
