<?xml version="1.0" encoding="UTF-8" standalone="no"?>
<!DOCTYPE svg PUBLIC "-//W3C//DTD SVG 1.1//EN"
 "http://www.w3.org/Graphics/SVG/1.1/DTD/svg11.dtd">
<!-- Generated by graphviz version 2.40.1 (20161225.0304)
 -->
<!-- Title: twoDegreesRelationshipsDiagram Pages: 1 -->
<svg width="801pt" height="447pt"
 viewBox="0.00 0.00 801.00 446.70" xmlns="http://www.w3.org/2000/svg" xmlns:xlink="http://www.w3.org/1999/xlink">
<g id="graph0" class="graph" transform="scale(1 1) rotate(0) translate(4 442.7)">
<title>twoDegreesRelationshipsDiagram</title>
<polygon fill="#ffffff" stroke="transparent" points="-4,4 -4,-442.7 797,-442.7 797,4 -4,4"/>
<text text-anchor="middle" x="72.4936" y="-7.3" font-family="Helvetica,sans-Serif" font-size="11.00" fill="#000000">Generated by SchemaSpy</text>
<!-- oauth_identities -->
<g id="node1" class="node">
<title>oauth_identities</title>
<g id="a_node1"><a xlink:href="../../tables/oauth_identities.html" xlink:title="oauth_identities" target="_top">
<polygon fill="#ffffff" stroke="transparent" points="160,-256.7 160,-434.7 397,-434.7 397,-256.7 160,-256.7"/>
<polygon fill="#f5f5f5" stroke="transparent" points="162.5,-409.7 162.5,-432.7 395.5,-432.7 395.5,-409.7 162.5,-409.7"/>
<polygon fill="none" stroke="#000000" points="162.5,-409.7 162.5,-432.7 395.5,-432.7 395.5,-409.7 162.5,-409.7"/>
<text text-anchor="start" x="167.5" y="-418.3" font-family="Helvetica,sans-Serif" font-weight="bold" font-size="11.00" fill="#000000">oauth_identities</text>
<text text-anchor="start" x="360.5437" y="-417.8" font-family="Helvetica,sans-Serif" font-size="11.00" fill="#000000">[table]</text>
<polygon fill="none" stroke="#000000" points="162.5,-387.7 162.5,-409.7 301.5,-409.7 301.5,-387.7 162.5,-387.7"/>
<image xlink:href="../../images/primaryKeys.png" width="11px" height="12px" preserveAspectRatio="xMinYMin meet" x="167.5" y="-404.7"/>
<text text-anchor="start" x="182.5" y="-394.8" font-family="Helvetica,sans-Serif" font-size="11.00" fill="#000000">id</text>
<polygon fill="none" stroke="#000000" points="301.5,-387.7 301.5,-409.7 395.5,-409.7 395.5,-387.7 301.5,-387.7"/>
<text text-anchor="start" x="304.4758" y="-395.4" font-family="Helvetica,sans-Serif" font-size="11.00" fill="#000000">uuid[2147483647]</text>
<polygon fill="#ffffff" stroke="transparent" points="162.5,-365.7 162.5,-387.7 301.5,-387.7 301.5,-365.7 162.5,-365.7"/>
<polygon fill="none" stroke="#000000" points="162.5,-365.7 162.5,-387.7 301.5,-387.7 301.5,-365.7 162.5,-365.7"/>
<image xlink:href="../../images/foreignKeys.png" width="11px" height="12px" preserveAspectRatio="xMinYMin meet" x="167.5" y="-382.7"/>
<text text-anchor="start" x="182.5" y="-372.8" font-family="Helvetica,sans-Serif" font-size="11.00" fill="#000000">user_id</text>
<polygon fill="none" stroke="#000000" points="301.5,-365.7 301.5,-387.7 395.5,-387.7 395.5,-365.7 301.5,-365.7"/>
<text text-anchor="start" x="304.4758" y="-373.4" font-family="Helvetica,sans-Serif" font-size="11.00" fill="#000000">uuid[2147483647]</text>
<polygon fill="#ffffff" stroke="transparent" points="162.5,-343.7 162.5,-365.7 301.5,-365.7 301.5,-343.7 162.5,-343.7"/>
<polygon fill="none" stroke="#000000" points="162.5,-343.7 162.5,-365.7 301.5,-365.7 301.5,-343.7 162.5,-343.7"/>
<text text-anchor="start" x="182.5" y="-350.8" font-family="Helvetica,sans-Serif" font-size="11.00" fill="#000000">provider</text>
<polygon fill="none" stroke="#000000" points="301.5,-343.7 301.5,-365.7 395.5,-365.7 395.5,-343.7 301.5,-343.7"/>
<text text-anchor="start" x="304.5" y="-351.4" font-family="Helvetica,sans-Serif" font-size="11.00" fill="#000000">varchar[50]</text>
<polygon fill="#ffffff" stroke="transparent" points="162.5,-321.7 162.5,-343.7 301.5,-343.7 301.5,-321.7 162.5,-321.7"/>
<polygon fill="none" stroke="#000000" points="162.5,-321.7 162.5,-343.7 301.5,-343.7 301.5,-321.7 162.5,-321.7"/>
<text text-anchor="start" x="182.5" y="-328.8" font-family="Helvetica,sans-Serif" font-size="11.00" fill="#000000">subject</text>
<polygon fill="none" stroke="#000000" points="301.5,-321.7 301.5,-343.7 395.5,-343.7 395.5,-321.7 301.5,-321.7"/>
<text text-anchor="start" x="304.5" y="-329.4" font-family="Helvetica,sans-Serif" font-size="11.00" fill="#000000">varchar[255]</text>
<polygon fill="none" stroke="#000000" points="162.5,-299.7 162.5,-321.7 301.5,-321.7 301.5,-299.7 162.5,-299.7"/>
<text text-anchor="start" x="182.5" y="-306.8" font-family="Helvetica,sans-Serif" font-size="11.00" fill="#000000">email</text>
<polygon fill="none" stroke="#000000" points="301.5,-299.7 301.5,-321.7 395.5,-321.7 395.5,-299.7 301.5,-299.7"/>
<text text-anchor="start" x="304.5" y="-307.4" font-family="Helvetica,sans-Serif" font-size="11.00" fill="#000000">varchar[320]</text>
<polygon fill="none" stroke="#000000" points="162.5,-277.7 162.5,-299.7 301.5,-299.7 301.5,-277.7 162.5,-277.7"/>
<text text-anchor="start" x="182.5" y="-284.8" font-family="Helvetica,sans-Serif" font-size="11.00" fill="#000000">created_at</text>
<polygon fill="none" stroke="#000000" points="301.5,-277.7 301.5,-299.7 395.5,-299.7 395.5,-277.7 301.5,-277.7"/>
<text text-anchor="start" x="304.5" y="-285.4" font-family="Helvetica,sans-Serif" font-size="11.00" fill="#000000">timestamptz[35,6]</text>
<polygon fill="#ffffff" stroke="transparent" points="162.5,-258.7 162.5,-277.7 395.5,-277.7 395.5,-258.7 162.5,-258.7"/>
<polygon fill="none" stroke="#000000" points="162.5,-258.7 162.5,-277.7 395.5,-277.7 395.5,-258.7 162.5,-258.7"/>
<polygon fill="#ffffff" stroke="transparent" points="163.5,-259.7 163.5,-276.7 243.5,-276.7 243.5,-259.7 163.5,-259.7"/>
<text text-anchor="start" x="165.5" y="-264.8" font-family="Helvetica,sans-Serif" font-size="11.00" fill="#000000">&lt; 1</text>
<polygon fill="#ffffff" stroke="transparent" points="243.5,-259.7 243.5,-276.7 314.5,-276.7 314.5,-259.7 243.5,-259.7"/>
<text text-anchor="start" x="275.9431" y="-264.8" font-family="Helvetica,sans-Serif" font-size="11.00" fill="#000000"> &#160;</text>
<polygon fill="#ffffff" stroke="transparent" points="314.5,-259.7 314.5,-276.7 394.5,-276.7 394.5,-259.7 314.5,-259.7"/>
<text text-anchor="start" x="376.9053" y="-264.8" font-family="Helvetica,sans-Serif" font-size="11.00" fill="#000000">0 &gt;</text>
<polygon fill="#000000" stroke="#000000" points="243.5,-259.7 243.5,-276.7 243.5,-276.7 243.5,-259.7 243.5,-259.7"/>
<polygon fill="#000000" stroke="#000000" points="314.5,-259.7 314.5,-276.7 314.5,-276.7 314.5,-259.7 314.5,-259.7"/>
<polygon fill="none" stroke="#000000" stroke-width="2" points="161,-257.7 161,-433.7 396,-433.7 396,-257.7 161,-257.7"/>
</a>
</g>
</g>
<!-- users -->
<g id="node2" class="node">
<title>users</title>
<g id="a_node2"><a xlink:href="../../tables/users.html" xlink:title="users" target="_top">
<polygon fill="#ffffff" stroke="transparent" points="8,-157.2 8,-240.2 111,-240.2 111,-157.2 8,-157.2"/>
<polygon fill="#f5f5f5" stroke="transparent" points="8.5,-216.7 8.5,-239.7 111.5,-239.7 111.5,-216.7 8.5,-216.7"/>
<polygon fill="none" stroke="#000000" points="8.5,-216.7 8.5,-239.7 111.5,-239.7 111.5,-216.7 8.5,-216.7"/>
<text text-anchor="start" x="13.5" y="-225.3" font-family="Helvetica,sans-Serif" font-weight="bold" font-size="11.00" fill="#000000">users</text>
<text text-anchor="start" x="76.5437" y="-224.8" font-family="Helvetica,sans-Serif" font-size="11.00" fill="#000000">[table]</text>
<polygon fill="none" stroke="#000000" points="8.5,-194.7 8.5,-216.7 111.5,-216.7 111.5,-194.7 8.5,-194.7"/>
<image xlink:href="../../images/primaryKeys.png" width="11px" height="12px" preserveAspectRatio="xMinYMin meet" x="13.5" y="-211.7"/>
<text text-anchor="start" x="28.5" y="-201.8" font-family="Helvetica,sans-Serif" font-size="11.00" fill="#000000">id</text>
<polygon fill="none" stroke="#000000" points="8.5,-175.7 8.5,-194.7 111.5,-194.7 111.5,-175.7 8.5,-175.7"/>
<text text-anchor="start" x="11.5" y="-181.8" font-family="Helvetica,sans-Serif" font-size="11.00" fill="#000000">...</text>
<polygon fill="#ffffff" stroke="transparent" points="8.5,-156.7 8.5,-175.7 111.5,-175.7 111.5,-156.7 8.5,-156.7"/>
<polygon fill="none" stroke="#000000" points="8.5,-156.7 8.5,-175.7 111.5,-175.7 111.5,-156.7 8.5,-156.7"/>
<polygon fill="#ffffff" stroke="transparent" points="9.5,-157.7 9.5,-174.7 40.5,-174.7 40.5,-157.7 9.5,-157.7"/>
<text text-anchor="start" x="11.5" y="-162.8" font-family="Helvetica,sans-Serif" font-size="11.00" fill="#000000"> &#160;</text>
<polygon fill="#ffffff" stroke="transparent" points="40.5,-157.7 40.5,-174.7 71.5,-174.7 71.5,-157.7 40.5,-157.7"/>
<text text-anchor="start" x="52.9431" y="-162.8" font-family="Helvetica,sans-Serif" font-size="11.00" fill="#000000"> &#160;</text>
<polygon fill="#ffffff" stroke="transparent" points="71.5,-157.7 71.5,-174.7 110.5,-174.7 110.5,-157.7 71.5,-157.7"/>
<text text-anchor="start" x="92.9053" y="-162.8" font-family="Helvetica,sans-Serif" font-size="11.00" fill="#000000">5 &gt;</text>
<polygon fill="#000000" stroke="#000000" points="40.5,-157.7 40.5,-174.7 40.5,-174.7 40.5,-157.7 40.5,-157.7"/>
<polygon fill="#000000" stroke="#000000" points="71.5,-157.7 71.5,-174.7 71.5,-174.7 71.5,-157.7 71.5,-157.7"/>
</a>
</g>
</g>
<!-- oauth_identities&#45;&gt;users -->
<g id="edge1" class="edge">
<title>oauth_identities:w&#45;&gt;users:e</title>
<path fill="none" stroke="#000000" d="M148.0937,-374.15C97.7696,-352.8782 185.0769,-205.7 111.5,-205.7"/>
<polygon fill="#000000" stroke="#000000" points="154.6225,-375.3056 161.8725,-380.2449 158.5612,-376.0028 162.5,-376.7 162.5,-376.7 162.5,-376.7 158.5612,-376.0028 163.1275,-373.1551 154.6225,-375.3056 154.6225,-375.3056"/>
<ellipse fill="none" stroke="#000000" cx="151.4714" cy="-374.7478" rx="3.2" ry="3.2"/>
</g>
<!-- summaries -->
<g id="node3" class="node">
<title>summaries</title>
<g id="a_node3"><a xlink:href="../../tables/summaries.html" xlink:title="summaries" target="_top">
<polygon fill="#ffffff" stroke="transparent" points="446,-147.2 446,-208.2 565,-208.2 565,-147.2 446,-147.2"/>
<polygon fill="#f5f5f5" stroke="transparent" points="446.5,-184.7 446.5,-207.7 565.5,-207.7 565.5,-184.7 446.5,-184.7"/>
<polygon fill="none" stroke="#000000" points="446.5,-184.7 446.5,-207.7 565.5,-207.7 565.5,-184.7 446.5,-184.7"/>
<text text-anchor="start" x="451.5" y="-193.3" font-family="Helvetica,sans-Serif" font-weight="bold" font-size="11.00" fill="#000000">summaries</text>
<text text-anchor="start" x="531.0219" y="-192.8" font-family="Helvetica,sans-Serif" font-size="11.00" fill="#000000">[table]</text>
<polygon fill="none" stroke="#000000" points="446.5,-165.7 446.5,-184.7 565.5,-184.7 565.5,-165.7 446.5,-165.7"/>
<text text-anchor="start" x="449.5" y="-171.8" font-family="Helvetica,sans-Serif" font-size="11.00" fill="#000000">...</text>
<polygon fill="#ffffff" stroke="transparent" points="446.5,-146.7 446.5,-165.7 565.5,-165.7 565.5,-146.7 446.5,-146.7"/>
<polygon fill="none" stroke="#000000" points="446.5,-146.7 446.5,-165.7 565.5,-165.7 565.5,-146.7 446.5,-146.7"/>
<polygon fill="#ffffff" stroke="transparent" points="447.5,-147.7 447.5,-164.7 489.5,-164.7 489.5,-147.7 447.5,-147.7"/>
<text text-anchor="start" x="449.5" y="-152.8" font-family="Helvetica,sans-Serif" font-size="11.00" fill="#000000">&lt; 2</text>
<polygon fill="#ffffff" stroke="transparent" points="489.5,-147.7 489.5,-164.7 522.5,-164.7 522.5,-147.7 489.5,-147.7"/>
<text text-anchor="start" x="502.9431" y="-152.8" font-family="Helvetica,sans-Serif" font-size="11.00" fill="#000000"> &#160;</text>
<polygon fill="#ffffff" stroke="transparent" points="522.5,-147.7 522.5,-164.7 564.5,-164.7 564.5,-147.7 522.5,-147.7"/>
<text text-anchor="start" x="546.9053" y="-152.8" font-family="Helvetica,sans-Serif" font-size="11.00" fill="#000000">5 &gt;</text>
<polygon fill="#000000" stroke="#000000" points="489.5,-147.7 489.5,-164.7 489.5,-164.7 489.5,-147.7 489.5,-147.7"/>
<polygon fill="#000000" stroke="#000000" points="522.5,-147.7 522.5,-164.7 522.5,-164.7 522.5,-147.7 522.5,-147.7"/>
</a>
</g>
</g>
<!-- summaries&#45;&gt;users -->
<g id="edge3" class="edge">
<title>summaries:w&#45;&gt;users:e</title>
<path fill="none" stroke="#000000" d="M432.2498,-177.6372C423.6723,-181.6528 418.5303,-188.6996 405,-191.7 277.5045,-219.9731 242.0928,-205.7 111.5,-205.7"/>
<polygon fill="#000000" stroke="#000000" points="438.6647,-176.315 447.2268,-178.2259 442.5824,-175.5075 446.5,-174.7 446.5,-174.7 446.5,-174.7 442.5824,-175.5075 445.7732,-171.1741 438.6647,-176.315 438.6647,-176.315"/>
<ellipse fill="none" stroke="#000000" cx="435.5306" cy="-176.9611" rx="3.2" ry="3.2"/>
</g>
<!-- summary_groups -->
<g id="node4" class="node">
<title>summary_groups</title>
<g id="a_node4"><a xlink:href="../../tables/summary_groups.html" xlink:title="summary_groups" target="_top">
<polygon fill="#ffffff" stroke="transparent" points="196.5,-120.2 196.5,-181.2 360.5,-181.2 360.5,-120.2 196.5,-120.2"/>
<polygon fill="#f5f5f5" stroke="transparent" points="196.5,-157.7 196.5,-180.7 360.5,-180.7 360.5,-157.7 196.5,-157.7"/>
<polygon fill="none" stroke="#000000" points="196.5,-157.7 196.5,-180.7 360.5,-180.7 360.5,-157.7 196.5,-157.7"/>
<text text-anchor="start" x="201.5" y="-166.3" font-family="Helvetica,sans-Serif" font-weight="bold" font-size="11.00" fill="#000000">summary_groups</text>
<text text-anchor="start" x="326.0219" y="-165.8" font-family="Helvetica,sans-Serif" font-size="11.00" fill="#000000">[table]</text>
<polygon fill="none" stroke="#000000" points="196.5,-138.7 196.5,-157.7 360.5,-157.7 360.5,-138.7 196.5,-138.7"/>
<text text-anchor="start" x="199.5" y="-144.8" font-family="Helvetica,sans-Serif" font-size="11.00" fill="#000000">...</text>
<polygon fill="#ffffff" stroke="transparent" points="196.5,-119.7 196.5,-138.7 360.5,-138.7 360.5,-119.7 196.5,-119.7"/>
<polygon fill="none" stroke="#000000" points="196.5,-119.7 196.5,-138.7 360.5,-138.7 360.5,-119.7 196.5,-119.7"/>
<polygon fill="#ffffff" stroke="transparent" points="197.5,-120.7 197.5,-137.7 254.5,-137.7 254.5,-120.7 197.5,-120.7"/>
<text text-anchor="start" x="199.5" y="-125.8" font-family="Helvetica,sans-Serif" font-size="11.00" fill="#000000">&lt; 1</text>
<polygon fill="#ffffff" stroke="transparent" points="254.5,-120.7 254.5,-137.7 302.5,-137.7 302.5,-120.7 254.5,-120.7"/>
<text text-anchor="start" x="275.4431" y="-125.8" font-family="Helvetica,sans-Serif" font-size="11.00" fill="#000000"> &#160;</text>
<polygon fill="#ffffff" stroke="transparent" points="302.5,-120.7 302.5,-137.7 359.5,-137.7 359.5,-120.7 302.5,-120.7"/>
<text text-anchor="start" x="341.9053" y="-125.8" font-family="Helvetica,sans-Serif" font-size="11.00" fill="#000000">1 &gt;</text>
<polygon fill="#000000" stroke="#000000" points="254.5,-120.7 254.5,-137.7 254.5,-137.7 254.5,-120.7 254.5,-120.7"/>
<polygon fill="#000000" stroke="#000000" points="302.5,-120.7 302.5,-137.7 302.5,-137.7 302.5,-120.7 302.5,-120.7"/>
</a>
</g>
</g>
<!-- summaries&#45;&gt;summary_groups -->
<g id="edge2" class="edge">
<title>summaries:w&#45;&gt;summary_groups:e</title>
<path fill="none" stroke="#000000" d="M431.8107,-173.3239C404.1924,-167.8219 395.0845,-147.7 360.5,-147.7"/>
<polygon fill="#000000" stroke="#000000" points="438.5349,-173.9538 446.1642,-178.2843 442.5174,-174.3269 446.5,-174.7 446.5,-174.7 446.5,-174.7 442.5174,-174.3269 446.8358,-171.1157 438.5349,-173.9538 438.5349,-173.9538"/>
<ellipse fill="none" stroke="#000000" cx="435.3488" cy="-173.6553" rx="3.2" ry="3.2"/>
</g>
<!-- summary_groups&#45;&gt;users -->
<g id="edge4" class="edge">
<title>summary_groups:w&#45;&gt;users:e</title>
<path fill="none" stroke="#000000" d="M181.9966,-150.0455C151.5667,-160.8964 151.6964,-205.7 111.5,-205.7"/>
<polygon fill="#000000" stroke="#000000" points="188.6026,-148.9772 197.0747,-151.2538 192.5513,-148.3386 196.5,-147.7 196.5,-147.7 196.5,-147.7 192.5513,-148.3386 195.9253,-144.1462 188.6026,-148.9772 188.6026,-148.9772"/>
<ellipse fill="none" stroke="#000000" cx="185.4436" cy="-149.4881" rx="3.2" ry="3.2"/>
</g>
<!-- transcription_jobs -->
<g id="node5" class="node">
<title>transcription_jobs</title>
<g id="a_node5"><a xlink:href="../../tables/transcription_jobs.html" xlink:title="transcription_jobs" target="_top">
<polygon fill="#ffffff" stroke="transparent" points="614,-176.2 614,-237.2 785,-237.2 785,-176.2 614,-176.2"/>
<polygon fill="#f5f5f5" stroke="transparent" points="614.5,-213.7 614.5,-236.7 785.5,-236.7 785.5,-213.7 614.5,-213.7"/>
<polygon fill="none" stroke="#000000" points="614.5,-213.7 614.5,-236.7 785.5,-236.7 785.5,-213.7 614.5,-213.7"/>
<text text-anchor="start" x="619.5" y="-222.3" font-family="Helvetica,sans-Serif" font-weight="bold" font-size="11.00" fill="#000000">transcription_jobs</text>
<text text-anchor="start" x="751.0219" y="-221.8" font-family="Helvetica,sans-Serif" font-size="11.00" fill="#000000">[table]</text>
<polygon fill="none" stroke="#000000" points="614.5,-194.7 614.5,-213.7 785.5,-213.7 785.5,-194.7 614.5,-194.7"/>
<text text-anchor="start" x="617.5" y="-200.8" font-family="Helvetica,sans-Serif" font-size="11.00" fill="#000000">...</text>
<polygon fill="#ffffff" stroke="transparent" points="614.5,-175.7 614.5,-194.7 785.5,-194.7 785.5,-175.7 614.5,-175.7"/>
<polygon fill="none" stroke="#000000" points="614.5,-175.7 614.5,-194.7 785.5,-194.7 785.5,-175.7 614.5,-175.7"/>
<polygon fill="#ffffff" stroke="transparent" points="615.5,-176.7 615.5,-193.7 678.5,-193.7 678.5,-176.7 615.5,-176.7"/>
<text text-anchor="start" x="617.5" y="-181.8" font-family="Helvetica,sans-Serif" font-size="11.00" fill="#000000">&lt; 2</text>
<polygon fill="#ffffff" stroke="transparent" points="678.5,-176.7 678.5,-193.7 731.5,-193.7 731.5,-176.7 678.5,-176.7"/>
<text text-anchor="start" x="701.9431" y="-181.8" font-family="Helvetica,sans-Serif" font-size="11.00" fill="#000000"> &#160;</text>
<polygon fill="#ffffff" stroke="transparent" points="731.5,-176.7 731.5,-193.7 784.5,-193.7 784.5,-176.7 731.5,-176.7"/>
<text text-anchor="start" x="776.3862" y="-181.8" font-family="Helvetica,sans-Serif" font-size="11.00" fill="#000000"> &#160;</text>
<polygon fill="#000000" stroke="#000000" points="678.5,-176.7 678.5,-193.7 678.5,-193.7 678.5,-176.7 678.5,-176.7"/>
<polygon fill="#000000" stroke="#000000" points="731.5,-176.7 731.5,-193.7 731.5,-193.7 731.5,-176.7 731.5,-176.7"/>
</a>
</g>
</g>
<!-- transcription_jobs&#45;&gt;users -->
<g id="edge6" class="edge">
<title>transcription_jobs:w&#45;&gt;users:e</title>
<path fill="none" stroke="#000000" d="M600.0752,-206.4974C591.6461,-210.1561 586.2812,-216.3734 573,-218.7 513.8999,-229.053 497.9926,-219.6437 438,-218.7 310.8417,-216.6998 278.9059,-217.9544 152,-209.7 133.9506,-208.526 129.5876,-205.7 111.5,-205.7"/>
<polygon fill="#000000" stroke="#000000" points="606.6463,-205.2231 615.1854,-207.2342 610.5732,-204.4616 614.5,-203.7 614.5,-203.7 614.5,-203.7 610.5732,-204.4616 613.8146,-200.1658 606.6463,-205.2231 606.6463,-205.2231"/>
<ellipse fill="none" stroke="#000000" cx="603.5048" cy="-205.8323" rx="3.2" ry="3.2"/>
</g>
<!-- transcription_jobs&#45;&gt;summaries -->
<g id="edge5" class="edge">
<title>transcription_jobs:w&#45;&gt;summaries:e</title>
<path fill="none" stroke="#000000" d="M600.4495,-199.6677C588.471,-191.6993 584.8749,-174.7 565.5,-174.7"/>
<polygon fill="#000000" stroke="#000000" points="606.8104,-201.4931 613.5069,-207.1603 610.6552,-202.5966 614.5,-203.7 614.5,-203.7 614.5,-203.7 610.6552,-202.5966 615.4931,-200.2397 606.8104,-201.4931 606.8104,-201.4931"/>
<ellipse fill="none" stroke="#000000" cx="603.7346" cy="-200.6104" rx="3.2" ry="3.2"/>
</g>
<!-- user_sessions -->
<g id="node6" class="node">
<title>user_sessions</title>
<g id="a_node6"><a xlink:href="../../tables/user_sessions.html" xlink:title="user_sessions" target="_top">
<polygon fill="#ffffff" stroke="transparent" points="208.5,-38.2 208.5,-99.2 348.5,-99.2 348.5,-38.2 208.5,-38.2"/>
<polygon fill="#f5f5f5" stroke="transparent" points="208.5,-75.7 208.5,-98.7 348.5,-98.7 348.5,-75.7 208.5,-75.7"/>
<polygon fill="none" stroke="#000000" points="208.5,-75.7 208.5,-98.7 348.5,-98.7 348.5,-75.7 208.5,-75.7"/>
<text text-anchor="start" x="213.5" y="-84.3" font-family="Helvetica,sans-Serif" font-weight="bold" font-size="11.00" fill="#000000">user_sessions</text>
<text text-anchor="start" x="314.0219" y="-83.8" font-family="Helvetica,sans-Serif" font-size="11.00" fill="#000000">[table]</text>
<polygon fill="none" stroke="#000000" points="208.5,-56.7 208.5,-75.7 348.5,-75.7 348.5,-56.7 208.5,-56.7"/>
<text text-anchor="start" x="211.5" y="-62.8" font-family="Helvetica,sans-Serif" font-size="11.00" fill="#000000">...</text>
<polygon fill="#ffffff" stroke="transparent" points="208.5,-37.7 208.5,-56.7 348.5,-56.7 348.5,-37.7 208.5,-37.7"/>
<polygon fill="none" stroke="#000000" points="208.5,-37.7 208.5,-56.7 348.5,-56.7 348.5,-37.7 208.5,-37.7"/>
<polygon fill="#ffffff" stroke="transparent" points="209.5,-38.7 209.5,-55.7 261.5,-55.7 261.5,-38.7 209.5,-38.7"/>
<text text-anchor="start" x="211.5" y="-43.8" font-family="Helvetica,sans-Serif" font-size="11.00" fill="#000000">&lt; 1</text>
<polygon fill="#ffffff" stroke="transparent" points="261.5,-38.7 261.5,-55.7 304.5,-55.7 304.5,-38.7 261.5,-38.7"/>
<text text-anchor="start" x="279.9431" y="-43.8" font-family="Helvetica,sans-Serif" font-size="11.00" fill="#000000"> &#160;</text>
<polygon fill="#ffffff" stroke="transparent" points="304.5,-38.7 304.5,-55.7 347.5,-55.7 347.5,-38.7 304.5,-38.7"/>
<text text-anchor="start" x="339.3862" y="-43.8" font-family="Helvetica,sans-Serif" font-size="11.00" fill="#000000"> &#160;</text>
<polygon fill="#000000" stroke="#000000" points="261.5,-38.7 261.5,-55.7 261.5,-55.7 261.5,-38.7 261.5,-38.7"/>
<polygon fill="#000000" stroke="#000000" points="304.5,-38.7 304.5,-55.7 304.5,-55.7 304.5,-38.7 304.5,-38.7"/>
</a>
</g>
</g>
<!-- user_sessions&#45;&gt;users -->
<g id="edge7" class="edge">
<title>user_sessions:w&#45;&gt;users:e</title>
<path fill="none" stroke="#000000" d="M193.9541,-67.371C174.3729,-72.4907 167.9629,-88.8831 152,-109.7 123.8211,-146.4477 157.8081,-205.7 111.5,-205.7"/>
<polygon fill="#000000" stroke="#000000" points="200.5523,-66.6131 208.9109,-69.2765 204.5261,-66.1565 208.5,-65.7 208.5,-65.7 208.5,-65.7 204.5261,-66.1565 208.0891,-62.1235 200.5523,-66.6131 200.5523,-66.6131"/>
<ellipse fill="none" stroke="#000000" cx="197.3732" cy="-66.9783" rx="3.2" ry="3.2"/>
</g>
</g>
</svg>
