<?xml version="1.0" encoding="UTF-8" standalone="no"?>
<!DOCTYPE svg PUBLIC "-//W3C//DTD SVG 1.1//EN"
 "http://www.w3.org/Graphics/SVG/1.1/DTD/svg11.dtd">
<!-- Generated by graphviz version 2.40.1 (20161225.0304)
 -->
<!-- Title: oneDegreeRelationshipsDiagram Pages: 1 -->
<svg width="885pt" height="769pt"
 viewBox="0.00 0.00 885.00 769.20" xmlns="http://www.w3.org/2000/svg" xmlns:xlink="http://www.w3.org/1999/xlink">
<g id="graph0" class="graph" transform="scale(1 1) rotate(0) translate(4 765.2)">
<title>oneDegreeRelationshipsDiagram</title>
<polygon fill="#ffffff" stroke="transparent" points="-4,4 -4,-765.2 881,-765.2 881,4 -4,4"/>
<text text-anchor="middle" x="72.4936" y="-7.3" font-family="Helvetica,sans-Serif" font-size="11.00" fill="#000000">Generated by SchemaSpy</text>
<!-- action_items -->
<g id="node1" class="node">
<title>action_items</title>
<g id="a_node1"><a xlink:href="../../tables/action_items.html" xlink:title="action_items" target="_top">
<polygon fill="#ffffff" stroke="transparent" points="709,-252.2 709,-357.2 840,-357.2 840,-252.2 709,-252.2"/>
<polygon fill="#f5f5f5" stroke="transparent" points="709.5,-333.7 709.5,-356.7 840.5,-356.7 840.5,-333.7 709.5,-333.7"/>
<polygon fill="none" stroke="#000000" points="709.5,-333.7 709.5,-356.7 840.5,-356.7 840.5,-333.7 709.5,-333.7"/>
<text text-anchor="start" x="714.5" y="-342.3" font-family="Helvetica,sans-Serif" font-weight="bold" font-size="11.00" fill="#000000">action_items</text>
<text text-anchor="start" x="806.0219" y="-341.8" font-family="Helvetica,sans-Serif" font-size="11.00" fill="#000000">[table]</text>
<polygon fill="none" stroke="#000000" points="709.5,-311.7 709.5,-333.7 840.5,-333.7 840.5,-311.7 709.5,-311.7"/>
<image xlink:href="../../images/primaryKeys.png" width="11px" height="12px" preserveAspectRatio="xMinYMin meet" x="714.5" y="-328.7"/>
<text text-anchor="start" x="738.5" y="-318.8" font-family="Helvetica,sans-Serif" font-size="11.00" fill="#000000">id</text>
<polygon fill="#ffffff" stroke="transparent" points="709.5,-289.7 709.5,-311.7 840.5,-311.7 840.5,-289.7 709.5,-289.7"/>
<polygon fill="none" stroke="#000000" points="709.5,-289.7 709.5,-311.7 840.5,-311.7 840.5,-289.7 709.5,-289.7"/>
<image xlink:href="../../images/foreignKeys.png" width="11px" height="12px" preserveAspectRatio="xMinYMin meet" x="714.5" y="-306.7"/>
<text text-anchor="start" x="738.5" y="-296.8" font-family="Helvetica,sans-Serif" font-size="11.00" fill="#000000">summary_id</text>
<polygon fill="none" stroke="#000000" points="709.5,-270.7 709.5,-289.7 840.5,-289.7 840.5,-270.7 709.5,-270.7"/>
<text text-anchor="start" x="712.5" y="-276.8" font-family="Helvetica,sans-Serif" font-size="11.00" fill="#000000">...</text>
<polygon fill="#ffffff" stroke="transparent" points="709.5,-251.7 709.5,-270.7 840.5,-270.7 840.5,-251.7 709.5,-251.7"/>
<polygon fill="none" stroke="#000000" points="709.5,-251.7 709.5,-270.7 840.5,-270.7 840.5,-251.7 709.5,-251.7"/>
<polygon fill="#ffffff" stroke="transparent" points="710.5,-252.7 710.5,-269.7 759.5,-269.7 759.5,-252.7 710.5,-252.7"/>
<text text-anchor="start" x="712.5" y="-257.8" font-family="Helvetica,sans-Serif" font-size="11.00" fill="#000000">&lt; 1</text>
<polygon fill="#ffffff" stroke="transparent" points="759.5,-252.7 759.5,-269.7 799.5,-269.7 799.5,-252.7 759.5,-252.7"/>
<text text-anchor="start" x="776.4431" y="-257.8" font-family="Helvetica,sans-Serif" font-size="11.00" fill="#000000"> &#160;</text>
<polygon fill="#ffffff" stroke="transparent" points="799.5,-252.7 799.5,-269.7 839.5,-269.7 839.5,-252.7 799.5,-252.7"/>
<text text-anchor="start" x="831.3862" y="-257.8" font-family="Helvetica,sans-Serif" font-size="11.00" fill="#000000"> &#160;</text>
<polygon fill="#000000" stroke="#000000" points="759.5,-252.7 759.5,-269.7 759.5,-269.7 759.5,-252.7 759.5,-252.7"/>
<polygon fill="#000000" stroke="#000000" points="799.5,-252.7 799.5,-269.7 799.5,-269.7 799.5,-252.7 799.5,-252.7"/>
</a>
</g>
</g>
<!-- summaries -->
<g id="node2" class="node">
<title>summaries</title>
<g id="a_node2"><a xlink:href="../../tables/summaries.html" xlink:title="summaries" target="_top">
<polygon fill="#ffffff" stroke="transparent" points="373,-240.7 373,-484.7 631,-484.7 631,-240.7 373,-240.7"/>
<polygon fill="#f5f5f5" stroke="transparent" points="375,-459.7 375,-482.7 629,-482.7 629,-459.7 375,-459.7"/>
<polygon fill="none" stroke="#000000" points="375,-459.7 375,-482.7 629,-482.7 629,-459.7 375,-459.7"/>
<text text-anchor="start" x="380" y="-468.3" font-family="Helvetica,sans-Serif" font-weight="bold" font-size="11.00" fill="#000000">summaries</text>
<text text-anchor="start" x="594.0437" y="-467.8" font-family="Helvetica,sans-Serif" font-size="11.00" fill="#000000">[table]</text>
<polygon fill="none" stroke="#000000" points="375,-437.7 375,-459.7 520,-459.7 520,-437.7 375,-437.7"/>
<image xlink:href="../../images/primaryKeys.png" width="11px" height="12px" preserveAspectRatio="xMinYMin meet" x="380" y="-454.7"/>
<text text-anchor="start" x="395" y="-444.8" font-family="Helvetica,sans-Serif" font-size="11.00" fill="#000000">id</text>
<polygon fill="none" stroke="#000000" points="520,-437.7 520,-459.7 629,-459.7 629,-437.7 520,-437.7"/>
<text text-anchor="start" x="523" y="-445.4" font-family="Helvetica,sans-Serif" font-size="11.00" fill="#000000">uuid[2147483647]</text>
<polygon fill="none" stroke="#000000" points="375,-415.7 375,-437.7 520,-437.7 520,-415.7 375,-415.7"/>
<text text-anchor="start" x="395" y="-422.8" font-family="Helvetica,sans-Serif" font-size="11.00" fill="#000000">filename</text>
<polygon fill="none" stroke="#000000" points="520,-415.7 520,-437.7 629,-437.7 629,-415.7 520,-415.7"/>
<text text-anchor="start" x="523" y="-423.4" font-family="Helvetica,sans-Serif" font-size="11.00" fill="#000000">varchar[255]</text>
<polygon fill="none" stroke="#000000" points="375,-393.7 375,-415.7 520,-415.7 520,-393.7 375,-393.7"/>
<text text-anchor="start" x="395" y="-400.8" font-family="Helvetica,sans-Serif" font-size="11.00" fill="#000000">created_at</text>
<polygon fill="none" stroke="#000000" points="520,-393.7 520,-415.7 629,-415.7 629,-393.7 520,-393.7"/>
<text text-anchor="start" x="523" y="-401.4" font-family="Helvetica,sans-Serif" font-size="11.00" fill="#000000">timestamptz[35,6]</text>
<polygon fill="none" stroke="#000000" points="375,-371.7 375,-393.7 520,-393.7 520,-371.7 375,-371.7"/>
<text text-anchor="start" x="395" y="-378.8" font-family="Helvetica,sans-Serif" font-size="11.00" fill="#000000">overall_summary</text>
<polygon fill="none" stroke="#000000" points="520,-371.7 520,-393.7 629,-393.7 629,-371.7 520,-371.7"/>
<text text-anchor="start" x="522.5344" y="-379.4" font-family="Helvetica,sans-Serif" font-size="11.00" fill="#000000">varchar[2147483647]</text>
<polygon fill="#ffffff" stroke="transparent" points="375,-349.7 375,-371.7 520,-371.7 520,-349.7 375,-349.7"/>
<polygon fill="none" stroke="#000000" points="375,-349.7 375,-371.7 520,-371.7 520,-349.7 375,-349.7"/>
<text text-anchor="start" x="395" y="-356.8" font-family="Helvetica,sans-Serif" font-size="11.00" fill="#000000">content_hash</text>
<polygon fill="none" stroke="#000000" points="520,-349.7 520,-371.7 629,-371.7 629,-349.7 520,-349.7"/>
<text text-anchor="start" x="523" y="-357.4" font-family="Helvetica,sans-Serif" font-size="11.00" fill="#000000">varchar[64]</text>
<polygon fill="#ffffff" stroke="transparent" points="375,-327.7 375,-349.7 520,-349.7 520,-327.7 375,-327.7"/>
<polygon fill="none" stroke="#000000" points="375,-327.7 375,-349.7 520,-349.7 520,-327.7 375,-327.7"/>
<image xlink:href="../../images/foreignKeys.png" width="11px" height="12px" preserveAspectRatio="xMinYMin meet" x="380" y="-344.7"/>
<text text-anchor="start" x="395" y="-334.8" font-family="Helvetica,sans-Serif" font-size="11.00" fill="#000000">user_id</text>
<polygon fill="none" stroke="#000000" points="520,-327.7 520,-349.7 629,-349.7 629,-327.7 520,-327.7"/>
<text text-anchor="start" x="523" y="-335.4" font-family="Helvetica,sans-Serif" font-size="11.00" fill="#000000">uuid[2147483647]</text>
<polygon fill="none" stroke="#000000" points="375,-305.7 375,-327.7 520,-327.7 520,-305.7 375,-305.7"/>
<text text-anchor="start" x="395" y="-312.8" font-family="Helvetica,sans-Serif" font-size="11.00" fill="#000000">deleted_at</text>
<polygon fill="none" stroke="#000000" points="520,-305.7 520,-327.7 629,-327.7 629,-305.7 520,-305.7"/>
<text text-anchor="start" x="523" y="-313.4" font-family="Helvetica,sans-Serif" font-size="11.00" fill="#000000">timestamptz[35,6]</text>
<polygon fill="#ffffff" stroke="transparent" points="375,-283.7 375,-305.7 520,-305.7 520,-283.7 375,-283.7"/>
<polygon fill="none" stroke="#000000" points="375,-283.7 375,-305.7 520,-305.7 520,-283.7 375,-283.7"/>
<image xlink:href="../../images/foreignKeys.png" width="11px" height="12px" preserveAspectRatio="xMinYMin meet" x="380" y="-300.7"/>
<text text-anchor="start" x="395" y="-290.8" font-family="Helvetica,sans-Serif" font-size="11.00" fill="#000000">group_id</text>
<polygon fill="none" stroke="#000000" points="520,-283.7 520,-305.7 629,-305.7 629,-283.7 520,-283.7"/>
<text text-anchor="start" x="523" y="-291.4" font-family="Helvetica,sans-Serif" font-size="11.00" fill="#000000">uuid[2147483647]</text>
<polygon fill="none" stroke="#000000" points="375,-261.7 375,-283.7 520,-283.7 520,-261.7 375,-261.7"/>
<text text-anchor="start" x="395" y="-268.8" font-family="Helvetica,sans-Serif" font-size="11.00" fill="#000000">media_key</text>
<polygon fill="none" stroke="#000000" points="520,-261.7 520,-283.7 629,-283.7 629,-261.7 520,-261.7"/>
<text text-anchor="start" x="523" y="-269.4" font-family="Helvetica,sans-Serif" font-size="11.00" fill="#000000">varchar[255]</text>
<polygon fill="#ffffff" stroke="transparent" points="375,-242.7 375,-261.7 629,-261.7 629,-242.7 375,-242.7"/>
<polygon fill="none" stroke="#000000" points="375,-242.7 375,-261.7 629,-261.7 629,-242.7 375,-242.7"/>
<polygon fill="#ffffff" stroke="transparent" points="376,-243.7 376,-260.7 463,-260.7 463,-243.7 376,-243.7"/>
<text text-anchor="start" x="378" y="-248.8" font-family="Helvetica,sans-Serif" font-size="11.00" fill="#000000">&lt; 2</text>
<polygon fill="#ffffff" stroke="transparent" points="463,-243.7 463,-260.7 541,-260.7 541,-243.7 463,-243.7"/>
<text text-anchor="start" x="498.9431" y="-248.8" font-family="Helvetica,sans-Serif" font-size="11.00" fill="#000000"> &#160;</text>
<polygon fill="#ffffff" stroke="transparent" points="541,-243.7 541,-260.7 628,-260.7 628,-243.7 541,-243.7"/>
<text text-anchor="start" x="610.4053" y="-248.8" font-family="Helvetica,sans-Serif" font-size="11.00" fill="#000000">5 &gt;</text>
<polygon fill="#000000" stroke="#000000" points="463,-243.7 463,-260.7 463,-260.7 463,-243.7 463,-243.7"/>
<polygon fill="#000000" stroke="#000000" points="541,-243.7 541,-260.7 541,-260.7 541,-243.7 541,-243.7"/>
<polygon fill="none" stroke="#000000" stroke-width="2" points="374,-241.7 374,-483.7 630,-483.7 630,-241.7 374,-241.7"/>
</a>
</g>
</g>
<!-- action_items&#45;&gt;summaries -->
<g id="edge1" class="edge">
<title>action_items:w&#45;&gt;summaries:e</title>
<path fill="none" stroke="#000000" d="M695.0919,-303.0247C644.108,-321.8535 698.321,-448.7 629,-448.7"/>
<polygon fill="#000000" stroke="#000000" points="701.6021,-301.9744 710.0735,-304.254 705.5511,-301.3372 709.5,-300.7 709.5,-300.7 709.5,-300.7 705.5511,-301.3372 708.9265,-297.146 701.6021,-301.9744 701.6021,-301.9744"/>
<ellipse fill="none" stroke="#000000" cx="698.443" cy="-302.4841" rx="3.2" ry="3.2"/>
</g>
<!-- summary_groups -->
<g id="node4" class="node">
<title>summary_groups</title>
<g id="a_node4"><a xlink:href="../../tables/summary_groups.html" xlink:title="summary_groups" target="_top">
<polygon fill="#ffffff" stroke="transparent" points="160,-199.2 160,-326.2 324,-326.2 324,-199.2 160,-199.2"/>
<polygon fill="#f5f5f5" stroke="transparent" points="160,-302.7 160,-325.7 324,-325.7 324,-302.7 160,-302.7"/>
<polygon fill="none" stroke="#000000" points="160,-302.7 160,-325.7 324,-325.7 324,-302.7 160,-302.7"/>
<text text-anchor="start" x="165" y="-311.3" font-family="Helvetica,sans-Serif" font-weight="bold" font-size="11.00" fill="#000000">summary_groups</text>
<text text-anchor="start" x="289.5219" y="-310.8" font-family="Helvetica,sans-Serif" font-size="11.00" fill="#000000">[table]</text>
<polygon fill="none" stroke="#000000" points="160,-280.7 160,-302.7 324,-302.7 324,-280.7 160,-280.7"/>
<image xlink:href="../../images/primaryKeys.png" width="11px" height="12px" preserveAspectRatio="xMinYMin meet" x="165" y="-297.7"/>
<text text-anchor="start" x="189" y="-287.8" font-family="Helvetica,sans-Serif" font-size="11.00" fill="#000000">id</text>
<polygon fill="#ffffff" stroke="transparent" points="160,-258.7 160,-280.7 324,-280.7 324,-258.7 160,-258.7"/>
<polygon fill="none" stroke="#000000" points="160,-258.7 160,-280.7 324,-280.7 324,-258.7 160,-258.7"/>
<image xlink:href="../../images/foreignKeys.png" width="11px" height="12px" preserveAspectRatio="xMinYMin meet" x="165" y="-275.7"/>
<text text-anchor="start" x="189" y="-265.8" font-family="Helvetica,sans-Serif" font-size="11.00" fill="#000000">user_id</text>
<polygon fill="#ffffff" stroke="transparent" points="160,-236.7 160,-258.7 324,-258.7 324,-236.7 160,-236.7"/>
<polygon fill="none" stroke="#000000" points="160,-236.7 160,-258.7 324,-258.7 324,-236.7 160,-236.7"/>
<text text-anchor="start" x="189" y="-243.8" font-family="Helvetica,sans-Serif" font-size="11.00" fill="#000000">name</text>
<polygon fill="none" stroke="#000000" points="160,-217.7 160,-236.7 324,-236.7 324,-217.7 160,-217.7"/>
<text text-anchor="start" x="163" y="-223.8" font-family="Helvetica,sans-Serif" font-size="11.00" fill="#000000">...</text>
<polygon fill="#ffffff" stroke="transparent" points="160,-198.7 160,-217.7 324,-217.7 324,-198.7 160,-198.7"/>
<polygon fill="none" stroke="#000000" points="160,-198.7 160,-217.7 324,-217.7 324,-198.7 160,-198.7"/>
<polygon fill="#ffffff" stroke="transparent" points="161,-199.7 161,-216.7 218,-216.7 218,-199.7 161,-199.7"/>
<text text-anchor="start" x="163" y="-204.8" font-family="Helvetica,sans-Serif" font-size="11.00" fill="#000000">&lt; 1</text>
<polygon fill="#ffffff" stroke="transparent" points="218,-199.7 218,-216.7 266,-216.7 266,-199.7 218,-199.7"/>
<text text-anchor="start" x="238.9431" y="-204.8" font-family="Helvetica,sans-Serif" font-size="11.00" fill="#000000"> &#160;</text>
<polygon fill="#ffffff" stroke="transparent" points="266,-199.7 266,-216.7 323,-216.7 323,-199.7 266,-199.7"/>
<text text-anchor="start" x="305.4053" y="-204.8" font-family="Helvetica,sans-Serif" font-size="11.00" fill="#000000">1 &gt;</text>
<polygon fill="#000000" stroke="#000000" points="218,-199.7 218,-216.7 218,-216.7 218,-199.7 218,-199.7"/>
<polygon fill="#000000" stroke="#000000" points="266,-199.7 266,-216.7 266,-216.7 266,-199.7 266,-199.7"/>
</a>
</g>
</g>
<!-- summaries&#45;&gt;summary_groups -->
<g id="edge3" class="edge">
<title>summaries:w&#45;&gt;summary_groups:e</title>
<path fill="none" stroke="#000000" d="M360.2651,-294.2046C348.2749,-293.3525 340.852,-291.7 324,-291.7"/>
<polygon fill="#000000" stroke="#000000" points="367.0045,-294.4311 374.879,-298.298 371.0023,-294.5656 375,-294.7 375,-294.7 375,-294.7 371.0023,-294.5656 375.121,-291.102 367.0045,-294.4311 367.0045,-294.4311"/>
<ellipse fill="none" stroke="#000000" cx="363.8063" cy="-294.3236" rx="3.2" ry="3.2"/>
</g>
<!-- users -->
<g id="node5" class="node">
<title>users</title>
<g id="a_node5"><a xlink:href="../../tables/users.html" xlink:title="users" target="_top">
<polygon fill="#ffffff" stroke="transparent" points="8,-221.2 8,-304.2 111,-304.2 111,-221.2 8,-221.2"/>
<polygon fill="#f5f5f5" stroke="transparent" points="8.5,-280.7 8.5,-303.7 111.5,-303.7 111.5,-280.7 8.5,-280.7"/>
<polygon fill="none" stroke="#000000" points="8.5,-280.7 8.5,-303.7 111.5,-303.7 111.5,-280.7 8.5,-280.7"/>
<text text-anchor="start" x="13.5" y="-289.3" font-family="Helvetica,sans-Serif" font-weight="bold" font-size="11.00" fill="#000000">users</text>
<text text-anchor="start" x="76.5437" y="-288.8" font-family="Helvetica,sans-Serif" font-size="11.00" fill="#000000">[table]</text>
<polygon fill="none" stroke="#000000" points="8.5,-258.7 8.5,-280.7 111.5,-280.7 111.5,-258.7 8.5,-258.7"/>
<image xlink:href="../../images/primaryKeys.png" width="11px" height="12px" preserveAspectRatio="xMinYMin meet" x="13.5" y="-275.7"/>
<text text-anchor="start" x="28.5" y="-265.8" font-family="Helvetica,sans-Serif" font-size="11.00" fill="#000000">id</text>
<polygon fill="none" stroke="#000000" points="8.5,-239.7 8.5,-258.7 111.5,-258.7 111.5,-239.7 8.5,-239.7"/>
<text text-anchor="start" x="11.5" y="-245.8" font-family="Helvetica,sans-Serif" font-size="11.00" fill="#000000">...</text>
<polygon fill="#ffffff" stroke="transparent" points="8.5,-220.7 8.5,-239.7 111.5,-239.7 111.5,-220.7 8.5,-220.7"/>
<polygon fill="none" stroke="#000000" points="8.5,-220.7 8.5,-239.7 111.5,-239.7 111.5,-220.7 8.5,-220.7"/>
<polygon fill="#ffffff" stroke="transparent" points="9.5,-221.7 9.5,-238.7 40.5,-238.7 40.5,-221.7 9.5,-221.7"/>
<text text-anchor="start" x="11.5" y="-226.8" font-family="Helvetica,sans-Serif" font-size="11.00" fill="#000000"> &#160;</text>
<polygon fill="#ffffff" stroke="transparent" points="40.5,-221.7 40.5,-238.7 71.5,-238.7 71.5,-221.7 40.5,-221.7"/>
<text text-anchor="start" x="52.9431" y="-226.8" font-family="Helvetica,sans-Serif" font-size="11.00" fill="#000000"> &#160;</text>
<polygon fill="#ffffff" stroke="transparent" points="71.5,-221.7 71.5,-238.7 110.5,-238.7 110.5,-221.7 71.5,-221.7"/>
<text text-anchor="start" x="92.9053" y="-226.8" font-family="Helvetica,sans-Serif" font-size="11.00" fill="#000000">5 &gt;</text>
<polygon fill="#000000" stroke="#000000" points="40.5,-221.7 40.5,-238.7 40.5,-238.7 40.5,-221.7 40.5,-221.7"/>
<polygon fill="#000000" stroke="#000000" points="71.5,-221.7 71.5,-238.7 71.5,-238.7 71.5,-221.7 71.5,-221.7"/>
</a>
</g>
</g>
<!-- summaries&#45;&gt;users -->
<g id="edge4" class="edge">
<title>summaries:w&#45;&gt;users:e</title>
<path fill="none" stroke="#000000" d="M360.3606,-339.0455C271.9238,-343.2335 233.738,-383.2865 152,-336.7 121.7699,-319.4704 146.2953,-269.7 111.5,-269.7"/>
<polygon fill="#000000" stroke="#000000" points="367.0022,-338.8888 375.085,-342.299 371.0011,-338.7944 375,-338.7 375,-338.7 375,-338.7 371.0011,-338.7944 374.915,-335.101 367.0022,-338.8888 367.0022,-338.8888"/>
<ellipse fill="none" stroke="#000000" cx="363.8031" cy="-338.9643" rx="3.2" ry="3.2"/>
</g>
<!-- decisions -->
<g id="node3" class="node">
<title>decisions</title>
<g id="a_node3"><a xlink:href="../../tables/decisions.html" xlink:title="decisions" target="_top">
<polygon fill="#ffffff" stroke="transparent" points="720,-652.2 720,-757.2 829,-757.2 829,-652.2 720,-652.2"/>
<polygon fill="#f5f5f5" stroke="transparent" points="720.5,-733.7 720.5,-756.7 829.5,-756.7 829.5,-733.7 720.5,-733.7"/>
<polygon fill="none" stroke="#000000" points="720.5,-733.7 720.5,-756.7 829.5,-756.7 829.5,-733.7 720.5,-733.7"/>
<text text-anchor="start" x="725.5" y="-742.3" font-family="Helvetica,sans-Serif" font-weight="bold" font-size="11.00" fill="#000000">decisions</text>
<text text-anchor="start" x="794.5437" y="-741.8" font-family="Helvetica,sans-Serif" font-size="11.00" fill="#000000">[table]</text>
<polygon fill="none" stroke="#000000" points="720.5,-711.7 720.5,-733.7 829.5,-733.7 829.5,-711.7 720.5,-711.7"/>
<image xlink:href="../../images/primaryKeys.png" width="11px" height="12px" preserveAspectRatio="xMinYMin meet" x="725.5" y="-728.7"/>
<text text-anchor="start" x="740.5" y="-718.8" font-family="Helvetica,sans-Serif" font-size="11.00" fill="#000000">id</text>
<polygon fill="#ffffff" stroke="transparent" points="720.5,-689.7 720.5,-711.7 829.5,-711.7 829.5,-689.7 720.5,-689.7"/>
<polygon fill="none" stroke="#000000" points="720.5,-689.7 720.5,-711.7 829.5,-711.7 829.5,-689.7 720.5,-689.7"/>
<image xlink:href="../../images/foreignKeys.png" width="11px" height="12px" preserveAspectRatio="xMinYMin meet" x="725.5" y="-706.7"/>
<text text-anchor="start" x="740.5" y="-696.8" font-family="Helvetica,sans-Serif" font-size="11.00" fill="#000000">summary_id</text>
<polygon fill="none" stroke="#000000" points="720.5,-670.7 720.5,-689.7 829.5,-689.7 829.5,-670.7 720.5,-670.7"/>
<text text-anchor="start" x="723.5" y="-676.8" font-family="Helvetica,sans-Serif" font-size="11.00" fill="#000000">...</text>
<polygon fill="#ffffff" stroke="transparent" points="720.5,-651.7 720.5,-670.7 829.5,-670.7 829.5,-651.7 720.5,-651.7"/>
<polygon fill="none" stroke="#000000" points="720.5,-651.7 720.5,-670.7 829.5,-670.7 829.5,-651.7 720.5,-651.7"/>
<polygon fill="#ffffff" stroke="transparent" points="721.5,-652.7 721.5,-669.7 763.5,-669.7 763.5,-652.7 721.5,-652.7"/>
<text text-anchor="start" x="723.5" y="-657.8" font-family="Helvetica,sans-Serif" font-size="11.00" fill="#000000">&lt; 1</text>
<polygon fill="#ffffff" stroke="transparent" points="763.5,-652.7 763.5,-669.7 796.5,-669.7 796.5,-652.7 763.5,-652.7"/>
<text text-anchor="start" x="776.9431" y="-657.8" font-family="Helvetica,sans-Serif" font-size="11.00" fill="#000000"> &#160;</text>
<polygon fill="#ffffff" stroke="transparent" points="796.5,-652.7 796.5,-669.7 828.5,-669.7 828.5,-652.7 796.5,-652.7"/>
<text text-anchor="start" x="820.3862" y="-657.8" font-family="Helvetica,sans-Serif" font-size="11.00" fill="#000000"> &#160;</text>
<polygon fill="#000000" stroke="#000000" points="763.5,-652.7 763.5,-669.7 763.5,-669.7 763.5,-652.7 763.5,-652.7"/>
<polygon fill="#000000" stroke="#000000" points="796.5,-652.7 796.5,-669.7 796.5,-669.7 796.5,-652.7 796.5,-652.7"/>
</a>
</g>
</g>
<!-- decisions&#45;&gt;summaries -->
<g id="edge2" class="edge">
<title>decisions:w&#45;&gt;summaries:e</title>
<path fill="none" stroke="#000000" d="M706.0608,-698.4142C686.2341,-691.0726 684.3769,-667.0867 672,-641.7 633.4882,-562.7069 716.881,-448.7 629,-448.7"/>
<polygon fill="#000000" stroke="#000000" points="712.5984,-699.4491 719.9371,-704.2557 716.5492,-700.0745 720.5,-700.7 720.5,-700.7 720.5,-700.7 716.5492,-700.0745 721.0629,-697.1443 712.5984,-699.4491 712.5984,-699.4491"/>
<ellipse fill="none" stroke="#000000" cx="709.4378" cy="-698.9487" rx="3.2" ry="3.2"/>
</g>
<!-- summary_groups&#45;&gt;users -->
<g id="edge5" class="edge">
<title>summary_groups:w&#45;&gt;users:e</title>
<path fill="none" stroke="#000000" d="M145.2829,-269.7C134.2886,-269.7 127.1615,-269.7 111.5,-269.7"/>
<polygon fill="#000000" stroke="#000000" points="152,-269.7001 160,-273.3 156,-269.7 160,-269.7 160,-269.7 160,-269.7 156,-269.7 160,-266.1 152,-269.7001 152,-269.7001"/>
<ellipse fill="none" stroke="#000000" cx="148.8" cy="-269.7001" rx="3.2" ry="3.2"/>
</g>
<!-- topics -->
<g id="node6" class="node">
<title>topics</title>
<g id="a_node6"><a xlink:href="../../tables/topics.html" xlink:title="topics" target="_top">
<polygon fill="#ffffff" stroke="transparent" points="720,-526.2 720,-631.2 829,-631.2 829,-526.2 720,-526.2"/>
<polygon fill="#f5f5f5" stroke="transparent" points="720.5,-607.7 720.5,-630.7 829.5,-630.7 829.5,-607.7 720.5,-607.7"/>
<polygon fill="none" stroke="#000000" points="720.5,-607.7 720.5,-630.7 829.5,-630.7 829.5,-607.7 720.5,-607.7"/>
<text text-anchor="start" x="725.5" y="-616.3" font-family="Helvetica,sans-Serif" font-weight="bold" font-size="11.00" fill="#000000">topics</text>
<text text-anchor="start" x="794.5437" y="-615.8" font-family="Helvetica,sans-Serif" font-size="11.00" fill="#000000">[table]</text>
<polygon fill="none" stroke="#000000" points="720.5,-585.7 720.5,-607.7 829.5,-607.7 829.5,-585.7 720.5,-585.7"/>
<image xlink:href="../../images/primaryKeys.png" width="11px" height="12px" preserveAspectRatio="xMinYMin meet" x="725.5" y="-602.7"/>
<text text-anchor="start" x="740.5" y="-592.8" font-family="Helvetica,sans-Serif" font-size="11.00" fill="#000000">id</text>
<polygon fill="#ffffff" stroke="transparent" points="720.5,-563.7 720.5,-585.7 829.5,-585.7 829.5,-563.7 720.5,-563.7"/>
<polygon fill="none" stroke="#000000" points="720.5,-563.7 720.5,-585.7 829.5,-585.7 829.5,-563.7 720.5,-563.7"/>
<image xlink:href="../../images/foreignKeys.png" width="11px" height="12px" preserveAspectRatio="xMinYMin meet" x="725.5" y="-580.7"/>
<text text-anchor="start" x="740.5" y="-570.8" font-family="Helvetica,sans-Serif" font-size="11.00" fill="#000000">summary_id</text>
<polygon fill="none" stroke="#000000" points="720.5,-544.7 720.5,-563.7 829.5,-563.7 829.5,-544.7 720.5,-544.7"/>
<text text-anchor="start" x="723.5" y="-550.8" font-family="Helvetica,sans-Serif" font-size="11.00" fill="#000000">...</text>
<polygon fill="#ffffff" stroke="transparent" points="720.5,-525.7 720.5,-544.7 829.5,-544.7 829.5,-525.7 720.5,-525.7"/>
<polygon fill="none" stroke="#000000" points="720.5,-525.7 720.5,-544.7 829.5,-544.7 829.5,-525.7 720.5,-525.7"/>
<polygon fill="#ffffff" stroke="transparent" points="721.5,-526.7 721.5,-543.7 763.5,-543.7 763.5,-526.7 721.5,-526.7"/>
<text text-anchor="start" x="723.5" y="-531.8" font-family="Helvetica,sans-Serif" font-size="11.00" fill="#000000">&lt; 1</text>
<polygon fill="#ffffff" stroke="transparent" points="763.5,-526.7 763.5,-543.7 796.5,-543.7 796.5,-526.7 763.5,-526.7"/>
<text text-anchor="start" x="776.9431" y="-531.8" font-family="Helvetica,sans-Serif" font-size="11.00" fill="#000000"> &#160;</text>
<polygon fill="#ffffff" stroke="transparent" points="796.5,-526.7 796.5,-543.7 828.5,-543.7 828.5,-526.7 796.5,-526.7"/>
<text text-anchor="start" x="820.3862" y="-531.8" font-family="Helvetica,sans-Serif" font-size="11.00" fill="#000000"> &#160;</text>
<polygon fill="#000000" stroke="#000000" points="763.5,-526.7 763.5,-543.7 763.5,-543.7 763.5,-526.7 763.5,-526.7"/>
<polygon fill="#000000" stroke="#000000" points="796.5,-526.7 796.5,-543.7 796.5,-543.7 796.5,-526.7 796.5,-526.7"/>
</a>
</g>
</g>
<!-- topics&#45;&gt;summaries -->
<g id="edge6" class="edge">
<title>topics:w&#45;&gt;summaries:e</title>
<path fill="none" stroke="#000000" d="M706.1574,-572.0844C687.6693,-563.9736 688.5454,-538.4255 672,-515.7 651.1741,-487.0952 664.3829,-448.7 629,-448.7"/>
<polygon fill="#000000" stroke="#000000" points="712.6298,-573.2647 719.8541,-578.2416 716.5649,-573.9823 720.5,-574.7 720.5,-574.7 720.5,-574.7 716.5649,-573.9823 721.1459,-571.1584 712.6298,-573.2647 712.6298,-573.2647"/>
<ellipse fill="none" stroke="#000000" cx="709.4817" cy="-572.6906" rx="3.2" ry="3.2"/>
</g>
<!-- transcript_segments -->
<g id="node7" class="node">
<title>transcript_segments</title>
<g id="a_node7"><a xlink:href="../../tables/transcript_segments.html" xlink:title="transcript_segments" target="_top">
<polygon fill="#ffffff" stroke="transparent" points="680,-378.2 680,-505.2 869,-505.2 869,-378.2 680,-378.2"/>
<polygon fill="#f5f5f5" stroke="transparent" points="680.5,-481.7 680.5,-504.7 869.5,-504.7 869.5,-481.7 680.5,-481.7"/>
<polygon fill="none" stroke="#000000" points="680.5,-481.7 680.5,-504.7 869.5,-504.7 869.5,-481.7 680.5,-481.7"/>
<text text-anchor="start" x="685.5" y="-490.3" font-family="Helvetica,sans-Serif" font-weight="bold" font-size="11.00" fill="#000000">transcript_segments</text>
<text text-anchor="start" x="835.0219" y="-489.8" font-family="Helvetica,sans-Serif" font-size="11.00" fill="#000000">[table]</text>
<polygon fill="none" stroke="#000000" points="680.5,-459.7 680.5,-481.7 869.5,-481.7 869.5,-459.7 680.5,-459.7"/>
<image xlink:href="../../images/primaryKeys.png" width="11px" height="12px" preserveAspectRatio="xMinYMin meet" x="685.5" y="-476.7"/>
<text text-anchor="start" x="709.5" y="-466.8" font-family="Helvetica,sans-Serif" font-size="11.00" fill="#000000">id</text>
<polygon fill="#ffffff" stroke="transparent" points="680.5,-437.7 680.5,-459.7 869.5,-459.7 869.5,-437.7 680.5,-437.7"/>
<polygon fill="none" stroke="#000000" points="680.5,-437.7 680.5,-459.7 869.5,-459.7 869.5,-437.7 680.5,-437.7"/>
<image xlink:href="../../images/foreignKeys.png" width="11px" height="12px" preserveAspectRatio="xMinYMin meet" x="685.5" y="-454.7"/>
<text text-anchor="start" x="709.5" y="-444.8" font-family="Helvetica,sans-Serif" font-size="11.00" fill="#000000">summary_id</text>
<polygon fill="#ffffff" stroke="transparent" points="680.5,-415.7 680.5,-437.7 869.5,-437.7 869.5,-415.7 680.5,-415.7"/>
<polygon fill="none" stroke="#000000" points="680.5,-415.7 680.5,-437.7 869.5,-437.7 869.5,-415.7 680.5,-415.7"/>
<text text-anchor="start" x="709.5" y="-422.8" font-family="Helvetica,sans-Serif" font-size="11.00" fill="#000000">rank</text>
<polygon fill="none" stroke="#000000" points="680.5,-396.7 680.5,-415.7 869.5,-415.7 869.5,-396.7 680.5,-396.7"/>
<text text-anchor="start" x="683.5" y="-402.8" font-family="Helvetica,sans-Serif" font-size="11.00" fill="#000000">...</text>
<polygon fill="#ffffff" stroke="transparent" points="680.5,-377.7 680.5,-396.7 869.5,-396.7 869.5,-377.7 680.5,-377.7"/>
<polygon fill="none" stroke="#000000" points="680.5,-377.7 680.5,-396.7 869.5,-396.7 869.5,-377.7 680.5,-377.7"/>
<polygon fill="#ffffff" stroke="transparent" points="681.5,-378.7 681.5,-395.7 750.5,-395.7 750.5,-378.7 681.5,-378.7"/>
<text text-anchor="start" x="683.5" y="-383.8" font-family="Helvetica,sans-Serif" font-size="11.00" fill="#000000">&lt; 1</text>
<polygon fill="#ffffff" stroke="transparent" points="750.5,-378.7 750.5,-395.7 809.5,-395.7 809.5,-378.7 750.5,-378.7"/>
<text text-anchor="start" x="776.9431" y="-383.8" font-family="Helvetica,sans-Serif" font-size="11.00" fill="#000000"> &#160;</text>
<polygon fill="#ffffff" stroke="transparent" points="809.5,-378.7 809.5,-395.7 868.5,-395.7 868.5,-378.7 809.5,-378.7"/>
<text text-anchor="start" x="860.3862" y="-383.8" font-family="Helvetica,sans-Serif" font-size="11.00" fill="#000000"> &#160;</text>
<polygon fill="#000000" stroke="#000000" points="750.5,-378.7 750.5,-395.7 750.5,-395.7 750.5,-378.7 750.5,-378.7"/>
<polygon fill="#000000" stroke="#000000" points="809.5,-378.7 809.5,-395.7 809.5,-395.7 809.5,-378.7 809.5,-378.7"/>
</a>
</g>
</g>
<!-- transcript_segments&#45;&gt;summaries -->
<g id="edge7" class="edge">
<title>transcript_segments:w&#45;&gt;summaries:e</title>
<path fill="none" stroke="#000000" d="M666.0156,-448.7C653.6771,-448.7 646.1667,-448.7 629,-448.7"/>
<polygon fill="#000000" stroke="#000000" points="672.5,-448.7001 680.5,-452.3 676.5,-448.7 680.5,-448.7 680.5,-448.7 680.5,-448.7 676.5,-448.7 680.5,-445.1 672.5,-448.7001 672.5,-448.7001"/>
<ellipse fill="none" stroke="#000000" cx="669.3" cy="-448.7001" rx="3.2" ry="3.2"/>
</g>
<!-- transcription_jobs -->
<g id="node8" class="node">
<title>transcription_jobs</title>
<g id="a_node8"><a xlink:href="../../tables/transcription_jobs.html" xlink:title="transcription_jobs" target="_top">
<polygon fill="#ffffff" stroke="transparent" points="689,-38.2 689,-231.2 860,-231.2 860,-38.2 689,-38.2"/>
<polygon fill="#f5f5f5" stroke="transparent" points="689.5,-207.7 689.5,-230.7 860.5,-230.7 860.5,-207.7 689.5,-207.7"/>
<polygon fill="none" stroke="#000000" points="689.5,-207.7 689.5,-230.7 860.5,-230.7 860.5,-207.7 689.5,-207.7"/>
<text text-anchor="start" x="694.5" y="-216.3" font-family="Helvetica,sans-Serif" font-weight="bold" font-size="11.00" fill="#000000">transcription_jobs</text>
<text text-anchor="start" x="826.0219" y="-215.8" font-family="Helvetica,sans-Serif" font-size="11.00" fill="#000000">[table]</text>
<polygon fill="none" stroke="#000000" points="689.5,-185.7 689.5,-207.7 860.5,-207.7 860.5,-185.7 689.5,-185.7"/>
<image xlink:href="../../images/primaryKeys.png" width="11px" height="12px" preserveAspectRatio="xMinYMin meet" x="694.5" y="-202.7"/>
<text text-anchor="start" x="718.5" y="-192.8" font-family="Helvetica,sans-Serif" font-size="11.00" fill="#000000">id</text>
<polygon fill="#ffffff" stroke="transparent" points="689.5,-163.7 689.5,-185.7 860.5,-185.7 860.5,-163.7 689.5,-163.7"/>
<polygon fill="none" stroke="#000000" points="689.5,-163.7 689.5,-185.7 860.5,-185.7 860.5,-163.7 689.5,-163.7"/>
<image xlink:href="../../images/foreignKeys.png" width="11px" height="12px" preserveAspectRatio="xMinYMin meet" x="694.5" y="-180.7"/>
<text text-anchor="start" x="718.5" y="-170.8" font-family="Helvetica,sans-Serif" font-size="11.00" fill="#000000">user_id</text>
<polygon fill="#ffffff" stroke="transparent" points="689.5,-141.7 689.5,-163.7 860.5,-163.7 860.5,-141.7 689.5,-141.7"/>
<polygon fill="none" stroke="#000000" points="689.5,-141.7 689.5,-163.7 860.5,-163.7 860.5,-141.7 689.5,-141.7"/>
<text text-anchor="start" x="718.5" y="-148.8" font-family="Helvetica,sans-Serif" font-size="11.00" fill="#000000">status</text>
<polygon fill="#ffffff" stroke="transparent" points="689.5,-119.7 689.5,-141.7 860.5,-141.7 860.5,-119.7 689.5,-119.7"/>
<polygon fill="none" stroke="#000000" points="689.5,-119.7 689.5,-141.7 860.5,-141.7 860.5,-119.7 689.5,-119.7"/>
<text text-anchor="start" x="718.5" y="-126.8" font-family="Helvetica,sans-Serif" font-size="11.00" fill="#000000">content_hash</text>
<polygon fill="#ffffff" stroke="transparent" points="689.5,-97.7 689.5,-119.7 860.5,-119.7 860.5,-97.7 689.5,-97.7"/>
<polygon fill="none" stroke="#000000" points="689.5,-97.7 689.5,-119.7 860.5,-119.7 860.5,-97.7 689.5,-97.7"/>
<image xlink:href="../../images/foreignKeys.png" width="11px" height="12px" preserveAspectRatio="xMinYMin meet" x="694.5" y="-114.7"/>
<text text-anchor="start" x="718.5" y="-104.8" font-family="Helvetica,sans-Serif" font-size="11.00" fill="#000000">summary_id</text>
<polygon fill="#ffffff" stroke="transparent" points="689.5,-75.7 689.5,-97.7 860.5,-97.7 860.5,-75.7 689.5,-75.7"/>
<polygon fill="none" stroke="#000000" points="689.5,-75.7 689.5,-97.7 860.5,-97.7 860.5,-75.7 689.5,-75.7"/>
<text text-anchor="start" x="718.5" y="-82.8" font-family="Helvetica,sans-Serif" font-size="11.00" fill="#000000">created_at</text>
<polygon fill="none" stroke="#000000" points="689.5,-56.7 689.5,-75.7 860.5,-75.7 860.5,-56.7 689.5,-56.7"/>
<text text-anchor="start" x="692.5" y="-62.8" font-family="Helvetica,sans-Serif" font-size="11.00" fill="#000000">...</text>
<polygon fill="#ffffff" stroke="transparent" points="689.5,-37.7 689.5,-56.7 860.5,-56.7 860.5,-37.7 689.5,-37.7"/>
<polygon fill="none" stroke="#000000" points="689.5,-37.7 689.5,-56.7 860.5,-56.7 860.5,-37.7 689.5,-37.7"/>
<polygon fill="#ffffff" stroke="transparent" points="690.5,-38.7 690.5,-55.7 753.5,-55.7 753.5,-38.7 690.5,-38.7"/>
<text text-anchor="start" x="692.5" y="-43.8" font-family="Helvetica,sans-Serif" font-size="11.00" fill="#000000">&lt; 2</text>
<polygon fill="#ffffff" stroke="transparent" points="753.5,-38.7 753.5,-55.7 806.5,-55.7 806.5,-38.7 753.5,-38.7"/>
<text text-anchor="start" x="776.9431" y="-43.8" font-family="Helvetica,sans-Serif" font-size="11.00" fill="#000000"> &#160;</text>
<polygon fill="#ffffff" stroke="transparent" points="806.5,-38.7 806.5,-55.7 859.5,-55.7 859.5,-38.7 806.5,-38.7"/>
<text text-anchor="start" x="851.3862" y="-43.8" font-family="Helvetica,sans-Serif" font-size="11.00" fill="#000000"> &#160;</text>
<polygon fill="#000000" stroke="#000000" points="753.5,-38.7 753.5,-55.7 753.5,-55.7 753.5,-38.7 753.5,-38.7"/>
<polygon fill="#000000" stroke="#000000" points="806.5,-38.7 806.5,-55.7 806.5,-55.7 806.5,-38.7 806.5,-38.7"/>
</a>
</g>
</g>
<!-- transcription_jobs&#45;&gt;summaries -->
<g id="edge8" class="edge">
<title>transcription_jobs:w&#45;&gt;summaries:e</title>
<path fill="none" stroke="#000000" d="M675.7115,-113.5063C624.9945,-154.8316 700.3464,-448.7 629,-448.7"/>
<polygon fill="#000000" stroke="#000000" points="681.9458,-111.3333 690.685,-112.0994 685.7229,-110.0166 689.5,-108.7 689.5,-108.7 689.5,-108.7 685.7229,-110.0166 688.315,-105.3006 681.9458,-111.3333 681.9458,-111.3333"/>
<ellipse fill="none" stroke="#000000" cx="678.9241" cy="-112.3866" rx="3.2" ry="3.2"/>
</g>
<!-- transcription_jobs&#45;&gt;users -->
<g id="edge9" class="edge">
<title>transcription_jobs:w&#45;&gt;users:e</title>
<path fill="none" stroke="#000000" d="M674.9749,-174.5589C446.5115,-170.1152 349.492,-63.0606 152,-188.7 118.0404,-210.3043 151.7492,-269.7 111.5,-269.7"/>
<polygon fill="#000000" stroke="#000000" points="681.5004,-174.6222 689.465,-178.2998 685.5002,-174.6611 689.5,-174.7 689.5,-174.7 689.5,-174.7 685.5002,-174.6611 689.535,-171.1002 681.5004,-174.6222 681.5004,-174.6222"/>
<ellipse fill="none" stroke="#000000" cx="678.3005" cy="-174.5911" rx="3.2" ry="3.2"/>
</g>
</g>
</svg>
