<?xml version="1.0" encoding="UTF-8" standalone="no"?>
<!DOCTYPE svg PUBLIC "-//W3C//DTD SVG 1.1//EN"
 "http://www.w3.org/Graphics/SVG/1.1/DTD/svg11.dtd">
<!-- Generated by graphviz version 2.40.1 (20161225.0304)
 -->
<!-- Title: twoDegreesRelationshipsDiagram Pages: 1 -->
<svg width="860pt" height="724pt"
 viewBox="0.00 0.00 860.00 724.20" xmlns="http://www.w3.org/2000/svg" xmlns:xlink="http://www.w3.org/1999/xlink">
<g id="graph0" class="graph" transform="scale(1 1) rotate(0) translate(4 720.2)">
<title>twoDegreesRelationshipsDiagram</title>
<polygon fill="#ffffff" stroke="transparent" points="-4,4 -4,-720.2 856,-720.2 856,4 -4,4"/>
<text text-anchor="middle" x="72.4936" y="-7.3" font-family="Helvetica,sans-Serif" font-size="11.00" fill="#000000">Generated by SchemaSpy</text>
<!-- action_items -->
<g id="node1" class="node">
<title>action_items</title>
<g id="a_node1"><a xlink:href="../../tables/action_items.html" xlink:title="action_items" target="_top">
<polygon fill="#ffffff" stroke="transparent" points="684,-607.2 684,-712.2 815,-712.2 815,-607.2 684,-607.2"/>
<polygon fill="#f5f5f5" stroke="transparent" points="684.5,-688.7 684.5,-711.7 815.5,-711.7 815.5,-688.7 684.5,-688.7"/>
<polygon fill="none" stroke="#000000" points="684.5,-688.7 684.5,-711.7 815.5,-711.7 815.5,-688.7 684.5,-688.7"/>
<text text-anchor="start" x="689.5" y="-697.3" font-family="Helvetica,sans-Serif" font-weight="bold" font-size="11.00" fill="#000000">action_items</text>
<text text-anchor="start" x="781.0219" y="-696.8" font-family="Helvetica,sans-Serif" font-size="11.00" fill="#000000">[table]</text>
<polygon fill="none" stroke="#000000" points="684.5,-666.7 684.5,-688.7 815.5,-688.7 815.5,-666.7 684.5,-666.7"/>
<image xlink:href="../../images/primaryKeys.png" width="11px" height="12px" preserveAspectRatio="xMinYMin meet" x="689.5" y="-683.7"/>
<text text-anchor="start" x="713.5" y="-673.8" font-family="Helvetica,sans-Serif" font-size="11.00" fill="#000000">id</text>
<polygon fill="#ffffff" stroke="transparent" points="684.5,-644.7 684.5,-666.7 815.5,-666.7 815.5,-644.7 684.5,-644.7"/>
<polygon fill="none" stroke="#000000" points="684.5,-644.7 684.5,-666.7 815.5,-666.7 815.5,-644.7 684.5,-644.7"/>
<image xlink:href="../../images/foreignKeys.png" width="11px" height="12px" preserveAspectRatio="xMinYMin meet" x="689.5" y="-661.7"/>
<text text-anchor="start" x="713.5" y="-651.8" font-family="Helvetica,sans-Serif" font-size="11.00" fill="#000000">summary_id</text>
<polygon fill="none" stroke="#000000" points="684.5,-625.7 684.5,-644.7 815.5,-644.7 815.5,-625.7 684.5,-625.7"/>
<text text-anchor="start" x="687.5" y="-631.8" font-family="Helvetica,sans-Serif" font-size="11.00" fill="#000000">...</text>
<polygon fill="#ffffff" stroke="transparent" points="684.5,-606.7 684.5,-625.7 815.5,-625.7 815.5,-606.7 684.5,-606.7"/>
<polygon fill="none" stroke="#000000" points="684.5,-606.7 684.5,-625.7 815.5,-625.7 815.5,-606.7 684.5,-606.7"/>
<polygon fill="#ffffff" stroke="transparent" points="685.5,-607.7 685.5,-624.7 734.5,-624.7 734.5,-607.7 685.5,-607.7"/>
<text text-anchor="start" x="687.5" y="-612.8" font-family="Helvetica,sans-Serif" font-size="11.00" fill="#000000">&lt; 1</text>
<polygon fill="#ffffff" stroke="transparent" points="734.5,-607.7 734.5,-624.7 774.5,-624.7 774.5,-607.7 734.5,-607.7"/>
<text text-anchor="start" x="751.4431" y="-612.8" font-family="Helvetica,sans-Serif" font-size="11.00" fill="#000000"> &#160;</text>
<polygon fill="#ffffff" stroke="transparent" points="774.5,-607.7 774.5,-624.7 814.5,-624.7 814.5,-607.7 774.5,-607.7"/>
<text text-anchor="start" x="806.3862" y="-612.8" font-family="Helvetica,sans-Serif" font-size="11.00" fill="#000000"> &#160;</text>
<polygon fill="#000000" stroke="#000000" points="734.5,-607.7 734.5,-624.7 734.5,-624.7 734.5,-607.7 734.5,-607.7"/>
<polygon fill="#000000" stroke="#000000" points="774.5,-607.7 774.5,-624.7 774.5,-624.7 774.5,-607.7 774.5,-607.7"/>
</a>
</g>
</g>
<!-- summaries -->
<g id="node2" class="node">
<title>summaries</title>
<g id="a_node2"><a xlink:href="../../tables/summaries.html" xlink:title="summaries" target="_top">
<polygon fill="#ffffff" stroke="transparent" points="348,-206.7 348,-450.7 606,-450.7 606,-206.7 348,-206.7"/>
<polygon fill="#f5f5f5" stroke="transparent" points="350,-425.7 350,-448.7 604,-448.7 604,-425.7 350,-425.7"/>
<polygon fill="none" stroke="#000000" points="350,-425.7 350,-448.7 604,-448.7 604,-425.7 350,-425.7"/>
<text text-anchor="start" x="355" y="-434.3" font-family="Helvetica,sans-Serif" font-weight="bold" font-size="11.00" fill="#000000">summaries</text>
<text text-anchor="start" x="569.0437" y="-433.8" font-family="Helvetica,sans-Serif" font-size="11.00" fill="#000000">[table]</text>
<polygon fill="none" stroke="#000000" points="350,-403.7 350,-425.7 495,-425.7 495,-403.7 350,-403.7"/>
<image xlink:href="../../images/primaryKeys.png" width="11px" height="12px" preserveAspectRatio="xMinYMin meet" x="355" y="-420.7"/>
<text text-anchor="start" x="370" y="-410.8" font-family="Helvetica,sans-Serif" font-size="11.00" fill="#000000">id</text>
<polygon fill="none" stroke="#000000" points="495,-403.7 495,-425.7 604,-425.7 604,-403.7 495,-403.7"/>
<text text-anchor="start" x="498" y="-411.4" font-family="Helvetica,sans-Serif" font-size="11.00" fill="#000000">uuid[2147483647]</text>
<polygon fill="none" stroke="#000000" points="350,-381.7 350,-403.7 495,-403.7 495,-381.7 350,-381.7"/>
<text text-anchor="start" x="370" y="-388.8" font-family="Helvetica,sans-Serif" font-size="11.00" fill="#000000">filename</text>
<polygon fill="none" stroke="#000000" points="495,-381.7 495,-403.7 604,-403.7 604,-381.7 495,-381.7"/>
<text text-anchor="start" x="498" y="-389.4" font-family="Helvetica,sans-Serif" font-size="11.00" fill="#000000">varchar[255]</text>
<polygon fill="none" stroke="#000000" points="350,-359.7 350,-381.7 495,-381.7 495,-359.7 350,-359.7"/>
<text text-anchor="start" x="370" y="-366.8" font-family="Helvetica,sans-Serif" font-size="11.00" fill="#000000">created_at</text>
<polygon fill="none" stroke="#000000" points="495,-359.7 495,-381.7 604,-381.7 604,-359.7 495,-359.7"/>
<text text-anchor="start" x="498" y="-367.4" font-family="Helvetica,sans-Serif" font-size="11.00" fill="#000000">timestamptz[35,6]</text>
<polygon fill="none" stroke="#000000" points="350,-337.7 350,-359.7 495,-359.7 495,-337.7 350,-337.7"/>
<text text-anchor="start" x="370" y="-344.8" font-family="Helvetica,sans-Serif" font-size="11.00" fill="#000000">overall_summary</text>
<polygon fill="none" stroke="#000000" points="495,-337.7 495,-359.7 604,-359.7 604,-337.7 495,-337.7"/>
<text text-anchor="start" x="497.5344" y="-345.4" font-family="Helvetica,sans-Serif" font-size="11.00" fill="#000000">varchar[2147483647]</text>
<polygon fill="#ffffff" stroke="transparent" points="350,-315.7 350,-337.7 495,-337.7 495,-315.7 350,-315.7"/>
<polygon fill="none" stroke="#000000" points="350,-315.7 350,-337.7 495,-337.7 495,-315.7 350,-315.7"/>
<text text-anchor="start" x="370" y="-322.8" font-family="Helvetica,sans-Serif" font-size="11.00" fill="#000000">content_hash</text>
<polygon fill="none" stroke="#000000" points="495,-315.7 495,-337.7 604,-337.7 604,-315.7 495,-315.7"/>
<text text-anchor="start" x="498" y="-323.4" font-family="Helvetica,sans-Serif" font-size="11.00" fill="#000000">varchar[64]</text>
<polygon fill="#ffffff" stroke="transparent" points="350,-293.7 350,-315.7 495,-315.7 495,-293.7 350,-293.7"/>
<polygon fill="none" stroke="#000000" points="350,-293.7 350,-315.7 495,-315.7 495,-293.7 350,-293.7"/>
<image xlink:href="../../images/foreignKeys.png" width="11px" height="12px" preserveAspectRatio="xMinYMin meet" x="355" y="-310.7"/>
<text text-anchor="start" x="370" y="-300.8" font-family="Helvetica,sans-Serif" font-size="11.00" fill="#000000">user_id</text>
<polygon fill="none" stroke="#000000" points="495,-293.7 495,-315.7 604,-315.7 604,-293.7 495,-293.7"/>
<text text-anchor="start" x="498" y="-301.4" font-family="Helvetica,sans-Serif" font-size="11.00" fill="#000000">uuid[2147483647]</text>
<polygon fill="none" stroke="#000000" points="350,-271.7 350,-293.7 495,-293.7 495,-271.7 350,-271.7"/>
<text text-anchor="start" x="370" y="-278.8" font-family="Helvetica,sans-Serif" font-size="11.00" fill="#000000">deleted_at</text>
<polygon fill="none" stroke="#000000" points="495,-271.7 495,-293.7 604,-293.7 604,-271.7 495,-271.7"/>
<text text-anchor="start" x="498" y="-279.4" font-family="Helvetica,sans-Serif" font-size="11.00" fill="#000000">timestamptz[35,6]</text>
<polygon fill="#ffffff" stroke="transparent" points="350,-249.7 350,-271.7 495,-271.7 495,-249.7 350,-249.7"/>
<polygon fill="none" stroke="#000000" points="350,-249.7 350,-271.7 495,-271.7 495,-249.7 350,-249.7"/>
<image xlink:href="../../images/foreignKeys.png" width="11px" height="12px" preserveAspectRatio="xMinYMin meet" x="355" y="-266.7"/>
<text text-anchor="start" x="370" y="-256.8" font-family="Helvetica,sans-Serif" font-size="11.00" fill="#000000">group_id</text>
<polygon fill="none" stroke="#000000" points="495,-249.7 495,-271.7 604,-271.7 604,-249.7 495,-249.7"/>
<text text-anchor="start" x="498" y="-257.4" font-family="Helvetica,sans-Serif" font-size="11.00" fill="#000000">uuid[2147483647]</text>
<polygon fill="none" stroke="#000000" points="350,-227.7 350,-249.7 495,-249.7 495,-227.7 350,-227.7"/>
<text text-anchor="start" x="370" y="-234.8" font-family="Helvetica,sans-Serif" font-size="11.00" fill="#000000">media_key</text>
<polygon fill="none" stroke="#000000" points="495,-227.7 495,-249.7 604,-249.7 604,-227.7 495,-227.7"/>
<text text-anchor="start" x="498" y="-235.4" font-family="Helvetica,sans-Serif" font-size="11.00" fill="#000000">varchar[255]</text>
<polygon fill="#ffffff" stroke="transparent" points="350,-208.7 350,-227.7 604,-227.7 604,-208.7 350,-208.7"/>
<polygon fill="none" stroke="#000000" points="350,-208.7 350,-227.7 604,-227.7 604,-208.7 350,-208.7"/>
<polygon fill="#ffffff" stroke="transparent" points="351,-209.7 351,-226.7 438,-226.7 438,-209.7 351,-209.7"/>
<text text-anchor="start" x="353" y="-214.8" font-family="Helvetica,sans-Serif" font-size="11.00" fill="#000000">&lt; 2</text>
<polygon fill="#ffffff" stroke="transparent" points="438,-209.7 438,-226.7 516,-226.7 516,-209.7 438,-209.7"/>
<text text-anchor="start" x="473.9431" y="-214.8" font-family="Helvetica,sans-Serif" font-size="11.00" fill="#000000"> &#160;</text>
<polygon fill="#ffffff" stroke="transparent" points="516,-209.7 516,-226.7 603,-226.7 603,-209.7 516,-209.7"/>
<text text-anchor="start" x="585.4053" y="-214.8" font-family="Helvetica,sans-Serif" font-size="11.00" fill="#000000">5 &gt;</text>
<polygon fill="#000000" stroke="#000000" points="438,-209.7 438,-226.7 438,-226.7 438,-209.7 438,-209.7"/>
<polygon fill="#000000" stroke="#000000" points="516,-209.7 516,-226.7 516,-226.7 516,-209.7 516,-209.7"/>
<polygon fill="none" stroke="#000000" stroke-width="2" points="349,-207.7 349,-449.7 605,-449.7 605,-207.7 349,-207.7"/>
</a>
</g>
</g>
<!-- action_items&#45;&gt;summaries -->
<g id="edge1" class="edge">
<title>action_items:w&#45;&gt;summaries:e</title>
<path fill="none" stroke="#000000" d="M670.0907,-652.4636C654.9583,-643.9027 656.7154,-619.7373 647,-596.7 614.7025,-520.116 687.1159,-414.7 604,-414.7"/>
<polygon fill="#000000" stroke="#000000" points="676.6945,-653.9468 683.7111,-659.2125 680.5972,-654.8234 684.5,-655.7 684.5,-655.7 684.5,-655.7 680.5972,-654.8234 685.2889,-652.1875 676.6945,-653.9468 676.6945,-653.9468"/>
<ellipse fill="none" stroke="#000000" cx="673.5723" cy="-653.2455" rx="3.2" ry="3.2"/>
</g>
<!-- users -->
<g id="node5" class="node">
<title>users</title>
<g id="a_node5"><a xlink:href="../../tables/users.html" xlink:title="users" target="_top">
<polygon fill="#ffffff" stroke="transparent" points="8,-145.2 8,-206.2 86,-206.2 86,-145.2 8,-145.2"/>
<polygon fill="#f5f5f5" stroke="transparent" points="8,-182.7 8,-205.7 86,-205.7 86,-182.7 8,-182.7"/>
<polygon fill="none" stroke="#000000" points="8,-182.7 8,-205.7 86,-205.7 86,-182.7 8,-182.7"/>
<text text-anchor="start" x="13" y="-191.3" font-family="Helvetica,sans-Serif" font-weight="bold" font-size="11.00" fill="#000000">users</text>
<text text-anchor="start" x="51.5219" y="-190.8" font-family="Helvetica,sans-Serif" font-size="11.00" fill="#000000">[table]</text>
<polygon fill="none" stroke="#000000" points="8,-163.7 8,-182.7 86,-182.7 86,-163.7 8,-163.7"/>
<text text-anchor="start" x="11" y="-169.8" font-family="Helvetica,sans-Serif" font-size="11.00" fill="#000000">...</text>
<polygon fill="#ffffff" stroke="transparent" points="8,-144.7 8,-163.7 86,-163.7 86,-144.7 8,-144.7"/>
<polygon fill="none" stroke="#000000" points="8,-144.7 8,-163.7 86,-163.7 86,-144.7 8,-144.7"/>
<polygon fill="#ffffff" stroke="transparent" points="9,-145.7 9,-162.7 32,-162.7 32,-145.7 9,-145.7"/>
<text text-anchor="start" x="11" y="-150.8" font-family="Helvetica,sans-Serif" font-size="11.00" fill="#000000"> &#160;</text>
<polygon fill="#ffffff" stroke="transparent" points="32,-145.7 32,-162.7 54,-162.7 54,-145.7 32,-145.7"/>
<text text-anchor="start" x="39.9431" y="-150.8" font-family="Helvetica,sans-Serif" font-size="11.00" fill="#000000"> &#160;</text>
<polygon fill="#ffffff" stroke="transparent" points="54,-145.7 54,-162.7 85,-162.7 85,-145.7 54,-145.7"/>
<text text-anchor="start" x="67.4053" y="-150.8" font-family="Helvetica,sans-Serif" font-size="11.00" fill="#000000">5 &gt;</text>
<polygon fill="#000000" stroke="#000000" points="32,-145.7 32,-162.7 32,-162.7 32,-145.7 32,-145.7"/>
<polygon fill="#000000" stroke="#000000" points="54,-145.7 54,-162.7 54,-162.7 54,-145.7 54,-145.7"/>
</a>
</g>
</g>
<!-- summaries&#45;&gt;users -->
<g id="edge5" class="edge">
<title>summaries:w&#45;&gt;users:e</title>
<path fill="none" stroke="#000000" d="M335.3631,-305.0324C246.9609,-309.0619 209.1469,-347.5713 127,-301.7 92.0467,-282.1819 70.1446,-240.3296 58.2716,-210.2103"/>
<polygon fill="#000000" stroke="#000000" points="342.0021,-304.8817 350.0818,-308.2991 346.001,-304.7909 350,-304.7 350,-304.7 350,-304.7 346.001,-304.7909 349.9182,-301.1009 342.0021,-304.8817 342.0021,-304.8817"/>
<ellipse fill="none" stroke="#000000" cx="338.8029" cy="-304.9544" rx="3.2" ry="3.2"/>
</g>
<!-- summary_groups -->
<g id="node6" class="node">
<title>summary_groups</title>
<g id="a_node6"><a xlink:href="../../tables/summary_groups.html" xlink:title="summary_groups" target="_top">
<polygon fill="#ffffff" stroke="transparent" points="135,-230.2 135,-291.2 299,-291.2 299,-230.2 135,-230.2"/>
<polygon fill="#f5f5f5" stroke="transparent" points="135,-267.7 135,-290.7 299,-290.7 299,-267.7 135,-267.7"/>
<polygon fill="none" stroke="#000000" points="135,-267.7 135,-290.7 299,-290.7 299,-267.7 135,-267.7"/>
<text text-anchor="start" x="140" y="-276.3" font-family="Helvetica,sans-Serif" font-weight="bold" font-size="11.00" fill="#000000">summary_groups</text>
<text text-anchor="start" x="264.5219" y="-275.8" font-family="Helvetica,sans-Serif" font-size="11.00" fill="#000000">[table]</text>
<polygon fill="none" stroke="#000000" points="135,-248.7 135,-267.7 299,-267.7 299,-248.7 135,-248.7"/>
<text text-anchor="start" x="138" y="-254.8" font-family="Helvetica,sans-Serif" font-size="11.00" fill="#000000">...</text>
<polygon fill="#ffffff" stroke="transparent" points="135,-229.7 135,-248.7 299,-248.7 299,-229.7 135,-229.7"/>
<polygon fill="none" stroke="#000000" points="135,-229.7 135,-248.7 299,-248.7 299,-229.7 135,-229.7"/>
<polygon fill="#ffffff" stroke="transparent" points="136,-230.7 136,-247.7 193,-247.7 193,-230.7 136,-230.7"/>
<text text-anchor="start" x="138" y="-235.8" font-family="Helvetica,sans-Serif" font-size="11.00" fill="#000000">&lt; 1</text>
<polygon fill="#ffffff" stroke="transparent" points="193,-230.7 193,-247.7 241,-247.7 241,-230.7 193,-230.7"/>
<text text-anchor="start" x="213.9431" y="-235.8" font-family="Helvetica,sans-Serif" font-size="11.00" fill="#000000"> &#160;</text>
<polygon fill="#ffffff" stroke="transparent" points="241,-230.7 241,-247.7 298,-247.7 298,-230.7 241,-230.7"/>
<text text-anchor="start" x="280.4053" y="-235.8" font-family="Helvetica,sans-Serif" font-size="11.00" fill="#000000">1 &gt;</text>
<polygon fill="#000000" stroke="#000000" points="193,-230.7 193,-247.7 193,-247.7 193,-230.7 193,-230.7"/>
<polygon fill="#000000" stroke="#000000" points="241,-230.7 241,-247.7 241,-247.7 241,-230.7 241,-230.7"/>
</a>
</g>
</g>
<!-- summaries&#45;&gt;summary_groups -->
<g id="edge4" class="edge">
<title>summaries:w&#45;&gt;summary_groups:e</title>
<path fill="none" stroke="#000000" d="M335.4715,-260.7C326.102,-260.7 316.5518,-260.7 307.1437,-260.7"/>
<polygon fill="#000000" stroke="#000000" points="342,-260.7001 350,-264.3 346,-260.7 350,-260.7 350,-260.7 350,-260.7 346,-260.7 350,-257.1 342,-260.7001 342,-260.7001"/>
<ellipse fill="none" stroke="#000000" cx="338.8" cy="-260.7001" rx="3.2" ry="3.2"/>
</g>
<!-- decisions -->
<g id="node3" class="node">
<title>decisions</title>
<g id="a_node3"><a xlink:href="../../tables/decisions.html" xlink:title="decisions" target="_top">
<polygon fill="#ffffff" stroke="transparent" points="695,-481.2 695,-586.2 804,-586.2 804,-481.2 695,-481.2"/>
<polygon fill="#f5f5f5" stroke="transparent" points="695.5,-562.7 695.5,-585.7 804.5,-585.7 804.5,-562.7 695.5,-562.7"/>
<polygon fill="none" stroke="#000000" points="695.5,-562.7 695.5,-585.7 804.5,-585.7 804.5,-562.7 695.5,-562.7"/>
<text text-anchor="start" x="700.5" y="-571.3" font-family="Helvetica,sans-Serif" font-weight="bold" font-size="11.00" fill="#000000">decisions</text>
<text text-anchor="start" x="769.5437" y="-570.8" font-family="Helvetica,sans-Serif" font-size="11.00" fill="#000000">[table]</text>
<polygon fill="none" stroke="#000000" points="695.5,-540.7 695.5,-562.7 804.5,-562.7 804.5,-540.7 695.5,-540.7"/>
<image xlink:href="../../images/primaryKeys.png" width="11px" height="12px" preserveAspectRatio="xMinYMin meet" x="700.5" y="-557.7"/>
<text text-anchor="start" x="715.5" y="-547.8" font-family="Helvetica,sans-Serif" font-size="11.00" fill="#000000">id</text>
<polygon fill="#ffffff" stroke="transparent" points="695.5,-518.7 695.5,-540.7 804.5,-540.7 804.5,-518.7 695.5,-518.7"/>
<polygon fill="none" stroke="#000000" points="695.5,-518.7 695.5,-540.7 804.5,-540.7 804.5,-518.7 695.5,-518.7"/>
<image xlink:href="../../images/foreignKeys.png" width="11px" height="12px" preserveAspectRatio="xMinYMin meet" x="700.5" y="-535.7"/>
<text text-anchor="start" x="715.5" y="-525.8" font-family="Helvetica,sans-Serif" font-size="11.00" fill="#000000">summary_id</text>
<polygon fill="none" stroke="#000000" points="695.5,-499.7 695.5,-518.7 804.5,-518.7 804.5,-499.7 695.5,-499.7"/>
<text text-anchor="start" x="698.5" y="-505.8" font-family="Helvetica,sans-Serif" font-size="11.00" fill="#000000">...</text>
<polygon fill="#ffffff" stroke="transparent" points="695.5,-480.7 695.5,-499.7 804.5,-499.7 804.5,-480.7 695.5,-480.7"/>
<polygon fill="none" stroke="#000000" points="695.5,-480.7 695.5,-499.7 804.5,-499.7 804.5,-480.7 695.5,-480.7"/>
<polygon fill="#ffffff" stroke="transparent" points="696.5,-481.7 696.5,-498.7 738.5,-498.7 738.5,-481.7 696.5,-481.7"/>
<text text-anchor="start" x="698.5" y="-486.8" font-family="Helvetica,sans-Serif" font-size="11.00" fill="#000000">&lt; 1</text>
<polygon fill="#ffffff" stroke="transparent" points="738.5,-481.7 738.5,-498.7 771.5,-498.7 771.5,-481.7 738.5,-481.7"/>
<text text-anchor="start" x="751.9431" y="-486.8" font-family="Helvetica,sans-Serif" font-size="11.00" fill="#000000"> &#160;</text>
<polygon fill="#ffffff" stroke="transparent" points="771.5,-481.7 771.5,-498.7 803.5,-498.7 803.5,-481.7 771.5,-481.7"/>
<text text-anchor="start" x="795.3862" y="-486.8" font-family="Helvetica,sans-Serif" font-size="11.00" fill="#000000"> &#160;</text>
<polygon fill="#000000" stroke="#000000" points="738.5,-481.7 738.5,-498.7 738.5,-498.7 738.5,-481.7 738.5,-481.7"/>
<polygon fill="#000000" stroke="#000000" points="771.5,-481.7 771.5,-498.7 771.5,-498.7 771.5,-481.7 771.5,-481.7"/>
</a>
</g>
</g>
<!-- decisions&#45;&gt;summaries -->
<g id="edge2" class="edge">
<title>decisions:w&#45;&gt;summaries:e</title>
<path fill="none" stroke="#000000" d="M681.2409,-527.0208C662.9933,-518.7271 664.4878,-492.7086 647,-470.7 627.4784,-446.1318 635.3798,-414.7 604,-414.7"/>
<polygon fill="#000000" stroke="#000000" points="687.6376,-528.2227 694.8352,-533.2381 691.5688,-528.9613 695.5,-529.7 695.5,-529.7 695.5,-529.7 691.5688,-528.9613 696.1648,-526.1619 687.6376,-528.2227 687.6376,-528.2227"/>
<ellipse fill="none" stroke="#000000" cx="684.4926" cy="-527.6317" rx="3.2" ry="3.2"/>
</g>
<!-- oauth_identities -->
<g id="node4" class="node">
<title>oauth_identities</title>
<g id="a_node4"><a xlink:href="../../tables/oauth_identities.html" xlink:title="oauth_identities" target="_top">
<polygon fill="#ffffff" stroke="transparent" points="138.5,-148.2 138.5,-209.2 295.5,-209.2 295.5,-148.2 138.5,-148.2"/>
<polygon fill="#f5f5f5" stroke="transparent" points="139,-185.7 139,-208.7 296,-208.7 296,-185.7 139,-185.7"/>
<polygon fill="none" stroke="#000000" points="139,-185.7 139,-208.7 296,-208.7 296,-185.7 139,-185.7"/>
<text text-anchor="start" x="144" y="-194.3" font-family="Helvetica,sans-Serif" font-weight="bold" font-size="11.00" fill="#000000">oauth_identities</text>
<text text-anchor="start" x="261.5219" y="-193.8" font-family="Helvetica,sans-Serif" font-size="11.00" fill="#000000">[table]</text>
<polygon fill="none" stroke="#000000" points="139,-166.7 139,-185.7 296,-185.7 296,-166.7 139,-166.7"/>
<text text-anchor="start" x="142" y="-172.8" font-family="Helvetica,sans-Serif" font-size="11.00" fill="#000000">...</text>
<polygon fill="#ffffff" stroke="transparent" points="139,-147.7 139,-166.7 296,-166.7 296,-147.7 139,-147.7"/>
<polygon fill="none" stroke="#000000" points="139,-147.7 139,-166.7 296,-166.7 296,-147.7 139,-147.7"/>
<polygon fill="#ffffff" stroke="transparent" points="140,-148.7 140,-165.7 198,-165.7 198,-148.7 140,-148.7"/>
<text text-anchor="start" x="142" y="-153.8" font-family="Helvetica,sans-Serif" font-size="11.00" fill="#000000">&lt; 1</text>
<polygon fill="#ffffff" stroke="transparent" points="198,-148.7 198,-165.7 247,-165.7 247,-148.7 198,-148.7"/>
<text text-anchor="start" x="219.4431" y="-153.8" font-family="Helvetica,sans-Serif" font-size="11.00" fill="#000000"> &#160;</text>
<polygon fill="#ffffff" stroke="transparent" points="247,-148.7 247,-165.7 295,-165.7 295,-148.7 247,-148.7"/>
<text text-anchor="start" x="286.8862" y="-153.8" font-family="Helvetica,sans-Serif" font-size="11.00" fill="#000000"> &#160;</text>
<polygon fill="#000000" stroke="#000000" points="198,-148.7 198,-165.7 198,-165.7 198,-148.7 198,-148.7"/>
<polygon fill="#000000" stroke="#000000" points="247,-148.7 247,-165.7 247,-165.7 247,-148.7 247,-148.7"/>
</a>
</g>
</g>
<!-- oauth_identities&#45;&gt;users -->
<g id="edge3" class="edge">
<title>oauth_identities:w&#45;&gt;users:e</title>
<path fill="none" stroke="#000000" d="M124.3725,-175.7C114.2368,-175.7 103.926,-175.7 94.2757,-175.7"/>
<polygon fill="#000000" stroke="#000000" points="131,-175.7001 139,-179.3 135,-175.7 139,-175.7 139,-175.7 139,-175.7 135,-175.7 139,-172.1 131,-175.7001 131,-175.7001"/>
<ellipse fill="none" stroke="#000000" cx="127.8" cy="-175.7001" rx="3.2" ry="3.2"/>
</g>
<!-- summary_groups&#45;&gt;users -->
<g id="edge6" class="edge">
<title>summary_groups:w&#45;&gt;users:e</title>
<path fill="none" stroke="#000000" d="M127.4032,-219.9022C127.2687,-219.8348 127.1343,-219.7674 127,-219.7 116.2332,-214.2963 104.8084,-208.2231 94.0652,-202.3542"/>
<polygon fill="#000000" stroke="#000000" points="133.0384,-222.6695 138.6324,-229.4272 136.6288,-224.4326 140.2193,-226.1958 140.2193,-226.1958 140.2193,-226.1958 136.6288,-224.4326 141.8061,-222.9644 133.0384,-222.6695 133.0384,-222.6695"/>
<ellipse fill="none" stroke="#000000" cx="130.166" cy="-221.2589" rx="3.2" ry="3.2"/>
</g>
<!-- topics -->
<g id="node7" class="node">
<title>topics</title>
<g id="a_node7"><a xlink:href="../../tables/topics.html" xlink:title="topics" target="_top">
<polygon fill="#ffffff" stroke="transparent" points="695,-355.2 695,-460.2 804,-460.2 804,-355.2 695,-355.2"/>
<polygon fill="#f5f5f5" stroke="transparent" points="695.5,-436.7 695.5,-459.7 804.5,-459.7 804.5,-436.7 695.5,-436.7"/>
<polygon fill="none" stroke="#000000" points="695.5,-436.7 695.5,-459.7 804.5,-459.7 804.5,-436.7 695.5,-436.7"/>
<text text-anchor="start" x="700.5" y="-445.3" font-family="Helvetica,sans-Serif" font-weight="bold" font-size="11.00" fill="#000000">topics</text>
<text text-anchor="start" x="769.5437" y="-444.8" font-family="Helvetica,sans-Serif" font-size="11.00" fill="#000000">[table]</text>
<polygon fill="none" stroke="#000000" points="695.5,-414.7 695.5,-436.7 804.5,-436.7 804.5,-414.7 695.5,-414.7"/>
<image xlink:href="../../images/primaryKeys.png" width="11px" height="12px" preserveAspectRatio="xMinYMin meet" x="700.5" y="-431.7"/>
<text text-anchor="start" x="715.5" y="-421.8" font-family="Helvetica,sans-Serif" font-size="11.00" fill="#000000">id</text>
<polygon fill="#ffffff" stroke="transparent" points="695.5,-392.7 695.5,-414.7 804.5,-414.7 804.5,-392.7 695.5,-392.7"/>
<polygon fill="none" stroke="#000000" points="695.5,-392.7 695.5,-414.7 804.5,-414.7 804.5,-392.7 695.5,-392.7"/>
<image xlink:href="../../images/foreignKeys.png" width="11px" height="12px" preserveAspectRatio="xMinYMin meet" x="700.5" y="-409.7"/>
<text text-anchor="start" x="715.5" y="-399.8" font-family="Helvetica,sans-Serif" font-size="11.00" fill="#000000">summary_id</text>
<polygon fill="none" stroke="#000000" points="695.5,-373.7 695.5,-392.7 804.5,-392.7 804.5,-373.7 695.5,-373.7"/>
<text text-anchor="start" x="698.5" y="-379.8" font-family="Helvetica,sans-Serif" font-size="11.00" fill="#000000">...</text>
<polygon fill="#ffffff" stroke="transparent" points="695.5,-354.7 695.5,-373.7 804.5,-373.7 804.5,-354.7 695.5,-354.7"/>
<polygon fill="none" stroke="#000000" points="695.5,-354.7 695.5,-373.7 804.5,-373.7 804.5,-354.7 695.5,-354.7"/>
<polygon fill="#ffffff" stroke="transparent" points="696.5,-355.7 696.5,-372.7 738.5,-372.7 738.5,-355.7 696.5,-355.7"/>
<text text-anchor="start" x="698.5" y="-360.8" font-family="Helvetica,sans-Serif" font-size="11.00" fill="#000000">&lt; 1</text>
<polygon fill="#ffffff" stroke="transparent" points="738.5,-355.7 738.5,-372.7 771.5,-372.7 771.5,-355.7 738.5,-355.7"/>
<text text-anchor="start" x="751.9431" y="-360.8" font-family="Helvetica,sans-Serif" font-size="11.00" fill="#000000"> &#160;</text>
<polygon fill="#ffffff" stroke="transparent" points="771.5,-355.7 771.5,-372.7 803.5,-372.7 803.5,-355.7 771.5,-355.7"/>
<text text-anchor="start" x="795.3862" y="-360.8" font-family="Helvetica,sans-Serif" font-size="11.00" fill="#000000"> &#160;</text>
<polygon fill="#000000" stroke="#000000" points="738.5,-355.7 738.5,-372.7 738.5,-372.7 738.5,-355.7 738.5,-355.7"/>
<polygon fill="#000000" stroke="#000000" points="771.5,-355.7 771.5,-372.7 771.5,-372.7 771.5,-355.7 771.5,-355.7"/>
</a>
</g>
</g>
<!-- topics&#45;&gt;summaries -->
<g id="edge7" class="edge">
<title>topics:w&#45;&gt;summaries:e</title>
<path fill="none" stroke="#000000" d="M681.09,-404.2012C651.549,-406.3532 639.6795,-414.7 604,-414.7"/>
<polygon fill="#000000" stroke="#000000" points="687.5048,-403.9782 695.6252,-407.2978 691.5024,-403.8391 695.5,-403.7 695.5,-403.7 695.5,-403.7 691.5024,-403.8391 695.3748,-400.1022 687.5048,-403.9782 687.5048,-403.9782"/>
<ellipse fill="none" stroke="#000000" cx="684.3068" cy="-404.0894" rx="3.2" ry="3.2"/>
</g>
<!-- transcript_segments -->
<g id="node8" class="node">
<title>transcript_segments</title>
<g id="a_node8"><a xlink:href="../../tables/transcript_segments.html" xlink:title="transcript_segments" target="_top">
<polygon fill="#ffffff" stroke="transparent" points="655,-207.2 655,-334.2 844,-334.2 844,-207.2 655,-207.2"/>
<polygon fill="#f5f5f5" stroke="transparent" points="655.5,-310.7 655.5,-333.7 844.5,-333.7 844.5,-310.7 655.5,-310.7"/>
<polygon fill="none" stroke="#000000" points="655.5,-310.7 655.5,-333.7 844.5,-333.7 844.5,-310.7 655.5,-310.7"/>
<text text-anchor="start" x="660.5" y="-319.3" font-family="Helvetica,sans-Serif" font-weight="bold" font-size="11.00" fill="#000000">transcript_segments</text>
<text text-anchor="start" x="810.0219" y="-318.8" font-family="Helvetica,sans-Serif" font-size="11.00" fill="#000000">[table]</text>
<polygon fill="none" stroke="#000000" points="655.5,-288.7 655.5,-310.7 844.5,-310.7 844.5,-288.7 655.5,-288.7"/>
<image xlink:href="../../images/primaryKeys.png" width="11px" height="12px" preserveAspectRatio="xMinYMin meet" x="660.5" y="-305.7"/>
<text text-anchor="start" x="684.5" y="-295.8" font-family="Helvetica,sans-Serif" font-size="11.00" fill="#000000">id</text>
<polygon fill="#ffffff" stroke="transparent" points="655.5,-266.7 655.5,-288.7 844.5,-288.7 844.5,-266.7 655.5,-266.7"/>
<polygon fill="none" stroke="#000000" points="655.5,-266.7 655.5,-288.7 844.5,-288.7 844.5,-266.7 655.5,-266.7"/>
<image xlink:href="../../images/foreignKeys.png" width="11px" height="12px" preserveAspectRatio="xMinYMin meet" x="660.5" y="-283.7"/>
<text text-anchor="start" x="684.5" y="-273.8" font-family="Helvetica,sans-Serif" font-size="11.00" fill="#000000">summary_id</text>
<polygon fill="#ffffff" stroke="transparent" points="655.5,-244.7 655.5,-266.7 844.5,-266.7 844.5,-244.7 655.5,-244.7"/>
<polygon fill="none" stroke="#000000" points="655.5,-244.7 655.5,-266.7 844.5,-266.7 844.5,-244.7 655.5,-244.7"/>
<text text-anchor="start" x="684.5" y="-251.8" font-family="Helvetica,sans-Serif" font-size="11.00" fill="#000000">rank</text>
<polygon fill="none" stroke="#000000" points="655.5,-225.7 655.5,-244.7 844.5,-244.7 844.5,-225.7 655.5,-225.7"/>
<text text-anchor="start" x="658.5" y="-231.8" font-family="Helvetica,sans-Serif" font-size="11.00" fill="#000000">...</text>
<polygon fill="#ffffff" stroke="transparent" points="655.5,-206.7 655.5,-225.7 844.5,-225.7 844.5,-206.7 655.5,-206.7"/>
<polygon fill="none" stroke="#000000" points="655.5,-206.7 655.5,-225.7 844.5,-225.7 844.5,-206.7 655.5,-206.7"/>
<polygon fill="#ffffff" stroke="transparent" points="656.5,-207.7 656.5,-224.7 725.5,-224.7 725.5,-207.7 656.5,-207.7"/>
<text text-anchor="start" x="658.5" y="-212.8" font-family="Helvetica,sans-Serif" font-size="11.00" fill="#000000">&lt; 1</text>
<polygon fill="#ffffff" stroke="transparent" points="725.5,-207.7 725.5,-224.7 784.5,-224.7 784.5,-207.7 725.5,-207.7"/>
<text text-anchor="start" x="751.9431" y="-212.8" font-family="Helvetica,sans-Serif" font-size="11.00" fill="#000000"> &#160;</text>
<polygon fill="#ffffff" stroke="transparent" points="784.5,-207.7 784.5,-224.7 843.5,-224.7 843.5,-207.7 784.5,-207.7"/>
<text text-anchor="start" x="835.3862" y="-212.8" font-family="Helvetica,sans-Serif" font-size="11.00" fill="#000000"> &#160;</text>
<polygon fill="#000000" stroke="#000000" points="725.5,-207.7 725.5,-224.7 725.5,-224.7 725.5,-207.7 725.5,-207.7"/>
<polygon fill="#000000" stroke="#000000" points="784.5,-207.7 784.5,-224.7 784.5,-224.7 784.5,-207.7 784.5,-207.7"/>
</a>
</g>
</g>
<!-- transcript_segments&#45;&gt;summaries -->
<g id="edge8" class="edge">
<title>transcript_segments:w&#45;&gt;summaries:e</title>
<path fill="none" stroke="#000000" d="M641.2374,-280.8188C603.4146,-301.2113 663.2047,-414.7 604,-414.7"/>
<polygon fill="#000000" stroke="#000000" points="647.6847,-279.409 656.2691,-281.2169 651.5923,-278.5545 655.5,-277.7 655.5,-277.7 655.5,-277.7 651.5923,-278.5545 654.7309,-274.1831 647.6847,-279.409 647.6847,-279.409"/>
<ellipse fill="none" stroke="#000000" cx="644.5585" cy="-280.0927" rx="3.2" ry="3.2"/>
</g>
<!-- transcription_jobs -->
<g id="node9" class="node">
<title>transcription_jobs</title>
<g id="a_node9"><a xlink:href="../../tables/transcription_jobs.html" xlink:title="transcription_jobs" target="_top">
<polygon fill="#ffffff" stroke="transparent" points="664,-114.2 664,-175.2 835,-175.2 835,-114.2 664,-114.2"/>
<polygon fill="#f5f5f5" stroke="transparent" points="664.5,-151.7 664.5,-174.7 835.5,-174.7 835.5,-151.7 664.5,-151.7"/>
<polygon fill="none" stroke="#000000" points="664.5,-151.7 664.5,-174.7 835.5,-174.7 835.5,-151.7 664.5,-151.7"/>
<text text-anchor="start" x="669.5" y="-160.3" font-family="Helvetica,sans-Serif" font-weight="bold" font-size="11.00" fill="#000000">transcription_jobs</text>
<text text-anchor="start" x="801.0219" y="-159.8" font-family="Helvetica,sans-Serif" font-size="11.00" fill="#000000">[table]</text>
<polygon fill="none" stroke="#000000" points="664.5,-132.7 664.5,-151.7 835.5,-151.7 835.5,-132.7 664.5,-132.7"/>
<text text-anchor="start" x="667.5" y="-138.8" font-family="Helvetica,sans-Serif" font-size="11.00" fill="#000000">...</text>
<polygon fill="#ffffff" stroke="transparent" points="664.5,-113.7 664.5,-132.7 835.5,-132.7 835.5,-113.7 664.5,-113.7"/>
<polygon fill="none" stroke="#000000" points="664.5,-113.7 664.5,-132.7 835.5,-132.7 835.5,-113.7 664.5,-113.7"/>
<polygon fill="#ffffff" stroke="transparent" points="665.5,-114.7 665.5,-131.7 728.5,-131.7 728.5,-114.7 665.5,-114.7"/>
<text text-anchor="start" x="667.5" y="-119.8" font-family="Helvetica,sans-Serif" font-size="11.00" fill="#000000">&lt; 2</text>
<polygon fill="#ffffff" stroke="transparent" points="728.5,-114.7 728.5,-131.7 781.5,-131.7 781.5,-114.7 728.5,-114.7"/>
<text text-anchor="start" x="751.9431" y="-119.8" font-family="Helvetica,sans-Serif" font-size="11.00" fill="#000000"> &#160;</text>
<polygon fill="#ffffff" stroke="transparent" points="781.5,-114.7 781.5,-131.7 834.5,-131.7 834.5,-114.7 781.5,-114.7"/>
<text text-anchor="start" x="826.3862" y="-119.8" font-family="Helvetica,sans-Serif" font-size="11.00" fill="#000000"> &#160;</text>
<polygon fill="#000000" stroke="#000000" points="728.5,-114.7 728.5,-131.7 728.5,-131.7 728.5,-114.7 728.5,-114.7"/>
<polygon fill="#000000" stroke="#000000" points="781.5,-114.7 781.5,-131.7 781.5,-131.7 781.5,-114.7 781.5,-114.7"/>
</a>
</g>
</g>
<!-- transcription_jobs&#45;&gt;summaries -->
<g id="edge9" class="edge">
<title>transcription_jobs:w&#45;&gt;summaries:e</title>
<path fill="none" stroke="#000000" d="M653.5061,-189.1196C651.1852,-191.525 649.0062,-194.0502 647,-196.7 587.3894,-275.4354 702.7557,-414.7 604,-414.7"/>
<polygon fill="#000000" stroke="#000000" points="658.5231,-184.6472 666.8903,-182.0111 661.5089,-181.9855 664.4948,-179.3238 664.4948,-179.3238 664.4948,-179.3238 661.5089,-181.9855 662.0992,-176.6365 658.5231,-184.6472 658.5231,-184.6472"/>
<ellipse fill="none" stroke="#000000" cx="656.1344" cy="-186.7766" rx="3.2" ry="3.2"/>
</g>
<!-- transcription_jobs&#45;&gt;users -->
<g id="edge10" class="edge">
<title>transcription_jobs:w&#45;&gt;users:e</title>
<path fill="none" stroke="#000000" d="M641.3237,-128.5262C515.886,-113.1916 303.7215,-97.8616 127,-137.7 116.0502,-140.1684 104.8401,-144.319 94.4085,-148.9917"/>
<polygon fill="#000000" stroke="#000000" points="647.8702,-129.3478 655.3596,-133.9162 651.8391,-129.846 655.8079,-130.3442 655.8079,-130.3442 655.8079,-130.3442 651.8391,-129.846 656.2563,-126.7723 647.8702,-129.3478 647.8702,-129.3478"/>
<ellipse fill="none" stroke="#000000" cx="644.6951" cy="-128.9493" rx="3.2" ry="3.2"/>
</g>
<!-- user_sessions -->
<g id="node10" class="node">
<title>user_sessions</title>
<g id="a_node10"><a xlink:href="../../tables/user_sessions.html" xlink:title="user_sessions" target="_top">
<polygon fill="#ffffff" stroke="transparent" points="147,-38.2 147,-99.2 287,-99.2 287,-38.2 147,-38.2"/>
<polygon fill="#f5f5f5" stroke="transparent" points="147,-75.7 147,-98.7 287,-98.7 287,-75.7 147,-75.7"/>
<polygon fill="none" stroke="#000000" points="147,-75.7 147,-98.7 287,-98.7 287,-75.7 147,-75.7"/>
<text text-anchor="start" x="152" y="-84.3" font-family="Helvetica,sans-Serif" font-weight="bold" font-size="11.00" fill="#000000">user_sessions</text>
<text text-anchor="start" x="252.5219" y="-83.8" font-family="Helvetica,sans-Serif" font-size="11.00" fill="#000000">[table]</text>
<polygon fill="none" stroke="#000000" points="147,-56.7 147,-75.7 287,-75.7 287,-56.7 147,-56.7"/>
<text text-anchor="start" x="150" y="-62.8" font-family="Helvetica,sans-Serif" font-size="11.00" fill="#000000">...</text>
<polygon fill="#ffffff" stroke="transparent" points="147,-37.7 147,-56.7 287,-56.7 287,-37.7 147,-37.7"/>
<polygon fill="none" stroke="#000000" points="147,-37.7 147,-56.7 287,-56.7 287,-37.7 147,-37.7"/>
<polygon fill="#ffffff" stroke="transparent" points="148,-38.7 148,-55.7 200,-55.7 200,-38.7 148,-38.7"/>
<text text-anchor="start" x="150" y="-43.8" font-family="Helvetica,sans-Serif" font-size="11.00" fill="#000000">&lt; 1</text>
<polygon fill="#ffffff" stroke="transparent" points="200,-38.7 200,-55.7 243,-55.7 243,-38.7 200,-38.7"/>
<text text-anchor="start" x="218.4431" y="-43.8" font-family="Helvetica,sans-Serif" font-size="11.00" fill="#000000"> &#160;</text>
<polygon fill="#ffffff" stroke="transparent" points="243,-38.7 243,-55.7 286,-55.7 286,-38.7 243,-38.7"/>
<text text-anchor="start" x="277.8862" y="-43.8" font-family="Helvetica,sans-Serif" font-size="11.00" fill="#000000"> &#160;</text>
<polygon fill="#000000" stroke="#000000" points="200,-38.7 200,-55.7 200,-55.7 200,-38.7 200,-38.7"/>
<polygon fill="#000000" stroke="#000000" points="243,-38.7 243,-55.7 243,-55.7 243,-38.7 243,-38.7"/>
</a>
</g>
</g>
<!-- user_sessions&#45;&gt;users -->
<g id="edge11" class="edge">
<title>user_sessions:w&#45;&gt;users:e</title>
<path fill="none" stroke="#000000" d="M132.5081,-67.5058C98.7956,-76.0107 74.8841,-112.8441 61.0722,-141.1971"/>
<polygon fill="#000000" stroke="#000000" points="139.0614,-66.6893 147.4452,-69.2724 143.0307,-66.1946 147,-65.7 147,-65.7 147,-65.7 143.0307,-66.1946 146.5548,-62.1276 139.0614,-66.6893 139.0614,-66.6893"/>
<ellipse fill="none" stroke="#000000" cx="135.886" cy="-67.085" rx="3.2" ry="3.2"/>
</g>
</g>
</svg>
