<?xml version="1.0" encoding="UTF-8" standalone="no"?>
<!DOCTYPE svg PUBLIC "-//W3C//DTD SVG 1.1//EN"
 "http://www.w3.org/Graphics/SVG/1.1/DTD/svg11.dtd">
<!-- Generated by graphviz version 2.40.1 (20161225.0304)
 -->
<!-- Title: twoDegreesRelationshipsDiagram Pages: 1 -->
<svg width="801pt" height="528pt"
 viewBox="0.00 0.00 801.00 528.20" xmlns="http://www.w3.org/2000/svg" xmlns:xlink="http://www.w3.org/1999/xlink">
<g id="graph0" class="graph" transform="scale(1 1) rotate(0) translate(4 524.2)">
<title>twoDegreesRelationshipsDiagram</title>
<polygon fill="#ffffff" stroke="transparent" points="-4,4 -4,-524.2 797,-524.2 797,4 -4,4"/>
<text text-anchor="middle" x="72.4936" y="-7.3" font-family="Helvetica,sans-Serif" font-size="11.00" fill="#000000">Generated by SchemaSpy</text>
<!-- action_items -->
<g id="node1" class="node">
<title>action_items</title>
<g id="a_node1"><a xlink:href="../../tables/action_items.html" xlink:title="action_items" target="_top">
<polygon fill="#ffffff" stroke="transparent" points="625,-455.2 625,-516.2 756,-516.2 756,-455.2 625,-455.2"/>
<polygon fill="#f5f5f5" stroke="transparent" points="625.5,-492.7 625.5,-515.7 756.5,-515.7 756.5,-492.7 625.5,-492.7"/>
<polygon fill="none" stroke="#000000" points="625.5,-492.7 625.5,-515.7 756.5,-515.7 756.5,-492.7 625.5,-492.7"/>
<text text-anchor="start" x="630.5" y="-501.3" font-family="Helvetica,sans-Serif" font-weight="bold" font-size="11.00" fill="#000000">action_items</text>
<text text-anchor="start" x="722.0219" y="-500.8" font-family="Helvetica,sans-Serif" font-size="11.00" fill="#000000">[table]</text>
<polygon fill="none" stroke="#000000" points="625.5,-473.7 625.5,-492.7 756.5,-492.7 756.5,-473.7 625.5,-473.7"/>
<text text-anchor="start" x="628.5" y="-479.8" font-family="Helvetica,sans-Serif" font-size="11.00" fill="#000000">...</text>
<polygon fill="#ffffff" stroke="transparent" points="625.5,-454.7 625.5,-473.7 756.5,-473.7 756.5,-454.7 625.5,-454.7"/>
<polygon fill="none" stroke="#000000" points="625.5,-454.7 625.5,-473.7 756.5,-473.7 756.5,-454.7 625.5,-454.7"/>
<polygon fill="#ffffff" stroke="transparent" points="626.5,-455.7 626.5,-472.7 675.5,-472.7 675.5,-455.7 626.5,-455.7"/>
<text text-anchor="start" x="628.5" y="-460.8" font-family="Helvetica,sans-Serif" font-size="11.00" fill="#000000">&lt; 1</text>
<polygon fill="#ffffff" stroke="transparent" points="675.5,-455.7 675.5,-472.7 715.5,-472.7 715.5,-455.7 675.5,-455.7"/>
<text text-anchor="start" x="692.4431" y="-460.8" font-family="Helvetica,sans-Serif" font-size="11.00" fill="#000000"> &#160;</text>
<polygon fill="#ffffff" stroke="transparent" points="715.5,-455.7 715.5,-472.7 755.5,-472.7 755.5,-455.7 715.5,-455.7"/>
<text text-anchor="start" x="747.3862" y="-460.8" font-family="Helvetica,sans-Serif" font-size="11.00" fill="#000000"> &#160;</text>
<polygon fill="#000000" stroke="#000000" points="675.5,-455.7 675.5,-472.7 675.5,-472.7 675.5,-455.7 675.5,-455.7"/>
<polygon fill="#000000" stroke="#000000" points="715.5,-455.7 715.5,-472.7 715.5,-472.7 715.5,-455.7 715.5,-455.7"/>
</a>
</g>
</g>
<!-- summaries -->
<g id="node2" class="node">
<title>summaries</title>
<g id="a_node2"><a xlink:href="../../tables/summaries.html" xlink:title="summaries" target="_top">
<polygon fill="#ffffff" stroke="transparent" points="428,-298.2 428,-359.2 547,-359.2 547,-298.2 428,-298.2"/>
<polygon fill="#f5f5f5" stroke="transparent" points="428.5,-335.7 428.5,-358.7 547.5,-358.7 547.5,-335.7 428.5,-335.7"/>
<polygon fill="none" stroke="#000000" points="428.5,-335.7 428.5,-358.7 547.5,-358.7 547.5,-335.7 428.5,-335.7"/>
<text text-anchor="start" x="433.5" y="-344.3" font-family="Helvetica,sans-Serif" font-weight="bold" font-size="11.00" fill="#000000">summaries</text>
<text text-anchor="start" x="513.0219" y="-343.8" font-family="Helvetica,sans-Serif" font-size="11.00" fill="#000000">[table]</text>
<polygon fill="none" stroke="#000000" points="428.5,-316.7 428.5,-335.7 547.5,-335.7 547.5,-316.7 428.5,-316.7"/>
<text text-anchor="start" x="431.5" y="-322.8" font-family="Helvetica,sans-Serif" font-size="11.00" fill="#000000">...</text>
<polygon fill="#ffffff" stroke="transparent" points="428.5,-297.7 428.5,-316.7 547.5,-316.7 547.5,-297.7 428.5,-297.7"/>
<polygon fill="none" stroke="#000000" points="428.5,-297.7 428.5,-316.7 547.5,-316.7 547.5,-297.7 428.5,-297.7"/>
<polygon fill="#ffffff" stroke="transparent" points="429.5,-298.7 429.5,-315.7 471.5,-315.7 471.5,-298.7 429.5,-298.7"/>
<text text-anchor="start" x="431.5" y="-303.8" font-family="Helvetica,sans-Serif" font-size="11.00" fill="#000000">&lt; 2</text>
<polygon fill="#ffffff" stroke="transparent" points="471.5,-298.7 471.5,-315.7 504.5,-315.7 504.5,-298.7 471.5,-298.7"/>
<text text-anchor="start" x="484.9431" y="-303.8" font-family="Helvetica,sans-Serif" font-size="11.00" fill="#000000"> &#160;</text>
<polygon fill="#ffffff" stroke="transparent" points="504.5,-298.7 504.5,-315.7 546.5,-315.7 546.5,-298.7 504.5,-298.7"/>
<text text-anchor="start" x="528.9053" y="-303.8" font-family="Helvetica,sans-Serif" font-size="11.00" fill="#000000">5 &gt;</text>
<polygon fill="#000000" stroke="#000000" points="471.5,-298.7 471.5,-315.7 471.5,-315.7 471.5,-298.7 471.5,-298.7"/>
<polygon fill="#000000" stroke="#000000" points="504.5,-298.7 504.5,-315.7 504.5,-315.7 504.5,-298.7 504.5,-298.7"/>
</a>
</g>
</g>
<!-- action_items&#45;&gt;summaries -->
<g id="edge1" class="edge">
<title>action_items:w&#45;&gt;summaries:e</title>
<path fill="none" stroke="#000000" d="M610.9683,-481.3933C555.3965,-471.3068 518.547,-405.1177 500.4946,-363.2606"/>
<polygon fill="#000000" stroke="#000000" points="617.5321,-481.9835 625.1776,-486.2855 621.5161,-482.3417 625.5,-482.7 625.5,-482.7 625.5,-482.7 621.5161,-482.3417 625.8224,-479.1145 617.5321,-481.9835 617.5321,-481.9835"/>
<ellipse fill="none" stroke="#000000" cx="614.345" cy="-481.6969" rx="3.2" ry="3.2"/>
</g>
<!-- users -->
<g id="node5" class="node">
<title>users</title>
<g id="a_node5"><a xlink:href="../../tables/users.html" xlink:title="users" target="_top">
<polygon fill="#ffffff" stroke="transparent" points="8,-145.2 8,-206.2 86,-206.2 86,-145.2 8,-145.2"/>
<polygon fill="#f5f5f5" stroke="transparent" points="8,-182.7 8,-205.7 86,-205.7 86,-182.7 8,-182.7"/>
<polygon fill="none" stroke="#000000" points="8,-182.7 8,-205.7 86,-205.7 86,-182.7 8,-182.7"/>
<text text-anchor="start" x="13" y="-191.3" font-family="Helvetica,sans-Serif" font-weight="bold" font-size="11.00" fill="#000000">users</text>
<text text-anchor="start" x="51.5219" y="-190.8" font-family="Helvetica,sans-Serif" font-size="11.00" fill="#000000">[table]</text>
<polygon fill="none" stroke="#000000" points="8,-163.7 8,-182.7 86,-182.7 86,-163.7 8,-163.7"/>
<text text-anchor="start" x="11" y="-169.8" font-family="Helvetica,sans-Serif" font-size="11.00" fill="#000000">...</text>
<polygon fill="#ffffff" stroke="transparent" points="8,-144.7 8,-163.7 86,-163.7 86,-144.7 8,-144.7"/>
<polygon fill="none" stroke="#000000" points="8,-144.7 8,-163.7 86,-163.7 86,-144.7 8,-144.7"/>
<polygon fill="#ffffff" stroke="transparent" points="9,-145.7 9,-162.7 32,-162.7 32,-145.7 9,-145.7"/>
<text text-anchor="start" x="11" y="-150.8" font-family="Helvetica,sans-Serif" font-size="11.00" fill="#000000"> &#160;</text>
<polygon fill="#ffffff" stroke="transparent" points="32,-145.7 32,-162.7 54,-162.7 54,-145.7 32,-145.7"/>
<text text-anchor="start" x="39.9431" y="-150.8" font-family="Helvetica,sans-Serif" font-size="11.00" fill="#000000"> &#160;</text>
<polygon fill="#ffffff" stroke="transparent" points="54,-145.7 54,-162.7 85,-162.7 85,-145.7 54,-145.7"/>
<text text-anchor="start" x="67.4053" y="-150.8" font-family="Helvetica,sans-Serif" font-size="11.00" fill="#000000">5 &gt;</text>
<polygon fill="#000000" stroke="#000000" points="32,-145.7 32,-162.7 32,-162.7 32,-145.7 32,-145.7"/>
<polygon fill="#000000" stroke="#000000" points="54,-145.7 54,-162.7 54,-162.7 54,-145.7 54,-145.7"/>
</a>
</g>
</g>
<!-- summaries&#45;&gt;users -->
<g id="edge5" class="edge">
<title>summaries:w&#45;&gt;users:e</title>
<path fill="none" stroke="#000000" d="M406.132,-368.5181C327.917,-400.5037 209.7081,-431.6961 127,-375.7 72.188,-338.5905 54.9273,-257.188 49.494,-210.4813"/>
<polygon fill="#000000" stroke="#000000" points="412.4001,-365.8752 421.1703,-366.084 416.0858,-364.321 419.7716,-362.7669 419.7716,-362.7669 419.7716,-362.7669 416.0858,-364.321 418.3728,-359.4497 412.4001,-365.8752 412.4001,-365.8752"/>
<ellipse fill="none" stroke="#000000" cx="409.4515" cy="-367.1185" rx="3.2" ry="3.2"/>
</g>
<!-- summary_groups -->
<g id="node6" class="node">
<title>summary_groups</title>
<g id="a_node6"><a xlink:href="../../tables/summary_groups.html" xlink:title="summary_groups" target="_top">
<polygon fill="#ffffff" stroke="transparent" points="135,-230.7 135,-364.7 379,-364.7 379,-230.7 135,-230.7"/>
<polygon fill="#f5f5f5" stroke="transparent" points="137,-339.7 137,-362.7 377,-362.7 377,-339.7 137,-339.7"/>
<polygon fill="none" stroke="#000000" points="137,-339.7 137,-362.7 377,-362.7 377,-339.7 137,-339.7"/>
<text text-anchor="start" x="142" y="-348.3" font-family="Helvetica,sans-Serif" font-weight="bold" font-size="11.00" fill="#000000">summary_groups</text>
<text text-anchor="start" x="342.0437" y="-347.8" font-family="Helvetica,sans-Serif" font-size="11.00" fill="#000000">[table]</text>
<polygon fill="none" stroke="#000000" points="137,-317.7 137,-339.7 283,-339.7 283,-317.7 137,-317.7"/>
<image xlink:href="../../images/primaryKeys.png" width="11px" height="12px" preserveAspectRatio="xMinYMin meet" x="142" y="-334.7"/>
<text text-anchor="start" x="157" y="-324.8" font-family="Helvetica,sans-Serif" font-size="11.00" fill="#000000">id</text>
<polygon fill="none" stroke="#000000" points="283,-317.7 283,-339.7 377,-339.7 377,-317.7 283,-317.7"/>
<text text-anchor="start" x="285.9758" y="-325.4" font-family="Helvetica,sans-Serif" font-size="11.00" fill="#000000">uuid[2147483647]</text>
<polygon fill="#ffffff" stroke="transparent" points="137,-295.7 137,-317.7 283,-317.7 283,-295.7 137,-295.7"/>
<polygon fill="none" stroke="#000000" points="137,-295.7 137,-317.7 283,-317.7 283,-295.7 137,-295.7"/>
<image xlink:href="../../images/foreignKeys.png" width="11px" height="12px" preserveAspectRatio="xMinYMin meet" x="142" y="-312.7"/>
<text text-anchor="start" x="157" y="-302.8" font-family="Helvetica,sans-Serif" font-size="11.00" fill="#000000">user_id</text>
<polygon fill="none" stroke="#000000" points="283,-295.7 283,-317.7 377,-317.7 377,-295.7 283,-295.7"/>
<text text-anchor="start" x="285.9758" y="-303.4" font-family="Helvetica,sans-Serif" font-size="11.00" fill="#000000">uuid[2147483647]</text>
<polygon fill="#ffffff" stroke="transparent" points="137,-273.7 137,-295.7 283,-295.7 283,-273.7 137,-273.7"/>
<polygon fill="none" stroke="#000000" points="137,-273.7 137,-295.7 283,-295.7 283,-273.7 137,-273.7"/>
<text text-anchor="start" x="157" y="-280.8" font-family="Helvetica,sans-Serif" font-size="11.00" fill="#000000">name</text>
<polygon fill="none" stroke="#000000" points="283,-273.7 283,-295.7 377,-295.7 377,-273.7 283,-273.7"/>
<text text-anchor="start" x="286" y="-281.4" font-family="Helvetica,sans-Serif" font-size="11.00" fill="#000000">varchar[255]</text>
<polygon fill="none" stroke="#000000" points="137,-251.7 137,-273.7 283,-273.7 283,-251.7 137,-251.7"/>
<text text-anchor="start" x="157" y="-258.8" font-family="Helvetica,sans-Serif" font-size="11.00" fill="#000000">created_at</text>
<polygon fill="none" stroke="#000000" points="283,-251.7 283,-273.7 377,-273.7 377,-251.7 283,-251.7"/>
<text text-anchor="start" x="286" y="-259.4" font-family="Helvetica,sans-Serif" font-size="11.00" fill="#000000">timestamptz[35,6]</text>
<polygon fill="#ffffff" stroke="transparent" points="137,-232.7 137,-251.7 377,-251.7 377,-232.7 137,-232.7"/>
<polygon fill="none" stroke="#000000" points="137,-232.7 137,-251.7 377,-251.7 377,-232.7 137,-232.7"/>
<polygon fill="#ffffff" stroke="transparent" points="138,-233.7 138,-250.7 221,-250.7 221,-233.7 138,-233.7"/>
<text text-anchor="start" x="140" y="-238.8" font-family="Helvetica,sans-Serif" font-size="11.00" fill="#000000">&lt; 1</text>
<polygon fill="#ffffff" stroke="transparent" points="221,-233.7 221,-250.7 294,-250.7 294,-233.7 221,-233.7"/>
<text text-anchor="start" x="254.4431" y="-238.8" font-family="Helvetica,sans-Serif" font-size="11.00" fill="#000000"> &#160;</text>
<polygon fill="#ffffff" stroke="transparent" points="294,-233.7 294,-250.7 376,-250.7 376,-233.7 294,-233.7"/>
<text text-anchor="start" x="358.4053" y="-238.8" font-family="Helvetica,sans-Serif" font-size="11.00" fill="#000000">1 &gt;</text>
<polygon fill="#000000" stroke="#000000" points="221,-233.7 221,-250.7 221,-250.7 221,-233.7 221,-233.7"/>
<polygon fill="#000000" stroke="#000000" points="294,-233.7 294,-250.7 294,-250.7 294,-233.7 294,-233.7"/>
<polygon fill="none" stroke="#000000" stroke-width="2" points="136,-231.7 136,-363.7 378,-363.7 378,-231.7 136,-231.7"/>
</a>
</g>
</g>
<!-- summaries&#45;&gt;summary_groups -->
<g id="edge4" class="edge">
<title>summaries:w&#45;&gt;summary_groups:e</title>
<path fill="none" stroke="#000000" d="M404.9849,-328.7C395.5472,-328.7 386.0645,-328.7 377,-328.7"/>
<polygon fill="#000000" stroke="#000000" points="411.7122,-328.7001 419.7122,-332.3 415.7122,-328.7 419.7122,-328.7 419.7122,-328.7 419.7122,-328.7 415.7122,-328.7 419.7122,-325.1 411.7122,-328.7001 411.7122,-328.7001"/>
<ellipse fill="none" stroke="#000000" cx="408.5122" cy="-328.7001" rx="3.2" ry="3.2"/>
</g>
<!-- decisions -->
<g id="node3" class="node">
<title>decisions</title>
<g id="a_node3"><a xlink:href="../../tables/decisions.html" xlink:title="decisions" target="_top">
<polygon fill="#ffffff" stroke="transparent" points="637,-373.2 637,-434.2 744,-434.2 744,-373.2 637,-373.2"/>
<polygon fill="#f5f5f5" stroke="transparent" points="637.5,-410.7 637.5,-433.7 744.5,-433.7 744.5,-410.7 637.5,-410.7"/>
<polygon fill="none" stroke="#000000" points="637.5,-410.7 637.5,-433.7 744.5,-433.7 744.5,-410.7 637.5,-410.7"/>
<text text-anchor="start" x="642.5" y="-419.3" font-family="Helvetica,sans-Serif" font-weight="bold" font-size="11.00" fill="#000000">decisions</text>
<text text-anchor="start" x="710.0219" y="-418.8" font-family="Helvetica,sans-Serif" font-size="11.00" fill="#000000">[table]</text>
<polygon fill="none" stroke="#000000" points="637.5,-391.7 637.5,-410.7 744.5,-410.7 744.5,-391.7 637.5,-391.7"/>
<text text-anchor="start" x="640.5" y="-397.8" font-family="Helvetica,sans-Serif" font-size="11.00" fill="#000000">...</text>
<polygon fill="#ffffff" stroke="transparent" points="637.5,-372.7 637.5,-391.7 744.5,-391.7 744.5,-372.7 637.5,-372.7"/>
<polygon fill="none" stroke="#000000" points="637.5,-372.7 637.5,-391.7 744.5,-391.7 744.5,-372.7 637.5,-372.7"/>
<polygon fill="#ffffff" stroke="transparent" points="638.5,-373.7 638.5,-390.7 679.5,-390.7 679.5,-373.7 638.5,-373.7"/>
<text text-anchor="start" x="640.5" y="-378.8" font-family="Helvetica,sans-Serif" font-size="11.00" fill="#000000">&lt; 1</text>
<polygon fill="#ffffff" stroke="transparent" points="679.5,-373.7 679.5,-390.7 711.5,-390.7 711.5,-373.7 679.5,-373.7"/>
<text text-anchor="start" x="692.4431" y="-378.8" font-family="Helvetica,sans-Serif" font-size="11.00" fill="#000000"> &#160;</text>
<polygon fill="#ffffff" stroke="transparent" points="711.5,-373.7 711.5,-390.7 743.5,-390.7 743.5,-373.7 711.5,-373.7"/>
<text text-anchor="start" x="735.3862" y="-378.8" font-family="Helvetica,sans-Serif" font-size="11.00" fill="#000000"> &#160;</text>
<polygon fill="#000000" stroke="#000000" points="679.5,-373.7 679.5,-390.7 679.5,-390.7 679.5,-373.7 679.5,-373.7"/>
<polygon fill="#000000" stroke="#000000" points="711.5,-373.7 711.5,-390.7 711.5,-390.7 711.5,-373.7 711.5,-373.7"/>
</a>
</g>
</g>
<!-- decisions&#45;&gt;summaries -->
<g id="edge2" class="edge">
<title>decisions:w&#45;&gt;summaries:e</title>
<path fill="none" stroke="#000000" d="M622.8053,-399.7948C589.7452,-395.8108 557.3003,-379.3202 532.4722,-363.2238"/>
<polygon fill="#000000" stroke="#000000" points="629.5151,-400.2081 637.2786,-404.2932 633.5076,-400.454 637.5,-400.7 637.5,-400.7 637.5,-400.7 633.5076,-400.454 637.7214,-397.1068 629.5151,-400.2081 629.5151,-400.2081"/>
<ellipse fill="none" stroke="#000000" cx="626.3212" cy="-400.0113" rx="3.2" ry="3.2"/>
</g>
<!-- oauth_identities -->
<g id="node4" class="node">
<title>oauth_identities</title>
<g id="a_node4"><a xlink:href="../../tables/oauth_identities.html" xlink:title="oauth_identities" target="_top">
<polygon fill="#ffffff" stroke="transparent" points="178.5,-148.2 178.5,-209.2 335.5,-209.2 335.5,-148.2 178.5,-148.2"/>
<polygon fill="#f5f5f5" stroke="transparent" points="179,-185.7 179,-208.7 336,-208.7 336,-185.7 179,-185.7"/>
<polygon fill="none" stroke="#000000" points="179,-185.7 179,-208.7 336,-208.7 336,-185.7 179,-185.7"/>
<text text-anchor="start" x="184" y="-194.3" font-family="Helvetica,sans-Serif" font-weight="bold" font-size="11.00" fill="#000000">oauth_identities</text>
<text text-anchor="start" x="301.5219" y="-193.8" font-family="Helvetica,sans-Serif" font-size="11.00" fill="#000000">[table]</text>
<polygon fill="none" stroke="#000000" points="179,-166.7 179,-185.7 336,-185.7 336,-166.7 179,-166.7"/>
<text text-anchor="start" x="182" y="-172.8" font-family="Helvetica,sans-Serif" font-size="11.00" fill="#000000">...</text>
<polygon fill="#ffffff" stroke="transparent" points="179,-147.7 179,-166.7 336,-166.7 336,-147.7 179,-147.7"/>
<polygon fill="none" stroke="#000000" points="179,-147.7 179,-166.7 336,-166.7 336,-147.7 179,-147.7"/>
<polygon fill="#ffffff" stroke="transparent" points="180,-148.7 180,-165.7 238,-165.7 238,-148.7 180,-148.7"/>
<text text-anchor="start" x="182" y="-153.8" font-family="Helvetica,sans-Serif" font-size="11.00" fill="#000000">&lt; 1</text>
<polygon fill="#ffffff" stroke="transparent" points="238,-148.7 238,-165.7 287,-165.7 287,-148.7 238,-148.7"/>
<text text-anchor="start" x="259.4431" y="-153.8" font-family="Helvetica,sans-Serif" font-size="11.00" fill="#000000"> &#160;</text>
<polygon fill="#ffffff" stroke="transparent" points="287,-148.7 287,-165.7 335,-165.7 335,-148.7 287,-148.7"/>
<text text-anchor="start" x="326.8862" y="-153.8" font-family="Helvetica,sans-Serif" font-size="11.00" fill="#000000"> &#160;</text>
<polygon fill="#000000" stroke="#000000" points="238,-148.7 238,-165.7 238,-165.7 238,-148.7 238,-148.7"/>
<polygon fill="#000000" stroke="#000000" points="287,-148.7 287,-165.7 287,-165.7 287,-148.7 287,-148.7"/>
</a>
</g>
</g>
<!-- oauth_identities&#45;&gt;users -->
<g id="edge3" class="edge">
<title>oauth_identities:w&#45;&gt;users:e</title>
<path fill="none" stroke="#000000" d="M164.5558,-175.7C140.3857,-175.7 115.0066,-175.7 94.0407,-175.7"/>
<polygon fill="#000000" stroke="#000000" points="171,-175.7001 179,-179.3 175,-175.7 179,-175.7 179,-175.7 179,-175.7 175,-175.7 179,-172.1 171,-175.7001 171,-175.7001"/>
<ellipse fill="none" stroke="#000000" cx="167.8" cy="-175.7001" rx="3.2" ry="3.2"/>
</g>
<!-- summary_groups&#45;&gt;users -->
<g id="edge6" class="edge">
<title>summary_groups:w&#45;&gt;users:e</title>
<path fill="none" stroke="#000000" d="M122.448,-304.7385C85.0739,-294.3602 64.7269,-245.0263 54.8627,-210.4617"/>
<polygon fill="#000000" stroke="#000000" points="129.0717,-305.6313 136.5191,-310.2677 133.0359,-306.1656 137,-306.7 137,-306.7 137,-306.7 133.0359,-306.1656 137.4809,-303.1323 129.0717,-305.6313 129.0717,-305.6313"/>
<ellipse fill="none" stroke="#000000" cx="125.9004" cy="-305.2038" rx="3.2" ry="3.2"/>
</g>
<!-- topics -->
<g id="node7" class="node">
<title>topics</title>
<g id="a_node7"><a xlink:href="../../tables/topics.html" xlink:title="topics" target="_top">
<polygon fill="#ffffff" stroke="transparent" points="649,-291.2 649,-352.2 732,-352.2 732,-291.2 649,-291.2"/>
<polygon fill="#f5f5f5" stroke="transparent" points="649.5,-328.7 649.5,-351.7 732.5,-351.7 732.5,-328.7 649.5,-328.7"/>
<polygon fill="none" stroke="#000000" points="649.5,-328.7 649.5,-351.7 732.5,-351.7 732.5,-328.7 649.5,-328.7"/>
<text text-anchor="start" x="654.5" y="-337.3" font-family="Helvetica,sans-Serif" font-weight="bold" font-size="11.00" fill="#000000">topics</text>
<text text-anchor="start" x="698.0219" y="-336.8" font-family="Helvetica,sans-Serif" font-size="11.00" fill="#000000">[table]</text>
<polygon fill="none" stroke="#000000" points="649.5,-309.7 649.5,-328.7 732.5,-328.7 732.5,-309.7 649.5,-309.7"/>
<text text-anchor="start" x="652.5" y="-315.8" font-family="Helvetica,sans-Serif" font-size="11.00" fill="#000000">...</text>
<polygon fill="#ffffff" stroke="transparent" points="649.5,-290.7 649.5,-309.7 732.5,-309.7 732.5,-290.7 649.5,-290.7"/>
<polygon fill="none" stroke="#000000" points="649.5,-290.7 649.5,-309.7 732.5,-309.7 732.5,-290.7 649.5,-290.7"/>
<polygon fill="#ffffff" stroke="transparent" points="650.5,-291.7 650.5,-308.7 683.5,-308.7 683.5,-291.7 650.5,-291.7"/>
<text text-anchor="start" x="652.5" y="-296.8" font-family="Helvetica,sans-Serif" font-size="11.00" fill="#000000">&lt; 1</text>
<polygon fill="#ffffff" stroke="transparent" points="683.5,-291.7 683.5,-308.7 707.5,-308.7 707.5,-291.7 683.5,-291.7"/>
<text text-anchor="start" x="692.4431" y="-296.8" font-family="Helvetica,sans-Serif" font-size="11.00" fill="#000000"> &#160;</text>
<polygon fill="#ffffff" stroke="transparent" points="707.5,-291.7 707.5,-308.7 731.5,-308.7 731.5,-291.7 707.5,-291.7"/>
<text text-anchor="start" x="723.3862" y="-296.8" font-family="Helvetica,sans-Serif" font-size="11.00" fill="#000000"> &#160;</text>
<polygon fill="#000000" stroke="#000000" points="683.5,-291.7 683.5,-308.7 683.5,-308.7 683.5,-291.7 683.5,-291.7"/>
<polygon fill="#000000" stroke="#000000" points="707.5,-291.7 707.5,-308.7 707.5,-308.7 707.5,-291.7 707.5,-291.7"/>
</a>
</g>
</g>
<!-- topics&#45;&gt;summaries -->
<g id="edge7" class="edge">
<title>topics:w&#45;&gt;summaries:e</title>
<path fill="none" stroke="#000000" d="M634.7633,-318.8292C607.923,-319.2833 579.7022,-320.8754 555.228,-322.6523"/>
<polygon fill="#000000" stroke="#000000" points="641.5003,-318.7702 649.5316,-322.2999 645.5002,-318.7351 649.5,-318.7 649.5,-318.7 649.5,-318.7 645.5002,-318.7351 649.4684,-315.1001 641.5003,-318.7702 641.5003,-318.7702"/>
<ellipse fill="none" stroke="#000000" cx="638.3004" cy="-318.7982" rx="3.2" ry="3.2"/>
</g>
<!-- transcript_segments -->
<g id="node8" class="node">
<title>transcript_segments</title>
<g id="a_node8"><a xlink:href="../../tables/transcript_segments.html" xlink:title="transcript_segments" target="_top">
<polygon fill="#ffffff" stroke="transparent" points="596,-209.2 596,-270.2 785,-270.2 785,-209.2 596,-209.2"/>
<polygon fill="#f5f5f5" stroke="transparent" points="596.5,-246.7 596.5,-269.7 785.5,-269.7 785.5,-246.7 596.5,-246.7"/>
<polygon fill="none" stroke="#000000" points="596.5,-246.7 596.5,-269.7 785.5,-269.7 785.5,-246.7 596.5,-246.7"/>
<text text-anchor="start" x="601.5" y="-255.3" font-family="Helvetica,sans-Serif" font-weight="bold" font-size="11.00" fill="#000000">transcript_segments</text>
<text text-anchor="start" x="751.0219" y="-254.8" font-family="Helvetica,sans-Serif" font-size="11.00" fill="#000000">[table]</text>
<polygon fill="none" stroke="#000000" points="596.5,-227.7 596.5,-246.7 785.5,-246.7 785.5,-227.7 596.5,-227.7"/>
<text text-anchor="start" x="599.5" y="-233.8" font-family="Helvetica,sans-Serif" font-size="11.00" fill="#000000">...</text>
<polygon fill="#ffffff" stroke="transparent" points="596.5,-208.7 596.5,-227.7 785.5,-227.7 785.5,-208.7 596.5,-208.7"/>
<polygon fill="none" stroke="#000000" points="596.5,-208.7 596.5,-227.7 785.5,-227.7 785.5,-208.7 596.5,-208.7"/>
<polygon fill="#ffffff" stroke="transparent" points="597.5,-209.7 597.5,-226.7 666.5,-226.7 666.5,-209.7 597.5,-209.7"/>
<text text-anchor="start" x="599.5" y="-214.8" font-family="Helvetica,sans-Serif" font-size="11.00" fill="#000000">&lt; 1</text>
<polygon fill="#ffffff" stroke="transparent" points="666.5,-209.7 666.5,-226.7 725.5,-226.7 725.5,-209.7 666.5,-209.7"/>
<text text-anchor="start" x="692.9431" y="-214.8" font-family="Helvetica,sans-Serif" font-size="11.00" fill="#000000"> &#160;</text>
<polygon fill="#ffffff" stroke="transparent" points="725.5,-209.7 725.5,-226.7 784.5,-226.7 784.5,-209.7 725.5,-209.7"/>
<text text-anchor="start" x="776.3862" y="-214.8" font-family="Helvetica,sans-Serif" font-size="11.00" fill="#000000"> &#160;</text>
<polygon fill="#000000" stroke="#000000" points="666.5,-209.7 666.5,-226.7 666.5,-226.7 666.5,-209.7 666.5,-209.7"/>
<polygon fill="#000000" stroke="#000000" points="725.5,-209.7 725.5,-226.7 725.5,-226.7 725.5,-209.7 725.5,-209.7"/>
</a>
</g>
</g>
<!-- transcript_segments&#45;&gt;summaries -->
<g id="edge8" class="edge">
<title>transcript_segments:w&#45;&gt;summaries:e</title>
<path fill="none" stroke="#000000" d="M582.0835,-238.2745C551.4614,-244.9411 525.9546,-271.5426 509.1762,-294.1808"/>
<polygon fill="#000000" stroke="#000000" points="588.5473,-237.5686 596.8909,-240.2787 592.5236,-237.1343 596.5,-236.7 596.5,-236.7 596.5,-236.7 592.5236,-237.1343 596.1091,-233.1213 588.5473,-237.5686 588.5473,-237.5686"/>
<ellipse fill="none" stroke="#000000" cx="585.3662" cy="-237.916" rx="3.2" ry="3.2"/>
</g>
<!-- transcription_jobs -->
<g id="node9" class="node">
<title>transcription_jobs</title>
<g id="a_node9"><a xlink:href="../../tables/transcription_jobs.html" xlink:title="transcription_jobs" target="_top">
<polygon fill="#ffffff" stroke="transparent" points="605,-107.2 605,-168.2 776,-168.2 776,-107.2 605,-107.2"/>
<polygon fill="#f5f5f5" stroke="transparent" points="605.5,-144.7 605.5,-167.7 776.5,-167.7 776.5,-144.7 605.5,-144.7"/>
<polygon fill="none" stroke="#000000" points="605.5,-144.7 605.5,-167.7 776.5,-167.7 776.5,-144.7 605.5,-144.7"/>
<text text-anchor="start" x="610.5" y="-153.3" font-family="Helvetica,sans-Serif" font-weight="bold" font-size="11.00" fill="#000000">transcription_jobs</text>
<text text-anchor="start" x="742.0219" y="-152.8" font-family="Helvetica,sans-Serif" font-size="11.00" fill="#000000">[table]</text>
<polygon fill="none" stroke="#000000" points="605.5,-125.7 605.5,-144.7 776.5,-144.7 776.5,-125.7 605.5,-125.7"/>
<text text-anchor="start" x="608.5" y="-131.8" font-family="Helvetica,sans-Serif" font-size="11.00" fill="#000000">...</text>
<polygon fill="#ffffff" stroke="transparent" points="605.5,-106.7 605.5,-125.7 776.5,-125.7 776.5,-106.7 605.5,-106.7"/>
<polygon fill="none" stroke="#000000" points="605.5,-106.7 605.5,-125.7 776.5,-125.7 776.5,-106.7 605.5,-106.7"/>
<polygon fill="#ffffff" stroke="transparent" points="606.5,-107.7 606.5,-124.7 669.5,-124.7 669.5,-107.7 606.5,-107.7"/>
<text text-anchor="start" x="608.5" y="-112.8" font-family="Helvetica,sans-Serif" font-size="11.00" fill="#000000">&lt; 2</text>
<polygon fill="#ffffff" stroke="transparent" points="669.5,-107.7 669.5,-124.7 722.5,-124.7 722.5,-107.7 669.5,-107.7"/>
<text text-anchor="start" x="692.9431" y="-112.8" font-family="Helvetica,sans-Serif" font-size="11.00" fill="#000000"> &#160;</text>
<polygon fill="#ffffff" stroke="transparent" points="722.5,-107.7 722.5,-124.7 775.5,-124.7 775.5,-107.7 722.5,-107.7"/>
<text text-anchor="start" x="767.3862" y="-112.8" font-family="Helvetica,sans-Serif" font-size="11.00" fill="#000000"> &#160;</text>
<polygon fill="#000000" stroke="#000000" points="669.5,-107.7 669.5,-124.7 669.5,-124.7 669.5,-107.7 669.5,-107.7"/>
<polygon fill="#000000" stroke="#000000" points="722.5,-107.7 722.5,-124.7 722.5,-124.7 722.5,-107.7 722.5,-107.7"/>
</a>
</g>
</g>
<!-- transcription_jobs&#45;&gt;summaries -->
<g id="edge9" class="edge">
<title>transcription_jobs:w&#45;&gt;summaries:e</title>
<path fill="none" stroke="#000000" d="M591.0008,-136.1029C527.9065,-148.6295 502.0963,-242.03 492.5298,-294.0167"/>
<polygon fill="#000000" stroke="#000000" points="597.5372,-135.4705 605.8467,-138.2833 601.5186,-135.0852 605.5,-134.7 605.5,-134.7 605.5,-134.7 601.5186,-135.0852 605.1533,-131.1167 597.5372,-135.4705 597.5372,-135.4705"/>
<ellipse fill="none" stroke="#000000" cx="594.3521" cy="-135.7787" rx="3.2" ry="3.2"/>
</g>
<!-- transcription_jobs&#45;&gt;users -->
<g id="edge10" class="edge">
<title>transcription_jobs:w&#45;&gt;users:e</title>
<path fill="none" stroke="#000000" d="M591.098,-134.6315C390.0652,-132.7096 329.5592,-91.3693 127,-137.7 116.058,-140.2027 104.8513,-144.3681 94.4205,-149.0443"/>
<polygon fill="#000000" stroke="#000000" points="597.5001,-134.6619 605.4828,-138.3 601.5,-134.6809 605.5,-134.7 605.5,-134.7 605.5,-134.7 601.5,-134.6809 605.5172,-131.1 597.5001,-134.6619 597.5001,-134.6619"/>
<ellipse fill="none" stroke="#000000" cx="594.3001" cy="-134.6466" rx="3.2" ry="3.2"/>
</g>
<!-- user_sessions -->
<g id="node10" class="node">
<title>user_sessions</title>
<g id="a_node10"><a xlink:href="../../tables/user_sessions.html" xlink:title="user_sessions" target="_top">
<polygon fill="#ffffff" stroke="transparent" points="187,-38.2 187,-99.2 327,-99.2 327,-38.2 187,-38.2"/>
<polygon fill="#f5f5f5" stroke="transparent" points="187,-75.7 187,-98.7 327,-98.7 327,-75.7 187,-75.7"/>
<polygon fill="none" stroke="#000000" points="187,-75.7 187,-98.7 327,-98.7 327,-75.7 187,-75.7"/>
<text text-anchor="start" x="192" y="-84.3" font-family="Helvetica,sans-Serif" font-weight="bold" font-size="11.00" fill="#000000">user_sessions</text>
<text text-anchor="start" x="292.5219" y="-83.8" font-family="Helvetica,sans-Serif" font-size="11.00" fill="#000000">[table]</text>
<polygon fill="none" stroke="#000000" points="187,-56.7 187,-75.7 327,-75.7 327,-56.7 187,-56.7"/>
<text text-anchor="start" x="190" y="-62.8" font-family="Helvetica,sans-Serif" font-size="11.00" fill="#000000">...</text>
<polygon fill="#ffffff" stroke="transparent" points="187,-37.7 187,-56.7 327,-56.7 327,-37.7 187,-37.7"/>
<polygon fill="none" stroke="#000000" points="187,-37.7 187,-56.7 327,-56.7 327,-37.7 187,-37.7"/>
<polygon fill="#ffffff" stroke="transparent" points="188,-38.7 188,-55.7 240,-55.7 240,-38.7 188,-38.7"/>
<text text-anchor="start" x="190" y="-43.8" font-family="Helvetica,sans-Serif" font-size="11.00" fill="#000000">&lt; 1</text>
<polygon fill="#ffffff" stroke="transparent" points="240,-38.7 240,-55.7 283,-55.7 283,-38.7 240,-38.7"/>
<text text-anchor="start" x="258.4431" y="-43.8" font-family="Helvetica,sans-Serif" font-size="11.00" fill="#000000"> &#160;</text>
<polygon fill="#ffffff" stroke="transparent" points="283,-38.7 283,-55.7 326,-55.7 326,-38.7 283,-38.7"/>
<text text-anchor="start" x="317.8862" y="-43.8" font-family="Helvetica,sans-Serif" font-size="11.00" fill="#000000"> &#160;</text>
<polygon fill="#000000" stroke="#000000" points="240,-38.7 240,-55.7 240,-55.7 240,-38.7 240,-38.7"/>
<polygon fill="#000000" stroke="#000000" points="283,-38.7 283,-55.7 283,-55.7 283,-38.7 283,-38.7"/>
</a>
</g>
</g>
<!-- user_sessions&#45;&gt;users -->
<g id="edge11" class="edge">
<title>user_sessions:w&#45;&gt;users:e</title>
<path fill="none" stroke="#000000" d="M172.3987,-66.9334C129.1104,-74.2048 92.4895,-112.1511 70.2004,-141.1971"/>
<polygon fill="#000000" stroke="#000000" points="179.0284,-66.3734 187.3031,-69.2872 183.0142,-66.0367 187,-65.7 187,-65.7 187,-65.7 183.0142,-66.0367 186.6969,-62.1128 179.0284,-66.3734 179.0284,-66.3734"/>
<ellipse fill="none" stroke="#000000" cx="175.8397" cy="-66.6428" rx="3.2" ry="3.2"/>
</g>
</g>
</svg>
