<?xml version="1.0" encoding="UTF-8" standalone="no"?>
<!DOCTYPE svg PUBLIC "-//W3C//DTD SVG 1.1//EN"
 "http://www.w3.org/Graphics/SVG/1.1/DTD/svg11.dtd">
<!-- Generated by graphviz version 2.40.1 (20161225.0304)
 -->
<!-- Title: twoDegreesRelationshipsDiagram Pages: 1 -->
<svg width="780pt" height="513pt"
 viewBox="0.00 0.00 780.00 513.20" xmlns="http://www.w3.org/2000/svg" xmlns:xlink="http://www.w3.org/1999/xlink">
<g id="graph0" class="graph" transform="scale(1 1) rotate(0) translate(4 509.2)">
<title>twoDegreesRelationshipsDiagram</title>
<polygon fill="#ffffff" stroke="transparent" points="-4,4 -4,-509.2 776,-509.2 776,4 -4,4"/>
<text text-anchor="middle" x="72.4936" y="-7.3" font-family="Helvetica,sans-Serif" font-size="11.00" fill="#000000">Generated by SchemaSpy</text>
<!-- action_items -->
<g id="node1" class="node">
<title>action_items</title>
<g id="a_node1"><a xlink:href="../../tables/action_items.html" xlink:title="action_items" target="_top">
<polygon fill="#ffffff" stroke="transparent" points="587.5,-440.2 587.5,-501.2 718.5,-501.2 718.5,-440.2 587.5,-440.2"/>
<polygon fill="#f5f5f5" stroke="transparent" points="588,-477.7 588,-500.7 719,-500.7 719,-477.7 588,-477.7"/>
<polygon fill="none" stroke="#000000" points="588,-477.7 588,-500.7 719,-500.7 719,-477.7 588,-477.7"/>
<text text-anchor="start" x="593" y="-486.3" font-family="Helvetica,sans-Serif" font-weight="bold" font-size="11.00" fill="#000000">action_items</text>
<text text-anchor="start" x="684.5219" y="-485.8" font-family="Helvetica,sans-Serif" font-size="11.00" fill="#000000">[table]</text>
<polygon fill="none" stroke="#000000" points="588,-458.7 588,-477.7 719,-477.7 719,-458.7 588,-458.7"/>
<text text-anchor="start" x="591" y="-464.8" font-family="Helvetica,sans-Serif" font-size="11.00" fill="#000000">...</text>
<polygon fill="#ffffff" stroke="transparent" points="588,-439.7 588,-458.7 719,-458.7 719,-439.7 588,-439.7"/>
<polygon fill="none" stroke="#000000" points="588,-439.7 588,-458.7 719,-458.7 719,-439.7 588,-439.7"/>
<polygon fill="#ffffff" stroke="transparent" points="589,-440.7 589,-457.7 638,-457.7 638,-440.7 589,-440.7"/>
<text text-anchor="start" x="591" y="-445.8" font-family="Helvetica,sans-Serif" font-size="11.00" fill="#000000">&lt; 1</text>
<polygon fill="#ffffff" stroke="transparent" points="638,-440.7 638,-457.7 678,-457.7 678,-440.7 638,-440.7"/>
<text text-anchor="start" x="654.9431" y="-445.8" font-family="Helvetica,sans-Serif" font-size="11.00" fill="#000000"> &#160;</text>
<polygon fill="#ffffff" stroke="transparent" points="678,-440.7 678,-457.7 718,-457.7 718,-440.7 678,-440.7"/>
<text text-anchor="start" x="709.8862" y="-445.8" font-family="Helvetica,sans-Serif" font-size="11.00" fill="#000000"> &#160;</text>
<polygon fill="#000000" stroke="#000000" points="638,-440.7 638,-457.7 638,-457.7 638,-440.7 638,-440.7"/>
<polygon fill="#000000" stroke="#000000" points="678,-440.7 678,-457.7 678,-457.7 678,-440.7 678,-440.7"/>
</a>
</g>
</g>
<!-- summaries -->
<g id="node2" class="node">
<title>summaries</title>
<g id="a_node2"><a xlink:href="../../tables/summaries.html" xlink:title="summaries" target="_top">
<polygon fill="#ffffff" stroke="transparent" points="348,-149.2 348,-298.2 493,-298.2 493,-149.2 348,-149.2"/>
<polygon fill="#f5f5f5" stroke="transparent" points="348.5,-274.7 348.5,-297.7 493.5,-297.7 493.5,-274.7 348.5,-274.7"/>
<polygon fill="none" stroke="#000000" points="348.5,-274.7 348.5,-297.7 493.5,-297.7 493.5,-274.7 348.5,-274.7"/>
<text text-anchor="start" x="353.5" y="-283.3" font-family="Helvetica,sans-Serif" font-weight="bold" font-size="11.00" fill="#000000">summaries</text>
<text text-anchor="start" x="458.5437" y="-282.8" font-family="Helvetica,sans-Serif" font-size="11.00" fill="#000000">[table]</text>
<polygon fill="none" stroke="#000000" points="348.5,-252.7 348.5,-274.7 493.5,-274.7 493.5,-252.7 348.5,-252.7"/>
<image xlink:href="../../images/primaryKeys.png" width="11px" height="12px" preserveAspectRatio="xMinYMin meet" x="353.5" y="-269.7"/>
<text text-anchor="start" x="368.5" y="-259.8" font-family="Helvetica,sans-Serif" font-size="11.00" fill="#000000">id</text>
<polygon fill="#ffffff" stroke="transparent" points="348.5,-230.7 348.5,-252.7 493.5,-252.7 493.5,-230.7 348.5,-230.7"/>
<polygon fill="none" stroke="#000000" points="348.5,-230.7 348.5,-252.7 493.5,-252.7 493.5,-230.7 348.5,-230.7"/>
<text text-anchor="start" x="368.5" y="-237.8" font-family="Helvetica,sans-Serif" font-size="11.00" fill="#000000">content_hash</text>
<polygon fill="#ffffff" stroke="transparent" points="348.5,-208.7 348.5,-230.7 493.5,-230.7 493.5,-208.7 348.5,-208.7"/>
<polygon fill="none" stroke="#000000" points="348.5,-208.7 348.5,-230.7 493.5,-230.7 493.5,-208.7 348.5,-208.7"/>
<image xlink:href="../../images/foreignKeys.png" width="11px" height="12px" preserveAspectRatio="xMinYMin meet" x="353.5" y="-225.7"/>
<text text-anchor="start" x="368.5" y="-215.8" font-family="Helvetica,sans-Serif" font-size="11.00" fill="#000000">user_id</text>
<polygon fill="#ffffff" stroke="transparent" points="348.5,-186.7 348.5,-208.7 493.5,-208.7 493.5,-186.7 348.5,-186.7"/>
<polygon fill="none" stroke="#000000" points="348.5,-186.7 348.5,-208.7 493.5,-208.7 493.5,-186.7 348.5,-186.7"/>
<image xlink:href="../../images/foreignKeys.png" width="11px" height="12px" preserveAspectRatio="xMinYMin meet" x="353.5" y="-203.7"/>
<text text-anchor="start" x="368.5" y="-193.8" font-family="Helvetica,sans-Serif" font-size="11.00" fill="#000000">group_id</text>
<polygon fill="none" stroke="#000000" points="348.5,-167.7 348.5,-186.7 493.5,-186.7 493.5,-167.7 348.5,-167.7"/>
<text text-anchor="start" x="351.5" y="-173.8" font-family="Helvetica,sans-Serif" font-size="11.00" fill="#000000">...</text>
<polygon fill="#ffffff" stroke="transparent" points="348.5,-148.7 348.5,-167.7 493.5,-167.7 493.5,-148.7 348.5,-148.7"/>
<polygon fill="none" stroke="#000000" points="348.5,-148.7 348.5,-167.7 493.5,-167.7 493.5,-148.7 348.5,-148.7"/>
<polygon fill="#ffffff" stroke="transparent" points="349.5,-149.7 349.5,-166.7 400.5,-166.7 400.5,-149.7 349.5,-149.7"/>
<text text-anchor="start" x="351.5" y="-154.8" font-family="Helvetica,sans-Serif" font-size="11.00" fill="#000000">&lt; 2</text>
<polygon fill="#ffffff" stroke="transparent" points="400.5,-149.7 400.5,-166.7 442.5,-166.7 442.5,-149.7 400.5,-149.7"/>
<text text-anchor="start" x="418.4431" y="-154.8" font-family="Helvetica,sans-Serif" font-size="11.00" fill="#000000"> &#160;</text>
<polygon fill="#ffffff" stroke="transparent" points="442.5,-149.7 442.5,-166.7 492.5,-166.7 492.5,-149.7 442.5,-149.7"/>
<text text-anchor="start" x="474.9053" y="-154.8" font-family="Helvetica,sans-Serif" font-size="11.00" fill="#000000">5 &gt;</text>
<polygon fill="#000000" stroke="#000000" points="400.5,-149.7 400.5,-166.7 400.5,-166.7 400.5,-149.7 400.5,-149.7"/>
<polygon fill="#000000" stroke="#000000" points="442.5,-149.7 442.5,-166.7 442.5,-166.7 442.5,-149.7 442.5,-149.7"/>
</a>
</g>
</g>
<!-- action_items&#45;&gt;summaries -->
<g id="edge1" class="edge">
<title>action_items:w&#45;&gt;summaries:e</title>
<path fill="none" stroke="#000000" d="M573.5358,-466.2709C555.3123,-462.1736 547.4329,-449.4004 534,-429.7 491.2175,-366.9559 569.4418,-263.7 493.5,-263.7"/>
<polygon fill="#000000" stroke="#000000" points="580.0388,-466.9134 587.646,-471.2826 584.0194,-467.3067 588,-467.7 588,-467.7 588,-467.7 584.0194,-467.3067 588.354,-464.1174 580.0388,-466.9134 580.0388,-466.9134"/>
<ellipse fill="none" stroke="#000000" cx="576.8543" cy="-466.5987" rx="3.2" ry="3.2"/>
</g>
<!-- summary_groups -->
<g id="node4" class="node">
<title>summary_groups</title>
<g id="a_node4"><a xlink:href="../../tables/summary_groups.html" xlink:title="summary_groups" target="_top">
<polygon fill="#ffffff" stroke="transparent" points="135,-134.2 135,-195.2 299,-195.2 299,-134.2 135,-134.2"/>
<polygon fill="#f5f5f5" stroke="transparent" points="135,-171.7 135,-194.7 299,-194.7 299,-171.7 135,-171.7"/>
<polygon fill="none" stroke="#000000" points="135,-171.7 135,-194.7 299,-194.7 299,-171.7 135,-171.7"/>
<text text-anchor="start" x="140" y="-180.3" font-family="Helvetica,sans-Serif" font-weight="bold" font-size="11.00" fill="#000000">summary_groups</text>
<text text-anchor="start" x="264.5219" y="-179.8" font-family="Helvetica,sans-Serif" font-size="11.00" fill="#000000">[table]</text>
<polygon fill="none" stroke="#000000" points="135,-152.7 135,-171.7 299,-171.7 299,-152.7 135,-152.7"/>
<text text-anchor="start" x="138" y="-158.8" font-family="Helvetica,sans-Serif" font-size="11.00" fill="#000000">...</text>
<polygon fill="#ffffff" stroke="transparent" points="135,-133.7 135,-152.7 299,-152.7 299,-133.7 135,-133.7"/>
<polygon fill="none" stroke="#000000" points="135,-133.7 135,-152.7 299,-152.7 299,-133.7 135,-133.7"/>
<polygon fill="#ffffff" stroke="transparent" points="136,-134.7 136,-151.7 193,-151.7 193,-134.7 136,-134.7"/>
<text text-anchor="start" x="138" y="-139.8" font-family="Helvetica,sans-Serif" font-size="11.00" fill="#000000">&lt; 1</text>
<polygon fill="#ffffff" stroke="transparent" points="193,-134.7 193,-151.7 241,-151.7 241,-134.7 193,-134.7"/>
<text text-anchor="start" x="213.9431" y="-139.8" font-family="Helvetica,sans-Serif" font-size="11.00" fill="#000000"> &#160;</text>
<polygon fill="#ffffff" stroke="transparent" points="241,-134.7 241,-151.7 298,-151.7 298,-134.7 241,-134.7"/>
<text text-anchor="start" x="280.4053" y="-139.8" font-family="Helvetica,sans-Serif" font-size="11.00" fill="#000000">1 &gt;</text>
<polygon fill="#000000" stroke="#000000" points="193,-134.7 193,-151.7 193,-151.7 193,-134.7 193,-134.7"/>
<polygon fill="#000000" stroke="#000000" points="241,-134.7 241,-151.7 241,-151.7 241,-134.7 241,-134.7"/>
</a>
</g>
</g>
<!-- summaries&#45;&gt;summary_groups -->
<g id="edge3" class="edge">
<title>summaries:w&#45;&gt;summary_groups:e</title>
<path fill="none" stroke="#000000" d="M334.5852,-193.2857C321.9069,-183.6727 320.2523,-161.7 299,-161.7"/>
<polygon fill="#000000" stroke="#000000" points="340.8745,-195.2809 347.4114,-201.1315 344.6873,-196.4904 348.5,-197.7 348.5,-197.7 348.5,-197.7 344.6873,-196.4904 349.5886,-194.2685 340.8745,-195.2809 340.8745,-195.2809"/>
<ellipse fill="none" stroke="#000000" cx="337.8243" cy="-194.3132" rx="3.2" ry="3.2"/>
</g>
<!-- users -->
<g id="node5" class="node">
<title>users</title>
<g id="a_node5"><a xlink:href="../../tables/users.html" xlink:title="users" target="_top">
<polygon fill="#ffffff" stroke="transparent" points="8,-134.2 8,-195.2 86,-195.2 86,-134.2 8,-134.2"/>
<polygon fill="#f5f5f5" stroke="transparent" points="8,-171.7 8,-194.7 86,-194.7 86,-171.7 8,-171.7"/>
<polygon fill="none" stroke="#000000" points="8,-171.7 8,-194.7 86,-194.7 86,-171.7 8,-171.7"/>
<text text-anchor="start" x="13" y="-180.3" font-family="Helvetica,sans-Serif" font-weight="bold" font-size="11.00" fill="#000000">users</text>
<text text-anchor="start" x="51.5219" y="-179.8" font-family="Helvetica,sans-Serif" font-size="11.00" fill="#000000">[table]</text>
<polygon fill="none" stroke="#000000" points="8,-152.7 8,-171.7 86,-171.7 86,-152.7 8,-152.7"/>
<text text-anchor="start" x="11" y="-158.8" font-family="Helvetica,sans-Serif" font-size="11.00" fill="#000000">...</text>
<polygon fill="#ffffff" stroke="transparent" points="8,-133.7 8,-152.7 86,-152.7 86,-133.7 8,-133.7"/>
<polygon fill="none" stroke="#000000" points="8,-133.7 8,-152.7 86,-152.7 86,-133.7 8,-133.7"/>
<polygon fill="#ffffff" stroke="transparent" points="9,-134.7 9,-151.7 32,-151.7 32,-134.7 9,-134.7"/>
<text text-anchor="start" x="11" y="-139.8" font-family="Helvetica,sans-Serif" font-size="11.00" fill="#000000"> &#160;</text>
<polygon fill="#ffffff" stroke="transparent" points="32,-134.7 32,-151.7 54,-151.7 54,-134.7 32,-134.7"/>
<text text-anchor="start" x="39.9431" y="-139.8" font-family="Helvetica,sans-Serif" font-size="11.00" fill="#000000"> &#160;</text>
<polygon fill="#ffffff" stroke="transparent" points="54,-134.7 54,-151.7 85,-151.7 85,-134.7 54,-134.7"/>
<text text-anchor="start" x="67.4053" y="-139.8" font-family="Helvetica,sans-Serif" font-size="11.00" fill="#000000">5 &gt;</text>
<polygon fill="#000000" stroke="#000000" points="32,-134.7 32,-151.7 32,-151.7 32,-134.7 32,-134.7"/>
<polygon fill="#000000" stroke="#000000" points="54,-134.7 54,-151.7 54,-151.7 54,-134.7 54,-134.7"/>
</a>
</g>
</g>
<!-- summaries&#45;&gt;users -->
<g id="edge4" class="edge">
<title>summaries:w&#45;&gt;users:e</title>
<path fill="none" stroke="#000000" d="M333.9594,-219.9051C246.2941,-222.381 211.6376,-245.7423 127,-205.7 102.8381,-194.2689 112.7296,-161.7 86,-161.7"/>
<polygon fill="#000000" stroke="#000000" points="340.5008,-219.8129 348.5508,-223.2996 344.5004,-219.7565 348.5,-219.7 348.5,-219.7 348.5,-219.7 344.5004,-219.7565 348.4492,-216.1004 340.5008,-219.8129 340.5008,-219.8129"/>
<ellipse fill="none" stroke="#000000" cx="337.3011" cy="-219.8581" rx="3.2" ry="3.2"/>
</g>
<!-- decisions -->
<g id="node3" class="node">
<title>decisions</title>
<g id="a_node3"><a xlink:href="../../tables/decisions.html" xlink:title="decisions" target="_top">
<polygon fill="#ffffff" stroke="transparent" points="599.5,-358.2 599.5,-419.2 706.5,-419.2 706.5,-358.2 599.5,-358.2"/>
<polygon fill="#f5f5f5" stroke="transparent" points="600,-395.7 600,-418.7 707,-418.7 707,-395.7 600,-395.7"/>
<polygon fill="none" stroke="#000000" points="600,-395.7 600,-418.7 707,-418.7 707,-395.7 600,-395.7"/>
<text text-anchor="start" x="605" y="-404.3" font-family="Helvetica,sans-Serif" font-weight="bold" font-size="11.00" fill="#000000">decisions</text>
<text text-anchor="start" x="672.5219" y="-403.8" font-family="Helvetica,sans-Serif" font-size="11.00" fill="#000000">[table]</text>
<polygon fill="none" stroke="#000000" points="600,-376.7 600,-395.7 707,-395.7 707,-376.7 600,-376.7"/>
<text text-anchor="start" x="603" y="-382.8" font-family="Helvetica,sans-Serif" font-size="11.00" fill="#000000">...</text>
<polygon fill="#ffffff" stroke="transparent" points="600,-357.7 600,-376.7 707,-376.7 707,-357.7 600,-357.7"/>
<polygon fill="none" stroke="#000000" points="600,-357.7 600,-376.7 707,-376.7 707,-357.7 600,-357.7"/>
<polygon fill="#ffffff" stroke="transparent" points="601,-358.7 601,-375.7 642,-375.7 642,-358.7 601,-358.7"/>
<text text-anchor="start" x="603" y="-363.8" font-family="Helvetica,sans-Serif" font-size="11.00" fill="#000000">&lt; 1</text>
<polygon fill="#ffffff" stroke="transparent" points="642,-358.7 642,-375.7 674,-375.7 674,-358.7 642,-358.7"/>
<text text-anchor="start" x="654.9431" y="-363.8" font-family="Helvetica,sans-Serif" font-size="11.00" fill="#000000"> &#160;</text>
<polygon fill="#ffffff" stroke="transparent" points="674,-358.7 674,-375.7 706,-375.7 706,-358.7 674,-358.7"/>
<text text-anchor="start" x="697.8862" y="-363.8" font-family="Helvetica,sans-Serif" font-size="11.00" fill="#000000"> &#160;</text>
<polygon fill="#000000" stroke="#000000" points="642,-358.7 642,-375.7 642,-375.7 642,-358.7 642,-358.7"/>
<polygon fill="#000000" stroke="#000000" points="674,-358.7 674,-375.7 674,-375.7 674,-358.7 674,-358.7"/>
</a>
</g>
</g>
<!-- decisions&#45;&gt;summaries -->
<g id="edge2" class="edge">
<title>decisions:w&#45;&gt;summaries:e</title>
<path fill="none" stroke="#000000" d="M585.4819,-384.6904C562.8769,-381.1725 553.3525,-368.5224 534,-347.7 505.7843,-317.3412 534.9461,-263.7 493.5,-263.7"/>
<polygon fill="#000000" stroke="#000000" points="592.0193,-385.145 599.7502,-389.2913 596.0096,-385.4225 600,-385.7 600,-385.7 600,-385.7 596.0096,-385.4225 600.2498,-382.1087 592.0193,-385.145 592.0193,-385.145"/>
<ellipse fill="none" stroke="#000000" cx="588.827" cy="-384.9229" rx="3.2" ry="3.2"/>
</g>
<!-- summary_groups&#45;&gt;users -->
<g id="edge5" class="edge">
<title>summary_groups:w&#45;&gt;users:e</title>
<path fill="none" stroke="#000000" d="M120.4909,-161.7C109.1774,-161.7 101.9931,-161.7 86,-161.7"/>
<polygon fill="#000000" stroke="#000000" points="127,-161.7001 135,-165.3 131,-161.7 135,-161.7 135,-161.7 135,-161.7 131,-161.7 135,-158.1 127,-161.7001 127,-161.7001"/>
<ellipse fill="none" stroke="#000000" cx="123.8" cy="-161.7001" rx="3.2" ry="3.2"/>
</g>
<!-- topics -->
<g id="node6" class="node">
<title>topics</title>
<g id="a_node6"><a xlink:href="../../tables/topics.html" xlink:title="topics" target="_top">
<polygon fill="#ffffff" stroke="transparent" points="542,-202.7 542,-336.7 764,-336.7 764,-202.7 542,-202.7"/>
<polygon fill="#f5f5f5" stroke="transparent" points="544,-311.7 544,-334.7 762,-334.7 762,-311.7 544,-311.7"/>
<polygon fill="none" stroke="#000000" points="544,-311.7 544,-334.7 762,-334.7 762,-311.7 544,-311.7"/>
<text text-anchor="start" x="549" y="-320.3" font-family="Helvetica,sans-Serif" font-weight="bold" font-size="11.00" fill="#000000">topics</text>
<text text-anchor="start" x="727.0437" y="-319.8" font-family="Helvetica,sans-Serif" font-size="11.00" fill="#000000">[table]</text>
<polygon fill="none" stroke="#000000" points="544,-289.7 544,-311.7 653,-311.7 653,-289.7 544,-289.7"/>
<image xlink:href="../../images/primaryKeys.png" width="11px" height="12px" preserveAspectRatio="xMinYMin meet" x="549" y="-306.7"/>
<text text-anchor="start" x="564" y="-296.8" font-family="Helvetica,sans-Serif" font-size="11.00" fill="#000000">id</text>
<polygon fill="none" stroke="#000000" points="653,-289.7 653,-311.7 762,-311.7 762,-289.7 653,-289.7"/>
<text text-anchor="start" x="656" y="-297.4" font-family="Helvetica,sans-Serif" font-size="11.00" fill="#000000">serial[10]</text>
<polygon fill="#ffffff" stroke="transparent" points="544,-267.7 544,-289.7 653,-289.7 653,-267.7 544,-267.7"/>
<polygon fill="none" stroke="#000000" points="544,-267.7 544,-289.7 653,-289.7 653,-267.7 544,-267.7"/>
<image xlink:href="../../images/foreignKeys.png" width="11px" height="12px" preserveAspectRatio="xMinYMin meet" x="549" y="-284.7"/>
<text text-anchor="start" x="564" y="-274.8" font-family="Helvetica,sans-Serif" font-size="11.00" fill="#000000">summary_id</text>
<polygon fill="none" stroke="#000000" points="653,-267.7 653,-289.7 762,-289.7 762,-267.7 653,-267.7"/>
<text text-anchor="start" x="656" y="-275.4" font-family="Helvetica,sans-Serif" font-size="11.00" fill="#000000">uuid[2147483647]</text>
<polygon fill="none" stroke="#000000" points="544,-245.7 544,-267.7 653,-267.7 653,-245.7 544,-245.7"/>
<text text-anchor="start" x="564" y="-252.8" font-family="Helvetica,sans-Serif" font-size="11.00" fill="#000000">title</text>
<polygon fill="none" stroke="#000000" points="653,-245.7 653,-267.7 762,-267.7 762,-245.7 653,-245.7"/>
<text text-anchor="start" x="655.5344" y="-253.4" font-family="Helvetica,sans-Serif" font-size="11.00" fill="#000000">varchar[2147483647]</text>
<polygon fill="none" stroke="#000000" points="544,-223.7 544,-245.7 653,-245.7 653,-223.7 544,-223.7"/>
<text text-anchor="start" x="564" y="-230.8" font-family="Helvetica,sans-Serif" font-size="11.00" fill="#000000">summary</text>
<polygon fill="none" stroke="#000000" points="653,-223.7 653,-245.7 762,-245.7 762,-223.7 653,-223.7"/>
<text text-anchor="start" x="655.5344" y="-231.4" font-family="Helvetica,sans-Serif" font-size="11.00" fill="#000000">varchar[2147483647]</text>
<polygon fill="#ffffff" stroke="transparent" points="544,-204.7 544,-223.7 762,-223.7 762,-204.7 544,-204.7"/>
<polygon fill="none" stroke="#000000" points="544,-204.7 544,-223.7 762,-223.7 762,-204.7 544,-204.7"/>
<polygon fill="#ffffff" stroke="transparent" points="545,-205.7 545,-222.7 620,-222.7 620,-205.7 545,-205.7"/>
<text text-anchor="start" x="547" y="-210.8" font-family="Helvetica,sans-Serif" font-size="11.00" fill="#000000">&lt; 1</text>
<polygon fill="#ffffff" stroke="transparent" points="620,-205.7 620,-222.7 686,-222.7 686,-205.7 620,-205.7"/>
<text text-anchor="start" x="649.9431" y="-210.8" font-family="Helvetica,sans-Serif" font-size="11.00" fill="#000000"> &#160;</text>
<polygon fill="#ffffff" stroke="transparent" points="686,-205.7 686,-222.7 761,-222.7 761,-205.7 686,-205.7"/>
<text text-anchor="start" x="743.4053" y="-210.8" font-family="Helvetica,sans-Serif" font-size="11.00" fill="#000000">0 &gt;</text>
<polygon fill="#000000" stroke="#000000" points="620,-205.7 620,-222.7 620,-222.7 620,-205.7 620,-205.7"/>
<polygon fill="#000000" stroke="#000000" points="686,-205.7 686,-222.7 686,-222.7 686,-205.7 686,-205.7"/>
<polygon fill="none" stroke="#000000" stroke-width="2" points="543,-203.7 543,-335.7 763,-335.7 763,-203.7 543,-203.7"/>
</a>
</g>
</g>
<!-- topics&#45;&gt;summaries -->
<g id="edge6" class="edge">
<title>topics:w&#45;&gt;summaries:e</title>
<path fill="none" stroke="#000000" d="M529.5243,-276.3563C517.5162,-272.1375 511.0602,-263.7 493.5,-263.7"/>
<polygon fill="#000000" stroke="#000000" points="536.1028,-277.4213 543.4246,-282.2537 540.0514,-278.0607 544,-278.7 544,-278.7 544,-278.7 540.0514,-278.0607 544.5754,-275.1463 536.1028,-277.4213 536.1028,-277.4213"/>
<ellipse fill="none" stroke="#000000" cx="532.944" cy="-276.9099" rx="3.2" ry="3.2"/>
</g>
<!-- transcript_segments -->
<g id="node7" class="node">
<title>transcript_segments</title>
<g id="a_node7"><a xlink:href="../../tables/transcript_segments.html" xlink:title="transcript_segments" target="_top">
<polygon fill="#ffffff" stroke="transparent" points="558.5,-120.2 558.5,-181.2 747.5,-181.2 747.5,-120.2 558.5,-120.2"/>
<polygon fill="#f5f5f5" stroke="transparent" points="559,-157.7 559,-180.7 748,-180.7 748,-157.7 559,-157.7"/>
<polygon fill="none" stroke="#000000" points="559,-157.7 559,-180.7 748,-180.7 748,-157.7 559,-157.7"/>
<text text-anchor="start" x="564" y="-166.3" font-family="Helvetica,sans-Serif" font-weight="bold" font-size="11.00" fill="#000000">transcript_segments</text>
<text text-anchor="start" x="713.5219" y="-165.8" font-family="Helvetica,sans-Serif" font-size="11.00" fill="#000000">[table]</text>
<polygon fill="none" stroke="#000000" points="559,-138.7 559,-157.7 748,-157.7 748,-138.7 559,-138.7"/>
<text text-anchor="start" x="562" y="-144.8" font-family="Helvetica,sans-Serif" font-size="11.00" fill="#000000">...</text>
<polygon fill="#ffffff" stroke="transparent" points="559,-119.7 559,-138.7 748,-138.7 748,-119.7 559,-119.7"/>
<polygon fill="none" stroke="#000000" points="559,-119.7 559,-138.7 748,-138.7 748,-119.7 559,-119.7"/>
<polygon fill="#ffffff" stroke="transparent" points="560,-120.7 560,-137.7 629,-137.7 629,-120.7 560,-120.7"/>
<text text-anchor="start" x="562" y="-125.8" font-family="Helvetica,sans-Serif" font-size="11.00" fill="#000000">&lt; 1</text>
<polygon fill="#ffffff" stroke="transparent" points="629,-120.7 629,-137.7 688,-137.7 688,-120.7 629,-120.7"/>
<text text-anchor="start" x="655.4431" y="-125.8" font-family="Helvetica,sans-Serif" font-size="11.00" fill="#000000"> &#160;</text>
<polygon fill="#ffffff" stroke="transparent" points="688,-120.7 688,-137.7 747,-137.7 747,-120.7 688,-120.7"/>
<text text-anchor="start" x="738.8862" y="-125.8" font-family="Helvetica,sans-Serif" font-size="11.00" fill="#000000"> &#160;</text>
<polygon fill="#000000" stroke="#000000" points="629,-120.7 629,-137.7 629,-137.7 629,-120.7 629,-120.7"/>
<polygon fill="#000000" stroke="#000000" points="688,-120.7 688,-137.7 688,-137.7 688,-120.7 688,-120.7"/>
</a>
</g>
</g>
<!-- transcript_segments&#45;&gt;summaries -->
<g id="edge7" class="edge">
<title>transcript_segments:w&#45;&gt;summaries:e</title>
<path fill="none" stroke="#000000" d="M544.6532,-150.8027C509.0587,-169.25 546.9248,-263.7 493.5,-263.7"/>
<polygon fill="#000000" stroke="#000000" points="551.1808,-149.3911 559.761,-151.2187 555.0904,-148.5455 559,-147.7 559,-147.7 559,-147.7 555.0904,-148.5455 558.239,-144.1813 551.1808,-149.3911 551.1808,-149.3911"/>
<ellipse fill="none" stroke="#000000" cx="548.0531" cy="-150.0675" rx="3.2" ry="3.2"/>
</g>
<!-- transcription_jobs -->
<g id="node8" class="node">
<title>transcription_jobs</title>
<g id="a_node8"><a xlink:href="../../tables/transcription_jobs.html" xlink:title="transcription_jobs" target="_top">
<polygon fill="#ffffff" stroke="transparent" points="567.5,-38.2 567.5,-99.2 738.5,-99.2 738.5,-38.2 567.5,-38.2"/>
<polygon fill="#f5f5f5" stroke="transparent" points="568,-75.7 568,-98.7 739,-98.7 739,-75.7 568,-75.7"/>
<polygon fill="none" stroke="#000000" points="568,-75.7 568,-98.7 739,-98.7 739,-75.7 568,-75.7"/>
<text text-anchor="start" x="573" y="-84.3" font-family="Helvetica,sans-Serif" font-weight="bold" font-size="11.00" fill="#000000">transcription_jobs</text>
<text text-anchor="start" x="704.5219" y="-83.8" font-family="Helvetica,sans-Serif" font-size="11.00" fill="#000000">[table]</text>
<polygon fill="none" stroke="#000000" points="568,-56.7 568,-75.7 739,-75.7 739,-56.7 568,-56.7"/>
<text text-anchor="start" x="571" y="-62.8" font-family="Helvetica,sans-Serif" font-size="11.00" fill="#000000">...</text>
<polygon fill="#ffffff" stroke="transparent" points="568,-37.7 568,-56.7 739,-56.7 739,-37.7 568,-37.7"/>
<polygon fill="none" stroke="#000000" points="568,-37.7 568,-56.7 739,-56.7 739,-37.7 568,-37.7"/>
<polygon fill="#ffffff" stroke="transparent" points="569,-38.7 569,-55.7 632,-55.7 632,-38.7 569,-38.7"/>
<text text-anchor="start" x="571" y="-43.8" font-family="Helvetica,sans-Serif" font-size="11.00" fill="#000000">&lt; 2</text>
<polygon fill="#ffffff" stroke="transparent" points="632,-38.7 632,-55.7 685,-55.7 685,-38.7 632,-38.7"/>
<text text-anchor="start" x="655.4431" y="-43.8" font-family="Helvetica,sans-Serif" font-size="11.00" fill="#000000"> &#160;</text>
<polygon fill="#ffffff" stroke="transparent" points="685,-38.7 685,-55.7 738,-55.7 738,-38.7 685,-38.7"/>
<text text-anchor="start" x="729.8862" y="-43.8" font-family="Helvetica,sans-Serif" font-size="11.00" fill="#000000"> &#160;</text>
<polygon fill="#000000" stroke="#000000" points="632,-38.7 632,-55.7 632,-55.7 632,-38.7 632,-38.7"/>
<polygon fill="#000000" stroke="#000000" points="685,-38.7 685,-55.7 685,-55.7 685,-38.7 685,-38.7"/>
</a>
</g>
</g>
<!-- transcription_jobs&#45;&gt;summaries -->
<g id="edge8" class="edge">
<title>transcription_jobs:w&#45;&gt;summaries:e</title>
<path fill="none" stroke="#000000" d="M553.5269,-67.6597C486.5705,-88.2233 582.0139,-263.7 493.5,-263.7"/>
<polygon fill="#000000" stroke="#000000" points="560.0723,-66.7735 568.4831,-69.2674 564.0362,-66.2367 568,-65.7 568,-65.7 568,-65.7 564.0362,-66.2367 567.5169,-62.1326 560.0723,-66.7735 560.0723,-66.7735"/>
<ellipse fill="none" stroke="#000000" cx="556.9013" cy="-67.2028" rx="3.2" ry="3.2"/>
</g>
<!-- transcription_jobs&#45;&gt;users -->
<g id="edge9" class="edge">
<title>transcription_jobs:w&#45;&gt;users:e</title>
<path fill="none" stroke="#000000" d="M553.4755,-65.6537C367.0347,-64.4712 301.4778,-41.7499 127,-123.7 104.5118,-134.2624 110.8452,-161.7 86,-161.7"/>
<polygon fill="#000000" stroke="#000000" points="560,-65.6744 567.9885,-69.3 564,-65.6872 568,-65.7 568,-65.7 568,-65.7 564,-65.6872 568.0115,-62.1 560,-65.6744 560,-65.6744"/>
<ellipse fill="none" stroke="#000000" cx="556.8001" cy="-65.6642" rx="3.2" ry="3.2"/>
</g>
</g>
</svg>
