<?xml version="1.0" encoding="UTF-8" standalone="no"?>
<!DOCTYPE svg PUBLIC "-//W3C//DTD SVG 1.1//EN"
 "http://www.w3.org/Graphics/SVG/1.1/DTD/svg11.dtd">
<!-- Generated by graphviz version 2.40.1 (20161225.0304)
 -->
<!-- Title: twoDegreesRelationshipsDiagram Pages: 1 -->
<svg width="784pt" height="514pt"
 viewBox="0.00 0.00 784.00 513.70" xmlns="http://www.w3.org/2000/svg" xmlns:xlink="http://www.w3.org/1999/xlink">
<g id="graph0" class="graph" transform="scale(1 1) rotate(0) translate(4 509.7)">
<title>twoDegreesRelationshipsDiagram</title>
<polygon fill="#ffffff" stroke="transparent" points="-4,4 -4,-509.7 780,-509.7 780,4 -4,4"/>
<text text-anchor="middle" x="72.4936" y="-7.3" font-family="Helvetica,sans-Serif" font-size="11.00" fill="#000000">Generated by SchemaSpy</text>
<!-- oauth_identities -->
<g id="node1" class="node">
<title>oauth_identities</title>
<g id="a_node1"><a xlink:href="../../tables/oauth_identities.html" xlink:title="oauth_identities" target="_top">
<polygon fill="#ffffff" stroke="transparent" points="191.5,-440.7 191.5,-501.7 348.5,-501.7 348.5,-440.7 191.5,-440.7"/>
<polygon fill="#f5f5f5" stroke="transparent" points="192,-478.2 192,-501.2 349,-501.2 349,-478.2 192,-478.2"/>
<polygon fill="none" stroke="#000000" points="192,-478.2 192,-501.2 349,-501.2 349,-478.2 192,-478.2"/>
<text text-anchor="start" x="197" y="-486.8" font-family="Helvetica,sans-Serif" font-weight="bold" font-size="11.00" fill="#000000">oauth_identities</text>
<text text-anchor="start" x="314.5219" y="-486.3" font-family="Helvetica,sans-Serif" font-size="11.00" fill="#000000">[table]</text>
<polygon fill="none" stroke="#000000" points="192,-459.2 192,-478.2 349,-478.2 349,-459.2 192,-459.2"/>
<text text-anchor="start" x="195" y="-465.3" font-family="Helvetica,sans-Serif" font-size="11.00" fill="#000000">...</text>
<polygon fill="#ffffff" stroke="transparent" points="192,-440.2 192,-459.2 349,-459.2 349,-440.2 192,-440.2"/>
<polygon fill="none" stroke="#000000" points="192,-440.2 192,-459.2 349,-459.2 349,-440.2 192,-440.2"/>
<polygon fill="#ffffff" stroke="transparent" points="193,-441.2 193,-458.2 251,-458.2 251,-441.2 193,-441.2"/>
<text text-anchor="start" x="195" y="-446.3" font-family="Helvetica,sans-Serif" font-size="11.00" fill="#000000">&lt; 1</text>
<polygon fill="#ffffff" stroke="transparent" points="251,-441.2 251,-458.2 300,-458.2 300,-441.2 251,-441.2"/>
<text text-anchor="start" x="272.4431" y="-446.3" font-family="Helvetica,sans-Serif" font-size="11.00" fill="#000000"> &#160;</text>
<polygon fill="#ffffff" stroke="transparent" points="300,-441.2 300,-458.2 348,-458.2 348,-441.2 300,-441.2"/>
<text text-anchor="start" x="339.8862" y="-446.3" font-family="Helvetica,sans-Serif" font-size="11.00" fill="#000000"> &#160;</text>
<polygon fill="#000000" stroke="#000000" points="251,-441.2 251,-458.2 251,-458.2 251,-441.2 251,-441.2"/>
<polygon fill="#000000" stroke="#000000" points="300,-441.2 300,-458.2 300,-458.2 300,-441.2 300,-441.2"/>
</a>
</g>
</g>
<!-- users -->
<g id="node2" class="node">
<title>users</title>
<g id="a_node2"><a xlink:href="../../tables/users.html" xlink:title="users" target="_top">
<polygon fill="#ffffff" stroke="transparent" points="8,-340.7 8,-423.7 111,-423.7 111,-340.7 8,-340.7"/>
<polygon fill="#f5f5f5" stroke="transparent" points="8.5,-400.2 8.5,-423.2 111.5,-423.2 111.5,-400.2 8.5,-400.2"/>
<polygon fill="none" stroke="#000000" points="8.5,-400.2 8.5,-423.2 111.5,-423.2 111.5,-400.2 8.5,-400.2"/>
<text text-anchor="start" x="13.5" y="-408.8" font-family="Helvetica,sans-Serif" font-weight="bold" font-size="11.00" fill="#000000">users</text>
<text text-anchor="start" x="76.5437" y="-408.3" font-family="Helvetica,sans-Serif" font-size="11.00" fill="#000000">[table]</text>
<polygon fill="none" stroke="#000000" points="8.5,-378.2 8.5,-400.2 111.5,-400.2 111.5,-378.2 8.5,-378.2"/>
<image xlink:href="../../images/primaryKeys.png" width="11px" height="12px" preserveAspectRatio="xMinYMin meet" x="13.5" y="-395.2"/>
<text text-anchor="start" x="28.5" y="-385.3" font-family="Helvetica,sans-Serif" font-size="11.00" fill="#000000">id</text>
<polygon fill="none" stroke="#000000" points="8.5,-359.2 8.5,-378.2 111.5,-378.2 111.5,-359.2 8.5,-359.2"/>
<text text-anchor="start" x="11.5" y="-365.3" font-family="Helvetica,sans-Serif" font-size="11.00" fill="#000000">...</text>
<polygon fill="#ffffff" stroke="transparent" points="8.5,-340.2 8.5,-359.2 111.5,-359.2 111.5,-340.2 8.5,-340.2"/>
<polygon fill="none" stroke="#000000" points="8.5,-340.2 8.5,-359.2 111.5,-359.2 111.5,-340.2 8.5,-340.2"/>
<polygon fill="#ffffff" stroke="transparent" points="9.5,-341.2 9.5,-358.2 40.5,-358.2 40.5,-341.2 9.5,-341.2"/>
<text text-anchor="start" x="11.5" y="-346.3" font-family="Helvetica,sans-Serif" font-size="11.00" fill="#000000"> &#160;</text>
<polygon fill="#ffffff" stroke="transparent" points="40.5,-341.2 40.5,-358.2 71.5,-358.2 71.5,-341.2 40.5,-341.2"/>
<text text-anchor="start" x="52.9431" y="-346.3" font-family="Helvetica,sans-Serif" font-size="11.00" fill="#000000"> &#160;</text>
<polygon fill="#ffffff" stroke="transparent" points="71.5,-341.2 71.5,-358.2 110.5,-358.2 110.5,-341.2 71.5,-341.2"/>
<text text-anchor="start" x="92.9053" y="-346.3" font-family="Helvetica,sans-Serif" font-size="11.00" fill="#000000">5 &gt;</text>
<polygon fill="#000000" stroke="#000000" points="40.5,-341.2 40.5,-358.2 40.5,-358.2 40.5,-341.2 40.5,-341.2"/>
<polygon fill="#000000" stroke="#000000" points="71.5,-341.2 71.5,-358.2 71.5,-358.2 71.5,-341.2 71.5,-341.2"/>
</a>
</g>
</g>
<!-- oauth_identities&#45;&gt;users -->
<g id="edge1" class="edge">
<title>oauth_identities:w&#45;&gt;users:e</title>
<path fill="none" stroke="#000000" d="M177.4515,-465.3883C145.451,-451.3153 155.9496,-389.2 111.5,-389.2"/>
<polygon fill="#000000" stroke="#000000" points="184.1453,-466.682 191.3169,-471.7346 188.0727,-467.441 192,-468.2 192,-468.2 192,-468.2 188.0727,-467.441 192.6831,-464.6654 184.1453,-466.682 184.1453,-466.682"/>
<ellipse fill="none" stroke="#000000" cx="181.0035" cy="-466.0747" rx="3.2" ry="3.2"/>
</g>
<!-- summaries -->
<g id="node3" class="node">
<title>summaries</title>
<g id="a_node3"><a xlink:href="../../tables/summaries.html" xlink:title="summaries" target="_top">
<polygon fill="#ffffff" stroke="transparent" points="429,-330.7 429,-391.7 548,-391.7 548,-330.7 429,-330.7"/>
<polygon fill="#f5f5f5" stroke="transparent" points="429.5,-368.2 429.5,-391.2 548.5,-391.2 548.5,-368.2 429.5,-368.2"/>
<polygon fill="none" stroke="#000000" points="429.5,-368.2 429.5,-391.2 548.5,-391.2 548.5,-368.2 429.5,-368.2"/>
<text text-anchor="start" x="434.5" y="-376.8" font-family="Helvetica,sans-Serif" font-weight="bold" font-size="11.00" fill="#000000">summaries</text>
<text text-anchor="start" x="514.0219" y="-376.3" font-family="Helvetica,sans-Serif" font-size="11.00" fill="#000000">[table]</text>
<polygon fill="none" stroke="#000000" points="429.5,-349.2 429.5,-368.2 548.5,-368.2 548.5,-349.2 429.5,-349.2"/>
<text text-anchor="start" x="432.5" y="-355.3" font-family="Helvetica,sans-Serif" font-size="11.00" fill="#000000">...</text>
<polygon fill="#ffffff" stroke="transparent" points="429.5,-330.2 429.5,-349.2 548.5,-349.2 548.5,-330.2 429.5,-330.2"/>
<polygon fill="none" stroke="#000000" points="429.5,-330.2 429.5,-349.2 548.5,-349.2 548.5,-330.2 429.5,-330.2"/>
<polygon fill="#ffffff" stroke="transparent" points="430.5,-331.2 430.5,-348.2 472.5,-348.2 472.5,-331.2 430.5,-331.2"/>
<text text-anchor="start" x="432.5" y="-336.3" font-family="Helvetica,sans-Serif" font-size="11.00" fill="#000000">&lt; 2</text>
<polygon fill="#ffffff" stroke="transparent" points="472.5,-331.2 472.5,-348.2 505.5,-348.2 505.5,-331.2 472.5,-331.2"/>
<text text-anchor="start" x="485.9431" y="-336.3" font-family="Helvetica,sans-Serif" font-size="11.00" fill="#000000"> &#160;</text>
<polygon fill="#ffffff" stroke="transparent" points="505.5,-331.2 505.5,-348.2 547.5,-348.2 547.5,-331.2 505.5,-331.2"/>
<text text-anchor="start" x="529.9053" y="-336.3" font-family="Helvetica,sans-Serif" font-size="11.00" fill="#000000">5 &gt;</text>
<polygon fill="#000000" stroke="#000000" points="472.5,-331.2 472.5,-348.2 472.5,-348.2 472.5,-331.2 472.5,-331.2"/>
<polygon fill="#000000" stroke="#000000" points="505.5,-331.2 505.5,-348.2 505.5,-348.2 505.5,-331.2 505.5,-331.2"/>
</a>
</g>
</g>
<!-- summaries&#45;&gt;users -->
<g id="edge3" class="edge">
<title>summaries:w&#45;&gt;users:e</title>
<path fill="none" stroke="#000000" d="M415.2486,-361.1317C406.6696,-365.1407 401.5259,-372.1798 388,-375.2 267.9111,-402.015 234.5463,-389.2 111.5,-389.2"/>
<polygon fill="#000000" stroke="#000000" points="421.6641,-359.812 430.2254,-361.7262 425.582,-359.006 429.5,-358.2 429.5,-358.2 429.5,-358.2 425.582,-359.006 428.7746,-354.6738 421.6641,-359.812 421.6641,-359.812"/>
<ellipse fill="none" stroke="#000000" cx="418.5297" cy="-360.4568" rx="3.2" ry="3.2"/>
</g>
<!-- summary_groups -->
<g id="node4" class="node">
<title>summary_groups</title>
<g id="a_node4"><a xlink:href="../../tables/summary_groups.html" xlink:title="summary_groups" target="_top">
<polygon fill="#ffffff" stroke="transparent" points="188,-303.7 188,-364.7 352,-364.7 352,-303.7 188,-303.7"/>
<polygon fill="#f5f5f5" stroke="transparent" points="188,-341.2 188,-364.2 352,-364.2 352,-341.2 188,-341.2"/>
<polygon fill="none" stroke="#000000" points="188,-341.2 188,-364.2 352,-364.2 352,-341.2 188,-341.2"/>
<text text-anchor="start" x="193" y="-349.8" font-family="Helvetica,sans-Serif" font-weight="bold" font-size="11.00" fill="#000000">summary_groups</text>
<text text-anchor="start" x="317.5219" y="-349.3" font-family="Helvetica,sans-Serif" font-size="11.00" fill="#000000">[table]</text>
<polygon fill="none" stroke="#000000" points="188,-322.2 188,-341.2 352,-341.2 352,-322.2 188,-322.2"/>
<text text-anchor="start" x="191" y="-328.3" font-family="Helvetica,sans-Serif" font-size="11.00" fill="#000000">...</text>
<polygon fill="#ffffff" stroke="transparent" points="188,-303.2 188,-322.2 352,-322.2 352,-303.2 188,-303.2"/>
<polygon fill="none" stroke="#000000" points="188,-303.2 188,-322.2 352,-322.2 352,-303.2 188,-303.2"/>
<polygon fill="#ffffff" stroke="transparent" points="189,-304.2 189,-321.2 246,-321.2 246,-304.2 189,-304.2"/>
<text text-anchor="start" x="191" y="-309.3" font-family="Helvetica,sans-Serif" font-size="11.00" fill="#000000">&lt; 1</text>
<polygon fill="#ffffff" stroke="transparent" points="246,-304.2 246,-321.2 294,-321.2 294,-304.2 246,-304.2"/>
<text text-anchor="start" x="266.9431" y="-309.3" font-family="Helvetica,sans-Serif" font-size="11.00" fill="#000000"> &#160;</text>
<polygon fill="#ffffff" stroke="transparent" points="294,-304.2 294,-321.2 351,-321.2 351,-304.2 294,-304.2"/>
<text text-anchor="start" x="333.4053" y="-309.3" font-family="Helvetica,sans-Serif" font-size="11.00" fill="#000000">1 &gt;</text>
<polygon fill="#000000" stroke="#000000" points="246,-304.2 246,-321.2 246,-321.2 246,-304.2 246,-304.2"/>
<polygon fill="#000000" stroke="#000000" points="294,-304.2 294,-321.2 294,-321.2 294,-304.2 294,-304.2"/>
</a>
</g>
</g>
<!-- summaries&#45;&gt;summary_groups -->
<g id="edge2" class="edge">
<title>summaries:w&#45;&gt;summary_groups:e</title>
<path fill="none" stroke="#000000" d="M415.1587,-356.5919C390.9708,-350.7793 383.0607,-331.2 352,-331.2"/>
<polygon fill="#000000" stroke="#000000" points="421.5498,-357.3085 429.0988,-361.7776 425.5249,-357.7542 429.5,-358.2 429.5,-358.2 429.5,-358.2 425.5249,-357.7542 429.9012,-354.6224 421.5498,-357.3085 421.5498,-357.3085"/>
<ellipse fill="none" stroke="#000000" cx="418.3698" cy="-356.9519" rx="3.2" ry="3.2"/>
</g>
<!-- summary_groups&#45;&gt;users -->
<g id="edge4" class="edge">
<title>summary_groups:w&#45;&gt;users:e</title>
<path fill="none" stroke="#000000" d="M173.4838,-333.9975C146.771,-345.5832 148.5005,-389.2 111.5,-389.2"/>
<polygon fill="#000000" stroke="#000000" points="180.1445,-332.7139 188.6813,-334.735 184.0723,-331.9569 188,-331.2 188,-331.2 188,-331.2 184.0723,-331.9569 187.3187,-327.665 180.1445,-332.7139 180.1445,-332.7139"/>
<ellipse fill="none" stroke="#000000" cx="177.0024" cy="-333.3195" rx="3.2" ry="3.2"/>
</g>
<!-- transcription_jobs -->
<g id="node5" class="node">
<title>transcription_jobs</title>
<g id="a_node5"><a xlink:href="../../tables/transcription_jobs.html" xlink:title="transcription_jobs" target="_top">
<polygon fill="#ffffff" stroke="transparent" points="597,-359.7 597,-420.7 768,-420.7 768,-359.7 597,-359.7"/>
<polygon fill="#f5f5f5" stroke="transparent" points="597.5,-397.2 597.5,-420.2 768.5,-420.2 768.5,-397.2 597.5,-397.2"/>
<polygon fill="none" stroke="#000000" points="597.5,-397.2 597.5,-420.2 768.5,-420.2 768.5,-397.2 597.5,-397.2"/>
<text text-anchor="start" x="602.5" y="-405.8" font-family="Helvetica,sans-Serif" font-weight="bold" font-size="11.00" fill="#000000">transcription_jobs</text>
<text text-anchor="start" x="734.0219" y="-405.3" font-family="Helvetica,sans-Serif" font-size="11.00" fill="#000000">[table]</text>
<polygon fill="none" stroke="#000000" points="597.5,-378.2 597.5,-397.2 768.5,-397.2 768.5,-378.2 597.5,-378.2"/>
<text text-anchor="start" x="600.5" y="-384.3" font-family="Helvetica,sans-Serif" font-size="11.00" fill="#000000">...</text>
<polygon fill="#ffffff" stroke="transparent" points="597.5,-359.2 597.5,-378.2 768.5,-378.2 768.5,-359.2 597.5,-359.2"/>
<polygon fill="none" stroke="#000000" points="597.5,-359.2 597.5,-378.2 768.5,-378.2 768.5,-359.2 597.5,-359.2"/>
<polygon fill="#ffffff" stroke="transparent" points="598.5,-360.2 598.5,-377.2 661.5,-377.2 661.5,-360.2 598.5,-360.2"/>
<text text-anchor="start" x="600.5" y="-365.3" font-family="Helvetica,sans-Serif" font-size="11.00" fill="#000000">&lt; 2</text>
<polygon fill="#ffffff" stroke="transparent" points="661.5,-360.2 661.5,-377.2 714.5,-377.2 714.5,-360.2 661.5,-360.2"/>
<text text-anchor="start" x="684.9431" y="-365.3" font-family="Helvetica,sans-Serif" font-size="11.00" fill="#000000"> &#160;</text>
<polygon fill="#ffffff" stroke="transparent" points="714.5,-360.2 714.5,-377.2 767.5,-377.2 767.5,-360.2 714.5,-360.2"/>
<text text-anchor="start" x="759.3862" y="-365.3" font-family="Helvetica,sans-Serif" font-size="11.00" fill="#000000"> &#160;</text>
<polygon fill="#000000" stroke="#000000" points="661.5,-360.2 661.5,-377.2 661.5,-377.2 661.5,-360.2 661.5,-360.2"/>
<polygon fill="#000000" stroke="#000000" points="714.5,-360.2 714.5,-377.2 714.5,-377.2 714.5,-360.2 714.5,-360.2"/>
</a>
</g>
</g>
<!-- transcription_jobs&#45;&gt;users -->
<g id="edge6" class="edge">
<title>transcription_jobs:w&#45;&gt;users:e</title>
<path fill="none" stroke="#000000" d="M583.0752,-389.9974C574.6461,-393.6561 569.2812,-399.8734 556,-402.2 496.8999,-412.553 480.9916,-403.2033 421,-402.2 301.3943,-400.1997 271.3624,-401.0828 152,-393.2 133.9517,-392.0081 129.5876,-389.2 111.5,-389.2"/>
<polygon fill="#000000" stroke="#000000" points="589.6463,-388.7231 598.1854,-390.7342 593.5732,-387.9616 597.5,-387.2 597.5,-387.2 597.5,-387.2 593.5732,-387.9616 596.8146,-383.6658 589.6463,-388.7231 589.6463,-388.7231"/>
<ellipse fill="none" stroke="#000000" cx="586.5048" cy="-389.3323" rx="3.2" ry="3.2"/>
</g>
<!-- transcription_jobs&#45;&gt;summaries -->
<g id="edge5" class="edge">
<title>transcription_jobs:w&#45;&gt;summaries:e</title>
<path fill="none" stroke="#000000" d="M583.4495,-383.1677C571.471,-375.1993 567.8749,-358.2 548.5,-358.2"/>
<polygon fill="#000000" stroke="#000000" points="589.8104,-384.9931 596.5069,-390.6603 593.6552,-386.0966 597.5,-387.2 597.5,-387.2 597.5,-387.2 593.6552,-386.0966 598.4931,-383.7397 589.8104,-384.9931 589.8104,-384.9931"/>
<ellipse fill="none" stroke="#000000" cx="586.7346" cy="-384.1104" rx="3.2" ry="3.2"/>
</g>
<!-- user_sessions -->
<g id="node6" class="node">
<title>user_sessions</title>
<g id="a_node6"><a xlink:href="../../tables/user_sessions.html" xlink:title="user_sessions" target="_top">
<polygon fill="#ffffff" stroke="transparent" points="160,-38.2 160,-282.2 380,-282.2 380,-38.2 160,-38.2"/>
<polygon fill="#f5f5f5" stroke="transparent" points="162,-257.2 162,-280.2 378,-280.2 378,-257.2 162,-257.2"/>
<polygon fill="none" stroke="#000000" points="162,-257.2 162,-280.2 378,-280.2 378,-257.2 162,-257.2"/>
<text text-anchor="start" x="167" y="-265.8" font-family="Helvetica,sans-Serif" font-weight="bold" font-size="11.00" fill="#000000">user_sessions</text>
<text text-anchor="start" x="343.0437" y="-265.3" font-family="Helvetica,sans-Serif" font-size="11.00" fill="#000000">[table]</text>
<polygon fill="none" stroke="#000000" points="162,-235.2 162,-257.2 284,-257.2 284,-235.2 162,-235.2"/>
<image xlink:href="../../images/primaryKeys.png" width="11px" height="12px" preserveAspectRatio="xMinYMin meet" x="167" y="-252.2"/>
<text text-anchor="start" x="182" y="-242.3" font-family="Helvetica,sans-Serif" font-size="11.00" fill="#000000">id</text>
<polygon fill="none" stroke="#000000" points="284,-235.2 284,-257.2 378,-257.2 378,-235.2 284,-235.2"/>
<text text-anchor="start" x="286.9758" y="-242.9" font-family="Helvetica,sans-Serif" font-size="11.00" fill="#000000">uuid[2147483647]</text>
<polygon fill="#ffffff" stroke="transparent" points="162,-213.2 162,-235.2 284,-235.2 284,-213.2 162,-213.2"/>
<polygon fill="none" stroke="#000000" points="162,-213.2 162,-235.2 284,-235.2 284,-213.2 162,-213.2"/>
<image xlink:href="../../images/foreignKeys.png" width="11px" height="12px" preserveAspectRatio="xMinYMin meet" x="167" y="-230.2"/>
<text text-anchor="start" x="182" y="-220.3" font-family="Helvetica,sans-Serif" font-size="11.00" fill="#000000">user_id</text>
<polygon fill="none" stroke="#000000" points="284,-213.2 284,-235.2 378,-235.2 378,-213.2 284,-213.2"/>
<text text-anchor="start" x="286.9758" y="-220.9" font-family="Helvetica,sans-Serif" font-size="11.00" fill="#000000">uuid[2147483647]</text>
<polygon fill="#ffffff" stroke="transparent" points="162,-191.2 162,-213.2 284,-213.2 284,-191.2 162,-191.2"/>
<polygon fill="none" stroke="#000000" points="162,-191.2 162,-213.2 284,-213.2 284,-191.2 162,-191.2"/>
<text text-anchor="start" x="182" y="-198.3" font-family="Helvetica,sans-Serif" font-size="11.00" fill="#000000">token_hash</text>
<polygon fill="none" stroke="#000000" points="284,-191.2 284,-213.2 378,-213.2 378,-191.2 284,-191.2"/>
<text text-anchor="start" x="287" y="-198.9" font-family="Helvetica,sans-Serif" font-size="11.00" fill="#000000">varchar[64]</text>
<polygon fill="none" stroke="#000000" points="162,-169.2 162,-191.2 284,-191.2 284,-169.2 162,-169.2"/>
<text text-anchor="start" x="182" y="-176.3" font-family="Helvetica,sans-Serif" font-size="11.00" fill="#000000">created_at</text>
<polygon fill="none" stroke="#000000" points="284,-169.2 284,-191.2 378,-191.2 378,-169.2 284,-169.2"/>
<text text-anchor="start" x="287" y="-176.9" font-family="Helvetica,sans-Serif" font-size="11.00" fill="#000000">timestamptz[35,6]</text>
<polygon fill="#ffffff" stroke="transparent" points="162,-147.2 162,-169.2 284,-169.2 284,-147.2 162,-147.2"/>
<polygon fill="none" stroke="#000000" points="162,-147.2 162,-169.2 284,-169.2 284,-147.2 162,-147.2"/>
<text text-anchor="start" x="182" y="-154.3" font-family="Helvetica,sans-Serif" font-size="11.00" fill="#000000">expires_at</text>
<polygon fill="none" stroke="#000000" points="284,-147.2 284,-169.2 378,-169.2 378,-147.2 284,-147.2"/>
<text text-anchor="start" x="287" y="-154.9" font-family="Helvetica,sans-Serif" font-size="11.00" fill="#000000">timestamptz[35,6]</text>
<polygon fill="none" stroke="#000000" points="162,-125.2 162,-147.2 284,-147.2 284,-125.2 162,-125.2"/>
<text text-anchor="start" x="182" y="-132.3" font-family="Helvetica,sans-Serif" font-size="11.00" fill="#000000">last_seen_at</text>
<polygon fill="none" stroke="#000000" points="284,-125.2 284,-147.2 378,-147.2 378,-125.2 284,-125.2"/>
<text text-anchor="start" x="287" y="-132.9" font-family="Helvetica,sans-Serif" font-size="11.00" fill="#000000">timestamptz[35,6]</text>
<polygon fill="none" stroke="#000000" points="162,-103.2 162,-125.2 284,-125.2 284,-103.2 162,-103.2"/>
<text text-anchor="start" x="182" y="-110.3" font-family="Helvetica,sans-Serif" font-size="11.00" fill="#000000">revoked_at</text>
<polygon fill="none" stroke="#000000" points="284,-103.2 284,-125.2 378,-125.2 378,-103.2 284,-103.2"/>
<text text-anchor="start" x="287" y="-110.9" font-family="Helvetica,sans-Serif" font-size="11.00" fill="#000000">timestamptz[35,6]</text>
<polygon fill="none" stroke="#000000" points="162,-81.2 162,-103.2 284,-103.2 284,-81.2 162,-81.2"/>
<text text-anchor="start" x="182" y="-88.3" font-family="Helvetica,sans-Serif" font-size="11.00" fill="#000000">user_agent</text>
<polygon fill="none" stroke="#000000" points="284,-81.2 284,-103.2 378,-103.2 378,-81.2 284,-81.2"/>
<text text-anchor="start" x="287" y="-88.9" font-family="Helvetica,sans-Serif" font-size="11.00" fill="#000000">varchar[512]</text>
<polygon fill="none" stroke="#000000" points="162,-59.2 162,-81.2 284,-81.2 284,-59.2 162,-59.2"/>
<text text-anchor="start" x="182" y="-66.3" font-family="Helvetica,sans-Serif" font-size="11.00" fill="#000000">ip_address</text>
<polygon fill="none" stroke="#000000" points="284,-59.2 284,-81.2 378,-81.2 378,-59.2 284,-59.2"/>
<text text-anchor="start" x="287" y="-66.9" font-family="Helvetica,sans-Serif" font-size="11.00" fill="#000000">varchar[45]</text>
<polygon fill="#ffffff" stroke="transparent" points="162,-40.2 162,-59.2 378,-59.2 378,-40.2 162,-40.2"/>
<polygon fill="none" stroke="#000000" points="162,-40.2 162,-59.2 378,-59.2 378,-40.2 162,-40.2"/>
<polygon fill="#ffffff" stroke="transparent" points="163,-41.2 163,-58.2 238,-58.2 238,-41.2 163,-41.2"/>
<text text-anchor="start" x="165" y="-46.3" font-family="Helvetica,sans-Serif" font-size="11.00" fill="#000000">&lt; 1</text>
<polygon fill="#ffffff" stroke="transparent" points="238,-41.2 238,-58.2 303,-58.2 303,-41.2 238,-41.2"/>
<text text-anchor="start" x="267.4431" y="-46.3" font-family="Helvetica,sans-Serif" font-size="11.00" fill="#000000"> &#160;</text>
<polygon fill="#ffffff" stroke="transparent" points="303,-41.2 303,-58.2 377,-58.2 377,-41.2 303,-41.2"/>
<text text-anchor="start" x="359.4053" y="-46.3" font-family="Helvetica,sans-Serif" font-size="11.00" fill="#000000">0 &gt;</text>
<polygon fill="#000000" stroke="#000000" points="238,-41.2 238,-58.2 238,-58.2 238,-41.2 238,-41.2"/>
<polygon fill="#000000" stroke="#000000" points="303,-41.2 303,-58.2 303,-58.2 303,-41.2 303,-41.2"/>
<polygon fill="none" stroke="#000000" stroke-width="2" points="161,-39.2 161,-281.2 379,-281.2 379,-39.2 161,-39.2"/>
</a>
</g>
</g>
<!-- user_sessions&#45;&gt;users -->
<g id="edge7" class="edge">
<title>user_sessions:w&#45;&gt;users:e</title>
<path fill="none" stroke="#000000" d="M147.7449,-226.7918C99.5913,-247.7833 182.4992,-389.2 111.5,-389.2"/>
<polygon fill="#000000" stroke="#000000" points="154.129,-225.6311 162.644,-227.7419 158.0645,-224.9155 162,-224.2 162,-224.2 162,-224.2 158.0645,-224.9155 161.356,-220.6581 154.129,-225.6311 154.129,-225.6311"/>
<ellipse fill="none" stroke="#000000" cx="150.9806" cy="-226.2035" rx="3.2" ry="3.2"/>
</g>
</g>
</svg>
