<?xml version="1.0" encoding="UTF-8" standalone="no"?>
<!DOCTYPE svg PUBLIC "-//W3C//DTD SVG 1.1//EN"
 "http://www.w3.org/Graphics/SVG/1.1/DTD/svg11.dtd">
<!-- Generated by graphviz version 2.40.1 (20161225.0304)
 -->
<!-- Title: twoDegreesRelationshipsDiagram Pages: 1 -->
<svg width="873pt" height="630pt"
 viewBox="0.00 0.00 873.00 630.20" xmlns="http://www.w3.org/2000/svg" xmlns:xlink="http://www.w3.org/1999/xlink">
<g id="graph0" class="graph" transform="scale(1 1) rotate(0) translate(4 626.2)">
<title>twoDegreesRelationshipsDiagram</title>
<polygon fill="#ffffff" stroke="transparent" points="-4,4 -4,-626.2 869,-626.2 869,4 -4,4"/>
<text text-anchor="middle" x="72.4936" y="-7.3" font-family="Helvetica,sans-Serif" font-size="11.00" fill="#000000">Generated by SchemaSpy</text>
<!-- action_items -->
<g id="node1" class="node">
<title>action_items</title>
<g id="a_node1"><a xlink:href="../../tables/action_items.html" xlink:title="action_items" target="_top">
<polygon fill="#ffffff" stroke="transparent" points="697,-557.2 697,-618.2 828,-618.2 828,-557.2 697,-557.2"/>
<polygon fill="#f5f5f5" stroke="transparent" points="697.5,-594.7 697.5,-617.7 828.5,-617.7 828.5,-594.7 697.5,-594.7"/>
<polygon fill="none" stroke="#000000" points="697.5,-594.7 697.5,-617.7 828.5,-617.7 828.5,-594.7 697.5,-594.7"/>
<text text-anchor="start" x="702.5" y="-603.3" font-family="Helvetica,sans-Serif" font-weight="bold" font-size="11.00" fill="#000000">action_items</text>
<text text-anchor="start" x="794.0219" y="-602.8" font-family="Helvetica,sans-Serif" font-size="11.00" fill="#000000">[table]</text>
<polygon fill="none" stroke="#000000" points="697.5,-575.7 697.5,-594.7 828.5,-594.7 828.5,-575.7 697.5,-575.7"/>
<text text-anchor="start" x="700.5" y="-581.8" font-family="Helvetica,sans-Serif" font-size="11.00" fill="#000000">...</text>
<polygon fill="#ffffff" stroke="transparent" points="697.5,-556.7 697.5,-575.7 828.5,-575.7 828.5,-556.7 697.5,-556.7"/>
<polygon fill="none" stroke="#000000" points="697.5,-556.7 697.5,-575.7 828.5,-575.7 828.5,-556.7 697.5,-556.7"/>
<polygon fill="#ffffff" stroke="transparent" points="698.5,-557.7 698.5,-574.7 747.5,-574.7 747.5,-557.7 698.5,-557.7"/>
<text text-anchor="start" x="700.5" y="-562.8" font-family="Helvetica,sans-Serif" font-size="11.00" fill="#000000">&lt; 1</text>
<polygon fill="#ffffff" stroke="transparent" points="747.5,-557.7 747.5,-574.7 787.5,-574.7 787.5,-557.7 747.5,-557.7"/>
<text text-anchor="start" x="764.4431" y="-562.8" font-family="Helvetica,sans-Serif" font-size="11.00" fill="#000000"> &#160;</text>
<polygon fill="#ffffff" stroke="transparent" points="787.5,-557.7 787.5,-574.7 827.5,-574.7 827.5,-557.7 787.5,-557.7"/>
<text text-anchor="start" x="819.3862" y="-562.8" font-family="Helvetica,sans-Serif" font-size="11.00" fill="#000000"> &#160;</text>
<polygon fill="#000000" stroke="#000000" points="747.5,-557.7 747.5,-574.7 747.5,-574.7 747.5,-557.7 747.5,-557.7"/>
<polygon fill="#000000" stroke="#000000" points="787.5,-557.7 787.5,-574.7 787.5,-574.7 787.5,-557.7 787.5,-557.7"/>
</a>
</g>
</g>
<!-- summaries -->
<g id="node2" class="node">
<title>summaries</title>
<g id="a_node2"><a xlink:href="../../tables/summaries.html" xlink:title="summaries" target="_top">
<polygon fill="#ffffff" stroke="transparent" points="500,-406.2 500,-467.2 619,-467.2 619,-406.2 500,-406.2"/>
<polygon fill="#f5f5f5" stroke="transparent" points="500.5,-443.7 500.5,-466.7 619.5,-466.7 619.5,-443.7 500.5,-443.7"/>
<polygon fill="none" stroke="#000000" points="500.5,-443.7 500.5,-466.7 619.5,-466.7 619.5,-443.7 500.5,-443.7"/>
<text text-anchor="start" x="505.5" y="-452.3" font-family="Helvetica,sans-Serif" font-weight="bold" font-size="11.00" fill="#000000">summaries</text>
<text text-anchor="start" x="585.0219" y="-451.8" font-family="Helvetica,sans-Serif" font-size="11.00" fill="#000000">[table]</text>
<polygon fill="none" stroke="#000000" points="500.5,-424.7 500.5,-443.7 619.5,-443.7 619.5,-424.7 500.5,-424.7"/>
<text text-anchor="start" x="503.5" y="-430.8" font-family="Helvetica,sans-Serif" font-size="11.00" fill="#000000">...</text>
<polygon fill="#ffffff" stroke="transparent" points="500.5,-405.7 500.5,-424.7 619.5,-424.7 619.5,-405.7 500.5,-405.7"/>
<polygon fill="none" stroke="#000000" points="500.5,-405.7 500.5,-424.7 619.5,-424.7 619.5,-405.7 500.5,-405.7"/>
<polygon fill="#ffffff" stroke="transparent" points="501.5,-406.7 501.5,-423.7 543.5,-423.7 543.5,-406.7 501.5,-406.7"/>
<text text-anchor="start" x="503.5" y="-411.8" font-family="Helvetica,sans-Serif" font-size="11.00" fill="#000000">&lt; 2</text>
<polygon fill="#ffffff" stroke="transparent" points="543.5,-406.7 543.5,-423.7 576.5,-423.7 576.5,-406.7 543.5,-406.7"/>
<text text-anchor="start" x="556.9431" y="-411.8" font-family="Helvetica,sans-Serif" font-size="11.00" fill="#000000"> &#160;</text>
<polygon fill="#ffffff" stroke="transparent" points="576.5,-406.7 576.5,-423.7 618.5,-423.7 618.5,-406.7 576.5,-406.7"/>
<text text-anchor="start" x="600.9053" y="-411.8" font-family="Helvetica,sans-Serif" font-size="11.00" fill="#000000">5 &gt;</text>
<polygon fill="#000000" stroke="#000000" points="543.5,-406.7 543.5,-423.7 543.5,-423.7 543.5,-406.7 543.5,-406.7"/>
<polygon fill="#000000" stroke="#000000" points="576.5,-406.7 576.5,-423.7 576.5,-423.7 576.5,-406.7 576.5,-406.7"/>
</a>
</g>
</g>
<!-- action_items&#45;&gt;summaries -->
<g id="edge1" class="edge">
<title>action_items:w&#45;&gt;summaries:e</title>
<path fill="none" stroke="#000000" d="M683.0679,-583.4109C629.2608,-573.7257 592.2423,-511.6408 573.5653,-471.3994"/>
<polygon fill="#000000" stroke="#000000" points="689.5317,-583.9882 697.1797,-588.2857 693.5159,-584.3441 697.5,-584.7 697.5,-584.7 697.5,-584.7 693.5159,-584.3441 697.8203,-581.1143 689.5317,-583.9882 689.5317,-583.9882"/>
<ellipse fill="none" stroke="#000000" cx="686.3444" cy="-583.7035" rx="3.2" ry="3.2"/>
</g>
<!-- users -->
<g id="node5" class="node">
<title>users</title>
<g id="a_node5"><a xlink:href="../../tables/users.html" xlink:title="users" target="_top">
<polygon fill="#ffffff" stroke="transparent" points="8,-164.7 8,-364.7 238,-364.7 238,-164.7 8,-164.7"/>
<polygon fill="#f5f5f5" stroke="transparent" points="10,-339.7 10,-362.7 236,-362.7 236,-339.7 10,-339.7"/>
<polygon fill="none" stroke="#000000" points="10,-339.7 10,-362.7 236,-362.7 236,-339.7 10,-339.7"/>
<text text-anchor="start" x="15" y="-348.3" font-family="Helvetica,sans-Serif" font-weight="bold" font-size="11.00" fill="#000000">users</text>
<text text-anchor="start" x="201.0437" y="-347.8" font-family="Helvetica,sans-Serif" font-size="11.00" fill="#000000">[table]</text>
<polygon fill="none" stroke="#000000" points="10,-317.7 10,-339.7 113,-339.7 113,-317.7 10,-317.7"/>
<image xlink:href="../../images/primaryKeys.png" width="11px" height="12px" preserveAspectRatio="xMinYMin meet" x="15" y="-334.7"/>
<text text-anchor="start" x="30" y="-324.8" font-family="Helvetica,sans-Serif" font-size="11.00" fill="#000000">id</text>
<polygon fill="none" stroke="#000000" points="113,-317.7 113,-339.7 236,-339.7 236,-317.7 113,-317.7"/>
<text text-anchor="start" x="116" y="-325.4" font-family="Helvetica,sans-Serif" font-size="11.00" fill="#000000">uuid[2147483647]</text>
<polygon fill="none" stroke="#000000" points="10,-295.7 10,-317.7 113,-317.7 113,-295.7 10,-295.7"/>
<text text-anchor="start" x="30" y="-302.8" font-family="Helvetica,sans-Serif" font-size="11.00" fill="#000000">email</text>
<polygon fill="none" stroke="#000000" points="113,-295.7 113,-317.7 236,-317.7 236,-295.7 113,-295.7"/>
<text text-anchor="start" x="116" y="-303.4" font-family="Helvetica,sans-Serif" font-size="11.00" fill="#000000">varchar[320]</text>
<polygon fill="none" stroke="#000000" points="10,-273.7 10,-295.7 113,-295.7 113,-273.7 10,-273.7"/>
<text text-anchor="start" x="30" y="-280.8" font-family="Helvetica,sans-Serif" font-size="11.00" fill="#000000">name</text>
<polygon fill="none" stroke="#000000" points="113,-273.7 113,-295.7 236,-295.7 236,-273.7 113,-273.7"/>
<text text-anchor="start" x="116" y="-281.4" font-family="Helvetica,sans-Serif" font-size="11.00" fill="#000000">varchar[255]</text>
<polygon fill="none" stroke="#000000" points="10,-251.7 10,-273.7 113,-273.7 113,-251.7 10,-251.7"/>
<text text-anchor="start" x="30" y="-258.8" font-family="Helvetica,sans-Serif" font-size="11.00" fill="#000000">created_at</text>
<polygon fill="none" stroke="#000000" points="113,-251.7 113,-273.7 236,-273.7 236,-251.7 113,-251.7"/>
<text text-anchor="start" x="116" y="-259.4" font-family="Helvetica,sans-Serif" font-size="11.00" fill="#000000">timestamptz[35,6]</text>
<polygon fill="none" stroke="#000000" points="10,-229.7 10,-251.7 113,-251.7 113,-229.7 10,-229.7"/>
<text text-anchor="start" x="30" y="-236.8" font-family="Helvetica,sans-Serif" font-size="11.00" fill="#000000">updated_at</text>
<polygon fill="none" stroke="#000000" points="113,-229.7 113,-251.7 236,-251.7 236,-229.7 113,-229.7"/>
<text text-anchor="start" x="116" y="-237.4" font-family="Helvetica,sans-Serif" font-size="11.00" fill="#000000">timestamptz[35,6]</text>
<polygon fill="none" stroke="#000000" points="10,-207.7 10,-229.7 113,-229.7 113,-207.7 10,-207.7"/>
<text text-anchor="start" x="30" y="-214.8" font-family="Helvetica,sans-Serif" font-size="11.00" fill="#000000">role</text>
<polygon fill="none" stroke="#000000" points="113,-207.7 113,-229.7 236,-229.7 236,-207.7 113,-207.7"/>
<text text-anchor="start" x="116" y="-215.4" font-family="Helvetica,sans-Serif" font-size="11.00" fill="#000000">userrole[2147483647]</text>
<polygon fill="none" stroke="#000000" points="10,-185.7 10,-207.7 113,-207.7 113,-185.7 10,-185.7"/>
<text text-anchor="start" x="30" y="-192.8" font-family="Helvetica,sans-Serif" font-size="11.00" fill="#000000">status</text>
<polygon fill="none" stroke="#000000" points="113,-185.7 113,-207.7 236,-207.7 236,-185.7 113,-185.7"/>
<text text-anchor="start" x="115.501" y="-193.4" font-family="Helvetica,sans-Serif" font-size="11.00" fill="#000000">userstatus[2147483647]</text>
<polygon fill="#ffffff" stroke="transparent" points="10,-166.7 10,-185.7 236,-185.7 236,-166.7 10,-166.7"/>
<polygon fill="none" stroke="#000000" points="10,-166.7 10,-185.7 236,-185.7 236,-166.7 10,-166.7"/>
<polygon fill="#ffffff" stroke="transparent" points="11,-167.7 11,-184.7 89,-184.7 89,-167.7 11,-167.7"/>
<text text-anchor="start" x="13" y="-172.8" font-family="Helvetica,sans-Serif" font-size="11.00" fill="#000000">&lt; 0</text>
<polygon fill="#ffffff" stroke="transparent" points="89,-167.7 89,-184.7 158,-184.7 158,-167.7 89,-167.7"/>
<text text-anchor="start" x="120.4431" y="-172.8" font-family="Helvetica,sans-Serif" font-size="11.00" fill="#000000"> &#160;</text>
<polygon fill="#ffffff" stroke="transparent" points="158,-167.7 158,-184.7 235,-184.7 235,-167.7 158,-167.7"/>
<text text-anchor="start" x="217.4053" y="-172.8" font-family="Helvetica,sans-Serif" font-size="11.00" fill="#000000">5 &gt;</text>
<polygon fill="#000000" stroke="#000000" points="89,-167.7 89,-184.7 89,-184.7 89,-167.7 89,-167.7"/>
<polygon fill="#000000" stroke="#000000" points="158,-167.7 158,-184.7 158,-184.7 158,-167.7 158,-167.7"/>
<polygon fill="none" stroke="#000000" stroke-width="2" points="9,-165.7 9,-363.7 237,-363.7 237,-165.7 9,-165.7"/>
</a>
</g>
</g>
<!-- summaries&#45;&gt;users -->
<g id="edge5" class="edge">
<title>summaries:w&#45;&gt;users:e</title>
<path fill="none" stroke="#000000" d="M480.1051,-476.9668C419.2726,-501.5565 336.3156,-520.8139 279,-477.7 223.9189,-436.267 304.9247,-328.7 236,-328.7"/>
<polygon fill="#000000" stroke="#000000" points="486.1347,-474.4267 494.9048,-474.6384 489.8209,-472.8737 493.5071,-471.3208 493.5071,-471.3208 493.5071,-471.3208 489.8209,-472.8737 492.1095,-468.0031 486.1347,-474.4267 486.1347,-474.4267"/>
<ellipse fill="none" stroke="#000000" cx="483.1857" cy="-475.669" rx="3.2" ry="3.2"/>
</g>
<!-- summary_groups -->
<g id="node6" class="node">
<title>summary_groups</title>
<g id="a_node6"><a xlink:href="../../tables/summary_groups.html" xlink:title="summary_groups" target="_top">
<polygon fill="#ffffff" stroke="transparent" points="287,-406.2 287,-467.2 451,-467.2 451,-406.2 287,-406.2"/>
<polygon fill="#f5f5f5" stroke="transparent" points="287,-443.7 287,-466.7 451,-466.7 451,-443.7 287,-443.7"/>
<polygon fill="none" stroke="#000000" points="287,-443.7 287,-466.7 451,-466.7 451,-443.7 287,-443.7"/>
<text text-anchor="start" x="292" y="-452.3" font-family="Helvetica,sans-Serif" font-weight="bold" font-size="11.00" fill="#000000">summary_groups</text>
<text text-anchor="start" x="416.5219" y="-451.8" font-family="Helvetica,sans-Serif" font-size="11.00" fill="#000000">[table]</text>
<polygon fill="none" stroke="#000000" points="287,-424.7 287,-443.7 451,-443.7 451,-424.7 287,-424.7"/>
<text text-anchor="start" x="290" y="-430.8" font-family="Helvetica,sans-Serif" font-size="11.00" fill="#000000">...</text>
<polygon fill="#ffffff" stroke="transparent" points="287,-405.7 287,-424.7 451,-424.7 451,-405.7 287,-405.7"/>
<polygon fill="none" stroke="#000000" points="287,-405.7 287,-424.7 451,-424.7 451,-405.7 287,-405.7"/>
<polygon fill="#ffffff" stroke="transparent" points="288,-406.7 288,-423.7 345,-423.7 345,-406.7 288,-406.7"/>
<text text-anchor="start" x="290" y="-411.8" font-family="Helvetica,sans-Serif" font-size="11.00" fill="#000000">&lt; 1</text>
<polygon fill="#ffffff" stroke="transparent" points="345,-406.7 345,-423.7 393,-423.7 393,-406.7 345,-406.7"/>
<text text-anchor="start" x="365.9431" y="-411.8" font-family="Helvetica,sans-Serif" font-size="11.00" fill="#000000"> &#160;</text>
<polygon fill="#ffffff" stroke="transparent" points="393,-406.7 393,-423.7 450,-423.7 450,-406.7 393,-406.7"/>
<text text-anchor="start" x="432.4053" y="-411.8" font-family="Helvetica,sans-Serif" font-size="11.00" fill="#000000">1 &gt;</text>
<polygon fill="#000000" stroke="#000000" points="345,-406.7 345,-423.7 345,-423.7 345,-406.7 345,-406.7"/>
<polygon fill="#000000" stroke="#000000" points="393,-406.7 393,-423.7 393,-423.7 393,-406.7 393,-406.7"/>
</a>
</g>
</g>
<!-- summaries&#45;&gt;summary_groups -->
<g id="edge4" class="edge">
<title>summaries:w&#45;&gt;summary_groups:e</title>
<path fill="none" stroke="#000000" d="M477.1568,-436.7C471.1866,-436.7 465.1474,-436.7 459.1355,-436.7"/>
<polygon fill="#000000" stroke="#000000" points="483.8004,-436.7001 491.8005,-440.3 487.8004,-436.7 491.8004,-436.7 491.8004,-436.7 491.8004,-436.7 487.8004,-436.7 491.8004,-433.1 483.8004,-436.7001 483.8004,-436.7001"/>
<ellipse fill="none" stroke="#000000" cx="480.6004" cy="-436.7001" rx="3.2" ry="3.2"/>
</g>
<!-- decisions -->
<g id="node3" class="node">
<title>decisions</title>
<g id="a_node3"><a xlink:href="../../tables/decisions.html" xlink:title="decisions" target="_top">
<polygon fill="#ffffff" stroke="transparent" points="709,-475.2 709,-536.2 816,-536.2 816,-475.2 709,-475.2"/>
<polygon fill="#f5f5f5" stroke="transparent" points="709.5,-512.7 709.5,-535.7 816.5,-535.7 816.5,-512.7 709.5,-512.7"/>
<polygon fill="none" stroke="#000000" points="709.5,-512.7 709.5,-535.7 816.5,-535.7 816.5,-512.7 709.5,-512.7"/>
<text text-anchor="start" x="714.5" y="-521.3" font-family="Helvetica,sans-Serif" font-weight="bold" font-size="11.00" fill="#000000">decisions</text>
<text text-anchor="start" x="782.0219" y="-520.8" font-family="Helvetica,sans-Serif" font-size="11.00" fill="#000000">[table]</text>
<polygon fill="none" stroke="#000000" points="709.5,-493.7 709.5,-512.7 816.5,-512.7 816.5,-493.7 709.5,-493.7"/>
<text text-anchor="start" x="712.5" y="-499.8" font-family="Helvetica,sans-Serif" font-size="11.00" fill="#000000">...</text>
<polygon fill="#ffffff" stroke="transparent" points="709.5,-474.7 709.5,-493.7 816.5,-493.7 816.5,-474.7 709.5,-474.7"/>
<polygon fill="none" stroke="#000000" points="709.5,-474.7 709.5,-493.7 816.5,-493.7 816.5,-474.7 709.5,-474.7"/>
<polygon fill="#ffffff" stroke="transparent" points="710.5,-475.7 710.5,-492.7 751.5,-492.7 751.5,-475.7 710.5,-475.7"/>
<text text-anchor="start" x="712.5" y="-480.8" font-family="Helvetica,sans-Serif" font-size="11.00" fill="#000000">&lt; 1</text>
<polygon fill="#ffffff" stroke="transparent" points="751.5,-475.7 751.5,-492.7 783.5,-492.7 783.5,-475.7 751.5,-475.7"/>
<text text-anchor="start" x="764.4431" y="-480.8" font-family="Helvetica,sans-Serif" font-size="11.00" fill="#000000"> &#160;</text>
<polygon fill="#ffffff" stroke="transparent" points="783.5,-475.7 783.5,-492.7 815.5,-492.7 815.5,-475.7 783.5,-475.7"/>
<text text-anchor="start" x="807.3862" y="-480.8" font-family="Helvetica,sans-Serif" font-size="11.00" fill="#000000"> &#160;</text>
<polygon fill="#000000" stroke="#000000" points="751.5,-475.7 751.5,-492.7 751.5,-492.7 751.5,-475.7 751.5,-475.7"/>
<polygon fill="#000000" stroke="#000000" points="783.5,-475.7 783.5,-492.7 783.5,-492.7 783.5,-475.7 783.5,-475.7"/>
</a>
</g>
</g>
<!-- decisions&#45;&gt;summaries -->
<g id="edge2" class="edge">
<title>decisions:w&#45;&gt;summaries:e</title>
<path fill="none" stroke="#000000" d="M694.9967,-501.87C664.4503,-498.4568 634.0904,-485.0319 609.8755,-471.2464"/>
<polygon fill="#000000" stroke="#000000" points="701.5131,-502.2429 709.2943,-506.2941 705.5065,-502.4714 709.5,-502.7 709.5,-502.7 709.5,-502.7 705.5065,-502.4714 709.7057,-499.1059 701.5131,-502.2429 701.5131,-502.2429"/>
<ellipse fill="none" stroke="#000000" cx="698.3183" cy="-502.06" rx="3.2" ry="3.2"/>
</g>
<!-- oauth_identities -->
<g id="node4" class="node">
<title>oauth_identities</title>
<g id="a_node4"><a xlink:href="../../tables/oauth_identities.html" xlink:title="oauth_identities" target="_top">
<polygon fill="#ffffff" stroke="transparent" points="290.5,-236.2 290.5,-385.2 447.5,-385.2 447.5,-236.2 290.5,-236.2"/>
<polygon fill="#f5f5f5" stroke="transparent" points="291,-361.7 291,-384.7 448,-384.7 448,-361.7 291,-361.7"/>
<polygon fill="none" stroke="#000000" points="291,-361.7 291,-384.7 448,-384.7 448,-361.7 291,-361.7"/>
<text text-anchor="start" x="296" y="-370.3" font-family="Helvetica,sans-Serif" font-weight="bold" font-size="11.00" fill="#000000">oauth_identities</text>
<text text-anchor="start" x="413.5219" y="-369.8" font-family="Helvetica,sans-Serif" font-size="11.00" fill="#000000">[table]</text>
<polygon fill="none" stroke="#000000" points="291,-339.7 291,-361.7 448,-361.7 448,-339.7 291,-339.7"/>
<image xlink:href="../../images/primaryKeys.png" width="11px" height="12px" preserveAspectRatio="xMinYMin meet" x="296" y="-356.7"/>
<text text-anchor="start" x="320" y="-346.8" font-family="Helvetica,sans-Serif" font-size="11.00" fill="#000000">id</text>
<polygon fill="#ffffff" stroke="transparent" points="291,-317.7 291,-339.7 448,-339.7 448,-317.7 291,-317.7"/>
<polygon fill="none" stroke="#000000" points="291,-317.7 291,-339.7 448,-339.7 448,-317.7 291,-317.7"/>
<image xlink:href="../../images/foreignKeys.png" width="11px" height="12px" preserveAspectRatio="xMinYMin meet" x="296" y="-334.7"/>
<text text-anchor="start" x="320" y="-324.8" font-family="Helvetica,sans-Serif" font-size="11.00" fill="#000000">user_id</text>
<polygon fill="#ffffff" stroke="transparent" points="291,-295.7 291,-317.7 448,-317.7 448,-295.7 291,-295.7"/>
<polygon fill="none" stroke="#000000" points="291,-295.7 291,-317.7 448,-317.7 448,-295.7 291,-295.7"/>
<text text-anchor="start" x="320" y="-302.8" font-family="Helvetica,sans-Serif" font-size="11.00" fill="#000000">provider</text>
<polygon fill="#ffffff" stroke="transparent" points="291,-273.7 291,-295.7 448,-295.7 448,-273.7 291,-273.7"/>
<polygon fill="none" stroke="#000000" points="291,-273.7 291,-295.7 448,-295.7 448,-273.7 291,-273.7"/>
<text text-anchor="start" x="320" y="-280.8" font-family="Helvetica,sans-Serif" font-size="11.00" fill="#000000">subject</text>
<polygon fill="none" stroke="#000000" points="291,-254.7 291,-273.7 448,-273.7 448,-254.7 291,-254.7"/>
<text text-anchor="start" x="294" y="-260.8" font-family="Helvetica,sans-Serif" font-size="11.00" fill="#000000">...</text>
<polygon fill="#ffffff" stroke="transparent" points="291,-235.7 291,-254.7 448,-254.7 448,-235.7 291,-235.7"/>
<polygon fill="none" stroke="#000000" points="291,-235.7 291,-254.7 448,-254.7 448,-235.7 291,-235.7"/>
<polygon fill="#ffffff" stroke="transparent" points="292,-236.7 292,-253.7 350,-253.7 350,-236.7 292,-236.7"/>
<text text-anchor="start" x="294" y="-241.8" font-family="Helvetica,sans-Serif" font-size="11.00" fill="#000000">&lt; 1</text>
<polygon fill="#ffffff" stroke="transparent" points="350,-236.7 350,-253.7 399,-253.7 399,-236.7 350,-236.7"/>
<text text-anchor="start" x="371.4431" y="-241.8" font-family="Helvetica,sans-Serif" font-size="11.00" fill="#000000"> &#160;</text>
<polygon fill="#ffffff" stroke="transparent" points="399,-236.7 399,-253.7 447,-253.7 447,-236.7 399,-236.7"/>
<text text-anchor="start" x="438.8862" y="-241.8" font-family="Helvetica,sans-Serif" font-size="11.00" fill="#000000"> &#160;</text>
<polygon fill="#000000" stroke="#000000" points="350,-236.7 350,-253.7 350,-253.7 350,-236.7 350,-236.7"/>
<polygon fill="#000000" stroke="#000000" points="399,-236.7 399,-253.7 399,-253.7 399,-236.7 399,-236.7"/>
</a>
</g>
</g>
<!-- oauth_identities&#45;&gt;users -->
<g id="edge3" class="edge">
<title>oauth_identities:w&#45;&gt;users:e</title>
<path fill="none" stroke="#000000" d="M276.3617,-328.7C262.6839,-328.7 254.7153,-328.7 236,-328.7"/>
<polygon fill="#000000" stroke="#000000" points="283,-328.7001 291,-332.3 287,-328.7 291,-328.7 291,-328.7 291,-328.7 287,-328.7 291,-325.1 283,-328.7001 283,-328.7001"/>
<ellipse fill="none" stroke="#000000" cx="279.8" cy="-328.7001" rx="3.2" ry="3.2"/>
</g>
<!-- summary_groups&#45;&gt;users -->
<g id="edge6" class="edge">
<title>summary_groups:w&#45;&gt;users:e</title>
<path fill="none" stroke="#000000" d="M277.2341,-391.6179C255.8897,-363.1649 267.3747,-328.7 236,-328.7"/>
<polygon fill="#000000" stroke="#000000" points="281.6855,-396.3291 284.563,-404.6164 284.4326,-399.2365 287.1797,-402.144 287.1797,-402.144 287.1797,-402.144 284.4326,-399.2365 289.7965,-399.6716 281.6855,-396.3291 281.6855,-396.3291"/>
<ellipse fill="none" stroke="#000000" cx="279.4878" cy="-394.0031" rx="3.2" ry="3.2"/>
</g>
<!-- topics -->
<g id="node7" class="node">
<title>topics</title>
<g id="a_node7"><a xlink:href="../../tables/topics.html" xlink:title="topics" target="_top">
<polygon fill="#ffffff" stroke="transparent" points="721,-393.2 721,-454.2 804,-454.2 804,-393.2 721,-393.2"/>
<polygon fill="#f5f5f5" stroke="transparent" points="721.5,-430.7 721.5,-453.7 804.5,-453.7 804.5,-430.7 721.5,-430.7"/>
<polygon fill="none" stroke="#000000" points="721.5,-430.7 721.5,-453.7 804.5,-453.7 804.5,-430.7 721.5,-430.7"/>
<text text-anchor="start" x="726.5" y="-439.3" font-family="Helvetica,sans-Serif" font-weight="bold" font-size="11.00" fill="#000000">topics</text>
<text text-anchor="start" x="770.0219" y="-438.8" font-family="Helvetica,sans-Serif" font-size="11.00" fill="#000000">[table]</text>
<polygon fill="none" stroke="#000000" points="721.5,-411.7 721.5,-430.7 804.5,-430.7 804.5,-411.7 721.5,-411.7"/>
<text text-anchor="start" x="724.5" y="-417.8" font-family="Helvetica,sans-Serif" font-size="11.00" fill="#000000">...</text>
<polygon fill="#ffffff" stroke="transparent" points="721.5,-392.7 721.5,-411.7 804.5,-411.7 804.5,-392.7 721.5,-392.7"/>
<polygon fill="none" stroke="#000000" points="721.5,-392.7 721.5,-411.7 804.5,-411.7 804.5,-392.7 721.5,-392.7"/>
<polygon fill="#ffffff" stroke="transparent" points="722.5,-393.7 722.5,-410.7 755.5,-410.7 755.5,-393.7 722.5,-393.7"/>
<text text-anchor="start" x="724.5" y="-398.8" font-family="Helvetica,sans-Serif" font-size="11.00" fill="#000000">&lt; 1</text>
<polygon fill="#ffffff" stroke="transparent" points="755.5,-393.7 755.5,-410.7 779.5,-410.7 779.5,-393.7 755.5,-393.7"/>
<text text-anchor="start" x="764.4431" y="-398.8" font-family="Helvetica,sans-Serif" font-size="11.00" fill="#000000"> &#160;</text>
<polygon fill="#ffffff" stroke="transparent" points="779.5,-393.7 779.5,-410.7 803.5,-410.7 803.5,-393.7 779.5,-393.7"/>
<text text-anchor="start" x="795.3862" y="-398.8" font-family="Helvetica,sans-Serif" font-size="11.00" fill="#000000"> &#160;</text>
<polygon fill="#000000" stroke="#000000" points="755.5,-393.7 755.5,-410.7 755.5,-410.7 755.5,-393.7 755.5,-393.7"/>
<polygon fill="#000000" stroke="#000000" points="779.5,-393.7 779.5,-410.7 779.5,-410.7 779.5,-393.7 779.5,-393.7"/>
</a>
</g>
</g>
<!-- topics&#45;&gt;summaries -->
<g id="edge7" class="edge">
<title>topics:w&#45;&gt;summaries:e</title>
<path fill="none" stroke="#000000" d="M707.0994,-420.8967C680.0895,-421.6097 651.7133,-424.1674 627.1386,-427.0236"/>
<polygon fill="#000000" stroke="#000000" points="713.5007,-420.8093 721.5492,-424.2997 717.5004,-420.7547 721.5,-420.7 721.5,-420.7 721.5,-420.7 717.5004,-420.7547 721.4508,-417.1003 713.5007,-420.8093 713.5007,-420.8093"/>
<ellipse fill="none" stroke="#000000" cx="710.301" cy="-420.853" rx="3.2" ry="3.2"/>
</g>
<!-- transcript_segments -->
<g id="node8" class="node">
<title>transcript_segments</title>
<g id="a_node8"><a xlink:href="../../tables/transcript_segments.html" xlink:title="transcript_segments" target="_top">
<polygon fill="#ffffff" stroke="transparent" points="668,-311.2 668,-372.2 857,-372.2 857,-311.2 668,-311.2"/>
<polygon fill="#f5f5f5" stroke="transparent" points="668.5,-348.7 668.5,-371.7 857.5,-371.7 857.5,-348.7 668.5,-348.7"/>
<polygon fill="none" stroke="#000000" points="668.5,-348.7 668.5,-371.7 857.5,-371.7 857.5,-348.7 668.5,-348.7"/>
<text text-anchor="start" x="673.5" y="-357.3" font-family="Helvetica,sans-Serif" font-weight="bold" font-size="11.00" fill="#000000">transcript_segments</text>
<text text-anchor="start" x="823.0219" y="-356.8" font-family="Helvetica,sans-Serif" font-size="11.00" fill="#000000">[table]</text>
<polygon fill="none" stroke="#000000" points="668.5,-329.7 668.5,-348.7 857.5,-348.7 857.5,-329.7 668.5,-329.7"/>
<text text-anchor="start" x="671.5" y="-335.8" font-family="Helvetica,sans-Serif" font-size="11.00" fill="#000000">...</text>
<polygon fill="#ffffff" stroke="transparent" points="668.5,-310.7 668.5,-329.7 857.5,-329.7 857.5,-310.7 668.5,-310.7"/>
<polygon fill="none" stroke="#000000" points="668.5,-310.7 668.5,-329.7 857.5,-329.7 857.5,-310.7 668.5,-310.7"/>
<polygon fill="#ffffff" stroke="transparent" points="669.5,-311.7 669.5,-328.7 738.5,-328.7 738.5,-311.7 669.5,-311.7"/>
<text text-anchor="start" x="671.5" y="-316.8" font-family="Helvetica,sans-Serif" font-size="11.00" fill="#000000">&lt; 1</text>
<polygon fill="#ffffff" stroke="transparent" points="738.5,-311.7 738.5,-328.7 797.5,-328.7 797.5,-311.7 738.5,-311.7"/>
<text text-anchor="start" x="764.9431" y="-316.8" font-family="Helvetica,sans-Serif" font-size="11.00" fill="#000000"> &#160;</text>
<polygon fill="#ffffff" stroke="transparent" points="797.5,-311.7 797.5,-328.7 856.5,-328.7 856.5,-311.7 797.5,-311.7"/>
<text text-anchor="start" x="848.3862" y="-316.8" font-family="Helvetica,sans-Serif" font-size="11.00" fill="#000000"> &#160;</text>
<polygon fill="#000000" stroke="#000000" points="738.5,-311.7 738.5,-328.7 738.5,-328.7 738.5,-311.7 738.5,-311.7"/>
<polygon fill="#000000" stroke="#000000" points="797.5,-311.7 797.5,-328.7 797.5,-328.7 797.5,-311.7 797.5,-311.7"/>
</a>
</g>
</g>
<!-- transcript_segments&#45;&gt;summaries -->
<g id="edge8" class="edge">
<title>transcript_segments:w&#45;&gt;summaries:e</title>
<path fill="none" stroke="#000000" d="M653.786,-340.3659C621.549,-347.6671 595.5962,-377.5711 579.143,-402.1489"/>
<polygon fill="#000000" stroke="#000000" points="660.5508,-339.6001 668.905,-342.2771 664.5254,-339.15 668.5,-338.7 668.5,-338.7 668.5,-338.7 664.5254,-339.15 668.095,-335.1229 660.5508,-339.6001 660.5508,-339.6001"/>
<ellipse fill="none" stroke="#000000" cx="657.3711" cy="-339.9601" rx="3.2" ry="3.2"/>
</g>
<!-- transcription_jobs -->
<g id="node9" class="node">
<title>transcription_jobs</title>
<g id="a_node9"><a xlink:href="../../tables/transcription_jobs.html" xlink:title="transcription_jobs" target="_top">
<polygon fill="#ffffff" stroke="transparent" points="677,-197.2 677,-258.2 848,-258.2 848,-197.2 677,-197.2"/>
<polygon fill="#f5f5f5" stroke="transparent" points="677.5,-234.7 677.5,-257.7 848.5,-257.7 848.5,-234.7 677.5,-234.7"/>
<polygon fill="none" stroke="#000000" points="677.5,-234.7 677.5,-257.7 848.5,-257.7 848.5,-234.7 677.5,-234.7"/>
<text text-anchor="start" x="682.5" y="-243.3" font-family="Helvetica,sans-Serif" font-weight="bold" font-size="11.00" fill="#000000">transcription_jobs</text>
<text text-anchor="start" x="814.0219" y="-242.8" font-family="Helvetica,sans-Serif" font-size="11.00" fill="#000000">[table]</text>
<polygon fill="none" stroke="#000000" points="677.5,-215.7 677.5,-234.7 848.5,-234.7 848.5,-215.7 677.5,-215.7"/>
<text text-anchor="start" x="680.5" y="-221.8" font-family="Helvetica,sans-Serif" font-size="11.00" fill="#000000">...</text>
<polygon fill="#ffffff" stroke="transparent" points="677.5,-196.7 677.5,-215.7 848.5,-215.7 848.5,-196.7 677.5,-196.7"/>
<polygon fill="none" stroke="#000000" points="677.5,-196.7 677.5,-215.7 848.5,-215.7 848.5,-196.7 677.5,-196.7"/>
<polygon fill="#ffffff" stroke="transparent" points="678.5,-197.7 678.5,-214.7 741.5,-214.7 741.5,-197.7 678.5,-197.7"/>
<text text-anchor="start" x="680.5" y="-202.8" font-family="Helvetica,sans-Serif" font-size="11.00" fill="#000000">&lt; 2</text>
<polygon fill="#ffffff" stroke="transparent" points="741.5,-197.7 741.5,-214.7 794.5,-214.7 794.5,-197.7 741.5,-197.7"/>
<text text-anchor="start" x="764.9431" y="-202.8" font-family="Helvetica,sans-Serif" font-size="11.00" fill="#000000"> &#160;</text>
<polygon fill="#ffffff" stroke="transparent" points="794.5,-197.7 794.5,-214.7 847.5,-214.7 847.5,-197.7 794.5,-197.7"/>
<text text-anchor="start" x="839.3862" y="-202.8" font-family="Helvetica,sans-Serif" font-size="11.00" fill="#000000"> &#160;</text>
<polygon fill="#000000" stroke="#000000" points="741.5,-197.7 741.5,-214.7 741.5,-214.7 741.5,-197.7 741.5,-197.7"/>
<polygon fill="#000000" stroke="#000000" points="794.5,-197.7 794.5,-214.7 794.5,-214.7 794.5,-197.7 794.5,-197.7"/>
</a>
</g>
</g>
<!-- transcription_jobs&#45;&gt;summaries -->
<g id="edge9" class="edge">
<title>transcription_jobs:w&#45;&gt;summaries:e</title>
<path fill="none" stroke="#000000" d="M695.5156,-270.7523C683.1407,-279.9731 670.7462,-290.1407 660,-300.7 628.5888,-331.565 599.4837,-372.9519 580.7664,-401.9338"/>
<polygon fill="#000000" stroke="#000000" points="700.8363,-266.9065 709.4288,-265.1377 704.0781,-264.5633 707.3199,-262.22 707.3199,-262.22 707.3199,-262.22 704.0781,-264.5633 705.211,-259.3024 700.8363,-266.9065 700.8363,-266.9065"/>
<ellipse fill="none" stroke="#000000" cx="698.2428" cy="-268.7811" rx="3.2" ry="3.2"/>
</g>
<!-- transcription_jobs&#45;&gt;users -->
<g id="edge10" class="edge">
<title>transcription_jobs:w&#45;&gt;users:e</title>
<path fill="none" stroke="#000000" d="M654.5606,-213.6693C531.0564,-199.9291 338.2192,-186.25 279,-225.7 237.7151,-253.2027 285.6068,-328.7 236,-328.7"/>
<polygon fill="#000000" stroke="#000000" points="660.9432,-214.3948 668.4854,-218.8754 664.9176,-214.8466 668.892,-215.2984 668.892,-215.2984 668.892,-215.2984 664.9176,-214.8466 669.2986,-211.7214 660.9432,-214.3948 660.9432,-214.3948"/>
<ellipse fill="none" stroke="#000000" cx="657.7637" cy="-214.0334" rx="3.2" ry="3.2"/>
</g>
<!-- user_sessions -->
<g id="node10" class="node">
<title>user_sessions</title>
<g id="a_node10"><a xlink:href="../../tables/user_sessions.html" xlink:title="user_sessions" target="_top">
<polygon fill="#ffffff" stroke="transparent" points="299,-38.2 299,-187.2 439,-187.2 439,-38.2 299,-38.2"/>
<polygon fill="#f5f5f5" stroke="transparent" points="299,-163.7 299,-186.7 439,-186.7 439,-163.7 299,-163.7"/>
<polygon fill="none" stroke="#000000" points="299,-163.7 299,-186.7 439,-186.7 439,-163.7 299,-163.7"/>
<text text-anchor="start" x="304" y="-172.3" font-family="Helvetica,sans-Serif" font-weight="bold" font-size="11.00" fill="#000000">user_sessions</text>
<text text-anchor="start" x="404.5219" y="-171.8" font-family="Helvetica,sans-Serif" font-size="11.00" fill="#000000">[table]</text>
<polygon fill="none" stroke="#000000" points="299,-141.7 299,-163.7 439,-163.7 439,-141.7 299,-141.7"/>
<image xlink:href="../../images/primaryKeys.png" width="11px" height="12px" preserveAspectRatio="xMinYMin meet" x="304" y="-158.7"/>
<text text-anchor="start" x="328" y="-148.8" font-family="Helvetica,sans-Serif" font-size="11.00" fill="#000000">id</text>
<polygon fill="#ffffff" stroke="transparent" points="299,-119.7 299,-141.7 439,-141.7 439,-119.7 299,-119.7"/>
<polygon fill="none" stroke="#000000" points="299,-119.7 299,-141.7 439,-141.7 439,-119.7 299,-119.7"/>
<image xlink:href="../../images/foreignKeys.png" width="11px" height="12px" preserveAspectRatio="xMinYMin meet" x="304" y="-136.7"/>
<text text-anchor="start" x="328" y="-126.8" font-family="Helvetica,sans-Serif" font-size="11.00" fill="#000000">user_id</text>
<polygon fill="#ffffff" stroke="transparent" points="299,-97.7 299,-119.7 439,-119.7 439,-97.7 299,-97.7"/>
<polygon fill="none" stroke="#000000" points="299,-97.7 299,-119.7 439,-119.7 439,-97.7 299,-97.7"/>
<text text-anchor="start" x="328" y="-104.8" font-family="Helvetica,sans-Serif" font-size="11.00" fill="#000000">token_hash</text>
<polygon fill="#ffffff" stroke="transparent" points="299,-75.7 299,-97.7 439,-97.7 439,-75.7 299,-75.7"/>
<polygon fill="none" stroke="#000000" points="299,-75.7 299,-97.7 439,-97.7 439,-75.7 299,-75.7"/>
<text text-anchor="start" x="328" y="-82.8" font-family="Helvetica,sans-Serif" font-size="11.00" fill="#000000">expires_at</text>
<polygon fill="none" stroke="#000000" points="299,-56.7 299,-75.7 439,-75.7 439,-56.7 299,-56.7"/>
<text text-anchor="start" x="302" y="-62.8" font-family="Helvetica,sans-Serif" font-size="11.00" fill="#000000">...</text>
<polygon fill="#ffffff" stroke="transparent" points="299,-37.7 299,-56.7 439,-56.7 439,-37.7 299,-37.7"/>
<polygon fill="none" stroke="#000000" points="299,-37.7 299,-56.7 439,-56.7 439,-37.7 299,-37.7"/>
<polygon fill="#ffffff" stroke="transparent" points="300,-38.7 300,-55.7 352,-55.7 352,-38.7 300,-38.7"/>
<text text-anchor="start" x="302" y="-43.8" font-family="Helvetica,sans-Serif" font-size="11.00" fill="#000000">&lt; 1</text>
<polygon fill="#ffffff" stroke="transparent" points="352,-38.7 352,-55.7 395,-55.7 395,-38.7 352,-38.7"/>
<text text-anchor="start" x="370.4431" y="-43.8" font-family="Helvetica,sans-Serif" font-size="11.00" fill="#000000"> &#160;</text>
<polygon fill="#ffffff" stroke="transparent" points="395,-38.7 395,-55.7 438,-55.7 438,-38.7 395,-38.7"/>
<text text-anchor="start" x="429.8862" y="-43.8" font-family="Helvetica,sans-Serif" font-size="11.00" fill="#000000"> &#160;</text>
<polygon fill="#000000" stroke="#000000" points="352,-38.7 352,-55.7 352,-55.7 352,-38.7 352,-38.7"/>
<polygon fill="#000000" stroke="#000000" points="395,-38.7 395,-55.7 395,-55.7 395,-38.7 395,-38.7"/>
</a>
</g>
</g>
<!-- user_sessions&#45;&gt;users -->
<g id="edge11" class="edge">
<title>user_sessions:w&#45;&gt;users:e</title>
<path fill="none" stroke="#000000" d="M284.485,-132.7897C220.6046,-153.9507 322.7558,-328.7 236,-328.7"/>
<polygon fill="#000000" stroke="#000000" points="291.0816,-131.84 299.513,-134.2633 295.0408,-131.27 299,-130.7 299,-130.7 299,-130.7 295.0408,-131.27 298.487,-127.1367 291.0816,-131.84 291.0816,-131.84"/>
<ellipse fill="none" stroke="#000000" cx="287.9143" cy="-132.296" rx="3.2" ry="3.2"/>
</g>
</g>
</svg>
