<?xml version="1.0" encoding="UTF-8" standalone="no"?>
<!DOCTYPE svg PUBLIC "-//W3C//DTD SVG 1.1//EN"
 "http://www.w3.org/Graphics/SVG/1.1/DTD/svg11.dtd">
<!-- Generated by graphviz version 2.40.1 (20161225.0304)
 -->
<!-- Title: oneDegreeRelationshipsDiagram Pages: 1 -->
<svg width="396pt" height="294pt"
 viewBox="0.00 0.00 396.00 294.20" xmlns="http://www.w3.org/2000/svg" xmlns:xlink="http://www.w3.org/1999/xlink">
<g id="graph0" class="graph" transform="scale(1 1) rotate(0) translate(4 290.2)">
<title>oneDegreeRelationshipsDiagram</title>
<polygon fill="#ffffff" stroke="transparent" points="-4,4 -4,-290.2 392,-290.2 392,4 -4,4"/>
<text text-anchor="middle" x="72.4936" y="-7.3" font-family="Helvetica,sans-Serif" font-size="11.00" fill="#000000">Generated by SchemaSpy</text>
<!-- user_sessions -->
<g id="node1" class="node">
<title>user_sessions</title>
<g id="a_node1"><a xlink:href="../../tables/user_sessions.html" xlink:title="user_sessions" target="_top">
<polygon fill="#ffffff" stroke="transparent" points="160,-38.2 160,-282.2 380,-282.2 380,-38.2 160,-38.2"/>
<polygon fill="#f5f5f5" stroke="transparent" points="162,-257.2 162,-280.2 378,-280.2 378,-257.2 162,-257.2"/>
<polygon fill="none" stroke="#000000" points="162,-257.2 162,-280.2 378,-280.2 378,-257.2 162,-257.2"/>
<text text-anchor="start" x="167" y="-265.8" font-family="Helvetica,sans-Serif" font-weight="bold" font-size="11.00" fill="#000000">user_sessions</text>
<text text-anchor="start" x="343.0437" y="-265.3" font-family="Helvetica,sans-Serif" font-size="11.00" fill="#000000">[table]</text>
<polygon fill="none" stroke="#000000" points="162,-235.2 162,-257.2 284,-257.2 284,-235.2 162,-235.2"/>
<image xlink:href="../../images/primaryKeys.png" width="11px" height="12px" preserveAspectRatio="xMinYMin meet" x="167" y="-252.2"/>
<text text-anchor="start" x="182" y="-242.3" font-family="Helvetica,sans-Serif" font-size="11.00" fill="#000000">id</text>
<polygon fill="none" stroke="#000000" points="284,-235.2 284,-257.2 378,-257.2 378,-235.2 284,-235.2"/>
<text text-anchor="start" x="286.9758" y="-242.9" font-family="Helvetica,sans-Serif" font-size="11.00" fill="#000000">uuid[2147483647]</text>
<polygon fill="#ffffff" stroke="transparent" points="162,-213.2 162,-235.2 284,-235.2 284,-213.2 162,-213.2"/>
<polygon fill="none" stroke="#000000" points="162,-213.2 162,-235.2 284,-235.2 284,-213.2 162,-213.2"/>
<image xlink:href="../../images/foreignKeys.png" width="11px" height="12px" preserveAspectRatio="xMinYMin meet" x="167" y="-230.2"/>
<text text-anchor="start" x="182" y="-220.3" font-family="Helvetica,sans-Serif" font-size="11.00" fill="#000000">user_id</text>
<polygon fill="none" stroke="#000000" points="284,-213.2 284,-235.2 378,-235.2 378,-213.2 284,-213.2"/>
<text text-anchor="start" x="286.9758" y="-220.9" font-family="Helvetica,sans-Serif" font-size="11.00" fill="#000000">uuid[2147483647]</text>
<polygon fill="#ffffff" stroke="transparent" points="162,-191.2 162,-213.2 284,-213.2 284,-191.2 162,-191.2"/>
<polygon fill="none" stroke="#000000" points="162,-191.2 162,-213.2 284,-213.2 284,-191.2 162,-191.2"/>
<text text-anchor="start" x="182" y="-198.3" font-family="Helvetica,sans-Serif" font-size="11.00" fill="#000000">token_hash</text>
<polygon fill="none" stroke="#000000" points="284,-191.2 284,-213.2 378,-213.2 378,-191.2 284,-191.2"/>
<text text-anchor="start" x="287" y="-198.9" font-family="Helvetica,sans-Serif" font-size="11.00" fill="#000000">varchar[64]</text>
<polygon fill="none" stroke="#000000" points="162,-169.2 162,-191.2 284,-191.2 284,-169.2 162,-169.2"/>
<text text-anchor="start" x="182" y="-176.3" font-family="Helvetica,sans-Serif" font-size="11.00" fill="#000000">created_at</text>
<polygon fill="none" stroke="#000000" points="284,-169.2 284,-191.2 378,-191.2 378,-169.2 284,-169.2"/>
<text text-anchor="start" x="287" y="-176.9" font-family="Helvetica,sans-Serif" font-size="11.00" fill="#000000">timestamptz[35,6]</text>
<polygon fill="#ffffff" stroke="transparent" points="162,-147.2 162,-169.2 284,-169.2 284,-147.2 162,-147.2"/>
<polygon fill="none" stroke="#000000" points="162,-147.2 162,-169.2 284,-169.2 284,-147.2 162,-147.2"/>
<text text-anchor="start" x="182" y="-154.3" font-family="Helvetica,sans-Serif" font-size="11.00" fill="#000000">expires_at</text>
<polygon fill="none" stroke="#000000" points="284,-147.2 284,-169.2 378,-169.2 378,-147.2 284,-147.2"/>
<text text-anchor="start" x="287" y="-154.9" font-family="Helvetica,sans-Serif" font-size="11.00" fill="#000000">timestamptz[35,6]</text>
<polygon fill="none" stroke="#000000" points="162,-125.2 162,-147.2 284,-147.2 284,-125.2 162,-125.2"/>
<text text-anchor="start" x="182" y="-132.3" font-family="Helvetica,sans-Serif" font-size="11.00" fill="#000000">last_seen_at</text>
<polygon fill="none" stroke="#000000" points="284,-125.2 284,-147.2 378,-147.2 378,-125.2 284,-125.2"/>
<text text-anchor="start" x="287" y="-132.9" font-family="Helvetica,sans-Serif" font-size="11.00" fill="#000000">timestamptz[35,6]</text>
<polygon fill="none" stroke="#000000" points="162,-103.2 162,-125.2 284,-125.2 284,-103.2 162,-103.2"/>
<text text-anchor="start" x="182" y="-110.3" font-family="Helvetica,sans-Serif" font-size="11.00" fill="#000000">revoked_at</text>
<polygon fill="none" stroke="#000000" points="284,-103.2 284,-125.2 378,-125.2 378,-103.2 284,-103.2"/>
<text text-anchor="start" x="287" y="-110.9" font-family="Helvetica,sans-Serif" font-size="11.00" fill="#000000">timestamptz[35,6]</text>
<polygon fill="none" stroke="#000000" points="162,-81.2 162,-103.2 284,-103.2 284,-81.2 162,-81.2"/>
<text text-anchor="start" x="182" y="-88.3" font-family="Helvetica,sans-Serif" font-size="11.00" fill="#000000">user_agent</text>
<polygon fill="none" stroke="#000000" points="284,-81.2 284,-103.2 378,-103.2 378,-81.2 284,-81.2"/>
<text text-anchor="start" x="287" y="-88.9" font-family="Helvetica,sans-Serif" font-size="11.00" fill="#000000">varchar[512]</text>
<polygon fill="none" stroke="#000000" points="162,-59.2 162,-81.2 284,-81.2 284,-59.2 162,-59.2"/>
<text text-anchor="start" x="182" y="-66.3" font-family="Helvetica,sans-Serif" font-size="11.00" fill="#000000">ip_address</text>
<polygon fill="none" stroke="#000000" points="284,-59.2 284,-81.2 378,-81.2 378,-59.2 284,-59.2"/>
<text text-anchor="start" x="287" y="-66.9" font-family="Helvetica,sans-Serif" font-size="11.00" fill="#000000">varchar[45]</text>
<polygon fill="#ffffff" stroke="transparent" points="162,-40.2 162,-59.2 378,-59.2 378,-40.2 162,-40.2"/>
<polygon fill="none" stroke="#000000" points="162,-40.2 162,-59.2 378,-59.2 378,-40.2 162,-40.2"/>
<polygon fill="#ffffff" stroke="transparent" points="163,-41.2 163,-58.2 238,-58.2 238,-41.2 163,-41.2"/>
<text text-anchor="start" x="165" y="-46.3" font-family="Helvetica,sans-Serif" font-size="11.00" fill="#000000">&lt; 1</text>
<polygon fill="#ffffff" stroke="transparent" points="238,-41.2 238,-58.2 303,-58.2 303,-41.2 238,-41.2"/>
<text text-anchor="start" x="267.4431" y="-46.3" font-family="Helvetica,sans-Serif" font-size="11.00" fill="#000000"> &#160;</text>
<polygon fill="#ffffff" stroke="transparent" points="303,-41.2 303,-58.2 377,-58.2 377,-41.2 303,-41.2"/>
<text text-anchor="start" x="359.4053" y="-46.3" font-family="Helvetica,sans-Serif" font-size="11.00" fill="#000000">0 &gt;</text>
<polygon fill="#000000" stroke="#000000" points="238,-41.2 238,-58.2 238,-58.2 238,-41.2 238,-41.2"/>
<polygon fill="#000000" stroke="#000000" points="303,-41.2 303,-58.2 303,-58.2 303,-41.2 303,-41.2"/>
<polygon fill="none" stroke="#000000" stroke-width="2" points="161,-39.2 161,-281.2 379,-281.2 379,-39.2 161,-39.2"/>
</a>
</g>
</g>
<!-- users -->
<g id="node2" class="node">
<title>users</title>
<g id="a_node2"><a xlink:href="../../tables/users.html" xlink:title="users" target="_top">
<polygon fill="#ffffff" stroke="transparent" points="8,-175.7 8,-258.7 111,-258.7 111,-175.7 8,-175.7"/>
<polygon fill="#f5f5f5" stroke="transparent" points="8.5,-235.2 8.5,-258.2 111.5,-258.2 111.5,-235.2 8.5,-235.2"/>
<polygon fill="none" stroke="#000000" points="8.5,-235.2 8.5,-258.2 111.5,-258.2 111.5,-235.2 8.5,-235.2"/>
<text text-anchor="start" x="13.5" y="-243.8" font-family="Helvetica,sans-Serif" font-weight="bold" font-size="11.00" fill="#000000">users</text>
<text text-anchor="start" x="76.5437" y="-243.3" font-family="Helvetica,sans-Serif" font-size="11.00" fill="#000000">[table]</text>
<polygon fill="none" stroke="#000000" points="8.5,-213.2 8.5,-235.2 111.5,-235.2 111.5,-213.2 8.5,-213.2"/>
<image xlink:href="../../images/primaryKeys.png" width="11px" height="12px" preserveAspectRatio="xMinYMin meet" x="13.5" y="-230.2"/>
<text text-anchor="start" x="28.5" y="-220.3" font-family="Helvetica,sans-Serif" font-size="11.00" fill="#000000">id</text>
<polygon fill="none" stroke="#000000" points="8.5,-194.2 8.5,-213.2 111.5,-213.2 111.5,-194.2 8.5,-194.2"/>
<text text-anchor="start" x="11.5" y="-200.3" font-family="Helvetica,sans-Serif" font-size="11.00" fill="#000000">...</text>
<polygon fill="#ffffff" stroke="transparent" points="8.5,-175.2 8.5,-194.2 111.5,-194.2 111.5,-175.2 8.5,-175.2"/>
<polygon fill="none" stroke="#000000" points="8.5,-175.2 8.5,-194.2 111.5,-194.2 111.5,-175.2 8.5,-175.2"/>
<polygon fill="#ffffff" stroke="transparent" points="9.5,-176.2 9.5,-193.2 40.5,-193.2 40.5,-176.2 9.5,-176.2"/>
<text text-anchor="start" x="11.5" y="-181.3" font-family="Helvetica,sans-Serif" font-size="11.00" fill="#000000"> &#160;</text>
<polygon fill="#ffffff" stroke="transparent" points="40.5,-176.2 40.5,-193.2 71.5,-193.2 71.5,-176.2 40.5,-176.2"/>
<text text-anchor="start" x="52.9431" y="-181.3" font-family="Helvetica,sans-Serif" font-size="11.00" fill="#000000"> &#160;</text>
<polygon fill="#ffffff" stroke="transparent" points="71.5,-176.2 71.5,-193.2 110.5,-193.2 110.5,-176.2 71.5,-176.2"/>
<text text-anchor="start" x="92.9053" y="-181.3" font-family="Helvetica,sans-Serif" font-size="11.00" fill="#000000">5 &gt;</text>
<polygon fill="#000000" stroke="#000000" points="40.5,-176.2 40.5,-193.2 40.5,-193.2 40.5,-176.2 40.5,-176.2"/>
<polygon fill="#000000" stroke="#000000" points="71.5,-176.2 71.5,-193.2 71.5,-193.2 71.5,-176.2 71.5,-176.2"/>
</a>
</g>
</g>
<!-- user_sessions&#45;&gt;users -->
<g id="edge1" class="edge">
<title>user_sessions:w&#45;&gt;users:e</title>
<path fill="none" stroke="#000000" d="M147.4203,-224.2C135.5435,-224.2 128.158,-224.2 111.5,-224.2"/>
<polygon fill="#000000" stroke="#000000" points="154,-224.2001 162,-227.8 158,-224.2 162,-224.2 162,-224.2 162,-224.2 158,-224.2 162,-220.6 154,-224.2001 154,-224.2001"/>
<ellipse fill="none" stroke="#000000" cx="150.8" cy="-224.2001" rx="3.2" ry="3.2"/>
</g>
</g>
</svg>
