<?xml version="1.0" encoding="UTF-8" standalone="no"?>
<!DOCTYPE svg PUBLIC "-//W3C//DTD SVG 1.1//EN"
 "http://www.w3.org/Graphics/SVG/1.1/DTD/svg11.dtd">
<!-- Generated by graphviz version 2.40.1 (20161225.0304)
 -->
<!-- Title: oneDegreeRelationshipsDiagram Pages: 1 -->
<svg width="881pt" height="592pt"
 viewBox="0.00 0.00 881.00 592.20" xmlns="http://www.w3.org/2000/svg" xmlns:xlink="http://www.w3.org/1999/xlink">
<g id="graph0" class="graph" transform="scale(1 1) rotate(0) translate(4 588.2)">
<title>oneDegreeRelationshipsDiagram</title>
<polygon fill="#ffffff" stroke="transparent" points="-4,4 -4,-588.2 877,-588.2 877,4 -4,4"/>
<text text-anchor="middle" x="72.4936" y="-7.3" font-family="Helvetica,sans-Serif" font-size="11.00" fill="#000000">Generated by SchemaSpy</text>
<!-- oauth_identities -->
<g id="node1" class="node">
<title>oauth_identities</title>
<g id="a_node1"><a xlink:href="../../tables/oauth_identities.html" xlink:title="oauth_identities" target="_top">
<polygon fill="#ffffff" stroke="transparent" points="290.5,-431.2 290.5,-580.2 447.5,-580.2 447.5,-431.2 290.5,-431.2"/>
<polygon fill="#f5f5f5" stroke="transparent" points="291,-556.7 291,-579.7 448,-579.7 448,-556.7 291,-556.7"/>
<polygon fill="none" stroke="#000000" points="291,-556.7 291,-579.7 448,-579.7 448,-556.7 291,-556.7"/>
<text text-anchor="start" x="296" y="-565.3" font-family="Helvetica,sans-Serif" font-weight="bold" font-size="11.00" fill="#000000">oauth_identities</text>
<text text-anchor="start" x="413.5219" y="-564.8" font-family="Helvetica,sans-Serif" font-size="11.00" fill="#000000">[table]</text>
<polygon fill="none" stroke="#000000" points="291,-534.7 291,-556.7 448,-556.7 448,-534.7 291,-534.7"/>
<image xlink:href="../../images/primaryKeys.png" width="11px" height="12px" preserveAspectRatio="xMinYMin meet" x="296" y="-551.7"/>
<text text-anchor="start" x="320" y="-541.8" font-family="Helvetica,sans-Serif" font-size="11.00" fill="#000000">id</text>
<polygon fill="#ffffff" stroke="transparent" points="291,-512.7 291,-534.7 448,-534.7 448,-512.7 291,-512.7"/>
<polygon fill="none" stroke="#000000" points="291,-512.7 291,-534.7 448,-534.7 448,-512.7 291,-512.7"/>
<image xlink:href="../../images/foreignKeys.png" width="11px" height="12px" preserveAspectRatio="xMinYMin meet" x="296" y="-529.7"/>
<text text-anchor="start" x="320" y="-519.8" font-family="Helvetica,sans-Serif" font-size="11.00" fill="#000000">user_id</text>
<polygon fill="#ffffff" stroke="transparent" points="291,-490.7 291,-512.7 448,-512.7 448,-490.7 291,-490.7"/>
<polygon fill="none" stroke="#000000" points="291,-490.7 291,-512.7 448,-512.7 448,-490.7 291,-490.7"/>
<text text-anchor="start" x="320" y="-497.8" font-family="Helvetica,sans-Serif" font-size="11.00" fill="#000000">provider</text>
<polygon fill="#ffffff" stroke="transparent" points="291,-468.7 291,-490.7 448,-490.7 448,-468.7 291,-468.7"/>
<polygon fill="none" stroke="#000000" points="291,-468.7 291,-490.7 448,-490.7 448,-468.7 291,-468.7"/>
<text text-anchor="start" x="320" y="-475.8" font-family="Helvetica,sans-Serif" font-size="11.00" fill="#000000">subject</text>
<polygon fill="none" stroke="#000000" points="291,-449.7 291,-468.7 448,-468.7 448,-449.7 291,-449.7"/>
<text text-anchor="start" x="294" y="-455.8" font-family="Helvetica,sans-Serif" font-size="11.00" fill="#000000">...</text>
<polygon fill="#ffffff" stroke="transparent" points="291,-430.7 291,-449.7 448,-449.7 448,-430.7 291,-430.7"/>
<polygon fill="none" stroke="#000000" points="291,-430.7 291,-449.7 448,-449.7 448,-430.7 291,-430.7"/>
<polygon fill="#ffffff" stroke="transparent" points="292,-431.7 292,-448.7 350,-448.7 350,-431.7 292,-431.7"/>
<text text-anchor="start" x="294" y="-436.8" font-family="Helvetica,sans-Serif" font-size="11.00" fill="#000000">&lt; 1</text>
<polygon fill="#ffffff" stroke="transparent" points="350,-431.7 350,-448.7 399,-448.7 399,-431.7 350,-431.7"/>
<text text-anchor="start" x="371.4431" y="-436.8" font-family="Helvetica,sans-Serif" font-size="11.00" fill="#000000"> &#160;</text>
<polygon fill="#ffffff" stroke="transparent" points="399,-431.7 399,-448.7 447,-448.7 447,-431.7 399,-431.7"/>
<text text-anchor="start" x="438.8862" y="-436.8" font-family="Helvetica,sans-Serif" font-size="11.00" fill="#000000"> &#160;</text>
<polygon fill="#000000" stroke="#000000" points="350,-431.7 350,-448.7 350,-448.7 350,-431.7 350,-431.7"/>
<polygon fill="#000000" stroke="#000000" points="399,-431.7 399,-448.7 399,-448.7 399,-431.7 399,-431.7"/>
</a>
</g>
</g>
<!-- users -->
<g id="node2" class="node">
<title>users</title>
<g id="a_node2"><a xlink:href="../../tables/users.html" xlink:title="users" target="_top">
<polygon fill="#ffffff" stroke="transparent" points="8,-195.7 8,-395.7 238,-395.7 238,-195.7 8,-195.7"/>
<polygon fill="#f5f5f5" stroke="transparent" points="10,-370.7 10,-393.7 236,-393.7 236,-370.7 10,-370.7"/>
<polygon fill="none" stroke="#000000" points="10,-370.7 10,-393.7 236,-393.7 236,-370.7 10,-370.7"/>
<text text-anchor="start" x="15" y="-379.3" font-family="Helvetica,sans-Serif" font-weight="bold" font-size="11.00" fill="#000000">users</text>
<text text-anchor="start" x="201.0437" y="-378.8" font-family="Helvetica,sans-Serif" font-size="11.00" fill="#000000">[table]</text>
<polygon fill="none" stroke="#000000" points="10,-348.7 10,-370.7 113,-370.7 113,-348.7 10,-348.7"/>
<image xlink:href="../../images/primaryKeys.png" width="11px" height="12px" preserveAspectRatio="xMinYMin meet" x="15" y="-365.7"/>
<text text-anchor="start" x="30" y="-355.8" font-family="Helvetica,sans-Serif" font-size="11.00" fill="#000000">id</text>
<polygon fill="none" stroke="#000000" points="113,-348.7 113,-370.7 236,-370.7 236,-348.7 113,-348.7"/>
<text text-anchor="start" x="116" y="-356.4" font-family="Helvetica,sans-Serif" font-size="11.00" fill="#000000">uuid[2147483647]</text>
<polygon fill="none" stroke="#000000" points="10,-326.7 10,-348.7 113,-348.7 113,-326.7 10,-326.7"/>
<text text-anchor="start" x="30" y="-333.8" font-family="Helvetica,sans-Serif" font-size="11.00" fill="#000000">email</text>
<polygon fill="none" stroke="#000000" points="113,-326.7 113,-348.7 236,-348.7 236,-326.7 113,-326.7"/>
<text text-anchor="start" x="116" y="-334.4" font-family="Helvetica,sans-Serif" font-size="11.00" fill="#000000">varchar[320]</text>
<polygon fill="none" stroke="#000000" points="10,-304.7 10,-326.7 113,-326.7 113,-304.7 10,-304.7"/>
<text text-anchor="start" x="30" y="-311.8" font-family="Helvetica,sans-Serif" font-size="11.00" fill="#000000">name</text>
<polygon fill="none" stroke="#000000" points="113,-304.7 113,-326.7 236,-326.7 236,-304.7 113,-304.7"/>
<text text-anchor="start" x="116" y="-312.4" font-family="Helvetica,sans-Serif" font-size="11.00" fill="#000000">varchar[255]</text>
<polygon fill="none" stroke="#000000" points="10,-282.7 10,-304.7 113,-304.7 113,-282.7 10,-282.7"/>
<text text-anchor="start" x="30" y="-289.8" font-family="Helvetica,sans-Serif" font-size="11.00" fill="#000000">created_at</text>
<polygon fill="none" stroke="#000000" points="113,-282.7 113,-304.7 236,-304.7 236,-282.7 113,-282.7"/>
<text text-anchor="start" x="116" y="-290.4" font-family="Helvetica,sans-Serif" font-size="11.00" fill="#000000">timestamptz[35,6]</text>
<polygon fill="none" stroke="#000000" points="10,-260.7 10,-282.7 113,-282.7 113,-260.7 10,-260.7"/>
<text text-anchor="start" x="30" y="-267.8" font-family="Helvetica,sans-Serif" font-size="11.00" fill="#000000">updated_at</text>
<polygon fill="none" stroke="#000000" points="113,-260.7 113,-282.7 236,-282.7 236,-260.7 113,-260.7"/>
<text text-anchor="start" x="116" y="-268.4" font-family="Helvetica,sans-Serif" font-size="11.00" fill="#000000">timestamptz[35,6]</text>
<polygon fill="none" stroke="#000000" points="10,-238.7 10,-260.7 113,-260.7 113,-238.7 10,-238.7"/>
<text text-anchor="start" x="30" y="-245.8" font-family="Helvetica,sans-Serif" font-size="11.00" fill="#000000">role</text>
<polygon fill="none" stroke="#000000" points="113,-238.7 113,-260.7 236,-260.7 236,-238.7 113,-238.7"/>
<text text-anchor="start" x="116" y="-246.4" font-family="Helvetica,sans-Serif" font-size="11.00" fill="#000000">userrole[2147483647]</text>
<polygon fill="none" stroke="#000000" points="10,-216.7 10,-238.7 113,-238.7 113,-216.7 10,-216.7"/>
<text text-anchor="start" x="30" y="-223.8" font-family="Helvetica,sans-Serif" font-size="11.00" fill="#000000">status</text>
<polygon fill="none" stroke="#000000" points="113,-216.7 113,-238.7 236,-238.7 236,-216.7 113,-216.7"/>
<text text-anchor="start" x="115.501" y="-224.4" font-family="Helvetica,sans-Serif" font-size="11.00" fill="#000000">userstatus[2147483647]</text>
<polygon fill="#ffffff" stroke="transparent" points="10,-197.7 10,-216.7 236,-216.7 236,-197.7 10,-197.7"/>
<polygon fill="none" stroke="#000000" points="10,-197.7 10,-216.7 236,-216.7 236,-197.7 10,-197.7"/>
<polygon fill="#ffffff" stroke="transparent" points="11,-198.7 11,-215.7 89,-215.7 89,-198.7 11,-198.7"/>
<text text-anchor="start" x="13" y="-203.8" font-family="Helvetica,sans-Serif" font-size="11.00" fill="#000000">&lt; 0</text>
<polygon fill="#ffffff" stroke="transparent" points="89,-198.7 89,-215.7 158,-215.7 158,-198.7 89,-198.7"/>
<text text-anchor="start" x="120.4431" y="-203.8" font-family="Helvetica,sans-Serif" font-size="11.00" fill="#000000"> &#160;</text>
<polygon fill="#ffffff" stroke="transparent" points="158,-198.7 158,-215.7 235,-215.7 235,-198.7 158,-198.7"/>
<text text-anchor="start" x="217.4053" y="-203.8" font-family="Helvetica,sans-Serif" font-size="11.00" fill="#000000">5 &gt;</text>
<polygon fill="#000000" stroke="#000000" points="89,-198.7 89,-215.7 89,-215.7 89,-198.7 89,-198.7"/>
<polygon fill="#000000" stroke="#000000" points="158,-198.7 158,-215.7 158,-215.7 158,-198.7 158,-198.7"/>
<polygon fill="none" stroke="#000000" stroke-width="2" points="9,-196.7 9,-394.7 237,-394.7 237,-196.7 9,-196.7"/>
</a>
</g>
</g>
<!-- oauth_identities&#45;&gt;users -->
<g id="edge1" class="edge">
<title>oauth_identities:w&#45;&gt;users:e</title>
<path fill="none" stroke="#000000" d="M276.6413,-521.124C227.8132,-500.2596 307.1728,-359.7 236,-359.7"/>
<polygon fill="#000000" stroke="#000000" points="283.1257,-522.2873 290.3643,-527.2434 287.0629,-522.9936 291,-523.7 291,-523.7 291,-523.7 287.0629,-522.9936 291.6357,-520.1566 283.1257,-522.2873 283.1257,-522.2873"/>
<ellipse fill="none" stroke="#000000" cx="279.976" cy="-521.7222" rx="3.2" ry="3.2"/>
</g>
<!-- summaries -->
<g id="node3" class="node">
<title>summaries</title>
<g id="a_node3"><a xlink:href="../../tables/summaries.html" xlink:title="summaries" target="_top">
<polygon fill="#ffffff" stroke="transparent" points="500,-233.2 500,-382.2 645,-382.2 645,-233.2 500,-233.2"/>
<polygon fill="#f5f5f5" stroke="transparent" points="500.5,-358.7 500.5,-381.7 645.5,-381.7 645.5,-358.7 500.5,-358.7"/>
<polygon fill="none" stroke="#000000" points="500.5,-358.7 500.5,-381.7 645.5,-381.7 645.5,-358.7 500.5,-358.7"/>
<text text-anchor="start" x="505.5" y="-367.3" font-family="Helvetica,sans-Serif" font-weight="bold" font-size="11.00" fill="#000000">summaries</text>
<text text-anchor="start" x="610.5437" y="-366.8" font-family="Helvetica,sans-Serif" font-size="11.00" fill="#000000">[table]</text>
<polygon fill="none" stroke="#000000" points="500.5,-336.7 500.5,-358.7 645.5,-358.7 645.5,-336.7 500.5,-336.7"/>
<image xlink:href="../../images/primaryKeys.png" width="11px" height="12px" preserveAspectRatio="xMinYMin meet" x="505.5" y="-353.7"/>
<text text-anchor="start" x="520.5" y="-343.8" font-family="Helvetica,sans-Serif" font-size="11.00" fill="#000000">id</text>
<polygon fill="#ffffff" stroke="transparent" points="500.5,-314.7 500.5,-336.7 645.5,-336.7 645.5,-314.7 500.5,-314.7"/>
<polygon fill="none" stroke="#000000" points="500.5,-314.7 500.5,-336.7 645.5,-336.7 645.5,-314.7 500.5,-314.7"/>
<text text-anchor="start" x="520.5" y="-321.8" font-family="Helvetica,sans-Serif" font-size="11.00" fill="#000000">content_hash</text>
<polygon fill="#ffffff" stroke="transparent" points="500.5,-292.7 500.5,-314.7 645.5,-314.7 645.5,-292.7 500.5,-292.7"/>
<polygon fill="none" stroke="#000000" points="500.5,-292.7 500.5,-314.7 645.5,-314.7 645.5,-292.7 500.5,-292.7"/>
<image xlink:href="../../images/foreignKeys.png" width="11px" height="12px" preserveAspectRatio="xMinYMin meet" x="505.5" y="-309.7"/>
<text text-anchor="start" x="520.5" y="-299.8" font-family="Helvetica,sans-Serif" font-size="11.00" fill="#000000">user_id</text>
<polygon fill="#ffffff" stroke="transparent" points="500.5,-270.7 500.5,-292.7 645.5,-292.7 645.5,-270.7 500.5,-270.7"/>
<polygon fill="none" stroke="#000000" points="500.5,-270.7 500.5,-292.7 645.5,-292.7 645.5,-270.7 500.5,-270.7"/>
<image xlink:href="../../images/foreignKeys.png" width="11px" height="12px" preserveAspectRatio="xMinYMin meet" x="505.5" y="-287.7"/>
<text text-anchor="start" x="520.5" y="-277.8" font-family="Helvetica,sans-Serif" font-size="11.00" fill="#000000">group_id</text>
<polygon fill="none" stroke="#000000" points="500.5,-251.7 500.5,-270.7 645.5,-270.7 645.5,-251.7 500.5,-251.7"/>
<text text-anchor="start" x="503.5" y="-257.8" font-family="Helvetica,sans-Serif" font-size="11.00" fill="#000000">...</text>
<polygon fill="#ffffff" stroke="transparent" points="500.5,-232.7 500.5,-251.7 645.5,-251.7 645.5,-232.7 500.5,-232.7"/>
<polygon fill="none" stroke="#000000" points="500.5,-232.7 500.5,-251.7 645.5,-251.7 645.5,-232.7 500.5,-232.7"/>
<polygon fill="#ffffff" stroke="transparent" points="501.5,-233.7 501.5,-250.7 552.5,-250.7 552.5,-233.7 501.5,-233.7"/>
<text text-anchor="start" x="503.5" y="-238.8" font-family="Helvetica,sans-Serif" font-size="11.00" fill="#000000">&lt; 2</text>
<polygon fill="#ffffff" stroke="transparent" points="552.5,-233.7 552.5,-250.7 594.5,-250.7 594.5,-233.7 552.5,-233.7"/>
<text text-anchor="start" x="570.4431" y="-238.8" font-family="Helvetica,sans-Serif" font-size="11.00" fill="#000000"> &#160;</text>
<polygon fill="#ffffff" stroke="transparent" points="594.5,-233.7 594.5,-250.7 644.5,-250.7 644.5,-233.7 594.5,-233.7"/>
<text text-anchor="start" x="626.9053" y="-238.8" font-family="Helvetica,sans-Serif" font-size="11.00" fill="#000000">5 &gt;</text>
<polygon fill="#000000" stroke="#000000" points="552.5,-233.7 552.5,-250.7 552.5,-250.7 552.5,-233.7 552.5,-233.7"/>
<polygon fill="#000000" stroke="#000000" points="594.5,-233.7 594.5,-250.7 594.5,-250.7 594.5,-233.7 594.5,-233.7"/>
</a>
</g>
</g>
<!-- summaries&#45;&gt;users -->
<g id="edge3" class="edge">
<title>summaries:w&#45;&gt;users:e</title>
<path fill="none" stroke="#000000" d="M486.6121,-308.4479C476.5298,-317.5906 477.1006,-337.4634 459,-345.7 368.612,-386.8307 335.3062,-359.7 236,-359.7"/>
<polygon fill="#000000" stroke="#000000" points="492.9301,-306.288 501.6646,-307.1064 496.7151,-304.994 500.5,-303.7 500.5,-303.7 500.5,-303.7 496.7151,-304.994 499.3354,-300.2936 492.9301,-306.288 492.9301,-306.288"/>
<ellipse fill="none" stroke="#000000" cx="489.9022" cy="-307.3232" rx="3.2" ry="3.2"/>
</g>
<!-- summary_groups -->
<g id="node4" class="node">
<title>summary_groups</title>
<g id="a_node4"><a xlink:href="../../tables/summary_groups.html" xlink:title="summary_groups" target="_top">
<polygon fill="#ffffff" stroke="transparent" points="287,-208.2 287,-335.2 451,-335.2 451,-208.2 287,-208.2"/>
<polygon fill="#f5f5f5" stroke="transparent" points="287,-311.7 287,-334.7 451,-334.7 451,-311.7 287,-311.7"/>
<polygon fill="none" stroke="#000000" points="287,-311.7 287,-334.7 451,-334.7 451,-311.7 287,-311.7"/>
<text text-anchor="start" x="292" y="-320.3" font-family="Helvetica,sans-Serif" font-weight="bold" font-size="11.00" fill="#000000">summary_groups</text>
<text text-anchor="start" x="416.5219" y="-319.8" font-family="Helvetica,sans-Serif" font-size="11.00" fill="#000000">[table]</text>
<polygon fill="none" stroke="#000000" points="287,-289.7 287,-311.7 451,-311.7 451,-289.7 287,-289.7"/>
<image xlink:href="../../images/primaryKeys.png" width="11px" height="12px" preserveAspectRatio="xMinYMin meet" x="292" y="-306.7"/>
<text text-anchor="start" x="316" y="-296.8" font-family="Helvetica,sans-Serif" font-size="11.00" fill="#000000">id</text>
<polygon fill="#ffffff" stroke="transparent" points="287,-267.7 287,-289.7 451,-289.7 451,-267.7 287,-267.7"/>
<polygon fill="none" stroke="#000000" points="287,-267.7 287,-289.7 451,-289.7 451,-267.7 287,-267.7"/>
<image xlink:href="../../images/foreignKeys.png" width="11px" height="12px" preserveAspectRatio="xMinYMin meet" x="292" y="-284.7"/>
<text text-anchor="start" x="316" y="-274.8" font-family="Helvetica,sans-Serif" font-size="11.00" fill="#000000">user_id</text>
<polygon fill="#ffffff" stroke="transparent" points="287,-245.7 287,-267.7 451,-267.7 451,-245.7 287,-245.7"/>
<polygon fill="none" stroke="#000000" points="287,-245.7 287,-267.7 451,-267.7 451,-245.7 287,-245.7"/>
<text text-anchor="start" x="316" y="-252.8" font-family="Helvetica,sans-Serif" font-size="11.00" fill="#000000">name</text>
<polygon fill="none" stroke="#000000" points="287,-226.7 287,-245.7 451,-245.7 451,-226.7 287,-226.7"/>
<text text-anchor="start" x="290" y="-232.8" font-family="Helvetica,sans-Serif" font-size="11.00" fill="#000000">...</text>
<polygon fill="#ffffff" stroke="transparent" points="287,-207.7 287,-226.7 451,-226.7 451,-207.7 287,-207.7"/>
<polygon fill="none" stroke="#000000" points="287,-207.7 287,-226.7 451,-226.7 451,-207.7 287,-207.7"/>
<polygon fill="#ffffff" stroke="transparent" points="288,-208.7 288,-225.7 345,-225.7 345,-208.7 288,-208.7"/>
<text text-anchor="start" x="290" y="-213.8" font-family="Helvetica,sans-Serif" font-size="11.00" fill="#000000">&lt; 1</text>
<polygon fill="#ffffff" stroke="transparent" points="345,-208.7 345,-225.7 393,-225.7 393,-208.7 345,-208.7"/>
<text text-anchor="start" x="365.9431" y="-213.8" font-family="Helvetica,sans-Serif" font-size="11.00" fill="#000000"> &#160;</text>
<polygon fill="#ffffff" stroke="transparent" points="393,-208.7 393,-225.7 450,-225.7 450,-208.7 393,-208.7"/>
<text text-anchor="start" x="432.4053" y="-213.8" font-family="Helvetica,sans-Serif" font-size="11.00" fill="#000000">1 &gt;</text>
<polygon fill="#000000" stroke="#000000" points="345,-208.7 345,-225.7 345,-225.7 345,-208.7 345,-208.7"/>
<polygon fill="#000000" stroke="#000000" points="393,-208.7 393,-225.7 393,-225.7 393,-208.7 393,-208.7"/>
</a>
</g>
</g>
<!-- summaries&#45;&gt;summary_groups -->
<g id="edge2" class="edge">
<title>summaries:w&#45;&gt;summary_groups:e</title>
<path fill="none" stroke="#000000" d="M486.138,-284.6688C474.4253,-290.0125 468.6737,-300.7 451,-300.7"/>
<polygon fill="#000000" stroke="#000000" points="492.6656,-283.3195 501.2288,-285.2255 496.5828,-282.5097 500.5,-281.7 500.5,-281.7 500.5,-281.7 496.5828,-282.5097 499.7712,-278.1745 492.6656,-283.3195 492.6656,-283.3195"/>
<ellipse fill="none" stroke="#000000" cx="489.5319" cy="-283.9673" rx="3.2" ry="3.2"/>
</g>
<!-- summary_groups&#45;&gt;users -->
<g id="edge4" class="edge">
<title>summary_groups:w&#45;&gt;users:e</title>
<path fill="none" stroke="#000000" d="M273.1725,-283.0549C252.5291,-299.8794 272.5591,-359.7 236,-359.7"/>
<polygon fill="#000000" stroke="#000000" points="279.3695,-281.1032 288.0815,-282.1337 283.1847,-279.9016 287,-278.7 287,-278.7 287,-278.7 283.1847,-279.9016 285.9185,-275.2663 279.3695,-281.1032 279.3695,-281.1032"/>
<ellipse fill="none" stroke="#000000" cx="276.3173" cy="-282.0645" rx="3.2" ry="3.2"/>
</g>
<!-- transcription_jobs -->
<g id="node5" class="node">
<title>transcription_jobs</title>
<g id="a_node5"><a xlink:href="../../tables/transcription_jobs.html" xlink:title="transcription_jobs" target="_top">
<polygon fill="#ffffff" stroke="transparent" points="694,-274.2 694,-467.2 865,-467.2 865,-274.2 694,-274.2"/>
<polygon fill="#f5f5f5" stroke="transparent" points="694.5,-443.7 694.5,-466.7 865.5,-466.7 865.5,-443.7 694.5,-443.7"/>
<polygon fill="none" stroke="#000000" points="694.5,-443.7 694.5,-466.7 865.5,-466.7 865.5,-443.7 694.5,-443.7"/>
<text text-anchor="start" x="699.5" y="-452.3" font-family="Helvetica,sans-Serif" font-weight="bold" font-size="11.00" fill="#000000">transcription_jobs</text>
<text text-anchor="start" x="831.0219" y="-451.8" font-family="Helvetica,sans-Serif" font-size="11.00" fill="#000000">[table]</text>
<polygon fill="none" stroke="#000000" points="694.5,-421.7 694.5,-443.7 865.5,-443.7 865.5,-421.7 694.5,-421.7"/>
<image xlink:href="../../images/primaryKeys.png" width="11px" height="12px" preserveAspectRatio="xMinYMin meet" x="699.5" y="-438.7"/>
<text text-anchor="start" x="723.5" y="-428.8" font-family="Helvetica,sans-Serif" font-size="11.00" fill="#000000">id</text>
<polygon fill="#ffffff" stroke="transparent" points="694.5,-399.7 694.5,-421.7 865.5,-421.7 865.5,-399.7 694.5,-399.7"/>
<polygon fill="none" stroke="#000000" points="694.5,-399.7 694.5,-421.7 865.5,-421.7 865.5,-399.7 694.5,-399.7"/>
<image xlink:href="../../images/foreignKeys.png" width="11px" height="12px" preserveAspectRatio="xMinYMin meet" x="699.5" y="-416.7"/>
<text text-anchor="start" x="723.5" y="-406.8" font-family="Helvetica,sans-Serif" font-size="11.00" fill="#000000">user_id</text>
<polygon fill="#ffffff" stroke="transparent" points="694.5,-377.7 694.5,-399.7 865.5,-399.7 865.5,-377.7 694.5,-377.7"/>
<polygon fill="none" stroke="#000000" points="694.5,-377.7 694.5,-399.7 865.5,-399.7 865.5,-377.7 694.5,-377.7"/>
<text text-anchor="start" x="723.5" y="-384.8" font-family="Helvetica,sans-Serif" font-size="11.00" fill="#000000">status</text>
<polygon fill="#ffffff" stroke="transparent" points="694.5,-355.7 694.5,-377.7 865.5,-377.7 865.5,-355.7 694.5,-355.7"/>
<polygon fill="none" stroke="#000000" points="694.5,-355.7 694.5,-377.7 865.5,-377.7 865.5,-355.7 694.5,-355.7"/>
<text text-anchor="start" x="723.5" y="-362.8" font-family="Helvetica,sans-Serif" font-size="11.00" fill="#000000">content_hash</text>
<polygon fill="#ffffff" stroke="transparent" points="694.5,-333.7 694.5,-355.7 865.5,-355.7 865.5,-333.7 694.5,-333.7"/>
<polygon fill="none" stroke="#000000" points="694.5,-333.7 694.5,-355.7 865.5,-355.7 865.5,-333.7 694.5,-333.7"/>
<image xlink:href="../../images/foreignKeys.png" width="11px" height="12px" preserveAspectRatio="xMinYMin meet" x="699.5" y="-350.7"/>
<text text-anchor="start" x="723.5" y="-340.8" font-family="Helvetica,sans-Serif" font-size="11.00" fill="#000000">summary_id</text>
<polygon fill="#ffffff" stroke="transparent" points="694.5,-311.7 694.5,-333.7 865.5,-333.7 865.5,-311.7 694.5,-311.7"/>
<polygon fill="none" stroke="#000000" points="694.5,-311.7 694.5,-333.7 865.5,-333.7 865.5,-311.7 694.5,-311.7"/>
<text text-anchor="start" x="723.5" y="-318.8" font-family="Helvetica,sans-Serif" font-size="11.00" fill="#000000">created_at</text>
<polygon fill="none" stroke="#000000" points="694.5,-292.7 694.5,-311.7 865.5,-311.7 865.5,-292.7 694.5,-292.7"/>
<text text-anchor="start" x="697.5" y="-298.8" font-family="Helvetica,sans-Serif" font-size="11.00" fill="#000000">...</text>
<polygon fill="#ffffff" stroke="transparent" points="694.5,-273.7 694.5,-292.7 865.5,-292.7 865.5,-273.7 694.5,-273.7"/>
<polygon fill="none" stroke="#000000" points="694.5,-273.7 694.5,-292.7 865.5,-292.7 865.5,-273.7 694.5,-273.7"/>
<polygon fill="#ffffff" stroke="transparent" points="695.5,-274.7 695.5,-291.7 758.5,-291.7 758.5,-274.7 695.5,-274.7"/>
<text text-anchor="start" x="697.5" y="-279.8" font-family="Helvetica,sans-Serif" font-size="11.00" fill="#000000">&lt; 2</text>
<polygon fill="#ffffff" stroke="transparent" points="758.5,-274.7 758.5,-291.7 811.5,-291.7 811.5,-274.7 758.5,-274.7"/>
<text text-anchor="start" x="781.9431" y="-279.8" font-family="Helvetica,sans-Serif" font-size="11.00" fill="#000000"> &#160;</text>
<polygon fill="#ffffff" stroke="transparent" points="811.5,-274.7 811.5,-291.7 864.5,-291.7 864.5,-274.7 811.5,-274.7"/>
<text text-anchor="start" x="856.3862" y="-279.8" font-family="Helvetica,sans-Serif" font-size="11.00" fill="#000000"> &#160;</text>
<polygon fill="#000000" stroke="#000000" points="758.5,-274.7 758.5,-291.7 758.5,-291.7 758.5,-274.7 758.5,-274.7"/>
<polygon fill="#000000" stroke="#000000" points="811.5,-274.7 811.5,-291.7 811.5,-291.7 811.5,-274.7 811.5,-274.7"/>
</a>
</g>
</g>
<!-- transcription_jobs&#45;&gt;users -->
<g id="edge6" class="edge">
<title>transcription_jobs:w&#45;&gt;users:e</title>
<path fill="none" stroke="#000000" d="M679.8388,-410.6672C506.2618,-409.8753 457.6279,-394.7682 279,-367.7 259.7804,-364.7876 255.439,-359.7 236,-359.7"/>
<polygon fill="#000000" stroke="#000000" points="686.5,-410.682 694.4919,-414.3 690.5,-410.691 694.5,-410.7 694.5,-410.7 694.5,-410.7 690.5,-410.691 694.5081,-407.1 686.5,-410.682 686.5,-410.682"/>
<ellipse fill="none" stroke="#000000" cx="683.3" cy="-410.6749" rx="3.2" ry="3.2"/>
</g>
<!-- transcription_jobs&#45;&gt;summaries -->
<g id="edge5" class="edge">
<title>transcription_jobs:w&#45;&gt;summaries:e</title>
<path fill="none" stroke="#000000" d="M679.9797,-345.2226C668.6714,-346.0821 661.523,-347.7 645.5,-347.7"/>
<polygon fill="#000000" stroke="#000000" points="686.5052,-344.9878 694.6295,-348.2977 690.5026,-344.8439 694.5,-344.7 694.5,-344.7 694.5,-344.7 690.5026,-344.8439 694.3705,-341.1023 686.5052,-344.9878 686.5052,-344.9878"/>
<ellipse fill="none" stroke="#000000" cx="683.3072" cy="-345.1029" rx="3.2" ry="3.2"/>
</g>
<!-- user_sessions -->
<g id="node6" class="node">
<title>user_sessions</title>
<g id="a_node6"><a xlink:href="../../tables/user_sessions.html" xlink:title="user_sessions" target="_top">
<polygon fill="#ffffff" stroke="transparent" points="299,-38.2 299,-187.2 439,-187.2 439,-38.2 299,-38.2"/>
<polygon fill="#f5f5f5" stroke="transparent" points="299,-163.7 299,-186.7 439,-186.7 439,-163.7 299,-163.7"/>
<polygon fill="none" stroke="#000000" points="299,-163.7 299,-186.7 439,-186.7 439,-163.7 299,-163.7"/>
<text text-anchor="start" x="304" y="-172.3" font-family="Helvetica,sans-Serif" font-weight="bold" font-size="11.00" fill="#000000">user_sessions</text>
<text text-anchor="start" x="404.5219" y="-171.8" font-family="Helvetica,sans-Serif" font-size="11.00" fill="#000000">[table]</text>
<polygon fill="none" stroke="#000000" points="299,-141.7 299,-163.7 439,-163.7 439,-141.7 299,-141.7"/>
<image xlink:href="../../images/primaryKeys.png" width="11px" height="12px" preserveAspectRatio="xMinYMin meet" x="304" y="-158.7"/>
<text text-anchor="start" x="328" y="-148.8" font-family="Helvetica,sans-Serif" font-size="11.00" fill="#000000">id</text>
<polygon fill="#ffffff" stroke="transparent" points="299,-119.7 299,-141.7 439,-141.7 439,-119.7 299,-119.7"/>
<polygon fill="none" stroke="#000000" points="299,-119.7 299,-141.7 439,-141.7 439,-119.7 299,-119.7"/>
<image xlink:href="../../images/foreignKeys.png" width="11px" height="12px" preserveAspectRatio="xMinYMin meet" x="304" y="-136.7"/>
<text text-anchor="start" x="328" y="-126.8" font-family="Helvetica,sans-Serif" font-size="11.00" fill="#000000">user_id</text>
<polygon fill="#ffffff" stroke="transparent" points="299,-97.7 299,-119.7 439,-119.7 439,-97.7 299,-97.7"/>
<polygon fill="none" stroke="#000000" points="299,-97.7 299,-119.7 439,-119.7 439,-97.7 299,-97.7"/>
<text text-anchor="start" x="328" y="-104.8" font-family="Helvetica,sans-Serif" font-size="11.00" fill="#000000">token_hash</text>
<polygon fill="#ffffff" stroke="transparent" points="299,-75.7 299,-97.7 439,-97.7 439,-75.7 299,-75.7"/>
<polygon fill="none" stroke="#000000" points="299,-75.7 299,-97.7 439,-97.7 439,-75.7 299,-75.7"/>
<text text-anchor="start" x="328" y="-82.8" font-family="Helvetica,sans-Serif" font-size="11.00" fill="#000000">expires_at</text>
<polygon fill="none" stroke="#000000" points="299,-56.7 299,-75.7 439,-75.7 439,-56.7 299,-56.7"/>
<text text-anchor="start" x="302" y="-62.8" font-family="Helvetica,sans-Serif" font-size="11.00" fill="#000000">...</text>
<polygon fill="#ffffff" stroke="transparent" points="299,-37.7 299,-56.7 439,-56.7 439,-37.7 299,-37.7"/>
<polygon fill="none" stroke="#000000" points="299,-37.7 299,-56.7 439,-56.7 439,-37.7 299,-37.7"/>
<polygon fill="#ffffff" stroke="transparent" points="300,-38.7 300,-55.7 352,-55.7 352,-38.7 300,-38.7"/>
<text text-anchor="start" x="302" y="-43.8" font-family="Helvetica,sans-Serif" font-size="11.00" fill="#000000">&lt; 1</text>
<polygon fill="#ffffff" stroke="transparent" points="352,-38.7 352,-55.7 395,-55.7 395,-38.7 352,-38.7"/>
<text text-anchor="start" x="370.4431" y="-43.8" font-family="Helvetica,sans-Serif" font-size="11.00" fill="#000000"> &#160;</text>
<polygon fill="#ffffff" stroke="transparent" points="395,-38.7 395,-55.7 438,-55.7 438,-38.7 395,-38.7"/>
<text text-anchor="start" x="429.8862" y="-43.8" font-family="Helvetica,sans-Serif" font-size="11.00" fill="#000000"> &#160;</text>
<polygon fill="#000000" stroke="#000000" points="352,-38.7 352,-55.7 352,-55.7 352,-38.7 352,-38.7"/>
<polygon fill="#000000" stroke="#000000" points="395,-38.7 395,-55.7 395,-55.7 395,-38.7 395,-38.7"/>
</a>
</g>
</g>
<!-- user_sessions&#45;&gt;users -->
<g id="edge7" class="edge">
<title>user_sessions:w&#45;&gt;users:e</title>
<path fill="none" stroke="#000000" d="M284.3422,-132.5433C208.3573,-154.2155 335.9925,-359.7 236,-359.7"/>
<polygon fill="#000000" stroke="#000000" points="291.0625,-131.6982 299.4492,-134.2719 295.0313,-131.1991 299,-130.7 299,-130.7 299,-130.7 295.0313,-131.1991 298.5508,-127.1281 291.0625,-131.6982 291.0625,-131.6982"/>
<ellipse fill="none" stroke="#000000" cx="287.8875" cy="-132.0975" rx="3.2" ry="3.2"/>
</g>
</g>
</svg>
