<?xml version="1.0" encoding="UTF-8" standalone="no"?>
<!DOCTYPE svg PUBLIC "-//W3C//DTD SVG 1.1//EN"
 "http://www.w3.org/Graphics/SVG/1.1/DTD/svg11.dtd">
<!-- Generated by graphviz version 2.40.1 (20161225.0304)
 -->
<!-- Title: twoDegreesRelationshipsDiagram Pages: 1 -->
<svg width="440pt" height="349pt"
 viewBox="0.00 0.00 440.00 348.70" xmlns="http://www.w3.org/2000/svg" xmlns:xlink="http://www.w3.org/1999/xlink">
<g id="graph0" class="graph" transform="scale(1 1) rotate(0) translate(4 344.7)">
<title>twoDegreesRelationshipsDiagram</title>
<polygon fill="#ffffff" stroke="transparent" points="-4,4 -4,-344.7 436,-344.7 436,4 -4,4"/>
<text text-anchor="middle" x="72.4936" y="-7.3" font-family="Helvetica,sans-Serif" font-size="11.00" fill="#000000">Generated by SchemaSpy</text>
<!-- action_items -->
<g id="node1" class="node">
<title>action_items</title>
<g id="a_node1"><a xlink:href="../../tables/action_items.html" xlink:title="action_items" target="_top">
<polygon fill="#ffffff" stroke="transparent" points="247.5,-275.7 247.5,-336.7 378.5,-336.7 378.5,-275.7 247.5,-275.7"/>
<polygon fill="#f5f5f5" stroke="transparent" points="248,-313.2 248,-336.2 379,-336.2 379,-313.2 248,-313.2"/>
<polygon fill="none" stroke="#000000" points="248,-313.2 248,-336.2 379,-336.2 379,-313.2 248,-313.2"/>
<text text-anchor="start" x="253" y="-321.8" font-family="Helvetica,sans-Serif" font-weight="bold" font-size="11.00" fill="#000000">action_items</text>
<text text-anchor="start" x="344.5219" y="-321.3" font-family="Helvetica,sans-Serif" font-size="11.00" fill="#000000">[table]</text>
<polygon fill="none" stroke="#000000" points="248,-294.2 248,-313.2 379,-313.2 379,-294.2 248,-294.2"/>
<text text-anchor="start" x="251" y="-300.3" font-family="Helvetica,sans-Serif" font-size="11.00" fill="#000000">...</text>
<polygon fill="#ffffff" stroke="transparent" points="248,-275.2 248,-294.2 379,-294.2 379,-275.2 248,-275.2"/>
<polygon fill="none" stroke="#000000" points="248,-275.2 248,-294.2 379,-294.2 379,-275.2 248,-275.2"/>
<polygon fill="#ffffff" stroke="transparent" points="249,-276.2 249,-293.2 298,-293.2 298,-276.2 249,-276.2"/>
<text text-anchor="start" x="251" y="-281.3" font-family="Helvetica,sans-Serif" font-size="11.00" fill="#000000">&lt; 1</text>
<polygon fill="#ffffff" stroke="transparent" points="298,-276.2 298,-293.2 338,-293.2 338,-276.2 298,-276.2"/>
<text text-anchor="start" x="314.9431" y="-281.3" font-family="Helvetica,sans-Serif" font-size="11.00" fill="#000000"> &#160;</text>
<polygon fill="#ffffff" stroke="transparent" points="338,-276.2 338,-293.2 378,-293.2 378,-276.2 338,-276.2"/>
<text text-anchor="start" x="369.8862" y="-281.3" font-family="Helvetica,sans-Serif" font-size="11.00" fill="#000000"> &#160;</text>
<polygon fill="#000000" stroke="#000000" points="298,-276.2 298,-293.2 298,-293.2 298,-276.2 298,-276.2"/>
<polygon fill="#000000" stroke="#000000" points="338,-276.2 338,-293.2 338,-293.2 338,-276.2 338,-276.2"/>
</a>
</g>
</g>
<!-- summaries -->
<g id="node2" class="node">
<title>summaries</title>
<g id="a_node2"><a xlink:href="../../tables/summaries.html" xlink:title="summaries" target="_top">
<polygon fill="#ffffff" stroke="transparent" points="8,-150.7 8,-255.7 153,-255.7 153,-150.7 8,-150.7"/>
<polygon fill="#f5f5f5" stroke="transparent" points="8.5,-232.2 8.5,-255.2 153.5,-255.2 153.5,-232.2 8.5,-232.2"/>
<polygon fill="none" stroke="#000000" points="8.5,-232.2 8.5,-255.2 153.5,-255.2 153.5,-232.2 8.5,-232.2"/>
<text text-anchor="start" x="13.5" y="-240.8" font-family="Helvetica,sans-Serif" font-weight="bold" font-size="11.00" fill="#000000">summaries</text>
<text text-anchor="start" x="118.5437" y="-240.3" font-family="Helvetica,sans-Serif" font-size="11.00" fill="#000000">[table]</text>
<polygon fill="none" stroke="#000000" points="8.5,-210.2 8.5,-232.2 153.5,-232.2 153.5,-210.2 8.5,-210.2"/>
<image xlink:href="../../images/primaryKeys.png" width="11px" height="12px" preserveAspectRatio="xMinYMin meet" x="13.5" y="-227.2"/>
<text text-anchor="start" x="28.5" y="-217.3" font-family="Helvetica,sans-Serif" font-size="11.00" fill="#000000">id</text>
<polygon fill="#ffffff" stroke="transparent" points="8.5,-188.2 8.5,-210.2 153.5,-210.2 153.5,-188.2 8.5,-188.2"/>
<polygon fill="none" stroke="#000000" points="8.5,-188.2 8.5,-210.2 153.5,-210.2 153.5,-188.2 8.5,-188.2"/>
<text text-anchor="start" x="28.5" y="-195.3" font-family="Helvetica,sans-Serif" font-size="11.00" fill="#000000">content_hash</text>
<polygon fill="none" stroke="#000000" points="8.5,-169.2 8.5,-188.2 153.5,-188.2 153.5,-169.2 8.5,-169.2"/>
<text text-anchor="start" x="11.5" y="-175.3" font-family="Helvetica,sans-Serif" font-size="11.00" fill="#000000">...</text>
<polygon fill="#ffffff" stroke="transparent" points="8.5,-150.2 8.5,-169.2 153.5,-169.2 153.5,-150.2 8.5,-150.2"/>
<polygon fill="none" stroke="#000000" points="8.5,-150.2 8.5,-169.2 153.5,-169.2 153.5,-150.2 8.5,-150.2"/>
<polygon fill="#ffffff" stroke="transparent" points="9.5,-151.2 9.5,-168.2 54.5,-168.2 54.5,-151.2 9.5,-151.2"/>
<text text-anchor="start" x="11.5" y="-156.3" font-family="Helvetica,sans-Serif" font-size="11.00" fill="#000000"> &#160;</text>
<polygon fill="#ffffff" stroke="transparent" points="54.5,-151.2 54.5,-168.2 99.5,-168.2 99.5,-151.2 54.5,-151.2"/>
<text text-anchor="start" x="73.9431" y="-156.3" font-family="Helvetica,sans-Serif" font-size="11.00" fill="#000000"> &#160;</text>
<polygon fill="#ffffff" stroke="transparent" points="99.5,-151.2 99.5,-168.2 152.5,-168.2 152.5,-151.2 99.5,-151.2"/>
<text text-anchor="start" x="134.9053" y="-156.3" font-family="Helvetica,sans-Serif" font-size="11.00" fill="#000000">3 &gt;</text>
<polygon fill="#000000" stroke="#000000" points="54.5,-151.2 54.5,-168.2 54.5,-168.2 54.5,-151.2 54.5,-151.2"/>
<polygon fill="#000000" stroke="#000000" points="99.5,-151.2 99.5,-168.2 99.5,-168.2 99.5,-151.2 99.5,-151.2"/>
</a>
</g>
</g>
<!-- action_items&#45;&gt;summaries -->
<g id="edge1" class="edge">
<title>action_items:w&#45;&gt;summaries:e</title>
<path fill="none" stroke="#000000" d="M233.5222,-301.1995C216.8986,-295.8884 211.7539,-280.7714 194,-265.2 174.0181,-247.6745 180.0786,-221.2 153.5,-221.2"/>
<polygon fill="#000000" stroke="#000000" points="240.0753,-302.1049 247.5072,-306.7661 244.0376,-302.6525 248,-303.2 248,-303.2 248,-303.2 244.0376,-302.6525 248.4928,-299.6339 240.0753,-302.1049 240.0753,-302.1049"/>
<ellipse fill="none" stroke="#000000" cx="236.9054" cy="-301.6669" rx="3.2" ry="3.2"/>
</g>
<!-- decisions -->
<g id="node3" class="node">
<title>decisions</title>
<g id="a_node3"><a xlink:href="../../tables/decisions.html" xlink:title="decisions" target="_top">
<polygon fill="#ffffff" stroke="transparent" points="259.5,-193.7 259.5,-254.7 366.5,-254.7 366.5,-193.7 259.5,-193.7"/>
<polygon fill="#f5f5f5" stroke="transparent" points="260,-231.2 260,-254.2 367,-254.2 367,-231.2 260,-231.2"/>
<polygon fill="none" stroke="#000000" points="260,-231.2 260,-254.2 367,-254.2 367,-231.2 260,-231.2"/>
<text text-anchor="start" x="265" y="-239.8" font-family="Helvetica,sans-Serif" font-weight="bold" font-size="11.00" fill="#000000">decisions</text>
<text text-anchor="start" x="332.5219" y="-239.3" font-family="Helvetica,sans-Serif" font-size="11.00" fill="#000000">[table]</text>
<polygon fill="none" stroke="#000000" points="260,-212.2 260,-231.2 367,-231.2 367,-212.2 260,-212.2"/>
<text text-anchor="start" x="263" y="-218.3" font-family="Helvetica,sans-Serif" font-size="11.00" fill="#000000">...</text>
<polygon fill="#ffffff" stroke="transparent" points="260,-193.2 260,-212.2 367,-212.2 367,-193.2 260,-193.2"/>
<polygon fill="none" stroke="#000000" points="260,-193.2 260,-212.2 367,-212.2 367,-193.2 260,-193.2"/>
<polygon fill="#ffffff" stroke="transparent" points="261,-194.2 261,-211.2 302,-211.2 302,-194.2 261,-194.2"/>
<text text-anchor="start" x="263" y="-199.3" font-family="Helvetica,sans-Serif" font-size="11.00" fill="#000000">&lt; 1</text>
<polygon fill="#ffffff" stroke="transparent" points="302,-194.2 302,-211.2 334,-211.2 334,-194.2 302,-194.2"/>
<text text-anchor="start" x="314.9431" y="-199.3" font-family="Helvetica,sans-Serif" font-size="11.00" fill="#000000"> &#160;</text>
<polygon fill="#ffffff" stroke="transparent" points="334,-194.2 334,-211.2 366,-211.2 366,-194.2 334,-194.2"/>
<text text-anchor="start" x="357.8862" y="-199.3" font-family="Helvetica,sans-Serif" font-size="11.00" fill="#000000"> &#160;</text>
<polygon fill="#000000" stroke="#000000" points="302,-194.2 302,-211.2 302,-211.2 302,-194.2 302,-194.2"/>
<polygon fill="#000000" stroke="#000000" points="334,-194.2 334,-211.2 334,-211.2 334,-194.2 334,-194.2"/>
</a>
</g>
</g>
<!-- decisions&#45;&gt;summaries -->
<g id="edge2" class="edge">
<title>decisions:w&#45;&gt;summaries:e</title>
<path fill="none" stroke="#000000" d="M245.1775,-221.2C209.5301,-221.2 195.4714,-221.2 153.5,-221.2"/>
<polygon fill="#000000" stroke="#000000" points="252,-221.2001 260,-224.8 256,-221.2 260,-221.2 260,-221.2 260,-221.2 256,-221.2 260,-217.6 252,-221.2001 252,-221.2001"/>
<ellipse fill="none" stroke="#000000" cx="248.8" cy="-221.2001" rx="3.2" ry="3.2"/>
</g>
<!-- topics -->
<g id="node4" class="node">
<title>topics</title>
<g id="a_node4"><a xlink:href="../../tables/topics.html" xlink:title="topics" target="_top">
<polygon fill="#ffffff" stroke="transparent" points="202,-38.2 202,-172.2 424,-172.2 424,-38.2 202,-38.2"/>
<polygon fill="#f5f5f5" stroke="transparent" points="204,-147.2 204,-170.2 422,-170.2 422,-147.2 204,-147.2"/>
<polygon fill="none" stroke="#000000" points="204,-147.2 204,-170.2 422,-170.2 422,-147.2 204,-147.2"/>
<text text-anchor="start" x="209" y="-155.8" font-family="Helvetica,sans-Serif" font-weight="bold" font-size="11.00" fill="#000000">topics</text>
<text text-anchor="start" x="387.0437" y="-155.3" font-family="Helvetica,sans-Serif" font-size="11.00" fill="#000000">[table]</text>
<polygon fill="none" stroke="#000000" points="204,-125.2 204,-147.2 313,-147.2 313,-125.2 204,-125.2"/>
<image xlink:href="../../images/primaryKeys.png" width="11px" height="12px" preserveAspectRatio="xMinYMin meet" x="209" y="-142.2"/>
<text text-anchor="start" x="224" y="-132.3" font-family="Helvetica,sans-Serif" font-size="11.00" fill="#000000">id</text>
<polygon fill="none" stroke="#000000" points="313,-125.2 313,-147.2 422,-147.2 422,-125.2 313,-125.2"/>
<text text-anchor="start" x="316" y="-132.9" font-family="Helvetica,sans-Serif" font-size="11.00" fill="#000000">serial[10]</text>
<polygon fill="#ffffff" stroke="transparent" points="204,-103.2 204,-125.2 313,-125.2 313,-103.2 204,-103.2"/>
<polygon fill="none" stroke="#000000" points="204,-103.2 204,-125.2 313,-125.2 313,-103.2 204,-103.2"/>
<image xlink:href="../../images/foreignKeys.png" width="11px" height="12px" preserveAspectRatio="xMinYMin meet" x="209" y="-120.2"/>
<text text-anchor="start" x="224" y="-110.3" font-family="Helvetica,sans-Serif" font-size="11.00" fill="#000000">summary_id</text>
<polygon fill="none" stroke="#000000" points="313,-103.2 313,-125.2 422,-125.2 422,-103.2 313,-103.2"/>
<text text-anchor="start" x="316" y="-110.9" font-family="Helvetica,sans-Serif" font-size="11.00" fill="#000000">uuid[2147483647]</text>
<polygon fill="none" stroke="#000000" points="204,-81.2 204,-103.2 313,-103.2 313,-81.2 204,-81.2"/>
<text text-anchor="start" x="224" y="-88.3" font-family="Helvetica,sans-Serif" font-size="11.00" fill="#000000">title</text>
<polygon fill="none" stroke="#000000" points="313,-81.2 313,-103.2 422,-103.2 422,-81.2 313,-81.2"/>
<text text-anchor="start" x="315.5344" y="-88.9" font-family="Helvetica,sans-Serif" font-size="11.00" fill="#000000">varchar[2147483647]</text>
<polygon fill="none" stroke="#000000" points="204,-59.2 204,-81.2 313,-81.2 313,-59.2 204,-59.2"/>
<text text-anchor="start" x="224" y="-66.3" font-family="Helvetica,sans-Serif" font-size="11.00" fill="#000000">summary</text>
<polygon fill="none" stroke="#000000" points="313,-59.2 313,-81.2 422,-81.2 422,-59.2 313,-59.2"/>
<text text-anchor="start" x="315.5344" y="-66.9" font-family="Helvetica,sans-Serif" font-size="11.00" fill="#000000">varchar[2147483647]</text>
<polygon fill="#ffffff" stroke="transparent" points="204,-40.2 204,-59.2 422,-59.2 422,-40.2 204,-40.2"/>
<polygon fill="none" stroke="#000000" points="204,-40.2 204,-59.2 422,-59.2 422,-40.2 204,-40.2"/>
<polygon fill="#ffffff" stroke="transparent" points="205,-41.2 205,-58.2 280,-58.2 280,-41.2 205,-41.2"/>
<text text-anchor="start" x="207" y="-46.3" font-family="Helvetica,sans-Serif" font-size="11.00" fill="#000000">&lt; 1</text>
<polygon fill="#ffffff" stroke="transparent" points="280,-41.2 280,-58.2 346,-58.2 346,-41.2 280,-41.2"/>
<text text-anchor="start" x="309.9431" y="-46.3" font-family="Helvetica,sans-Serif" font-size="11.00" fill="#000000"> &#160;</text>
<polygon fill="#ffffff" stroke="transparent" points="346,-41.2 346,-58.2 421,-58.2 421,-41.2 346,-41.2"/>
<text text-anchor="start" x="403.4053" y="-46.3" font-family="Helvetica,sans-Serif" font-size="11.00" fill="#000000">0 &gt;</text>
<polygon fill="#000000" stroke="#000000" points="280,-41.2 280,-58.2 280,-58.2 280,-41.2 280,-41.2"/>
<polygon fill="#000000" stroke="#000000" points="346,-41.2 346,-58.2 346,-58.2 346,-41.2 346,-41.2"/>
<polygon fill="none" stroke="#000000" stroke-width="2" points="203,-39.2 203,-171.2 423,-171.2 423,-39.2 203,-39.2"/>
</a>
</g>
</g>
<!-- topics&#45;&gt;summaries -->
<g id="edge3" class="edge">
<title>topics:w&#45;&gt;summaries:e</title>
<path fill="none" stroke="#000000" d="M189.9464,-118.0082C162.4242,-137.0691 200.129,-221.2 153.5,-221.2"/>
<polygon fill="#000000" stroke="#000000" points="196.2785,-116.2924 204.9416,-117.6747 200.1392,-115.2462 204,-114.2 204,-114.2 204,-114.2 200.1392,-115.2462 203.0584,-110.7253 196.2785,-116.2924 196.2785,-116.2924"/>
<ellipse fill="none" stroke="#000000" cx="193.1898" cy="-117.1293" rx="3.2" ry="3.2"/>
</g>
</g>
</svg>
