<?xml version="1.0" encoding="UTF-8" standalone="no"?>
<!DOCTYPE svg PUBLIC "-//W3C//DTD SVG 1.1//EN"
 "http://www.w3.org/Graphics/SVG/1.1/DTD/svg11.dtd">
<!-- Generated by graphviz version 2.40.1 (20161225.0304)
 -->
<!-- Title: oneDegreeRelationshipsDiagram Pages: 1 -->
<svg width="643pt" height="267pt"
 viewBox="0.00 0.00 643.00 266.70" xmlns="http://www.w3.org/2000/svg" xmlns:xlink="http://www.w3.org/1999/xlink">
<g id="graph0" class="graph" transform="scale(1 1) rotate(0) translate(4 262.7)">
<title>oneDegreeRelationshipsDiagram</title>
<polygon fill="#ffffff" stroke="transparent" points="-4,4 -4,-262.7 639,-262.7 639,4 -4,4"/>
<text text-anchor="middle" x="72.4936" y="-7.3" font-family="Helvetica,sans-Serif" font-size="11.00" fill="#000000">Generated by SchemaSpy</text>
<!-- procrastinate_events -->
<g id="node1" class="node">
<title>procrastinate_events</title>
<g id="a_node1"><a xlink:href="../../tables/procrastinate_events.html" xlink:title="procrastinate_events" target="_top">
<polygon fill="#ffffff" stroke="transparent" points="231,-120.7 231,-254.7 627,-254.7 627,-120.7 231,-120.7"/>
<polygon fill="#f5f5f5" stroke="transparent" points="233,-229.7 233,-252.7 625,-252.7 625,-229.7 233,-229.7"/>
<polygon fill="none" stroke="#000000" points="233,-229.7 233,-252.7 625,-252.7 625,-229.7 233,-229.7"/>
<text text-anchor="start" x="238" y="-238.3" font-family="Helvetica,sans-Serif" font-weight="bold" font-size="11.00" fill="#000000">procrastinate_events</text>
<text text-anchor="start" x="590.0437" y="-237.8" font-family="Helvetica,sans-Serif" font-size="11.00" fill="#000000">[table]</text>
<polygon fill="none" stroke="#000000" points="233,-207.7 233,-229.7 408,-229.7 408,-207.7 233,-207.7"/>
<image xlink:href="../../images/primaryKeys.png" width="11px" height="12px" preserveAspectRatio="xMinYMin meet" x="238" y="-224.7"/>
<text text-anchor="start" x="253" y="-214.8" font-family="Helvetica,sans-Serif" font-size="11.00" fill="#000000">id</text>
<polygon fill="none" stroke="#000000" points="408,-207.7 408,-229.7 625,-229.7 625,-207.7 408,-207.7"/>
<text text-anchor="start" x="411" y="-215.4" font-family="Helvetica,sans-Serif" font-size="11.00" fill="#000000">bigserial[19]</text>
<polygon fill="#ffffff" stroke="transparent" points="233,-185.7 233,-207.7 408,-207.7 408,-185.7 233,-185.7"/>
<polygon fill="none" stroke="#000000" points="233,-185.7 233,-207.7 408,-207.7 408,-185.7 233,-185.7"/>
<image xlink:href="../../images/foreignKeys.png" width="11px" height="12px" preserveAspectRatio="xMinYMin meet" x="238" y="-202.7"/>
<text text-anchor="start" x="253" y="-192.8" font-family="Helvetica,sans-Serif" font-size="11.00" fill="#000000">job_id</text>
<polygon fill="none" stroke="#000000" points="408,-185.7 408,-207.7 625,-207.7 625,-185.7 408,-185.7"/>
<text text-anchor="start" x="411" y="-193.4" font-family="Helvetica,sans-Serif" font-size="11.00" fill="#000000">int8[19]</text>
<polygon fill="none" stroke="#000000" points="233,-163.7 233,-185.7 408,-185.7 408,-163.7 233,-163.7"/>
<text text-anchor="start" x="253" y="-170.8" font-family="Helvetica,sans-Serif" font-size="11.00" fill="#000000">type</text>
<polygon fill="none" stroke="#000000" points="408,-163.7 408,-185.7 625,-185.7 625,-163.7 408,-163.7"/>
<text text-anchor="start" x="410.7328" y="-171.4" font-family="Helvetica,sans-Serif" font-size="11.00" fill="#000000">procrastinate_job_event_type[2147483647]</text>
<polygon fill="none" stroke="#000000" points="233,-141.7 233,-163.7 408,-163.7 408,-141.7 233,-141.7"/>
<text text-anchor="start" x="253" y="-148.8" font-family="Helvetica,sans-Serif" font-size="11.00" fill="#000000">at</text>
<polygon fill="none" stroke="#000000" points="408,-141.7 408,-163.7 625,-163.7 625,-141.7 408,-141.7"/>
<text text-anchor="start" x="411" y="-149.4" font-family="Helvetica,sans-Serif" font-size="11.00" fill="#000000">timestamptz[35,6]</text>
<polygon fill="#ffffff" stroke="transparent" points="233,-122.7 233,-141.7 625,-141.7 625,-122.7 233,-122.7"/>
<polygon fill="none" stroke="#000000" points="233,-122.7 233,-141.7 625,-141.7 625,-122.7 233,-122.7"/>
<polygon fill="#ffffff" stroke="transparent" points="234,-123.7 234,-140.7 367,-140.7 367,-123.7 234,-123.7"/>
<text text-anchor="start" x="236" y="-128.8" font-family="Helvetica,sans-Serif" font-size="11.00" fill="#000000">&lt; 1</text>
<polygon fill="#ffffff" stroke="transparent" points="367,-123.7 367,-140.7 491,-140.7 491,-123.7 367,-123.7"/>
<text text-anchor="start" x="425.9431" y="-128.8" font-family="Helvetica,sans-Serif" font-size="11.00" fill="#000000"> &#160;</text>
<polygon fill="#ffffff" stroke="transparent" points="491,-123.7 491,-140.7 624,-140.7 624,-123.7 491,-123.7"/>
<text text-anchor="start" x="606.4053" y="-128.8" font-family="Helvetica,sans-Serif" font-size="11.00" fill="#000000">0 &gt;</text>
<polygon fill="#000000" stroke="#000000" points="367,-123.7 367,-140.7 367,-140.7 367,-123.7 367,-123.7"/>
<polygon fill="#000000" stroke="#000000" points="491,-123.7 491,-140.7 491,-140.7 491,-123.7 491,-123.7"/>
<polygon fill="none" stroke="#000000" stroke-width="2" points="232,-121.7 232,-253.7 626,-253.7 626,-121.7 232,-121.7"/>
</a>
</g>
</g>
<!-- procrastinate_jobs -->
<g id="node2" class="node">
<title>procrastinate_jobs</title>
<g id="a_node2"><a xlink:href="../../tables/procrastinate_jobs.html" xlink:title="procrastinate_jobs" target="_top">
<polygon fill="#ffffff" stroke="transparent" points="8,-38.2 8,-231.2 182,-231.2 182,-38.2 8,-38.2"/>
<polygon fill="#f5f5f5" stroke="transparent" points="8,-207.7 8,-230.7 182,-230.7 182,-207.7 8,-207.7"/>
<polygon fill="none" stroke="#000000" points="8,-207.7 8,-230.7 182,-230.7 182,-207.7 8,-207.7"/>
<text text-anchor="start" x="13" y="-216.3" font-family="Helvetica,sans-Serif" font-weight="bold" font-size="11.00" fill="#000000">procrastinate_jobs</text>
<text text-anchor="start" x="147.5219" y="-215.8" font-family="Helvetica,sans-Serif" font-size="11.00" fill="#000000">[table]</text>
<polygon fill="none" stroke="#000000" points="8,-185.7 8,-207.7 182,-207.7 182,-185.7 8,-185.7"/>
<image xlink:href="../../images/primaryKeys.png" width="11px" height="12px" preserveAspectRatio="xMinYMin meet" x="13" y="-202.7"/>
<text text-anchor="start" x="37" y="-192.8" font-family="Helvetica,sans-Serif" font-size="11.00" fill="#000000">id</text>
<polygon fill="#ffffff" stroke="transparent" points="8,-163.7 8,-185.7 182,-185.7 182,-163.7 8,-163.7"/>
<polygon fill="none" stroke="#000000" points="8,-163.7 8,-185.7 182,-185.7 182,-163.7 8,-163.7"/>
<text text-anchor="start" x="37" y="-170.8" font-family="Helvetica,sans-Serif" font-size="11.00" fill="#000000">queue_name</text>
<polygon fill="#ffffff" stroke="transparent" points="8,-141.7 8,-163.7 182,-163.7 182,-141.7 8,-141.7"/>
<polygon fill="none" stroke="#000000" points="8,-141.7 8,-163.7 182,-163.7 182,-141.7 8,-141.7"/>
<text text-anchor="start" x="37" y="-148.8" font-family="Helvetica,sans-Serif" font-size="11.00" fill="#000000">priority</text>
<polygon fill="#ffffff" stroke="transparent" points="8,-119.7 8,-141.7 182,-141.7 182,-119.7 8,-119.7"/>
<polygon fill="none" stroke="#000000" points="8,-119.7 8,-141.7 182,-141.7 182,-119.7 8,-119.7"/>
<text text-anchor="start" x="37" y="-126.8" font-family="Helvetica,sans-Serif" font-size="11.00" fill="#000000">lock</text>
<polygon fill="#ffffff" stroke="transparent" points="8,-97.7 8,-119.7 182,-119.7 182,-97.7 8,-97.7"/>
<polygon fill="none" stroke="#000000" points="8,-97.7 8,-119.7 182,-119.7 182,-97.7 8,-97.7"/>
<text text-anchor="start" x="37" y="-104.8" font-family="Helvetica,sans-Serif" font-size="11.00" fill="#000000">queueing_lock</text>
<polygon fill="#ffffff" stroke="transparent" points="8,-75.7 8,-97.7 182,-97.7 182,-75.7 8,-75.7"/>
<polygon fill="none" stroke="#000000" points="8,-75.7 8,-97.7 182,-97.7 182,-75.7 8,-75.7"/>
<image xlink:href="../../images/foreignKeys.png" width="11px" height="12px" preserveAspectRatio="xMinYMin meet" x="13" y="-92.7"/>
<text text-anchor="start" x="37" y="-82.8" font-family="Helvetica,sans-Serif" font-size="11.00" fill="#000000">worker_id</text>
<polygon fill="none" stroke="#000000" points="8,-56.7 8,-75.7 182,-75.7 182,-56.7 8,-56.7"/>
<text text-anchor="start" x="11" y="-62.8" font-family="Helvetica,sans-Serif" font-size="11.00" fill="#000000">...</text>
<polygon fill="#ffffff" stroke="transparent" points="8,-37.7 8,-56.7 182,-56.7 182,-37.7 8,-37.7"/>
<polygon fill="none" stroke="#000000" points="8,-37.7 8,-56.7 182,-56.7 182,-37.7 8,-37.7"/>
<polygon fill="#ffffff" stroke="transparent" points="9,-38.7 9,-55.7 70,-55.7 70,-38.7 9,-38.7"/>
<text text-anchor="start" x="11" y="-43.8" font-family="Helvetica,sans-Serif" font-size="11.00" fill="#000000">&lt; 1</text>
<polygon fill="#ffffff" stroke="transparent" points="70,-38.7 70,-55.7 121,-55.7 121,-38.7 70,-38.7"/>
<text text-anchor="start" x="92.4431" y="-43.8" font-family="Helvetica,sans-Serif" font-size="11.00" fill="#000000"> &#160;</text>
<polygon fill="#ffffff" stroke="transparent" points="121,-38.7 121,-55.7 181,-55.7 181,-38.7 121,-38.7"/>
<text text-anchor="start" x="163.4053" y="-43.8" font-family="Helvetica,sans-Serif" font-size="11.00" fill="#000000">2 &gt;</text>
<polygon fill="#000000" stroke="#000000" points="70,-38.7 70,-55.7 70,-55.7 70,-38.7 70,-38.7"/>
<polygon fill="#000000" stroke="#000000" points="121,-38.7 121,-55.7 121,-55.7 121,-38.7 121,-38.7"/>
</a>
</g>
</g>
<!-- procrastinate_events&#45;&gt;procrastinate_jobs -->
<g id="edge1" class="edge">
<title>procrastinate_events:w&#45;&gt;procrastinate_jobs:e</title>
<path fill="none" stroke="#000000" d="M218.276,-196.7C206.2815,-196.7 198.8229,-196.7 182,-196.7"/>
<polygon fill="#000000" stroke="#000000" points="225,-196.7001 233,-200.3 229,-196.7 233,-196.7 233,-196.7 233,-196.7 229,-196.7 233,-193.1 225,-196.7001 225,-196.7001"/>
<ellipse fill="none" stroke="#000000" cx="221.8" cy="-196.7001" rx="3.2" ry="3.2"/>
</g>
</g>
</svg>
