<?xml version="1.0" encoding="UTF-8" standalone="no"?>
<!DOCTYPE svg PUBLIC "-//W3C//DTD SVG 1.1//EN"
 "http://www.w3.org/Graphics/SVG/1.1/DTD/svg11.dtd">
<!-- Generated by graphviz version 2.40.1 (20161225.0304)
 -->
<!-- Title: twoDegreesRelationshipsDiagram Pages: 1 -->
<svg width="784pt" height="453pt"
 viewBox="0.00 0.00 784.00 452.70" xmlns="http://www.w3.org/2000/svg" xmlns:xlink="http://www.w3.org/1999/xlink">
<g id="graph0" class="graph" transform="scale(1 1) rotate(0) translate(4 448.7)">
<title>twoDegreesRelationshipsDiagram</title>
<polygon fill="#ffffff" stroke="transparent" points="-4,4 -4,-448.7 780,-448.7 780,4 -4,4"/>
<text text-anchor="middle" x="72.4936" y="-7.3" font-family="Helvetica,sans-Serif" font-size="11.00" fill="#000000">Generated by SchemaSpy</text>
<!-- action_items -->
<g id="node1" class="node">
<title>action_items</title>
<g id="a_node1"><a xlink:href="../../tables/action_items.html" xlink:title="action_items" target="_top">
<polygon fill="#ffffff" stroke="transparent" points="542,-284.7 542,-440.7 768,-440.7 768,-284.7 542,-284.7"/>
<polygon fill="#f5f5f5" stroke="transparent" points="544,-415.7 544,-438.7 766,-438.7 766,-415.7 544,-415.7"/>
<polygon fill="none" stroke="#000000" points="544,-415.7 544,-438.7 766,-438.7 766,-415.7 544,-415.7"/>
<text text-anchor="start" x="549" y="-424.3" font-family="Helvetica,sans-Serif" font-weight="bold" font-size="11.00" fill="#000000">action_items</text>
<text text-anchor="start" x="731.0437" y="-423.8" font-family="Helvetica,sans-Serif" font-size="11.00" fill="#000000">[table]</text>
<polygon fill="none" stroke="#000000" points="544,-393.7 544,-415.7 657,-415.7 657,-393.7 544,-393.7"/>
<image xlink:href="../../images/primaryKeys.png" width="11px" height="12px" preserveAspectRatio="xMinYMin meet" x="549" y="-410.7"/>
<text text-anchor="start" x="564" y="-400.8" font-family="Helvetica,sans-Serif" font-size="11.00" fill="#000000">id</text>
<polygon fill="none" stroke="#000000" points="657,-393.7 657,-415.7 766,-415.7 766,-393.7 657,-393.7"/>
<text text-anchor="start" x="660" y="-401.4" font-family="Helvetica,sans-Serif" font-size="11.00" fill="#000000">serial[10]</text>
<polygon fill="#ffffff" stroke="transparent" points="544,-371.7 544,-393.7 657,-393.7 657,-371.7 544,-371.7"/>
<polygon fill="none" stroke="#000000" points="544,-371.7 544,-393.7 657,-393.7 657,-371.7 544,-371.7"/>
<image xlink:href="../../images/foreignKeys.png" width="11px" height="12px" preserveAspectRatio="xMinYMin meet" x="549" y="-388.7"/>
<text text-anchor="start" x="564" y="-378.8" font-family="Helvetica,sans-Serif" font-size="11.00" fill="#000000">summary_id</text>
<polygon fill="none" stroke="#000000" points="657,-371.7 657,-393.7 766,-393.7 766,-371.7 657,-371.7"/>
<text text-anchor="start" x="660" y="-379.4" font-family="Helvetica,sans-Serif" font-size="11.00" fill="#000000">uuid[2147483647]</text>
<polygon fill="none" stroke="#000000" points="544,-349.7 544,-371.7 657,-371.7 657,-349.7 544,-349.7"/>
<text text-anchor="start" x="564" y="-356.8" font-family="Helvetica,sans-Serif" font-size="11.00" fill="#000000">description</text>
<polygon fill="none" stroke="#000000" points="657,-349.7 657,-371.7 766,-371.7 766,-349.7 657,-349.7"/>
<text text-anchor="start" x="659.5344" y="-357.4" font-family="Helvetica,sans-Serif" font-size="11.00" fill="#000000">varchar[2147483647]</text>
<polygon fill="none" stroke="#000000" points="544,-327.7 544,-349.7 657,-349.7 657,-327.7 544,-327.7"/>
<text text-anchor="start" x="564" y="-334.8" font-family="Helvetica,sans-Serif" font-size="11.00" fill="#000000">assignee</text>
<polygon fill="none" stroke="#000000" points="657,-327.7 657,-349.7 766,-349.7 766,-327.7 657,-327.7"/>
<text text-anchor="start" x="659.5344" y="-335.4" font-family="Helvetica,sans-Serif" font-size="11.00" fill="#000000">varchar[2147483647]</text>
<polygon fill="none" stroke="#000000" points="544,-305.7 544,-327.7 657,-327.7 657,-305.7 544,-305.7"/>
<text text-anchor="start" x="564" y="-312.8" font-family="Helvetica,sans-Serif" font-size="11.00" fill="#000000">due_date</text>
<polygon fill="none" stroke="#000000" points="657,-305.7 657,-327.7 766,-327.7 766,-305.7 657,-305.7"/>
<text text-anchor="start" x="660" y="-313.4" font-family="Helvetica,sans-Serif" font-size="11.00" fill="#000000">date[13]</text>
<polygon fill="#ffffff" stroke="transparent" points="544,-286.7 544,-305.7 766,-305.7 766,-286.7 544,-286.7"/>
<polygon fill="none" stroke="#000000" points="544,-286.7 544,-305.7 766,-305.7 766,-286.7 544,-286.7"/>
<polygon fill="#ffffff" stroke="transparent" points="545,-287.7 545,-304.7 622,-304.7 622,-287.7 545,-287.7"/>
<text text-anchor="start" x="547" y="-292.8" font-family="Helvetica,sans-Serif" font-size="11.00" fill="#000000">&lt; 1</text>
<polygon fill="#ffffff" stroke="transparent" points="622,-287.7 622,-304.7 689,-304.7 689,-287.7 622,-287.7"/>
<text text-anchor="start" x="652.4431" y="-292.8" font-family="Helvetica,sans-Serif" font-size="11.00" fill="#000000"> &#160;</text>
<polygon fill="#ffffff" stroke="transparent" points="689,-287.7 689,-304.7 765,-304.7 765,-287.7 689,-287.7"/>
<text text-anchor="start" x="747.4053" y="-292.8" font-family="Helvetica,sans-Serif" font-size="11.00" fill="#000000">0 &gt;</text>
<polygon fill="#000000" stroke="#000000" points="622,-287.7 622,-304.7 622,-304.7 622,-287.7 622,-287.7"/>
<polygon fill="#000000" stroke="#000000" points="689,-287.7 689,-304.7 689,-304.7 689,-287.7 689,-287.7"/>
<polygon fill="none" stroke="#000000" stroke-width="2" points="543,-285.7 543,-439.7 767,-439.7 767,-285.7 543,-285.7"/>
</a>
</g>
</g>
<!-- summaries -->
<g id="node2" class="node">
<title>summaries</title>
<g id="a_node2"><a xlink:href="../../tables/summaries.html" xlink:title="summaries" target="_top">
<polygon fill="#ffffff" stroke="transparent" points="348,-74.2 348,-223.2 493,-223.2 493,-74.2 348,-74.2"/>
<polygon fill="#f5f5f5" stroke="transparent" points="348.5,-199.7 348.5,-222.7 493.5,-222.7 493.5,-199.7 348.5,-199.7"/>
<polygon fill="none" stroke="#000000" points="348.5,-199.7 348.5,-222.7 493.5,-222.7 493.5,-199.7 348.5,-199.7"/>
<text text-anchor="start" x="353.5" y="-208.3" font-family="Helvetica,sans-Serif" font-weight="bold" font-size="11.00" fill="#000000">summaries</text>
<text text-anchor="start" x="458.5437" y="-207.8" font-family="Helvetica,sans-Serif" font-size="11.00" fill="#000000">[table]</text>
<polygon fill="none" stroke="#000000" points="348.5,-177.7 348.5,-199.7 493.5,-199.7 493.5,-177.7 348.5,-177.7"/>
<image xlink:href="../../images/primaryKeys.png" width="11px" height="12px" preserveAspectRatio="xMinYMin meet" x="353.5" y="-194.7"/>
<text text-anchor="start" x="368.5" y="-184.8" font-family="Helvetica,sans-Serif" font-size="11.00" fill="#000000">id</text>
<polygon fill="#ffffff" stroke="transparent" points="348.5,-155.7 348.5,-177.7 493.5,-177.7 493.5,-155.7 348.5,-155.7"/>
<polygon fill="none" stroke="#000000" points="348.5,-155.7 348.5,-177.7 493.5,-177.7 493.5,-155.7 348.5,-155.7"/>
<text text-anchor="start" x="368.5" y="-162.8" font-family="Helvetica,sans-Serif" font-size="11.00" fill="#000000">content_hash</text>
<polygon fill="#ffffff" stroke="transparent" points="348.5,-133.7 348.5,-155.7 493.5,-155.7 493.5,-133.7 348.5,-133.7"/>
<polygon fill="none" stroke="#000000" points="348.5,-133.7 348.5,-155.7 493.5,-155.7 493.5,-133.7 348.5,-133.7"/>
<image xlink:href="../../images/foreignKeys.png" width="11px" height="12px" preserveAspectRatio="xMinYMin meet" x="353.5" y="-150.7"/>
<text text-anchor="start" x="368.5" y="-140.8" font-family="Helvetica,sans-Serif" font-size="11.00" fill="#000000">user_id</text>
<polygon fill="#ffffff" stroke="transparent" points="348.5,-111.7 348.5,-133.7 493.5,-133.7 493.5,-111.7 348.5,-111.7"/>
<polygon fill="none" stroke="#000000" points="348.5,-111.7 348.5,-133.7 493.5,-133.7 493.5,-111.7 348.5,-111.7"/>
<image xlink:href="../../images/foreignKeys.png" width="11px" height="12px" preserveAspectRatio="xMinYMin meet" x="353.5" y="-128.7"/>
<text text-anchor="start" x="368.5" y="-118.8" font-family="Helvetica,sans-Serif" font-size="11.00" fill="#000000">group_id</text>
<polygon fill="none" stroke="#000000" points="348.5,-92.7 348.5,-111.7 493.5,-111.7 493.5,-92.7 348.5,-92.7"/>
<text text-anchor="start" x="351.5" y="-98.8" font-family="Helvetica,sans-Serif" font-size="11.00" fill="#000000">...</text>
<polygon fill="#ffffff" stroke="transparent" points="348.5,-73.7 348.5,-92.7 493.5,-92.7 493.5,-73.7 348.5,-73.7"/>
<polygon fill="none" stroke="#000000" points="348.5,-73.7 348.5,-92.7 493.5,-92.7 493.5,-73.7 348.5,-73.7"/>
<polygon fill="#ffffff" stroke="transparent" points="349.5,-74.7 349.5,-91.7 400.5,-91.7 400.5,-74.7 349.5,-74.7"/>
<text text-anchor="start" x="351.5" y="-79.8" font-family="Helvetica,sans-Serif" font-size="11.00" fill="#000000">&lt; 2</text>
<polygon fill="#ffffff" stroke="transparent" points="400.5,-74.7 400.5,-91.7 442.5,-91.7 442.5,-74.7 400.5,-74.7"/>
<text text-anchor="start" x="418.4431" y="-79.8" font-family="Helvetica,sans-Serif" font-size="11.00" fill="#000000"> &#160;</text>
<polygon fill="#ffffff" stroke="transparent" points="442.5,-74.7 442.5,-91.7 492.5,-91.7 492.5,-74.7 442.5,-74.7"/>
<text text-anchor="start" x="474.9053" y="-79.8" font-family="Helvetica,sans-Serif" font-size="11.00" fill="#000000">4 &gt;</text>
<polygon fill="#000000" stroke="#000000" points="400.5,-74.7 400.5,-91.7 400.5,-91.7 400.5,-74.7 400.5,-74.7"/>
<polygon fill="#000000" stroke="#000000" points="442.5,-74.7 442.5,-91.7 442.5,-91.7 442.5,-74.7 442.5,-74.7"/>
</a>
</g>
</g>
<!-- action_items&#45;&gt;summaries -->
<g id="edge1" class="edge">
<title>action_items:w&#45;&gt;summaries:e</title>
<path fill="none" stroke="#000000" d="M529.7292,-380.5213C470.019,-359.2078 577.0271,-188.7 493.5,-188.7"/>
<polygon fill="#000000" stroke="#000000" points="536.0916,-381.4926 543.4567,-386.2588 540.0458,-382.0963 544,-382.7 544,-382.7 544,-382.7 540.0458,-382.0963 544.5433,-379.1412 536.0916,-381.4926 536.0916,-381.4926"/>
<ellipse fill="none" stroke="#000000" cx="532.9283" cy="-381.0096" rx="3.2" ry="3.2"/>
</g>
<!-- summary_groups -->
<g id="node4" class="node">
<title>summary_groups</title>
<g id="a_node4"><a xlink:href="../../tables/summary_groups.html" xlink:title="summary_groups" target="_top">
<polygon fill="#ffffff" stroke="transparent" points="135,-77.2 135,-138.2 299,-138.2 299,-77.2 135,-77.2"/>
<polygon fill="#f5f5f5" stroke="transparent" points="135,-114.7 135,-137.7 299,-137.7 299,-114.7 135,-114.7"/>
<polygon fill="none" stroke="#000000" points="135,-114.7 135,-137.7 299,-137.7 299,-114.7 135,-114.7"/>
<text text-anchor="start" x="140" y="-123.3" font-family="Helvetica,sans-Serif" font-weight="bold" font-size="11.00" fill="#000000">summary_groups</text>
<text text-anchor="start" x="264.5219" y="-122.8" font-family="Helvetica,sans-Serif" font-size="11.00" fill="#000000">[table]</text>
<polygon fill="none" stroke="#000000" points="135,-95.7 135,-114.7 299,-114.7 299,-95.7 135,-95.7"/>
<text text-anchor="start" x="138" y="-101.8" font-family="Helvetica,sans-Serif" font-size="11.00" fill="#000000">...</text>
<polygon fill="#ffffff" stroke="transparent" points="135,-76.7 135,-95.7 299,-95.7 299,-76.7 135,-76.7"/>
<polygon fill="none" stroke="#000000" points="135,-76.7 135,-95.7 299,-95.7 299,-76.7 135,-76.7"/>
<polygon fill="#ffffff" stroke="transparent" points="136,-77.7 136,-94.7 193,-94.7 193,-77.7 136,-77.7"/>
<text text-anchor="start" x="138" y="-82.8" font-family="Helvetica,sans-Serif" font-size="11.00" fill="#000000">&lt; 1</text>
<polygon fill="#ffffff" stroke="transparent" points="193,-77.7 193,-94.7 241,-94.7 241,-77.7 193,-77.7"/>
<text text-anchor="start" x="213.9431" y="-82.8" font-family="Helvetica,sans-Serif" font-size="11.00" fill="#000000"> &#160;</text>
<polygon fill="#ffffff" stroke="transparent" points="241,-77.7 241,-94.7 298,-94.7 298,-77.7 241,-77.7"/>
<text text-anchor="start" x="280.4053" y="-82.8" font-family="Helvetica,sans-Serif" font-size="11.00" fill="#000000">1 &gt;</text>
<polygon fill="#000000" stroke="#000000" points="193,-77.7 193,-94.7 193,-94.7 193,-77.7 193,-77.7"/>
<polygon fill="#000000" stroke="#000000" points="241,-77.7 241,-94.7 241,-94.7 241,-77.7 241,-77.7"/>
</a>
</g>
</g>
<!-- summaries&#45;&gt;summary_groups -->
<g id="edge3" class="edge">
<title>summaries:w&#45;&gt;summary_groups:e</title>
<path fill="none" stroke="#000000" d="M334.1817,-119.8875C322.4545,-114.825 316.557,-104.7 299,-104.7"/>
<polygon fill="#000000" stroke="#000000" points="340.65,-121.158 347.8061,-126.2325 344.575,-121.929 348.5,-122.7 348.5,-122.7 348.5,-122.7 344.575,-121.929 349.1939,-119.1675 340.65,-121.158 340.65,-121.158"/>
<ellipse fill="none" stroke="#000000" cx="337.51" cy="-120.5412" rx="3.2" ry="3.2"/>
</g>
<!-- users -->
<g id="node5" class="node">
<title>users</title>
<g id="a_node5"><a xlink:href="../../tables/users.html" xlink:title="users" target="_top">
<polygon fill="#ffffff" stroke="transparent" points="8,-106.2 8,-167.2 86,-167.2 86,-106.2 8,-106.2"/>
<polygon fill="#f5f5f5" stroke="transparent" points="8,-143.7 8,-166.7 86,-166.7 86,-143.7 8,-143.7"/>
<polygon fill="none" stroke="#000000" points="8,-143.7 8,-166.7 86,-166.7 86,-143.7 8,-143.7"/>
<text text-anchor="start" x="13" y="-152.3" font-family="Helvetica,sans-Serif" font-weight="bold" font-size="11.00" fill="#000000">users</text>
<text text-anchor="start" x="51.5219" y="-151.8" font-family="Helvetica,sans-Serif" font-size="11.00" fill="#000000">[table]</text>
<polygon fill="none" stroke="#000000" points="8,-124.7 8,-143.7 86,-143.7 86,-124.7 8,-124.7"/>
<text text-anchor="start" x="11" y="-130.8" font-family="Helvetica,sans-Serif" font-size="11.00" fill="#000000">...</text>
<polygon fill="#ffffff" stroke="transparent" points="8,-105.7 8,-124.7 86,-124.7 86,-105.7 8,-105.7"/>
<polygon fill="none" stroke="#000000" points="8,-105.7 8,-124.7 86,-124.7 86,-105.7 8,-105.7"/>
<polygon fill="#ffffff" stroke="transparent" points="9,-106.7 9,-123.7 32,-123.7 32,-106.7 9,-106.7"/>
<text text-anchor="start" x="11" y="-111.8" font-family="Helvetica,sans-Serif" font-size="11.00" fill="#000000"> &#160;</text>
<polygon fill="#ffffff" stroke="transparent" points="32,-106.7 32,-123.7 54,-123.7 54,-106.7 32,-106.7"/>
<text text-anchor="start" x="39.9431" y="-111.8" font-family="Helvetica,sans-Serif" font-size="11.00" fill="#000000"> &#160;</text>
<polygon fill="#ffffff" stroke="transparent" points="54,-106.7 54,-123.7 85,-123.7 85,-106.7 54,-106.7"/>
<text text-anchor="start" x="67.4053" y="-111.8" font-family="Helvetica,sans-Serif" font-size="11.00" fill="#000000">4 &gt;</text>
<polygon fill="#000000" stroke="#000000" points="32,-106.7 32,-123.7 32,-123.7 32,-106.7 32,-106.7"/>
<polygon fill="#000000" stroke="#000000" points="54,-106.7 54,-123.7 54,-123.7 54,-106.7 54,-106.7"/>
</a>
</g>
</g>
<!-- summaries&#45;&gt;users -->
<g id="edge4" class="edge">
<title>summaries:w&#45;&gt;users:e</title>
<path fill="none" stroke="#000000" d="M334.1002,-145.4821C325.6707,-146.4646 319.58,-148.0951 307,-148.7 227.0923,-152.5421 205.773,-162.6573 127,-148.7 107.8941,-145.3147 105.4034,-133.7 86,-133.7"/>
<polygon fill="#000000" stroke="#000000" points="340.5118,-145.1339 348.6953,-148.2947 344.5059,-144.917 348.5,-144.7 348.5,-144.7 348.5,-144.7 344.5059,-144.917 348.3047,-141.1053 340.5118,-145.1339 340.5118,-145.1339"/>
<ellipse fill="none" stroke="#000000" cx="337.3165" cy="-145.3075" rx="3.2" ry="3.2"/>
</g>
<!-- decisions -->
<g id="node3" class="node">
<title>decisions</title>
<g id="a_node3"><a xlink:href="../../tables/decisions.html" xlink:title="decisions" target="_top">
<polygon fill="#ffffff" stroke="transparent" points="601.5,-202.2 601.5,-263.2 708.5,-263.2 708.5,-202.2 601.5,-202.2"/>
<polygon fill="#f5f5f5" stroke="transparent" points="602,-239.7 602,-262.7 709,-262.7 709,-239.7 602,-239.7"/>
<polygon fill="none" stroke="#000000" points="602,-239.7 602,-262.7 709,-262.7 709,-239.7 602,-239.7"/>
<text text-anchor="start" x="607" y="-248.3" font-family="Helvetica,sans-Serif" font-weight="bold" font-size="11.00" fill="#000000">decisions</text>
<text text-anchor="start" x="674.5219" y="-247.8" font-family="Helvetica,sans-Serif" font-size="11.00" fill="#000000">[table]</text>
<polygon fill="none" stroke="#000000" points="602,-220.7 602,-239.7 709,-239.7 709,-220.7 602,-220.7"/>
<text text-anchor="start" x="605" y="-226.8" font-family="Helvetica,sans-Serif" font-size="11.00" fill="#000000">...</text>
<polygon fill="#ffffff" stroke="transparent" points="602,-201.7 602,-220.7 709,-220.7 709,-201.7 602,-201.7"/>
<polygon fill="none" stroke="#000000" points="602,-201.7 602,-220.7 709,-220.7 709,-201.7 602,-201.7"/>
<polygon fill="#ffffff" stroke="transparent" points="603,-202.7 603,-219.7 644,-219.7 644,-202.7 603,-202.7"/>
<text text-anchor="start" x="605" y="-207.8" font-family="Helvetica,sans-Serif" font-size="11.00" fill="#000000">&lt; 1</text>
<polygon fill="#ffffff" stroke="transparent" points="644,-202.7 644,-219.7 676,-219.7 676,-202.7 644,-202.7"/>
<text text-anchor="start" x="656.9431" y="-207.8" font-family="Helvetica,sans-Serif" font-size="11.00" fill="#000000"> &#160;</text>
<polygon fill="#ffffff" stroke="transparent" points="676,-202.7 676,-219.7 708,-219.7 708,-202.7 676,-202.7"/>
<text text-anchor="start" x="699.8862" y="-207.8" font-family="Helvetica,sans-Serif" font-size="11.00" fill="#000000"> &#160;</text>
<polygon fill="#000000" stroke="#000000" points="644,-202.7 644,-219.7 644,-219.7 644,-202.7 644,-202.7"/>
<polygon fill="#000000" stroke="#000000" points="676,-202.7 676,-219.7 676,-219.7 676,-202.7 676,-202.7"/>
</a>
</g>
</g>
<!-- decisions&#45;&gt;summaries -->
<g id="edge2" class="edge">
<title>decisions:w&#45;&gt;summaries:e</title>
<path fill="none" stroke="#000000" d="M587.6247,-228.5172C548.8769,-221.7948 539.8147,-188.7 493.5,-188.7"/>
<polygon fill="#000000" stroke="#000000" points="594.0269,-229.0439 601.7048,-233.2879 598.0135,-229.372 602,-229.7 602,-229.7 602,-229.7 598.0135,-229.372 602.2952,-226.1121 594.0269,-229.0439 594.0269,-229.0439"/>
<ellipse fill="none" stroke="#000000" cx="590.8377" cy="-228.7815" rx="3.2" ry="3.2"/>
</g>
<!-- summary_groups&#45;&gt;users -->
<g id="edge5" class="edge">
<title>summary_groups:w&#45;&gt;users:e</title>
<path fill="none" stroke="#000000" d="M120.9495,-108.7323C108.971,-116.7007 105.3749,-133.7 86,-133.7"/>
<polygon fill="#000000" stroke="#000000" points="127.3104,-106.9069 135.9931,-108.1603 131.1552,-105.8034 135,-104.7 135,-104.7 135,-104.7 131.1552,-105.8034 134.0069,-101.2397 127.3104,-106.9069 127.3104,-106.9069"/>
<ellipse fill="none" stroke="#000000" cx="124.2346" cy="-107.7896" rx="3.2" ry="3.2"/>
</g>
<!-- topics -->
<g id="node6" class="node">
<title>topics</title>
<g id="a_node6"><a xlink:href="../../tables/topics.html" xlink:title="topics" target="_top">
<polygon fill="#ffffff" stroke="transparent" points="613.5,-120.2 613.5,-181.2 696.5,-181.2 696.5,-120.2 613.5,-120.2"/>
<polygon fill="#f5f5f5" stroke="transparent" points="614,-157.7 614,-180.7 697,-180.7 697,-157.7 614,-157.7"/>
<polygon fill="none" stroke="#000000" points="614,-157.7 614,-180.7 697,-180.7 697,-157.7 614,-157.7"/>
<text text-anchor="start" x="619" y="-166.3" font-family="Helvetica,sans-Serif" font-weight="bold" font-size="11.00" fill="#000000">topics</text>
<text text-anchor="start" x="662.5219" y="-165.8" font-family="Helvetica,sans-Serif" font-size="11.00" fill="#000000">[table]</text>
<polygon fill="none" stroke="#000000" points="614,-138.7 614,-157.7 697,-157.7 697,-138.7 614,-138.7"/>
<text text-anchor="start" x="617" y="-144.8" font-family="Helvetica,sans-Serif" font-size="11.00" fill="#000000">...</text>
<polygon fill="#ffffff" stroke="transparent" points="614,-119.7 614,-138.7 697,-138.7 697,-119.7 614,-119.7"/>
<polygon fill="none" stroke="#000000" points="614,-119.7 614,-138.7 697,-138.7 697,-119.7 614,-119.7"/>
<polygon fill="#ffffff" stroke="transparent" points="615,-120.7 615,-137.7 648,-137.7 648,-120.7 615,-120.7"/>
<text text-anchor="start" x="617" y="-125.8" font-family="Helvetica,sans-Serif" font-size="11.00" fill="#000000">&lt; 1</text>
<polygon fill="#ffffff" stroke="transparent" points="648,-120.7 648,-137.7 672,-137.7 672,-120.7 648,-120.7"/>
<text text-anchor="start" x="656.9431" y="-125.8" font-family="Helvetica,sans-Serif" font-size="11.00" fill="#000000"> &#160;</text>
<polygon fill="#ffffff" stroke="transparent" points="672,-120.7 672,-137.7 696,-137.7 696,-120.7 672,-120.7"/>
<text text-anchor="start" x="687.8862" y="-125.8" font-family="Helvetica,sans-Serif" font-size="11.00" fill="#000000"> &#160;</text>
<polygon fill="#000000" stroke="#000000" points="648,-120.7 648,-137.7 648,-137.7 648,-120.7 648,-120.7"/>
<polygon fill="#000000" stroke="#000000" points="672,-120.7 672,-137.7 672,-137.7 672,-120.7 672,-120.7"/>
</a>
</g>
</g>
<!-- topics&#45;&gt;summaries -->
<g id="edge6" class="edge">
<title>topics:w&#45;&gt;summaries:e</title>
<path fill="none" stroke="#000000" d="M599.5889,-148.673C555.6636,-154.8819 544.8777,-188.7 493.5,-188.7"/>
<polygon fill="#000000" stroke="#000000" points="606.0182,-148.239 614.2425,-151.2918 610.0091,-147.9695 614,-147.7 614,-147.7 614,-147.7 610.0091,-147.9695 613.7575,-144.1082 606.0182,-148.239 606.0182,-148.239"/>
<ellipse fill="none" stroke="#000000" cx="602.8254" cy="-148.4546" rx="3.2" ry="3.2"/>
</g>
<!-- transcript_segments -->
<g id="node7" class="node">
<title>transcript_segments</title>
<g id="a_node7"><a xlink:href="../../tables/transcript_segments.html" xlink:title="transcript_segments" target="_top">
<polygon fill="#ffffff" stroke="transparent" points="560.5,-38.2 560.5,-99.2 749.5,-99.2 749.5,-38.2 560.5,-38.2"/>
<polygon fill="#f5f5f5" stroke="transparent" points="561,-75.7 561,-98.7 750,-98.7 750,-75.7 561,-75.7"/>
<polygon fill="none" stroke="#000000" points="561,-75.7 561,-98.7 750,-98.7 750,-75.7 561,-75.7"/>
<text text-anchor="start" x="566" y="-84.3" font-family="Helvetica,sans-Serif" font-weight="bold" font-size="11.00" fill="#000000">transcript_segments</text>
<text text-anchor="start" x="715.5219" y="-83.8" font-family="Helvetica,sans-Serif" font-size="11.00" fill="#000000">[table]</text>
<polygon fill="none" stroke="#000000" points="561,-56.7 561,-75.7 750,-75.7 750,-56.7 561,-56.7"/>
<text text-anchor="start" x="564" y="-62.8" font-family="Helvetica,sans-Serif" font-size="11.00" fill="#000000">...</text>
<polygon fill="#ffffff" stroke="transparent" points="561,-37.7 561,-56.7 750,-56.7 750,-37.7 561,-37.7"/>
<polygon fill="none" stroke="#000000" points="561,-37.7 561,-56.7 750,-56.7 750,-37.7 561,-37.7"/>
<polygon fill="#ffffff" stroke="transparent" points="562,-38.7 562,-55.7 631,-55.7 631,-38.7 562,-38.7"/>
<text text-anchor="start" x="564" y="-43.8" font-family="Helvetica,sans-Serif" font-size="11.00" fill="#000000">&lt; 1</text>
<polygon fill="#ffffff" stroke="transparent" points="631,-38.7 631,-55.7 690,-55.7 690,-38.7 631,-38.7"/>
<text text-anchor="start" x="657.4431" y="-43.8" font-family="Helvetica,sans-Serif" font-size="11.00" fill="#000000"> &#160;</text>
<polygon fill="#ffffff" stroke="transparent" points="690,-38.7 690,-55.7 749,-55.7 749,-38.7 690,-38.7"/>
<text text-anchor="start" x="740.8862" y="-43.8" font-family="Helvetica,sans-Serif" font-size="11.00" fill="#000000"> &#160;</text>
<polygon fill="#000000" stroke="#000000" points="631,-38.7 631,-55.7 631,-55.7 631,-38.7 631,-38.7"/>
<polygon fill="#000000" stroke="#000000" points="690,-38.7 690,-55.7 690,-55.7 690,-38.7 690,-38.7"/>
</a>
</g>
</g>
<!-- transcript_segments&#45;&gt;summaries -->
<g id="edge7" class="edge">
<title>transcript_segments:w&#45;&gt;summaries:e</title>
<path fill="none" stroke="#000000" d="M546.6652,-68.6191C508.1393,-87.2456 550.1332,-188.7 493.5,-188.7"/>
<polygon fill="#000000" stroke="#000000" points="553.1609,-67.2964 561.7184,-69.2276 557.0804,-66.4982 561,-65.7 561,-65.7 561,-65.7 557.0804,-66.4982 560.2816,-62.1724 553.1609,-67.2964 553.1609,-67.2964"/>
<ellipse fill="none" stroke="#000000" cx="550.0252" cy="-67.935" rx="3.2" ry="3.2"/>
</g>
</g>
</svg>
