<?xml version="1.0" encoding="UTF-8" standalone="no"?>
<!DOCTYPE svg PUBLIC "-//W3C//DTD SVG 1.1//EN"
 "http://www.w3.org/Graphics/SVG/1.1/DTD/svg11.dtd">
<!-- Generated by graphviz version 2.40.1 (20161225.0304)
 -->
<!-- Title: twoDegreesRelationshipsDiagram Pages: 1 -->
<svg width="444pt" height="371pt"
 viewBox="0.00 0.00 444.00 370.70" xmlns="http://www.w3.org/2000/svg" xmlns:xlink="http://www.w3.org/1999/xlink">
<g id="graph0" class="graph" transform="scale(1 1) rotate(0) translate(4 366.7)">
<title>twoDegreesRelationshipsDiagram</title>
<polygon fill="#ffffff" stroke="transparent" points="-4,4 -4,-366.7 440,-366.7 440,4 -4,4"/>
<text text-anchor="middle" x="72.4936" y="-7.3" font-family="Helvetica,sans-Serif" font-size="11.00" fill="#000000">Generated by SchemaSpy</text>
<!-- action_items -->
<g id="node1" class="node">
<title>action_items</title>
<g id="a_node1"><a xlink:href="../../tables/action_items.html" xlink:title="action_items" target="_top">
<polygon fill="#ffffff" stroke="transparent" points="202,-202.7 202,-358.7 428,-358.7 428,-202.7 202,-202.7"/>
<polygon fill="#f5f5f5" stroke="transparent" points="204,-333.7 204,-356.7 426,-356.7 426,-333.7 204,-333.7"/>
<polygon fill="none" stroke="#000000" points="204,-333.7 204,-356.7 426,-356.7 426,-333.7 204,-333.7"/>
<text text-anchor="start" x="209" y="-342.3" font-family="Helvetica,sans-Serif" font-weight="bold" font-size="11.00" fill="#000000">action_items</text>
<text text-anchor="start" x="391.0437" y="-341.8" font-family="Helvetica,sans-Serif" font-size="11.00" fill="#000000">[table]</text>
<polygon fill="none" stroke="#000000" points="204,-311.7 204,-333.7 317,-333.7 317,-311.7 204,-311.7"/>
<image xlink:href="../../images/primaryKeys.png" width="11px" height="12px" preserveAspectRatio="xMinYMin meet" x="209" y="-328.7"/>
<text text-anchor="start" x="224" y="-318.8" font-family="Helvetica,sans-Serif" font-size="11.00" fill="#000000">id</text>
<polygon fill="none" stroke="#000000" points="317,-311.7 317,-333.7 426,-333.7 426,-311.7 317,-311.7"/>
<text text-anchor="start" x="320" y="-319.4" font-family="Helvetica,sans-Serif" font-size="11.00" fill="#000000">serial[10]</text>
<polygon fill="#ffffff" stroke="transparent" points="204,-289.7 204,-311.7 317,-311.7 317,-289.7 204,-289.7"/>
<polygon fill="none" stroke="#000000" points="204,-289.7 204,-311.7 317,-311.7 317,-289.7 204,-289.7"/>
<image xlink:href="../../images/foreignKeys.png" width="11px" height="12px" preserveAspectRatio="xMinYMin meet" x="209" y="-306.7"/>
<text text-anchor="start" x="224" y="-296.8" font-family="Helvetica,sans-Serif" font-size="11.00" fill="#000000">summary_id</text>
<polygon fill="none" stroke="#000000" points="317,-289.7 317,-311.7 426,-311.7 426,-289.7 317,-289.7"/>
<text text-anchor="start" x="320" y="-297.4" font-family="Helvetica,sans-Serif" font-size="11.00" fill="#000000">uuid[2147483647]</text>
<polygon fill="none" stroke="#000000" points="204,-267.7 204,-289.7 317,-289.7 317,-267.7 204,-267.7"/>
<text text-anchor="start" x="224" y="-274.8" font-family="Helvetica,sans-Serif" font-size="11.00" fill="#000000">description</text>
<polygon fill="none" stroke="#000000" points="317,-267.7 317,-289.7 426,-289.7 426,-267.7 317,-267.7"/>
<text text-anchor="start" x="319.5344" y="-275.4" font-family="Helvetica,sans-Serif" font-size="11.00" fill="#000000">varchar[2147483647]</text>
<polygon fill="none" stroke="#000000" points="204,-245.7 204,-267.7 317,-267.7 317,-245.7 204,-245.7"/>
<text text-anchor="start" x="224" y="-252.8" font-family="Helvetica,sans-Serif" font-size="11.00" fill="#000000">assignee</text>
<polygon fill="none" stroke="#000000" points="317,-245.7 317,-267.7 426,-267.7 426,-245.7 317,-245.7"/>
<text text-anchor="start" x="319.5344" y="-253.4" font-family="Helvetica,sans-Serif" font-size="11.00" fill="#000000">varchar[2147483647]</text>
<polygon fill="none" stroke="#000000" points="204,-223.7 204,-245.7 317,-245.7 317,-223.7 204,-223.7"/>
<text text-anchor="start" x="224" y="-230.8" font-family="Helvetica,sans-Serif" font-size="11.00" fill="#000000">due_date</text>
<polygon fill="none" stroke="#000000" points="317,-223.7 317,-245.7 426,-245.7 426,-223.7 317,-223.7"/>
<text text-anchor="start" x="320" y="-231.4" font-family="Helvetica,sans-Serif" font-size="11.00" fill="#000000">date[13]</text>
<polygon fill="#ffffff" stroke="transparent" points="204,-204.7 204,-223.7 426,-223.7 426,-204.7 204,-204.7"/>
<polygon fill="none" stroke="#000000" points="204,-204.7 204,-223.7 426,-223.7 426,-204.7 204,-204.7"/>
<polygon fill="#ffffff" stroke="transparent" points="205,-205.7 205,-222.7 282,-222.7 282,-205.7 205,-205.7"/>
<text text-anchor="start" x="207" y="-210.8" font-family="Helvetica,sans-Serif" font-size="11.00" fill="#000000">&lt; 1</text>
<polygon fill="#ffffff" stroke="transparent" points="282,-205.7 282,-222.7 349,-222.7 349,-205.7 282,-205.7"/>
<text text-anchor="start" x="312.4431" y="-210.8" font-family="Helvetica,sans-Serif" font-size="11.00" fill="#000000"> &#160;</text>
<polygon fill="#ffffff" stroke="transparent" points="349,-205.7 349,-222.7 425,-222.7 425,-205.7 349,-205.7"/>
<text text-anchor="start" x="407.4053" y="-210.8" font-family="Helvetica,sans-Serif" font-size="11.00" fill="#000000">0 &gt;</text>
<polygon fill="#000000" stroke="#000000" points="282,-205.7 282,-222.7 282,-222.7 282,-205.7 282,-205.7"/>
<polygon fill="#000000" stroke="#000000" points="349,-205.7 349,-222.7 349,-222.7 349,-205.7 349,-205.7"/>
<polygon fill="none" stroke="#000000" stroke-width="2" points="203,-203.7 203,-357.7 427,-357.7 427,-203.7 203,-203.7"/>
</a>
</g>
</g>
<!-- summaries -->
<g id="node2" class="node">
<title>summaries</title>
<g id="a_node2"><a xlink:href="../../tables/summaries.html" xlink:title="summaries" target="_top">
<polygon fill="#ffffff" stroke="transparent" points="8,-77.2 8,-182.2 153,-182.2 153,-77.2 8,-77.2"/>
<polygon fill="#f5f5f5" stroke="transparent" points="8.5,-158.7 8.5,-181.7 153.5,-181.7 153.5,-158.7 8.5,-158.7"/>
<polygon fill="none" stroke="#000000" points="8.5,-158.7 8.5,-181.7 153.5,-181.7 153.5,-158.7 8.5,-158.7"/>
<text text-anchor="start" x="13.5" y="-167.3" font-family="Helvetica,sans-Serif" font-weight="bold" font-size="11.00" fill="#000000">summaries</text>
<text text-anchor="start" x="118.5437" y="-166.8" font-family="Helvetica,sans-Serif" font-size="11.00" fill="#000000">[table]</text>
<polygon fill="none" stroke="#000000" points="8.5,-136.7 8.5,-158.7 153.5,-158.7 153.5,-136.7 8.5,-136.7"/>
<image xlink:href="../../images/primaryKeys.png" width="11px" height="12px" preserveAspectRatio="xMinYMin meet" x="13.5" y="-153.7"/>
<text text-anchor="start" x="28.5" y="-143.8" font-family="Helvetica,sans-Serif" font-size="11.00" fill="#000000">id</text>
<polygon fill="#ffffff" stroke="transparent" points="8.5,-114.7 8.5,-136.7 153.5,-136.7 153.5,-114.7 8.5,-114.7"/>
<polygon fill="none" stroke="#000000" points="8.5,-114.7 8.5,-136.7 153.5,-136.7 153.5,-114.7 8.5,-114.7"/>
<text text-anchor="start" x="28.5" y="-121.8" font-family="Helvetica,sans-Serif" font-size="11.00" fill="#000000">content_hash</text>
<polygon fill="none" stroke="#000000" points="8.5,-95.7 8.5,-114.7 153.5,-114.7 153.5,-95.7 8.5,-95.7"/>
<text text-anchor="start" x="11.5" y="-101.8" font-family="Helvetica,sans-Serif" font-size="11.00" fill="#000000">...</text>
<polygon fill="#ffffff" stroke="transparent" points="8.5,-76.7 8.5,-95.7 153.5,-95.7 153.5,-76.7 8.5,-76.7"/>
<polygon fill="none" stroke="#000000" points="8.5,-76.7 8.5,-95.7 153.5,-95.7 153.5,-76.7 8.5,-76.7"/>
<polygon fill="#ffffff" stroke="transparent" points="9.5,-77.7 9.5,-94.7 54.5,-94.7 54.5,-77.7 9.5,-77.7"/>
<text text-anchor="start" x="11.5" y="-82.8" font-family="Helvetica,sans-Serif" font-size="11.00" fill="#000000"> &#160;</text>
<polygon fill="#ffffff" stroke="transparent" points="54.5,-77.7 54.5,-94.7 99.5,-94.7 99.5,-77.7 54.5,-77.7"/>
<text text-anchor="start" x="73.9431" y="-82.8" font-family="Helvetica,sans-Serif" font-size="11.00" fill="#000000"> &#160;</text>
<polygon fill="#ffffff" stroke="transparent" points="99.5,-77.7 99.5,-94.7 152.5,-94.7 152.5,-77.7 99.5,-77.7"/>
<text text-anchor="start" x="134.9053" y="-82.8" font-family="Helvetica,sans-Serif" font-size="11.00" fill="#000000">3 &gt;</text>
<polygon fill="#000000" stroke="#000000" points="54.5,-77.7 54.5,-94.7 54.5,-94.7 54.5,-77.7 54.5,-77.7"/>
<polygon fill="#000000" stroke="#000000" points="99.5,-77.7 99.5,-94.7 99.5,-94.7 99.5,-77.7 99.5,-77.7"/>
</a>
</g>
</g>
<!-- action_items&#45;&gt;summaries -->
<g id="edge1" class="edge">
<title>action_items:w&#45;&gt;summaries:e</title>
<path fill="none" stroke="#000000" d="M189.7897,-297.9138C146.1871,-277.1772 219.3741,-147.7 153.5,-147.7"/>
<polygon fill="#000000" stroke="#000000" points="196.1495,-299.1607 203.3073,-304.2327 200.0747,-299.9304 204,-300.7 204,-300.7 204,-300.7 200.0747,-299.9304 204.6927,-297.1673 196.1495,-299.1607 196.1495,-299.1607"/>
<ellipse fill="none" stroke="#000000" cx="193.0093" cy="-298.545" rx="3.2" ry="3.2"/>
</g>
<!-- decisions -->
<g id="node3" class="node">
<title>decisions</title>
<g id="a_node3"><a xlink:href="../../tables/decisions.html" xlink:title="decisions" target="_top">
<polygon fill="#ffffff" stroke="transparent" points="261.5,-120.2 261.5,-181.2 368.5,-181.2 368.5,-120.2 261.5,-120.2"/>
<polygon fill="#f5f5f5" stroke="transparent" points="262,-157.7 262,-180.7 369,-180.7 369,-157.7 262,-157.7"/>
<polygon fill="none" stroke="#000000" points="262,-157.7 262,-180.7 369,-180.7 369,-157.7 262,-157.7"/>
<text text-anchor="start" x="267" y="-166.3" font-family="Helvetica,sans-Serif" font-weight="bold" font-size="11.00" fill="#000000">decisions</text>
<text text-anchor="start" x="334.5219" y="-165.8" font-family="Helvetica,sans-Serif" font-size="11.00" fill="#000000">[table]</text>
<polygon fill="none" stroke="#000000" points="262,-138.7 262,-157.7 369,-157.7 369,-138.7 262,-138.7"/>
<text text-anchor="start" x="265" y="-144.8" font-family="Helvetica,sans-Serif" font-size="11.00" fill="#000000">...</text>
<polygon fill="#ffffff" stroke="transparent" points="262,-119.7 262,-138.7 369,-138.7 369,-119.7 262,-119.7"/>
<polygon fill="none" stroke="#000000" points="262,-119.7 262,-138.7 369,-138.7 369,-119.7 262,-119.7"/>
<polygon fill="#ffffff" stroke="transparent" points="263,-120.7 263,-137.7 304,-137.7 304,-120.7 263,-120.7"/>
<text text-anchor="start" x="265" y="-125.8" font-family="Helvetica,sans-Serif" font-size="11.00" fill="#000000">&lt; 1</text>
<polygon fill="#ffffff" stroke="transparent" points="304,-120.7 304,-137.7 336,-137.7 336,-120.7 304,-120.7"/>
<text text-anchor="start" x="316.9431" y="-125.8" font-family="Helvetica,sans-Serif" font-size="11.00" fill="#000000"> &#160;</text>
<polygon fill="#ffffff" stroke="transparent" points="336,-120.7 336,-137.7 368,-137.7 368,-120.7 336,-120.7"/>
<text text-anchor="start" x="359.8862" y="-125.8" font-family="Helvetica,sans-Serif" font-size="11.00" fill="#000000"> &#160;</text>
<polygon fill="#000000" stroke="#000000" points="304,-120.7 304,-137.7 304,-137.7 304,-120.7 304,-120.7"/>
<polygon fill="#000000" stroke="#000000" points="336,-120.7 336,-137.7 336,-137.7 336,-120.7 336,-120.7"/>
</a>
</g>
</g>
<!-- decisions&#45;&gt;summaries -->
<g id="edge2" class="edge">
<title>decisions:w&#45;&gt;summaries:e</title>
<path fill="none" stroke="#000000" d="M247.3804,-147.7C210.708,-147.7 196.4479,-147.7 153.5,-147.7"/>
<polygon fill="#000000" stroke="#000000" points="254,-147.7001 262,-151.3 258,-147.7 262,-147.7 262,-147.7 262,-147.7 258,-147.7 262,-144.1 254,-147.7001 254,-147.7001"/>
<ellipse fill="none" stroke="#000000" cx="250.8" cy="-147.7001" rx="3.2" ry="3.2"/>
</g>
<!-- topics -->
<g id="node4" class="node">
<title>topics</title>
<g id="a_node4"><a xlink:href="../../tables/topics.html" xlink:title="topics" target="_top">
<polygon fill="#ffffff" stroke="transparent" points="273.5,-38.2 273.5,-99.2 356.5,-99.2 356.5,-38.2 273.5,-38.2"/>
<polygon fill="#f5f5f5" stroke="transparent" points="274,-75.7 274,-98.7 357,-98.7 357,-75.7 274,-75.7"/>
<polygon fill="none" stroke="#000000" points="274,-75.7 274,-98.7 357,-98.7 357,-75.7 274,-75.7"/>
<text text-anchor="start" x="279" y="-84.3" font-family="Helvetica,sans-Serif" font-weight="bold" font-size="11.00" fill="#000000">topics</text>
<text text-anchor="start" x="322.5219" y="-83.8" font-family="Helvetica,sans-Serif" font-size="11.00" fill="#000000">[table]</text>
<polygon fill="none" stroke="#000000" points="274,-56.7 274,-75.7 357,-75.7 357,-56.7 274,-56.7"/>
<text text-anchor="start" x="277" y="-62.8" font-family="Helvetica,sans-Serif" font-size="11.00" fill="#000000">...</text>
<polygon fill="#ffffff" stroke="transparent" points="274,-37.7 274,-56.7 357,-56.7 357,-37.7 274,-37.7"/>
<polygon fill="none" stroke="#000000" points="274,-37.7 274,-56.7 357,-56.7 357,-37.7 274,-37.7"/>
<polygon fill="#ffffff" stroke="transparent" points="275,-38.7 275,-55.7 308,-55.7 308,-38.7 275,-38.7"/>
<text text-anchor="start" x="277" y="-43.8" font-family="Helvetica,sans-Serif" font-size="11.00" fill="#000000">&lt; 1</text>
<polygon fill="#ffffff" stroke="transparent" points="308,-38.7 308,-55.7 332,-55.7 332,-38.7 308,-38.7"/>
<text text-anchor="start" x="316.9431" y="-43.8" font-family="Helvetica,sans-Serif" font-size="11.00" fill="#000000"> &#160;</text>
<polygon fill="#ffffff" stroke="transparent" points="332,-38.7 332,-55.7 356,-55.7 356,-38.7 332,-38.7"/>
<text text-anchor="start" x="347.8862" y="-43.8" font-family="Helvetica,sans-Serif" font-size="11.00" fill="#000000"> &#160;</text>
<polygon fill="#000000" stroke="#000000" points="308,-38.7 308,-55.7 308,-55.7 308,-38.7 308,-38.7"/>
<polygon fill="#000000" stroke="#000000" points="332,-38.7 332,-55.7 332,-55.7 332,-38.7 332,-38.7"/>
</a>
</g>
</g>
<!-- topics&#45;&gt;summaries -->
<g id="edge3" class="edge">
<title>topics:w&#45;&gt;summaries:e</title>
<path fill="none" stroke="#000000" d="M259.4895,-66.7279C231.2081,-71.1181 222.4711,-89.0196 194,-109.7 174.0296,-124.2058 178.1827,-147.7 153.5,-147.7"/>
<polygon fill="#000000" stroke="#000000" points="266.02,-66.2653 274.2544,-69.291 270.01,-65.9827 274,-65.7 274,-65.7 274,-65.7 270.01,-65.9827 273.7456,-62.109 266.02,-66.2653 266.02,-66.2653"/>
<ellipse fill="none" stroke="#000000" cx="262.828" cy="-66.4914" rx="3.2" ry="3.2"/>
</g>
</g>
</svg>
