<?xml version="1.0" encoding="UTF-8" standalone="no"?>
<!DOCTYPE svg PUBLIC "-//W3C//DTD SVG 1.1//EN"
 "http://www.w3.org/Graphics/SVG/1.1/DTD/svg11.dtd">
<!-- Generated by graphviz version 2.40.1 (20161225.0304)
 -->
<!-- Title: oneDegreeRelationshipsDiagram Pages: 1 -->
<svg width="444pt" height="206pt"
 viewBox="0.00 0.00 444.00 206.20" xmlns="http://www.w3.org/2000/svg" xmlns:xlink="http://www.w3.org/1999/xlink">
<g id="graph0" class="graph" transform="scale(1 1) rotate(0) translate(4 202.2)">
<title>oneDegreeRelationshipsDiagram</title>
<polygon fill="#ffffff" stroke="transparent" points="-4,4 -4,-202.2 440,-202.2 440,4 -4,4"/>
<text text-anchor="middle" x="72.4936" y="-7.3" font-family="Helvetica,sans-Serif" font-size="11.00" fill="#000000">Generated by SchemaSpy</text>
<!-- action_items -->
<g id="node1" class="node">
<title>action_items</title>
<g id="a_node1"><a xlink:href="../../tables/action_items.html" xlink:title="action_items" target="_top">
<polygon fill="#ffffff" stroke="transparent" points="202,-38.2 202,-194.2 428,-194.2 428,-38.2 202,-38.2"/>
<polygon fill="#f5f5f5" stroke="transparent" points="204,-169.2 204,-192.2 426,-192.2 426,-169.2 204,-169.2"/>
<polygon fill="none" stroke="#000000" points="204,-169.2 204,-192.2 426,-192.2 426,-169.2 204,-169.2"/>
<text text-anchor="start" x="209" y="-177.8" font-family="Helvetica,sans-Serif" font-weight="bold" font-size="11.00" fill="#000000">action_items</text>
<text text-anchor="start" x="391.0437" y="-177.3" font-family="Helvetica,sans-Serif" font-size="11.00" fill="#000000">[table]</text>
<polygon fill="none" stroke="#000000" points="204,-147.2 204,-169.2 317,-169.2 317,-147.2 204,-147.2"/>
<image xlink:href="../../images/primaryKeys.png" width="11px" height="12px" preserveAspectRatio="xMinYMin meet" x="209" y="-164.2"/>
<text text-anchor="start" x="224" y="-154.3" font-family="Helvetica,sans-Serif" font-size="11.00" fill="#000000">id</text>
<polygon fill="none" stroke="#000000" points="317,-147.2 317,-169.2 426,-169.2 426,-147.2 317,-147.2"/>
<text text-anchor="start" x="320" y="-154.9" font-family="Helvetica,sans-Serif" font-size="11.00" fill="#000000">serial[10]</text>
<polygon fill="#ffffff" stroke="transparent" points="204,-125.2 204,-147.2 317,-147.2 317,-125.2 204,-125.2"/>
<polygon fill="none" stroke="#000000" points="204,-125.2 204,-147.2 317,-147.2 317,-125.2 204,-125.2"/>
<image xlink:href="../../images/foreignKeys.png" width="11px" height="12px" preserveAspectRatio="xMinYMin meet" x="209" y="-142.2"/>
<text text-anchor="start" x="224" y="-132.3" font-family="Helvetica,sans-Serif" font-size="11.00" fill="#000000">summary_id</text>
<polygon fill="none" stroke="#000000" points="317,-125.2 317,-147.2 426,-147.2 426,-125.2 317,-125.2"/>
<text text-anchor="start" x="320" y="-132.9" font-family="Helvetica,sans-Serif" font-size="11.00" fill="#000000">uuid[2147483647]</text>
<polygon fill="none" stroke="#000000" points="204,-103.2 204,-125.2 317,-125.2 317,-103.2 204,-103.2"/>
<text text-anchor="start" x="224" y="-110.3" font-family="Helvetica,sans-Serif" font-size="11.00" fill="#000000">description</text>
<polygon fill="none" stroke="#000000" points="317,-103.2 317,-125.2 426,-125.2 426,-103.2 317,-103.2"/>
<text text-anchor="start" x="319.5344" y="-110.9" font-family="Helvetica,sans-Serif" font-size="11.00" fill="#000000">varchar[2147483647]</text>
<polygon fill="none" stroke="#000000" points="204,-81.2 204,-103.2 317,-103.2 317,-81.2 204,-81.2"/>
<text text-anchor="start" x="224" y="-88.3" font-family="Helvetica,sans-Serif" font-size="11.00" fill="#000000">assignee</text>
<polygon fill="none" stroke="#000000" points="317,-81.2 317,-103.2 426,-103.2 426,-81.2 317,-81.2"/>
<text text-anchor="start" x="319.5344" y="-88.9" font-family="Helvetica,sans-Serif" font-size="11.00" fill="#000000">varchar[2147483647]</text>
<polygon fill="none" stroke="#000000" points="204,-59.2 204,-81.2 317,-81.2 317,-59.2 204,-59.2"/>
<text text-anchor="start" x="224" y="-66.3" font-family="Helvetica,sans-Serif" font-size="11.00" fill="#000000">due_date</text>
<polygon fill="none" stroke="#000000" points="317,-59.2 317,-81.2 426,-81.2 426,-59.2 317,-59.2"/>
<text text-anchor="start" x="320" y="-66.9" font-family="Helvetica,sans-Serif" font-size="11.00" fill="#000000">date[13]</text>
<polygon fill="#ffffff" stroke="transparent" points="204,-40.2 204,-59.2 426,-59.2 426,-40.2 204,-40.2"/>
<polygon fill="none" stroke="#000000" points="204,-40.2 204,-59.2 426,-59.2 426,-40.2 204,-40.2"/>
<polygon fill="#ffffff" stroke="transparent" points="205,-41.2 205,-58.2 282,-58.2 282,-41.2 205,-41.2"/>
<text text-anchor="start" x="207" y="-46.3" font-family="Helvetica,sans-Serif" font-size="11.00" fill="#000000">&lt; 1</text>
<polygon fill="#ffffff" stroke="transparent" points="282,-41.2 282,-58.2 349,-58.2 349,-41.2 282,-41.2"/>
<text text-anchor="start" x="312.4431" y="-46.3" font-family="Helvetica,sans-Serif" font-size="11.00" fill="#000000"> &#160;</text>
<polygon fill="#ffffff" stroke="transparent" points="349,-41.2 349,-58.2 425,-58.2 425,-41.2 349,-41.2"/>
<text text-anchor="start" x="407.4053" y="-46.3" font-family="Helvetica,sans-Serif" font-size="11.00" fill="#000000">0 &gt;</text>
<polygon fill="#000000" stroke="#000000" points="282,-41.2 282,-58.2 282,-58.2 282,-41.2 282,-41.2"/>
<polygon fill="#000000" stroke="#000000" points="349,-41.2 349,-58.2 349,-58.2 349,-41.2 349,-41.2"/>
<polygon fill="none" stroke="#000000" stroke-width="2" points="203,-39.2 203,-193.2 427,-193.2 427,-39.2 203,-39.2"/>
</a>
</g>
</g>
<!-- summaries -->
<g id="node2" class="node">
<title>summaries</title>
<g id="a_node2"><a xlink:href="../../tables/summaries.html" xlink:title="summaries" target="_top">
<polygon fill="#ffffff" stroke="transparent" points="8,-43.7 8,-170.7 153,-170.7 153,-43.7 8,-43.7"/>
<polygon fill="#f5f5f5" stroke="transparent" points="8.5,-147.2 8.5,-170.2 153.5,-170.2 153.5,-147.2 8.5,-147.2"/>
<polygon fill="none" stroke="#000000" points="8.5,-147.2 8.5,-170.2 153.5,-170.2 153.5,-147.2 8.5,-147.2"/>
<text text-anchor="start" x="13.5" y="-155.8" font-family="Helvetica,sans-Serif" font-weight="bold" font-size="11.00" fill="#000000">summaries</text>
<text text-anchor="start" x="118.5437" y="-155.3" font-family="Helvetica,sans-Serif" font-size="11.00" fill="#000000">[table]</text>
<polygon fill="none" stroke="#000000" points="8.5,-125.2 8.5,-147.2 153.5,-147.2 153.5,-125.2 8.5,-125.2"/>
<image xlink:href="../../images/primaryKeys.png" width="11px" height="12px" preserveAspectRatio="xMinYMin meet" x="13.5" y="-142.2"/>
<text text-anchor="start" x="28.5" y="-132.3" font-family="Helvetica,sans-Serif" font-size="11.00" fill="#000000">id</text>
<polygon fill="#ffffff" stroke="transparent" points="8.5,-103.2 8.5,-125.2 153.5,-125.2 153.5,-103.2 8.5,-103.2"/>
<polygon fill="none" stroke="#000000" points="8.5,-103.2 8.5,-125.2 153.5,-125.2 153.5,-103.2 8.5,-103.2"/>
<text text-anchor="start" x="28.5" y="-110.3" font-family="Helvetica,sans-Serif" font-size="11.00" fill="#000000">content_hash</text>
<polygon fill="#ffffff" stroke="transparent" points="8.5,-81.2 8.5,-103.2 153.5,-103.2 153.5,-81.2 8.5,-81.2"/>
<polygon fill="none" stroke="#000000" points="8.5,-81.2 8.5,-103.2 153.5,-103.2 153.5,-81.2 8.5,-81.2"/>
<image xlink:href="../../images/foreignKeys.png" width="11px" height="12px" preserveAspectRatio="xMinYMin meet" x="13.5" y="-98.2"/>
<text text-anchor="start" x="28.5" y="-88.3" font-family="Helvetica,sans-Serif" font-size="11.00" fill="#000000">user_id</text>
<polygon fill="none" stroke="#000000" points="8.5,-62.2 8.5,-81.2 153.5,-81.2 153.5,-62.2 8.5,-62.2"/>
<text text-anchor="start" x="11.5" y="-68.3" font-family="Helvetica,sans-Serif" font-size="11.00" fill="#000000">...</text>
<polygon fill="#ffffff" stroke="transparent" points="8.5,-43.2 8.5,-62.2 153.5,-62.2 153.5,-43.2 8.5,-43.2"/>
<polygon fill="none" stroke="#000000" points="8.5,-43.2 8.5,-62.2 153.5,-62.2 153.5,-43.2 8.5,-43.2"/>
<polygon fill="#ffffff" stroke="transparent" points="9.5,-44.2 9.5,-61.2 60.5,-61.2 60.5,-44.2 9.5,-44.2"/>
<text text-anchor="start" x="11.5" y="-49.3" font-family="Helvetica,sans-Serif" font-size="11.00" fill="#000000">&lt; 1</text>
<polygon fill="#ffffff" stroke="transparent" points="60.5,-44.2 60.5,-61.2 102.5,-61.2 102.5,-44.2 60.5,-44.2"/>
<text text-anchor="start" x="78.4431" y="-49.3" font-family="Helvetica,sans-Serif" font-size="11.00" fill="#000000"> &#160;</text>
<polygon fill="#ffffff" stroke="transparent" points="102.5,-44.2 102.5,-61.2 152.5,-61.2 152.5,-44.2 102.5,-44.2"/>
<text text-anchor="start" x="134.9053" y="-49.3" font-family="Helvetica,sans-Serif" font-size="11.00" fill="#000000">3 &gt;</text>
<polygon fill="#000000" stroke="#000000" points="60.5,-44.2 60.5,-61.2 60.5,-61.2 60.5,-44.2 60.5,-44.2"/>
<polygon fill="#000000" stroke="#000000" points="102.5,-44.2 102.5,-61.2 102.5,-61.2 102.5,-44.2 102.5,-44.2"/>
</a>
</g>
</g>
<!-- action_items&#45;&gt;summaries -->
<g id="edge1" class="edge">
<title>action_items:w&#45;&gt;summaries:e</title>
<path fill="none" stroke="#000000" d="M189.4203,-136.2C177.5435,-136.2 170.158,-136.2 153.5,-136.2"/>
<polygon fill="#000000" stroke="#000000" points="196,-136.2001 204,-139.8 200,-136.2 204,-136.2 204,-136.2 204,-136.2 200,-136.2 204,-132.6 196,-136.2001 196,-136.2001"/>
<ellipse fill="none" stroke="#000000" cx="192.8" cy="-136.2001" rx="3.2" ry="3.2"/>
</g>
</g>
</svg>
