<?xml version="1.0" encoding="UTF-8" standalone="no"?>
<!DOCTYPE svg PUBLIC "-//W3C//DTD SVG 1.1//EN"
 "http://www.w3.org/Graphics/SVG/1.1/DTD/svg11.dtd">
<!-- Generated by graphviz version 2.40.1 (20161225.0304)
 -->
<!-- Title: twoDegreesRelationshipsDiagram Pages: 1 -->
<svg width="780pt" height="431pt"
 viewBox="0.00 0.00 780.00 431.20" xmlns="http://www.w3.org/2000/svg" xmlns:xlink="http://www.w3.org/1999/xlink">
<g id="graph0" class="graph" transform="scale(1 1) rotate(0) translate(4 427.2)">
<title>twoDegreesRelationshipsDiagram</title>
<polygon fill="#ffffff" stroke="transparent" points="-4,4 -4,-427.2 776,-427.2 776,4 -4,4"/>
<text text-anchor="middle" x="72.4936" y="-7.3" font-family="Helvetica,sans-Serif" font-size="11.00" fill="#000000">Generated by SchemaSpy</text>
<!-- action_items -->
<g id="node1" class="node">
<title>action_items</title>
<g id="a_node1"><a xlink:href="../../tables/action_items.html" xlink:title="action_items" target="_top">
<polygon fill="#ffffff" stroke="transparent" points="587.5,-358.2 587.5,-419.2 718.5,-419.2 718.5,-358.2 587.5,-358.2"/>
<polygon fill="#f5f5f5" stroke="transparent" points="588,-395.7 588,-418.7 719,-418.7 719,-395.7 588,-395.7"/>
<polygon fill="none" stroke="#000000" points="588,-395.7 588,-418.7 719,-418.7 719,-395.7 588,-395.7"/>
<text text-anchor="start" x="593" y="-404.3" font-family="Helvetica,sans-Serif" font-weight="bold" font-size="11.00" fill="#000000">action_items</text>
<text text-anchor="start" x="684.5219" y="-403.8" font-family="Helvetica,sans-Serif" font-size="11.00" fill="#000000">[table]</text>
<polygon fill="none" stroke="#000000" points="588,-376.7 588,-395.7 719,-395.7 719,-376.7 588,-376.7"/>
<text text-anchor="start" x="591" y="-382.8" font-family="Helvetica,sans-Serif" font-size="11.00" fill="#000000">...</text>
<polygon fill="#ffffff" stroke="transparent" points="588,-357.7 588,-376.7 719,-376.7 719,-357.7 588,-357.7"/>
<polygon fill="none" stroke="#000000" points="588,-357.7 588,-376.7 719,-376.7 719,-357.7 588,-357.7"/>
<polygon fill="#ffffff" stroke="transparent" points="589,-358.7 589,-375.7 638,-375.7 638,-358.7 589,-358.7"/>
<text text-anchor="start" x="591" y="-363.8" font-family="Helvetica,sans-Serif" font-size="11.00" fill="#000000">&lt; 1</text>
<polygon fill="#ffffff" stroke="transparent" points="638,-358.7 638,-375.7 678,-375.7 678,-358.7 638,-358.7"/>
<text text-anchor="start" x="654.9431" y="-363.8" font-family="Helvetica,sans-Serif" font-size="11.00" fill="#000000"> &#160;</text>
<polygon fill="#ffffff" stroke="transparent" points="678,-358.7 678,-375.7 718,-375.7 718,-358.7 678,-358.7"/>
<text text-anchor="start" x="709.8862" y="-363.8" font-family="Helvetica,sans-Serif" font-size="11.00" fill="#000000"> &#160;</text>
<polygon fill="#000000" stroke="#000000" points="638,-358.7 638,-375.7 638,-375.7 638,-358.7 638,-358.7"/>
<polygon fill="#000000" stroke="#000000" points="678,-358.7 678,-375.7 678,-375.7 678,-358.7 678,-358.7"/>
</a>
</g>
</g>
<!-- summaries -->
<g id="node2" class="node">
<title>summaries</title>
<g id="a_node2"><a xlink:href="../../tables/summaries.html" xlink:title="summaries" target="_top">
<polygon fill="#ffffff" stroke="transparent" points="348,-98.2 348,-247.2 493,-247.2 493,-98.2 348,-98.2"/>
<polygon fill="#f5f5f5" stroke="transparent" points="348.5,-223.7 348.5,-246.7 493.5,-246.7 493.5,-223.7 348.5,-223.7"/>
<polygon fill="none" stroke="#000000" points="348.5,-223.7 348.5,-246.7 493.5,-246.7 493.5,-223.7 348.5,-223.7"/>
<text text-anchor="start" x="353.5" y="-232.3" font-family="Helvetica,sans-Serif" font-weight="bold" font-size="11.00" fill="#000000">summaries</text>
<text text-anchor="start" x="458.5437" y="-231.8" font-family="Helvetica,sans-Serif" font-size="11.00" fill="#000000">[table]</text>
<polygon fill="none" stroke="#000000" points="348.5,-201.7 348.5,-223.7 493.5,-223.7 493.5,-201.7 348.5,-201.7"/>
<image xlink:href="../../images/primaryKeys.png" width="11px" height="12px" preserveAspectRatio="xMinYMin meet" x="353.5" y="-218.7"/>
<text text-anchor="start" x="368.5" y="-208.8" font-family="Helvetica,sans-Serif" font-size="11.00" fill="#000000">id</text>
<polygon fill="#ffffff" stroke="transparent" points="348.5,-179.7 348.5,-201.7 493.5,-201.7 493.5,-179.7 348.5,-179.7"/>
<polygon fill="none" stroke="#000000" points="348.5,-179.7 348.5,-201.7 493.5,-201.7 493.5,-179.7 348.5,-179.7"/>
<text text-anchor="start" x="368.5" y="-186.8" font-family="Helvetica,sans-Serif" font-size="11.00" fill="#000000">content_hash</text>
<polygon fill="#ffffff" stroke="transparent" points="348.5,-157.7 348.5,-179.7 493.5,-179.7 493.5,-157.7 348.5,-157.7"/>
<polygon fill="none" stroke="#000000" points="348.5,-157.7 348.5,-179.7 493.5,-179.7 493.5,-157.7 348.5,-157.7"/>
<image xlink:href="../../images/foreignKeys.png" width="11px" height="12px" preserveAspectRatio="xMinYMin meet" x="353.5" y="-174.7"/>
<text text-anchor="start" x="368.5" y="-164.8" font-family="Helvetica,sans-Serif" font-size="11.00" fill="#000000">user_id</text>
<polygon fill="#ffffff" stroke="transparent" points="348.5,-135.7 348.5,-157.7 493.5,-157.7 493.5,-135.7 348.5,-135.7"/>
<polygon fill="none" stroke="#000000" points="348.5,-135.7 348.5,-157.7 493.5,-157.7 493.5,-135.7 348.5,-135.7"/>
<image xlink:href="../../images/foreignKeys.png" width="11px" height="12px" preserveAspectRatio="xMinYMin meet" x="353.5" y="-152.7"/>
<text text-anchor="start" x="368.5" y="-142.8" font-family="Helvetica,sans-Serif" font-size="11.00" fill="#000000">group_id</text>
<polygon fill="none" stroke="#000000" points="348.5,-116.7 348.5,-135.7 493.5,-135.7 493.5,-116.7 348.5,-116.7"/>
<text text-anchor="start" x="351.5" y="-122.8" font-family="Helvetica,sans-Serif" font-size="11.00" fill="#000000">...</text>
<polygon fill="#ffffff" stroke="transparent" points="348.5,-97.7 348.5,-116.7 493.5,-116.7 493.5,-97.7 348.5,-97.7"/>
<polygon fill="none" stroke="#000000" points="348.5,-97.7 348.5,-116.7 493.5,-116.7 493.5,-97.7 348.5,-97.7"/>
<polygon fill="#ffffff" stroke="transparent" points="349.5,-98.7 349.5,-115.7 400.5,-115.7 400.5,-98.7 349.5,-98.7"/>
<text text-anchor="start" x="351.5" y="-103.8" font-family="Helvetica,sans-Serif" font-size="11.00" fill="#000000">&lt; 2</text>
<polygon fill="#ffffff" stroke="transparent" points="400.5,-98.7 400.5,-115.7 442.5,-115.7 442.5,-98.7 400.5,-98.7"/>
<text text-anchor="start" x="418.4431" y="-103.8" font-family="Helvetica,sans-Serif" font-size="11.00" fill="#000000"> &#160;</text>
<polygon fill="#ffffff" stroke="transparent" points="442.5,-98.7 442.5,-115.7 492.5,-115.7 492.5,-98.7 442.5,-98.7"/>
<text text-anchor="start" x="474.9053" y="-103.8" font-family="Helvetica,sans-Serif" font-size="11.00" fill="#000000">4 &gt;</text>
<polygon fill="#000000" stroke="#000000" points="400.5,-98.7 400.5,-115.7 400.5,-115.7 400.5,-98.7 400.5,-98.7"/>
<polygon fill="#000000" stroke="#000000" points="442.5,-98.7 442.5,-115.7 442.5,-115.7 442.5,-98.7 442.5,-98.7"/>
</a>
</g>
</g>
<!-- action_items&#45;&gt;summaries -->
<g id="edge1" class="edge">
<title>action_items:w&#45;&gt;summaries:e</title>
<path fill="none" stroke="#000000" d="M573.5895,-384.2333C555.5032,-380.0397 547.942,-367.0435 534,-347.7 497.3727,-296.8823 556.1418,-212.7 493.5,-212.7"/>
<polygon fill="#000000" stroke="#000000" points="580.0411,-384.8899 587.6355,-389.2815 584.0206,-385.2949 588,-385.7 588,-385.7 588,-385.7 584.0206,-385.2949 588.3645,-382.1185 580.0411,-384.8899 580.0411,-384.8899"/>
<ellipse fill="none" stroke="#000000" cx="576.8576" cy="-384.5659" rx="3.2" ry="3.2"/>
</g>
<!-- summary_groups -->
<g id="node4" class="node">
<title>summary_groups</title>
<g id="a_node4"><a xlink:href="../../tables/summary_groups.html" xlink:title="summary_groups" target="_top">
<polygon fill="#ffffff" stroke="transparent" points="135,-101.2 135,-162.2 299,-162.2 299,-101.2 135,-101.2"/>
<polygon fill="#f5f5f5" stroke="transparent" points="135,-138.7 135,-161.7 299,-161.7 299,-138.7 135,-138.7"/>
<polygon fill="none" stroke="#000000" points="135,-138.7 135,-161.7 299,-161.7 299,-138.7 135,-138.7"/>
<text text-anchor="start" x="140" y="-147.3" font-family="Helvetica,sans-Serif" font-weight="bold" font-size="11.00" fill="#000000">summary_groups</text>
<text text-anchor="start" x="264.5219" y="-146.8" font-family="Helvetica,sans-Serif" font-size="11.00" fill="#000000">[table]</text>
<polygon fill="none" stroke="#000000" points="135,-119.7 135,-138.7 299,-138.7 299,-119.7 135,-119.7"/>
<text text-anchor="start" x="138" y="-125.8" font-family="Helvetica,sans-Serif" font-size="11.00" fill="#000000">...</text>
<polygon fill="#ffffff" stroke="transparent" points="135,-100.7 135,-119.7 299,-119.7 299,-100.7 135,-100.7"/>
<polygon fill="none" stroke="#000000" points="135,-100.7 135,-119.7 299,-119.7 299,-100.7 135,-100.7"/>
<polygon fill="#ffffff" stroke="transparent" points="136,-101.7 136,-118.7 193,-118.7 193,-101.7 136,-101.7"/>
<text text-anchor="start" x="138" y="-106.8" font-family="Helvetica,sans-Serif" font-size="11.00" fill="#000000">&lt; 1</text>
<polygon fill="#ffffff" stroke="transparent" points="193,-101.7 193,-118.7 241,-118.7 241,-101.7 193,-101.7"/>
<text text-anchor="start" x="213.9431" y="-106.8" font-family="Helvetica,sans-Serif" font-size="11.00" fill="#000000"> &#160;</text>
<polygon fill="#ffffff" stroke="transparent" points="241,-101.7 241,-118.7 298,-118.7 298,-101.7 241,-101.7"/>
<text text-anchor="start" x="280.4053" y="-106.8" font-family="Helvetica,sans-Serif" font-size="11.00" fill="#000000">1 &gt;</text>
<polygon fill="#000000" stroke="#000000" points="193,-101.7 193,-118.7 193,-118.7 193,-101.7 193,-101.7"/>
<polygon fill="#000000" stroke="#000000" points="241,-101.7 241,-118.7 241,-118.7 241,-101.7 241,-101.7"/>
</a>
</g>
</g>
<!-- summaries&#45;&gt;summary_groups -->
<g id="edge3" class="edge">
<title>summaries:w&#45;&gt;summary_groups:e</title>
<path fill="none" stroke="#000000" d="M334.1817,-143.8875C322.4545,-138.825 316.557,-128.7 299,-128.7"/>
<polygon fill="#000000" stroke="#000000" points="340.65,-145.158 347.8061,-150.2325 344.575,-145.929 348.5,-146.7 348.5,-146.7 348.5,-146.7 344.575,-145.929 349.1939,-143.1675 340.65,-145.158 340.65,-145.158"/>
<ellipse fill="none" stroke="#000000" cx="337.51" cy="-144.5412" rx="3.2" ry="3.2"/>
</g>
<!-- users -->
<g id="node5" class="node">
<title>users</title>
<g id="a_node5"><a xlink:href="../../tables/users.html" xlink:title="users" target="_top">
<polygon fill="#ffffff" stroke="transparent" points="8,-130.2 8,-191.2 86,-191.2 86,-130.2 8,-130.2"/>
<polygon fill="#f5f5f5" stroke="transparent" points="8,-167.7 8,-190.7 86,-190.7 86,-167.7 8,-167.7"/>
<polygon fill="none" stroke="#000000" points="8,-167.7 8,-190.7 86,-190.7 86,-167.7 8,-167.7"/>
<text text-anchor="start" x="13" y="-176.3" font-family="Helvetica,sans-Serif" font-weight="bold" font-size="11.00" fill="#000000">users</text>
<text text-anchor="start" x="51.5219" y="-175.8" font-family="Helvetica,sans-Serif" font-size="11.00" fill="#000000">[table]</text>
<polygon fill="none" stroke="#000000" points="8,-148.7 8,-167.7 86,-167.7 86,-148.7 8,-148.7"/>
<text text-anchor="start" x="11" y="-154.8" font-family="Helvetica,sans-Serif" font-size="11.00" fill="#000000">...</text>
<polygon fill="#ffffff" stroke="transparent" points="8,-129.7 8,-148.7 86,-148.7 86,-129.7 8,-129.7"/>
<polygon fill="none" stroke="#000000" points="8,-129.7 8,-148.7 86,-148.7 86,-129.7 8,-129.7"/>
<polygon fill="#ffffff" stroke="transparent" points="9,-130.7 9,-147.7 32,-147.7 32,-130.7 9,-130.7"/>
<text text-anchor="start" x="11" y="-135.8" font-family="Helvetica,sans-Serif" font-size="11.00" fill="#000000"> &#160;</text>
<polygon fill="#ffffff" stroke="transparent" points="32,-130.7 32,-147.7 54,-147.7 54,-130.7 32,-130.7"/>
<text text-anchor="start" x="39.9431" y="-135.8" font-family="Helvetica,sans-Serif" font-size="11.00" fill="#000000"> &#160;</text>
<polygon fill="#ffffff" stroke="transparent" points="54,-130.7 54,-147.7 85,-147.7 85,-130.7 54,-130.7"/>
<text text-anchor="start" x="67.4053" y="-135.8" font-family="Helvetica,sans-Serif" font-size="11.00" fill="#000000">4 &gt;</text>
<polygon fill="#000000" stroke="#000000" points="32,-130.7 32,-147.7 32,-147.7 32,-130.7 32,-130.7"/>
<polygon fill="#000000" stroke="#000000" points="54,-130.7 54,-147.7 54,-147.7 54,-130.7 54,-130.7"/>
</a>
</g>
</g>
<!-- summaries&#45;&gt;users -->
<g id="edge4" class="edge">
<title>summaries:w&#45;&gt;users:e</title>
<path fill="none" stroke="#000000" d="M334.1002,-169.4821C325.6707,-170.4646 319.58,-172.0951 307,-172.7 227.0923,-176.5421 205.773,-186.6573 127,-172.7 107.8941,-169.3147 105.4034,-157.7 86,-157.7"/>
<polygon fill="#000000" stroke="#000000" points="340.5118,-169.1339 348.6953,-172.2947 344.5059,-168.917 348.5,-168.7 348.5,-168.7 348.5,-168.7 344.5059,-168.917 348.3047,-165.1053 340.5118,-169.1339 340.5118,-169.1339"/>
<ellipse fill="none" stroke="#000000" cx="337.3165" cy="-169.3075" rx="3.2" ry="3.2"/>
</g>
<!-- decisions -->
<g id="node3" class="node">
<title>decisions</title>
<g id="a_node3"><a xlink:href="../../tables/decisions.html" xlink:title="decisions" target="_top">
<polygon fill="#ffffff" stroke="transparent" points="542,-202.7 542,-336.7 764,-336.7 764,-202.7 542,-202.7"/>
<polygon fill="#f5f5f5" stroke="transparent" points="544,-311.7 544,-334.7 762,-334.7 762,-311.7 544,-311.7"/>
<polygon fill="none" stroke="#000000" points="544,-311.7 544,-334.7 762,-334.7 762,-311.7 544,-311.7"/>
<text text-anchor="start" x="549" y="-320.3" font-family="Helvetica,sans-Serif" font-weight="bold" font-size="11.00" fill="#000000">decisions</text>
<text text-anchor="start" x="727.0437" y="-319.8" font-family="Helvetica,sans-Serif" font-size="11.00" fill="#000000">[table]</text>
<polygon fill="none" stroke="#000000" points="544,-289.7 544,-311.7 653,-311.7 653,-289.7 544,-289.7"/>
<image xlink:href="../../images/primaryKeys.png" width="11px" height="12px" preserveAspectRatio="xMinYMin meet" x="549" y="-306.7"/>
<text text-anchor="start" x="564" y="-296.8" font-family="Helvetica,sans-Serif" font-size="11.00" fill="#000000">id</text>
<polygon fill="none" stroke="#000000" points="653,-289.7 653,-311.7 762,-311.7 762,-289.7 653,-289.7"/>
<text text-anchor="start" x="656" y="-297.4" font-family="Helvetica,sans-Serif" font-size="11.00" fill="#000000">serial[10]</text>
<polygon fill="#ffffff" stroke="transparent" points="544,-267.7 544,-289.7 653,-289.7 653,-267.7 544,-267.7"/>
<polygon fill="none" stroke="#000000" points="544,-267.7 544,-289.7 653,-289.7 653,-267.7 544,-267.7"/>
<image xlink:href="../../images/foreignKeys.png" width="11px" height="12px" preserveAspectRatio="xMinYMin meet" x="549" y="-284.7"/>
<text text-anchor="start" x="564" y="-274.8" font-family="Helvetica,sans-Serif" font-size="11.00" fill="#000000">summary_id</text>
<polygon fill="none" stroke="#000000" points="653,-267.7 653,-289.7 762,-289.7 762,-267.7 653,-267.7"/>
<text text-anchor="start" x="656" y="-275.4" font-family="Helvetica,sans-Serif" font-size="11.00" fill="#000000">uuid[2147483647]</text>
<polygon fill="none" stroke="#000000" points="544,-245.7 544,-267.7 653,-267.7 653,-245.7 544,-245.7"/>
<text text-anchor="start" x="564" y="-252.8" font-family="Helvetica,sans-Serif" font-size="11.00" fill="#000000">description</text>
<polygon fill="none" stroke="#000000" points="653,-245.7 653,-267.7 762,-267.7 762,-245.7 653,-245.7"/>
<text text-anchor="start" x="655.5344" y="-253.4" font-family="Helvetica,sans-Serif" font-size="11.00" fill="#000000">varchar[2147483647]</text>
<polygon fill="none" stroke="#000000" points="544,-223.7 544,-245.7 653,-245.7 653,-223.7 544,-223.7"/>
<text text-anchor="start" x="564" y="-230.8" font-family="Helvetica,sans-Serif" font-size="11.00" fill="#000000">decided_by</text>
<polygon fill="none" stroke="#000000" points="653,-223.7 653,-245.7 762,-245.7 762,-223.7 653,-223.7"/>
<text text-anchor="start" x="655.5344" y="-231.4" font-family="Helvetica,sans-Serif" font-size="11.00" fill="#000000">varchar[2147483647]</text>
<polygon fill="#ffffff" stroke="transparent" points="544,-204.7 544,-223.7 762,-223.7 762,-204.7 544,-204.7"/>
<polygon fill="none" stroke="#000000" points="544,-204.7 544,-223.7 762,-223.7 762,-204.7 544,-204.7"/>
<polygon fill="#ffffff" stroke="transparent" points="545,-205.7 545,-222.7 620,-222.7 620,-205.7 545,-205.7"/>
<text text-anchor="start" x="547" y="-210.8" font-family="Helvetica,sans-Serif" font-size="11.00" fill="#000000">&lt; 1</text>
<polygon fill="#ffffff" stroke="transparent" points="620,-205.7 620,-222.7 686,-222.7 686,-205.7 620,-205.7"/>
<text text-anchor="start" x="649.9431" y="-210.8" font-family="Helvetica,sans-Serif" font-size="11.00" fill="#000000"> &#160;</text>
<polygon fill="#ffffff" stroke="transparent" points="686,-205.7 686,-222.7 761,-222.7 761,-205.7 686,-205.7"/>
<text text-anchor="start" x="743.4053" y="-210.8" font-family="Helvetica,sans-Serif" font-size="11.00" fill="#000000">0 &gt;</text>
<polygon fill="#000000" stroke="#000000" points="620,-205.7 620,-222.7 620,-222.7 620,-205.7 620,-205.7"/>
<polygon fill="#000000" stroke="#000000" points="686,-205.7 686,-222.7 686,-222.7 686,-205.7 686,-205.7"/>
<polygon fill="none" stroke="#000000" stroke-width="2" points="543,-203.7 543,-335.7 763,-335.7 763,-203.7 543,-203.7"/>
</a>
</g>
</g>
<!-- decisions&#45;&gt;summaries -->
<g id="edge2" class="edge">
<title>decisions:w&#45;&gt;summaries:e</title>
<path fill="none" stroke="#000000" d="M530.158,-273.9534C513.1101,-258.8202 524.3754,-212.7 493.5,-212.7"/>
<polygon fill="#000000" stroke="#000000" points="536.4326,-276.105 542.8323,-282.1054 540.2163,-277.4025 544,-278.7 544,-278.7 544,-278.7 540.2163,-277.4025 545.1677,-275.2946 536.4326,-276.105 536.4326,-276.105"/>
<ellipse fill="none" stroke="#000000" cx="533.4056" cy="-275.067" rx="3.2" ry="3.2"/>
</g>
<!-- summary_groups&#45;&gt;users -->
<g id="edge5" class="edge">
<title>summary_groups:w&#45;&gt;users:e</title>
<path fill="none" stroke="#000000" d="M120.9495,-132.7323C108.971,-140.7007 105.3749,-157.7 86,-157.7"/>
<polygon fill="#000000" stroke="#000000" points="127.3104,-130.9069 135.9931,-132.1603 131.1552,-129.8034 135,-128.7 135,-128.7 135,-128.7 131.1552,-129.8034 134.0069,-125.2397 127.3104,-130.9069 127.3104,-130.9069"/>
<ellipse fill="none" stroke="#000000" cx="124.2346" cy="-131.7896" rx="3.2" ry="3.2"/>
</g>
<!-- topics -->
<g id="node6" class="node">
<title>topics</title>
<g id="a_node6"><a xlink:href="../../tables/topics.html" xlink:title="topics" target="_top">
<polygon fill="#ffffff" stroke="transparent" points="611.5,-120.2 611.5,-181.2 694.5,-181.2 694.5,-120.2 611.5,-120.2"/>
<polygon fill="#f5f5f5" stroke="transparent" points="612,-157.7 612,-180.7 695,-180.7 695,-157.7 612,-157.7"/>
<polygon fill="none" stroke="#000000" points="612,-157.7 612,-180.7 695,-180.7 695,-157.7 612,-157.7"/>
<text text-anchor="start" x="617" y="-166.3" font-family="Helvetica,sans-Serif" font-weight="bold" font-size="11.00" fill="#000000">topics</text>
<text text-anchor="start" x="660.5219" y="-165.8" font-family="Helvetica,sans-Serif" font-size="11.00" fill="#000000">[table]</text>
<polygon fill="none" stroke="#000000" points="612,-138.7 612,-157.7 695,-157.7 695,-138.7 612,-138.7"/>
<text text-anchor="start" x="615" y="-144.8" font-family="Helvetica,sans-Serif" font-size="11.00" fill="#000000">...</text>
<polygon fill="#ffffff" stroke="transparent" points="612,-119.7 612,-138.7 695,-138.7 695,-119.7 612,-119.7"/>
<polygon fill="none" stroke="#000000" points="612,-119.7 612,-138.7 695,-138.7 695,-119.7 612,-119.7"/>
<polygon fill="#ffffff" stroke="transparent" points="613,-120.7 613,-137.7 646,-137.7 646,-120.7 613,-120.7"/>
<text text-anchor="start" x="615" y="-125.8" font-family="Helvetica,sans-Serif" font-size="11.00" fill="#000000">&lt; 1</text>
<polygon fill="#ffffff" stroke="transparent" points="646,-120.7 646,-137.7 670,-137.7 670,-120.7 646,-120.7"/>
<text text-anchor="start" x="654.9431" y="-125.8" font-family="Helvetica,sans-Serif" font-size="11.00" fill="#000000"> &#160;</text>
<polygon fill="#ffffff" stroke="transparent" points="670,-120.7 670,-137.7 694,-137.7 694,-120.7 670,-120.7"/>
<text text-anchor="start" x="685.8862" y="-125.8" font-family="Helvetica,sans-Serif" font-size="11.00" fill="#000000"> &#160;</text>
<polygon fill="#000000" stroke="#000000" points="646,-120.7 646,-137.7 646,-137.7 646,-120.7 646,-120.7"/>
<polygon fill="#000000" stroke="#000000" points="670,-120.7 670,-137.7 670,-137.7 670,-120.7 670,-120.7"/>
</a>
</g>
</g>
<!-- topics&#45;&gt;summaries -->
<g id="edge6" class="edge">
<title>topics:w&#45;&gt;summaries:e</title>
<path fill="none" stroke="#000000" d="M598.4933,-152.8004C568.7424,-168.1236 505.9363,-212.7 493.5,-212.7"/>
<polygon fill="#000000" stroke="#000000" points="604.5158,-150.5262 613.2718,-151.0679 608.2579,-149.1131 612,-147.7 612,-147.7 612,-147.7 608.2579,-149.1131 610.7282,-144.3321 604.5158,-150.5262 604.5158,-150.5262"/>
<ellipse fill="none" stroke="#000000" cx="601.5222" cy="-151.6567" rx="3.2" ry="3.2"/>
</g>
<!-- transcript_segments -->
<g id="node7" class="node">
<title>transcript_segments</title>
<g id="a_node7"><a xlink:href="../../tables/transcript_segments.html" xlink:title="transcript_segments" target="_top">
<polygon fill="#ffffff" stroke="transparent" points="558.5,-38.2 558.5,-99.2 747.5,-99.2 747.5,-38.2 558.5,-38.2"/>
<polygon fill="#f5f5f5" stroke="transparent" points="559,-75.7 559,-98.7 748,-98.7 748,-75.7 559,-75.7"/>
<polygon fill="none" stroke="#000000" points="559,-75.7 559,-98.7 748,-98.7 748,-75.7 559,-75.7"/>
<text text-anchor="start" x="564" y="-84.3" font-family="Helvetica,sans-Serif" font-weight="bold" font-size="11.00" fill="#000000">transcript_segments</text>
<text text-anchor="start" x="713.5219" y="-83.8" font-family="Helvetica,sans-Serif" font-size="11.00" fill="#000000">[table]</text>
<polygon fill="none" stroke="#000000" points="559,-56.7 559,-75.7 748,-75.7 748,-56.7 559,-56.7"/>
<text text-anchor="start" x="562" y="-62.8" font-family="Helvetica,sans-Serif" font-size="11.00" fill="#000000">...</text>
<polygon fill="#ffffff" stroke="transparent" points="559,-37.7 559,-56.7 748,-56.7 748,-37.7 559,-37.7"/>
<polygon fill="none" stroke="#000000" points="559,-37.7 559,-56.7 748,-56.7 748,-37.7 559,-37.7"/>
<polygon fill="#ffffff" stroke="transparent" points="560,-38.7 560,-55.7 629,-55.7 629,-38.7 560,-38.7"/>
<text text-anchor="start" x="562" y="-43.8" font-family="Helvetica,sans-Serif" font-size="11.00" fill="#000000">&lt; 1</text>
<polygon fill="#ffffff" stroke="transparent" points="629,-38.7 629,-55.7 688,-55.7 688,-38.7 629,-38.7"/>
<text text-anchor="start" x="655.4431" y="-43.8" font-family="Helvetica,sans-Serif" font-size="11.00" fill="#000000"> &#160;</text>
<polygon fill="#ffffff" stroke="transparent" points="688,-38.7 688,-55.7 747,-55.7 747,-38.7 688,-38.7"/>
<text text-anchor="start" x="738.8862" y="-43.8" font-family="Helvetica,sans-Serif" font-size="11.00" fill="#000000"> &#160;</text>
<polygon fill="#000000" stroke="#000000" points="629,-38.7 629,-55.7 629,-55.7 629,-38.7 629,-38.7"/>
<polygon fill="#000000" stroke="#000000" points="688,-38.7 688,-55.7 688,-55.7 688,-38.7 688,-38.7"/>
</a>
</g>
</g>
<!-- transcript_segments&#45;&gt;summaries -->
<g id="edge7" class="edge">
<title>transcript_segments:w&#45;&gt;summaries:e</title>
<path fill="none" stroke="#000000" d="M544.8237,-68.2515C498.6819,-87.7715 559.4376,-212.7 493.5,-212.7"/>
<polygon fill="#000000" stroke="#000000" points="551.1265,-67.1171 559.6377,-69.2431 555.0633,-66.4086 559,-65.7 559,-65.7 559,-65.7 555.0633,-66.4086 558.3623,-62.1569 551.1265,-67.1171 551.1265,-67.1171"/>
<ellipse fill="none" stroke="#000000" cx="547.9771" cy="-67.684" rx="3.2" ry="3.2"/>
</g>
</g>
</svg>
