<?xml version="1.0" encoding="UTF-8" standalone="no"?>
<!DOCTYPE svg PUBLIC "-//W3C//DTD SVG 1.1//EN"
 "http://www.w3.org/Graphics/SVG/1.1/DTD/svg11.dtd">
<!-- Generated by graphviz version 2.40.1 (20161225.0304)
 -->
<!-- Title: twoDegreesRelationshipsDiagram Pages: 1 -->
<svg width="567pt" height="431pt"
 viewBox="0.00 0.00 567.00 431.20" xmlns="http://www.w3.org/2000/svg" xmlns:xlink="http://www.w3.org/1999/xlink">
<g id="graph0" class="graph" transform="scale(1 1) rotate(0) translate(4 427.2)">
<title>twoDegreesRelationshipsDiagram</title>
<polygon fill="#ffffff" stroke="transparent" points="-4,4 -4,-427.2 563,-427.2 563,4 -4,4"/>
<text text-anchor="middle" x="72.4936" y="-7.3" font-family="Helvetica,sans-Serif" font-size="11.00" fill="#000000">Generated by SchemaSpy</text>
<!-- action_items -->
<g id="node1" class="node">
<title>action_items</title>
<g id="a_node1"><a xlink:href="../../tables/action_items.html" xlink:title="action_items" target="_top">
<polygon fill="#ffffff" stroke="transparent" points="374.5,-358.2 374.5,-419.2 505.5,-419.2 505.5,-358.2 374.5,-358.2"/>
<polygon fill="#f5f5f5" stroke="transparent" points="375,-395.7 375,-418.7 506,-418.7 506,-395.7 375,-395.7"/>
<polygon fill="none" stroke="#000000" points="375,-395.7 375,-418.7 506,-418.7 506,-395.7 375,-395.7"/>
<text text-anchor="start" x="380" y="-404.3" font-family="Helvetica,sans-Serif" font-weight="bold" font-size="11.00" fill="#000000">action_items</text>
<text text-anchor="start" x="471.5219" y="-403.8" font-family="Helvetica,sans-Serif" font-size="11.00" fill="#000000">[table]</text>
<polygon fill="none" stroke="#000000" points="375,-376.7 375,-395.7 506,-395.7 506,-376.7 375,-376.7"/>
<text text-anchor="start" x="378" y="-382.8" font-family="Helvetica,sans-Serif" font-size="11.00" fill="#000000">...</text>
<polygon fill="#ffffff" stroke="transparent" points="375,-357.7 375,-376.7 506,-376.7 506,-357.7 375,-357.7"/>
<polygon fill="none" stroke="#000000" points="375,-357.7 375,-376.7 506,-376.7 506,-357.7 375,-357.7"/>
<polygon fill="#ffffff" stroke="transparent" points="376,-358.7 376,-375.7 425,-375.7 425,-358.7 376,-358.7"/>
<text text-anchor="start" x="378" y="-363.8" font-family="Helvetica,sans-Serif" font-size="11.00" fill="#000000">&lt; 1</text>
<polygon fill="#ffffff" stroke="transparent" points="425,-358.7 425,-375.7 465,-375.7 465,-358.7 425,-358.7"/>
<text text-anchor="start" x="441.9431" y="-363.8" font-family="Helvetica,sans-Serif" font-size="11.00" fill="#000000"> &#160;</text>
<polygon fill="#ffffff" stroke="transparent" points="465,-358.7 465,-375.7 505,-375.7 505,-358.7 465,-358.7"/>
<text text-anchor="start" x="496.8862" y="-363.8" font-family="Helvetica,sans-Serif" font-size="11.00" fill="#000000"> &#160;</text>
<polygon fill="#000000" stroke="#000000" points="425,-358.7 425,-375.7 425,-375.7 425,-358.7 425,-358.7"/>
<polygon fill="#000000" stroke="#000000" points="465,-358.7 465,-375.7 465,-375.7 465,-358.7 465,-358.7"/>
</a>
</g>
</g>
<!-- summaries -->
<g id="node2" class="node">
<title>summaries</title>
<g id="a_node2"><a xlink:href="../../tables/summaries.html" xlink:title="summaries" target="_top">
<polygon fill="#ffffff" stroke="transparent" points="135,-120.2 135,-247.2 280,-247.2 280,-120.2 135,-120.2"/>
<polygon fill="#f5f5f5" stroke="transparent" points="135.5,-223.7 135.5,-246.7 280.5,-246.7 280.5,-223.7 135.5,-223.7"/>
<polygon fill="none" stroke="#000000" points="135.5,-223.7 135.5,-246.7 280.5,-246.7 280.5,-223.7 135.5,-223.7"/>
<text text-anchor="start" x="140.5" y="-232.3" font-family="Helvetica,sans-Serif" font-weight="bold" font-size="11.00" fill="#000000">summaries</text>
<text text-anchor="start" x="245.5437" y="-231.8" font-family="Helvetica,sans-Serif" font-size="11.00" fill="#000000">[table]</text>
<polygon fill="none" stroke="#000000" points="135.5,-201.7 135.5,-223.7 280.5,-223.7 280.5,-201.7 135.5,-201.7"/>
<image xlink:href="../../images/primaryKeys.png" width="11px" height="12px" preserveAspectRatio="xMinYMin meet" x="140.5" y="-218.7"/>
<text text-anchor="start" x="155.5" y="-208.8" font-family="Helvetica,sans-Serif" font-size="11.00" fill="#000000">id</text>
<polygon fill="#ffffff" stroke="transparent" points="135.5,-179.7 135.5,-201.7 280.5,-201.7 280.5,-179.7 135.5,-179.7"/>
<polygon fill="none" stroke="#000000" points="135.5,-179.7 135.5,-201.7 280.5,-201.7 280.5,-179.7 135.5,-179.7"/>
<text text-anchor="start" x="155.5" y="-186.8" font-family="Helvetica,sans-Serif" font-size="11.00" fill="#000000">content_hash</text>
<polygon fill="#ffffff" stroke="transparent" points="135.5,-157.7 135.5,-179.7 280.5,-179.7 280.5,-157.7 135.5,-157.7"/>
<polygon fill="none" stroke="#000000" points="135.5,-157.7 135.5,-179.7 280.5,-179.7 280.5,-157.7 135.5,-157.7"/>
<image xlink:href="../../images/foreignKeys.png" width="11px" height="12px" preserveAspectRatio="xMinYMin meet" x="140.5" y="-174.7"/>
<text text-anchor="start" x="155.5" y="-164.8" font-family="Helvetica,sans-Serif" font-size="11.00" fill="#000000">user_id</text>
<polygon fill="none" stroke="#000000" points="135.5,-138.7 135.5,-157.7 280.5,-157.7 280.5,-138.7 135.5,-138.7"/>
<text text-anchor="start" x="138.5" y="-144.8" font-family="Helvetica,sans-Serif" font-size="11.00" fill="#000000">...</text>
<polygon fill="#ffffff" stroke="transparent" points="135.5,-119.7 135.5,-138.7 280.5,-138.7 280.5,-119.7 135.5,-119.7"/>
<polygon fill="none" stroke="#000000" points="135.5,-119.7 135.5,-138.7 280.5,-138.7 280.5,-119.7 135.5,-119.7"/>
<polygon fill="#ffffff" stroke="transparent" points="136.5,-120.7 136.5,-137.7 187.5,-137.7 187.5,-120.7 136.5,-120.7"/>
<text text-anchor="start" x="138.5" y="-125.8" font-family="Helvetica,sans-Serif" font-size="11.00" fill="#000000">&lt; 1</text>
<polygon fill="#ffffff" stroke="transparent" points="187.5,-120.7 187.5,-137.7 229.5,-137.7 229.5,-120.7 187.5,-120.7"/>
<text text-anchor="start" x="205.4431" y="-125.8" font-family="Helvetica,sans-Serif" font-size="11.00" fill="#000000"> &#160;</text>
<polygon fill="#ffffff" stroke="transparent" points="229.5,-120.7 229.5,-137.7 279.5,-137.7 279.5,-120.7 229.5,-120.7"/>
<text text-anchor="start" x="261.9053" y="-125.8" font-family="Helvetica,sans-Serif" font-size="11.00" fill="#000000">4 &gt;</text>
<polygon fill="#000000" stroke="#000000" points="187.5,-120.7 187.5,-137.7 187.5,-137.7 187.5,-120.7 187.5,-120.7"/>
<polygon fill="#000000" stroke="#000000" points="229.5,-120.7 229.5,-137.7 229.5,-137.7 229.5,-120.7 229.5,-120.7"/>
</a>
</g>
</g>
<!-- action_items&#45;&gt;summaries -->
<g id="edge1" class="edge">
<title>action_items:w&#45;&gt;summaries:e</title>
<path fill="none" stroke="#000000" d="M360.5895,-384.2333C342.5032,-380.0397 334.942,-367.0435 321,-347.7 284.3727,-296.8823 343.1418,-212.7 280.5,-212.7"/>
<polygon fill="#000000" stroke="#000000" points="367.0411,-384.8899 374.6355,-389.2815 371.0206,-385.2949 375,-385.7 375,-385.7 375,-385.7 371.0206,-385.2949 375.3645,-382.1185 367.0411,-384.8899 367.0411,-384.8899"/>
<ellipse fill="none" stroke="#000000" cx="363.8576" cy="-384.5659" rx="3.2" ry="3.2"/>
</g>
<!-- users -->
<g id="node4" class="node">
<title>users</title>
<g id="a_node4"><a xlink:href="../../tables/users.html" xlink:title="users" target="_top">
<polygon fill="#ffffff" stroke="transparent" points="8,-141.2 8,-202.2 86,-202.2 86,-141.2 8,-141.2"/>
<polygon fill="#f5f5f5" stroke="transparent" points="8,-178.7 8,-201.7 86,-201.7 86,-178.7 8,-178.7"/>
<polygon fill="none" stroke="#000000" points="8,-178.7 8,-201.7 86,-201.7 86,-178.7 8,-178.7"/>
<text text-anchor="start" x="13" y="-187.3" font-family="Helvetica,sans-Serif" font-weight="bold" font-size="11.00" fill="#000000">users</text>
<text text-anchor="start" x="51.5219" y="-186.8" font-family="Helvetica,sans-Serif" font-size="11.00" fill="#000000">[table]</text>
<polygon fill="none" stroke="#000000" points="8,-159.7 8,-178.7 86,-178.7 86,-159.7 8,-159.7"/>
<text text-anchor="start" x="11" y="-165.8" font-family="Helvetica,sans-Serif" font-size="11.00" fill="#000000">...</text>
<polygon fill="#ffffff" stroke="transparent" points="8,-140.7 8,-159.7 86,-159.7 86,-140.7 8,-140.7"/>
<polygon fill="none" stroke="#000000" points="8,-140.7 8,-159.7 86,-159.7 86,-140.7 8,-140.7"/>
<polygon fill="#ffffff" stroke="transparent" points="9,-141.7 9,-158.7 32,-158.7 32,-141.7 9,-141.7"/>
<text text-anchor="start" x="11" y="-146.8" font-family="Helvetica,sans-Serif" font-size="11.00" fill="#000000"> &#160;</text>
<polygon fill="#ffffff" stroke="transparent" points="32,-141.7 32,-158.7 54,-158.7 54,-141.7 32,-141.7"/>
<text text-anchor="start" x="39.9431" y="-146.8" font-family="Helvetica,sans-Serif" font-size="11.00" fill="#000000"> &#160;</text>
<polygon fill="#ffffff" stroke="transparent" points="54,-141.7 54,-158.7 85,-158.7 85,-141.7 54,-141.7"/>
<text text-anchor="start" x="67.4053" y="-146.8" font-family="Helvetica,sans-Serif" font-size="11.00" fill="#000000">3 &gt;</text>
<polygon fill="#000000" stroke="#000000" points="32,-141.7 32,-158.7 32,-158.7 32,-141.7 32,-141.7"/>
<polygon fill="#000000" stroke="#000000" points="54,-141.7 54,-158.7 54,-158.7 54,-141.7 54,-141.7"/>
</a>
</g>
</g>
<!-- summaries&#45;&gt;users -->
<g id="edge3" class="edge">
<title>summaries:w&#45;&gt;users:e</title>
<path fill="none" stroke="#000000" d="M120.8428,-168.7C109.4139,-168.7 102.1563,-168.7 86,-168.7"/>
<polygon fill="#000000" stroke="#000000" points="127.5,-168.7001 135.5,-172.3 131.5,-168.7 135.5,-168.7 135.5,-168.7 135.5,-168.7 131.5,-168.7 135.5,-165.1 127.5,-168.7001 127.5,-168.7001"/>
<ellipse fill="none" stroke="#000000" cx="124.3" cy="-168.7001" rx="3.2" ry="3.2"/>
</g>
<!-- decisions -->
<g id="node3" class="node">
<title>decisions</title>
<g id="a_node3"><a xlink:href="../../tables/decisions.html" xlink:title="decisions" target="_top">
<polygon fill="#ffffff" stroke="transparent" points="329,-202.7 329,-336.7 551,-336.7 551,-202.7 329,-202.7"/>
<polygon fill="#f5f5f5" stroke="transparent" points="331,-311.7 331,-334.7 549,-334.7 549,-311.7 331,-311.7"/>
<polygon fill="none" stroke="#000000" points="331,-311.7 331,-334.7 549,-334.7 549,-311.7 331,-311.7"/>
<text text-anchor="start" x="336" y="-320.3" font-family="Helvetica,sans-Serif" font-weight="bold" font-size="11.00" fill="#000000">decisions</text>
<text text-anchor="start" x="514.0437" y="-319.8" font-family="Helvetica,sans-Serif" font-size="11.00" fill="#000000">[table]</text>
<polygon fill="none" stroke="#000000" points="331,-289.7 331,-311.7 440,-311.7 440,-289.7 331,-289.7"/>
<image xlink:href="../../images/primaryKeys.png" width="11px" height="12px" preserveAspectRatio="xMinYMin meet" x="336" y="-306.7"/>
<text text-anchor="start" x="351" y="-296.8" font-family="Helvetica,sans-Serif" font-size="11.00" fill="#000000">id</text>
<polygon fill="none" stroke="#000000" points="440,-289.7 440,-311.7 549,-311.7 549,-289.7 440,-289.7"/>
<text text-anchor="start" x="443" y="-297.4" font-family="Helvetica,sans-Serif" font-size="11.00" fill="#000000">serial[10]</text>
<polygon fill="#ffffff" stroke="transparent" points="331,-267.7 331,-289.7 440,-289.7 440,-267.7 331,-267.7"/>
<polygon fill="none" stroke="#000000" points="331,-267.7 331,-289.7 440,-289.7 440,-267.7 331,-267.7"/>
<image xlink:href="../../images/foreignKeys.png" width="11px" height="12px" preserveAspectRatio="xMinYMin meet" x="336" y="-284.7"/>
<text text-anchor="start" x="351" y="-274.8" font-family="Helvetica,sans-Serif" font-size="11.00" fill="#000000">summary_id</text>
<polygon fill="none" stroke="#000000" points="440,-267.7 440,-289.7 549,-289.7 549,-267.7 440,-267.7"/>
<text text-anchor="start" x="443" y="-275.4" font-family="Helvetica,sans-Serif" font-size="11.00" fill="#000000">uuid[2147483647]</text>
<polygon fill="none" stroke="#000000" points="331,-245.7 331,-267.7 440,-267.7 440,-245.7 331,-245.7"/>
<text text-anchor="start" x="351" y="-252.8" font-family="Helvetica,sans-Serif" font-size="11.00" fill="#000000">description</text>
<polygon fill="none" stroke="#000000" points="440,-245.7 440,-267.7 549,-267.7 549,-245.7 440,-245.7"/>
<text text-anchor="start" x="442.5344" y="-253.4" font-family="Helvetica,sans-Serif" font-size="11.00" fill="#000000">varchar[2147483647]</text>
<polygon fill="none" stroke="#000000" points="331,-223.7 331,-245.7 440,-245.7 440,-223.7 331,-223.7"/>
<text text-anchor="start" x="351" y="-230.8" font-family="Helvetica,sans-Serif" font-size="11.00" fill="#000000">decided_by</text>
<polygon fill="none" stroke="#000000" points="440,-223.7 440,-245.7 549,-245.7 549,-223.7 440,-223.7"/>
<text text-anchor="start" x="442.5344" y="-231.4" font-family="Helvetica,sans-Serif" font-size="11.00" fill="#000000">varchar[2147483647]</text>
<polygon fill="#ffffff" stroke="transparent" points="331,-204.7 331,-223.7 549,-223.7 549,-204.7 331,-204.7"/>
<polygon fill="none" stroke="#000000" points="331,-204.7 331,-223.7 549,-223.7 549,-204.7 331,-204.7"/>
<polygon fill="#ffffff" stroke="transparent" points="332,-205.7 332,-222.7 407,-222.7 407,-205.7 332,-205.7"/>
<text text-anchor="start" x="334" y="-210.8" font-family="Helvetica,sans-Serif" font-size="11.00" fill="#000000">&lt; 1</text>
<polygon fill="#ffffff" stroke="transparent" points="407,-205.7 407,-222.7 473,-222.7 473,-205.7 407,-205.7"/>
<text text-anchor="start" x="436.9431" y="-210.8" font-family="Helvetica,sans-Serif" font-size="11.00" fill="#000000"> &#160;</text>
<polygon fill="#ffffff" stroke="transparent" points="473,-205.7 473,-222.7 548,-222.7 548,-205.7 473,-205.7"/>
<text text-anchor="start" x="530.4053" y="-210.8" font-family="Helvetica,sans-Serif" font-size="11.00" fill="#000000">0 &gt;</text>
<polygon fill="#000000" stroke="#000000" points="407,-205.7 407,-222.7 407,-222.7 407,-205.7 407,-205.7"/>
<polygon fill="#000000" stroke="#000000" points="473,-205.7 473,-222.7 473,-222.7 473,-205.7 473,-205.7"/>
<polygon fill="none" stroke="#000000" stroke-width="2" points="330,-203.7 330,-335.7 550,-335.7 550,-203.7 330,-203.7"/>
</a>
</g>
</g>
<!-- decisions&#45;&gt;summaries -->
<g id="edge2" class="edge">
<title>decisions:w&#45;&gt;summaries:e</title>
<path fill="none" stroke="#000000" d="M317.158,-273.9534C300.1101,-258.8202 311.3754,-212.7 280.5,-212.7"/>
<polygon fill="#000000" stroke="#000000" points="323.4326,-276.105 329.8323,-282.1054 327.2163,-277.4025 331,-278.7 331,-278.7 331,-278.7 327.2163,-277.4025 332.1677,-275.2946 323.4326,-276.105 323.4326,-276.105"/>
<ellipse fill="none" stroke="#000000" cx="320.4056" cy="-275.067" rx="3.2" ry="3.2"/>
</g>
<!-- topics -->
<g id="node5" class="node">
<title>topics</title>
<g id="a_node5"><a xlink:href="../../tables/topics.html" xlink:title="topics" target="_top">
<polygon fill="#ffffff" stroke="transparent" points="398.5,-120.2 398.5,-181.2 481.5,-181.2 481.5,-120.2 398.5,-120.2"/>
<polygon fill="#f5f5f5" stroke="transparent" points="399,-157.7 399,-180.7 482,-180.7 482,-157.7 399,-157.7"/>
<polygon fill="none" stroke="#000000" points="399,-157.7 399,-180.7 482,-180.7 482,-157.7 399,-157.7"/>
<text text-anchor="start" x="404" y="-166.3" font-family="Helvetica,sans-Serif" font-weight="bold" font-size="11.00" fill="#000000">topics</text>
<text text-anchor="start" x="447.5219" y="-165.8" font-family="Helvetica,sans-Serif" font-size="11.00" fill="#000000">[table]</text>
<polygon fill="none" stroke="#000000" points="399,-138.7 399,-157.7 482,-157.7 482,-138.7 399,-138.7"/>
<text text-anchor="start" x="402" y="-144.8" font-family="Helvetica,sans-Serif" font-size="11.00" fill="#000000">...</text>
<polygon fill="#ffffff" stroke="transparent" points="399,-119.7 399,-138.7 482,-138.7 482,-119.7 399,-119.7"/>
<polygon fill="none" stroke="#000000" points="399,-119.7 399,-138.7 482,-138.7 482,-119.7 399,-119.7"/>
<polygon fill="#ffffff" stroke="transparent" points="400,-120.7 400,-137.7 433,-137.7 433,-120.7 400,-120.7"/>
<text text-anchor="start" x="402" y="-125.8" font-family="Helvetica,sans-Serif" font-size="11.00" fill="#000000">&lt; 1</text>
<polygon fill="#ffffff" stroke="transparent" points="433,-120.7 433,-137.7 457,-137.7 457,-120.7 433,-120.7"/>
<text text-anchor="start" x="441.9431" y="-125.8" font-family="Helvetica,sans-Serif" font-size="11.00" fill="#000000"> &#160;</text>
<polygon fill="#ffffff" stroke="transparent" points="457,-120.7 457,-137.7 481,-137.7 481,-120.7 457,-120.7"/>
<text text-anchor="start" x="472.8862" y="-125.8" font-family="Helvetica,sans-Serif" font-size="11.00" fill="#000000"> &#160;</text>
<polygon fill="#000000" stroke="#000000" points="433,-120.7 433,-137.7 433,-137.7 433,-120.7 433,-120.7"/>
<polygon fill="#000000" stroke="#000000" points="457,-120.7 457,-137.7 457,-137.7 457,-120.7 457,-120.7"/>
</a>
</g>
</g>
<!-- topics&#45;&gt;summaries -->
<g id="edge4" class="edge">
<title>topics:w&#45;&gt;summaries:e</title>
<path fill="none" stroke="#000000" d="M385.4933,-152.8004C355.7424,-168.1236 292.9363,-212.7 280.5,-212.7"/>
<polygon fill="#000000" stroke="#000000" points="391.5158,-150.5262 400.2718,-151.0679 395.2579,-149.1131 399,-147.7 399,-147.7 399,-147.7 395.2579,-149.1131 397.7282,-144.3321 391.5158,-150.5262 391.5158,-150.5262"/>
<ellipse fill="none" stroke="#000000" cx="388.5222" cy="-151.6567" rx="3.2" ry="3.2"/>
</g>
<!-- transcript_segments -->
<g id="node6" class="node">
<title>transcript_segments</title>
<g id="a_node6"><a xlink:href="../../tables/transcript_segments.html" xlink:title="transcript_segments" target="_top">
<polygon fill="#ffffff" stroke="transparent" points="345.5,-38.2 345.5,-99.2 534.5,-99.2 534.5,-38.2 345.5,-38.2"/>
<polygon fill="#f5f5f5" stroke="transparent" points="346,-75.7 346,-98.7 535,-98.7 535,-75.7 346,-75.7"/>
<polygon fill="none" stroke="#000000" points="346,-75.7 346,-98.7 535,-98.7 535,-75.7 346,-75.7"/>
<text text-anchor="start" x="351" y="-84.3" font-family="Helvetica,sans-Serif" font-weight="bold" font-size="11.00" fill="#000000">transcript_segments</text>
<text text-anchor="start" x="500.5219" y="-83.8" font-family="Helvetica,sans-Serif" font-size="11.00" fill="#000000">[table]</text>
<polygon fill="none" stroke="#000000" points="346,-56.7 346,-75.7 535,-75.7 535,-56.7 346,-56.7"/>
<text text-anchor="start" x="349" y="-62.8" font-family="Helvetica,sans-Serif" font-size="11.00" fill="#000000">...</text>
<polygon fill="#ffffff" stroke="transparent" points="346,-37.7 346,-56.7 535,-56.7 535,-37.7 346,-37.7"/>
<polygon fill="none" stroke="#000000" points="346,-37.7 346,-56.7 535,-56.7 535,-37.7 346,-37.7"/>
<polygon fill="#ffffff" stroke="transparent" points="347,-38.7 347,-55.7 416,-55.7 416,-38.7 347,-38.7"/>
<text text-anchor="start" x="349" y="-43.8" font-family="Helvetica,sans-Serif" font-size="11.00" fill="#000000">&lt; 1</text>
<polygon fill="#ffffff" stroke="transparent" points="416,-38.7 416,-55.7 475,-55.7 475,-38.7 416,-38.7"/>
<text text-anchor="start" x="442.4431" y="-43.8" font-family="Helvetica,sans-Serif" font-size="11.00" fill="#000000"> &#160;</text>
<polygon fill="#ffffff" stroke="transparent" points="475,-38.7 475,-55.7 534,-55.7 534,-38.7 475,-38.7"/>
<text text-anchor="start" x="525.8862" y="-43.8" font-family="Helvetica,sans-Serif" font-size="11.00" fill="#000000"> &#160;</text>
<polygon fill="#000000" stroke="#000000" points="416,-38.7 416,-55.7 416,-55.7 416,-38.7 416,-38.7"/>
<polygon fill="#000000" stroke="#000000" points="475,-38.7 475,-55.7 475,-55.7 475,-38.7 475,-38.7"/>
</a>
</g>
</g>
<!-- transcript_segments&#45;&gt;summaries -->
<g id="edge5" class="edge">
<title>transcript_segments:w&#45;&gt;summaries:e</title>
<path fill="none" stroke="#000000" d="M331.8237,-68.2515C285.6819,-87.7715 346.4376,-212.7 280.5,-212.7"/>
<polygon fill="#000000" stroke="#000000" points="338.1265,-67.1171 346.6377,-69.2431 342.0633,-66.4086 346,-65.7 346,-65.7 346,-65.7 342.0633,-66.4086 345.3623,-62.1569 338.1265,-67.1171 338.1265,-67.1171"/>
<ellipse fill="none" stroke="#000000" cx="334.9771" cy="-67.684" rx="3.2" ry="3.2"/>
</g>
</g>
</svg>
