<?xml version="1.0" encoding="UTF-8" standalone="no"?>
<!DOCTYPE svg PUBLIC "-//W3C//DTD SVG 1.1//EN"
 "http://www.w3.org/Graphics/SVG/1.1/DTD/svg11.dtd">
<!-- Generated by graphviz version 2.40.1 (20161225.0304)
 -->
<!-- Title: twoDegreesRelationshipsDiagram Pages: 1 -->
<svg width="413pt" height="393pt"
 viewBox="0.00 0.00 413.00 392.70" xmlns="http://www.w3.org/2000/svg" xmlns:xlink="http://www.w3.org/1999/xlink">
<g id="graph0" class="graph" transform="scale(1 1) rotate(0) translate(4 388.7)">
<title>twoDegreesRelationshipsDiagram</title>
<polygon fill="#ffffff" stroke="transparent" points="-4,4 -4,-388.7 409,-388.7 409,4 -4,4"/>
<text text-anchor="middle" x="72.4936" y="-7.3" font-family="Helvetica,sans-Serif" font-size="11.00" fill="#000000">Generated by SchemaSpy</text>
<!-- oauth_identities -->
<g id="node1" class="node">
<title>oauth_identities</title>
<g id="a_node1"><a xlink:href="../../tables/oauth_identities.html" xlink:title="oauth_identities" target="_top">
<polygon fill="#ffffff" stroke="transparent" points="160,-202.7 160,-380.7 397,-380.7 397,-202.7 160,-202.7"/>
<polygon fill="#f5f5f5" stroke="transparent" points="162.5,-355.7 162.5,-378.7 395.5,-378.7 395.5,-355.7 162.5,-355.7"/>
<polygon fill="none" stroke="#000000" points="162.5,-355.7 162.5,-378.7 395.5,-378.7 395.5,-355.7 162.5,-355.7"/>
<text text-anchor="start" x="167.5" y="-364.3" font-family="Helvetica,sans-Serif" font-weight="bold" font-size="11.00" fill="#000000">oauth_identities</text>
<text text-anchor="start" x="360.5437" y="-363.8" font-family="Helvetica,sans-Serif" font-size="11.00" fill="#000000">[table]</text>
<polygon fill="none" stroke="#000000" points="162.5,-333.7 162.5,-355.7 301.5,-355.7 301.5,-333.7 162.5,-333.7"/>
<image xlink:href="../../images/primaryKeys.png" width="11px" height="12px" preserveAspectRatio="xMinYMin meet" x="167.5" y="-350.7"/>
<text text-anchor="start" x="182.5" y="-340.8" font-family="Helvetica,sans-Serif" font-size="11.00" fill="#000000">id</text>
<polygon fill="none" stroke="#000000" points="301.5,-333.7 301.5,-355.7 395.5,-355.7 395.5,-333.7 301.5,-333.7"/>
<text text-anchor="start" x="304.4758" y="-341.4" font-family="Helvetica,sans-Serif" font-size="11.00" fill="#000000">uuid[2147483647]</text>
<polygon fill="#ffffff" stroke="transparent" points="162.5,-311.7 162.5,-333.7 301.5,-333.7 301.5,-311.7 162.5,-311.7"/>
<polygon fill="none" stroke="#000000" points="162.5,-311.7 162.5,-333.7 301.5,-333.7 301.5,-311.7 162.5,-311.7"/>
<image xlink:href="../../images/foreignKeys.png" width="11px" height="12px" preserveAspectRatio="xMinYMin meet" x="167.5" y="-328.7"/>
<text text-anchor="start" x="182.5" y="-318.8" font-family="Helvetica,sans-Serif" font-size="11.00" fill="#000000">user_id</text>
<polygon fill="none" stroke="#000000" points="301.5,-311.7 301.5,-333.7 395.5,-333.7 395.5,-311.7 301.5,-311.7"/>
<text text-anchor="start" x="304.4758" y="-319.4" font-family="Helvetica,sans-Serif" font-size="11.00" fill="#000000">uuid[2147483647]</text>
<polygon fill="#ffffff" stroke="transparent" points="162.5,-289.7 162.5,-311.7 301.5,-311.7 301.5,-289.7 162.5,-289.7"/>
<polygon fill="none" stroke="#000000" points="162.5,-289.7 162.5,-311.7 301.5,-311.7 301.5,-289.7 162.5,-289.7"/>
<text text-anchor="start" x="182.5" y="-296.8" font-family="Helvetica,sans-Serif" font-size="11.00" fill="#000000">provider</text>
<polygon fill="none" stroke="#000000" points="301.5,-289.7 301.5,-311.7 395.5,-311.7 395.5,-289.7 301.5,-289.7"/>
<text text-anchor="start" x="304.5" y="-297.4" font-family="Helvetica,sans-Serif" font-size="11.00" fill="#000000">varchar[50]</text>
<polygon fill="#ffffff" stroke="transparent" points="162.5,-267.7 162.5,-289.7 301.5,-289.7 301.5,-267.7 162.5,-267.7"/>
<polygon fill="none" stroke="#000000" points="162.5,-267.7 162.5,-289.7 301.5,-289.7 301.5,-267.7 162.5,-267.7"/>
<text text-anchor="start" x="182.5" y="-274.8" font-family="Helvetica,sans-Serif" font-size="11.00" fill="#000000">subject</text>
<polygon fill="none" stroke="#000000" points="301.5,-267.7 301.5,-289.7 395.5,-289.7 395.5,-267.7 301.5,-267.7"/>
<text text-anchor="start" x="304.5" y="-275.4" font-family="Helvetica,sans-Serif" font-size="11.00" fill="#000000">varchar[255]</text>
<polygon fill="none" stroke="#000000" points="162.5,-245.7 162.5,-267.7 301.5,-267.7 301.5,-245.7 162.5,-245.7"/>
<text text-anchor="start" x="182.5" y="-252.8" font-family="Helvetica,sans-Serif" font-size="11.00" fill="#000000">email</text>
<polygon fill="none" stroke="#000000" points="301.5,-245.7 301.5,-267.7 395.5,-267.7 395.5,-245.7 301.5,-245.7"/>
<text text-anchor="start" x="304.5" y="-253.4" font-family="Helvetica,sans-Serif" font-size="11.00" fill="#000000">varchar[320]</text>
<polygon fill="none" stroke="#000000" points="162.5,-223.7 162.5,-245.7 301.5,-245.7 301.5,-223.7 162.5,-223.7"/>
<text text-anchor="start" x="182.5" y="-230.8" font-family="Helvetica,sans-Serif" font-size="11.00" fill="#000000">created_at</text>
<polygon fill="none" stroke="#000000" points="301.5,-223.7 301.5,-245.7 395.5,-245.7 395.5,-223.7 301.5,-223.7"/>
<text text-anchor="start" x="304.5" y="-231.4" font-family="Helvetica,sans-Serif" font-size="11.00" fill="#000000">timestamptz[35,6]</text>
<polygon fill="#ffffff" stroke="transparent" points="162.5,-204.7 162.5,-223.7 395.5,-223.7 395.5,-204.7 162.5,-204.7"/>
<polygon fill="none" stroke="#000000" points="162.5,-204.7 162.5,-223.7 395.5,-223.7 395.5,-204.7 162.5,-204.7"/>
<polygon fill="#ffffff" stroke="transparent" points="163.5,-205.7 163.5,-222.7 243.5,-222.7 243.5,-205.7 163.5,-205.7"/>
<text text-anchor="start" x="165.5" y="-210.8" font-family="Helvetica,sans-Serif" font-size="11.00" fill="#000000">&lt; 1</text>
<polygon fill="#ffffff" stroke="transparent" points="243.5,-205.7 243.5,-222.7 314.5,-222.7 314.5,-205.7 243.5,-205.7"/>
<text text-anchor="start" x="275.9431" y="-210.8" font-family="Helvetica,sans-Serif" font-size="11.00" fill="#000000"> &#160;</text>
<polygon fill="#ffffff" stroke="transparent" points="314.5,-205.7 314.5,-222.7 394.5,-222.7 394.5,-205.7 314.5,-205.7"/>
<text text-anchor="start" x="376.9053" y="-210.8" font-family="Helvetica,sans-Serif" font-size="11.00" fill="#000000">0 &gt;</text>
<polygon fill="#000000" stroke="#000000" points="243.5,-205.7 243.5,-222.7 243.5,-222.7 243.5,-205.7 243.5,-205.7"/>
<polygon fill="#000000" stroke="#000000" points="314.5,-205.7 314.5,-222.7 314.5,-222.7 314.5,-205.7 314.5,-205.7"/>
<polygon fill="none" stroke="#000000" stroke-width="2" points="161,-203.7 161,-379.7 396,-379.7 396,-203.7 161,-203.7"/>
</a>
</g>
</g>
<!-- users -->
<g id="node2" class="node">
<title>users</title>
<g id="a_node2"><a xlink:href="../../tables/users.html" xlink:title="users" target="_top">
<polygon fill="#ffffff" stroke="transparent" points="8,-99.2 8,-182.2 111,-182.2 111,-99.2 8,-99.2"/>
<polygon fill="#f5f5f5" stroke="transparent" points="8.5,-158.7 8.5,-181.7 111.5,-181.7 111.5,-158.7 8.5,-158.7"/>
<polygon fill="none" stroke="#000000" points="8.5,-158.7 8.5,-181.7 111.5,-181.7 111.5,-158.7 8.5,-158.7"/>
<text text-anchor="start" x="13.5" y="-167.3" font-family="Helvetica,sans-Serif" font-weight="bold" font-size="11.00" fill="#000000">users</text>
<text text-anchor="start" x="76.5437" y="-166.8" font-family="Helvetica,sans-Serif" font-size="11.00" fill="#000000">[table]</text>
<polygon fill="none" stroke="#000000" points="8.5,-136.7 8.5,-158.7 111.5,-158.7 111.5,-136.7 8.5,-136.7"/>
<image xlink:href="../../images/primaryKeys.png" width="11px" height="12px" preserveAspectRatio="xMinYMin meet" x="13.5" y="-153.7"/>
<text text-anchor="start" x="28.5" y="-143.8" font-family="Helvetica,sans-Serif" font-size="11.00" fill="#000000">id</text>
<polygon fill="none" stroke="#000000" points="8.5,-117.7 8.5,-136.7 111.5,-136.7 111.5,-117.7 8.5,-117.7"/>
<text text-anchor="start" x="11.5" y="-123.8" font-family="Helvetica,sans-Serif" font-size="11.00" fill="#000000">...</text>
<polygon fill="#ffffff" stroke="transparent" points="8.5,-98.7 8.5,-117.7 111.5,-117.7 111.5,-98.7 8.5,-98.7"/>
<polygon fill="none" stroke="#000000" points="8.5,-98.7 8.5,-117.7 111.5,-117.7 111.5,-98.7 8.5,-98.7"/>
<polygon fill="#ffffff" stroke="transparent" points="9.5,-99.7 9.5,-116.7 40.5,-116.7 40.5,-99.7 9.5,-99.7"/>
<text text-anchor="start" x="11.5" y="-104.8" font-family="Helvetica,sans-Serif" font-size="11.00" fill="#000000"> &#160;</text>
<polygon fill="#ffffff" stroke="transparent" points="40.5,-99.7 40.5,-116.7 71.5,-116.7 71.5,-99.7 40.5,-99.7"/>
<text text-anchor="start" x="52.9431" y="-104.8" font-family="Helvetica,sans-Serif" font-size="11.00" fill="#000000"> &#160;</text>
<polygon fill="#ffffff" stroke="transparent" points="71.5,-99.7 71.5,-116.7 110.5,-116.7 110.5,-99.7 71.5,-99.7"/>
<text text-anchor="start" x="92.9053" y="-104.8" font-family="Helvetica,sans-Serif" font-size="11.00" fill="#000000">3 &gt;</text>
<polygon fill="#000000" stroke="#000000" points="40.5,-99.7 40.5,-116.7 40.5,-116.7 40.5,-99.7 40.5,-99.7"/>
<polygon fill="#000000" stroke="#000000" points="71.5,-99.7 71.5,-116.7 71.5,-116.7 71.5,-99.7 71.5,-99.7"/>
</a>
</g>
</g>
<!-- oauth_identities&#45;&gt;users -->
<g id="edge1" class="edge">
<title>oauth_identities:w&#45;&gt;users:e</title>
<path fill="none" stroke="#000000" d="M148.126,-320.2261C96.1504,-298.9558 186.8171,-147.7 111.5,-147.7"/>
<polygon fill="#000000" stroke="#000000" points="154.6159,-321.3431 161.8894,-326.2478 158.558,-322.0215 162.5,-322.7 162.5,-322.7 162.5,-322.7 158.558,-322.0215 163.1106,-319.1522 154.6159,-321.3431 154.6159,-321.3431"/>
<ellipse fill="none" stroke="#000000" cx="151.4623" cy="-320.8003" rx="3.2" ry="3.2"/>
</g>
<!-- summaries -->
<g id="node3" class="node">
<title>summaries</title>
<g id="a_node3"><a xlink:href="../../tables/summaries.html" xlink:title="summaries" target="_top">
<polygon fill="#ffffff" stroke="transparent" points="219,-120.2 219,-181.2 338,-181.2 338,-120.2 219,-120.2"/>
<polygon fill="#f5f5f5" stroke="transparent" points="219.5,-157.7 219.5,-180.7 338.5,-180.7 338.5,-157.7 219.5,-157.7"/>
<polygon fill="none" stroke="#000000" points="219.5,-157.7 219.5,-180.7 338.5,-180.7 338.5,-157.7 219.5,-157.7"/>
<text text-anchor="start" x="224.5" y="-166.3" font-family="Helvetica,sans-Serif" font-weight="bold" font-size="11.00" fill="#000000">summaries</text>
<text text-anchor="start" x="304.0219" y="-165.8" font-family="Helvetica,sans-Serif" font-size="11.00" fill="#000000">[table]</text>
<polygon fill="none" stroke="#000000" points="219.5,-138.7 219.5,-157.7 338.5,-157.7 338.5,-138.7 219.5,-138.7"/>
<text text-anchor="start" x="222.5" y="-144.8" font-family="Helvetica,sans-Serif" font-size="11.00" fill="#000000">...</text>
<polygon fill="#ffffff" stroke="transparent" points="219.5,-119.7 219.5,-138.7 338.5,-138.7 338.5,-119.7 219.5,-119.7"/>
<polygon fill="none" stroke="#000000" points="219.5,-119.7 219.5,-138.7 338.5,-138.7 338.5,-119.7 219.5,-119.7"/>
<polygon fill="#ffffff" stroke="transparent" points="220.5,-120.7 220.5,-137.7 262.5,-137.7 262.5,-120.7 220.5,-120.7"/>
<text text-anchor="start" x="222.5" y="-125.8" font-family="Helvetica,sans-Serif" font-size="11.00" fill="#000000">&lt; 1</text>
<polygon fill="#ffffff" stroke="transparent" points="262.5,-120.7 262.5,-137.7 295.5,-137.7 295.5,-120.7 262.5,-120.7"/>
<text text-anchor="start" x="275.9431" y="-125.8" font-family="Helvetica,sans-Serif" font-size="11.00" fill="#000000"> &#160;</text>
<polygon fill="#ffffff" stroke="transparent" points="295.5,-120.7 295.5,-137.7 337.5,-137.7 337.5,-120.7 295.5,-120.7"/>
<text text-anchor="start" x="319.9053" y="-125.8" font-family="Helvetica,sans-Serif" font-size="11.00" fill="#000000">4 &gt;</text>
<polygon fill="#000000" stroke="#000000" points="262.5,-120.7 262.5,-137.7 262.5,-137.7 262.5,-120.7 262.5,-120.7"/>
<polygon fill="#000000" stroke="#000000" points="295.5,-120.7 295.5,-137.7 295.5,-137.7 295.5,-120.7 295.5,-120.7"/>
</a>
</g>
</g>
<!-- summaries&#45;&gt;users -->
<g id="edge2" class="edge">
<title>summaries:w&#45;&gt;users:e</title>
<path fill="none" stroke="#000000" d="M204.9478,-147.7C168.4443,-147.7 154.25,-147.7 111.5,-147.7"/>
<polygon fill="#000000" stroke="#000000" points="211.5,-147.7001 219.5,-151.3 215.5,-147.7 219.5,-147.7 219.5,-147.7 219.5,-147.7 215.5,-147.7 219.5,-144.1 211.5,-147.7001 211.5,-147.7001"/>
<ellipse fill="none" stroke="#000000" cx="208.3" cy="-147.7001" rx="3.2" ry="3.2"/>
</g>
<!-- user_sessions -->
<g id="node4" class="node">
<title>user_sessions</title>
<g id="a_node4"><a xlink:href="../../tables/user_sessions.html" xlink:title="user_sessions" target="_top">
<polygon fill="#ffffff" stroke="transparent" points="208.5,-38.2 208.5,-99.2 348.5,-99.2 348.5,-38.2 208.5,-38.2"/>
<polygon fill="#f5f5f5" stroke="transparent" points="208.5,-75.7 208.5,-98.7 348.5,-98.7 348.5,-75.7 208.5,-75.7"/>
<polygon fill="none" stroke="#000000" points="208.5,-75.7 208.5,-98.7 348.5,-98.7 348.5,-75.7 208.5,-75.7"/>
<text text-anchor="start" x="213.5" y="-84.3" font-family="Helvetica,sans-Serif" font-weight="bold" font-size="11.00" fill="#000000">user_sessions</text>
<text text-anchor="start" x="314.0219" y="-83.8" font-family="Helvetica,sans-Serif" font-size="11.00" fill="#000000">[table]</text>
<polygon fill="none" stroke="#000000" points="208.5,-56.7 208.5,-75.7 348.5,-75.7 348.5,-56.7 208.5,-56.7"/>
<text text-anchor="start" x="211.5" y="-62.8" font-family="Helvetica,sans-Serif" font-size="11.00" fill="#000000">...</text>
<polygon fill="#ffffff" stroke="transparent" points="208.5,-37.7 208.5,-56.7 348.5,-56.7 348.5,-37.7 208.5,-37.7"/>
<polygon fill="none" stroke="#000000" points="208.5,-37.7 208.5,-56.7 348.5,-56.7 348.5,-37.7 208.5,-37.7"/>
<polygon fill="#ffffff" stroke="transparent" points="209.5,-38.7 209.5,-55.7 261.5,-55.7 261.5,-38.7 209.5,-38.7"/>
<text text-anchor="start" x="211.5" y="-43.8" font-family="Helvetica,sans-Serif" font-size="11.00" fill="#000000">&lt; 1</text>
<polygon fill="#ffffff" stroke="transparent" points="261.5,-38.7 261.5,-55.7 304.5,-55.7 304.5,-38.7 261.5,-38.7"/>
<text text-anchor="start" x="279.9431" y="-43.8" font-family="Helvetica,sans-Serif" font-size="11.00" fill="#000000"> &#160;</text>
<polygon fill="#ffffff" stroke="transparent" points="304.5,-38.7 304.5,-55.7 347.5,-55.7 347.5,-38.7 304.5,-38.7"/>
<text text-anchor="start" x="339.3862" y="-43.8" font-family="Helvetica,sans-Serif" font-size="11.00" fill="#000000"> &#160;</text>
<polygon fill="#000000" stroke="#000000" points="261.5,-38.7 261.5,-55.7 261.5,-55.7 261.5,-38.7 261.5,-38.7"/>
<polygon fill="#000000" stroke="#000000" points="304.5,-38.7 304.5,-55.7 304.5,-55.7 304.5,-38.7 304.5,-38.7"/>
</a>
</g>
</g>
<!-- user_sessions&#45;&gt;users -->
<g id="edge3" class="edge">
<title>user_sessions:w&#45;&gt;users:e</title>
<path fill="none" stroke="#000000" d="M194.0595,-67.8076C175.7326,-73.9929 171.8403,-92.729 152,-109.7 133.2432,-125.7442 136.1827,-147.7 111.5,-147.7"/>
<polygon fill="#000000" stroke="#000000" points="200.5839,-66.8554 209.0199,-69.2623 204.5419,-66.2777 208.5,-65.7 208.5,-65.7 208.5,-65.7 204.5419,-66.2777 207.9801,-62.1377 200.5839,-66.8554 200.5839,-66.8554"/>
<ellipse fill="none" stroke="#000000" cx="197.4174" cy="-67.3175" rx="3.2" ry="3.2"/>
</g>
</g>
</svg>
