<?xml version="1.0" encoding="UTF-8" standalone="no"?>
<!DOCTYPE svg PUBLIC "-//W3C//DTD SVG 1.1//EN"
 "http://www.w3.org/Graphics/SVG/1.1/DTD/svg11.dtd">
<!-- Generated by graphviz version 2.40.1 (20161225.0304)
 -->
<!-- Title: twoDegreesRelationshipsDiagram Pages: 1 -->
<svg width="860pt" height="649pt"
 viewBox="0.00 0.00 860.00 649.20" xmlns="http://www.w3.org/2000/svg" xmlns:xlink="http://www.w3.org/1999/xlink">
<g id="graph0" class="graph" transform="scale(1 1) rotate(0) translate(4 645.2)">
<title>twoDegreesRelationshipsDiagram</title>
<polygon fill="#ffffff" stroke="transparent" points="-4,4 -4,-645.2 856,-645.2 856,4 -4,4"/>
<text text-anchor="middle" x="72.4936" y="-7.3" font-family="Helvetica,sans-Serif" font-size="11.00" fill="#000000">Generated by SchemaSpy</text>
<!-- action_items -->
<g id="node1" class="node">
<title>action_items</title>
<g id="a_node1"><a xlink:href="../../tables/action_items.html" xlink:title="action_items" target="_top">
<polygon fill="#ffffff" stroke="transparent" points="684,-532.2 684,-637.2 815,-637.2 815,-532.2 684,-532.2"/>
<polygon fill="#f5f5f5" stroke="transparent" points="684.5,-613.7 684.5,-636.7 815.5,-636.7 815.5,-613.7 684.5,-613.7"/>
<polygon fill="none" stroke="#000000" points="684.5,-613.7 684.5,-636.7 815.5,-636.7 815.5,-613.7 684.5,-613.7"/>
<text text-anchor="start" x="689.5" y="-622.3" font-family="Helvetica,sans-Serif" font-weight="bold" font-size="11.00" fill="#000000">action_items</text>
<text text-anchor="start" x="781.0219" y="-621.8" font-family="Helvetica,sans-Serif" font-size="11.00" fill="#000000">[table]</text>
<polygon fill="none" stroke="#000000" points="684.5,-591.7 684.5,-613.7 815.5,-613.7 815.5,-591.7 684.5,-591.7"/>
<image xlink:href="../../images/primaryKeys.png" width="11px" height="12px" preserveAspectRatio="xMinYMin meet" x="689.5" y="-608.7"/>
<text text-anchor="start" x="713.5" y="-598.8" font-family="Helvetica,sans-Serif" font-size="11.00" fill="#000000">id</text>
<polygon fill="#ffffff" stroke="transparent" points="684.5,-569.7 684.5,-591.7 815.5,-591.7 815.5,-569.7 684.5,-569.7"/>
<polygon fill="none" stroke="#000000" points="684.5,-569.7 684.5,-591.7 815.5,-591.7 815.5,-569.7 684.5,-569.7"/>
<image xlink:href="../../images/foreignKeys.png" width="11px" height="12px" preserveAspectRatio="xMinYMin meet" x="689.5" y="-586.7"/>
<text text-anchor="start" x="713.5" y="-576.8" font-family="Helvetica,sans-Serif" font-size="11.00" fill="#000000">summary_id</text>
<polygon fill="none" stroke="#000000" points="684.5,-550.7 684.5,-569.7 815.5,-569.7 815.5,-550.7 684.5,-550.7"/>
<text text-anchor="start" x="687.5" y="-556.8" font-family="Helvetica,sans-Serif" font-size="11.00" fill="#000000">...</text>
<polygon fill="#ffffff" stroke="transparent" points="684.5,-531.7 684.5,-550.7 815.5,-550.7 815.5,-531.7 684.5,-531.7"/>
<polygon fill="none" stroke="#000000" points="684.5,-531.7 684.5,-550.7 815.5,-550.7 815.5,-531.7 684.5,-531.7"/>
<polygon fill="#ffffff" stroke="transparent" points="685.5,-532.7 685.5,-549.7 734.5,-549.7 734.5,-532.7 685.5,-532.7"/>
<text text-anchor="start" x="687.5" y="-537.8" font-family="Helvetica,sans-Serif" font-size="11.00" fill="#000000">&lt; 1</text>
<polygon fill="#ffffff" stroke="transparent" points="734.5,-532.7 734.5,-549.7 774.5,-549.7 774.5,-532.7 734.5,-532.7"/>
<text text-anchor="start" x="751.4431" y="-537.8" font-family="Helvetica,sans-Serif" font-size="11.00" fill="#000000"> &#160;</text>
<polygon fill="#ffffff" stroke="transparent" points="774.5,-532.7 774.5,-549.7 814.5,-549.7 814.5,-532.7 774.5,-532.7"/>
<text text-anchor="start" x="806.3862" y="-537.8" font-family="Helvetica,sans-Serif" font-size="11.00" fill="#000000"> &#160;</text>
<polygon fill="#000000" stroke="#000000" points="734.5,-532.7 734.5,-549.7 734.5,-549.7 734.5,-532.7 734.5,-532.7"/>
<polygon fill="#000000" stroke="#000000" points="774.5,-532.7 774.5,-549.7 774.5,-549.7 774.5,-532.7 774.5,-532.7"/>
</a>
</g>
</g>
<!-- summaries -->
<g id="node2" class="node">
<title>summaries</title>
<g id="a_node2"><a xlink:href="../../tables/summaries.html" xlink:title="summaries" target="_top">
<polygon fill="#ffffff" stroke="transparent" points="348,-205.7 348,-427.7 606,-427.7 606,-205.7 348,-205.7"/>
<polygon fill="#f5f5f5" stroke="transparent" points="350,-402.7 350,-425.7 604,-425.7 604,-402.7 350,-402.7"/>
<polygon fill="none" stroke="#000000" points="350,-402.7 350,-425.7 604,-425.7 604,-402.7 350,-402.7"/>
<text text-anchor="start" x="355" y="-411.3" font-family="Helvetica,sans-Serif" font-weight="bold" font-size="11.00" fill="#000000">summaries</text>
<text text-anchor="start" x="569.0437" y="-410.8" font-family="Helvetica,sans-Serif" font-size="11.00" fill="#000000">[table]</text>
<polygon fill="none" stroke="#000000" points="350,-380.7 350,-402.7 495,-402.7 495,-380.7 350,-380.7"/>
<image xlink:href="../../images/primaryKeys.png" width="11px" height="12px" preserveAspectRatio="xMinYMin meet" x="355" y="-397.7"/>
<text text-anchor="start" x="370" y="-387.8" font-family="Helvetica,sans-Serif" font-size="11.00" fill="#000000">id</text>
<polygon fill="none" stroke="#000000" points="495,-380.7 495,-402.7 604,-402.7 604,-380.7 495,-380.7"/>
<text text-anchor="start" x="498" y="-388.4" font-family="Helvetica,sans-Serif" font-size="11.00" fill="#000000">uuid[2147483647]</text>
<polygon fill="none" stroke="#000000" points="350,-358.7 350,-380.7 495,-380.7 495,-358.7 350,-358.7"/>
<text text-anchor="start" x="370" y="-365.8" font-family="Helvetica,sans-Serif" font-size="11.00" fill="#000000">filename</text>
<polygon fill="none" stroke="#000000" points="495,-358.7 495,-380.7 604,-380.7 604,-358.7 495,-358.7"/>
<text text-anchor="start" x="498" y="-366.4" font-family="Helvetica,sans-Serif" font-size="11.00" fill="#000000">varchar[255]</text>
<polygon fill="none" stroke="#000000" points="350,-336.7 350,-358.7 495,-358.7 495,-336.7 350,-336.7"/>
<text text-anchor="start" x="370" y="-343.8" font-family="Helvetica,sans-Serif" font-size="11.00" fill="#000000">created_at</text>
<polygon fill="none" stroke="#000000" points="495,-336.7 495,-358.7 604,-358.7 604,-336.7 495,-336.7"/>
<text text-anchor="start" x="498" y="-344.4" font-family="Helvetica,sans-Serif" font-size="11.00" fill="#000000">timestamptz[35,6]</text>
<polygon fill="none" stroke="#000000" points="350,-314.7 350,-336.7 495,-336.7 495,-314.7 350,-314.7"/>
<text text-anchor="start" x="370" y="-321.8" font-family="Helvetica,sans-Serif" font-size="11.00" fill="#000000">overall_summary</text>
<polygon fill="none" stroke="#000000" points="495,-314.7 495,-336.7 604,-336.7 604,-314.7 495,-314.7"/>
<text text-anchor="start" x="497.5344" y="-322.4" font-family="Helvetica,sans-Serif" font-size="11.00" fill="#000000">varchar[2147483647]</text>
<polygon fill="#ffffff" stroke="transparent" points="350,-292.7 350,-314.7 495,-314.7 495,-292.7 350,-292.7"/>
<polygon fill="none" stroke="#000000" points="350,-292.7 350,-314.7 495,-314.7 495,-292.7 350,-292.7"/>
<text text-anchor="start" x="370" y="-299.8" font-family="Helvetica,sans-Serif" font-size="11.00" fill="#000000">content_hash</text>
<polygon fill="none" stroke="#000000" points="495,-292.7 495,-314.7 604,-314.7 604,-292.7 495,-292.7"/>
<text text-anchor="start" x="498" y="-300.4" font-family="Helvetica,sans-Serif" font-size="11.00" fill="#000000">varchar[64]</text>
<polygon fill="#ffffff" stroke="transparent" points="350,-270.7 350,-292.7 495,-292.7 495,-270.7 350,-270.7"/>
<polygon fill="none" stroke="#000000" points="350,-270.7 350,-292.7 495,-292.7 495,-270.7 350,-270.7"/>
<image xlink:href="../../images/foreignKeys.png" width="11px" height="12px" preserveAspectRatio="xMinYMin meet" x="355" y="-287.7"/>
<text text-anchor="start" x="370" y="-277.8" font-family="Helvetica,sans-Serif" font-size="11.00" fill="#000000">user_id</text>
<polygon fill="none" stroke="#000000" points="495,-270.7 495,-292.7 604,-292.7 604,-270.7 495,-270.7"/>
<text text-anchor="start" x="498" y="-278.4" font-family="Helvetica,sans-Serif" font-size="11.00" fill="#000000">uuid[2147483647]</text>
<polygon fill="none" stroke="#000000" points="350,-248.7 350,-270.7 495,-270.7 495,-248.7 350,-248.7"/>
<text text-anchor="start" x="370" y="-255.8" font-family="Helvetica,sans-Serif" font-size="11.00" fill="#000000">deleted_at</text>
<polygon fill="none" stroke="#000000" points="495,-248.7 495,-270.7 604,-270.7 604,-248.7 495,-248.7"/>
<text text-anchor="start" x="498" y="-256.4" font-family="Helvetica,sans-Serif" font-size="11.00" fill="#000000">timestamptz[35,6]</text>
<polygon fill="#ffffff" stroke="transparent" points="350,-226.7 350,-248.7 495,-248.7 495,-226.7 350,-226.7"/>
<polygon fill="none" stroke="#000000" points="350,-226.7 350,-248.7 495,-248.7 495,-226.7 350,-226.7"/>
<image xlink:href="../../images/foreignKeys.png" width="11px" height="12px" preserveAspectRatio="xMinYMin meet" x="355" y="-243.7"/>
<text text-anchor="start" x="370" y="-233.8" font-family="Helvetica,sans-Serif" font-size="11.00" fill="#000000">group_id</text>
<polygon fill="none" stroke="#000000" points="495,-226.7 495,-248.7 604,-248.7 604,-226.7 495,-226.7"/>
<text text-anchor="start" x="498" y="-234.4" font-family="Helvetica,sans-Serif" font-size="11.00" fill="#000000">uuid[2147483647]</text>
<polygon fill="#ffffff" stroke="transparent" points="350,-207.7 350,-226.7 604,-226.7 604,-207.7 350,-207.7"/>
<polygon fill="none" stroke="#000000" points="350,-207.7 350,-226.7 604,-226.7 604,-207.7 350,-207.7"/>
<polygon fill="#ffffff" stroke="transparent" points="351,-208.7 351,-225.7 438,-225.7 438,-208.7 351,-208.7"/>
<text text-anchor="start" x="353" y="-213.8" font-family="Helvetica,sans-Serif" font-size="11.00" fill="#000000">&lt; 2</text>
<polygon fill="#ffffff" stroke="transparent" points="438,-208.7 438,-225.7 516,-225.7 516,-208.7 438,-208.7"/>
<text text-anchor="start" x="473.9431" y="-213.8" font-family="Helvetica,sans-Serif" font-size="11.00" fill="#000000"> &#160;</text>
<polygon fill="#ffffff" stroke="transparent" points="516,-208.7 516,-225.7 603,-225.7 603,-208.7 516,-208.7"/>
<text text-anchor="start" x="585.4053" y="-213.8" font-family="Helvetica,sans-Serif" font-size="11.00" fill="#000000">4 &gt;</text>
<polygon fill="#000000" stroke="#000000" points="438,-208.7 438,-225.7 438,-225.7 438,-208.7 438,-208.7"/>
<polygon fill="#000000" stroke="#000000" points="516,-208.7 516,-225.7 516,-225.7 516,-208.7 516,-208.7"/>
<polygon fill="none" stroke="#000000" stroke-width="2" points="349,-206.7 349,-426.7 605,-426.7 605,-206.7 349,-206.7"/>
</a>
</g>
</g>
<!-- action_items&#45;&gt;summaries -->
<g id="edge1" class="edge">
<title>action_items:w&#45;&gt;summaries:e</title>
<path fill="none" stroke="#000000" d="M669.957,-578.7053C604.8532,-558.5061 689.7739,-391.7 604,-391.7"/>
<polygon fill="#000000" stroke="#000000" points="676.5742,-579.6129 684.0108,-584.2666 680.5371,-580.1564 684.5,-580.7 684.5,-580.7 684.5,-580.7 680.5371,-580.1564 684.9892,-577.1334 676.5742,-579.6129 676.5742,-579.6129"/>
<ellipse fill="none" stroke="#000000" cx="673.4039" cy="-579.178" rx="3.2" ry="3.2"/>
</g>
<!-- users -->
<g id="node5" class="node">
<title>users</title>
<g id="a_node5"><a xlink:href="../../tables/users.html" xlink:title="users" target="_top">
<polygon fill="#ffffff" stroke="transparent" points="8,-159.2 8,-220.2 86,-220.2 86,-159.2 8,-159.2"/>
<polygon fill="#f5f5f5" stroke="transparent" points="8,-196.7 8,-219.7 86,-219.7 86,-196.7 8,-196.7"/>
<polygon fill="none" stroke="#000000" points="8,-196.7 8,-219.7 86,-219.7 86,-196.7 8,-196.7"/>
<text text-anchor="start" x="13" y="-205.3" font-family="Helvetica,sans-Serif" font-weight="bold" font-size="11.00" fill="#000000">users</text>
<text text-anchor="start" x="51.5219" y="-204.8" font-family="Helvetica,sans-Serif" font-size="11.00" fill="#000000">[table]</text>
<polygon fill="none" stroke="#000000" points="8,-177.7 8,-196.7 86,-196.7 86,-177.7 8,-177.7"/>
<text text-anchor="start" x="11" y="-183.8" font-family="Helvetica,sans-Serif" font-size="11.00" fill="#000000">...</text>
<polygon fill="#ffffff" stroke="transparent" points="8,-158.7 8,-177.7 86,-177.7 86,-158.7 8,-158.7"/>
<polygon fill="none" stroke="#000000" points="8,-158.7 8,-177.7 86,-177.7 86,-158.7 8,-158.7"/>
<polygon fill="#ffffff" stroke="transparent" points="9,-159.7 9,-176.7 32,-176.7 32,-159.7 9,-159.7"/>
<text text-anchor="start" x="11" y="-164.8" font-family="Helvetica,sans-Serif" font-size="11.00" fill="#000000"> &#160;</text>
<polygon fill="#ffffff" stroke="transparent" points="32,-159.7 32,-176.7 54,-176.7 54,-159.7 32,-159.7"/>
<text text-anchor="start" x="39.9431" y="-164.8" font-family="Helvetica,sans-Serif" font-size="11.00" fill="#000000"> &#160;</text>
<polygon fill="#ffffff" stroke="transparent" points="54,-159.7 54,-176.7 85,-176.7 85,-159.7 54,-159.7"/>
<text text-anchor="start" x="67.4053" y="-164.8" font-family="Helvetica,sans-Serif" font-size="11.00" fill="#000000">4 &gt;</text>
<polygon fill="#000000" stroke="#000000" points="32,-159.7 32,-176.7 32,-176.7 32,-159.7 32,-159.7"/>
<polygon fill="#000000" stroke="#000000" points="54,-159.7 54,-176.7 54,-176.7 54,-159.7 54,-159.7"/>
</a>
</g>
</g>
<!-- summaries&#45;&gt;users -->
<g id="edge5" class="edge">
<title>summaries:w&#45;&gt;users:e</title>
<path fill="none" stroke="#000000" d="M335.3842,-281.939C247.2874,-284.8313 212.8483,-312.3284 127,-273.7 103.8597,-263.2878 84.1182,-242.7762 70.0356,-224.6292"/>
<polygon fill="#000000" stroke="#000000" points="342.0011,-281.8309 350.0589,-285.2995 346.0005,-281.7654 350,-281.7 350,-281.7 350,-281.7 346.0005,-281.7654 349.9411,-278.1005 342.0011,-281.8309 342.0011,-281.8309"/>
<ellipse fill="none" stroke="#000000" cx="338.8015" cy="-281.8832" rx="3.2" ry="3.2"/>
</g>
<!-- summary_groups -->
<g id="node6" class="node">
<title>summary_groups</title>
<g id="a_node6"><a xlink:href="../../tables/summary_groups.html" xlink:title="summary_groups" target="_top">
<polygon fill="#ffffff" stroke="transparent" points="135,-202.2 135,-263.2 299,-263.2 299,-202.2 135,-202.2"/>
<polygon fill="#f5f5f5" stroke="transparent" points="135,-239.7 135,-262.7 299,-262.7 299,-239.7 135,-239.7"/>
<polygon fill="none" stroke="#000000" points="135,-239.7 135,-262.7 299,-262.7 299,-239.7 135,-239.7"/>
<text text-anchor="start" x="140" y="-248.3" font-family="Helvetica,sans-Serif" font-weight="bold" font-size="11.00" fill="#000000">summary_groups</text>
<text text-anchor="start" x="264.5219" y="-247.8" font-family="Helvetica,sans-Serif" font-size="11.00" fill="#000000">[table]</text>
<polygon fill="none" stroke="#000000" points="135,-220.7 135,-239.7 299,-239.7 299,-220.7 135,-220.7"/>
<text text-anchor="start" x="138" y="-226.8" font-family="Helvetica,sans-Serif" font-size="11.00" fill="#000000">...</text>
<polygon fill="#ffffff" stroke="transparent" points="135,-201.7 135,-220.7 299,-220.7 299,-201.7 135,-201.7"/>
<polygon fill="none" stroke="#000000" points="135,-201.7 135,-220.7 299,-220.7 299,-201.7 135,-201.7"/>
<polygon fill="#ffffff" stroke="transparent" points="136,-202.7 136,-219.7 193,-219.7 193,-202.7 136,-202.7"/>
<text text-anchor="start" x="138" y="-207.8" font-family="Helvetica,sans-Serif" font-size="11.00" fill="#000000">&lt; 1</text>
<polygon fill="#ffffff" stroke="transparent" points="193,-202.7 193,-219.7 241,-219.7 241,-202.7 193,-202.7"/>
<text text-anchor="start" x="213.9431" y="-207.8" font-family="Helvetica,sans-Serif" font-size="11.00" fill="#000000"> &#160;</text>
<polygon fill="#ffffff" stroke="transparent" points="241,-202.7 241,-219.7 298,-219.7 298,-202.7 241,-202.7"/>
<text text-anchor="start" x="280.4053" y="-207.8" font-family="Helvetica,sans-Serif" font-size="11.00" fill="#000000">1 &gt;</text>
<polygon fill="#000000" stroke="#000000" points="193,-202.7 193,-219.7 193,-219.7 193,-202.7 193,-202.7"/>
<polygon fill="#000000" stroke="#000000" points="241,-202.7 241,-219.7 241,-219.7 241,-202.7 241,-202.7"/>
</a>
</g>
</g>
<!-- summaries&#45;&gt;summary_groups -->
<g id="edge4" class="edge">
<title>summaries:w&#45;&gt;summary_groups:e</title>
<path fill="none" stroke="#000000" d="M335.463,-237.6079C326.089,-237.4939 316.5361,-237.2808 307.1265,-237.0048"/>
<polygon fill="#000000" stroke="#000000" points="342.0002,-237.6492 349.9772,-241.2999 346.0001,-237.6746 350,-237.7 350,-237.7 350,-237.7 346.0001,-237.6746 350.0228,-234.1001 342.0002,-237.6492 342.0002,-237.6492"/>
<ellipse fill="none" stroke="#000000" cx="338.8002" cy="-237.6289" rx="3.2" ry="3.2"/>
</g>
<!-- decisions -->
<g id="node3" class="node">
<title>decisions</title>
<g id="a_node3"><a xlink:href="../../tables/decisions.html" xlink:title="decisions" target="_top">
<polygon fill="#ffffff" stroke="transparent" points="695,-406.2 695,-511.2 804,-511.2 804,-406.2 695,-406.2"/>
<polygon fill="#f5f5f5" stroke="transparent" points="695.5,-487.7 695.5,-510.7 804.5,-510.7 804.5,-487.7 695.5,-487.7"/>
<polygon fill="none" stroke="#000000" points="695.5,-487.7 695.5,-510.7 804.5,-510.7 804.5,-487.7 695.5,-487.7"/>
<text text-anchor="start" x="700.5" y="-496.3" font-family="Helvetica,sans-Serif" font-weight="bold" font-size="11.00" fill="#000000">decisions</text>
<text text-anchor="start" x="769.5437" y="-495.8" font-family="Helvetica,sans-Serif" font-size="11.00" fill="#000000">[table]</text>
<polygon fill="none" stroke="#000000" points="695.5,-465.7 695.5,-487.7 804.5,-487.7 804.5,-465.7 695.5,-465.7"/>
<image xlink:href="../../images/primaryKeys.png" width="11px" height="12px" preserveAspectRatio="xMinYMin meet" x="700.5" y="-482.7"/>
<text text-anchor="start" x="715.5" y="-472.8" font-family="Helvetica,sans-Serif" font-size="11.00" fill="#000000">id</text>
<polygon fill="#ffffff" stroke="transparent" points="695.5,-443.7 695.5,-465.7 804.5,-465.7 804.5,-443.7 695.5,-443.7"/>
<polygon fill="none" stroke="#000000" points="695.5,-443.7 695.5,-465.7 804.5,-465.7 804.5,-443.7 695.5,-443.7"/>
<image xlink:href="../../images/foreignKeys.png" width="11px" height="12px" preserveAspectRatio="xMinYMin meet" x="700.5" y="-460.7"/>
<text text-anchor="start" x="715.5" y="-450.8" font-family="Helvetica,sans-Serif" font-size="11.00" fill="#000000">summary_id</text>
<polygon fill="none" stroke="#000000" points="695.5,-424.7 695.5,-443.7 804.5,-443.7 804.5,-424.7 695.5,-424.7"/>
<text text-anchor="start" x="698.5" y="-430.8" font-family="Helvetica,sans-Serif" font-size="11.00" fill="#000000">...</text>
<polygon fill="#ffffff" stroke="transparent" points="695.5,-405.7 695.5,-424.7 804.5,-424.7 804.5,-405.7 695.5,-405.7"/>
<polygon fill="none" stroke="#000000" points="695.5,-405.7 695.5,-424.7 804.5,-424.7 804.5,-405.7 695.5,-405.7"/>
<polygon fill="#ffffff" stroke="transparent" points="696.5,-406.7 696.5,-423.7 738.5,-423.7 738.5,-406.7 696.5,-406.7"/>
<text text-anchor="start" x="698.5" y="-411.8" font-family="Helvetica,sans-Serif" font-size="11.00" fill="#000000">&lt; 1</text>
<polygon fill="#ffffff" stroke="transparent" points="738.5,-406.7 738.5,-423.7 771.5,-423.7 771.5,-406.7 738.5,-406.7"/>
<text text-anchor="start" x="751.9431" y="-411.8" font-family="Helvetica,sans-Serif" font-size="11.00" fill="#000000"> &#160;</text>
<polygon fill="#ffffff" stroke="transparent" points="771.5,-406.7 771.5,-423.7 803.5,-423.7 803.5,-406.7 771.5,-406.7"/>
<text text-anchor="start" x="795.3862" y="-411.8" font-family="Helvetica,sans-Serif" font-size="11.00" fill="#000000"> &#160;</text>
<polygon fill="#000000" stroke="#000000" points="738.5,-406.7 738.5,-423.7 738.5,-423.7 738.5,-406.7 738.5,-406.7"/>
<polygon fill="#000000" stroke="#000000" points="771.5,-406.7 771.5,-423.7 771.5,-423.7 771.5,-406.7 771.5,-406.7"/>
</a>
</g>
</g>
<!-- decisions&#45;&gt;summaries -->
<g id="edge2" class="edge">
<title>decisions:w&#45;&gt;summaries:e</title>
<path fill="none" stroke="#000000" d="M681.1831,-452.6039C647.0342,-441.6724 647.9736,-391.7 604,-391.7"/>
<polygon fill="#000000" stroke="#000000" points="687.5844,-453.541 694.9785,-458.262 691.5422,-454.1205 695.5,-454.7 695.5,-454.7 695.5,-454.7 691.5422,-454.1205 696.0215,-451.138 687.5844,-453.541 687.5844,-453.541"/>
<ellipse fill="none" stroke="#000000" cx="684.4181" cy="-453.0775" rx="3.2" ry="3.2"/>
</g>
<!-- oauth_identities -->
<g id="node4" class="node">
<title>oauth_identities</title>
<g id="a_node4"><a xlink:href="../../tables/oauth_identities.html" xlink:title="oauth_identities" target="_top">
<polygon fill="#ffffff" stroke="transparent" points="138.5,-120.2 138.5,-181.2 295.5,-181.2 295.5,-120.2 138.5,-120.2"/>
<polygon fill="#f5f5f5" stroke="transparent" points="139,-157.7 139,-180.7 296,-180.7 296,-157.7 139,-157.7"/>
<polygon fill="none" stroke="#000000" points="139,-157.7 139,-180.7 296,-180.7 296,-157.7 139,-157.7"/>
<text text-anchor="start" x="144" y="-166.3" font-family="Helvetica,sans-Serif" font-weight="bold" font-size="11.00" fill="#000000">oauth_identities</text>
<text text-anchor="start" x="261.5219" y="-165.8" font-family="Helvetica,sans-Serif" font-size="11.00" fill="#000000">[table]</text>
<polygon fill="none" stroke="#000000" points="139,-138.7 139,-157.7 296,-157.7 296,-138.7 139,-138.7"/>
<text text-anchor="start" x="142" y="-144.8" font-family="Helvetica,sans-Serif" font-size="11.00" fill="#000000">...</text>
<polygon fill="#ffffff" stroke="transparent" points="139,-119.7 139,-138.7 296,-138.7 296,-119.7 139,-119.7"/>
<polygon fill="none" stroke="#000000" points="139,-119.7 139,-138.7 296,-138.7 296,-119.7 139,-119.7"/>
<polygon fill="#ffffff" stroke="transparent" points="140,-120.7 140,-137.7 198,-137.7 198,-120.7 140,-120.7"/>
<text text-anchor="start" x="142" y="-125.8" font-family="Helvetica,sans-Serif" font-size="11.00" fill="#000000">&lt; 1</text>
<polygon fill="#ffffff" stroke="transparent" points="198,-120.7 198,-137.7 247,-137.7 247,-120.7 198,-120.7"/>
<text text-anchor="start" x="219.4431" y="-125.8" font-family="Helvetica,sans-Serif" font-size="11.00" fill="#000000"> &#160;</text>
<polygon fill="#ffffff" stroke="transparent" points="247,-120.7 247,-137.7 295,-137.7 295,-120.7 247,-120.7"/>
<text text-anchor="start" x="286.8862" y="-125.8" font-family="Helvetica,sans-Serif" font-size="11.00" fill="#000000"> &#160;</text>
<polygon fill="#000000" stroke="#000000" points="198,-120.7 198,-137.7 198,-137.7 198,-120.7 198,-120.7"/>
<polygon fill="#000000" stroke="#000000" points="247,-120.7 247,-137.7 247,-137.7 247,-120.7 247,-120.7"/>
</a>
</g>
</g>
<!-- oauth_identities&#45;&gt;users -->
<g id="edge3" class="edge">
<title>oauth_identities:w&#45;&gt;users:e</title>
<path fill="none" stroke="#000000" d="M124.3099,-149.0847C113.9562,-150.9669 103.7758,-154.6022 94.3744,-158.9552"/>
<polygon fill="#000000" stroke="#000000" points="131.0353,-148.4508 139.3379,-151.2841 135.0177,-148.0754 139,-147.7 139,-147.7 139,-147.7 135.0177,-148.0754 138.6621,-144.1159 131.0353,-148.4508 131.0353,-148.4508"/>
<ellipse fill="none" stroke="#000000" cx="127.8494" cy="-148.7511" rx="3.2" ry="3.2"/>
</g>
<!-- summary_groups&#45;&gt;users -->
<g id="edge6" class="edge">
<title>summary_groups:w&#45;&gt;users:e</title>
<path fill="none" stroke="#000000" d="M112.3444,-206.2283C106.1547,-204.6627 100.1122,-203.1343 94.358,-201.6788"/>
<polygon fill="#000000" stroke="#000000" points="118.7691,-207.8533 125.6421,-213.3052 122.647,-208.8342 126.5249,-209.8151 126.5249,-209.8151 126.5249,-209.8151 122.647,-208.8342 127.4077,-206.325 118.7691,-207.8533 118.7691,-207.8533"/>
<ellipse fill="none" stroke="#000000" cx="115.6668" cy="-207.0686" rx="3.2" ry="3.2"/>
</g>
<!-- topics -->
<g id="node7" class="node">
<title>topics</title>
<g id="a_node7"><a xlink:href="../../tables/topics.html" xlink:title="topics" target="_top">
<polygon fill="#ffffff" stroke="transparent" points="695,-280.2 695,-385.2 804,-385.2 804,-280.2 695,-280.2"/>
<polygon fill="#f5f5f5" stroke="transparent" points="695.5,-361.7 695.5,-384.7 804.5,-384.7 804.5,-361.7 695.5,-361.7"/>
<polygon fill="none" stroke="#000000" points="695.5,-361.7 695.5,-384.7 804.5,-384.7 804.5,-361.7 695.5,-361.7"/>
<text text-anchor="start" x="700.5" y="-370.3" font-family="Helvetica,sans-Serif" font-weight="bold" font-size="11.00" fill="#000000">topics</text>
<text text-anchor="start" x="769.5437" y="-369.8" font-family="Helvetica,sans-Serif" font-size="11.00" fill="#000000">[table]</text>
<polygon fill="none" stroke="#000000" points="695.5,-339.7 695.5,-361.7 804.5,-361.7 804.5,-339.7 695.5,-339.7"/>
<image xlink:href="../../images/primaryKeys.png" width="11px" height="12px" preserveAspectRatio="xMinYMin meet" x="700.5" y="-356.7"/>
<text text-anchor="start" x="715.5" y="-346.8" font-family="Helvetica,sans-Serif" font-size="11.00" fill="#000000">id</text>
<polygon fill="#ffffff" stroke="transparent" points="695.5,-317.7 695.5,-339.7 804.5,-339.7 804.5,-317.7 695.5,-317.7"/>
<polygon fill="none" stroke="#000000" points="695.5,-317.7 695.5,-339.7 804.5,-339.7 804.5,-317.7 695.5,-317.7"/>
<image xlink:href="../../images/foreignKeys.png" width="11px" height="12px" preserveAspectRatio="xMinYMin meet" x="700.5" y="-334.7"/>
<text text-anchor="start" x="715.5" y="-324.8" font-family="Helvetica,sans-Serif" font-size="11.00" fill="#000000">summary_id</text>
<polygon fill="none" stroke="#000000" points="695.5,-298.7 695.5,-317.7 804.5,-317.7 804.5,-298.7 695.5,-298.7"/>
<text text-anchor="start" x="698.5" y="-304.8" font-family="Helvetica,sans-Serif" font-size="11.00" fill="#000000">...</text>
<polygon fill="#ffffff" stroke="transparent" points="695.5,-279.7 695.5,-298.7 804.5,-298.7 804.5,-279.7 695.5,-279.7"/>
<polygon fill="none" stroke="#000000" points="695.5,-279.7 695.5,-298.7 804.5,-298.7 804.5,-279.7 695.5,-279.7"/>
<polygon fill="#ffffff" stroke="transparent" points="696.5,-280.7 696.5,-297.7 738.5,-297.7 738.5,-280.7 696.5,-280.7"/>
<text text-anchor="start" x="698.5" y="-285.8" font-family="Helvetica,sans-Serif" font-size="11.00" fill="#000000">&lt; 1</text>
<polygon fill="#ffffff" stroke="transparent" points="738.5,-280.7 738.5,-297.7 771.5,-297.7 771.5,-280.7 738.5,-280.7"/>
<text text-anchor="start" x="751.9431" y="-285.8" font-family="Helvetica,sans-Serif" font-size="11.00" fill="#000000"> &#160;</text>
<polygon fill="#ffffff" stroke="transparent" points="771.5,-280.7 771.5,-297.7 803.5,-297.7 803.5,-280.7 771.5,-280.7"/>
<text text-anchor="start" x="795.3862" y="-285.8" font-family="Helvetica,sans-Serif" font-size="11.00" fill="#000000"> &#160;</text>
<polygon fill="#000000" stroke="#000000" points="738.5,-280.7 738.5,-297.7 738.5,-297.7 738.5,-280.7 738.5,-280.7"/>
<polygon fill="#000000" stroke="#000000" points="771.5,-280.7 771.5,-297.7 771.5,-297.7 771.5,-280.7 771.5,-280.7"/>
</a>
</g>
</g>
<!-- topics&#45;&gt;summaries -->
<g id="edge7" class="edge">
<title>topics:w&#45;&gt;summaries:e</title>
<path fill="none" stroke="#000000" d="M681.1831,-330.7961C647.0342,-341.7276 647.9736,-391.7 604,-391.7"/>
<polygon fill="#000000" stroke="#000000" points="687.5844,-329.859 696.0215,-332.262 691.5422,-329.2795 695.5,-328.7 695.5,-328.7 695.5,-328.7 691.5422,-329.2795 694.9785,-325.138 687.5844,-329.859 687.5844,-329.859"/>
<ellipse fill="none" stroke="#000000" cx="684.4181" cy="-330.3225" rx="3.2" ry="3.2"/>
</g>
<!-- transcript_segments -->
<g id="node8" class="node">
<title>transcript_segments</title>
<g id="a_node8"><a xlink:href="../../tables/transcript_segments.html" xlink:title="transcript_segments" target="_top">
<polygon fill="#ffffff" stroke="transparent" points="655,-154.2 655,-259.2 844,-259.2 844,-154.2 655,-154.2"/>
<polygon fill="#f5f5f5" stroke="transparent" points="655.5,-235.7 655.5,-258.7 844.5,-258.7 844.5,-235.7 655.5,-235.7"/>
<polygon fill="none" stroke="#000000" points="655.5,-235.7 655.5,-258.7 844.5,-258.7 844.5,-235.7 655.5,-235.7"/>
<text text-anchor="start" x="660.5" y="-244.3" font-family="Helvetica,sans-Serif" font-weight="bold" font-size="11.00" fill="#000000">transcript_segments</text>
<text text-anchor="start" x="810.0219" y="-243.8" font-family="Helvetica,sans-Serif" font-size="11.00" fill="#000000">[table]</text>
<polygon fill="none" stroke="#000000" points="655.5,-213.7 655.5,-235.7 844.5,-235.7 844.5,-213.7 655.5,-213.7"/>
<image xlink:href="../../images/primaryKeys.png" width="11px" height="12px" preserveAspectRatio="xMinYMin meet" x="660.5" y="-230.7"/>
<text text-anchor="start" x="684.5" y="-220.8" font-family="Helvetica,sans-Serif" font-size="11.00" fill="#000000">id</text>
<polygon fill="#ffffff" stroke="transparent" points="655.5,-191.7 655.5,-213.7 844.5,-213.7 844.5,-191.7 655.5,-191.7"/>
<polygon fill="none" stroke="#000000" points="655.5,-191.7 655.5,-213.7 844.5,-213.7 844.5,-191.7 655.5,-191.7"/>
<image xlink:href="../../images/foreignKeys.png" width="11px" height="12px" preserveAspectRatio="xMinYMin meet" x="660.5" y="-208.7"/>
<text text-anchor="start" x="684.5" y="-198.8" font-family="Helvetica,sans-Serif" font-size="11.00" fill="#000000">summary_id</text>
<polygon fill="none" stroke="#000000" points="655.5,-172.7 655.5,-191.7 844.5,-191.7 844.5,-172.7 655.5,-172.7"/>
<text text-anchor="start" x="658.5" y="-178.8" font-family="Helvetica,sans-Serif" font-size="11.00" fill="#000000">...</text>
<polygon fill="#ffffff" stroke="transparent" points="655.5,-153.7 655.5,-172.7 844.5,-172.7 844.5,-153.7 655.5,-153.7"/>
<polygon fill="none" stroke="#000000" points="655.5,-153.7 655.5,-172.7 844.5,-172.7 844.5,-153.7 655.5,-153.7"/>
<polygon fill="#ffffff" stroke="transparent" points="656.5,-154.7 656.5,-171.7 725.5,-171.7 725.5,-154.7 656.5,-154.7"/>
<text text-anchor="start" x="658.5" y="-159.8" font-family="Helvetica,sans-Serif" font-size="11.00" fill="#000000">&lt; 1</text>
<polygon fill="#ffffff" stroke="transparent" points="725.5,-154.7 725.5,-171.7 784.5,-171.7 784.5,-154.7 725.5,-154.7"/>
<text text-anchor="start" x="751.9431" y="-159.8" font-family="Helvetica,sans-Serif" font-size="11.00" fill="#000000"> &#160;</text>
<polygon fill="#ffffff" stroke="transparent" points="784.5,-154.7 784.5,-171.7 843.5,-171.7 843.5,-154.7 784.5,-154.7"/>
<text text-anchor="start" x="835.3862" y="-159.8" font-family="Helvetica,sans-Serif" font-size="11.00" fill="#000000"> &#160;</text>
<polygon fill="#000000" stroke="#000000" points="725.5,-154.7 725.5,-171.7 725.5,-171.7 725.5,-154.7 725.5,-154.7"/>
<polygon fill="#000000" stroke="#000000" points="784.5,-154.7 784.5,-171.7 784.5,-171.7 784.5,-154.7 784.5,-154.7"/>
</a>
</g>
</g>
<!-- transcript_segments&#45;&gt;summaries -->
<g id="edge8" class="edge">
<title>transcript_segments:w&#45;&gt;summaries:e</title>
<path fill="none" stroke="#000000" d="M641.1666,-204.9542C583.3734,-226.2781 685.4512,-391.7 604,-391.7"/>
<polygon fill="#000000" stroke="#000000" points="647.5971,-203.9429 656.0593,-206.2563 651.5486,-203.3215 655.5,-202.7 655.5,-202.7 655.5,-202.7 651.5486,-203.3215 654.9407,-199.1437 647.5971,-203.9429 647.5971,-203.9429"/>
<ellipse fill="none" stroke="#000000" cx="644.436" cy="-204.4401" rx="3.2" ry="3.2"/>
</g>
<!-- user_sessions -->
<g id="node9" class="node">
<title>user_sessions</title>
<g id="a_node9"><a xlink:href="../../tables/user_sessions.html" xlink:title="user_sessions" target="_top">
<polygon fill="#ffffff" stroke="transparent" points="147,-38.2 147,-99.2 287,-99.2 287,-38.2 147,-38.2"/>
<polygon fill="#f5f5f5" stroke="transparent" points="147,-75.7 147,-98.7 287,-98.7 287,-75.7 147,-75.7"/>
<polygon fill="none" stroke="#000000" points="147,-75.7 147,-98.7 287,-98.7 287,-75.7 147,-75.7"/>
<text text-anchor="start" x="152" y="-84.3" font-family="Helvetica,sans-Serif" font-weight="bold" font-size="11.00" fill="#000000">user_sessions</text>
<text text-anchor="start" x="252.5219" y="-83.8" font-family="Helvetica,sans-Serif" font-size="11.00" fill="#000000">[table]</text>
<polygon fill="none" stroke="#000000" points="147,-56.7 147,-75.7 287,-75.7 287,-56.7 147,-56.7"/>
<text text-anchor="start" x="150" y="-62.8" font-family="Helvetica,sans-Serif" font-size="11.00" fill="#000000">...</text>
<polygon fill="#ffffff" stroke="transparent" points="147,-37.7 147,-56.7 287,-56.7 287,-37.7 147,-37.7"/>
<polygon fill="none" stroke="#000000" points="147,-37.7 147,-56.7 287,-56.7 287,-37.7 147,-37.7"/>
<polygon fill="#ffffff" stroke="transparent" points="148,-38.7 148,-55.7 200,-55.7 200,-38.7 148,-38.7"/>
<text text-anchor="start" x="150" y="-43.8" font-family="Helvetica,sans-Serif" font-size="11.00" fill="#000000">&lt; 1</text>
<polygon fill="#ffffff" stroke="transparent" points="200,-38.7 200,-55.7 243,-55.7 243,-38.7 200,-38.7"/>
<text text-anchor="start" x="218.4431" y="-43.8" font-family="Helvetica,sans-Serif" font-size="11.00" fill="#000000"> &#160;</text>
<polygon fill="#ffffff" stroke="transparent" points="243,-38.7 243,-55.7 286,-55.7 286,-38.7 243,-38.7"/>
<text text-anchor="start" x="277.8862" y="-43.8" font-family="Helvetica,sans-Serif" font-size="11.00" fill="#000000"> &#160;</text>
<polygon fill="#000000" stroke="#000000" points="200,-38.7 200,-55.7 200,-55.7 200,-38.7 200,-38.7"/>
<polygon fill="#000000" stroke="#000000" points="243,-38.7 243,-55.7 243,-55.7 243,-38.7 243,-38.7"/>
</a>
</g>
</g>
<!-- user_sessions&#45;&gt;users -->
<g id="edge9" class="edge">
<title>user_sessions:w&#45;&gt;users:e</title>
<path fill="none" stroke="#000000" d="M132.4762,-67.5037C94.7544,-77.0508 70.7758,-122.4815 58.109,-155.1591"/>
<polygon fill="#000000" stroke="#000000" points="139.061,-66.686 147.4437,-69.2726 143.0305,-66.193 147,-65.7 147,-65.7 147,-65.7 143.0305,-66.193 146.5563,-62.1274 139.061,-66.686 139.061,-66.686"/>
<ellipse fill="none" stroke="#000000" cx="135.8854" cy="-67.0804" rx="3.2" ry="3.2"/>
</g>
</g>
</svg>
