<?xml version="1.0" encoding="UTF-8" standalone="no"?>
<!DOCTYPE svg PUBLIC "-//W3C//DTD SVG 1.1//EN"
 "http://www.w3.org/Graphics/SVG/1.1/DTD/svg11.dtd">
<!-- Generated by graphviz version 2.40.1 (20161225.0304)
 -->
<!-- Title: oneDegreeRelationshipsDiagram Pages: 1 -->
<svg width="614pt" height="407pt"
 viewBox="0.00 0.00 614.00 407.20" xmlns="http://www.w3.org/2000/svg" xmlns:xlink="http://www.w3.org/1999/xlink">
<g id="graph0" class="graph" transform="scale(1 1) rotate(0) translate(4 403.2)">
<title>oneDegreeRelationshipsDiagram</title>
<polygon fill="#ffffff" stroke="transparent" points="-4,4 -4,-403.2 610,-403.2 610,4 -4,4"/>
<text text-anchor="middle" x="72.4936" y="-7.3" font-family="Helvetica,sans-Serif" font-size="11.00" fill="#000000">Generated by SchemaSpy</text>
<!-- action_items -->
<g id="node1" class="node">
<title>action_items</title>
<g id="a_node1"><a xlink:href="../../tables/action_items.html" xlink:title="action_items" target="_top">
<polygon fill="#ffffff" stroke="transparent" points="467,-290.2 467,-395.2 598,-395.2 598,-290.2 467,-290.2"/>
<polygon fill="#f5f5f5" stroke="transparent" points="467.5,-371.7 467.5,-394.7 598.5,-394.7 598.5,-371.7 467.5,-371.7"/>
<polygon fill="none" stroke="#000000" points="467.5,-371.7 467.5,-394.7 598.5,-394.7 598.5,-371.7 467.5,-371.7"/>
<text text-anchor="start" x="472.5" y="-380.3" font-family="Helvetica,sans-Serif" font-weight="bold" font-size="11.00" fill="#000000">action_items</text>
<text text-anchor="start" x="564.0219" y="-379.8" font-family="Helvetica,sans-Serif" font-size="11.00" fill="#000000">[table]</text>
<polygon fill="none" stroke="#000000" points="467.5,-349.7 467.5,-371.7 598.5,-371.7 598.5,-349.7 467.5,-349.7"/>
<image xlink:href="../../images/primaryKeys.png" width="11px" height="12px" preserveAspectRatio="xMinYMin meet" x="472.5" y="-366.7"/>
<text text-anchor="start" x="496.5" y="-356.8" font-family="Helvetica,sans-Serif" font-size="11.00" fill="#000000">id</text>
<polygon fill="#ffffff" stroke="transparent" points="467.5,-327.7 467.5,-349.7 598.5,-349.7 598.5,-327.7 467.5,-327.7"/>
<polygon fill="none" stroke="#000000" points="467.5,-327.7 467.5,-349.7 598.5,-349.7 598.5,-327.7 467.5,-327.7"/>
<image xlink:href="../../images/foreignKeys.png" width="11px" height="12px" preserveAspectRatio="xMinYMin meet" x="472.5" y="-344.7"/>
<text text-anchor="start" x="496.5" y="-334.8" font-family="Helvetica,sans-Serif" font-size="11.00" fill="#000000">summary_id</text>
<polygon fill="none" stroke="#000000" points="467.5,-308.7 467.5,-327.7 598.5,-327.7 598.5,-308.7 467.5,-308.7"/>
<text text-anchor="start" x="470.5" y="-314.8" font-family="Helvetica,sans-Serif" font-size="11.00" fill="#000000">...</text>
<polygon fill="#ffffff" stroke="transparent" points="467.5,-289.7 467.5,-308.7 598.5,-308.7 598.5,-289.7 467.5,-289.7"/>
<polygon fill="none" stroke="#000000" points="467.5,-289.7 467.5,-308.7 598.5,-308.7 598.5,-289.7 467.5,-289.7"/>
<polygon fill="#ffffff" stroke="transparent" points="468.5,-290.7 468.5,-307.7 517.5,-307.7 517.5,-290.7 468.5,-290.7"/>
<text text-anchor="start" x="470.5" y="-295.8" font-family="Helvetica,sans-Serif" font-size="11.00" fill="#000000">&lt; 1</text>
<polygon fill="#ffffff" stroke="transparent" points="517.5,-290.7 517.5,-307.7 557.5,-307.7 557.5,-290.7 517.5,-290.7"/>
<text text-anchor="start" x="534.4431" y="-295.8" font-family="Helvetica,sans-Serif" font-size="11.00" fill="#000000"> &#160;</text>
<polygon fill="#ffffff" stroke="transparent" points="557.5,-290.7 557.5,-307.7 597.5,-307.7 597.5,-290.7 557.5,-290.7"/>
<text text-anchor="start" x="589.3862" y="-295.8" font-family="Helvetica,sans-Serif" font-size="11.00" fill="#000000"> &#160;</text>
<polygon fill="#000000" stroke="#000000" points="517.5,-290.7 517.5,-307.7 517.5,-307.7 517.5,-290.7 517.5,-290.7"/>
<polygon fill="#000000" stroke="#000000" points="557.5,-290.7 557.5,-307.7 557.5,-307.7 557.5,-290.7 557.5,-290.7"/>
</a>
</g>
</g>
<!-- summaries -->
<g id="node2" class="node">
<title>summaries</title>
<g id="a_node2"><a xlink:href="../../tables/summaries.html" xlink:title="summaries" target="_top">
<polygon fill="#ffffff" stroke="transparent" points="160,-70.7 160,-248.7 418,-248.7 418,-70.7 160,-70.7"/>
<polygon fill="#f5f5f5" stroke="transparent" points="162,-223.7 162,-246.7 416,-246.7 416,-223.7 162,-223.7"/>
<polygon fill="none" stroke="#000000" points="162,-223.7 162,-246.7 416,-246.7 416,-223.7 162,-223.7"/>
<text text-anchor="start" x="167" y="-232.3" font-family="Helvetica,sans-Serif" font-weight="bold" font-size="11.00" fill="#000000">summaries</text>
<text text-anchor="start" x="381.0437" y="-231.8" font-family="Helvetica,sans-Serif" font-size="11.00" fill="#000000">[table]</text>
<polygon fill="none" stroke="#000000" points="162,-201.7 162,-223.7 307,-223.7 307,-201.7 162,-201.7"/>
<image xlink:href="../../images/primaryKeys.png" width="11px" height="12px" preserveAspectRatio="xMinYMin meet" x="167" y="-218.7"/>
<text text-anchor="start" x="182" y="-208.8" font-family="Helvetica,sans-Serif" font-size="11.00" fill="#000000">id</text>
<polygon fill="none" stroke="#000000" points="307,-201.7 307,-223.7 416,-223.7 416,-201.7 307,-201.7"/>
<text text-anchor="start" x="310" y="-209.4" font-family="Helvetica,sans-Serif" font-size="11.00" fill="#000000">uuid[2147483647]</text>
<polygon fill="none" stroke="#000000" points="162,-179.7 162,-201.7 307,-201.7 307,-179.7 162,-179.7"/>
<text text-anchor="start" x="182" y="-186.8" font-family="Helvetica,sans-Serif" font-size="11.00" fill="#000000">filename</text>
<polygon fill="none" stroke="#000000" points="307,-179.7 307,-201.7 416,-201.7 416,-179.7 307,-179.7"/>
<text text-anchor="start" x="310" y="-187.4" font-family="Helvetica,sans-Serif" font-size="11.00" fill="#000000">varchar[255]</text>
<polygon fill="none" stroke="#000000" points="162,-157.7 162,-179.7 307,-179.7 307,-157.7 162,-157.7"/>
<text text-anchor="start" x="182" y="-164.8" font-family="Helvetica,sans-Serif" font-size="11.00" fill="#000000">created_at</text>
<polygon fill="none" stroke="#000000" points="307,-157.7 307,-179.7 416,-179.7 416,-157.7 307,-157.7"/>
<text text-anchor="start" x="310" y="-165.4" font-family="Helvetica,sans-Serif" font-size="11.00" fill="#000000">timestamptz[35,6]</text>
<polygon fill="none" stroke="#000000" points="162,-135.7 162,-157.7 307,-157.7 307,-135.7 162,-135.7"/>
<text text-anchor="start" x="182" y="-142.8" font-family="Helvetica,sans-Serif" font-size="11.00" fill="#000000">overall_summary</text>
<polygon fill="none" stroke="#000000" points="307,-135.7 307,-157.7 416,-157.7 416,-135.7 307,-135.7"/>
<text text-anchor="start" x="309.5344" y="-143.4" font-family="Helvetica,sans-Serif" font-size="11.00" fill="#000000">varchar[2147483647]</text>
<polygon fill="#ffffff" stroke="transparent" points="162,-113.7 162,-135.7 307,-135.7 307,-113.7 162,-113.7"/>
<polygon fill="none" stroke="#000000" points="162,-113.7 162,-135.7 307,-135.7 307,-113.7 162,-113.7"/>
<text text-anchor="start" x="182" y="-120.8" font-family="Helvetica,sans-Serif" font-size="11.00" fill="#000000">content_hash</text>
<polygon fill="none" stroke="#000000" points="307,-113.7 307,-135.7 416,-135.7 416,-113.7 307,-113.7"/>
<text text-anchor="start" x="310" y="-121.4" font-family="Helvetica,sans-Serif" font-size="11.00" fill="#000000">varchar[64]</text>
<polygon fill="#ffffff" stroke="transparent" points="162,-91.7 162,-113.7 307,-113.7 307,-91.7 162,-91.7"/>
<polygon fill="none" stroke="#000000" points="162,-91.7 162,-113.7 307,-113.7 307,-91.7 162,-91.7"/>
<image xlink:href="../../images/foreignKeys.png" width="11px" height="12px" preserveAspectRatio="xMinYMin meet" x="167" y="-108.7"/>
<text text-anchor="start" x="182" y="-98.8" font-family="Helvetica,sans-Serif" font-size="11.00" fill="#000000">user_id</text>
<polygon fill="none" stroke="#000000" points="307,-91.7 307,-113.7 416,-113.7 416,-91.7 307,-91.7"/>
<text text-anchor="start" x="310" y="-99.4" font-family="Helvetica,sans-Serif" font-size="11.00" fill="#000000">uuid[2147483647]</text>
<polygon fill="#ffffff" stroke="transparent" points="162,-72.7 162,-91.7 416,-91.7 416,-72.7 162,-72.7"/>
<polygon fill="none" stroke="#000000" points="162,-72.7 162,-91.7 416,-91.7 416,-72.7 162,-72.7"/>
<polygon fill="#ffffff" stroke="transparent" points="163,-73.7 163,-90.7 250,-90.7 250,-73.7 163,-73.7"/>
<text text-anchor="start" x="165" y="-78.8" font-family="Helvetica,sans-Serif" font-size="11.00" fill="#000000">&lt; 1</text>
<polygon fill="#ffffff" stroke="transparent" points="250,-73.7 250,-90.7 328,-90.7 328,-73.7 250,-73.7"/>
<text text-anchor="start" x="285.9431" y="-78.8" font-family="Helvetica,sans-Serif" font-size="11.00" fill="#000000"> &#160;</text>
<polygon fill="#ffffff" stroke="transparent" points="328,-73.7 328,-90.7 415,-90.7 415,-73.7 328,-73.7"/>
<text text-anchor="start" x="397.4053" y="-78.8" font-family="Helvetica,sans-Serif" font-size="11.00" fill="#000000">3 &gt;</text>
<polygon fill="#000000" stroke="#000000" points="250,-73.7 250,-90.7 250,-90.7 250,-73.7 250,-73.7"/>
<polygon fill="#000000" stroke="#000000" points="328,-73.7 328,-90.7 328,-90.7 328,-73.7 328,-73.7"/>
<polygon fill="none" stroke="#000000" stroke-width="2" points="161,-71.7 161,-247.7 417,-247.7 417,-71.7 161,-71.7"/>
</a>
</g>
</g>
<!-- action_items&#45;&gt;summaries -->
<g id="edge1" class="edge">
<title>action_items:w&#45;&gt;summaries:e</title>
<path fill="none" stroke="#000000" d="M453.2532,-335.3298C419.3363,-315.2923 470.5892,-212.7 416,-212.7"/>
<polygon fill="#000000" stroke="#000000" points="459.7149,-336.8583 466.6712,-342.2033 463.6074,-337.7792 467.5,-338.7 467.5,-338.7 467.5,-338.7 463.6074,-337.7792 468.3288,-335.1967 459.7149,-336.8583 459.7149,-336.8583"/>
<ellipse fill="none" stroke="#000000" cx="456.6008" cy="-336.1217" rx="3.2" ry="3.2"/>
</g>
<!-- users -->
<g id="node4" class="node">
<title>users</title>
<g id="a_node4"><a xlink:href="../../tables/users.html" xlink:title="users" target="_top">
<polygon fill="#ffffff" stroke="transparent" points="8,-54.2 8,-137.2 111,-137.2 111,-54.2 8,-54.2"/>
<polygon fill="#f5f5f5" stroke="transparent" points="8.5,-113.7 8.5,-136.7 111.5,-136.7 111.5,-113.7 8.5,-113.7"/>
<polygon fill="none" stroke="#000000" points="8.5,-113.7 8.5,-136.7 111.5,-136.7 111.5,-113.7 8.5,-113.7"/>
<text text-anchor="start" x="13.5" y="-122.3" font-family="Helvetica,sans-Serif" font-weight="bold" font-size="11.00" fill="#000000">users</text>
<text text-anchor="start" x="76.5437" y="-121.8" font-family="Helvetica,sans-Serif" font-size="11.00" fill="#000000">[table]</text>
<polygon fill="none" stroke="#000000" points="8.5,-91.7 8.5,-113.7 111.5,-113.7 111.5,-91.7 8.5,-91.7"/>
<image xlink:href="../../images/primaryKeys.png" width="11px" height="12px" preserveAspectRatio="xMinYMin meet" x="13.5" y="-108.7"/>
<text text-anchor="start" x="28.5" y="-98.8" font-family="Helvetica,sans-Serif" font-size="11.00" fill="#000000">id</text>
<polygon fill="none" stroke="#000000" points="8.5,-72.7 8.5,-91.7 111.5,-91.7 111.5,-72.7 8.5,-72.7"/>
<text text-anchor="start" x="11.5" y="-78.8" font-family="Helvetica,sans-Serif" font-size="11.00" fill="#000000">...</text>
<polygon fill="#ffffff" stroke="transparent" points="8.5,-53.7 8.5,-72.7 111.5,-72.7 111.5,-53.7 8.5,-53.7"/>
<polygon fill="none" stroke="#000000" points="8.5,-53.7 8.5,-72.7 111.5,-72.7 111.5,-53.7 8.5,-53.7"/>
<polygon fill="#ffffff" stroke="transparent" points="9.5,-54.7 9.5,-71.7 40.5,-71.7 40.5,-54.7 9.5,-54.7"/>
<text text-anchor="start" x="11.5" y="-59.8" font-family="Helvetica,sans-Serif" font-size="11.00" fill="#000000"> &#160;</text>
<polygon fill="#ffffff" stroke="transparent" points="40.5,-54.7 40.5,-71.7 71.5,-71.7 71.5,-54.7 40.5,-54.7"/>
<text text-anchor="start" x="52.9431" y="-59.8" font-family="Helvetica,sans-Serif" font-size="11.00" fill="#000000"> &#160;</text>
<polygon fill="#ffffff" stroke="transparent" points="71.5,-54.7 71.5,-71.7 110.5,-71.7 110.5,-54.7 71.5,-54.7"/>
<text text-anchor="start" x="92.9053" y="-59.8" font-family="Helvetica,sans-Serif" font-size="11.00" fill="#000000">3 &gt;</text>
<polygon fill="#000000" stroke="#000000" points="40.5,-54.7 40.5,-71.7 40.5,-71.7 40.5,-54.7 40.5,-54.7"/>
<polygon fill="#000000" stroke="#000000" points="71.5,-54.7 71.5,-71.7 71.5,-71.7 71.5,-54.7 71.5,-54.7"/>
</a>
</g>
</g>
<!-- summaries&#45;&gt;users -->
<g id="edge3" class="edge">
<title>summaries:w&#45;&gt;users:e</title>
<path fill="none" stroke="#000000" d="M147.4203,-102.7C135.5435,-102.7 128.158,-102.7 111.5,-102.7"/>
<polygon fill="#000000" stroke="#000000" points="154,-102.7001 162,-106.3 158,-102.7 162,-102.7 162,-102.7 162,-102.7 158,-102.7 162,-99.1 154,-102.7001 154,-102.7001"/>
<ellipse fill="none" stroke="#000000" cx="150.8" cy="-102.7001" rx="3.2" ry="3.2"/>
</g>
<!-- decisions -->
<g id="node3" class="node">
<title>decisions</title>
<g id="a_node3"><a xlink:href="../../tables/decisions.html" xlink:title="decisions" target="_top">
<polygon fill="#ffffff" stroke="transparent" points="478,-164.2 478,-269.2 587,-269.2 587,-164.2 478,-164.2"/>
<polygon fill="#f5f5f5" stroke="transparent" points="478.5,-245.7 478.5,-268.7 587.5,-268.7 587.5,-245.7 478.5,-245.7"/>
<polygon fill="none" stroke="#000000" points="478.5,-245.7 478.5,-268.7 587.5,-268.7 587.5,-245.7 478.5,-245.7"/>
<text text-anchor="start" x="483.5" y="-254.3" font-family="Helvetica,sans-Serif" font-weight="bold" font-size="11.00" fill="#000000">decisions</text>
<text text-anchor="start" x="552.5437" y="-253.8" font-family="Helvetica,sans-Serif" font-size="11.00" fill="#000000">[table]</text>
<polygon fill="none" stroke="#000000" points="478.5,-223.7 478.5,-245.7 587.5,-245.7 587.5,-223.7 478.5,-223.7"/>
<image xlink:href="../../images/primaryKeys.png" width="11px" height="12px" preserveAspectRatio="xMinYMin meet" x="483.5" y="-240.7"/>
<text text-anchor="start" x="498.5" y="-230.8" font-family="Helvetica,sans-Serif" font-size="11.00" fill="#000000">id</text>
<polygon fill="#ffffff" stroke="transparent" points="478.5,-201.7 478.5,-223.7 587.5,-223.7 587.5,-201.7 478.5,-201.7"/>
<polygon fill="none" stroke="#000000" points="478.5,-201.7 478.5,-223.7 587.5,-223.7 587.5,-201.7 478.5,-201.7"/>
<image xlink:href="../../images/foreignKeys.png" width="11px" height="12px" preserveAspectRatio="xMinYMin meet" x="483.5" y="-218.7"/>
<text text-anchor="start" x="498.5" y="-208.8" font-family="Helvetica,sans-Serif" font-size="11.00" fill="#000000">summary_id</text>
<polygon fill="none" stroke="#000000" points="478.5,-182.7 478.5,-201.7 587.5,-201.7 587.5,-182.7 478.5,-182.7"/>
<text text-anchor="start" x="481.5" y="-188.8" font-family="Helvetica,sans-Serif" font-size="11.00" fill="#000000">...</text>
<polygon fill="#ffffff" stroke="transparent" points="478.5,-163.7 478.5,-182.7 587.5,-182.7 587.5,-163.7 478.5,-163.7"/>
<polygon fill="none" stroke="#000000" points="478.5,-163.7 478.5,-182.7 587.5,-182.7 587.5,-163.7 478.5,-163.7"/>
<polygon fill="#ffffff" stroke="transparent" points="479.5,-164.7 479.5,-181.7 521.5,-181.7 521.5,-164.7 479.5,-164.7"/>
<text text-anchor="start" x="481.5" y="-169.8" font-family="Helvetica,sans-Serif" font-size="11.00" fill="#000000">&lt; 1</text>
<polygon fill="#ffffff" stroke="transparent" points="521.5,-164.7 521.5,-181.7 554.5,-181.7 554.5,-164.7 521.5,-164.7"/>
<text text-anchor="start" x="534.9431" y="-169.8" font-family="Helvetica,sans-Serif" font-size="11.00" fill="#000000"> &#160;</text>
<polygon fill="#ffffff" stroke="transparent" points="554.5,-164.7 554.5,-181.7 586.5,-181.7 586.5,-164.7 554.5,-164.7"/>
<text text-anchor="start" x="578.3862" y="-169.8" font-family="Helvetica,sans-Serif" font-size="11.00" fill="#000000"> &#160;</text>
<polygon fill="#000000" stroke="#000000" points="521.5,-164.7 521.5,-181.7 521.5,-181.7 521.5,-164.7 521.5,-164.7"/>
<polygon fill="#000000" stroke="#000000" points="554.5,-164.7 554.5,-181.7 554.5,-181.7 554.5,-164.7 554.5,-164.7"/>
</a>
</g>
</g>
<!-- decisions&#45;&gt;summaries -->
<g id="edge2" class="edge">
<title>decisions:w&#45;&gt;summaries:e</title>
<path fill="none" stroke="#000000" d="M463.8024,-212.7C447.0415,-212.7 438.1354,-212.7 416,-212.7"/>
<polygon fill="#000000" stroke="#000000" points="470.5,-212.7001 478.5,-216.3 474.5,-212.7 478.5,-212.7 478.5,-212.7 478.5,-212.7 474.5,-212.7 478.5,-209.1 470.5,-212.7001 470.5,-212.7001"/>
<ellipse fill="none" stroke="#000000" cx="467.3" cy="-212.7001" rx="3.2" ry="3.2"/>
</g>
<!-- topics -->
<g id="node5" class="node">
<title>topics</title>
<g id="a_node5"><a xlink:href="../../tables/topics.html" xlink:title="topics" target="_top">
<polygon fill="#ffffff" stroke="transparent" points="478,-38.2 478,-143.2 587,-143.2 587,-38.2 478,-38.2"/>
<polygon fill="#f5f5f5" stroke="transparent" points="478.5,-119.7 478.5,-142.7 587.5,-142.7 587.5,-119.7 478.5,-119.7"/>
<polygon fill="none" stroke="#000000" points="478.5,-119.7 478.5,-142.7 587.5,-142.7 587.5,-119.7 478.5,-119.7"/>
<text text-anchor="start" x="483.5" y="-128.3" font-family="Helvetica,sans-Serif" font-weight="bold" font-size="11.00" fill="#000000">topics</text>
<text text-anchor="start" x="552.5437" y="-127.8" font-family="Helvetica,sans-Serif" font-size="11.00" fill="#000000">[table]</text>
<polygon fill="none" stroke="#000000" points="478.5,-97.7 478.5,-119.7 587.5,-119.7 587.5,-97.7 478.5,-97.7"/>
<image xlink:href="../../images/primaryKeys.png" width="11px" height="12px" preserveAspectRatio="xMinYMin meet" x="483.5" y="-114.7"/>
<text text-anchor="start" x="498.5" y="-104.8" font-family="Helvetica,sans-Serif" font-size="11.00" fill="#000000">id</text>
<polygon fill="#ffffff" stroke="transparent" points="478.5,-75.7 478.5,-97.7 587.5,-97.7 587.5,-75.7 478.5,-75.7"/>
<polygon fill="none" stroke="#000000" points="478.5,-75.7 478.5,-97.7 587.5,-97.7 587.5,-75.7 478.5,-75.7"/>
<image xlink:href="../../images/foreignKeys.png" width="11px" height="12px" preserveAspectRatio="xMinYMin meet" x="483.5" y="-92.7"/>
<text text-anchor="start" x="498.5" y="-82.8" font-family="Helvetica,sans-Serif" font-size="11.00" fill="#000000">summary_id</text>
<polygon fill="none" stroke="#000000" points="478.5,-56.7 478.5,-75.7 587.5,-75.7 587.5,-56.7 478.5,-56.7"/>
<text text-anchor="start" x="481.5" y="-62.8" font-family="Helvetica,sans-Serif" font-size="11.00" fill="#000000">...</text>
<polygon fill="#ffffff" stroke="transparent" points="478.5,-37.7 478.5,-56.7 587.5,-56.7 587.5,-37.7 478.5,-37.7"/>
<polygon fill="none" stroke="#000000" points="478.5,-37.7 478.5,-56.7 587.5,-56.7 587.5,-37.7 478.5,-37.7"/>
<polygon fill="#ffffff" stroke="transparent" points="479.5,-38.7 479.5,-55.7 521.5,-55.7 521.5,-38.7 479.5,-38.7"/>
<text text-anchor="start" x="481.5" y="-43.8" font-family="Helvetica,sans-Serif" font-size="11.00" fill="#000000">&lt; 1</text>
<polygon fill="#ffffff" stroke="transparent" points="521.5,-38.7 521.5,-55.7 554.5,-55.7 554.5,-38.7 521.5,-38.7"/>
<text text-anchor="start" x="534.9431" y="-43.8" font-family="Helvetica,sans-Serif" font-size="11.00" fill="#000000"> &#160;</text>
<polygon fill="#ffffff" stroke="transparent" points="554.5,-38.7 554.5,-55.7 586.5,-55.7 586.5,-38.7 554.5,-38.7"/>
<text text-anchor="start" x="578.3862" y="-43.8" font-family="Helvetica,sans-Serif" font-size="11.00" fill="#000000"> &#160;</text>
<polygon fill="#000000" stroke="#000000" points="521.5,-38.7 521.5,-55.7 521.5,-55.7 521.5,-38.7 521.5,-38.7"/>
<polygon fill="#000000" stroke="#000000" points="554.5,-38.7 554.5,-55.7 554.5,-55.7 554.5,-38.7 554.5,-38.7"/>
</a>
</g>
</g>
<!-- topics&#45;&gt;summaries -->
<g id="edge4" class="edge">
<title>topics:w&#45;&gt;summaries:e</title>
<path fill="none" stroke="#000000" d="M464.0095,-89.8146C426.6131,-109.2176 472.6504,-212.7 416,-212.7"/>
<polygon fill="#000000" stroke="#000000" points="470.6786,-88.3812 479.2565,-90.2196 474.5893,-87.5406 478.5,-86.7 478.5,-86.7 478.5,-86.7 474.5893,-87.5406 477.7435,-83.1804 470.6786,-88.3812 470.6786,-88.3812"/>
<ellipse fill="none" stroke="#000000" cx="467.5501" cy="-89.0537" rx="3.2" ry="3.2"/>
</g>
</g>
</svg>
