<?xml version="1.0" encoding="UTF-8" standalone="no"?>
<!DOCTYPE svg PUBLIC "-//W3C//DTD SVG 1.1//EN"
 "http://www.w3.org/Graphics/SVG/1.1/DTD/svg11.dtd">
<!-- Generated by graphviz version 2.40.1 (20161225.0304)
 -->
<!-- Title: oneDegreeRelationshipsDiagram Pages: 1 -->
<svg width="462pt" height="407pt"
 viewBox="0.00 0.00 462.00 407.20" xmlns="http://www.w3.org/2000/svg" xmlns:xlink="http://www.w3.org/1999/xlink">
<g id="graph0" class="graph" transform="scale(1 1) rotate(0) translate(4 403.2)">
<title>oneDegreeRelationshipsDiagram</title>
<polygon fill="#ffffff" stroke="transparent" points="-4,4 -4,-403.2 458,-403.2 458,4 -4,4"/>
<text text-anchor="middle" x="72.4936" y="-7.3" font-family="Helvetica,sans-Serif" font-size="11.00" fill="#000000">Generated by SchemaSpy</text>
<!-- action_items -->
<g id="node1" class="node">
<title>action_items</title>
<g id="a_node1"><a xlink:href="../../tables/action_items.html" xlink:title="action_items" target="_top">
<polygon fill="#ffffff" stroke="transparent" points="315,-290.2 315,-395.2 446,-395.2 446,-290.2 315,-290.2"/>
<polygon fill="#f5f5f5" stroke="transparent" points="315.5,-371.7 315.5,-394.7 446.5,-394.7 446.5,-371.7 315.5,-371.7"/>
<polygon fill="none" stroke="#000000" points="315.5,-371.7 315.5,-394.7 446.5,-394.7 446.5,-371.7 315.5,-371.7"/>
<text text-anchor="start" x="320.5" y="-380.3" font-family="Helvetica,sans-Serif" font-weight="bold" font-size="11.00" fill="#000000">action_items</text>
<text text-anchor="start" x="412.0219" y="-379.8" font-family="Helvetica,sans-Serif" font-size="11.00" fill="#000000">[table]</text>
<polygon fill="none" stroke="#000000" points="315.5,-349.7 315.5,-371.7 446.5,-371.7 446.5,-349.7 315.5,-349.7"/>
<image xlink:href="../../images/primaryKeys.png" width="11px" height="12px" preserveAspectRatio="xMinYMin meet" x="320.5" y="-366.7"/>
<text text-anchor="start" x="344.5" y="-356.8" font-family="Helvetica,sans-Serif" font-size="11.00" fill="#000000">id</text>
<polygon fill="#ffffff" stroke="transparent" points="315.5,-327.7 315.5,-349.7 446.5,-349.7 446.5,-327.7 315.5,-327.7"/>
<polygon fill="none" stroke="#000000" points="315.5,-327.7 315.5,-349.7 446.5,-349.7 446.5,-327.7 315.5,-327.7"/>
<image xlink:href="../../images/foreignKeys.png" width="11px" height="12px" preserveAspectRatio="xMinYMin meet" x="320.5" y="-344.7"/>
<text text-anchor="start" x="344.5" y="-334.8" font-family="Helvetica,sans-Serif" font-size="11.00" fill="#000000">summary_id</text>
<polygon fill="none" stroke="#000000" points="315.5,-308.7 315.5,-327.7 446.5,-327.7 446.5,-308.7 315.5,-308.7"/>
<text text-anchor="start" x="318.5" y="-314.8" font-family="Helvetica,sans-Serif" font-size="11.00" fill="#000000">...</text>
<polygon fill="#ffffff" stroke="transparent" points="315.5,-289.7 315.5,-308.7 446.5,-308.7 446.5,-289.7 315.5,-289.7"/>
<polygon fill="none" stroke="#000000" points="315.5,-289.7 315.5,-308.7 446.5,-308.7 446.5,-289.7 315.5,-289.7"/>
<polygon fill="#ffffff" stroke="transparent" points="316.5,-290.7 316.5,-307.7 365.5,-307.7 365.5,-290.7 316.5,-290.7"/>
<text text-anchor="start" x="318.5" y="-295.8" font-family="Helvetica,sans-Serif" font-size="11.00" fill="#000000">&lt; 1</text>
<polygon fill="#ffffff" stroke="transparent" points="365.5,-290.7 365.5,-307.7 405.5,-307.7 405.5,-290.7 365.5,-290.7"/>
<text text-anchor="start" x="382.4431" y="-295.8" font-family="Helvetica,sans-Serif" font-size="11.00" fill="#000000"> &#160;</text>
<polygon fill="#ffffff" stroke="transparent" points="405.5,-290.7 405.5,-307.7 445.5,-307.7 445.5,-290.7 405.5,-290.7"/>
<text text-anchor="start" x="437.3862" y="-295.8" font-family="Helvetica,sans-Serif" font-size="11.00" fill="#000000"> &#160;</text>
<polygon fill="#000000" stroke="#000000" points="365.5,-290.7 365.5,-307.7 365.5,-307.7 365.5,-290.7 365.5,-290.7"/>
<polygon fill="#000000" stroke="#000000" points="405.5,-290.7 405.5,-307.7 405.5,-307.7 405.5,-290.7 405.5,-290.7"/>
</a>
</g>
</g>
<!-- summaries -->
<g id="node2" class="node">
<title>summaries</title>
<g id="a_node2"><a xlink:href="../../tables/summaries.html" xlink:title="summaries" target="_top">
<polygon fill="#ffffff" stroke="transparent" points="8,-92.7 8,-248.7 266,-248.7 266,-92.7 8,-92.7"/>
<polygon fill="#f5f5f5" stroke="transparent" points="10,-223.7 10,-246.7 264,-246.7 264,-223.7 10,-223.7"/>
<polygon fill="none" stroke="#000000" points="10,-223.7 10,-246.7 264,-246.7 264,-223.7 10,-223.7"/>
<text text-anchor="start" x="15" y="-232.3" font-family="Helvetica,sans-Serif" font-weight="bold" font-size="11.00" fill="#000000">summaries</text>
<text text-anchor="start" x="229.0437" y="-231.8" font-family="Helvetica,sans-Serif" font-size="11.00" fill="#000000">[table]</text>
<polygon fill="none" stroke="#000000" points="10,-201.7 10,-223.7 155,-223.7 155,-201.7 10,-201.7"/>
<image xlink:href="../../images/primaryKeys.png" width="11px" height="12px" preserveAspectRatio="xMinYMin meet" x="15" y="-218.7"/>
<text text-anchor="start" x="30" y="-208.8" font-family="Helvetica,sans-Serif" font-size="11.00" fill="#000000">id</text>
<polygon fill="none" stroke="#000000" points="155,-201.7 155,-223.7 264,-223.7 264,-201.7 155,-201.7"/>
<text text-anchor="start" x="158" y="-209.4" font-family="Helvetica,sans-Serif" font-size="11.00" fill="#000000">uuid[2147483647]</text>
<polygon fill="none" stroke="#000000" points="10,-179.7 10,-201.7 155,-201.7 155,-179.7 10,-179.7"/>
<text text-anchor="start" x="30" y="-186.8" font-family="Helvetica,sans-Serif" font-size="11.00" fill="#000000">filename</text>
<polygon fill="none" stroke="#000000" points="155,-179.7 155,-201.7 264,-201.7 264,-179.7 155,-179.7"/>
<text text-anchor="start" x="158" y="-187.4" font-family="Helvetica,sans-Serif" font-size="11.00" fill="#000000">varchar[255]</text>
<polygon fill="none" stroke="#000000" points="10,-157.7 10,-179.7 155,-179.7 155,-157.7 10,-157.7"/>
<text text-anchor="start" x="30" y="-164.8" font-family="Helvetica,sans-Serif" font-size="11.00" fill="#000000">created_at</text>
<polygon fill="none" stroke="#000000" points="155,-157.7 155,-179.7 264,-179.7 264,-157.7 155,-157.7"/>
<text text-anchor="start" x="158" y="-165.4" font-family="Helvetica,sans-Serif" font-size="11.00" fill="#000000">timestamptz[35,6]</text>
<polygon fill="none" stroke="#000000" points="10,-135.7 10,-157.7 155,-157.7 155,-135.7 10,-135.7"/>
<text text-anchor="start" x="30" y="-142.8" font-family="Helvetica,sans-Serif" font-size="11.00" fill="#000000">overall_summary</text>
<polygon fill="none" stroke="#000000" points="155,-135.7 155,-157.7 264,-157.7 264,-135.7 155,-135.7"/>
<text text-anchor="start" x="157.5344" y="-143.4" font-family="Helvetica,sans-Serif" font-size="11.00" fill="#000000">varchar[2147483647]</text>
<polygon fill="#ffffff" stroke="transparent" points="10,-113.7 10,-135.7 155,-135.7 155,-113.7 10,-113.7"/>
<polygon fill="none" stroke="#000000" points="10,-113.7 10,-135.7 155,-135.7 155,-113.7 10,-113.7"/>
<text text-anchor="start" x="30" y="-120.8" font-family="Helvetica,sans-Serif" font-size="11.00" fill="#000000">content_hash</text>
<polygon fill="none" stroke="#000000" points="155,-113.7 155,-135.7 264,-135.7 264,-113.7 155,-113.7"/>
<text text-anchor="start" x="158" y="-121.4" font-family="Helvetica,sans-Serif" font-size="11.00" fill="#000000">varchar[64]</text>
<polygon fill="#ffffff" stroke="transparent" points="10,-94.7 10,-113.7 264,-113.7 264,-94.7 10,-94.7"/>
<polygon fill="none" stroke="#000000" points="10,-94.7 10,-113.7 264,-113.7 264,-94.7 10,-94.7"/>
<polygon fill="#ffffff" stroke="transparent" points="11,-95.7 11,-112.7 98,-112.7 98,-95.7 11,-95.7"/>
<text text-anchor="start" x="13" y="-100.8" font-family="Helvetica,sans-Serif" font-size="11.00" fill="#000000">&lt; 0</text>
<polygon fill="#ffffff" stroke="transparent" points="98,-95.7 98,-112.7 176,-112.7 176,-95.7 98,-95.7"/>
<text text-anchor="start" x="133.9431" y="-100.8" font-family="Helvetica,sans-Serif" font-size="11.00" fill="#000000"> &#160;</text>
<polygon fill="#ffffff" stroke="transparent" points="176,-95.7 176,-112.7 263,-112.7 263,-95.7 176,-95.7"/>
<text text-anchor="start" x="245.4053" y="-100.8" font-family="Helvetica,sans-Serif" font-size="11.00" fill="#000000">3 &gt;</text>
<polygon fill="#000000" stroke="#000000" points="98,-95.7 98,-112.7 98,-112.7 98,-95.7 98,-95.7"/>
<polygon fill="#000000" stroke="#000000" points="176,-95.7 176,-112.7 176,-112.7 176,-95.7 176,-95.7"/>
<polygon fill="none" stroke="#000000" stroke-width="2" points="9,-93.7 9,-247.7 265,-247.7 265,-93.7 9,-93.7"/>
</a>
</g>
</g>
<!-- action_items&#45;&gt;summaries -->
<g id="edge1" class="edge">
<title>action_items:w&#45;&gt;summaries:e</title>
<path fill="none" stroke="#000000" d="M301.2532,-335.3298C267.3363,-315.2923 318.5892,-212.7 264,-212.7"/>
<polygon fill="#000000" stroke="#000000" points="307.7149,-336.8583 314.6712,-342.2033 311.6074,-337.7792 315.5,-338.7 315.5,-338.7 315.5,-338.7 311.6074,-337.7792 316.3288,-335.1967 307.7149,-336.8583 307.7149,-336.8583"/>
<ellipse fill="none" stroke="#000000" cx="304.6008" cy="-336.1217" rx="3.2" ry="3.2"/>
</g>
<!-- decisions -->
<g id="node3" class="node">
<title>decisions</title>
<g id="a_node3"><a xlink:href="../../tables/decisions.html" xlink:title="decisions" target="_top">
<polygon fill="#ffffff" stroke="transparent" points="326,-164.2 326,-269.2 435,-269.2 435,-164.2 326,-164.2"/>
<polygon fill="#f5f5f5" stroke="transparent" points="326.5,-245.7 326.5,-268.7 435.5,-268.7 435.5,-245.7 326.5,-245.7"/>
<polygon fill="none" stroke="#000000" points="326.5,-245.7 326.5,-268.7 435.5,-268.7 435.5,-245.7 326.5,-245.7"/>
<text text-anchor="start" x="331.5" y="-254.3" font-family="Helvetica,sans-Serif" font-weight="bold" font-size="11.00" fill="#000000">decisions</text>
<text text-anchor="start" x="400.5437" y="-253.8" font-family="Helvetica,sans-Serif" font-size="11.00" fill="#000000">[table]</text>
<polygon fill="none" stroke="#000000" points="326.5,-223.7 326.5,-245.7 435.5,-245.7 435.5,-223.7 326.5,-223.7"/>
<image xlink:href="../../images/primaryKeys.png" width="11px" height="12px" preserveAspectRatio="xMinYMin meet" x="331.5" y="-240.7"/>
<text text-anchor="start" x="346.5" y="-230.8" font-family="Helvetica,sans-Serif" font-size="11.00" fill="#000000">id</text>
<polygon fill="#ffffff" stroke="transparent" points="326.5,-201.7 326.5,-223.7 435.5,-223.7 435.5,-201.7 326.5,-201.7"/>
<polygon fill="none" stroke="#000000" points="326.5,-201.7 326.5,-223.7 435.5,-223.7 435.5,-201.7 326.5,-201.7"/>
<image xlink:href="../../images/foreignKeys.png" width="11px" height="12px" preserveAspectRatio="xMinYMin meet" x="331.5" y="-218.7"/>
<text text-anchor="start" x="346.5" y="-208.8" font-family="Helvetica,sans-Serif" font-size="11.00" fill="#000000">summary_id</text>
<polygon fill="none" stroke="#000000" points="326.5,-182.7 326.5,-201.7 435.5,-201.7 435.5,-182.7 326.5,-182.7"/>
<text text-anchor="start" x="329.5" y="-188.8" font-family="Helvetica,sans-Serif" font-size="11.00" fill="#000000">...</text>
<polygon fill="#ffffff" stroke="transparent" points="326.5,-163.7 326.5,-182.7 435.5,-182.7 435.5,-163.7 326.5,-163.7"/>
<polygon fill="none" stroke="#000000" points="326.5,-163.7 326.5,-182.7 435.5,-182.7 435.5,-163.7 326.5,-163.7"/>
<polygon fill="#ffffff" stroke="transparent" points="327.5,-164.7 327.5,-181.7 369.5,-181.7 369.5,-164.7 327.5,-164.7"/>
<text text-anchor="start" x="329.5" y="-169.8" font-family="Helvetica,sans-Serif" font-size="11.00" fill="#000000">&lt; 1</text>
<polygon fill="#ffffff" stroke="transparent" points="369.5,-164.7 369.5,-181.7 402.5,-181.7 402.5,-164.7 369.5,-164.7"/>
<text text-anchor="start" x="382.9431" y="-169.8" font-family="Helvetica,sans-Serif" font-size="11.00" fill="#000000"> &#160;</text>
<polygon fill="#ffffff" stroke="transparent" points="402.5,-164.7 402.5,-181.7 434.5,-181.7 434.5,-164.7 402.5,-164.7"/>
<text text-anchor="start" x="426.3862" y="-169.8" font-family="Helvetica,sans-Serif" font-size="11.00" fill="#000000"> &#160;</text>
<polygon fill="#000000" stroke="#000000" points="369.5,-164.7 369.5,-181.7 369.5,-181.7 369.5,-164.7 369.5,-164.7"/>
<polygon fill="#000000" stroke="#000000" points="402.5,-164.7 402.5,-181.7 402.5,-181.7 402.5,-164.7 402.5,-164.7"/>
</a>
</g>
</g>
<!-- decisions&#45;&gt;summaries -->
<g id="edge2" class="edge">
<title>decisions:w&#45;&gt;summaries:e</title>
<path fill="none" stroke="#000000" d="M311.8024,-212.7C295.0415,-212.7 286.1354,-212.7 264,-212.7"/>
<polygon fill="#000000" stroke="#000000" points="318.5,-212.7001 326.5,-216.3 322.5,-212.7 326.5,-212.7 326.5,-212.7 326.5,-212.7 322.5,-212.7 326.5,-209.1 318.5,-212.7001 318.5,-212.7001"/>
<ellipse fill="none" stroke="#000000" cx="315.3" cy="-212.7001" rx="3.2" ry="3.2"/>
</g>
<!-- topics -->
<g id="node4" class="node">
<title>topics</title>
<g id="a_node4"><a xlink:href="../../tables/topics.html" xlink:title="topics" target="_top">
<polygon fill="#ffffff" stroke="transparent" points="326,-38.2 326,-143.2 435,-143.2 435,-38.2 326,-38.2"/>
<polygon fill="#f5f5f5" stroke="transparent" points="326.5,-119.7 326.5,-142.7 435.5,-142.7 435.5,-119.7 326.5,-119.7"/>
<polygon fill="none" stroke="#000000" points="326.5,-119.7 326.5,-142.7 435.5,-142.7 435.5,-119.7 326.5,-119.7"/>
<text text-anchor="start" x="331.5" y="-128.3" font-family="Helvetica,sans-Serif" font-weight="bold" font-size="11.00" fill="#000000">topics</text>
<text text-anchor="start" x="400.5437" y="-127.8" font-family="Helvetica,sans-Serif" font-size="11.00" fill="#000000">[table]</text>
<polygon fill="none" stroke="#000000" points="326.5,-97.7 326.5,-119.7 435.5,-119.7 435.5,-97.7 326.5,-97.7"/>
<image xlink:href="../../images/primaryKeys.png" width="11px" height="12px" preserveAspectRatio="xMinYMin meet" x="331.5" y="-114.7"/>
<text text-anchor="start" x="346.5" y="-104.8" font-family="Helvetica,sans-Serif" font-size="11.00" fill="#000000">id</text>
<polygon fill="#ffffff" stroke="transparent" points="326.5,-75.7 326.5,-97.7 435.5,-97.7 435.5,-75.7 326.5,-75.7"/>
<polygon fill="none" stroke="#000000" points="326.5,-75.7 326.5,-97.7 435.5,-97.7 435.5,-75.7 326.5,-75.7"/>
<image xlink:href="../../images/foreignKeys.png" width="11px" height="12px" preserveAspectRatio="xMinYMin meet" x="331.5" y="-92.7"/>
<text text-anchor="start" x="346.5" y="-82.8" font-family="Helvetica,sans-Serif" font-size="11.00" fill="#000000">summary_id</text>
<polygon fill="none" stroke="#000000" points="326.5,-56.7 326.5,-75.7 435.5,-75.7 435.5,-56.7 326.5,-56.7"/>
<text text-anchor="start" x="329.5" y="-62.8" font-family="Helvetica,sans-Serif" font-size="11.00" fill="#000000">...</text>
<polygon fill="#ffffff" stroke="transparent" points="326.5,-37.7 326.5,-56.7 435.5,-56.7 435.5,-37.7 326.5,-37.7"/>
<polygon fill="none" stroke="#000000" points="326.5,-37.7 326.5,-56.7 435.5,-56.7 435.5,-37.7 326.5,-37.7"/>
<polygon fill="#ffffff" stroke="transparent" points="327.5,-38.7 327.5,-55.7 369.5,-55.7 369.5,-38.7 327.5,-38.7"/>
<text text-anchor="start" x="329.5" y="-43.8" font-family="Helvetica,sans-Serif" font-size="11.00" fill="#000000">&lt; 1</text>
<polygon fill="#ffffff" stroke="transparent" points="369.5,-38.7 369.5,-55.7 402.5,-55.7 402.5,-38.7 369.5,-38.7"/>
<text text-anchor="start" x="382.9431" y="-43.8" font-family="Helvetica,sans-Serif" font-size="11.00" fill="#000000"> &#160;</text>
<polygon fill="#ffffff" stroke="transparent" points="402.5,-38.7 402.5,-55.7 434.5,-55.7 434.5,-38.7 402.5,-38.7"/>
<text text-anchor="start" x="426.3862" y="-43.8" font-family="Helvetica,sans-Serif" font-size="11.00" fill="#000000"> &#160;</text>
<polygon fill="#000000" stroke="#000000" points="369.5,-38.7 369.5,-55.7 369.5,-55.7 369.5,-38.7 369.5,-38.7"/>
<polygon fill="#000000" stroke="#000000" points="402.5,-38.7 402.5,-55.7 402.5,-55.7 402.5,-38.7 402.5,-38.7"/>
</a>
</g>
</g>
<!-- topics&#45;&gt;summaries -->
<g id="edge3" class="edge">
<title>topics:w&#45;&gt;summaries:e</title>
<path fill="none" stroke="#000000" d="M312.0095,-89.8146C274.6131,-109.2176 320.6504,-212.7 264,-212.7"/>
<polygon fill="#000000" stroke="#000000" points="318.6786,-88.3812 327.2565,-90.2196 322.5893,-87.5406 326.5,-86.7 326.5,-86.7 326.5,-86.7 322.5893,-87.5406 325.7435,-83.1804 318.6786,-88.3812 318.6786,-88.3812"/>
<ellipse fill="none" stroke="#000000" cx="315.5501" cy="-89.0537" rx="3.2" ry="3.2"/>
</g>
</g>
</svg>
