<?xml version="1.0" encoding="UTF-8" standalone="no"?>
<!DOCTYPE svg PUBLIC "-//W3C//DTD SVG 1.1//EN"
 "http://www.w3.org/Graphics/SVG/1.1/DTD/svg11.dtd">
<!-- Generated by graphviz version 2.40.1 (20161225.0304)
 -->
<!-- Title: oneDegreeRelationshipsDiagram Pages: 1 -->
<svg width="885pt" height="555pt"
 viewBox="0.00 0.00 885.00 555.20" xmlns="http://www.w3.org/2000/svg" xmlns:xlink="http://www.w3.org/1999/xlink">
<g id="graph0" class="graph" transform="scale(1 1) rotate(0) translate(4 551.2)">
<title>oneDegreeRelationshipsDiagram</title>
<polygon fill="#ffffff" stroke="transparent" points="-4,4 -4,-551.2 881,-551.2 881,4 -4,4"/>
<text text-anchor="middle" x="72.4936" y="-7.3" font-family="Helvetica,sans-Serif" font-size="11.00" fill="#000000">Generated by SchemaSpy</text>
<!-- action_items -->
<g id="node1" class="node">
<title>action_items</title>
<g id="a_node1"><a xlink:href="../../tables/action_items.html" xlink:title="action_items" target="_top">
<polygon fill="#ffffff" stroke="transparent" points="709,-438.2 709,-543.2 840,-543.2 840,-438.2 709,-438.2"/>
<polygon fill="#f5f5f5" stroke="transparent" points="709.5,-519.7 709.5,-542.7 840.5,-542.7 840.5,-519.7 709.5,-519.7"/>
<polygon fill="none" stroke="#000000" points="709.5,-519.7 709.5,-542.7 840.5,-542.7 840.5,-519.7 709.5,-519.7"/>
<text text-anchor="start" x="714.5" y="-528.3" font-family="Helvetica,sans-Serif" font-weight="bold" font-size="11.00" fill="#000000">action_items</text>
<text text-anchor="start" x="806.0219" y="-527.8" font-family="Helvetica,sans-Serif" font-size="11.00" fill="#000000">[table]</text>
<polygon fill="none" stroke="#000000" points="709.5,-497.7 709.5,-519.7 840.5,-519.7 840.5,-497.7 709.5,-497.7"/>
<image xlink:href="../../images/primaryKeys.png" width="11px" height="12px" preserveAspectRatio="xMinYMin meet" x="714.5" y="-514.7"/>
<text text-anchor="start" x="738.5" y="-504.8" font-family="Helvetica,sans-Serif" font-size="11.00" fill="#000000">id</text>
<polygon fill="#ffffff" stroke="transparent" points="709.5,-475.7 709.5,-497.7 840.5,-497.7 840.5,-475.7 709.5,-475.7"/>
<polygon fill="none" stroke="#000000" points="709.5,-475.7 709.5,-497.7 840.5,-497.7 840.5,-475.7 709.5,-475.7"/>
<image xlink:href="../../images/foreignKeys.png" width="11px" height="12px" preserveAspectRatio="xMinYMin meet" x="714.5" y="-492.7"/>
<text text-anchor="start" x="738.5" y="-482.8" font-family="Helvetica,sans-Serif" font-size="11.00" fill="#000000">summary_id</text>
<polygon fill="none" stroke="#000000" points="709.5,-456.7 709.5,-475.7 840.5,-475.7 840.5,-456.7 709.5,-456.7"/>
<text text-anchor="start" x="712.5" y="-462.8" font-family="Helvetica,sans-Serif" font-size="11.00" fill="#000000">...</text>
<polygon fill="#ffffff" stroke="transparent" points="709.5,-437.7 709.5,-456.7 840.5,-456.7 840.5,-437.7 709.5,-437.7"/>
<polygon fill="none" stroke="#000000" points="709.5,-437.7 709.5,-456.7 840.5,-456.7 840.5,-437.7 709.5,-437.7"/>
<polygon fill="#ffffff" stroke="transparent" points="710.5,-438.7 710.5,-455.7 759.5,-455.7 759.5,-438.7 710.5,-438.7"/>
<text text-anchor="start" x="712.5" y="-443.8" font-family="Helvetica,sans-Serif" font-size="11.00" fill="#000000">&lt; 1</text>
<polygon fill="#ffffff" stroke="transparent" points="759.5,-438.7 759.5,-455.7 799.5,-455.7 799.5,-438.7 759.5,-438.7"/>
<text text-anchor="start" x="776.4431" y="-443.8" font-family="Helvetica,sans-Serif" font-size="11.00" fill="#000000"> &#160;</text>
<polygon fill="#ffffff" stroke="transparent" points="799.5,-438.7 799.5,-455.7 839.5,-455.7 839.5,-438.7 799.5,-438.7"/>
<text text-anchor="start" x="831.3862" y="-443.8" font-family="Helvetica,sans-Serif" font-size="11.00" fill="#000000"> &#160;</text>
<polygon fill="#000000" stroke="#000000" points="759.5,-438.7 759.5,-455.7 759.5,-455.7 759.5,-438.7 759.5,-438.7"/>
<polygon fill="#000000" stroke="#000000" points="799.5,-438.7 799.5,-455.7 799.5,-455.7 799.5,-438.7 799.5,-438.7"/>
</a>
</g>
</g>
<!-- summaries -->
<g id="node2" class="node">
<title>summaries</title>
<g id="a_node2"><a xlink:href="../../tables/summaries.html" xlink:title="summaries" target="_top">
<polygon fill="#ffffff" stroke="transparent" points="373,-111.7 373,-333.7 631,-333.7 631,-111.7 373,-111.7"/>
<polygon fill="#f5f5f5" stroke="transparent" points="375,-308.7 375,-331.7 629,-331.7 629,-308.7 375,-308.7"/>
<polygon fill="none" stroke="#000000" points="375,-308.7 375,-331.7 629,-331.7 629,-308.7 375,-308.7"/>
<text text-anchor="start" x="380" y="-317.3" font-family="Helvetica,sans-Serif" font-weight="bold" font-size="11.00" fill="#000000">summaries</text>
<text text-anchor="start" x="594.0437" y="-316.8" font-family="Helvetica,sans-Serif" font-size="11.00" fill="#000000">[table]</text>
<polygon fill="none" stroke="#000000" points="375,-286.7 375,-308.7 520,-308.7 520,-286.7 375,-286.7"/>
<image xlink:href="../../images/primaryKeys.png" width="11px" height="12px" preserveAspectRatio="xMinYMin meet" x="380" y="-303.7"/>
<text text-anchor="start" x="395" y="-293.8" font-family="Helvetica,sans-Serif" font-size="11.00" fill="#000000">id</text>
<polygon fill="none" stroke="#000000" points="520,-286.7 520,-308.7 629,-308.7 629,-286.7 520,-286.7"/>
<text text-anchor="start" x="523" y="-294.4" font-family="Helvetica,sans-Serif" font-size="11.00" fill="#000000">uuid[2147483647]</text>
<polygon fill="none" stroke="#000000" points="375,-264.7 375,-286.7 520,-286.7 520,-264.7 375,-264.7"/>
<text text-anchor="start" x="395" y="-271.8" font-family="Helvetica,sans-Serif" font-size="11.00" fill="#000000">filename</text>
<polygon fill="none" stroke="#000000" points="520,-264.7 520,-286.7 629,-286.7 629,-264.7 520,-264.7"/>
<text text-anchor="start" x="523" y="-272.4" font-family="Helvetica,sans-Serif" font-size="11.00" fill="#000000">varchar[255]</text>
<polygon fill="none" stroke="#000000" points="375,-242.7 375,-264.7 520,-264.7 520,-242.7 375,-242.7"/>
<text text-anchor="start" x="395" y="-249.8" font-family="Helvetica,sans-Serif" font-size="11.00" fill="#000000">created_at</text>
<polygon fill="none" stroke="#000000" points="520,-242.7 520,-264.7 629,-264.7 629,-242.7 520,-242.7"/>
<text text-anchor="start" x="523" y="-250.4" font-family="Helvetica,sans-Serif" font-size="11.00" fill="#000000">timestamptz[35,6]</text>
<polygon fill="none" stroke="#000000" points="375,-220.7 375,-242.7 520,-242.7 520,-220.7 375,-220.7"/>
<text text-anchor="start" x="395" y="-227.8" font-family="Helvetica,sans-Serif" font-size="11.00" fill="#000000">overall_summary</text>
<polygon fill="none" stroke="#000000" points="520,-220.7 520,-242.7 629,-242.7 629,-220.7 520,-220.7"/>
<text text-anchor="start" x="522.5344" y="-228.4" font-family="Helvetica,sans-Serif" font-size="11.00" fill="#000000">varchar[2147483647]</text>
<polygon fill="#ffffff" stroke="transparent" points="375,-198.7 375,-220.7 520,-220.7 520,-198.7 375,-198.7"/>
<polygon fill="none" stroke="#000000" points="375,-198.7 375,-220.7 520,-220.7 520,-198.7 375,-198.7"/>
<text text-anchor="start" x="395" y="-205.8" font-family="Helvetica,sans-Serif" font-size="11.00" fill="#000000">content_hash</text>
<polygon fill="none" stroke="#000000" points="520,-198.7 520,-220.7 629,-220.7 629,-198.7 520,-198.7"/>
<text text-anchor="start" x="523" y="-206.4" font-family="Helvetica,sans-Serif" font-size="11.00" fill="#000000">varchar[64]</text>
<polygon fill="#ffffff" stroke="transparent" points="375,-176.7 375,-198.7 520,-198.7 520,-176.7 375,-176.7"/>
<polygon fill="none" stroke="#000000" points="375,-176.7 375,-198.7 520,-198.7 520,-176.7 375,-176.7"/>
<image xlink:href="../../images/foreignKeys.png" width="11px" height="12px" preserveAspectRatio="xMinYMin meet" x="380" y="-193.7"/>
<text text-anchor="start" x="395" y="-183.8" font-family="Helvetica,sans-Serif" font-size="11.00" fill="#000000">user_id</text>
<polygon fill="none" stroke="#000000" points="520,-176.7 520,-198.7 629,-198.7 629,-176.7 520,-176.7"/>
<text text-anchor="start" x="523" y="-184.4" font-family="Helvetica,sans-Serif" font-size="11.00" fill="#000000">uuid[2147483647]</text>
<polygon fill="none" stroke="#000000" points="375,-154.7 375,-176.7 520,-176.7 520,-154.7 375,-154.7"/>
<text text-anchor="start" x="395" y="-161.8" font-family="Helvetica,sans-Serif" font-size="11.00" fill="#000000">deleted_at</text>
<polygon fill="none" stroke="#000000" points="520,-154.7 520,-176.7 629,-176.7 629,-154.7 520,-154.7"/>
<text text-anchor="start" x="523" y="-162.4" font-family="Helvetica,sans-Serif" font-size="11.00" fill="#000000">timestamptz[35,6]</text>
<polygon fill="#ffffff" stroke="transparent" points="375,-132.7 375,-154.7 520,-154.7 520,-132.7 375,-132.7"/>
<polygon fill="none" stroke="#000000" points="375,-132.7 375,-154.7 520,-154.7 520,-132.7 375,-132.7"/>
<image xlink:href="../../images/foreignKeys.png" width="11px" height="12px" preserveAspectRatio="xMinYMin meet" x="380" y="-149.7"/>
<text text-anchor="start" x="395" y="-139.8" font-family="Helvetica,sans-Serif" font-size="11.00" fill="#000000">group_id</text>
<polygon fill="none" stroke="#000000" points="520,-132.7 520,-154.7 629,-154.7 629,-132.7 520,-132.7"/>
<text text-anchor="start" x="523" y="-140.4" font-family="Helvetica,sans-Serif" font-size="11.00" fill="#000000">uuid[2147483647]</text>
<polygon fill="#ffffff" stroke="transparent" points="375,-113.7 375,-132.7 629,-132.7 629,-113.7 375,-113.7"/>
<polygon fill="none" stroke="#000000" points="375,-113.7 375,-132.7 629,-132.7 629,-113.7 375,-113.7"/>
<polygon fill="#ffffff" stroke="transparent" points="376,-114.7 376,-131.7 463,-131.7 463,-114.7 376,-114.7"/>
<text text-anchor="start" x="378" y="-119.8" font-family="Helvetica,sans-Serif" font-size="11.00" fill="#000000">&lt; 2</text>
<polygon fill="#ffffff" stroke="transparent" points="463,-114.7 463,-131.7 541,-131.7 541,-114.7 463,-114.7"/>
<text text-anchor="start" x="498.9431" y="-119.8" font-family="Helvetica,sans-Serif" font-size="11.00" fill="#000000"> &#160;</text>
<polygon fill="#ffffff" stroke="transparent" points="541,-114.7 541,-131.7 628,-131.7 628,-114.7 541,-114.7"/>
<text text-anchor="start" x="610.4053" y="-119.8" font-family="Helvetica,sans-Serif" font-size="11.00" fill="#000000">4 &gt;</text>
<polygon fill="#000000" stroke="#000000" points="463,-114.7 463,-131.7 463,-131.7 463,-114.7 463,-114.7"/>
<polygon fill="#000000" stroke="#000000" points="541,-114.7 541,-131.7 541,-131.7 541,-114.7 541,-114.7"/>
<polygon fill="none" stroke="#000000" stroke-width="2" points="374,-112.7 374,-332.7 630,-332.7 630,-112.7 374,-112.7"/>
</a>
</g>
</g>
<!-- action_items&#45;&gt;summaries -->
<g id="edge1" class="edge">
<title>action_items:w&#45;&gt;summaries:e</title>
<path fill="none" stroke="#000000" d="M694.957,-484.7053C629.8532,-464.5061 714.7739,-297.7 629,-297.7"/>
<polygon fill="#000000" stroke="#000000" points="701.5742,-485.6129 709.0108,-490.2666 705.5371,-486.1564 709.5,-486.7 709.5,-486.7 709.5,-486.7 705.5371,-486.1564 709.9892,-483.1334 701.5742,-485.6129 701.5742,-485.6129"/>
<ellipse fill="none" stroke="#000000" cx="698.4039" cy="-485.178" rx="3.2" ry="3.2"/>
</g>
<!-- summary_groups -->
<g id="node4" class="node">
<title>summary_groups</title>
<g id="a_node4"><a xlink:href="../../tables/summary_groups.html" xlink:title="summary_groups" target="_top">
<polygon fill="#ffffff" stroke="transparent" points="160,-44.2 160,-171.2 324,-171.2 324,-44.2 160,-44.2"/>
<polygon fill="#f5f5f5" stroke="transparent" points="160,-147.7 160,-170.7 324,-170.7 324,-147.7 160,-147.7"/>
<polygon fill="none" stroke="#000000" points="160,-147.7 160,-170.7 324,-170.7 324,-147.7 160,-147.7"/>
<text text-anchor="start" x="165" y="-156.3" font-family="Helvetica,sans-Serif" font-weight="bold" font-size="11.00" fill="#000000">summary_groups</text>
<text text-anchor="start" x="289.5219" y="-155.8" font-family="Helvetica,sans-Serif" font-size="11.00" fill="#000000">[table]</text>
<polygon fill="none" stroke="#000000" points="160,-125.7 160,-147.7 324,-147.7 324,-125.7 160,-125.7"/>
<image xlink:href="../../images/primaryKeys.png" width="11px" height="12px" preserveAspectRatio="xMinYMin meet" x="165" y="-142.7"/>
<text text-anchor="start" x="189" y="-132.8" font-family="Helvetica,sans-Serif" font-size="11.00" fill="#000000">id</text>
<polygon fill="#ffffff" stroke="transparent" points="160,-103.7 160,-125.7 324,-125.7 324,-103.7 160,-103.7"/>
<polygon fill="none" stroke="#000000" points="160,-103.7 160,-125.7 324,-125.7 324,-103.7 160,-103.7"/>
<image xlink:href="../../images/foreignKeys.png" width="11px" height="12px" preserveAspectRatio="xMinYMin meet" x="165" y="-120.7"/>
<text text-anchor="start" x="189" y="-110.8" font-family="Helvetica,sans-Serif" font-size="11.00" fill="#000000">user_id</text>
<polygon fill="#ffffff" stroke="transparent" points="160,-81.7 160,-103.7 324,-103.7 324,-81.7 160,-81.7"/>
<polygon fill="none" stroke="#000000" points="160,-81.7 160,-103.7 324,-103.7 324,-81.7 160,-81.7"/>
<text text-anchor="start" x="189" y="-88.8" font-family="Helvetica,sans-Serif" font-size="11.00" fill="#000000">name</text>
<polygon fill="none" stroke="#000000" points="160,-62.7 160,-81.7 324,-81.7 324,-62.7 160,-62.7"/>
<text text-anchor="start" x="163" y="-68.8" font-family="Helvetica,sans-Serif" font-size="11.00" fill="#000000">...</text>
<polygon fill="#ffffff" stroke="transparent" points="160,-43.7 160,-62.7 324,-62.7 324,-43.7 160,-43.7"/>
<polygon fill="none" stroke="#000000" points="160,-43.7 160,-62.7 324,-62.7 324,-43.7 160,-43.7"/>
<polygon fill="#ffffff" stroke="transparent" points="161,-44.7 161,-61.7 218,-61.7 218,-44.7 161,-44.7"/>
<text text-anchor="start" x="163" y="-49.8" font-family="Helvetica,sans-Serif" font-size="11.00" fill="#000000">&lt; 1</text>
<polygon fill="#ffffff" stroke="transparent" points="218,-44.7 218,-61.7 266,-61.7 266,-44.7 218,-44.7"/>
<text text-anchor="start" x="238.9431" y="-49.8" font-family="Helvetica,sans-Serif" font-size="11.00" fill="#000000"> &#160;</text>
<polygon fill="#ffffff" stroke="transparent" points="266,-44.7 266,-61.7 323,-61.7 323,-44.7 266,-44.7"/>
<text text-anchor="start" x="305.4053" y="-49.8" font-family="Helvetica,sans-Serif" font-size="11.00" fill="#000000">1 &gt;</text>
<polygon fill="#000000" stroke="#000000" points="218,-44.7 218,-61.7 218,-61.7 218,-44.7 218,-44.7"/>
<polygon fill="#000000" stroke="#000000" points="266,-44.7 266,-61.7 266,-61.7 266,-44.7 266,-44.7"/>
</a>
</g>
</g>
<!-- summaries&#45;&gt;summary_groups -->
<g id="edge3" class="edge">
<title>summaries:w&#45;&gt;summary_groups:e</title>
<path fill="none" stroke="#000000" d="M360.5965,-142.6063C348.3977,-140.6375 341.1594,-136.7 324,-136.7"/>
<polygon fill="#000000" stroke="#000000" points="367.023,-143.0942 374.7274,-147.2897 371.0115,-143.3971 375,-143.7 375,-143.7 375,-143.7 371.0115,-143.3971 375.2726,-140.1103 367.023,-143.0942 367.023,-143.0942"/>
<ellipse fill="none" stroke="#000000" cx="363.8322" cy="-142.8519" rx="3.2" ry="3.2"/>
</g>
<!-- users -->
<g id="node5" class="node">
<title>users</title>
<g id="a_node5"><a xlink:href="../../tables/users.html" xlink:title="users" target="_top">
<polygon fill="#ffffff" stroke="transparent" points="8,-106.2 8,-189.2 111,-189.2 111,-106.2 8,-106.2"/>
<polygon fill="#f5f5f5" stroke="transparent" points="8.5,-165.7 8.5,-188.7 111.5,-188.7 111.5,-165.7 8.5,-165.7"/>
<polygon fill="none" stroke="#000000" points="8.5,-165.7 8.5,-188.7 111.5,-188.7 111.5,-165.7 8.5,-165.7"/>
<text text-anchor="start" x="13.5" y="-174.3" font-family="Helvetica,sans-Serif" font-weight="bold" font-size="11.00" fill="#000000">users</text>
<text text-anchor="start" x="76.5437" y="-173.8" font-family="Helvetica,sans-Serif" font-size="11.00" fill="#000000">[table]</text>
<polygon fill="none" stroke="#000000" points="8.5,-143.7 8.5,-165.7 111.5,-165.7 111.5,-143.7 8.5,-143.7"/>
<image xlink:href="../../images/primaryKeys.png" width="11px" height="12px" preserveAspectRatio="xMinYMin meet" x="13.5" y="-160.7"/>
<text text-anchor="start" x="28.5" y="-150.8" font-family="Helvetica,sans-Serif" font-size="11.00" fill="#000000">id</text>
<polygon fill="none" stroke="#000000" points="8.5,-124.7 8.5,-143.7 111.5,-143.7 111.5,-124.7 8.5,-124.7"/>
<text text-anchor="start" x="11.5" y="-130.8" font-family="Helvetica,sans-Serif" font-size="11.00" fill="#000000">...</text>
<polygon fill="#ffffff" stroke="transparent" points="8.5,-105.7 8.5,-124.7 111.5,-124.7 111.5,-105.7 8.5,-105.7"/>
<polygon fill="none" stroke="#000000" points="8.5,-105.7 8.5,-124.7 111.5,-124.7 111.5,-105.7 8.5,-105.7"/>
<polygon fill="#ffffff" stroke="transparent" points="9.5,-106.7 9.5,-123.7 40.5,-123.7 40.5,-106.7 9.5,-106.7"/>
<text text-anchor="start" x="11.5" y="-111.8" font-family="Helvetica,sans-Serif" font-size="11.00" fill="#000000"> &#160;</text>
<polygon fill="#ffffff" stroke="transparent" points="40.5,-106.7 40.5,-123.7 71.5,-123.7 71.5,-106.7 40.5,-106.7"/>
<text text-anchor="start" x="52.9431" y="-111.8" font-family="Helvetica,sans-Serif" font-size="11.00" fill="#000000"> &#160;</text>
<polygon fill="#ffffff" stroke="transparent" points="71.5,-106.7 71.5,-123.7 110.5,-123.7 110.5,-106.7 71.5,-106.7"/>
<text text-anchor="start" x="92.9053" y="-111.8" font-family="Helvetica,sans-Serif" font-size="11.00" fill="#000000">4 &gt;</text>
<polygon fill="#000000" stroke="#000000" points="40.5,-106.7 40.5,-123.7 40.5,-123.7 40.5,-106.7 40.5,-106.7"/>
<polygon fill="#000000" stroke="#000000" points="71.5,-106.7 71.5,-123.7 71.5,-123.7 71.5,-106.7 71.5,-106.7"/>
</a>
</g>
</g>
<!-- summaries&#45;&gt;users -->
<g id="edge4" class="edge">
<title>summaries:w&#45;&gt;users:e</title>
<path fill="none" stroke="#000000" d="M360.4178,-187.8755C272.7036,-189.9987 241.6991,-210.1812 152,-181.7 131.3811,-175.1531 133.1333,-154.7 111.5,-154.7"/>
<polygon fill="#000000" stroke="#000000" points="367.0006,-187.7963 375.0433,-191.2997 371.0003,-187.7482 375,-187.7 375,-187.7 375,-187.7 371.0003,-187.7482 374.9567,-184.1003 367.0006,-187.7963 367.0006,-187.7963"/>
<ellipse fill="none" stroke="#000000" cx="363.8008" cy="-187.8349" rx="3.2" ry="3.2"/>
</g>
<!-- decisions -->
<g id="node3" class="node">
<title>decisions</title>
<g id="a_node3"><a xlink:href="../../tables/decisions.html" xlink:title="decisions" target="_top">
<polygon fill="#ffffff" stroke="transparent" points="720,-312.2 720,-417.2 829,-417.2 829,-312.2 720,-312.2"/>
<polygon fill="#f5f5f5" stroke="transparent" points="720.5,-393.7 720.5,-416.7 829.5,-416.7 829.5,-393.7 720.5,-393.7"/>
<polygon fill="none" stroke="#000000" points="720.5,-393.7 720.5,-416.7 829.5,-416.7 829.5,-393.7 720.5,-393.7"/>
<text text-anchor="start" x="725.5" y="-402.3" font-family="Helvetica,sans-Serif" font-weight="bold" font-size="11.00" fill="#000000">decisions</text>
<text text-anchor="start" x="794.5437" y="-401.8" font-family="Helvetica,sans-Serif" font-size="11.00" fill="#000000">[table]</text>
<polygon fill="none" stroke="#000000" points="720.5,-371.7 720.5,-393.7 829.5,-393.7 829.5,-371.7 720.5,-371.7"/>
<image xlink:href="../../images/primaryKeys.png" width="11px" height="12px" preserveAspectRatio="xMinYMin meet" x="725.5" y="-388.7"/>
<text text-anchor="start" x="740.5" y="-378.8" font-family="Helvetica,sans-Serif" font-size="11.00" fill="#000000">id</text>
<polygon fill="#ffffff" stroke="transparent" points="720.5,-349.7 720.5,-371.7 829.5,-371.7 829.5,-349.7 720.5,-349.7"/>
<polygon fill="none" stroke="#000000" points="720.5,-349.7 720.5,-371.7 829.5,-371.7 829.5,-349.7 720.5,-349.7"/>
<image xlink:href="../../images/foreignKeys.png" width="11px" height="12px" preserveAspectRatio="xMinYMin meet" x="725.5" y="-366.7"/>
<text text-anchor="start" x="740.5" y="-356.8" font-family="Helvetica,sans-Serif" font-size="11.00" fill="#000000">summary_id</text>
<polygon fill="none" stroke="#000000" points="720.5,-330.7 720.5,-349.7 829.5,-349.7 829.5,-330.7 720.5,-330.7"/>
<text text-anchor="start" x="723.5" y="-336.8" font-family="Helvetica,sans-Serif" font-size="11.00" fill="#000000">...</text>
<polygon fill="#ffffff" stroke="transparent" points="720.5,-311.7 720.5,-330.7 829.5,-330.7 829.5,-311.7 720.5,-311.7"/>
<polygon fill="none" stroke="#000000" points="720.5,-311.7 720.5,-330.7 829.5,-330.7 829.5,-311.7 720.5,-311.7"/>
<polygon fill="#ffffff" stroke="transparent" points="721.5,-312.7 721.5,-329.7 763.5,-329.7 763.5,-312.7 721.5,-312.7"/>
<text text-anchor="start" x="723.5" y="-317.8" font-family="Helvetica,sans-Serif" font-size="11.00" fill="#000000">&lt; 1</text>
<polygon fill="#ffffff" stroke="transparent" points="763.5,-312.7 763.5,-329.7 796.5,-329.7 796.5,-312.7 763.5,-312.7"/>
<text text-anchor="start" x="776.9431" y="-317.8" font-family="Helvetica,sans-Serif" font-size="11.00" fill="#000000"> &#160;</text>
<polygon fill="#ffffff" stroke="transparent" points="796.5,-312.7 796.5,-329.7 828.5,-329.7 828.5,-312.7 796.5,-312.7"/>
<text text-anchor="start" x="820.3862" y="-317.8" font-family="Helvetica,sans-Serif" font-size="11.00" fill="#000000"> &#160;</text>
<polygon fill="#000000" stroke="#000000" points="763.5,-312.7 763.5,-329.7 763.5,-329.7 763.5,-312.7 763.5,-312.7"/>
<polygon fill="#000000" stroke="#000000" points="796.5,-312.7 796.5,-329.7 796.5,-329.7 796.5,-312.7 796.5,-312.7"/>
</a>
</g>
</g>
<!-- decisions&#45;&gt;summaries -->
<g id="edge2" class="edge">
<title>decisions:w&#45;&gt;summaries:e</title>
<path fill="none" stroke="#000000" d="M706.1831,-358.6039C672.0342,-347.6724 672.9736,-297.7 629,-297.7"/>
<polygon fill="#000000" stroke="#000000" points="712.5844,-359.541 719.9785,-364.262 716.5422,-360.1205 720.5,-360.7 720.5,-360.7 720.5,-360.7 716.5422,-360.1205 721.0215,-357.138 712.5844,-359.541 712.5844,-359.541"/>
<ellipse fill="none" stroke="#000000" cx="709.4181" cy="-359.0775" rx="3.2" ry="3.2"/>
</g>
<!-- summary_groups&#45;&gt;users -->
<g id="edge5" class="edge">
<title>summary_groups:w&#45;&gt;users:e</title>
<path fill="none" stroke="#000000" d="M145.9951,-119.6048C133.5984,-130.2859 133.3288,-154.7 111.5,-154.7"/>
<polygon fill="#000000" stroke="#000000" points="152.4496,-117.3443 161.1899,-118.0977 156.2248,-116.0222 160,-114.7 160,-114.7 160,-114.7 156.2248,-116.0222 158.8101,-111.3023 152.4496,-117.3443 152.4496,-117.3443"/>
<ellipse fill="none" stroke="#000000" cx="149.4295" cy="-118.402" rx="3.2" ry="3.2"/>
</g>
<!-- topics -->
<g id="node6" class="node">
<title>topics</title>
<g id="a_node6"><a xlink:href="../../tables/topics.html" xlink:title="topics" target="_top">
<polygon fill="#ffffff" stroke="transparent" points="720,-186.2 720,-291.2 829,-291.2 829,-186.2 720,-186.2"/>
<polygon fill="#f5f5f5" stroke="transparent" points="720.5,-267.7 720.5,-290.7 829.5,-290.7 829.5,-267.7 720.5,-267.7"/>
<polygon fill="none" stroke="#000000" points="720.5,-267.7 720.5,-290.7 829.5,-290.7 829.5,-267.7 720.5,-267.7"/>
<text text-anchor="start" x="725.5" y="-276.3" font-family="Helvetica,sans-Serif" font-weight="bold" font-size="11.00" fill="#000000">topics</text>
<text text-anchor="start" x="794.5437" y="-275.8" font-family="Helvetica,sans-Serif" font-size="11.00" fill="#000000">[table]</text>
<polygon fill="none" stroke="#000000" points="720.5,-245.7 720.5,-267.7 829.5,-267.7 829.5,-245.7 720.5,-245.7"/>
<image xlink:href="../../images/primaryKeys.png" width="11px" height="12px" preserveAspectRatio="xMinYMin meet" x="725.5" y="-262.7"/>
<text text-anchor="start" x="740.5" y="-252.8" font-family="Helvetica,sans-Serif" font-size="11.00" fill="#000000">id</text>
<polygon fill="#ffffff" stroke="transparent" points="720.5,-223.7 720.5,-245.7 829.5,-245.7 829.5,-223.7 720.5,-223.7"/>
<polygon fill="none" stroke="#000000" points="720.5,-223.7 720.5,-245.7 829.5,-245.7 829.5,-223.7 720.5,-223.7"/>
<image xlink:href="../../images/foreignKeys.png" width="11px" height="12px" preserveAspectRatio="xMinYMin meet" x="725.5" y="-240.7"/>
<text text-anchor="start" x="740.5" y="-230.8" font-family="Helvetica,sans-Serif" font-size="11.00" fill="#000000">summary_id</text>
<polygon fill="none" stroke="#000000" points="720.5,-204.7 720.5,-223.7 829.5,-223.7 829.5,-204.7 720.5,-204.7"/>
<text text-anchor="start" x="723.5" y="-210.8" font-family="Helvetica,sans-Serif" font-size="11.00" fill="#000000">...</text>
<polygon fill="#ffffff" stroke="transparent" points="720.5,-185.7 720.5,-204.7 829.5,-204.7 829.5,-185.7 720.5,-185.7"/>
<polygon fill="none" stroke="#000000" points="720.5,-185.7 720.5,-204.7 829.5,-204.7 829.5,-185.7 720.5,-185.7"/>
<polygon fill="#ffffff" stroke="transparent" points="721.5,-186.7 721.5,-203.7 763.5,-203.7 763.5,-186.7 721.5,-186.7"/>
<text text-anchor="start" x="723.5" y="-191.8" font-family="Helvetica,sans-Serif" font-size="11.00" fill="#000000">&lt; 1</text>
<polygon fill="#ffffff" stroke="transparent" points="763.5,-186.7 763.5,-203.7 796.5,-203.7 796.5,-186.7 763.5,-186.7"/>
<text text-anchor="start" x="776.9431" y="-191.8" font-family="Helvetica,sans-Serif" font-size="11.00" fill="#000000"> &#160;</text>
<polygon fill="#ffffff" stroke="transparent" points="796.5,-186.7 796.5,-203.7 828.5,-203.7 828.5,-186.7 796.5,-186.7"/>
<text text-anchor="start" x="820.3862" y="-191.8" font-family="Helvetica,sans-Serif" font-size="11.00" fill="#000000"> &#160;</text>
<polygon fill="#000000" stroke="#000000" points="763.5,-186.7 763.5,-203.7 763.5,-203.7 763.5,-186.7 763.5,-186.7"/>
<polygon fill="#000000" stroke="#000000" points="796.5,-186.7 796.5,-203.7 796.5,-203.7 796.5,-186.7 796.5,-186.7"/>
</a>
</g>
</g>
<!-- topics&#45;&gt;summaries -->
<g id="edge6" class="edge">
<title>topics:w&#45;&gt;summaries:e</title>
<path fill="none" stroke="#000000" d="M706.1831,-236.7961C672.0342,-247.7276 672.9736,-297.7 629,-297.7"/>
<polygon fill="#000000" stroke="#000000" points="712.5844,-235.859 721.0215,-238.262 716.5422,-235.2795 720.5,-234.7 720.5,-234.7 720.5,-234.7 716.5422,-235.2795 719.9785,-231.138 712.5844,-235.859 712.5844,-235.859"/>
<ellipse fill="none" stroke="#000000" cx="709.4181" cy="-236.3225" rx="3.2" ry="3.2"/>
</g>
<!-- transcript_segments -->
<g id="node7" class="node">
<title>transcript_segments</title>
<g id="a_node7"><a xlink:href="../../tables/transcript_segments.html" xlink:title="transcript_segments" target="_top">
<polygon fill="#ffffff" stroke="transparent" points="680,-38.2 680,-165.2 869,-165.2 869,-38.2 680,-38.2"/>
<polygon fill="#f5f5f5" stroke="transparent" points="680.5,-141.7 680.5,-164.7 869.5,-164.7 869.5,-141.7 680.5,-141.7"/>
<polygon fill="none" stroke="#000000" points="680.5,-141.7 680.5,-164.7 869.5,-164.7 869.5,-141.7 680.5,-141.7"/>
<text text-anchor="start" x="685.5" y="-150.3" font-family="Helvetica,sans-Serif" font-weight="bold" font-size="11.00" fill="#000000">transcript_segments</text>
<text text-anchor="start" x="835.0219" y="-149.8" font-family="Helvetica,sans-Serif" font-size="11.00" fill="#000000">[table]</text>
<polygon fill="none" stroke="#000000" points="680.5,-119.7 680.5,-141.7 869.5,-141.7 869.5,-119.7 680.5,-119.7"/>
<image xlink:href="../../images/primaryKeys.png" width="11px" height="12px" preserveAspectRatio="xMinYMin meet" x="685.5" y="-136.7"/>
<text text-anchor="start" x="709.5" y="-126.8" font-family="Helvetica,sans-Serif" font-size="11.00" fill="#000000">id</text>
<polygon fill="#ffffff" stroke="transparent" points="680.5,-97.7 680.5,-119.7 869.5,-119.7 869.5,-97.7 680.5,-97.7"/>
<polygon fill="none" stroke="#000000" points="680.5,-97.7 680.5,-119.7 869.5,-119.7 869.5,-97.7 680.5,-97.7"/>
<image xlink:href="../../images/foreignKeys.png" width="11px" height="12px" preserveAspectRatio="xMinYMin meet" x="685.5" y="-114.7"/>
<text text-anchor="start" x="709.5" y="-104.8" font-family="Helvetica,sans-Serif" font-size="11.00" fill="#000000">summary_id</text>
<polygon fill="#ffffff" stroke="transparent" points="680.5,-75.7 680.5,-97.7 869.5,-97.7 869.5,-75.7 680.5,-75.7"/>
<polygon fill="none" stroke="#000000" points="680.5,-75.7 680.5,-97.7 869.5,-97.7 869.5,-75.7 680.5,-75.7"/>
<text text-anchor="start" x="709.5" y="-82.8" font-family="Helvetica,sans-Serif" font-size="11.00" fill="#000000">rank</text>
<polygon fill="none" stroke="#000000" points="680.5,-56.7 680.5,-75.7 869.5,-75.7 869.5,-56.7 680.5,-56.7"/>
<text text-anchor="start" x="683.5" y="-62.8" font-family="Helvetica,sans-Serif" font-size="11.00" fill="#000000">...</text>
<polygon fill="#ffffff" stroke="transparent" points="680.5,-37.7 680.5,-56.7 869.5,-56.7 869.5,-37.7 680.5,-37.7"/>
<polygon fill="none" stroke="#000000" points="680.5,-37.7 680.5,-56.7 869.5,-56.7 869.5,-37.7 680.5,-37.7"/>
<polygon fill="#ffffff" stroke="transparent" points="681.5,-38.7 681.5,-55.7 750.5,-55.7 750.5,-38.7 681.5,-38.7"/>
<text text-anchor="start" x="683.5" y="-43.8" font-family="Helvetica,sans-Serif" font-size="11.00" fill="#000000">&lt; 1</text>
<polygon fill="#ffffff" stroke="transparent" points="750.5,-38.7 750.5,-55.7 809.5,-55.7 809.5,-38.7 750.5,-38.7"/>
<text text-anchor="start" x="776.9431" y="-43.8" font-family="Helvetica,sans-Serif" font-size="11.00" fill="#000000"> &#160;</text>
<polygon fill="#ffffff" stroke="transparent" points="809.5,-38.7 809.5,-55.7 868.5,-55.7 868.5,-38.7 809.5,-38.7"/>
<text text-anchor="start" x="860.3862" y="-43.8" font-family="Helvetica,sans-Serif" font-size="11.00" fill="#000000"> &#160;</text>
<polygon fill="#000000" stroke="#000000" points="750.5,-38.7 750.5,-55.7 750.5,-55.7 750.5,-38.7 750.5,-38.7"/>
<polygon fill="#000000" stroke="#000000" points="809.5,-38.7 809.5,-55.7 809.5,-55.7 809.5,-38.7 809.5,-38.7"/>
</a>
</g>
</g>
<!-- transcript_segments&#45;&gt;summaries -->
<g id="edge7" class="edge">
<title>transcript_segments:w&#45;&gt;summaries:e</title>
<path fill="none" stroke="#000000" d="M666.1666,-110.9542C608.3734,-132.2781 710.4512,-297.7 629,-297.7"/>
<polygon fill="#000000" stroke="#000000" points="672.5971,-109.9429 681.0593,-112.2563 676.5486,-109.3215 680.5,-108.7 680.5,-108.7 680.5,-108.7 676.5486,-109.3215 679.9407,-105.1437 672.5971,-109.9429 672.5971,-109.9429"/>
<ellipse fill="none" stroke="#000000" cx="669.436" cy="-110.4401" rx="3.2" ry="3.2"/>
</g>
</g>
</svg>
