<?xml version="1.0" encoding="UTF-8" standalone="no"?>
<!DOCTYPE svg PUBLIC "-//W3C//DTD SVG 1.1//EN"
 "http://www.w3.org/Graphics/SVG/1.1/DTD/svg11.dtd">
<!-- Generated by graphviz version 2.40.1 (20161225.0304)
 -->
<!-- Title: twoDegreesRelationshipsDiagram Pages: 1 -->
<svg width="780pt" height="431pt"
 viewBox="0.00 0.00 780.00 431.20" xmlns="http://www.w3.org/2000/svg" xmlns:xlink="http://www.w3.org/1999/xlink">
<g id="graph0" class="graph" transform="scale(1 1) rotate(0) translate(4 427.2)">
<title>twoDegreesRelationshipsDiagram</title>
<polygon fill="#ffffff" stroke="transparent" points="-4,4 -4,-427.2 776,-427.2 776,4 -4,4"/>
<text text-anchor="middle" x="72.4936" y="-7.3" font-family="Helvetica,sans-Serif" font-size="11.00" fill="#000000">Generated by SchemaSpy</text>
<!-- action_items -->
<g id="node1" class="node">
<title>action_items</title>
<g id="a_node1"><a xlink:href="../../tables/action_items.html" xlink:title="action_items" target="_top">
<polygon fill="#ffffff" stroke="transparent" points="587.5,-358.2 587.5,-419.2 718.5,-419.2 718.5,-358.2 587.5,-358.2"/>
<polygon fill="#f5f5f5" stroke="transparent" points="588,-395.7 588,-418.7 719,-418.7 719,-395.7 588,-395.7"/>
<polygon fill="none" stroke="#000000" points="588,-395.7 588,-418.7 719,-418.7 719,-395.7 588,-395.7"/>
<text text-anchor="start" x="593" y="-404.3" font-family="Helvetica,sans-Serif" font-weight="bold" font-size="11.00" fill="#000000">action_items</text>
<text text-anchor="start" x="684.5219" y="-403.8" font-family="Helvetica,sans-Serif" font-size="11.00" fill="#000000">[table]</text>
<polygon fill="none" stroke="#000000" points="588,-376.7 588,-395.7 719,-395.7 719,-376.7 588,-376.7"/>
<text text-anchor="start" x="591" y="-382.8" font-family="Helvetica,sans-Serif" font-size="11.00" fill="#000000">...</text>
<polygon fill="#ffffff" stroke="transparent" points="588,-357.7 588,-376.7 719,-376.7 719,-357.7 588,-357.7"/>
<polygon fill="none" stroke="#000000" points="588,-357.7 588,-376.7 719,-376.7 719,-357.7 588,-357.7"/>
<polygon fill="#ffffff" stroke="transparent" points="589,-358.7 589,-375.7 638,-375.7 638,-358.7 589,-358.7"/>
<text text-anchor="start" x="591" y="-363.8" font-family="Helvetica,sans-Serif" font-size="11.00" fill="#000000">&lt; 1</text>
<polygon fill="#ffffff" stroke="transparent" points="638,-358.7 638,-375.7 678,-375.7 678,-358.7 638,-358.7"/>
<text text-anchor="start" x="654.9431" y="-363.8" font-family="Helvetica,sans-Serif" font-size="11.00" fill="#000000"> &#160;</text>
<polygon fill="#ffffff" stroke="transparent" points="678,-358.7 678,-375.7 718,-375.7 718,-358.7 678,-358.7"/>
<text text-anchor="start" x="709.8862" y="-363.8" font-family="Helvetica,sans-Serif" font-size="11.00" fill="#000000"> &#160;</text>
<polygon fill="#000000" stroke="#000000" points="638,-358.7 638,-375.7 638,-375.7 638,-358.7 638,-358.7"/>
<polygon fill="#000000" stroke="#000000" points="678,-358.7 678,-375.7 678,-375.7 678,-358.7 678,-358.7"/>
</a>
</g>
</g>
<!-- summaries -->
<g id="node2" class="node">
<title>summaries</title>
<g id="a_node2"><a xlink:href="../../tables/summaries.html" xlink:title="summaries" target="_top">
<polygon fill="#ffffff" stroke="transparent" points="348,-135.2 348,-284.2 493,-284.2 493,-135.2 348,-135.2"/>
<polygon fill="#f5f5f5" stroke="transparent" points="348.5,-260.7 348.5,-283.7 493.5,-283.7 493.5,-260.7 348.5,-260.7"/>
<polygon fill="none" stroke="#000000" points="348.5,-260.7 348.5,-283.7 493.5,-283.7 493.5,-260.7 348.5,-260.7"/>
<text text-anchor="start" x="353.5" y="-269.3" font-family="Helvetica,sans-Serif" font-weight="bold" font-size="11.00" fill="#000000">summaries</text>
<text text-anchor="start" x="458.5437" y="-268.8" font-family="Helvetica,sans-Serif" font-size="11.00" fill="#000000">[table]</text>
<polygon fill="none" stroke="#000000" points="348.5,-238.7 348.5,-260.7 493.5,-260.7 493.5,-238.7 348.5,-238.7"/>
<image xlink:href="../../images/primaryKeys.png" width="11px" height="12px" preserveAspectRatio="xMinYMin meet" x="353.5" y="-255.7"/>
<text text-anchor="start" x="368.5" y="-245.8" font-family="Helvetica,sans-Serif" font-size="11.00" fill="#000000">id</text>
<polygon fill="#ffffff" stroke="transparent" points="348.5,-216.7 348.5,-238.7 493.5,-238.7 493.5,-216.7 348.5,-216.7"/>
<polygon fill="none" stroke="#000000" points="348.5,-216.7 348.5,-238.7 493.5,-238.7 493.5,-216.7 348.5,-216.7"/>
<text text-anchor="start" x="368.5" y="-223.8" font-family="Helvetica,sans-Serif" font-size="11.00" fill="#000000">content_hash</text>
<polygon fill="#ffffff" stroke="transparent" points="348.5,-194.7 348.5,-216.7 493.5,-216.7 493.5,-194.7 348.5,-194.7"/>
<polygon fill="none" stroke="#000000" points="348.5,-194.7 348.5,-216.7 493.5,-216.7 493.5,-194.7 348.5,-194.7"/>
<image xlink:href="../../images/foreignKeys.png" width="11px" height="12px" preserveAspectRatio="xMinYMin meet" x="353.5" y="-211.7"/>
<text text-anchor="start" x="368.5" y="-201.8" font-family="Helvetica,sans-Serif" font-size="11.00" fill="#000000">user_id</text>
<polygon fill="#ffffff" stroke="transparent" points="348.5,-172.7 348.5,-194.7 493.5,-194.7 493.5,-172.7 348.5,-172.7"/>
<polygon fill="none" stroke="#000000" points="348.5,-172.7 348.5,-194.7 493.5,-194.7 493.5,-172.7 348.5,-172.7"/>
<image xlink:href="../../images/foreignKeys.png" width="11px" height="12px" preserveAspectRatio="xMinYMin meet" x="353.5" y="-189.7"/>
<text text-anchor="start" x="368.5" y="-179.8" font-family="Helvetica,sans-Serif" font-size="11.00" fill="#000000">group_id</text>
<polygon fill="none" stroke="#000000" points="348.5,-153.7 348.5,-172.7 493.5,-172.7 493.5,-153.7 348.5,-153.7"/>
<text text-anchor="start" x="351.5" y="-159.8" font-family="Helvetica,sans-Serif" font-size="11.00" fill="#000000">...</text>
<polygon fill="#ffffff" stroke="transparent" points="348.5,-134.7 348.5,-153.7 493.5,-153.7 493.5,-134.7 348.5,-134.7"/>
<polygon fill="none" stroke="#000000" points="348.5,-134.7 348.5,-153.7 493.5,-153.7 493.5,-134.7 348.5,-134.7"/>
<polygon fill="#ffffff" stroke="transparent" points="349.5,-135.7 349.5,-152.7 400.5,-152.7 400.5,-135.7 349.5,-135.7"/>
<text text-anchor="start" x="351.5" y="-140.8" font-family="Helvetica,sans-Serif" font-size="11.00" fill="#000000">&lt; 2</text>
<polygon fill="#ffffff" stroke="transparent" points="400.5,-135.7 400.5,-152.7 442.5,-152.7 442.5,-135.7 400.5,-135.7"/>
<text text-anchor="start" x="418.4431" y="-140.8" font-family="Helvetica,sans-Serif" font-size="11.00" fill="#000000"> &#160;</text>
<polygon fill="#ffffff" stroke="transparent" points="442.5,-135.7 442.5,-152.7 492.5,-152.7 492.5,-135.7 442.5,-135.7"/>
<text text-anchor="start" x="474.9053" y="-140.8" font-family="Helvetica,sans-Serif" font-size="11.00" fill="#000000">4 &gt;</text>
<polygon fill="#000000" stroke="#000000" points="400.5,-135.7 400.5,-152.7 400.5,-152.7 400.5,-135.7 400.5,-135.7"/>
<polygon fill="#000000" stroke="#000000" points="442.5,-135.7 442.5,-152.7 442.5,-152.7 442.5,-135.7 442.5,-135.7"/>
</a>
</g>
</g>
<!-- action_items&#45;&gt;summaries -->
<g id="edge1" class="edge">
<title>action_items:w&#45;&gt;summaries:e</title>
<path fill="none" stroke="#000000" d="M573.4336,-384.093C555.7936,-379.6387 548.8238,-366.2298 534,-347.7 504.5592,-310.8988 540.6284,-249.7 493.5,-249.7"/>
<polygon fill="#000000" stroke="#000000" points="580.0482,-384.8227 587.6052,-389.2783 584.0241,-385.2613 588,-385.7 588,-385.7 588,-385.7 584.0241,-385.2613 588.3948,-382.1217 580.0482,-384.8227 580.0482,-384.8227"/>
<ellipse fill="none" stroke="#000000" cx="576.8675" cy="-384.4718" rx="3.2" ry="3.2"/>
</g>
<!-- summary_groups -->
<g id="node4" class="node">
<title>summary_groups</title>
<g id="a_node4"><a xlink:href="../../tables/summary_groups.html" xlink:title="summary_groups" target="_top">
<polygon fill="#ffffff" stroke="transparent" points="135,-138.2 135,-199.2 299,-199.2 299,-138.2 135,-138.2"/>
<polygon fill="#f5f5f5" stroke="transparent" points="135,-175.7 135,-198.7 299,-198.7 299,-175.7 135,-175.7"/>
<polygon fill="none" stroke="#000000" points="135,-175.7 135,-198.7 299,-198.7 299,-175.7 135,-175.7"/>
<text text-anchor="start" x="140" y="-184.3" font-family="Helvetica,sans-Serif" font-weight="bold" font-size="11.00" fill="#000000">summary_groups</text>
<text text-anchor="start" x="264.5219" y="-183.8" font-family="Helvetica,sans-Serif" font-size="11.00" fill="#000000">[table]</text>
<polygon fill="none" stroke="#000000" points="135,-156.7 135,-175.7 299,-175.7 299,-156.7 135,-156.7"/>
<text text-anchor="start" x="138" y="-162.8" font-family="Helvetica,sans-Serif" font-size="11.00" fill="#000000">...</text>
<polygon fill="#ffffff" stroke="transparent" points="135,-137.7 135,-156.7 299,-156.7 299,-137.7 135,-137.7"/>
<polygon fill="none" stroke="#000000" points="135,-137.7 135,-156.7 299,-156.7 299,-137.7 135,-137.7"/>
<polygon fill="#ffffff" stroke="transparent" points="136,-138.7 136,-155.7 193,-155.7 193,-138.7 136,-138.7"/>
<text text-anchor="start" x="138" y="-143.8" font-family="Helvetica,sans-Serif" font-size="11.00" fill="#000000">&lt; 1</text>
<polygon fill="#ffffff" stroke="transparent" points="193,-138.7 193,-155.7 241,-155.7 241,-138.7 193,-138.7"/>
<text text-anchor="start" x="213.9431" y="-143.8" font-family="Helvetica,sans-Serif" font-size="11.00" fill="#000000"> &#160;</text>
<polygon fill="#ffffff" stroke="transparent" points="241,-138.7 241,-155.7 298,-155.7 298,-138.7 241,-138.7"/>
<text text-anchor="start" x="280.4053" y="-143.8" font-family="Helvetica,sans-Serif" font-size="11.00" fill="#000000">1 &gt;</text>
<polygon fill="#000000" stroke="#000000" points="193,-138.7 193,-155.7 193,-155.7 193,-138.7 193,-138.7"/>
<polygon fill="#000000" stroke="#000000" points="241,-138.7 241,-155.7 241,-155.7 241,-138.7 241,-138.7"/>
</a>
</g>
</g>
<!-- summaries&#45;&gt;summary_groups -->
<g id="edge3" class="edge">
<title>summaries:w&#45;&gt;summary_groups:e</title>
<path fill="none" stroke="#000000" d="M334.1817,-180.8875C322.4545,-175.825 316.557,-165.7 299,-165.7"/>
<polygon fill="#000000" stroke="#000000" points="340.65,-182.158 347.8061,-187.2325 344.575,-182.929 348.5,-183.7 348.5,-183.7 348.5,-183.7 344.575,-182.929 349.1939,-180.1675 340.65,-182.158 340.65,-182.158"/>
<ellipse fill="none" stroke="#000000" cx="337.51" cy="-181.5412" rx="3.2" ry="3.2"/>
</g>
<!-- users -->
<g id="node5" class="node">
<title>users</title>
<g id="a_node5"><a xlink:href="../../tables/users.html" xlink:title="users" target="_top">
<polygon fill="#ffffff" stroke="transparent" points="8,-167.2 8,-228.2 86,-228.2 86,-167.2 8,-167.2"/>
<polygon fill="#f5f5f5" stroke="transparent" points="8,-204.7 8,-227.7 86,-227.7 86,-204.7 8,-204.7"/>
<polygon fill="none" stroke="#000000" points="8,-204.7 8,-227.7 86,-227.7 86,-204.7 8,-204.7"/>
<text text-anchor="start" x="13" y="-213.3" font-family="Helvetica,sans-Serif" font-weight="bold" font-size="11.00" fill="#000000">users</text>
<text text-anchor="start" x="51.5219" y="-212.8" font-family="Helvetica,sans-Serif" font-size="11.00" fill="#000000">[table]</text>
<polygon fill="none" stroke="#000000" points="8,-185.7 8,-204.7 86,-204.7 86,-185.7 8,-185.7"/>
<text text-anchor="start" x="11" y="-191.8" font-family="Helvetica,sans-Serif" font-size="11.00" fill="#000000">...</text>
<polygon fill="#ffffff" stroke="transparent" points="8,-166.7 8,-185.7 86,-185.7 86,-166.7 8,-166.7"/>
<polygon fill="none" stroke="#000000" points="8,-166.7 8,-185.7 86,-185.7 86,-166.7 8,-166.7"/>
<polygon fill="#ffffff" stroke="transparent" points="9,-167.7 9,-184.7 32,-184.7 32,-167.7 9,-167.7"/>
<text text-anchor="start" x="11" y="-172.8" font-family="Helvetica,sans-Serif" font-size="11.00" fill="#000000"> &#160;</text>
<polygon fill="#ffffff" stroke="transparent" points="32,-167.7 32,-184.7 54,-184.7 54,-167.7 32,-167.7"/>
<text text-anchor="start" x="39.9431" y="-172.8" font-family="Helvetica,sans-Serif" font-size="11.00" fill="#000000"> &#160;</text>
<polygon fill="#ffffff" stroke="transparent" points="54,-167.7 54,-184.7 85,-184.7 85,-167.7 54,-167.7"/>
<text text-anchor="start" x="67.4053" y="-172.8" font-family="Helvetica,sans-Serif" font-size="11.00" fill="#000000">4 &gt;</text>
<polygon fill="#000000" stroke="#000000" points="32,-167.7 32,-184.7 32,-184.7 32,-167.7 32,-167.7"/>
<polygon fill="#000000" stroke="#000000" points="54,-167.7 54,-184.7 54,-184.7 54,-167.7 54,-167.7"/>
</a>
</g>
</g>
<!-- summaries&#45;&gt;users -->
<g id="edge4" class="edge">
<title>summaries:w&#45;&gt;users:e</title>
<path fill="none" stroke="#000000" d="M334.1002,-206.4821C325.6707,-207.4646 319.58,-209.0951 307,-209.7 227.0923,-213.5421 205.773,-223.6573 127,-209.7 107.8941,-206.3147 105.4034,-194.7 86,-194.7"/>
<polygon fill="#000000" stroke="#000000" points="340.5118,-206.1339 348.6953,-209.2947 344.5059,-205.917 348.5,-205.7 348.5,-205.7 348.5,-205.7 344.5059,-205.917 348.3047,-202.1053 340.5118,-206.1339 340.5118,-206.1339"/>
<ellipse fill="none" stroke="#000000" cx="337.3165" cy="-206.3075" rx="3.2" ry="3.2"/>
</g>
<!-- decisions -->
<g id="node3" class="node">
<title>decisions</title>
<g id="a_node3"><a xlink:href="../../tables/decisions.html" xlink:title="decisions" target="_top">
<polygon fill="#ffffff" stroke="transparent" points="599.5,-276.2 599.5,-337.2 706.5,-337.2 706.5,-276.2 599.5,-276.2"/>
<polygon fill="#f5f5f5" stroke="transparent" points="600,-313.7 600,-336.7 707,-336.7 707,-313.7 600,-313.7"/>
<polygon fill="none" stroke="#000000" points="600,-313.7 600,-336.7 707,-336.7 707,-313.7 600,-313.7"/>
<text text-anchor="start" x="605" y="-322.3" font-family="Helvetica,sans-Serif" font-weight="bold" font-size="11.00" fill="#000000">decisions</text>
<text text-anchor="start" x="672.5219" y="-321.8" font-family="Helvetica,sans-Serif" font-size="11.00" fill="#000000">[table]</text>
<polygon fill="none" stroke="#000000" points="600,-294.7 600,-313.7 707,-313.7 707,-294.7 600,-294.7"/>
<text text-anchor="start" x="603" y="-300.8" font-family="Helvetica,sans-Serif" font-size="11.00" fill="#000000">...</text>
<polygon fill="#ffffff" stroke="transparent" points="600,-275.7 600,-294.7 707,-294.7 707,-275.7 600,-275.7"/>
<polygon fill="none" stroke="#000000" points="600,-275.7 600,-294.7 707,-294.7 707,-275.7 600,-275.7"/>
<polygon fill="#ffffff" stroke="transparent" points="601,-276.7 601,-293.7 642,-293.7 642,-276.7 601,-276.7"/>
<text text-anchor="start" x="603" y="-281.8" font-family="Helvetica,sans-Serif" font-size="11.00" fill="#000000">&lt; 1</text>
<polygon fill="#ffffff" stroke="transparent" points="642,-276.7 642,-293.7 674,-293.7 674,-276.7 642,-276.7"/>
<text text-anchor="start" x="654.9431" y="-281.8" font-family="Helvetica,sans-Serif" font-size="11.00" fill="#000000"> &#160;</text>
<polygon fill="#ffffff" stroke="transparent" points="674,-276.7 674,-293.7 706,-293.7 706,-276.7 674,-276.7"/>
<text text-anchor="start" x="697.8862" y="-281.8" font-family="Helvetica,sans-Serif" font-size="11.00" fill="#000000"> &#160;</text>
<polygon fill="#000000" stroke="#000000" points="642,-276.7 642,-293.7 642,-293.7 642,-276.7 642,-276.7"/>
<polygon fill="#000000" stroke="#000000" points="674,-276.7 674,-293.7 674,-293.7 674,-276.7 674,-276.7"/>
</a>
</g>
</g>
<!-- decisions&#45;&gt;summaries -->
<g id="edge2" class="edge">
<title>decisions:w&#45;&gt;summaries:e</title>
<path fill="none" stroke="#000000" d="M585.797,-300.1569C557.4247,-288.1434 515.889,-249.7 493.5,-249.7"/>
<polygon fill="#000000" stroke="#000000" points="592.2379,-301.7636 599.1286,-307.193 596.1189,-302.7318 600,-303.7 600,-303.7 600,-303.7 596.1189,-302.7318 600.8714,-300.207 592.2379,-301.7636 592.2379,-301.7636"/>
<ellipse fill="none" stroke="#000000" cx="589.133" cy="-300.9891" rx="3.2" ry="3.2"/>
</g>
<!-- summary_groups&#45;&gt;users -->
<g id="edge5" class="edge">
<title>summary_groups:w&#45;&gt;users:e</title>
<path fill="none" stroke="#000000" d="M120.9495,-169.7323C108.971,-177.7007 105.3749,-194.7 86,-194.7"/>
<polygon fill="#000000" stroke="#000000" points="127.3104,-167.9069 135.9931,-169.1603 131.1552,-166.8034 135,-165.7 135,-165.7 135,-165.7 131.1552,-166.8034 134.0069,-162.2397 127.3104,-167.9069 127.3104,-167.9069"/>
<ellipse fill="none" stroke="#000000" cx="124.2346" cy="-168.7896" rx="3.2" ry="3.2"/>
</g>
<!-- topics -->
<g id="node6" class="node">
<title>topics</title>
<g id="a_node6"><a xlink:href="../../tables/topics.html" xlink:title="topics" target="_top">
<polygon fill="#ffffff" stroke="transparent" points="542,-120.7 542,-254.7 764,-254.7 764,-120.7 542,-120.7"/>
<polygon fill="#f5f5f5" stroke="transparent" points="544,-229.7 544,-252.7 762,-252.7 762,-229.7 544,-229.7"/>
<polygon fill="none" stroke="#000000" points="544,-229.7 544,-252.7 762,-252.7 762,-229.7 544,-229.7"/>
<text text-anchor="start" x="549" y="-238.3" font-family="Helvetica,sans-Serif" font-weight="bold" font-size="11.00" fill="#000000">topics</text>
<text text-anchor="start" x="727.0437" y="-237.8" font-family="Helvetica,sans-Serif" font-size="11.00" fill="#000000">[table]</text>
<polygon fill="none" stroke="#000000" points="544,-207.7 544,-229.7 653,-229.7 653,-207.7 544,-207.7"/>
<image xlink:href="../../images/primaryKeys.png" width="11px" height="12px" preserveAspectRatio="xMinYMin meet" x="549" y="-224.7"/>
<text text-anchor="start" x="564" y="-214.8" font-family="Helvetica,sans-Serif" font-size="11.00" fill="#000000">id</text>
<polygon fill="none" stroke="#000000" points="653,-207.7 653,-229.7 762,-229.7 762,-207.7 653,-207.7"/>
<text text-anchor="start" x="656" y="-215.4" font-family="Helvetica,sans-Serif" font-size="11.00" fill="#000000">serial[10]</text>
<polygon fill="#ffffff" stroke="transparent" points="544,-185.7 544,-207.7 653,-207.7 653,-185.7 544,-185.7"/>
<polygon fill="none" stroke="#000000" points="544,-185.7 544,-207.7 653,-207.7 653,-185.7 544,-185.7"/>
<image xlink:href="../../images/foreignKeys.png" width="11px" height="12px" preserveAspectRatio="xMinYMin meet" x="549" y="-202.7"/>
<text text-anchor="start" x="564" y="-192.8" font-family="Helvetica,sans-Serif" font-size="11.00" fill="#000000">summary_id</text>
<polygon fill="none" stroke="#000000" points="653,-185.7 653,-207.7 762,-207.7 762,-185.7 653,-185.7"/>
<text text-anchor="start" x="656" y="-193.4" font-family="Helvetica,sans-Serif" font-size="11.00" fill="#000000">uuid[2147483647]</text>
<polygon fill="none" stroke="#000000" points="544,-163.7 544,-185.7 653,-185.7 653,-163.7 544,-163.7"/>
<text text-anchor="start" x="564" y="-170.8" font-family="Helvetica,sans-Serif" font-size="11.00" fill="#000000">title</text>
<polygon fill="none" stroke="#000000" points="653,-163.7 653,-185.7 762,-185.7 762,-163.7 653,-163.7"/>
<text text-anchor="start" x="655.5344" y="-171.4" font-family="Helvetica,sans-Serif" font-size="11.00" fill="#000000">varchar[2147483647]</text>
<polygon fill="none" stroke="#000000" points="544,-141.7 544,-163.7 653,-163.7 653,-141.7 544,-141.7"/>
<text text-anchor="start" x="564" y="-148.8" font-family="Helvetica,sans-Serif" font-size="11.00" fill="#000000">summary</text>
<polygon fill="none" stroke="#000000" points="653,-141.7 653,-163.7 762,-163.7 762,-141.7 653,-141.7"/>
<text text-anchor="start" x="655.5344" y="-149.4" font-family="Helvetica,sans-Serif" font-size="11.00" fill="#000000">varchar[2147483647]</text>
<polygon fill="#ffffff" stroke="transparent" points="544,-122.7 544,-141.7 762,-141.7 762,-122.7 544,-122.7"/>
<polygon fill="none" stroke="#000000" points="544,-122.7 544,-141.7 762,-141.7 762,-122.7 544,-122.7"/>
<polygon fill="#ffffff" stroke="transparent" points="545,-123.7 545,-140.7 620,-140.7 620,-123.7 545,-123.7"/>
<text text-anchor="start" x="547" y="-128.8" font-family="Helvetica,sans-Serif" font-size="11.00" fill="#000000">&lt; 1</text>
<polygon fill="#ffffff" stroke="transparent" points="620,-123.7 620,-140.7 686,-140.7 686,-123.7 620,-123.7"/>
<text text-anchor="start" x="649.9431" y="-128.8" font-family="Helvetica,sans-Serif" font-size="11.00" fill="#000000"> &#160;</text>
<polygon fill="#ffffff" stroke="transparent" points="686,-123.7 686,-140.7 761,-140.7 761,-123.7 686,-123.7"/>
<text text-anchor="start" x="743.4053" y="-128.8" font-family="Helvetica,sans-Serif" font-size="11.00" fill="#000000">0 &gt;</text>
<polygon fill="#000000" stroke="#000000" points="620,-123.7 620,-140.7 620,-140.7 620,-123.7 620,-123.7"/>
<polygon fill="#000000" stroke="#000000" points="686,-123.7 686,-140.7 686,-140.7 686,-123.7 686,-123.7"/>
<polygon fill="none" stroke="#000000" stroke-width="2" points="543,-121.7 543,-253.7 763,-253.7 763,-121.7 543,-121.7"/>
</a>
</g>
</g>
<!-- topics&#45;&gt;summaries -->
<g id="edge6" class="edge">
<title>topics:w&#45;&gt;summaries:e</title>
<path fill="none" stroke="#000000" d="M530.0458,-201.5911C515.2722,-214.7117 519.9358,-249.7 493.5,-249.7"/>
<polygon fill="#000000" stroke="#000000" points="536.4503,-199.3463 545.1908,-200.0974 540.2252,-198.0231 544,-196.7 544,-196.7 544,-196.7 540.2252,-198.0231 542.8092,-193.3026 536.4503,-199.3463 536.4503,-199.3463"/>
<ellipse fill="none" stroke="#000000" cx="533.4305" cy="-200.4048" rx="3.2" ry="3.2"/>
</g>
<!-- transcript_segments -->
<g id="node7" class="node">
<title>transcript_segments</title>
<g id="a_node7"><a xlink:href="../../tables/transcript_segments.html" xlink:title="transcript_segments" target="_top">
<polygon fill="#ffffff" stroke="transparent" points="558.5,-38.2 558.5,-99.2 747.5,-99.2 747.5,-38.2 558.5,-38.2"/>
<polygon fill="#f5f5f5" stroke="transparent" points="559,-75.7 559,-98.7 748,-98.7 748,-75.7 559,-75.7"/>
<polygon fill="none" stroke="#000000" points="559,-75.7 559,-98.7 748,-98.7 748,-75.7 559,-75.7"/>
<text text-anchor="start" x="564" y="-84.3" font-family="Helvetica,sans-Serif" font-weight="bold" font-size="11.00" fill="#000000">transcript_segments</text>
<text text-anchor="start" x="713.5219" y="-83.8" font-family="Helvetica,sans-Serif" font-size="11.00" fill="#000000">[table]</text>
<polygon fill="none" stroke="#000000" points="559,-56.7 559,-75.7 748,-75.7 748,-56.7 559,-56.7"/>
<text text-anchor="start" x="562" y="-62.8" font-family="Helvetica,sans-Serif" font-size="11.00" fill="#000000">...</text>
<polygon fill="#ffffff" stroke="transparent" points="559,-37.7 559,-56.7 748,-56.7 748,-37.7 559,-37.7"/>
<polygon fill="none" stroke="#000000" points="559,-37.7 559,-56.7 748,-56.7 748,-37.7 559,-37.7"/>
<polygon fill="#ffffff" stroke="transparent" points="560,-38.7 560,-55.7 629,-55.7 629,-38.7 560,-38.7"/>
<text text-anchor="start" x="562" y="-43.8" font-family="Helvetica,sans-Serif" font-size="11.00" fill="#000000">&lt; 1</text>
<polygon fill="#ffffff" stroke="transparent" points="629,-38.7 629,-55.7 688,-55.7 688,-38.7 629,-38.7"/>
<text text-anchor="start" x="655.4431" y="-43.8" font-family="Helvetica,sans-Serif" font-size="11.00" fill="#000000"> &#160;</text>
<polygon fill="#ffffff" stroke="transparent" points="688,-38.7 688,-55.7 747,-55.7 747,-38.7 688,-38.7"/>
<text text-anchor="start" x="738.8862" y="-43.8" font-family="Helvetica,sans-Serif" font-size="11.00" fill="#000000"> &#160;</text>
<polygon fill="#000000" stroke="#000000" points="629,-38.7 629,-55.7 629,-55.7 629,-38.7 629,-38.7"/>
<polygon fill="#000000" stroke="#000000" points="688,-38.7 688,-55.7 688,-55.7 688,-38.7 688,-38.7"/>
</a>
</g>
</g>
<!-- transcript_segments&#45;&gt;summaries -->
<g id="edge7" class="edge">
<title>transcript_segments:w&#45;&gt;summaries:e</title>
<path fill="none" stroke="#000000" d="M544.5403,-67.8946C485.3215,-88.6544 574.7099,-249.7 493.5,-249.7"/>
<polygon fill="#000000" stroke="#000000" points="551.0906,-66.9005 559.5402,-69.2592 555.0453,-66.3002 559,-65.7 559,-65.7 559,-65.7 555.0453,-66.3002 558.4598,-62.1408 551.0906,-66.9005 551.0906,-66.9005"/>
<ellipse fill="none" stroke="#000000" cx="547.9268" cy="-67.3807" rx="3.2" ry="3.2"/>
</g>
</g>
</svg>
