<?xml version="1.0" encoding="UTF-8" standalone="no"?>
<!DOCTYPE svg PUBLIC "-//W3C//DTD SVG 1.1//EN"
 "http://www.w3.org/Graphics/SVG/1.1/DTD/svg11.dtd">
<!-- Generated by graphviz version 2.40.1 (20161225.0304)
 -->
<!-- Title: twoDegreesRelationshipsDiagram Pages: 1 -->
<svg width="842pt" height="497pt"
 viewBox="0.00 0.00 842.00 496.70" xmlns="http://www.w3.org/2000/svg" xmlns:xlink="http://www.w3.org/1999/xlink">
<g id="graph0" class="graph" transform="scale(1 1) rotate(0) translate(4 492.7)">
<title>twoDegreesRelationshipsDiagram</title>
<polygon fill="#ffffff" stroke="transparent" points="-4,4 -4,-492.7 838,-492.7 838,4 -4,4"/>
<text text-anchor="middle" x="72.4936" y="-7.3" font-family="Helvetica,sans-Serif" font-size="11.00" fill="#000000">Generated by SchemaSpy</text>
<!-- action_items -->
<g id="node1" class="node">
<title>action_items</title>
<g id="a_node1"><a xlink:href="../../tables/action_items.html" xlink:title="action_items" target="_top">
<polygon fill="#ffffff" stroke="transparent" points="618.5,-423.7 618.5,-484.7 749.5,-484.7 749.5,-423.7 618.5,-423.7"/>
<polygon fill="#f5f5f5" stroke="transparent" points="619,-461.2 619,-484.2 750,-484.2 750,-461.2 619,-461.2"/>
<polygon fill="none" stroke="#000000" points="619,-461.2 619,-484.2 750,-484.2 750,-461.2 619,-461.2"/>
<text text-anchor="start" x="624" y="-469.8" font-family="Helvetica,sans-Serif" font-weight="bold" font-size="11.00" fill="#000000">action_items</text>
<text text-anchor="start" x="715.5219" y="-469.3" font-family="Helvetica,sans-Serif" font-size="11.00" fill="#000000">[table]</text>
<polygon fill="none" stroke="#000000" points="619,-442.2 619,-461.2 750,-461.2 750,-442.2 619,-442.2"/>
<text text-anchor="start" x="622" y="-448.3" font-family="Helvetica,sans-Serif" font-size="11.00" fill="#000000">...</text>
<polygon fill="#ffffff" stroke="transparent" points="619,-423.2 619,-442.2 750,-442.2 750,-423.2 619,-423.2"/>
<polygon fill="none" stroke="#000000" points="619,-423.2 619,-442.2 750,-442.2 750,-423.2 619,-423.2"/>
<polygon fill="#ffffff" stroke="transparent" points="620,-424.2 620,-441.2 669,-441.2 669,-424.2 620,-424.2"/>
<text text-anchor="start" x="622" y="-429.3" font-family="Helvetica,sans-Serif" font-size="11.00" fill="#000000">&lt; 1</text>
<polygon fill="#ffffff" stroke="transparent" points="669,-424.2 669,-441.2 709,-441.2 709,-424.2 669,-424.2"/>
<text text-anchor="start" x="685.9431" y="-429.3" font-family="Helvetica,sans-Serif" font-size="11.00" fill="#000000"> &#160;</text>
<polygon fill="#ffffff" stroke="transparent" points="709,-424.2 709,-441.2 749,-441.2 749,-424.2 709,-424.2"/>
<text text-anchor="start" x="740.8862" y="-429.3" font-family="Helvetica,sans-Serif" font-size="11.00" fill="#000000"> &#160;</text>
<polygon fill="#000000" stroke="#000000" points="669,-424.2 669,-441.2 669,-441.2 669,-424.2 669,-424.2"/>
<polygon fill="#000000" stroke="#000000" points="709,-424.2 709,-441.2 709,-441.2 709,-424.2 709,-424.2"/>
</a>
</g>
</g>
<!-- summaries -->
<g id="node2" class="node">
<title>summaries</title>
<g id="a_node2"><a xlink:href="../../tables/summaries.html" xlink:title="summaries" target="_top">
<polygon fill="#ffffff" stroke="transparent" points="348,-213.7 348,-362.7 493,-362.7 493,-213.7 348,-213.7"/>
<polygon fill="#f5f5f5" stroke="transparent" points="348.5,-339.2 348.5,-362.2 493.5,-362.2 493.5,-339.2 348.5,-339.2"/>
<polygon fill="none" stroke="#000000" points="348.5,-339.2 348.5,-362.2 493.5,-362.2 493.5,-339.2 348.5,-339.2"/>
<text text-anchor="start" x="353.5" y="-347.8" font-family="Helvetica,sans-Serif" font-weight="bold" font-size="11.00" fill="#000000">summaries</text>
<text text-anchor="start" x="458.5437" y="-347.3" font-family="Helvetica,sans-Serif" font-size="11.00" fill="#000000">[table]</text>
<polygon fill="none" stroke="#000000" points="348.5,-317.2 348.5,-339.2 493.5,-339.2 493.5,-317.2 348.5,-317.2"/>
<image xlink:href="../../images/primaryKeys.png" width="11px" height="12px" preserveAspectRatio="xMinYMin meet" x="353.5" y="-334.2"/>
<text text-anchor="start" x="368.5" y="-324.3" font-family="Helvetica,sans-Serif" font-size="11.00" fill="#000000">id</text>
<polygon fill="#ffffff" stroke="transparent" points="348.5,-295.2 348.5,-317.2 493.5,-317.2 493.5,-295.2 348.5,-295.2"/>
<polygon fill="none" stroke="#000000" points="348.5,-295.2 348.5,-317.2 493.5,-317.2 493.5,-295.2 348.5,-295.2"/>
<text text-anchor="start" x="368.5" y="-302.3" font-family="Helvetica,sans-Serif" font-size="11.00" fill="#000000">content_hash</text>
<polygon fill="#ffffff" stroke="transparent" points="348.5,-273.2 348.5,-295.2 493.5,-295.2 493.5,-273.2 348.5,-273.2"/>
<polygon fill="none" stroke="#000000" points="348.5,-273.2 348.5,-295.2 493.5,-295.2 493.5,-273.2 348.5,-273.2"/>
<image xlink:href="../../images/foreignKeys.png" width="11px" height="12px" preserveAspectRatio="xMinYMin meet" x="353.5" y="-290.2"/>
<text text-anchor="start" x="368.5" y="-280.3" font-family="Helvetica,sans-Serif" font-size="11.00" fill="#000000">user_id</text>
<polygon fill="#ffffff" stroke="transparent" points="348.5,-251.2 348.5,-273.2 493.5,-273.2 493.5,-251.2 348.5,-251.2"/>
<polygon fill="none" stroke="#000000" points="348.5,-251.2 348.5,-273.2 493.5,-273.2 493.5,-251.2 348.5,-251.2"/>
<image xlink:href="../../images/foreignKeys.png" width="11px" height="12px" preserveAspectRatio="xMinYMin meet" x="353.5" y="-268.2"/>
<text text-anchor="start" x="368.5" y="-258.3" font-family="Helvetica,sans-Serif" font-size="11.00" fill="#000000">group_id</text>
<polygon fill="none" stroke="#000000" points="348.5,-232.2 348.5,-251.2 493.5,-251.2 493.5,-232.2 348.5,-232.2"/>
<text text-anchor="start" x="351.5" y="-238.3" font-family="Helvetica,sans-Serif" font-size="11.00" fill="#000000">...</text>
<polygon fill="#ffffff" stroke="transparent" points="348.5,-213.2 348.5,-232.2 493.5,-232.2 493.5,-213.2 348.5,-213.2"/>
<polygon fill="none" stroke="#000000" points="348.5,-213.2 348.5,-232.2 493.5,-232.2 493.5,-213.2 348.5,-213.2"/>
<polygon fill="#ffffff" stroke="transparent" points="349.5,-214.2 349.5,-231.2 400.5,-231.2 400.5,-214.2 349.5,-214.2"/>
<text text-anchor="start" x="351.5" y="-219.3" font-family="Helvetica,sans-Serif" font-size="11.00" fill="#000000">&lt; 2</text>
<polygon fill="#ffffff" stroke="transparent" points="400.5,-214.2 400.5,-231.2 442.5,-231.2 442.5,-214.2 400.5,-214.2"/>
<text text-anchor="start" x="418.4431" y="-219.3" font-family="Helvetica,sans-Serif" font-size="11.00" fill="#000000"> &#160;</text>
<polygon fill="#ffffff" stroke="transparent" points="442.5,-214.2 442.5,-231.2 492.5,-231.2 492.5,-214.2 442.5,-214.2"/>
<text text-anchor="start" x="474.9053" y="-219.3" font-family="Helvetica,sans-Serif" font-size="11.00" fill="#000000">4 &gt;</text>
<polygon fill="#000000" stroke="#000000" points="400.5,-214.2 400.5,-231.2 400.5,-231.2 400.5,-214.2 400.5,-214.2"/>
<polygon fill="#000000" stroke="#000000" points="442.5,-214.2 442.5,-231.2 442.5,-231.2 442.5,-214.2 442.5,-214.2"/>
</a>
</g>
</g>
<!-- action_items&#45;&gt;summaries -->
<g id="edge1" class="edge">
<title>action_items:w&#45;&gt;summaries:e</title>
<path fill="none" stroke="#000000" d="M604.2698,-450.7236C573.7487,-448.5258 559.796,-438.3781 534,-413.2 504.0533,-383.9706 535.3469,-328.2 493.5,-328.2"/>
<polygon fill="#000000" stroke="#000000" points="611.0042,-450.9414 618.8836,-454.7981 615.0021,-451.0707 619,-451.2 619,-451.2 619,-451.2 615.0021,-451.0707 619.1164,-447.6019 611.0042,-450.9414 611.0042,-450.9414"/>
<ellipse fill="none" stroke="#000000" cx="607.8059" cy="-450.8379" rx="3.2" ry="3.2"/>
</g>
<!-- summary_groups -->
<g id="node4" class="node">
<title>summary_groups</title>
<g id="a_node4"><a xlink:href="../../tables/summary_groups.html" xlink:title="summary_groups" target="_top">
<polygon fill="#ffffff" stroke="transparent" points="135,-216.7 135,-277.7 299,-277.7 299,-216.7 135,-216.7"/>
<polygon fill="#f5f5f5" stroke="transparent" points="135,-254.2 135,-277.2 299,-277.2 299,-254.2 135,-254.2"/>
<polygon fill="none" stroke="#000000" points="135,-254.2 135,-277.2 299,-277.2 299,-254.2 135,-254.2"/>
<text text-anchor="start" x="140" y="-262.8" font-family="Helvetica,sans-Serif" font-weight="bold" font-size="11.00" fill="#000000">summary_groups</text>
<text text-anchor="start" x="264.5219" y="-262.3" font-family="Helvetica,sans-Serif" font-size="11.00" fill="#000000">[table]</text>
<polygon fill="none" stroke="#000000" points="135,-235.2 135,-254.2 299,-254.2 299,-235.2 135,-235.2"/>
<text text-anchor="start" x="138" y="-241.3" font-family="Helvetica,sans-Serif" font-size="11.00" fill="#000000">...</text>
<polygon fill="#ffffff" stroke="transparent" points="135,-216.2 135,-235.2 299,-235.2 299,-216.2 135,-216.2"/>
<polygon fill="none" stroke="#000000" points="135,-216.2 135,-235.2 299,-235.2 299,-216.2 135,-216.2"/>
<polygon fill="#ffffff" stroke="transparent" points="136,-217.2 136,-234.2 193,-234.2 193,-217.2 136,-217.2"/>
<text text-anchor="start" x="138" y="-222.3" font-family="Helvetica,sans-Serif" font-size="11.00" fill="#000000">&lt; 1</text>
<polygon fill="#ffffff" stroke="transparent" points="193,-217.2 193,-234.2 241,-234.2 241,-217.2 193,-217.2"/>
<text text-anchor="start" x="213.9431" y="-222.3" font-family="Helvetica,sans-Serif" font-size="11.00" fill="#000000"> &#160;</text>
<polygon fill="#ffffff" stroke="transparent" points="241,-217.2 241,-234.2 298,-234.2 298,-217.2 241,-217.2"/>
<text text-anchor="start" x="280.4053" y="-222.3" font-family="Helvetica,sans-Serif" font-size="11.00" fill="#000000">1 &gt;</text>
<polygon fill="#000000" stroke="#000000" points="193,-217.2 193,-234.2 193,-234.2 193,-217.2 193,-217.2"/>
<polygon fill="#000000" stroke="#000000" points="241,-217.2 241,-234.2 241,-234.2 241,-217.2 241,-217.2"/>
</a>
</g>
</g>
<!-- summaries&#45;&gt;summary_groups -->
<g id="edge3" class="edge">
<title>summaries:w&#45;&gt;summary_groups:e</title>
<path fill="none" stroke="#000000" d="M334.1817,-259.3875C322.4545,-254.325 316.557,-244.2 299,-244.2"/>
<polygon fill="#000000" stroke="#000000" points="340.65,-260.658 347.8061,-265.7325 344.575,-261.429 348.5,-262.2 348.5,-262.2 348.5,-262.2 344.575,-261.429 349.1939,-258.6675 340.65,-260.658 340.65,-260.658"/>
<ellipse fill="none" stroke="#000000" cx="337.51" cy="-260.0412" rx="3.2" ry="3.2"/>
</g>
<!-- users -->
<g id="node5" class="node">
<title>users</title>
<g id="a_node5"><a xlink:href="../../tables/users.html" xlink:title="users" target="_top">
<polygon fill="#ffffff" stroke="transparent" points="8,-245.7 8,-306.7 86,-306.7 86,-245.7 8,-245.7"/>
<polygon fill="#f5f5f5" stroke="transparent" points="8,-283.2 8,-306.2 86,-306.2 86,-283.2 8,-283.2"/>
<polygon fill="none" stroke="#000000" points="8,-283.2 8,-306.2 86,-306.2 86,-283.2 8,-283.2"/>
<text text-anchor="start" x="13" y="-291.8" font-family="Helvetica,sans-Serif" font-weight="bold" font-size="11.00" fill="#000000">users</text>
<text text-anchor="start" x="51.5219" y="-291.3" font-family="Helvetica,sans-Serif" font-size="11.00" fill="#000000">[table]</text>
<polygon fill="none" stroke="#000000" points="8,-264.2 8,-283.2 86,-283.2 86,-264.2 8,-264.2"/>
<text text-anchor="start" x="11" y="-270.3" font-family="Helvetica,sans-Serif" font-size="11.00" fill="#000000">...</text>
<polygon fill="#ffffff" stroke="transparent" points="8,-245.2 8,-264.2 86,-264.2 86,-245.2 8,-245.2"/>
<polygon fill="none" stroke="#000000" points="8,-245.2 8,-264.2 86,-264.2 86,-245.2 8,-245.2"/>
<polygon fill="#ffffff" stroke="transparent" points="9,-246.2 9,-263.2 32,-263.2 32,-246.2 9,-246.2"/>
<text text-anchor="start" x="11" y="-251.3" font-family="Helvetica,sans-Serif" font-size="11.00" fill="#000000"> &#160;</text>
<polygon fill="#ffffff" stroke="transparent" points="32,-246.2 32,-263.2 54,-263.2 54,-246.2 32,-246.2"/>
<text text-anchor="start" x="39.9431" y="-251.3" font-family="Helvetica,sans-Serif" font-size="11.00" fill="#000000"> &#160;</text>
<polygon fill="#ffffff" stroke="transparent" points="54,-246.2 54,-263.2 85,-263.2 85,-246.2 54,-246.2"/>
<text text-anchor="start" x="67.4053" y="-251.3" font-family="Helvetica,sans-Serif" font-size="11.00" fill="#000000">4 &gt;</text>
<polygon fill="#000000" stroke="#000000" points="32,-246.2 32,-263.2 32,-263.2 32,-246.2 32,-246.2"/>
<polygon fill="#000000" stroke="#000000" points="54,-246.2 54,-263.2 54,-263.2 54,-246.2 54,-246.2"/>
</a>
</g>
</g>
<!-- summaries&#45;&gt;users -->
<g id="edge4" class="edge">
<title>summaries:w&#45;&gt;users:e</title>
<path fill="none" stroke="#000000" d="M334.1002,-284.9821C325.6707,-285.9646 319.58,-287.5951 307,-288.2 227.0923,-292.0421 205.773,-302.1573 127,-288.2 107.8941,-284.8147 105.4034,-273.2 86,-273.2"/>
<polygon fill="#000000" stroke="#000000" points="340.5118,-284.6339 348.6953,-287.7947 344.5059,-284.417 348.5,-284.2 348.5,-284.2 348.5,-284.2 344.5059,-284.417 348.3047,-280.6053 340.5118,-284.6339 340.5118,-284.6339"/>
<ellipse fill="none" stroke="#000000" cx="337.3165" cy="-284.8075" rx="3.2" ry="3.2"/>
</g>
<!-- decisions -->
<g id="node3" class="node">
<title>decisions</title>
<g id="a_node3"><a xlink:href="../../tables/decisions.html" xlink:title="decisions" target="_top">
<polygon fill="#ffffff" stroke="transparent" points="630.5,-341.7 630.5,-402.7 737.5,-402.7 737.5,-341.7 630.5,-341.7"/>
<polygon fill="#f5f5f5" stroke="transparent" points="631,-379.2 631,-402.2 738,-402.2 738,-379.2 631,-379.2"/>
<polygon fill="none" stroke="#000000" points="631,-379.2 631,-402.2 738,-402.2 738,-379.2 631,-379.2"/>
<text text-anchor="start" x="636" y="-387.8" font-family="Helvetica,sans-Serif" font-weight="bold" font-size="11.00" fill="#000000">decisions</text>
<text text-anchor="start" x="703.5219" y="-387.3" font-family="Helvetica,sans-Serif" font-size="11.00" fill="#000000">[table]</text>
<polygon fill="none" stroke="#000000" points="631,-360.2 631,-379.2 738,-379.2 738,-360.2 631,-360.2"/>
<text text-anchor="start" x="634" y="-366.3" font-family="Helvetica,sans-Serif" font-size="11.00" fill="#000000">...</text>
<polygon fill="#ffffff" stroke="transparent" points="631,-341.2 631,-360.2 738,-360.2 738,-341.2 631,-341.2"/>
<polygon fill="none" stroke="#000000" points="631,-341.2 631,-360.2 738,-360.2 738,-341.2 631,-341.2"/>
<polygon fill="#ffffff" stroke="transparent" points="632,-342.2 632,-359.2 673,-359.2 673,-342.2 632,-342.2"/>
<text text-anchor="start" x="634" y="-347.3" font-family="Helvetica,sans-Serif" font-size="11.00" fill="#000000">&lt; 1</text>
<polygon fill="#ffffff" stroke="transparent" points="673,-342.2 673,-359.2 705,-359.2 705,-342.2 673,-342.2"/>
<text text-anchor="start" x="685.9431" y="-347.3" font-family="Helvetica,sans-Serif" font-size="11.00" fill="#000000"> &#160;</text>
<polygon fill="#ffffff" stroke="transparent" points="705,-342.2 705,-359.2 737,-359.2 737,-342.2 705,-342.2"/>
<text text-anchor="start" x="728.8862" y="-347.3" font-family="Helvetica,sans-Serif" font-size="11.00" fill="#000000"> &#160;</text>
<polygon fill="#000000" stroke="#000000" points="673,-342.2 673,-359.2 673,-359.2 673,-342.2 673,-342.2"/>
<polygon fill="#000000" stroke="#000000" points="705,-342.2 705,-359.2 705,-359.2 705,-342.2 705,-342.2"/>
</a>
</g>
</g>
<!-- decisions&#45;&gt;summaries -->
<g id="edge2" class="edge">
<title>decisions:w&#45;&gt;summaries:e</title>
<path fill="none" stroke="#000000" d="M616.3335,-368.4176C565.2338,-362.7493 552.0389,-328.2 493.5,-328.2"/>
<polygon fill="#000000" stroke="#000000" points="623.0114,-368.7738 630.8082,-372.7949 627.0057,-368.9869 631,-369.2 631,-369.2 631,-369.2 627.0057,-368.9869 631.1918,-365.6051 623.0114,-368.7738 623.0114,-368.7738"/>
<ellipse fill="none" stroke="#000000" cx="619.8159" cy="-368.6033" rx="3.2" ry="3.2"/>
</g>
<!-- summary_groups&#45;&gt;users -->
<g id="edge5" class="edge">
<title>summary_groups:w&#45;&gt;users:e</title>
<path fill="none" stroke="#000000" d="M120.9495,-248.2323C108.971,-256.2007 105.3749,-273.2 86,-273.2"/>
<polygon fill="#000000" stroke="#000000" points="127.3104,-246.4069 135.9931,-247.6603 131.1552,-245.3034 135,-244.2 135,-244.2 135,-244.2 131.1552,-245.3034 134.0069,-240.7397 127.3104,-246.4069 127.3104,-246.4069"/>
<ellipse fill="none" stroke="#000000" cx="124.2346" cy="-247.2896" rx="3.2" ry="3.2"/>
</g>
<!-- topics -->
<g id="node6" class="node">
<title>topics</title>
<g id="a_node6"><a xlink:href="../../tables/topics.html" xlink:title="topics" target="_top">
<polygon fill="#ffffff" stroke="transparent" points="642.5,-259.7 642.5,-320.7 725.5,-320.7 725.5,-259.7 642.5,-259.7"/>
<polygon fill="#f5f5f5" stroke="transparent" points="643,-297.2 643,-320.2 726,-320.2 726,-297.2 643,-297.2"/>
<polygon fill="none" stroke="#000000" points="643,-297.2 643,-320.2 726,-320.2 726,-297.2 643,-297.2"/>
<text text-anchor="start" x="648" y="-305.8" font-family="Helvetica,sans-Serif" font-weight="bold" font-size="11.00" fill="#000000">topics</text>
<text text-anchor="start" x="691.5219" y="-305.3" font-family="Helvetica,sans-Serif" font-size="11.00" fill="#000000">[table]</text>
<polygon fill="none" stroke="#000000" points="643,-278.2 643,-297.2 726,-297.2 726,-278.2 643,-278.2"/>
<text text-anchor="start" x="646" y="-284.3" font-family="Helvetica,sans-Serif" font-size="11.00" fill="#000000">...</text>
<polygon fill="#ffffff" stroke="transparent" points="643,-259.2 643,-278.2 726,-278.2 726,-259.2 643,-259.2"/>
<polygon fill="none" stroke="#000000" points="643,-259.2 643,-278.2 726,-278.2 726,-259.2 643,-259.2"/>
<polygon fill="#ffffff" stroke="transparent" points="644,-260.2 644,-277.2 677,-277.2 677,-260.2 644,-260.2"/>
<text text-anchor="start" x="646" y="-265.3" font-family="Helvetica,sans-Serif" font-size="11.00" fill="#000000">&lt; 1</text>
<polygon fill="#ffffff" stroke="transparent" points="677,-260.2 677,-277.2 701,-277.2 701,-260.2 677,-260.2"/>
<text text-anchor="start" x="685.9431" y="-265.3" font-family="Helvetica,sans-Serif" font-size="11.00" fill="#000000"> &#160;</text>
<polygon fill="#ffffff" stroke="transparent" points="701,-260.2 701,-277.2 725,-277.2 725,-260.2 701,-260.2"/>
<text text-anchor="start" x="716.8862" y="-265.3" font-family="Helvetica,sans-Serif" font-size="11.00" fill="#000000"> &#160;</text>
<polygon fill="#000000" stroke="#000000" points="677,-260.2 677,-277.2 677,-277.2 677,-260.2 677,-260.2"/>
<polygon fill="#000000" stroke="#000000" points="701,-260.2 701,-277.2 701,-277.2 701,-260.2 701,-260.2"/>
</a>
</g>
</g>
<!-- topics&#45;&gt;summaries -->
<g id="edge6" class="edge">
<title>topics:w&#45;&gt;summaries:e</title>
<path fill="none" stroke="#000000" d="M628.5578,-287.844C572.0497,-293.0601 557.2843,-328.2 493.5,-328.2"/>
<polygon fill="#000000" stroke="#000000" points="635.0079,-287.5564 643.1604,-290.7964 639.004,-287.3782 643,-287.2 643,-287.2 643,-287.2 639.004,-287.3782 642.8396,-283.6036 635.0079,-287.5564 635.0079,-287.5564"/>
<ellipse fill="none" stroke="#000000" cx="631.8111" cy="-287.699" rx="3.2" ry="3.2"/>
</g>
<!-- transcript_segments -->
<g id="node7" class="node">
<title>transcript_segments</title>
<g id="a_node7"><a xlink:href="../../tables/transcript_segments.html" xlink:title="transcript_segments" target="_top">
<polygon fill="#ffffff" stroke="transparent" points="542,-38.2 542,-238.2 826,-238.2 826,-38.2 542,-38.2"/>
<polygon fill="#f5f5f5" stroke="transparent" points="544,-213.2 544,-236.2 824,-236.2 824,-213.2 544,-213.2"/>
<polygon fill="none" stroke="#000000" points="544,-213.2 544,-236.2 824,-236.2 824,-213.2 544,-213.2"/>
<text text-anchor="start" x="549" y="-221.8" font-family="Helvetica,sans-Serif" font-weight="bold" font-size="11.00" fill="#000000">transcript_segments</text>
<text text-anchor="start" x="789.0437" y="-221.3" font-family="Helvetica,sans-Serif" font-size="11.00" fill="#000000">[table]</text>
<polygon fill="none" stroke="#000000" points="544,-191.2 544,-213.2 715,-213.2 715,-191.2 544,-191.2"/>
<image xlink:href="../../images/primaryKeys.png" width="11px" height="12px" preserveAspectRatio="xMinYMin meet" x="549" y="-208.2"/>
<text text-anchor="start" x="564" y="-198.3" font-family="Helvetica,sans-Serif" font-size="11.00" fill="#000000">id</text>
<polygon fill="none" stroke="#000000" points="715,-191.2 715,-213.2 824,-213.2 824,-191.2 715,-191.2"/>
<text text-anchor="start" x="718" y="-198.9" font-family="Helvetica,sans-Serif" font-size="11.00" fill="#000000">bigserial[19]</text>
<polygon fill="#ffffff" stroke="transparent" points="544,-169.2 544,-191.2 715,-191.2 715,-169.2 544,-169.2"/>
<polygon fill="none" stroke="#000000" points="544,-169.2 544,-191.2 715,-191.2 715,-169.2 544,-169.2"/>
<image xlink:href="../../images/foreignKeys.png" width="11px" height="12px" preserveAspectRatio="xMinYMin meet" x="549" y="-186.2"/>
<text text-anchor="start" x="564" y="-176.3" font-family="Helvetica,sans-Serif" font-size="11.00" fill="#000000">summary_id</text>
<polygon fill="none" stroke="#000000" points="715,-169.2 715,-191.2 824,-191.2 824,-169.2 715,-169.2"/>
<text text-anchor="start" x="718" y="-176.9" font-family="Helvetica,sans-Serif" font-size="11.00" fill="#000000">uuid[2147483647]</text>
<polygon fill="none" stroke="#000000" points="544,-147.2 544,-169.2 715,-169.2 715,-147.2 544,-147.2"/>
<text text-anchor="start" x="564" y="-154.3" font-family="Helvetica,sans-Serif" font-size="11.00" fill="#000000">speaker_label</text>
<polygon fill="none" stroke="#000000" points="715,-147.2 715,-169.2 824,-169.2 824,-147.2 715,-147.2"/>
<text text-anchor="start" x="718" y="-154.9" font-family="Helvetica,sans-Serif" font-size="11.00" fill="#000000">varchar[64]</text>
<polygon fill="none" stroke="#000000" points="544,-125.2 544,-147.2 715,-147.2 715,-125.2 544,-125.2"/>
<text text-anchor="start" x="564" y="-132.3" font-family="Helvetica,sans-Serif" font-size="11.00" fill="#000000">start_ms</text>
<polygon fill="none" stroke="#000000" points="715,-125.2 715,-147.2 824,-147.2 824,-125.2 715,-125.2"/>
<text text-anchor="start" x="718" y="-132.9" font-family="Helvetica,sans-Serif" font-size="11.00" fill="#000000">int4[10]</text>
<polygon fill="none" stroke="#000000" points="544,-103.2 544,-125.2 715,-125.2 715,-103.2 544,-103.2"/>
<text text-anchor="start" x="564" y="-110.3" font-family="Helvetica,sans-Serif" font-size="11.00" fill="#000000">end_ms</text>
<polygon fill="none" stroke="#000000" points="715,-103.2 715,-125.2 824,-125.2 824,-103.2 715,-103.2"/>
<text text-anchor="start" x="718" y="-110.9" font-family="Helvetica,sans-Serif" font-size="11.00" fill="#000000">int4[10]</text>
<polygon fill="none" stroke="#000000" points="544,-81.2 544,-103.2 715,-103.2 715,-81.2 544,-81.2"/>
<text text-anchor="start" x="564" y="-88.3" font-family="Helvetica,sans-Serif" font-size="11.00" fill="#000000">text</text>
<polygon fill="none" stroke="#000000" points="715,-81.2 715,-103.2 824,-103.2 824,-81.2 715,-81.2"/>
<text text-anchor="start" x="717.5344" y="-88.9" font-family="Helvetica,sans-Serif" font-size="11.00" fill="#000000">varchar[2147483647]</text>
<polygon fill="#ffffff" stroke="transparent" points="544,-59.2 544,-81.2 715,-81.2 715,-59.2 544,-59.2"/>
<polygon fill="none" stroke="#000000" points="544,-59.2 544,-81.2 715,-81.2 715,-59.2 544,-59.2"/>
<text text-anchor="start" x="564" y="-66.3" font-family="Helvetica,sans-Serif" font-size="11.00" fill="#000000">rank</text>
<polygon fill="none" stroke="#000000" points="715,-59.2 715,-81.2 824,-81.2 824,-59.2 715,-59.2"/>
<text text-anchor="start" x="718" y="-66.9" font-family="Helvetica,sans-Serif" font-size="11.00" fill="#000000">varchar[64]</text>
<polygon fill="#ffffff" stroke="transparent" points="544,-40.2 544,-59.2 824,-59.2 824,-40.2 544,-40.2"/>
<polygon fill="none" stroke="#000000" points="544,-40.2 544,-59.2 824,-59.2 824,-40.2 544,-40.2"/>
<polygon fill="#ffffff" stroke="transparent" points="545,-41.2 545,-58.2 641,-58.2 641,-41.2 545,-41.2"/>
<text text-anchor="start" x="547" y="-46.3" font-family="Helvetica,sans-Serif" font-size="11.00" fill="#000000">&lt; 1</text>
<polygon fill="#ffffff" stroke="transparent" points="641,-41.2 641,-58.2 728,-58.2 728,-41.2 641,-41.2"/>
<text text-anchor="start" x="681.4431" y="-46.3" font-family="Helvetica,sans-Serif" font-size="11.00" fill="#000000"> &#160;</text>
<polygon fill="#ffffff" stroke="transparent" points="728,-41.2 728,-58.2 823,-58.2 823,-41.2 728,-41.2"/>
<text text-anchor="start" x="805.4053" y="-46.3" font-family="Helvetica,sans-Serif" font-size="11.00" fill="#000000">0 &gt;</text>
<polygon fill="#000000" stroke="#000000" points="641,-41.2 641,-58.2 641,-58.2 641,-41.2 641,-41.2"/>
<polygon fill="#000000" stroke="#000000" points="728,-41.2 728,-58.2 728,-58.2 728,-41.2 728,-41.2"/>
<polygon fill="none" stroke="#000000" stroke-width="2" points="543,-39.2 543,-237.2 825,-237.2 825,-39.2 543,-39.2"/>
</a>
</g>
</g>
<!-- transcript_segments&#45;&gt;summaries -->
<g id="edge7" class="edge">
<title>transcript_segments:w&#45;&gt;summaries:e</title>
<path fill="none" stroke="#000000" d="M529.6451,-183.1564C488.2497,-204.0155 557.1645,-328.2 493.5,-328.2"/>
<polygon fill="#000000" stroke="#000000" points="536.1644,-181.8138 544.7262,-183.726 540.0822,-181.0069 544,-180.2 544,-180.2 544,-180.2 540.0822,-181.0069 543.2738,-176.674 536.1644,-181.8138 536.1644,-181.8138"/>
<ellipse fill="none" stroke="#000000" cx="533.0302" cy="-182.4593" rx="3.2" ry="3.2"/>
</g>
</g>
</svg>
