<?xml version="1.0" encoding="UTF-8" standalone="no"?>
<!DOCTYPE svg PUBLIC "-//W3C//DTD SVG 1.1//EN"
 "http://www.w3.org/Graphics/SVG/1.1/DTD/svg11.dtd">
<!-- Generated by graphviz version 2.40.1 (20161225.0304)
 -->
<!-- Title: twoDegreesRelationshipsDiagram Pages: 1 -->
<svg width="842pt" height="579pt"
 viewBox="0.00 0.00 842.00 579.20" xmlns="http://www.w3.org/2000/svg" xmlns:xlink="http://www.w3.org/1999/xlink">
<g id="graph0" class="graph" transform="scale(1 1) rotate(0) translate(4 575.2)">
<title>twoDegreesRelationshipsDiagram</title>
<polygon fill="#ffffff" stroke="transparent" points="-4,4 -4,-575.2 838,-575.2 838,4 -4,4"/>
<text text-anchor="middle" x="72.4936" y="-7.3" font-family="Helvetica,sans-Serif" font-size="11.00" fill="#000000">Generated by SchemaSpy</text>
<!-- action_items -->
<g id="node1" class="node">
<title>action_items</title>
<g id="a_node1"><a xlink:href="../../tables/action_items.html" xlink:title="action_items" target="_top">
<polygon fill="#ffffff" stroke="transparent" points="618.5,-506.2 618.5,-567.2 749.5,-567.2 749.5,-506.2 618.5,-506.2"/>
<polygon fill="#f5f5f5" stroke="transparent" points="619,-543.7 619,-566.7 750,-566.7 750,-543.7 619,-543.7"/>
<polygon fill="none" stroke="#000000" points="619,-543.7 619,-566.7 750,-566.7 750,-543.7 619,-543.7"/>
<text text-anchor="start" x="624" y="-552.3" font-family="Helvetica,sans-Serif" font-weight="bold" font-size="11.00" fill="#000000">action_items</text>
<text text-anchor="start" x="715.5219" y="-551.8" font-family="Helvetica,sans-Serif" font-size="11.00" fill="#000000">[table]</text>
<polygon fill="none" stroke="#000000" points="619,-524.7 619,-543.7 750,-543.7 750,-524.7 619,-524.7"/>
<text text-anchor="start" x="622" y="-530.8" font-family="Helvetica,sans-Serif" font-size="11.00" fill="#000000">...</text>
<polygon fill="#ffffff" stroke="transparent" points="619,-505.7 619,-524.7 750,-524.7 750,-505.7 619,-505.7"/>
<polygon fill="none" stroke="#000000" points="619,-505.7 619,-524.7 750,-524.7 750,-505.7 619,-505.7"/>
<polygon fill="#ffffff" stroke="transparent" points="620,-506.7 620,-523.7 669,-523.7 669,-506.7 620,-506.7"/>
<text text-anchor="start" x="622" y="-511.8" font-family="Helvetica,sans-Serif" font-size="11.00" fill="#000000">&lt; 1</text>
<polygon fill="#ffffff" stroke="transparent" points="669,-506.7 669,-523.7 709,-523.7 709,-506.7 669,-506.7"/>
<text text-anchor="start" x="685.9431" y="-511.8" font-family="Helvetica,sans-Serif" font-size="11.00" fill="#000000"> &#160;</text>
<polygon fill="#ffffff" stroke="transparent" points="709,-506.7 709,-523.7 749,-523.7 749,-506.7 709,-506.7"/>
<text text-anchor="start" x="740.8862" y="-511.8" font-family="Helvetica,sans-Serif" font-size="11.00" fill="#000000"> &#160;</text>
<polygon fill="#000000" stroke="#000000" points="669,-506.7 669,-523.7 669,-523.7 669,-506.7 669,-506.7"/>
<polygon fill="#000000" stroke="#000000" points="709,-506.7 709,-523.7 709,-523.7 709,-506.7 709,-506.7"/>
</a>
</g>
</g>
<!-- summaries -->
<g id="node2" class="node">
<title>summaries</title>
<g id="a_node2"><a xlink:href="../../tables/summaries.html" xlink:title="summaries" target="_top">
<polygon fill="#ffffff" stroke="transparent" points="348,-201.2 348,-350.2 493,-350.2 493,-201.2 348,-201.2"/>
<polygon fill="#f5f5f5" stroke="transparent" points="348.5,-326.7 348.5,-349.7 493.5,-349.7 493.5,-326.7 348.5,-326.7"/>
<polygon fill="none" stroke="#000000" points="348.5,-326.7 348.5,-349.7 493.5,-349.7 493.5,-326.7 348.5,-326.7"/>
<text text-anchor="start" x="353.5" y="-335.3" font-family="Helvetica,sans-Serif" font-weight="bold" font-size="11.00" fill="#000000">summaries</text>
<text text-anchor="start" x="458.5437" y="-334.8" font-family="Helvetica,sans-Serif" font-size="11.00" fill="#000000">[table]</text>
<polygon fill="none" stroke="#000000" points="348.5,-304.7 348.5,-326.7 493.5,-326.7 493.5,-304.7 348.5,-304.7"/>
<image xlink:href="../../images/primaryKeys.png" width="11px" height="12px" preserveAspectRatio="xMinYMin meet" x="353.5" y="-321.7"/>
<text text-anchor="start" x="368.5" y="-311.8" font-family="Helvetica,sans-Serif" font-size="11.00" fill="#000000">id</text>
<polygon fill="#ffffff" stroke="transparent" points="348.5,-282.7 348.5,-304.7 493.5,-304.7 493.5,-282.7 348.5,-282.7"/>
<polygon fill="none" stroke="#000000" points="348.5,-282.7 348.5,-304.7 493.5,-304.7 493.5,-282.7 348.5,-282.7"/>
<text text-anchor="start" x="368.5" y="-289.8" font-family="Helvetica,sans-Serif" font-size="11.00" fill="#000000">content_hash</text>
<polygon fill="#ffffff" stroke="transparent" points="348.5,-260.7 348.5,-282.7 493.5,-282.7 493.5,-260.7 348.5,-260.7"/>
<polygon fill="none" stroke="#000000" points="348.5,-260.7 348.5,-282.7 493.5,-282.7 493.5,-260.7 348.5,-260.7"/>
<image xlink:href="../../images/foreignKeys.png" width="11px" height="12px" preserveAspectRatio="xMinYMin meet" x="353.5" y="-277.7"/>
<text text-anchor="start" x="368.5" y="-267.8" font-family="Helvetica,sans-Serif" font-size="11.00" fill="#000000">user_id</text>
<polygon fill="#ffffff" stroke="transparent" points="348.5,-238.7 348.5,-260.7 493.5,-260.7 493.5,-238.7 348.5,-238.7"/>
<polygon fill="none" stroke="#000000" points="348.5,-238.7 348.5,-260.7 493.5,-260.7 493.5,-238.7 348.5,-238.7"/>
<image xlink:href="../../images/foreignKeys.png" width="11px" height="12px" preserveAspectRatio="xMinYMin meet" x="353.5" y="-255.7"/>
<text text-anchor="start" x="368.5" y="-245.8" font-family="Helvetica,sans-Serif" font-size="11.00" fill="#000000">group_id</text>
<polygon fill="none" stroke="#000000" points="348.5,-219.7 348.5,-238.7 493.5,-238.7 493.5,-219.7 348.5,-219.7"/>
<text text-anchor="start" x="351.5" y="-225.8" font-family="Helvetica,sans-Serif" font-size="11.00" fill="#000000">...</text>
<polygon fill="#ffffff" stroke="transparent" points="348.5,-200.7 348.5,-219.7 493.5,-219.7 493.5,-200.7 348.5,-200.7"/>
<polygon fill="none" stroke="#000000" points="348.5,-200.7 348.5,-219.7 493.5,-219.7 493.5,-200.7 348.5,-200.7"/>
<polygon fill="#ffffff" stroke="transparent" points="349.5,-201.7 349.5,-218.7 400.5,-218.7 400.5,-201.7 349.5,-201.7"/>
<text text-anchor="start" x="351.5" y="-206.8" font-family="Helvetica,sans-Serif" font-size="11.00" fill="#000000">&lt; 2</text>
<polygon fill="#ffffff" stroke="transparent" points="400.5,-201.7 400.5,-218.7 442.5,-218.7 442.5,-201.7 400.5,-201.7"/>
<text text-anchor="start" x="418.4431" y="-206.8" font-family="Helvetica,sans-Serif" font-size="11.00" fill="#000000"> &#160;</text>
<polygon fill="#ffffff" stroke="transparent" points="442.5,-201.7 442.5,-218.7 492.5,-218.7 492.5,-201.7 442.5,-201.7"/>
<text text-anchor="start" x="474.9053" y="-206.8" font-family="Helvetica,sans-Serif" font-size="11.00" fill="#000000">5 &gt;</text>
<polygon fill="#000000" stroke="#000000" points="400.5,-201.7 400.5,-218.7 400.5,-218.7 400.5,-201.7 400.5,-201.7"/>
<polygon fill="#000000" stroke="#000000" points="442.5,-201.7 442.5,-218.7 442.5,-218.7 442.5,-201.7 442.5,-201.7"/>
</a>
</g>
</g>
<!-- action_items&#45;&gt;summaries -->
<g id="edge1" class="edge">
<title>action_items:w&#45;&gt;summaries:e</title>
<path fill="none" stroke="#000000" d="M604.5417,-533.3807C573.1287,-531.799 556.932,-523.721 534,-495.7 482.0667,-432.2419 575.5,-315.7 493.5,-315.7"/>
<polygon fill="#000000" stroke="#000000" points="611.002,-533.5233 618.9205,-537.2991 615.001,-533.6116 619,-533.7 619,-533.7 619,-533.7 615.001,-533.6116 619.0795,-530.1009 611.002,-533.5233 611.002,-533.5233"/>
<ellipse fill="none" stroke="#000000" cx="607.8027" cy="-533.4526" rx="3.2" ry="3.2"/>
</g>
<!-- summary_groups -->
<g id="node4" class="node">
<title>summary_groups</title>
<g id="a_node4"><a xlink:href="../../tables/summary_groups.html" xlink:title="summary_groups" target="_top">
<polygon fill="#ffffff" stroke="transparent" points="135,-186.2 135,-247.2 299,-247.2 299,-186.2 135,-186.2"/>
<polygon fill="#f5f5f5" stroke="transparent" points="135,-223.7 135,-246.7 299,-246.7 299,-223.7 135,-223.7"/>
<polygon fill="none" stroke="#000000" points="135,-223.7 135,-246.7 299,-246.7 299,-223.7 135,-223.7"/>
<text text-anchor="start" x="140" y="-232.3" font-family="Helvetica,sans-Serif" font-weight="bold" font-size="11.00" fill="#000000">summary_groups</text>
<text text-anchor="start" x="264.5219" y="-231.8" font-family="Helvetica,sans-Serif" font-size="11.00" fill="#000000">[table]</text>
<polygon fill="none" stroke="#000000" points="135,-204.7 135,-223.7 299,-223.7 299,-204.7 135,-204.7"/>
<text text-anchor="start" x="138" y="-210.8" font-family="Helvetica,sans-Serif" font-size="11.00" fill="#000000">...</text>
<polygon fill="#ffffff" stroke="transparent" points="135,-185.7 135,-204.7 299,-204.7 299,-185.7 135,-185.7"/>
<polygon fill="none" stroke="#000000" points="135,-185.7 135,-204.7 299,-204.7 299,-185.7 135,-185.7"/>
<polygon fill="#ffffff" stroke="transparent" points="136,-186.7 136,-203.7 193,-203.7 193,-186.7 136,-186.7"/>
<text text-anchor="start" x="138" y="-191.8" font-family="Helvetica,sans-Serif" font-size="11.00" fill="#000000">&lt; 1</text>
<polygon fill="#ffffff" stroke="transparent" points="193,-186.7 193,-203.7 241,-203.7 241,-186.7 193,-186.7"/>
<text text-anchor="start" x="213.9431" y="-191.8" font-family="Helvetica,sans-Serif" font-size="11.00" fill="#000000"> &#160;</text>
<polygon fill="#ffffff" stroke="transparent" points="241,-186.7 241,-203.7 298,-203.7 298,-186.7 241,-186.7"/>
<text text-anchor="start" x="280.4053" y="-191.8" font-family="Helvetica,sans-Serif" font-size="11.00" fill="#000000">1 &gt;</text>
<polygon fill="#000000" stroke="#000000" points="193,-186.7 193,-203.7 193,-203.7 193,-186.7 193,-186.7"/>
<polygon fill="#000000" stroke="#000000" points="241,-186.7 241,-203.7 241,-203.7 241,-186.7 241,-186.7"/>
</a>
</g>
</g>
<!-- summaries&#45;&gt;summary_groups -->
<g id="edge3" class="edge">
<title>summaries:w&#45;&gt;summary_groups:e</title>
<path fill="none" stroke="#000000" d="M334.5852,-245.2857C321.9069,-235.6727 320.2523,-213.7 299,-213.7"/>
<polygon fill="#000000" stroke="#000000" points="340.8745,-247.2809 347.4114,-253.1315 344.6873,-248.4904 348.5,-249.7 348.5,-249.7 348.5,-249.7 344.6873,-248.4904 349.5886,-246.2685 340.8745,-247.2809 340.8745,-247.2809"/>
<ellipse fill="none" stroke="#000000" cx="337.8243" cy="-246.3132" rx="3.2" ry="3.2"/>
</g>
<!-- users -->
<g id="node5" class="node">
<title>users</title>
<g id="a_node5"><a xlink:href="../../tables/users.html" xlink:title="users" target="_top">
<polygon fill="#ffffff" stroke="transparent" points="8,-186.2 8,-247.2 86,-247.2 86,-186.2 8,-186.2"/>
<polygon fill="#f5f5f5" stroke="transparent" points="8,-223.7 8,-246.7 86,-246.7 86,-223.7 8,-223.7"/>
<polygon fill="none" stroke="#000000" points="8,-223.7 8,-246.7 86,-246.7 86,-223.7 8,-223.7"/>
<text text-anchor="start" x="13" y="-232.3" font-family="Helvetica,sans-Serif" font-weight="bold" font-size="11.00" fill="#000000">users</text>
<text text-anchor="start" x="51.5219" y="-231.8" font-family="Helvetica,sans-Serif" font-size="11.00" fill="#000000">[table]</text>
<polygon fill="none" stroke="#000000" points="8,-204.7 8,-223.7 86,-223.7 86,-204.7 8,-204.7"/>
<text text-anchor="start" x="11" y="-210.8" font-family="Helvetica,sans-Serif" font-size="11.00" fill="#000000">...</text>
<polygon fill="#ffffff" stroke="transparent" points="8,-185.7 8,-204.7 86,-204.7 86,-185.7 8,-185.7"/>
<polygon fill="none" stroke="#000000" points="8,-185.7 8,-204.7 86,-204.7 86,-185.7 8,-185.7"/>
<polygon fill="#ffffff" stroke="transparent" points="9,-186.7 9,-203.7 32,-203.7 32,-186.7 9,-186.7"/>
<text text-anchor="start" x="11" y="-191.8" font-family="Helvetica,sans-Serif" font-size="11.00" fill="#000000"> &#160;</text>
<polygon fill="#ffffff" stroke="transparent" points="32,-186.7 32,-203.7 54,-203.7 54,-186.7 32,-186.7"/>
<text text-anchor="start" x="39.9431" y="-191.8" font-family="Helvetica,sans-Serif" font-size="11.00" fill="#000000"> &#160;</text>
<polygon fill="#ffffff" stroke="transparent" points="54,-186.7 54,-203.7 85,-203.7 85,-186.7 54,-186.7"/>
<text text-anchor="start" x="67.4053" y="-191.8" font-family="Helvetica,sans-Serif" font-size="11.00" fill="#000000">5 &gt;</text>
<polygon fill="#000000" stroke="#000000" points="32,-186.7 32,-203.7 32,-203.7 32,-186.7 32,-186.7"/>
<polygon fill="#000000" stroke="#000000" points="54,-186.7 54,-203.7 54,-203.7 54,-186.7 54,-186.7"/>
</a>
</g>
</g>
<!-- summaries&#45;&gt;users -->
<g id="edge4" class="edge">
<title>summaries:w&#45;&gt;users:e</title>
<path fill="none" stroke="#000000" d="M333.9594,-271.9051C246.2941,-274.381 211.6376,-297.7423 127,-257.7 102.8381,-246.2689 112.7296,-213.7 86,-213.7"/>
<polygon fill="#000000" stroke="#000000" points="340.5008,-271.8129 348.5508,-275.2996 344.5004,-271.7565 348.5,-271.7 348.5,-271.7 348.5,-271.7 344.5004,-271.7565 348.4492,-268.1004 340.5008,-271.8129 340.5008,-271.8129"/>
<ellipse fill="none" stroke="#000000" cx="337.3011" cy="-271.8581" rx="3.2" ry="3.2"/>
</g>
<!-- decisions -->
<g id="node3" class="node">
<title>decisions</title>
<g id="a_node3"><a xlink:href="../../tables/decisions.html" xlink:title="decisions" target="_top">
<polygon fill="#ffffff" stroke="transparent" points="630.5,-424.2 630.5,-485.2 737.5,-485.2 737.5,-424.2 630.5,-424.2"/>
<polygon fill="#f5f5f5" stroke="transparent" points="631,-461.7 631,-484.7 738,-484.7 738,-461.7 631,-461.7"/>
<polygon fill="none" stroke="#000000" points="631,-461.7 631,-484.7 738,-484.7 738,-461.7 631,-461.7"/>
<text text-anchor="start" x="636" y="-470.3" font-family="Helvetica,sans-Serif" font-weight="bold" font-size="11.00" fill="#000000">decisions</text>
<text text-anchor="start" x="703.5219" y="-469.8" font-family="Helvetica,sans-Serif" font-size="11.00" fill="#000000">[table]</text>
<polygon fill="none" stroke="#000000" points="631,-442.7 631,-461.7 738,-461.7 738,-442.7 631,-442.7"/>
<text text-anchor="start" x="634" y="-448.8" font-family="Helvetica,sans-Serif" font-size="11.00" fill="#000000">...</text>
<polygon fill="#ffffff" stroke="transparent" points="631,-423.7 631,-442.7 738,-442.7 738,-423.7 631,-423.7"/>
<polygon fill="none" stroke="#000000" points="631,-423.7 631,-442.7 738,-442.7 738,-423.7 631,-423.7"/>
<polygon fill="#ffffff" stroke="transparent" points="632,-424.7 632,-441.7 673,-441.7 673,-424.7 632,-424.7"/>
<text text-anchor="start" x="634" y="-429.8" font-family="Helvetica,sans-Serif" font-size="11.00" fill="#000000">&lt; 1</text>
<polygon fill="#ffffff" stroke="transparent" points="673,-424.7 673,-441.7 705,-441.7 705,-424.7 673,-424.7"/>
<text text-anchor="start" x="685.9431" y="-429.8" font-family="Helvetica,sans-Serif" font-size="11.00" fill="#000000"> &#160;</text>
<polygon fill="#ffffff" stroke="transparent" points="705,-424.7 705,-441.7 737,-441.7 737,-424.7 705,-424.7"/>
<text text-anchor="start" x="728.8862" y="-429.8" font-family="Helvetica,sans-Serif" font-size="11.00" fill="#000000"> &#160;</text>
<polygon fill="#000000" stroke="#000000" points="673,-424.7 673,-441.7 673,-441.7 673,-424.7 673,-424.7"/>
<polygon fill="#000000" stroke="#000000" points="705,-424.7 705,-441.7 705,-441.7 705,-424.7 705,-424.7"/>
</a>
</g>
</g>
<!-- decisions&#45;&gt;summaries -->
<g id="edge2" class="edge">
<title>decisions:w&#45;&gt;summaries:e</title>
<path fill="none" stroke="#000000" d="M616.3036,-451.4548C580.5009,-450.0945 563.2986,-442.4611 534,-413.7 500.3681,-380.6851 540.6284,-315.7 493.5,-315.7"/>
<polygon fill="#000000" stroke="#000000" points="623.0011,-451.5665 630.9399,-455.2995 627.0006,-451.6332 631,-451.7 631,-451.7 631,-451.7 627.0006,-451.6332 631.0601,-448.1005 623.0011,-451.5665 623.0011,-451.5665"/>
<ellipse fill="none" stroke="#000000" cx="619.8016" cy="-451.5131" rx="3.2" ry="3.2"/>
</g>
<!-- summary_groups&#45;&gt;users -->
<g id="edge5" class="edge">
<title>summary_groups:w&#45;&gt;users:e</title>
<path fill="none" stroke="#000000" d="M120.4909,-213.7C109.1774,-213.7 101.9931,-213.7 86,-213.7"/>
<polygon fill="#000000" stroke="#000000" points="127,-213.7001 135,-217.3 131,-213.7 135,-213.7 135,-213.7 135,-213.7 131,-213.7 135,-210.1 127,-213.7001 127,-213.7001"/>
<ellipse fill="none" stroke="#000000" cx="123.8" cy="-213.7001" rx="3.2" ry="3.2"/>
</g>
<!-- topics -->
<g id="node6" class="node">
<title>topics</title>
<g id="a_node6"><a xlink:href="../../tables/topics.html" xlink:title="topics" target="_top">
<polygon fill="#ffffff" stroke="transparent" points="642.5,-342.2 642.5,-403.2 725.5,-403.2 725.5,-342.2 642.5,-342.2"/>
<polygon fill="#f5f5f5" stroke="transparent" points="643,-379.7 643,-402.7 726,-402.7 726,-379.7 643,-379.7"/>
<polygon fill="none" stroke="#000000" points="643,-379.7 643,-402.7 726,-402.7 726,-379.7 643,-379.7"/>
<text text-anchor="start" x="648" y="-388.3" font-family="Helvetica,sans-Serif" font-weight="bold" font-size="11.00" fill="#000000">topics</text>
<text text-anchor="start" x="691.5219" y="-387.8" font-family="Helvetica,sans-Serif" font-size="11.00" fill="#000000">[table]</text>
<polygon fill="none" stroke="#000000" points="643,-360.7 643,-379.7 726,-379.7 726,-360.7 643,-360.7"/>
<text text-anchor="start" x="646" y="-366.8" font-family="Helvetica,sans-Serif" font-size="11.00" fill="#000000">...</text>
<polygon fill="#ffffff" stroke="transparent" points="643,-341.7 643,-360.7 726,-360.7 726,-341.7 643,-341.7"/>
<polygon fill="none" stroke="#000000" points="643,-341.7 643,-360.7 726,-360.7 726,-341.7 643,-341.7"/>
<polygon fill="#ffffff" stroke="transparent" points="644,-342.7 644,-359.7 677,-359.7 677,-342.7 644,-342.7"/>
<text text-anchor="start" x="646" y="-347.8" font-family="Helvetica,sans-Serif" font-size="11.00" fill="#000000">&lt; 1</text>
<polygon fill="#ffffff" stroke="transparent" points="677,-342.7 677,-359.7 701,-359.7 701,-342.7 677,-342.7"/>
<text text-anchor="start" x="685.9431" y="-347.8" font-family="Helvetica,sans-Serif" font-size="11.00" fill="#000000"> &#160;</text>
<polygon fill="#ffffff" stroke="transparent" points="701,-342.7 701,-359.7 725,-359.7 725,-342.7 701,-342.7"/>
<text text-anchor="start" x="716.8862" y="-347.8" font-family="Helvetica,sans-Serif" font-size="11.00" fill="#000000"> &#160;</text>
<polygon fill="#000000" stroke="#000000" points="677,-342.7 677,-359.7 677,-359.7 677,-342.7 677,-342.7"/>
<polygon fill="#000000" stroke="#000000" points="701,-342.7 701,-359.7 701,-359.7 701,-342.7 701,-342.7"/>
</a>
</g>
</g>
<!-- topics&#45;&gt;summaries -->
<g id="edge6" class="edge">
<title>topics:w&#45;&gt;summaries:e</title>
<path fill="none" stroke="#000000" d="M628.5747,-369.1006C589.3478,-365.635 577.2058,-347.7582 534,-331.7 515.8587,-324.9575 512.8538,-315.7 493.5,-315.7"/>
<polygon fill="#000000" stroke="#000000" points="635.0069,-369.3678 642.8505,-373.2969 639.0034,-369.5339 643,-369.7 643,-369.7 643,-369.7 639.0034,-369.5339 643.1495,-366.1031 635.0069,-369.3678 635.0069,-369.3678"/>
<ellipse fill="none" stroke="#000000" cx="631.8097" cy="-369.235" rx="3.2" ry="3.2"/>
</g>
<!-- transcript_segments -->
<g id="node7" class="node">
<title>transcript_segments</title>
<g id="a_node7"><a xlink:href="../../tables/transcript_segments.html" xlink:title="transcript_segments" target="_top">
<polygon fill="#ffffff" stroke="transparent" points="542,-120.7 542,-320.7 826,-320.7 826,-120.7 542,-120.7"/>
<polygon fill="#f5f5f5" stroke="transparent" points="544,-295.7 544,-318.7 824,-318.7 824,-295.7 544,-295.7"/>
<polygon fill="none" stroke="#000000" points="544,-295.7 544,-318.7 824,-318.7 824,-295.7 544,-295.7"/>
<text text-anchor="start" x="549" y="-304.3" font-family="Helvetica,sans-Serif" font-weight="bold" font-size="11.00" fill="#000000">transcript_segments</text>
<text text-anchor="start" x="789.0437" y="-303.8" font-family="Helvetica,sans-Serif" font-size="11.00" fill="#000000">[table]</text>
<polygon fill="none" stroke="#000000" points="544,-273.7 544,-295.7 715,-295.7 715,-273.7 544,-273.7"/>
<image xlink:href="../../images/primaryKeys.png" width="11px" height="12px" preserveAspectRatio="xMinYMin meet" x="549" y="-290.7"/>
<text text-anchor="start" x="564" y="-280.8" font-family="Helvetica,sans-Serif" font-size="11.00" fill="#000000">id</text>
<polygon fill="none" stroke="#000000" points="715,-273.7 715,-295.7 824,-295.7 824,-273.7 715,-273.7"/>
<text text-anchor="start" x="718" y="-281.4" font-family="Helvetica,sans-Serif" font-size="11.00" fill="#000000">bigserial[19]</text>
<polygon fill="#ffffff" stroke="transparent" points="544,-251.7 544,-273.7 715,-273.7 715,-251.7 544,-251.7"/>
<polygon fill="none" stroke="#000000" points="544,-251.7 544,-273.7 715,-273.7 715,-251.7 544,-251.7"/>
<image xlink:href="../../images/foreignKeys.png" width="11px" height="12px" preserveAspectRatio="xMinYMin meet" x="549" y="-268.7"/>
<text text-anchor="start" x="564" y="-258.8" font-family="Helvetica,sans-Serif" font-size="11.00" fill="#000000">summary_id</text>
<polygon fill="none" stroke="#000000" points="715,-251.7 715,-273.7 824,-273.7 824,-251.7 715,-251.7"/>
<text text-anchor="start" x="718" y="-259.4" font-family="Helvetica,sans-Serif" font-size="11.00" fill="#000000">uuid[2147483647]</text>
<polygon fill="none" stroke="#000000" points="544,-229.7 544,-251.7 715,-251.7 715,-229.7 544,-229.7"/>
<text text-anchor="start" x="564" y="-236.8" font-family="Helvetica,sans-Serif" font-size="11.00" fill="#000000">speaker_label</text>
<polygon fill="none" stroke="#000000" points="715,-229.7 715,-251.7 824,-251.7 824,-229.7 715,-229.7"/>
<text text-anchor="start" x="718" y="-237.4" font-family="Helvetica,sans-Serif" font-size="11.00" fill="#000000">varchar[64]</text>
<polygon fill="none" stroke="#000000" points="544,-207.7 544,-229.7 715,-229.7 715,-207.7 544,-207.7"/>
<text text-anchor="start" x="564" y="-214.8" font-family="Helvetica,sans-Serif" font-size="11.00" fill="#000000">start_ms</text>
<polygon fill="none" stroke="#000000" points="715,-207.7 715,-229.7 824,-229.7 824,-207.7 715,-207.7"/>
<text text-anchor="start" x="718" y="-215.4" font-family="Helvetica,sans-Serif" font-size="11.00" fill="#000000">int4[10]</text>
<polygon fill="none" stroke="#000000" points="544,-185.7 544,-207.7 715,-207.7 715,-185.7 544,-185.7"/>
<text text-anchor="start" x="564" y="-192.8" font-family="Helvetica,sans-Serif" font-size="11.00" fill="#000000">end_ms</text>
<polygon fill="none" stroke="#000000" points="715,-185.7 715,-207.7 824,-207.7 824,-185.7 715,-185.7"/>
<text text-anchor="start" x="718" y="-193.4" font-family="Helvetica,sans-Serif" font-size="11.00" fill="#000000">int4[10]</text>
<polygon fill="none" stroke="#000000" points="544,-163.7 544,-185.7 715,-185.7 715,-163.7 544,-163.7"/>
<text text-anchor="start" x="564" y="-170.8" font-family="Helvetica,sans-Serif" font-size="11.00" fill="#000000">text</text>
<polygon fill="none" stroke="#000000" points="715,-163.7 715,-185.7 824,-185.7 824,-163.7 715,-163.7"/>
<text text-anchor="start" x="717.5344" y="-171.4" font-family="Helvetica,sans-Serif" font-size="11.00" fill="#000000">varchar[2147483647]</text>
<polygon fill="#ffffff" stroke="transparent" points="544,-141.7 544,-163.7 715,-163.7 715,-141.7 544,-141.7"/>
<polygon fill="none" stroke="#000000" points="544,-141.7 544,-163.7 715,-163.7 715,-141.7 544,-141.7"/>
<text text-anchor="start" x="564" y="-148.8" font-family="Helvetica,sans-Serif" font-size="11.00" fill="#000000">rank</text>
<polygon fill="none" stroke="#000000" points="715,-141.7 715,-163.7 824,-163.7 824,-141.7 715,-141.7"/>
<text text-anchor="start" x="718" y="-149.4" font-family="Helvetica,sans-Serif" font-size="11.00" fill="#000000">varchar[64]</text>
<polygon fill="#ffffff" stroke="transparent" points="544,-122.7 544,-141.7 824,-141.7 824,-122.7 544,-122.7"/>
<polygon fill="none" stroke="#000000" points="544,-122.7 544,-141.7 824,-141.7 824,-122.7 544,-122.7"/>
<polygon fill="#ffffff" stroke="transparent" points="545,-123.7 545,-140.7 641,-140.7 641,-123.7 545,-123.7"/>
<text text-anchor="start" x="547" y="-128.8" font-family="Helvetica,sans-Serif" font-size="11.00" fill="#000000">&lt; 1</text>
<polygon fill="#ffffff" stroke="transparent" points="641,-123.7 641,-140.7 728,-140.7 728,-123.7 641,-123.7"/>
<text text-anchor="start" x="681.4431" y="-128.8" font-family="Helvetica,sans-Serif" font-size="11.00" fill="#000000"> &#160;</text>
<polygon fill="#ffffff" stroke="transparent" points="728,-123.7 728,-140.7 823,-140.7 823,-123.7 728,-123.7"/>
<text text-anchor="start" x="805.4053" y="-128.8" font-family="Helvetica,sans-Serif" font-size="11.00" fill="#000000">0 &gt;</text>
<polygon fill="#000000" stroke="#000000" points="641,-123.7 641,-140.7 641,-140.7 641,-123.7 641,-123.7"/>
<polygon fill="#000000" stroke="#000000" points="728,-123.7 728,-140.7 728,-140.7 728,-123.7 728,-123.7"/>
<polygon fill="none" stroke="#000000" stroke-width="2" points="543,-121.7 543,-319.7 825,-319.7 825,-121.7 543,-121.7"/>
</a>
</g>
</g>
<!-- transcript_segments&#45;&gt;summaries -->
<g id="edge7" class="edge">
<title>transcript_segments:w&#45;&gt;summaries:e</title>
<path fill="none" stroke="#000000" d="M530.0458,-267.5911C515.2722,-280.7117 519.9358,-315.7 493.5,-315.7"/>
<polygon fill="#000000" stroke="#000000" points="536.4503,-265.3463 545.1908,-266.0974 540.2252,-264.0231 544,-262.7 544,-262.7 544,-262.7 540.2252,-264.0231 542.8092,-259.3026 536.4503,-265.3463 536.4503,-265.3463"/>
<ellipse fill="none" stroke="#000000" cx="533.4305" cy="-266.4048" rx="3.2" ry="3.2"/>
</g>
<!-- transcription_jobs -->
<g id="node8" class="node">
<title>transcription_jobs</title>
<g id="a_node8"><a xlink:href="../../tables/transcription_jobs.html" xlink:title="transcription_jobs" target="_top">
<polygon fill="#ffffff" stroke="transparent" points="598.5,-38.2 598.5,-99.2 769.5,-99.2 769.5,-38.2 598.5,-38.2"/>
<polygon fill="#f5f5f5" stroke="transparent" points="599,-75.7 599,-98.7 770,-98.7 770,-75.7 599,-75.7"/>
<polygon fill="none" stroke="#000000" points="599,-75.7 599,-98.7 770,-98.7 770,-75.7 599,-75.7"/>
<text text-anchor="start" x="604" y="-84.3" font-family="Helvetica,sans-Serif" font-weight="bold" font-size="11.00" fill="#000000">transcription_jobs</text>
<text text-anchor="start" x="735.5219" y="-83.8" font-family="Helvetica,sans-Serif" font-size="11.00" fill="#000000">[table]</text>
<polygon fill="none" stroke="#000000" points="599,-56.7 599,-75.7 770,-75.7 770,-56.7 599,-56.7"/>
<text text-anchor="start" x="602" y="-62.8" font-family="Helvetica,sans-Serif" font-size="11.00" fill="#000000">...</text>
<polygon fill="#ffffff" stroke="transparent" points="599,-37.7 599,-56.7 770,-56.7 770,-37.7 599,-37.7"/>
<polygon fill="none" stroke="#000000" points="599,-37.7 599,-56.7 770,-56.7 770,-37.7 599,-37.7"/>
<polygon fill="#ffffff" stroke="transparent" points="600,-38.7 600,-55.7 663,-55.7 663,-38.7 600,-38.7"/>
<text text-anchor="start" x="602" y="-43.8" font-family="Helvetica,sans-Serif" font-size="11.00" fill="#000000">&lt; 2</text>
<polygon fill="#ffffff" stroke="transparent" points="663,-38.7 663,-55.7 716,-55.7 716,-38.7 663,-38.7"/>
<text text-anchor="start" x="686.4431" y="-43.8" font-family="Helvetica,sans-Serif" font-size="11.00" fill="#000000"> &#160;</text>
<polygon fill="#ffffff" stroke="transparent" points="716,-38.7 716,-55.7 769,-55.7 769,-38.7 716,-38.7"/>
<text text-anchor="start" x="760.8862" y="-43.8" font-family="Helvetica,sans-Serif" font-size="11.00" fill="#000000"> &#160;</text>
<polygon fill="#000000" stroke="#000000" points="663,-38.7 663,-55.7 663,-55.7 663,-38.7 663,-38.7"/>
<polygon fill="#000000" stroke="#000000" points="716,-38.7 716,-55.7 716,-55.7 716,-38.7 716,-38.7"/>
</a>
</g>
</g>
<!-- transcription_jobs&#45;&gt;summaries -->
<g id="edge8" class="edge">
<title>transcription_jobs:w&#45;&gt;summaries:e</title>
<path fill="none" stroke="#000000" d="M584.6149,-66.7358C560.6127,-70.5731 550.3272,-85.0453 534,-109.7 508.2405,-148.598 540.1541,-315.7 493.5,-315.7"/>
<polygon fill="#000000" stroke="#000000" points="591.0207,-66.2746 599.2586,-69.2907 595.0103,-65.9873 599,-65.7 599,-65.7 599,-65.7 595.0103,-65.9873 598.7414,-62.1093 591.0207,-66.2746 591.0207,-66.2746"/>
<ellipse fill="none" stroke="#000000" cx="587.8289" cy="-66.5044" rx="3.2" ry="3.2"/>
</g>
<!-- transcription_jobs&#45;&gt;users -->
<g id="edge9" class="edge">
<title>transcription_jobs:w&#45;&gt;users:e</title>
<path fill="none" stroke="#000000" d="M584.4024,-65.7152C380.4895,-66.1602 312.87,-76.9878 127,-175.7 105.0573,-187.3534 110.8452,-213.7 86,-213.7"/>
<polygon fill="#000000" stroke="#000000" points="591,-65.7084 599.0038,-69.3 595,-65.7042 599,-65.7 599,-65.7 599,-65.7 595,-65.7042 598.9962,-62.1 591,-65.7084 591,-65.7084"/>
<ellipse fill="none" stroke="#000000" cx="587.8" cy="-65.7117" rx="3.2" ry="3.2"/>
</g>
</g>
</svg>
