<?xml version="1.0" encoding="UTF-8" standalone="no"?>
<!DOCTYPE svg PUBLIC "-//W3C//DTD SVG 1.1//EN"
 "http://www.w3.org/Graphics/SVG/1.1/DTD/svg11.dtd">
<!-- Generated by graphviz version 2.40.1 (20161225.0304)
 -->
<!-- Title: twoDegreesRelationshipsDiagram Pages: 1 -->
<svg width="842pt" height="475pt"
 viewBox="0.00 0.00 842.00 474.70" xmlns="http://www.w3.org/2000/svg" xmlns:xlink="http://www.w3.org/1999/xlink">
<g id="graph0" class="graph" transform="scale(1 1) rotate(0) translate(4 470.7)">
<title>twoDegreesRelationshipsDiagram</title>
<polygon fill="#ffffff" stroke="transparent" points="-4,4 -4,-470.7 838,-470.7 838,4 -4,4"/>
<text text-anchor="middle" x="72.4936" y="-7.3" font-family="Helvetica,sans-Serif" font-size="11.00" fill="#000000">Generated by SchemaSpy</text>
<!-- action_items -->
<g id="node1" class="node">
<title>action_items</title>
<g id="a_node1"><a xlink:href="../../tables/action_items.html" xlink:title="action_items" target="_top">
<polygon fill="#ffffff" stroke="transparent" points="618.5,-401.7 618.5,-462.7 749.5,-462.7 749.5,-401.7 618.5,-401.7"/>
<polygon fill="#f5f5f5" stroke="transparent" points="619,-439.2 619,-462.2 750,-462.2 750,-439.2 619,-439.2"/>
<polygon fill="none" stroke="#000000" points="619,-439.2 619,-462.2 750,-462.2 750,-439.2 619,-439.2"/>
<text text-anchor="start" x="624" y="-447.8" font-family="Helvetica,sans-Serif" font-weight="bold" font-size="11.00" fill="#000000">action_items</text>
<text text-anchor="start" x="715.5219" y="-447.3" font-family="Helvetica,sans-Serif" font-size="11.00" fill="#000000">[table]</text>
<polygon fill="none" stroke="#000000" points="619,-420.2 619,-439.2 750,-439.2 750,-420.2 619,-420.2"/>
<text text-anchor="start" x="622" y="-426.3" font-family="Helvetica,sans-Serif" font-size="11.00" fill="#000000">...</text>
<polygon fill="#ffffff" stroke="transparent" points="619,-401.2 619,-420.2 750,-420.2 750,-401.2 619,-401.2"/>
<polygon fill="none" stroke="#000000" points="619,-401.2 619,-420.2 750,-420.2 750,-401.2 619,-401.2"/>
<polygon fill="#ffffff" stroke="transparent" points="620,-402.2 620,-419.2 669,-419.2 669,-402.2 620,-402.2"/>
<text text-anchor="start" x="622" y="-407.3" font-family="Helvetica,sans-Serif" font-size="11.00" fill="#000000">&lt; 1</text>
<polygon fill="#ffffff" stroke="transparent" points="669,-402.2 669,-419.2 709,-419.2 709,-402.2 669,-402.2"/>
<text text-anchor="start" x="685.9431" y="-407.3" font-family="Helvetica,sans-Serif" font-size="11.00" fill="#000000"> &#160;</text>
<polygon fill="#ffffff" stroke="transparent" points="709,-402.2 709,-419.2 749,-419.2 749,-402.2 709,-402.2"/>
<text text-anchor="start" x="740.8862" y="-407.3" font-family="Helvetica,sans-Serif" font-size="11.00" fill="#000000"> &#160;</text>
<polygon fill="#000000" stroke="#000000" points="669,-402.2 669,-419.2 669,-419.2 669,-402.2 669,-402.2"/>
<polygon fill="#000000" stroke="#000000" points="709,-402.2 709,-419.2 709,-419.2 709,-402.2 709,-402.2"/>
</a>
</g>
</g>
<!-- summaries -->
<g id="node2" class="node">
<title>summaries</title>
<g id="a_node2"><a xlink:href="../../tables/summaries.html" xlink:title="summaries" target="_top">
<polygon fill="#ffffff" stroke="transparent" points="348,-191.7 348,-340.7 493,-340.7 493,-191.7 348,-191.7"/>
<polygon fill="#f5f5f5" stroke="transparent" points="348.5,-317.2 348.5,-340.2 493.5,-340.2 493.5,-317.2 348.5,-317.2"/>
<polygon fill="none" stroke="#000000" points="348.5,-317.2 348.5,-340.2 493.5,-340.2 493.5,-317.2 348.5,-317.2"/>
<text text-anchor="start" x="353.5" y="-325.8" font-family="Helvetica,sans-Serif" font-weight="bold" font-size="11.00" fill="#000000">summaries</text>
<text text-anchor="start" x="458.5437" y="-325.3" font-family="Helvetica,sans-Serif" font-size="11.00" fill="#000000">[table]</text>
<polygon fill="none" stroke="#000000" points="348.5,-295.2 348.5,-317.2 493.5,-317.2 493.5,-295.2 348.5,-295.2"/>
<image xlink:href="../../images/primaryKeys.png" width="11px" height="12px" preserveAspectRatio="xMinYMin meet" x="353.5" y="-312.2"/>
<text text-anchor="start" x="368.5" y="-302.3" font-family="Helvetica,sans-Serif" font-size="11.00" fill="#000000">id</text>
<polygon fill="#ffffff" stroke="transparent" points="348.5,-273.2 348.5,-295.2 493.5,-295.2 493.5,-273.2 348.5,-273.2"/>
<polygon fill="none" stroke="#000000" points="348.5,-273.2 348.5,-295.2 493.5,-295.2 493.5,-273.2 348.5,-273.2"/>
<text text-anchor="start" x="368.5" y="-280.3" font-family="Helvetica,sans-Serif" font-size="11.00" fill="#000000">content_hash</text>
<polygon fill="#ffffff" stroke="transparent" points="348.5,-251.2 348.5,-273.2 493.5,-273.2 493.5,-251.2 348.5,-251.2"/>
<polygon fill="none" stroke="#000000" points="348.5,-251.2 348.5,-273.2 493.5,-273.2 493.5,-251.2 348.5,-251.2"/>
<image xlink:href="../../images/foreignKeys.png" width="11px" height="12px" preserveAspectRatio="xMinYMin meet" x="353.5" y="-268.2"/>
<text text-anchor="start" x="368.5" y="-258.3" font-family="Helvetica,sans-Serif" font-size="11.00" fill="#000000">user_id</text>
<polygon fill="#ffffff" stroke="transparent" points="348.5,-229.2 348.5,-251.2 493.5,-251.2 493.5,-229.2 348.5,-229.2"/>
<polygon fill="none" stroke="#000000" points="348.5,-229.2 348.5,-251.2 493.5,-251.2 493.5,-229.2 348.5,-229.2"/>
<image xlink:href="../../images/foreignKeys.png" width="11px" height="12px" preserveAspectRatio="xMinYMin meet" x="353.5" y="-246.2"/>
<text text-anchor="start" x="368.5" y="-236.3" font-family="Helvetica,sans-Serif" font-size="11.00" fill="#000000">group_id</text>
<polygon fill="none" stroke="#000000" points="348.5,-210.2 348.5,-229.2 493.5,-229.2 493.5,-210.2 348.5,-210.2"/>
<text text-anchor="start" x="351.5" y="-216.3" font-family="Helvetica,sans-Serif" font-size="11.00" fill="#000000">...</text>
<polygon fill="#ffffff" stroke="transparent" points="348.5,-191.2 348.5,-210.2 493.5,-210.2 493.5,-191.2 348.5,-191.2"/>
<polygon fill="none" stroke="#000000" points="348.5,-191.2 348.5,-210.2 493.5,-210.2 493.5,-191.2 348.5,-191.2"/>
<polygon fill="#ffffff" stroke="transparent" points="349.5,-192.2 349.5,-209.2 400.5,-209.2 400.5,-192.2 349.5,-192.2"/>
<text text-anchor="start" x="351.5" y="-197.3" font-family="Helvetica,sans-Serif" font-size="11.00" fill="#000000">&lt; 2</text>
<polygon fill="#ffffff" stroke="transparent" points="400.5,-192.2 400.5,-209.2 442.5,-209.2 442.5,-192.2 400.5,-192.2"/>
<text text-anchor="start" x="418.4431" y="-197.3" font-family="Helvetica,sans-Serif" font-size="11.00" fill="#000000"> &#160;</text>
<polygon fill="#ffffff" stroke="transparent" points="442.5,-192.2 442.5,-209.2 492.5,-209.2 492.5,-192.2 442.5,-192.2"/>
<text text-anchor="start" x="474.9053" y="-197.3" font-family="Helvetica,sans-Serif" font-size="11.00" fill="#000000">4 &gt;</text>
<polygon fill="#000000" stroke="#000000" points="400.5,-192.2 400.5,-209.2 400.5,-209.2 400.5,-192.2 400.5,-192.2"/>
<polygon fill="#000000" stroke="#000000" points="442.5,-192.2 442.5,-209.2 442.5,-209.2 442.5,-192.2 442.5,-192.2"/>
</a>
</g>
</g>
<!-- action_items&#45;&gt;summaries -->
<g id="edge1" class="edge">
<title>action_items:w&#45;&gt;summaries:e</title>
<path fill="none" stroke="#000000" d="M604.2698,-428.7236C573.7487,-426.5258 559.796,-416.3781 534,-391.2 504.0533,-361.9706 535.3469,-306.2 493.5,-306.2"/>
<polygon fill="#000000" stroke="#000000" points="611.0042,-428.9414 618.8836,-432.7981 615.0021,-429.0707 619,-429.2 619,-429.2 619,-429.2 615.0021,-429.0707 619.1164,-425.6019 611.0042,-428.9414 611.0042,-428.9414"/>
<ellipse fill="none" stroke="#000000" cx="607.8059" cy="-428.8379" rx="3.2" ry="3.2"/>
</g>
<!-- summary_groups -->
<g id="node4" class="node">
<title>summary_groups</title>
<g id="a_node4"><a xlink:href="../../tables/summary_groups.html" xlink:title="summary_groups" target="_top">
<polygon fill="#ffffff" stroke="transparent" points="135,-194.7 135,-255.7 299,-255.7 299,-194.7 135,-194.7"/>
<polygon fill="#f5f5f5" stroke="transparent" points="135,-232.2 135,-255.2 299,-255.2 299,-232.2 135,-232.2"/>
<polygon fill="none" stroke="#000000" points="135,-232.2 135,-255.2 299,-255.2 299,-232.2 135,-232.2"/>
<text text-anchor="start" x="140" y="-240.8" font-family="Helvetica,sans-Serif" font-weight="bold" font-size="11.00" fill="#000000">summary_groups</text>
<text text-anchor="start" x="264.5219" y="-240.3" font-family="Helvetica,sans-Serif" font-size="11.00" fill="#000000">[table]</text>
<polygon fill="none" stroke="#000000" points="135,-213.2 135,-232.2 299,-232.2 299,-213.2 135,-213.2"/>
<text text-anchor="start" x="138" y="-219.3" font-family="Helvetica,sans-Serif" font-size="11.00" fill="#000000">...</text>
<polygon fill="#ffffff" stroke="transparent" points="135,-194.2 135,-213.2 299,-213.2 299,-194.2 135,-194.2"/>
<polygon fill="none" stroke="#000000" points="135,-194.2 135,-213.2 299,-213.2 299,-194.2 135,-194.2"/>
<polygon fill="#ffffff" stroke="transparent" points="136,-195.2 136,-212.2 193,-212.2 193,-195.2 136,-195.2"/>
<text text-anchor="start" x="138" y="-200.3" font-family="Helvetica,sans-Serif" font-size="11.00" fill="#000000">&lt; 1</text>
<polygon fill="#ffffff" stroke="transparent" points="193,-195.2 193,-212.2 241,-212.2 241,-195.2 193,-195.2"/>
<text text-anchor="start" x="213.9431" y="-200.3" font-family="Helvetica,sans-Serif" font-size="11.00" fill="#000000"> &#160;</text>
<polygon fill="#ffffff" stroke="transparent" points="241,-195.2 241,-212.2 298,-212.2 298,-195.2 241,-195.2"/>
<text text-anchor="start" x="280.4053" y="-200.3" font-family="Helvetica,sans-Serif" font-size="11.00" fill="#000000">1 &gt;</text>
<polygon fill="#000000" stroke="#000000" points="193,-195.2 193,-212.2 193,-212.2 193,-195.2 193,-195.2"/>
<polygon fill="#000000" stroke="#000000" points="241,-195.2 241,-212.2 241,-212.2 241,-195.2 241,-195.2"/>
</a>
</g>
</g>
<!-- summaries&#45;&gt;summary_groups -->
<g id="edge3" class="edge">
<title>summaries:w&#45;&gt;summary_groups:e</title>
<path fill="none" stroke="#000000" d="M334.1817,-237.3875C322.4545,-232.325 316.557,-222.2 299,-222.2"/>
<polygon fill="#000000" stroke="#000000" points="340.65,-238.658 347.8061,-243.7325 344.575,-239.429 348.5,-240.2 348.5,-240.2 348.5,-240.2 344.575,-239.429 349.1939,-236.6675 340.65,-238.658 340.65,-238.658"/>
<ellipse fill="none" stroke="#000000" cx="337.51" cy="-238.0412" rx="3.2" ry="3.2"/>
</g>
<!-- users -->
<g id="node5" class="node">
<title>users</title>
<g id="a_node5"><a xlink:href="../../tables/users.html" xlink:title="users" target="_top">
<polygon fill="#ffffff" stroke="transparent" points="8,-223.7 8,-284.7 86,-284.7 86,-223.7 8,-223.7"/>
<polygon fill="#f5f5f5" stroke="transparent" points="8,-261.2 8,-284.2 86,-284.2 86,-261.2 8,-261.2"/>
<polygon fill="none" stroke="#000000" points="8,-261.2 8,-284.2 86,-284.2 86,-261.2 8,-261.2"/>
<text text-anchor="start" x="13" y="-269.8" font-family="Helvetica,sans-Serif" font-weight="bold" font-size="11.00" fill="#000000">users</text>
<text text-anchor="start" x="51.5219" y="-269.3" font-family="Helvetica,sans-Serif" font-size="11.00" fill="#000000">[table]</text>
<polygon fill="none" stroke="#000000" points="8,-242.2 8,-261.2 86,-261.2 86,-242.2 8,-242.2"/>
<text text-anchor="start" x="11" y="-248.3" font-family="Helvetica,sans-Serif" font-size="11.00" fill="#000000">...</text>
<polygon fill="#ffffff" stroke="transparent" points="8,-223.2 8,-242.2 86,-242.2 86,-223.2 8,-223.2"/>
<polygon fill="none" stroke="#000000" points="8,-223.2 8,-242.2 86,-242.2 86,-223.2 8,-223.2"/>
<polygon fill="#ffffff" stroke="transparent" points="9,-224.2 9,-241.2 32,-241.2 32,-224.2 9,-224.2"/>
<text text-anchor="start" x="11" y="-229.3" font-family="Helvetica,sans-Serif" font-size="11.00" fill="#000000"> &#160;</text>
<polygon fill="#ffffff" stroke="transparent" points="32,-224.2 32,-241.2 54,-241.2 54,-224.2 32,-224.2"/>
<text text-anchor="start" x="39.9431" y="-229.3" font-family="Helvetica,sans-Serif" font-size="11.00" fill="#000000"> &#160;</text>
<polygon fill="#ffffff" stroke="transparent" points="54,-224.2 54,-241.2 85,-241.2 85,-224.2 54,-224.2"/>
<text text-anchor="start" x="67.4053" y="-229.3" font-family="Helvetica,sans-Serif" font-size="11.00" fill="#000000">4 &gt;</text>
<polygon fill="#000000" stroke="#000000" points="32,-224.2 32,-241.2 32,-241.2 32,-224.2 32,-224.2"/>
<polygon fill="#000000" stroke="#000000" points="54,-224.2 54,-241.2 54,-241.2 54,-224.2 54,-224.2"/>
</a>
</g>
</g>
<!-- summaries&#45;&gt;users -->
<g id="edge4" class="edge">
<title>summaries:w&#45;&gt;users:e</title>
<path fill="none" stroke="#000000" d="M334.1002,-262.9821C325.6707,-263.9646 319.58,-265.5951 307,-266.2 227.0923,-270.0421 205.773,-280.1573 127,-266.2 107.8941,-262.8147 105.4034,-251.2 86,-251.2"/>
<polygon fill="#000000" stroke="#000000" points="340.5118,-262.6339 348.6953,-265.7947 344.5059,-262.417 348.5,-262.2 348.5,-262.2 348.5,-262.2 344.5059,-262.417 348.3047,-258.6053 340.5118,-262.6339 340.5118,-262.6339"/>
<ellipse fill="none" stroke="#000000" cx="337.3165" cy="-262.8075" rx="3.2" ry="3.2"/>
</g>
<!-- decisions -->
<g id="node3" class="node">
<title>decisions</title>
<g id="a_node3"><a xlink:href="../../tables/decisions.html" xlink:title="decisions" target="_top">
<polygon fill="#ffffff" stroke="transparent" points="630.5,-319.7 630.5,-380.7 737.5,-380.7 737.5,-319.7 630.5,-319.7"/>
<polygon fill="#f5f5f5" stroke="transparent" points="631,-357.2 631,-380.2 738,-380.2 738,-357.2 631,-357.2"/>
<polygon fill="none" stroke="#000000" points="631,-357.2 631,-380.2 738,-380.2 738,-357.2 631,-357.2"/>
<text text-anchor="start" x="636" y="-365.8" font-family="Helvetica,sans-Serif" font-weight="bold" font-size="11.00" fill="#000000">decisions</text>
<text text-anchor="start" x="703.5219" y="-365.3" font-family="Helvetica,sans-Serif" font-size="11.00" fill="#000000">[table]</text>
<polygon fill="none" stroke="#000000" points="631,-338.2 631,-357.2 738,-357.2 738,-338.2 631,-338.2"/>
<text text-anchor="start" x="634" y="-344.3" font-family="Helvetica,sans-Serif" font-size="11.00" fill="#000000">...</text>
<polygon fill="#ffffff" stroke="transparent" points="631,-319.2 631,-338.2 738,-338.2 738,-319.2 631,-319.2"/>
<polygon fill="none" stroke="#000000" points="631,-319.2 631,-338.2 738,-338.2 738,-319.2 631,-319.2"/>
<polygon fill="#ffffff" stroke="transparent" points="632,-320.2 632,-337.2 673,-337.2 673,-320.2 632,-320.2"/>
<text text-anchor="start" x="634" y="-325.3" font-family="Helvetica,sans-Serif" font-size="11.00" fill="#000000">&lt; 1</text>
<polygon fill="#ffffff" stroke="transparent" points="673,-320.2 673,-337.2 705,-337.2 705,-320.2 673,-320.2"/>
<text text-anchor="start" x="685.9431" y="-325.3" font-family="Helvetica,sans-Serif" font-size="11.00" fill="#000000"> &#160;</text>
<polygon fill="#ffffff" stroke="transparent" points="705,-320.2 705,-337.2 737,-337.2 737,-320.2 705,-320.2"/>
<text text-anchor="start" x="728.8862" y="-325.3" font-family="Helvetica,sans-Serif" font-size="11.00" fill="#000000"> &#160;</text>
<polygon fill="#000000" stroke="#000000" points="673,-320.2 673,-337.2 673,-337.2 673,-320.2 673,-320.2"/>
<polygon fill="#000000" stroke="#000000" points="705,-320.2 705,-337.2 705,-337.2 705,-320.2 705,-320.2"/>
</a>
</g>
</g>
<!-- decisions&#45;&gt;summaries -->
<g id="edge2" class="edge">
<title>decisions:w&#45;&gt;summaries:e</title>
<path fill="none" stroke="#000000" d="M616.3335,-346.4176C565.2338,-340.7493 552.0389,-306.2 493.5,-306.2"/>
<polygon fill="#000000" stroke="#000000" points="623.0114,-346.7738 630.8082,-350.7949 627.0057,-346.9869 631,-347.2 631,-347.2 631,-347.2 627.0057,-346.9869 631.1918,-343.6051 623.0114,-346.7738 623.0114,-346.7738"/>
<ellipse fill="none" stroke="#000000" cx="619.8159" cy="-346.6033" rx="3.2" ry="3.2"/>
</g>
<!-- summary_groups&#45;&gt;users -->
<g id="edge5" class="edge">
<title>summary_groups:w&#45;&gt;users:e</title>
<path fill="none" stroke="#000000" d="M120.9495,-226.2323C108.971,-234.2007 105.3749,-251.2 86,-251.2"/>
<polygon fill="#000000" stroke="#000000" points="127.3104,-224.4069 135.9931,-225.6603 131.1552,-223.3034 135,-222.2 135,-222.2 135,-222.2 131.1552,-223.3034 134.0069,-218.7397 127.3104,-224.4069 127.3104,-224.4069"/>
<ellipse fill="none" stroke="#000000" cx="124.2346" cy="-225.2896" rx="3.2" ry="3.2"/>
</g>
<!-- topics -->
<g id="node6" class="node">
<title>topics</title>
<g id="a_node6"><a xlink:href="../../tables/topics.html" xlink:title="topics" target="_top">
<polygon fill="#ffffff" stroke="transparent" points="642.5,-237.7 642.5,-298.7 725.5,-298.7 725.5,-237.7 642.5,-237.7"/>
<polygon fill="#f5f5f5" stroke="transparent" points="643,-275.2 643,-298.2 726,-298.2 726,-275.2 643,-275.2"/>
<polygon fill="none" stroke="#000000" points="643,-275.2 643,-298.2 726,-298.2 726,-275.2 643,-275.2"/>
<text text-anchor="start" x="648" y="-283.8" font-family="Helvetica,sans-Serif" font-weight="bold" font-size="11.00" fill="#000000">topics</text>
<text text-anchor="start" x="691.5219" y="-283.3" font-family="Helvetica,sans-Serif" font-size="11.00" fill="#000000">[table]</text>
<polygon fill="none" stroke="#000000" points="643,-256.2 643,-275.2 726,-275.2 726,-256.2 643,-256.2"/>
<text text-anchor="start" x="646" y="-262.3" font-family="Helvetica,sans-Serif" font-size="11.00" fill="#000000">...</text>
<polygon fill="#ffffff" stroke="transparent" points="643,-237.2 643,-256.2 726,-256.2 726,-237.2 643,-237.2"/>
<polygon fill="none" stroke="#000000" points="643,-237.2 643,-256.2 726,-256.2 726,-237.2 643,-237.2"/>
<polygon fill="#ffffff" stroke="transparent" points="644,-238.2 644,-255.2 677,-255.2 677,-238.2 644,-238.2"/>
<text text-anchor="start" x="646" y="-243.3" font-family="Helvetica,sans-Serif" font-size="11.00" fill="#000000">&lt; 1</text>
<polygon fill="#ffffff" stroke="transparent" points="677,-238.2 677,-255.2 701,-255.2 701,-238.2 677,-238.2"/>
<text text-anchor="start" x="685.9431" y="-243.3" font-family="Helvetica,sans-Serif" font-size="11.00" fill="#000000"> &#160;</text>
<polygon fill="#ffffff" stroke="transparent" points="701,-238.2 701,-255.2 725,-255.2 725,-238.2 701,-238.2"/>
<text text-anchor="start" x="716.8862" y="-243.3" font-family="Helvetica,sans-Serif" font-size="11.00" fill="#000000"> &#160;</text>
<polygon fill="#000000" stroke="#000000" points="677,-238.2 677,-255.2 677,-255.2 677,-238.2 677,-238.2"/>
<polygon fill="#000000" stroke="#000000" points="701,-238.2 701,-255.2 701,-255.2 701,-238.2 701,-238.2"/>
</a>
</g>
</g>
<!-- topics&#45;&gt;summaries -->
<g id="edge6" class="edge">
<title>topics:w&#45;&gt;summaries:e</title>
<path fill="none" stroke="#000000" d="M628.5578,-265.844C572.0497,-271.0601 557.2843,-306.2 493.5,-306.2"/>
<polygon fill="#000000" stroke="#000000" points="635.0079,-265.5564 643.1604,-268.7964 639.004,-265.3782 643,-265.2 643,-265.2 643,-265.2 639.004,-265.3782 642.8396,-261.6036 635.0079,-265.5564 635.0079,-265.5564"/>
<ellipse fill="none" stroke="#000000" cx="631.8111" cy="-265.699" rx="3.2" ry="3.2"/>
</g>
<!-- transcript_segments -->
<g id="node7" class="node">
<title>transcript_segments</title>
<g id="a_node7"><a xlink:href="../../tables/transcript_segments.html" xlink:title="transcript_segments" target="_top">
<polygon fill="#ffffff" stroke="transparent" points="542,-38.2 542,-216.2 826,-216.2 826,-38.2 542,-38.2"/>
<polygon fill="#f5f5f5" stroke="transparent" points="544,-191.2 544,-214.2 824,-214.2 824,-191.2 544,-191.2"/>
<polygon fill="none" stroke="#000000" points="544,-191.2 544,-214.2 824,-214.2 824,-191.2 544,-191.2"/>
<text text-anchor="start" x="549" y="-199.8" font-family="Helvetica,sans-Serif" font-weight="bold" font-size="11.00" fill="#000000">transcript_segments</text>
<text text-anchor="start" x="789.0437" y="-199.3" font-family="Helvetica,sans-Serif" font-size="11.00" fill="#000000">[table]</text>
<polygon fill="none" stroke="#000000" points="544,-169.2 544,-191.2 715,-191.2 715,-169.2 544,-169.2"/>
<image xlink:href="../../images/primaryKeys.png" width="11px" height="12px" preserveAspectRatio="xMinYMin meet" x="549" y="-186.2"/>
<text text-anchor="start" x="564" y="-176.3" font-family="Helvetica,sans-Serif" font-size="11.00" fill="#000000">id</text>
<polygon fill="none" stroke="#000000" points="715,-169.2 715,-191.2 824,-191.2 824,-169.2 715,-169.2"/>
<text text-anchor="start" x="718" y="-176.9" font-family="Helvetica,sans-Serif" font-size="11.00" fill="#000000">bigserial[19]</text>
<polygon fill="#ffffff" stroke="transparent" points="544,-147.2 544,-169.2 715,-169.2 715,-147.2 544,-147.2"/>
<polygon fill="none" stroke="#000000" points="544,-147.2 544,-169.2 715,-169.2 715,-147.2 544,-147.2"/>
<image xlink:href="../../images/foreignKeys.png" width="11px" height="12px" preserveAspectRatio="xMinYMin meet" x="549" y="-164.2"/>
<text text-anchor="start" x="564" y="-154.3" font-family="Helvetica,sans-Serif" font-size="11.00" fill="#000000">summary_id</text>
<polygon fill="none" stroke="#000000" points="715,-147.2 715,-169.2 824,-169.2 824,-147.2 715,-147.2"/>
<text text-anchor="start" x="718" y="-154.9" font-family="Helvetica,sans-Serif" font-size="11.00" fill="#000000">uuid[2147483647]</text>
<polygon fill="none" stroke="#000000" points="544,-125.2 544,-147.2 715,-147.2 715,-125.2 544,-125.2"/>
<text text-anchor="start" x="564" y="-132.3" font-family="Helvetica,sans-Serif" font-size="11.00" fill="#000000">speaker_label</text>
<polygon fill="none" stroke="#000000" points="715,-125.2 715,-147.2 824,-147.2 824,-125.2 715,-125.2"/>
<text text-anchor="start" x="718" y="-132.9" font-family="Helvetica,sans-Serif" font-size="11.00" fill="#000000">varchar[64]</text>
<polygon fill="none" stroke="#000000" points="544,-103.2 544,-125.2 715,-125.2 715,-103.2 544,-103.2"/>
<text text-anchor="start" x="564" y="-110.3" font-family="Helvetica,sans-Serif" font-size="11.00" fill="#000000">start_ms</text>
<polygon fill="none" stroke="#000000" points="715,-103.2 715,-125.2 824,-125.2 824,-103.2 715,-103.2"/>
<text text-anchor="start" x="718" y="-110.9" font-family="Helvetica,sans-Serif" font-size="11.00" fill="#000000">int4[10]</text>
<polygon fill="none" stroke="#000000" points="544,-81.2 544,-103.2 715,-103.2 715,-81.2 544,-81.2"/>
<text text-anchor="start" x="564" y="-88.3" font-family="Helvetica,sans-Serif" font-size="11.00" fill="#000000">end_ms</text>
<polygon fill="none" stroke="#000000" points="715,-81.2 715,-103.2 824,-103.2 824,-81.2 715,-81.2"/>
<text text-anchor="start" x="718" y="-88.9" font-family="Helvetica,sans-Serif" font-size="11.00" fill="#000000">int4[10]</text>
<polygon fill="none" stroke="#000000" points="544,-59.2 544,-81.2 715,-81.2 715,-59.2 544,-59.2"/>
<text text-anchor="start" x="564" y="-66.3" font-family="Helvetica,sans-Serif" font-size="11.00" fill="#000000">text</text>
<polygon fill="none" stroke="#000000" points="715,-59.2 715,-81.2 824,-81.2 824,-59.2 715,-59.2"/>
<text text-anchor="start" x="717.5344" y="-66.9" font-family="Helvetica,sans-Serif" font-size="11.00" fill="#000000">varchar[2147483647]</text>
<polygon fill="#ffffff" stroke="transparent" points="544,-40.2 544,-59.2 824,-59.2 824,-40.2 544,-40.2"/>
<polygon fill="none" stroke="#000000" points="544,-40.2 544,-59.2 824,-59.2 824,-40.2 544,-40.2"/>
<polygon fill="#ffffff" stroke="transparent" points="545,-41.2 545,-58.2 641,-58.2 641,-41.2 545,-41.2"/>
<text text-anchor="start" x="547" y="-46.3" font-family="Helvetica,sans-Serif" font-size="11.00" fill="#000000">&lt; 1</text>
<polygon fill="#ffffff" stroke="transparent" points="641,-41.2 641,-58.2 728,-58.2 728,-41.2 641,-41.2"/>
<text text-anchor="start" x="681.4431" y="-46.3" font-family="Helvetica,sans-Serif" font-size="11.00" fill="#000000"> &#160;</text>
<polygon fill="#ffffff" stroke="transparent" points="728,-41.2 728,-58.2 823,-58.2 823,-41.2 728,-41.2"/>
<text text-anchor="start" x="805.4053" y="-46.3" font-family="Helvetica,sans-Serif" font-size="11.00" fill="#000000">0 &gt;</text>
<polygon fill="#000000" stroke="#000000" points="641,-41.2 641,-58.2 641,-58.2 641,-41.2 641,-41.2"/>
<polygon fill="#000000" stroke="#000000" points="728,-41.2 728,-58.2 728,-58.2 728,-41.2 728,-41.2"/>
<polygon fill="none" stroke="#000000" stroke-width="2" points="543,-39.2 543,-215.2 825,-215.2 825,-39.2 543,-39.2"/>
</a>
</g>
</g>
<!-- transcript_segments&#45;&gt;summaries -->
<g id="edge7" class="edge">
<title>transcript_segments:w&#45;&gt;summaries:e</title>
<path fill="none" stroke="#000000" d="M529.6451,-161.1564C488.2497,-182.0155 557.1645,-306.2 493.5,-306.2"/>
<polygon fill="#000000" stroke="#000000" points="536.1644,-159.8138 544.7262,-161.726 540.0822,-159.0069 544,-158.2 544,-158.2 544,-158.2 540.0822,-159.0069 543.2738,-154.674 536.1644,-159.8138 536.1644,-159.8138"/>
<ellipse fill="none" stroke="#000000" cx="533.0302" cy="-160.4593" rx="3.2" ry="3.2"/>
</g>
</g>
</svg>
