<?xml version="1.0" encoding="UTF-8" standalone="no"?>
<!DOCTYPE svg PUBLIC "-//W3C//DTD SVG 1.1//EN"
 "http://www.w3.org/Graphics/SVG/1.1/DTD/svg11.dtd">
<!-- Generated by graphviz version 2.40.1 (20161225.0304)
 -->
<!-- Title: oneDegreeRelationshipsDiagram Pages: 1 -->
<svg width="661pt" height="545pt"
 viewBox="0.00 0.00 661.00 545.20" xmlns="http://www.w3.org/2000/svg" xmlns:xlink="http://www.w3.org/1999/xlink">
<g id="graph0" class="graph" transform="scale(1 1) rotate(0) translate(4 541.2)">
<title>oneDegreeRelationshipsDiagram</title>
<polygon fill="#ffffff" stroke="transparent" points="-4,4 -4,-541.2 657,-541.2 657,4 -4,4"/>
<text text-anchor="middle" x="72.4936" y="-7.3" font-family="Helvetica,sans-Serif" font-size="11.00" fill="#000000">Generated by SchemaSpy</text>
<!-- oauth_identities -->
<g id="node1" class="node">
<title>oauth_identities</title>
<g id="a_node1"><a xlink:href="../../tables/oauth_identities.html" xlink:title="oauth_identities" target="_top">
<polygon fill="#ffffff" stroke="transparent" points="290.5,-384.2 290.5,-533.2 447.5,-533.2 447.5,-384.2 290.5,-384.2"/>
<polygon fill="#f5f5f5" stroke="transparent" points="291,-509.7 291,-532.7 448,-532.7 448,-509.7 291,-509.7"/>
<polygon fill="none" stroke="#000000" points="291,-509.7 291,-532.7 448,-532.7 448,-509.7 291,-509.7"/>
<text text-anchor="start" x="296" y="-518.3" font-family="Helvetica,sans-Serif" font-weight="bold" font-size="11.00" fill="#000000">oauth_identities</text>
<text text-anchor="start" x="413.5219" y="-517.8" font-family="Helvetica,sans-Serif" font-size="11.00" fill="#000000">[table]</text>
<polygon fill="none" stroke="#000000" points="291,-487.7 291,-509.7 448,-509.7 448,-487.7 291,-487.7"/>
<image xlink:href="../../images/primaryKeys.png" width="11px" height="12px" preserveAspectRatio="xMinYMin meet" x="296" y="-504.7"/>
<text text-anchor="start" x="320" y="-494.8" font-family="Helvetica,sans-Serif" font-size="11.00" fill="#000000">id</text>
<polygon fill="#ffffff" stroke="transparent" points="291,-465.7 291,-487.7 448,-487.7 448,-465.7 291,-465.7"/>
<polygon fill="none" stroke="#000000" points="291,-465.7 291,-487.7 448,-487.7 448,-465.7 291,-465.7"/>
<image xlink:href="../../images/foreignKeys.png" width="11px" height="12px" preserveAspectRatio="xMinYMin meet" x="296" y="-482.7"/>
<text text-anchor="start" x="320" y="-472.8" font-family="Helvetica,sans-Serif" font-size="11.00" fill="#000000">user_id</text>
<polygon fill="#ffffff" stroke="transparent" points="291,-443.7 291,-465.7 448,-465.7 448,-443.7 291,-443.7"/>
<polygon fill="none" stroke="#000000" points="291,-443.7 291,-465.7 448,-465.7 448,-443.7 291,-443.7"/>
<text text-anchor="start" x="320" y="-450.8" font-family="Helvetica,sans-Serif" font-size="11.00" fill="#000000">provider</text>
<polygon fill="#ffffff" stroke="transparent" points="291,-421.7 291,-443.7 448,-443.7 448,-421.7 291,-421.7"/>
<polygon fill="none" stroke="#000000" points="291,-421.7 291,-443.7 448,-443.7 448,-421.7 291,-421.7"/>
<text text-anchor="start" x="320" y="-428.8" font-family="Helvetica,sans-Serif" font-size="11.00" fill="#000000">subject</text>
<polygon fill="none" stroke="#000000" points="291,-402.7 291,-421.7 448,-421.7 448,-402.7 291,-402.7"/>
<text text-anchor="start" x="294" y="-408.8" font-family="Helvetica,sans-Serif" font-size="11.00" fill="#000000">...</text>
<polygon fill="#ffffff" stroke="transparent" points="291,-383.7 291,-402.7 448,-402.7 448,-383.7 291,-383.7"/>
<polygon fill="none" stroke="#000000" points="291,-383.7 291,-402.7 448,-402.7 448,-383.7 291,-383.7"/>
<polygon fill="#ffffff" stroke="transparent" points="292,-384.7 292,-401.7 350,-401.7 350,-384.7 292,-384.7"/>
<text text-anchor="start" x="294" y="-389.8" font-family="Helvetica,sans-Serif" font-size="11.00" fill="#000000">&lt; 1</text>
<polygon fill="#ffffff" stroke="transparent" points="350,-384.7 350,-401.7 399,-401.7 399,-384.7 350,-384.7"/>
<text text-anchor="start" x="371.4431" y="-389.8" font-family="Helvetica,sans-Serif" font-size="11.00" fill="#000000"> &#160;</text>
<polygon fill="#ffffff" stroke="transparent" points="399,-384.7 399,-401.7 447,-401.7 447,-384.7 399,-384.7"/>
<text text-anchor="start" x="438.8862" y="-389.8" font-family="Helvetica,sans-Serif" font-size="11.00" fill="#000000"> &#160;</text>
<polygon fill="#000000" stroke="#000000" points="350,-384.7 350,-401.7 350,-401.7 350,-384.7 350,-384.7"/>
<polygon fill="#000000" stroke="#000000" points="399,-384.7 399,-401.7 399,-401.7 399,-384.7 399,-384.7"/>
</a>
</g>
</g>
<!-- users -->
<g id="node2" class="node">
<title>users</title>
<g id="a_node2"><a xlink:href="../../tables/users.html" xlink:title="users" target="_top">
<polygon fill="#ffffff" stroke="transparent" points="8,-154.7 8,-354.7 238,-354.7 238,-154.7 8,-154.7"/>
<polygon fill="#f5f5f5" stroke="transparent" points="10,-329.7 10,-352.7 236,-352.7 236,-329.7 10,-329.7"/>
<polygon fill="none" stroke="#000000" points="10,-329.7 10,-352.7 236,-352.7 236,-329.7 10,-329.7"/>
<text text-anchor="start" x="15" y="-338.3" font-family="Helvetica,sans-Serif" font-weight="bold" font-size="11.00" fill="#000000">users</text>
<text text-anchor="start" x="201.0437" y="-337.8" font-family="Helvetica,sans-Serif" font-size="11.00" fill="#000000">[table]</text>
<polygon fill="none" stroke="#000000" points="10,-307.7 10,-329.7 113,-329.7 113,-307.7 10,-307.7"/>
<image xlink:href="../../images/primaryKeys.png" width="11px" height="12px" preserveAspectRatio="xMinYMin meet" x="15" y="-324.7"/>
<text text-anchor="start" x="30" y="-314.8" font-family="Helvetica,sans-Serif" font-size="11.00" fill="#000000">id</text>
<polygon fill="none" stroke="#000000" points="113,-307.7 113,-329.7 236,-329.7 236,-307.7 113,-307.7"/>
<text text-anchor="start" x="116" y="-315.4" font-family="Helvetica,sans-Serif" font-size="11.00" fill="#000000">uuid[2147483647]</text>
<polygon fill="none" stroke="#000000" points="10,-285.7 10,-307.7 113,-307.7 113,-285.7 10,-285.7"/>
<text text-anchor="start" x="30" y="-292.8" font-family="Helvetica,sans-Serif" font-size="11.00" fill="#000000">email</text>
<polygon fill="none" stroke="#000000" points="113,-285.7 113,-307.7 236,-307.7 236,-285.7 113,-285.7"/>
<text text-anchor="start" x="116" y="-293.4" font-family="Helvetica,sans-Serif" font-size="11.00" fill="#000000">varchar[320]</text>
<polygon fill="none" stroke="#000000" points="10,-263.7 10,-285.7 113,-285.7 113,-263.7 10,-263.7"/>
<text text-anchor="start" x="30" y="-270.8" font-family="Helvetica,sans-Serif" font-size="11.00" fill="#000000">name</text>
<polygon fill="none" stroke="#000000" points="113,-263.7 113,-285.7 236,-285.7 236,-263.7 113,-263.7"/>
<text text-anchor="start" x="116" y="-271.4" font-family="Helvetica,sans-Serif" font-size="11.00" fill="#000000">varchar[255]</text>
<polygon fill="none" stroke="#000000" points="10,-241.7 10,-263.7 113,-263.7 113,-241.7 10,-241.7"/>
<text text-anchor="start" x="30" y="-248.8" font-family="Helvetica,sans-Serif" font-size="11.00" fill="#000000">created_at</text>
<polygon fill="none" stroke="#000000" points="113,-241.7 113,-263.7 236,-263.7 236,-241.7 113,-241.7"/>
<text text-anchor="start" x="116" y="-249.4" font-family="Helvetica,sans-Serif" font-size="11.00" fill="#000000">timestamptz[35,6]</text>
<polygon fill="none" stroke="#000000" points="10,-219.7 10,-241.7 113,-241.7 113,-219.7 10,-219.7"/>
<text text-anchor="start" x="30" y="-226.8" font-family="Helvetica,sans-Serif" font-size="11.00" fill="#000000">updated_at</text>
<polygon fill="none" stroke="#000000" points="113,-219.7 113,-241.7 236,-241.7 236,-219.7 113,-219.7"/>
<text text-anchor="start" x="116" y="-227.4" font-family="Helvetica,sans-Serif" font-size="11.00" fill="#000000">timestamptz[35,6]</text>
<polygon fill="none" stroke="#000000" points="10,-197.7 10,-219.7 113,-219.7 113,-197.7 10,-197.7"/>
<text text-anchor="start" x="30" y="-204.8" font-family="Helvetica,sans-Serif" font-size="11.00" fill="#000000">role</text>
<polygon fill="none" stroke="#000000" points="113,-197.7 113,-219.7 236,-219.7 236,-197.7 113,-197.7"/>
<text text-anchor="start" x="116" y="-205.4" font-family="Helvetica,sans-Serif" font-size="11.00" fill="#000000">userrole[2147483647]</text>
<polygon fill="none" stroke="#000000" points="10,-175.7 10,-197.7 113,-197.7 113,-175.7 10,-175.7"/>
<text text-anchor="start" x="30" y="-182.8" font-family="Helvetica,sans-Serif" font-size="11.00" fill="#000000">status</text>
<polygon fill="none" stroke="#000000" points="113,-175.7 113,-197.7 236,-197.7 236,-175.7 113,-175.7"/>
<text text-anchor="start" x="115.501" y="-183.4" font-family="Helvetica,sans-Serif" font-size="11.00" fill="#000000">userstatus[2147483647]</text>
<polygon fill="#ffffff" stroke="transparent" points="10,-156.7 10,-175.7 236,-175.7 236,-156.7 10,-156.7"/>
<polygon fill="none" stroke="#000000" points="10,-156.7 10,-175.7 236,-175.7 236,-156.7 10,-156.7"/>
<polygon fill="#ffffff" stroke="transparent" points="11,-157.7 11,-174.7 89,-174.7 89,-157.7 11,-157.7"/>
<text text-anchor="start" x="13" y="-162.8" font-family="Helvetica,sans-Serif" font-size="11.00" fill="#000000">&lt; 0</text>
<polygon fill="#ffffff" stroke="transparent" points="89,-157.7 89,-174.7 158,-174.7 158,-157.7 89,-157.7"/>
<text text-anchor="start" x="120.4431" y="-162.8" font-family="Helvetica,sans-Serif" font-size="11.00" fill="#000000"> &#160;</text>
<polygon fill="#ffffff" stroke="transparent" points="158,-157.7 158,-174.7 235,-174.7 235,-157.7 158,-157.7"/>
<text text-anchor="start" x="217.4053" y="-162.8" font-family="Helvetica,sans-Serif" font-size="11.00" fill="#000000">4 &gt;</text>
<polygon fill="#000000" stroke="#000000" points="89,-157.7 89,-174.7 89,-174.7 89,-157.7 89,-157.7"/>
<polygon fill="#000000" stroke="#000000" points="158,-157.7 158,-174.7 158,-174.7 158,-157.7 158,-157.7"/>
<polygon fill="none" stroke="#000000" stroke-width="2" points="9,-155.7 9,-353.7 237,-353.7 237,-155.7 9,-155.7"/>
</a>
</g>
</g>
<!-- oauth_identities&#45;&gt;users -->
<g id="edge1" class="edge">
<title>oauth_identities:w&#45;&gt;users:e</title>
<path fill="none" stroke="#000000" d="M276.7856,-474.0894C229.9459,-453.5464 304.6914,-318.7 236,-318.7"/>
<polygon fill="#000000" stroke="#000000" points="283.1316,-475.2549 290.3497,-480.2408 287.0658,-475.9774 291,-476.7 291,-476.7 291,-476.7 287.0658,-475.9774 291.6503,-473.1592 283.1316,-475.2549 283.1316,-475.2549"/>
<ellipse fill="none" stroke="#000000" cx="279.9842" cy="-474.6768" rx="3.2" ry="3.2"/>
</g>
<!-- summaries -->
<g id="node3" class="node">
<title>summaries</title>
<g id="a_node3"><a xlink:href="../../tables/summaries.html" xlink:title="summaries" target="_top">
<polygon fill="#ffffff" stroke="transparent" points="500,-270.2 500,-419.2 645,-419.2 645,-270.2 500,-270.2"/>
<polygon fill="#f5f5f5" stroke="transparent" points="500.5,-395.7 500.5,-418.7 645.5,-418.7 645.5,-395.7 500.5,-395.7"/>
<polygon fill="none" stroke="#000000" points="500.5,-395.7 500.5,-418.7 645.5,-418.7 645.5,-395.7 500.5,-395.7"/>
<text text-anchor="start" x="505.5" y="-404.3" font-family="Helvetica,sans-Serif" font-weight="bold" font-size="11.00" fill="#000000">summaries</text>
<text text-anchor="start" x="610.5437" y="-403.8" font-family="Helvetica,sans-Serif" font-size="11.00" fill="#000000">[table]</text>
<polygon fill="none" stroke="#000000" points="500.5,-373.7 500.5,-395.7 645.5,-395.7 645.5,-373.7 500.5,-373.7"/>
<image xlink:href="../../images/primaryKeys.png" width="11px" height="12px" preserveAspectRatio="xMinYMin meet" x="505.5" y="-390.7"/>
<text text-anchor="start" x="520.5" y="-380.8" font-family="Helvetica,sans-Serif" font-size="11.00" fill="#000000">id</text>
<polygon fill="#ffffff" stroke="transparent" points="500.5,-351.7 500.5,-373.7 645.5,-373.7 645.5,-351.7 500.5,-351.7"/>
<polygon fill="none" stroke="#000000" points="500.5,-351.7 500.5,-373.7 645.5,-373.7 645.5,-351.7 500.5,-351.7"/>
<text text-anchor="start" x="520.5" y="-358.8" font-family="Helvetica,sans-Serif" font-size="11.00" fill="#000000">content_hash</text>
<polygon fill="#ffffff" stroke="transparent" points="500.5,-329.7 500.5,-351.7 645.5,-351.7 645.5,-329.7 500.5,-329.7"/>
<polygon fill="none" stroke="#000000" points="500.5,-329.7 500.5,-351.7 645.5,-351.7 645.5,-329.7 500.5,-329.7"/>
<image xlink:href="../../images/foreignKeys.png" width="11px" height="12px" preserveAspectRatio="xMinYMin meet" x="505.5" y="-346.7"/>
<text text-anchor="start" x="520.5" y="-336.8" font-family="Helvetica,sans-Serif" font-size="11.00" fill="#000000">user_id</text>
<polygon fill="#ffffff" stroke="transparent" points="500.5,-307.7 500.5,-329.7 645.5,-329.7 645.5,-307.7 500.5,-307.7"/>
<polygon fill="none" stroke="#000000" points="500.5,-307.7 500.5,-329.7 645.5,-329.7 645.5,-307.7 500.5,-307.7"/>
<image xlink:href="../../images/foreignKeys.png" width="11px" height="12px" preserveAspectRatio="xMinYMin meet" x="505.5" y="-324.7"/>
<text text-anchor="start" x="520.5" y="-314.8" font-family="Helvetica,sans-Serif" font-size="11.00" fill="#000000">group_id</text>
<polygon fill="none" stroke="#000000" points="500.5,-288.7 500.5,-307.7 645.5,-307.7 645.5,-288.7 500.5,-288.7"/>
<text text-anchor="start" x="503.5" y="-294.8" font-family="Helvetica,sans-Serif" font-size="11.00" fill="#000000">...</text>
<polygon fill="#ffffff" stroke="transparent" points="500.5,-269.7 500.5,-288.7 645.5,-288.7 645.5,-269.7 500.5,-269.7"/>
<polygon fill="none" stroke="#000000" points="500.5,-269.7 500.5,-288.7 645.5,-288.7 645.5,-269.7 500.5,-269.7"/>
<polygon fill="#ffffff" stroke="transparent" points="501.5,-270.7 501.5,-287.7 552.5,-287.7 552.5,-270.7 501.5,-270.7"/>
<text text-anchor="start" x="503.5" y="-275.8" font-family="Helvetica,sans-Serif" font-size="11.00" fill="#000000">&lt; 2</text>
<polygon fill="#ffffff" stroke="transparent" points="552.5,-270.7 552.5,-287.7 594.5,-287.7 594.5,-270.7 552.5,-270.7"/>
<text text-anchor="start" x="570.4431" y="-275.8" font-family="Helvetica,sans-Serif" font-size="11.00" fill="#000000"> &#160;</text>
<polygon fill="#ffffff" stroke="transparent" points="594.5,-270.7 594.5,-287.7 644.5,-287.7 644.5,-270.7 594.5,-270.7"/>
<text text-anchor="start" x="626.9053" y="-275.8" font-family="Helvetica,sans-Serif" font-size="11.00" fill="#000000">4 &gt;</text>
<polygon fill="#000000" stroke="#000000" points="552.5,-270.7 552.5,-287.7 552.5,-287.7 552.5,-270.7 552.5,-270.7"/>
<polygon fill="#000000" stroke="#000000" points="594.5,-270.7 594.5,-287.7 594.5,-287.7 594.5,-270.7 594.5,-270.7"/>
</a>
</g>
</g>
<!-- summaries&#45;&gt;users -->
<g id="edge3" class="edge">
<title>summaries:w&#45;&gt;users:e</title>
<path fill="none" stroke="#000000" d="M486.0864,-341.6775C477.6642,-342.9054 471.6044,-344.9434 459,-345.7 379.1437,-350.4933 355.8768,-367.8349 279,-345.7 257.3147,-339.4562 258.5662,-318.7 236,-318.7"/>
<polygon fill="#000000" stroke="#000000" points="492.5183,-341.2413 500.7436,-344.2917 496.5092,-340.9707 500.5,-340.7 500.5,-340.7 500.5,-340.7 496.5092,-340.9707 500.2564,-337.1083 492.5183,-341.2413 492.5183,-341.2413"/>
<ellipse fill="none" stroke="#000000" cx="489.3257" cy="-341.4579" rx="3.2" ry="3.2"/>
</g>
<!-- summary_groups -->
<g id="node4" class="node">
<title>summary_groups</title>
<g id="a_node4"><a xlink:href="../../tables/summary_groups.html" xlink:title="summary_groups" target="_top">
<polygon fill="#ffffff" stroke="transparent" points="287,-208.2 287,-335.2 451,-335.2 451,-208.2 287,-208.2"/>
<polygon fill="#f5f5f5" stroke="transparent" points="287,-311.7 287,-334.7 451,-334.7 451,-311.7 287,-311.7"/>
<polygon fill="none" stroke="#000000" points="287,-311.7 287,-334.7 451,-334.7 451,-311.7 287,-311.7"/>
<text text-anchor="start" x="292" y="-320.3" font-family="Helvetica,sans-Serif" font-weight="bold" font-size="11.00" fill="#000000">summary_groups</text>
<text text-anchor="start" x="416.5219" y="-319.8" font-family="Helvetica,sans-Serif" font-size="11.00" fill="#000000">[table]</text>
<polygon fill="none" stroke="#000000" points="287,-289.7 287,-311.7 451,-311.7 451,-289.7 287,-289.7"/>
<image xlink:href="../../images/primaryKeys.png" width="11px" height="12px" preserveAspectRatio="xMinYMin meet" x="292" y="-306.7"/>
<text text-anchor="start" x="316" y="-296.8" font-family="Helvetica,sans-Serif" font-size="11.00" fill="#000000">id</text>
<polygon fill="#ffffff" stroke="transparent" points="287,-267.7 287,-289.7 451,-289.7 451,-267.7 287,-267.7"/>
<polygon fill="none" stroke="#000000" points="287,-267.7 287,-289.7 451,-289.7 451,-267.7 287,-267.7"/>
<image xlink:href="../../images/foreignKeys.png" width="11px" height="12px" preserveAspectRatio="xMinYMin meet" x="292" y="-284.7"/>
<text text-anchor="start" x="316" y="-274.8" font-family="Helvetica,sans-Serif" font-size="11.00" fill="#000000">user_id</text>
<polygon fill="#ffffff" stroke="transparent" points="287,-245.7 287,-267.7 451,-267.7 451,-245.7 287,-245.7"/>
<polygon fill="none" stroke="#000000" points="287,-245.7 287,-267.7 451,-267.7 451,-245.7 287,-245.7"/>
<text text-anchor="start" x="316" y="-252.8" font-family="Helvetica,sans-Serif" font-size="11.00" fill="#000000">name</text>
<polygon fill="none" stroke="#000000" points="287,-226.7 287,-245.7 451,-245.7 451,-226.7 287,-226.7"/>
<text text-anchor="start" x="290" y="-232.8" font-family="Helvetica,sans-Serif" font-size="11.00" fill="#000000">...</text>
<polygon fill="#ffffff" stroke="transparent" points="287,-207.7 287,-226.7 451,-226.7 451,-207.7 287,-207.7"/>
<polygon fill="none" stroke="#000000" points="287,-207.7 287,-226.7 451,-226.7 451,-207.7 287,-207.7"/>
<polygon fill="#ffffff" stroke="transparent" points="288,-208.7 288,-225.7 345,-225.7 345,-208.7 288,-208.7"/>
<text text-anchor="start" x="290" y="-213.8" font-family="Helvetica,sans-Serif" font-size="11.00" fill="#000000">&lt; 1</text>
<polygon fill="#ffffff" stroke="transparent" points="345,-208.7 345,-225.7 393,-225.7 393,-208.7 345,-208.7"/>
<text text-anchor="start" x="365.9431" y="-213.8" font-family="Helvetica,sans-Serif" font-size="11.00" fill="#000000"> &#160;</text>
<polygon fill="#ffffff" stroke="transparent" points="393,-208.7 393,-225.7 450,-225.7 450,-208.7 393,-208.7"/>
<text text-anchor="start" x="432.4053" y="-213.8" font-family="Helvetica,sans-Serif" font-size="11.00" fill="#000000">1 &gt;</text>
<polygon fill="#000000" stroke="#000000" points="345,-208.7 345,-225.7 345,-225.7 345,-208.7 345,-208.7"/>
<polygon fill="#000000" stroke="#000000" points="393,-208.7 393,-225.7 393,-225.7 393,-208.7 393,-208.7"/>
</a>
</g>
</g>
<!-- summaries&#45;&gt;summary_groups -->
<g id="edge2" class="edge">
<title>summaries:w&#45;&gt;summary_groups:e</title>
<path fill="none" stroke="#000000" d="M486.1817,-315.8875C474.4545,-310.825 468.557,-300.7 451,-300.7"/>
<polygon fill="#000000" stroke="#000000" points="492.65,-317.158 499.8061,-322.2325 496.575,-317.929 500.5,-318.7 500.5,-318.7 500.5,-318.7 496.575,-317.929 501.1939,-315.1675 492.65,-317.158 492.65,-317.158"/>
<ellipse fill="none" stroke="#000000" cx="489.51" cy="-316.5412" rx="3.2" ry="3.2"/>
</g>
<!-- summary_groups&#45;&gt;users -->
<g id="edge4" class="edge">
<title>summary_groups:w&#45;&gt;users:e</title>
<path fill="none" stroke="#000000" d="M273.2365,-282.9807C259.4186,-293.2996 258.9554,-318.7 236,-318.7"/>
<polygon fill="#000000" stroke="#000000" points="279.3609,-281.0759 288.0692,-282.1376 283.1805,-279.888 287,-278.7 287,-278.7 287,-278.7 283.1805,-279.888 285.9308,-275.2624 279.3609,-281.0759 279.3609,-281.0759"/>
<ellipse fill="none" stroke="#000000" cx="276.3053" cy="-282.0263" rx="3.2" ry="3.2"/>
</g>
<!-- user_sessions -->
<g id="node5" class="node">
<title>user_sessions</title>
<g id="a_node5"><a xlink:href="../../tables/user_sessions.html" xlink:title="user_sessions" target="_top">
<polygon fill="#ffffff" stroke="transparent" points="299,-38.2 299,-187.2 439,-187.2 439,-38.2 299,-38.2"/>
<polygon fill="#f5f5f5" stroke="transparent" points="299,-163.7 299,-186.7 439,-186.7 439,-163.7 299,-163.7"/>
<polygon fill="none" stroke="#000000" points="299,-163.7 299,-186.7 439,-186.7 439,-163.7 299,-163.7"/>
<text text-anchor="start" x="304" y="-172.3" font-family="Helvetica,sans-Serif" font-weight="bold" font-size="11.00" fill="#000000">user_sessions</text>
<text text-anchor="start" x="404.5219" y="-171.8" font-family="Helvetica,sans-Serif" font-size="11.00" fill="#000000">[table]</text>
<polygon fill="none" stroke="#000000" points="299,-141.7 299,-163.7 439,-163.7 439,-141.7 299,-141.7"/>
<image xlink:href="../../images/primaryKeys.png" width="11px" height="12px" preserveAspectRatio="xMinYMin meet" x="304" y="-158.7"/>
<text text-anchor="start" x="328" y="-148.8" font-family="Helvetica,sans-Serif" font-size="11.00" fill="#000000">id</text>
<polygon fill="#ffffff" stroke="transparent" points="299,-119.7 299,-141.7 439,-141.7 439,-119.7 299,-119.7"/>
<polygon fill="none" stroke="#000000" points="299,-119.7 299,-141.7 439,-141.7 439,-119.7 299,-119.7"/>
<image xlink:href="../../images/foreignKeys.png" width="11px" height="12px" preserveAspectRatio="xMinYMin meet" x="304" y="-136.7"/>
<text text-anchor="start" x="328" y="-126.8" font-family="Helvetica,sans-Serif" font-size="11.00" fill="#000000">user_id</text>
<polygon fill="#ffffff" stroke="transparent" points="299,-97.7 299,-119.7 439,-119.7 439,-97.7 299,-97.7"/>
<polygon fill="none" stroke="#000000" points="299,-97.7 299,-119.7 439,-119.7 439,-97.7 299,-97.7"/>
<text text-anchor="start" x="328" y="-104.8" font-family="Helvetica,sans-Serif" font-size="11.00" fill="#000000">token_hash</text>
<polygon fill="#ffffff" stroke="transparent" points="299,-75.7 299,-97.7 439,-97.7 439,-75.7 299,-75.7"/>
<polygon fill="none" stroke="#000000" points="299,-75.7 299,-97.7 439,-97.7 439,-75.7 299,-75.7"/>
<text text-anchor="start" x="328" y="-82.8" font-family="Helvetica,sans-Serif" font-size="11.00" fill="#000000">expires_at</text>
<polygon fill="none" stroke="#000000" points="299,-56.7 299,-75.7 439,-75.7 439,-56.7 299,-56.7"/>
<text text-anchor="start" x="302" y="-62.8" font-family="Helvetica,sans-Serif" font-size="11.00" fill="#000000">...</text>
<polygon fill="#ffffff" stroke="transparent" points="299,-37.7 299,-56.7 439,-56.7 439,-37.7 299,-37.7"/>
<polygon fill="none" stroke="#000000" points="299,-37.7 299,-56.7 439,-56.7 439,-37.7 299,-37.7"/>
<polygon fill="#ffffff" stroke="transparent" points="300,-38.7 300,-55.7 352,-55.7 352,-38.7 300,-38.7"/>
<text text-anchor="start" x="302" y="-43.8" font-family="Helvetica,sans-Serif" font-size="11.00" fill="#000000">&lt; 1</text>
<polygon fill="#ffffff" stroke="transparent" points="352,-38.7 352,-55.7 395,-55.7 395,-38.7 352,-38.7"/>
<text text-anchor="start" x="370.4431" y="-43.8" font-family="Helvetica,sans-Serif" font-size="11.00" fill="#000000"> &#160;</text>
<polygon fill="#ffffff" stroke="transparent" points="395,-38.7 395,-55.7 438,-55.7 438,-38.7 395,-38.7"/>
<text text-anchor="start" x="429.8862" y="-43.8" font-family="Helvetica,sans-Serif" font-size="11.00" fill="#000000"> &#160;</text>
<polygon fill="#000000" stroke="#000000" points="352,-38.7 352,-55.7 352,-55.7 352,-38.7 352,-38.7"/>
<polygon fill="#000000" stroke="#000000" points="395,-38.7 395,-55.7 395,-55.7 395,-38.7 395,-38.7"/>
</a>
</g>
</g>
<!-- user_sessions&#45;&gt;users -->
<g id="edge5" class="edge">
<title>user_sessions:w&#45;&gt;users:e</title>
<path fill="none" stroke="#000000" d="M284.7385,-132.8113C224.2467,-153.4656 318.6146,-318.7 236,-318.7"/>
<polygon fill="#000000" stroke="#000000" points="291.0863,-131.8716 299.5272,-134.2612 295.0431,-131.2858 299,-130.7 299,-130.7 299,-130.7 295.0431,-131.2858 298.4728,-127.1388 291.0863,-131.8716 291.0863,-131.8716"/>
<ellipse fill="none" stroke="#000000" cx="287.9208" cy="-132.3403" rx="3.2" ry="3.2"/>
</g>
</g>
</svg>
