<?xml version="1.0" encoding="UTF-8" standalone="no"?>
<!DOCTYPE svg PUBLIC "-//W3C//DTD SVG 1.1//EN"
 "http://www.w3.org/Graphics/SVG/1.1/DTD/svg11.dtd">
<!-- Generated by graphviz version 2.40.1 (20161225.0304)
 -->
<!-- Title: oneDegreeRelationshipsDiagram Pages: 1 -->
<svg width="460pt" height="517pt"
 viewBox="0.00 0.00 460.00 517.20" xmlns="http://www.w3.org/2000/svg" xmlns:xlink="http://www.w3.org/1999/xlink">
<g id="graph0" class="graph" transform="scale(1 1) rotate(0) translate(4 513.2)">
<title>oneDegreeRelationshipsDiagram</title>
<polygon fill="#ffffff" stroke="transparent" points="-4,4 -4,-513.2 456,-513.2 456,4 -4,4"/>
<text text-anchor="middle" x="72.4936" y="-7.3" font-family="Helvetica,sans-Serif" font-size="11.00" fill="#000000">Generated by SchemaSpy</text>
<!-- oauth_identities -->
<g id="node1" class="node">
<title>oauth_identities</title>
<g id="a_node1"><a xlink:href="../../tables/oauth_identities.html" xlink:title="oauth_identities" target="_top">
<polygon fill="#ffffff" stroke="transparent" points="287,-356.2 287,-505.2 444,-505.2 444,-356.2 287,-356.2"/>
<polygon fill="#f5f5f5" stroke="transparent" points="287.5,-481.7 287.5,-504.7 444.5,-504.7 444.5,-481.7 287.5,-481.7"/>
<polygon fill="none" stroke="#000000" points="287.5,-481.7 287.5,-504.7 444.5,-504.7 444.5,-481.7 287.5,-481.7"/>
<text text-anchor="start" x="292.5" y="-490.3" font-family="Helvetica,sans-Serif" font-weight="bold" font-size="11.00" fill="#000000">oauth_identities</text>
<text text-anchor="start" x="410.0219" y="-489.8" font-family="Helvetica,sans-Serif" font-size="11.00" fill="#000000">[table]</text>
<polygon fill="none" stroke="#000000" points="287.5,-459.7 287.5,-481.7 444.5,-481.7 444.5,-459.7 287.5,-459.7"/>
<image xlink:href="../../images/primaryKeys.png" width="11px" height="12px" preserveAspectRatio="xMinYMin meet" x="292.5" y="-476.7"/>
<text text-anchor="start" x="316.5" y="-466.8" font-family="Helvetica,sans-Serif" font-size="11.00" fill="#000000">id</text>
<polygon fill="#ffffff" stroke="transparent" points="287.5,-437.7 287.5,-459.7 444.5,-459.7 444.5,-437.7 287.5,-437.7"/>
<polygon fill="none" stroke="#000000" points="287.5,-437.7 287.5,-459.7 444.5,-459.7 444.5,-437.7 287.5,-437.7"/>
<image xlink:href="../../images/foreignKeys.png" width="11px" height="12px" preserveAspectRatio="xMinYMin meet" x="292.5" y="-454.7"/>
<text text-anchor="start" x="316.5" y="-444.8" font-family="Helvetica,sans-Serif" font-size="11.00" fill="#000000">user_id</text>
<polygon fill="#ffffff" stroke="transparent" points="287.5,-415.7 287.5,-437.7 444.5,-437.7 444.5,-415.7 287.5,-415.7"/>
<polygon fill="none" stroke="#000000" points="287.5,-415.7 287.5,-437.7 444.5,-437.7 444.5,-415.7 287.5,-415.7"/>
<text text-anchor="start" x="316.5" y="-422.8" font-family="Helvetica,sans-Serif" font-size="11.00" fill="#000000">provider</text>
<polygon fill="#ffffff" stroke="transparent" points="287.5,-393.7 287.5,-415.7 444.5,-415.7 444.5,-393.7 287.5,-393.7"/>
<polygon fill="none" stroke="#000000" points="287.5,-393.7 287.5,-415.7 444.5,-415.7 444.5,-393.7 287.5,-393.7"/>
<text text-anchor="start" x="316.5" y="-400.8" font-family="Helvetica,sans-Serif" font-size="11.00" fill="#000000">subject</text>
<polygon fill="none" stroke="#000000" points="287.5,-374.7 287.5,-393.7 444.5,-393.7 444.5,-374.7 287.5,-374.7"/>
<text text-anchor="start" x="290.5" y="-380.8" font-family="Helvetica,sans-Serif" font-size="11.00" fill="#000000">...</text>
<polygon fill="#ffffff" stroke="transparent" points="287.5,-355.7 287.5,-374.7 444.5,-374.7 444.5,-355.7 287.5,-355.7"/>
<polygon fill="none" stroke="#000000" points="287.5,-355.7 287.5,-374.7 444.5,-374.7 444.5,-355.7 287.5,-355.7"/>
<polygon fill="#ffffff" stroke="transparent" points="288.5,-356.7 288.5,-373.7 346.5,-373.7 346.5,-356.7 288.5,-356.7"/>
<text text-anchor="start" x="290.5" y="-361.8" font-family="Helvetica,sans-Serif" font-size="11.00" fill="#000000">&lt; 1</text>
<polygon fill="#ffffff" stroke="transparent" points="346.5,-356.7 346.5,-373.7 395.5,-373.7 395.5,-356.7 346.5,-356.7"/>
<text text-anchor="start" x="367.9431" y="-361.8" font-family="Helvetica,sans-Serif" font-size="11.00" fill="#000000"> &#160;</text>
<polygon fill="#ffffff" stroke="transparent" points="395.5,-356.7 395.5,-373.7 443.5,-373.7 443.5,-356.7 395.5,-356.7"/>
<text text-anchor="start" x="435.3862" y="-361.8" font-family="Helvetica,sans-Serif" font-size="11.00" fill="#000000"> &#160;</text>
<polygon fill="#000000" stroke="#000000" points="346.5,-356.7 346.5,-373.7 346.5,-373.7 346.5,-356.7 346.5,-356.7"/>
<polygon fill="#000000" stroke="#000000" points="395.5,-356.7 395.5,-373.7 395.5,-373.7 395.5,-356.7 395.5,-356.7"/>
</a>
</g>
</g>
<!-- users -->
<g id="node2" class="node">
<title>users</title>
<g id="a_node2"><a xlink:href="../../tables/users.html" xlink:title="users" target="_top">
<polygon fill="#ffffff" stroke="transparent" points="8,-92.7 8,-292.7 238,-292.7 238,-92.7 8,-92.7"/>
<polygon fill="#f5f5f5" stroke="transparent" points="10,-267.7 10,-290.7 236,-290.7 236,-267.7 10,-267.7"/>
<polygon fill="none" stroke="#000000" points="10,-267.7 10,-290.7 236,-290.7 236,-267.7 10,-267.7"/>
<text text-anchor="start" x="15" y="-276.3" font-family="Helvetica,sans-Serif" font-weight="bold" font-size="11.00" fill="#000000">users</text>
<text text-anchor="start" x="201.0437" y="-275.8" font-family="Helvetica,sans-Serif" font-size="11.00" fill="#000000">[table]</text>
<polygon fill="none" stroke="#000000" points="10,-245.7 10,-267.7 113,-267.7 113,-245.7 10,-245.7"/>
<image xlink:href="../../images/primaryKeys.png" width="11px" height="12px" preserveAspectRatio="xMinYMin meet" x="15" y="-262.7"/>
<text text-anchor="start" x="30" y="-252.8" font-family="Helvetica,sans-Serif" font-size="11.00" fill="#000000">id</text>
<polygon fill="none" stroke="#000000" points="113,-245.7 113,-267.7 236,-267.7 236,-245.7 113,-245.7"/>
<text text-anchor="start" x="116" y="-253.4" font-family="Helvetica,sans-Serif" font-size="11.00" fill="#000000">uuid[2147483647]</text>
<polygon fill="none" stroke="#000000" points="10,-223.7 10,-245.7 113,-245.7 113,-223.7 10,-223.7"/>
<text text-anchor="start" x="30" y="-230.8" font-family="Helvetica,sans-Serif" font-size="11.00" fill="#000000">email</text>
<polygon fill="none" stroke="#000000" points="113,-223.7 113,-245.7 236,-245.7 236,-223.7 113,-223.7"/>
<text text-anchor="start" x="116" y="-231.4" font-family="Helvetica,sans-Serif" font-size="11.00" fill="#000000">varchar[320]</text>
<polygon fill="none" stroke="#000000" points="10,-201.7 10,-223.7 113,-223.7 113,-201.7 10,-201.7"/>
<text text-anchor="start" x="30" y="-208.8" font-family="Helvetica,sans-Serif" font-size="11.00" fill="#000000">name</text>
<polygon fill="none" stroke="#000000" points="113,-201.7 113,-223.7 236,-223.7 236,-201.7 113,-201.7"/>
<text text-anchor="start" x="116" y="-209.4" font-family="Helvetica,sans-Serif" font-size="11.00" fill="#000000">varchar[255]</text>
<polygon fill="none" stroke="#000000" points="10,-179.7 10,-201.7 113,-201.7 113,-179.7 10,-179.7"/>
<text text-anchor="start" x="30" y="-186.8" font-family="Helvetica,sans-Serif" font-size="11.00" fill="#000000">created_at</text>
<polygon fill="none" stroke="#000000" points="113,-179.7 113,-201.7 236,-201.7 236,-179.7 113,-179.7"/>
<text text-anchor="start" x="116" y="-187.4" font-family="Helvetica,sans-Serif" font-size="11.00" fill="#000000">timestamptz[35,6]</text>
<polygon fill="none" stroke="#000000" points="10,-157.7 10,-179.7 113,-179.7 113,-157.7 10,-157.7"/>
<text text-anchor="start" x="30" y="-164.8" font-family="Helvetica,sans-Serif" font-size="11.00" fill="#000000">updated_at</text>
<polygon fill="none" stroke="#000000" points="113,-157.7 113,-179.7 236,-179.7 236,-157.7 113,-157.7"/>
<text text-anchor="start" x="116" y="-165.4" font-family="Helvetica,sans-Serif" font-size="11.00" fill="#000000">timestamptz[35,6]</text>
<polygon fill="none" stroke="#000000" points="10,-135.7 10,-157.7 113,-157.7 113,-135.7 10,-135.7"/>
<text text-anchor="start" x="30" y="-142.8" font-family="Helvetica,sans-Serif" font-size="11.00" fill="#000000">role</text>
<polygon fill="none" stroke="#000000" points="113,-135.7 113,-157.7 236,-157.7 236,-135.7 113,-135.7"/>
<text text-anchor="start" x="116" y="-143.4" font-family="Helvetica,sans-Serif" font-size="11.00" fill="#000000">userrole[2147483647]</text>
<polygon fill="none" stroke="#000000" points="10,-113.7 10,-135.7 113,-135.7 113,-113.7 10,-113.7"/>
<text text-anchor="start" x="30" y="-120.8" font-family="Helvetica,sans-Serif" font-size="11.00" fill="#000000">status</text>
<polygon fill="none" stroke="#000000" points="113,-113.7 113,-135.7 236,-135.7 236,-113.7 113,-113.7"/>
<text text-anchor="start" x="115.501" y="-121.4" font-family="Helvetica,sans-Serif" font-size="11.00" fill="#000000">userstatus[2147483647]</text>
<polygon fill="#ffffff" stroke="transparent" points="10,-94.7 10,-113.7 236,-113.7 236,-94.7 10,-94.7"/>
<polygon fill="none" stroke="#000000" points="10,-94.7 10,-113.7 236,-113.7 236,-94.7 10,-94.7"/>
<polygon fill="#ffffff" stroke="transparent" points="11,-95.7 11,-112.7 89,-112.7 89,-95.7 11,-95.7"/>
<text text-anchor="start" x="13" y="-100.8" font-family="Helvetica,sans-Serif" font-size="11.00" fill="#000000">&lt; 0</text>
<polygon fill="#ffffff" stroke="transparent" points="89,-95.7 89,-112.7 158,-112.7 158,-95.7 89,-95.7"/>
<text text-anchor="start" x="120.4431" y="-100.8" font-family="Helvetica,sans-Serif" font-size="11.00" fill="#000000"> &#160;</text>
<polygon fill="#ffffff" stroke="transparent" points="158,-95.7 158,-112.7 235,-112.7 235,-95.7 158,-95.7"/>
<text text-anchor="start" x="217.4053" y="-100.8" font-family="Helvetica,sans-Serif" font-size="11.00" fill="#000000">3 &gt;</text>
<polygon fill="#000000" stroke="#000000" points="89,-95.7 89,-112.7 89,-112.7 89,-95.7 89,-95.7"/>
<polygon fill="#000000" stroke="#000000" points="158,-95.7 158,-112.7 158,-112.7 158,-95.7 158,-95.7"/>
<polygon fill="none" stroke="#000000" stroke-width="2" points="9,-93.7 9,-291.7 237,-291.7 237,-93.7 9,-93.7"/>
</a>
</g>
</g>
<!-- oauth_identities&#45;&gt;users -->
<g id="edge1" class="edge">
<title>oauth_identities:w&#45;&gt;users:e</title>
<path fill="none" stroke="#000000" d="M272.9638,-446.41C214.4021,-424.7476 318.6553,-256.7 236,-256.7"/>
<polygon fill="#000000" stroke="#000000" points="279.5975,-447.455 286.9398,-452.2561 283.5487,-448.0775 287.5,-448.7 287.5,-448.7 287.5,-448.7 283.5487,-448.0775 288.0602,-445.1439 279.5975,-447.455 279.5975,-447.455"/>
<ellipse fill="none" stroke="#000000" cx="276.4364" cy="-446.957" rx="3.2" ry="3.2"/>
</g>
<!-- summaries -->
<g id="node3" class="node">
<title>summaries</title>
<g id="a_node3"><a xlink:href="../../tables/summaries.html" xlink:title="summaries" target="_top">
<polygon fill="#ffffff" stroke="transparent" points="293,-208.2 293,-335.2 438,-335.2 438,-208.2 293,-208.2"/>
<polygon fill="#f5f5f5" stroke="transparent" points="293.5,-311.7 293.5,-334.7 438.5,-334.7 438.5,-311.7 293.5,-311.7"/>
<polygon fill="none" stroke="#000000" points="293.5,-311.7 293.5,-334.7 438.5,-334.7 438.5,-311.7 293.5,-311.7"/>
<text text-anchor="start" x="298.5" y="-320.3" font-family="Helvetica,sans-Serif" font-weight="bold" font-size="11.00" fill="#000000">summaries</text>
<text text-anchor="start" x="403.5437" y="-319.8" font-family="Helvetica,sans-Serif" font-size="11.00" fill="#000000">[table]</text>
<polygon fill="none" stroke="#000000" points="293.5,-289.7 293.5,-311.7 438.5,-311.7 438.5,-289.7 293.5,-289.7"/>
<image xlink:href="../../images/primaryKeys.png" width="11px" height="12px" preserveAspectRatio="xMinYMin meet" x="298.5" y="-306.7"/>
<text text-anchor="start" x="313.5" y="-296.8" font-family="Helvetica,sans-Serif" font-size="11.00" fill="#000000">id</text>
<polygon fill="#ffffff" stroke="transparent" points="293.5,-267.7 293.5,-289.7 438.5,-289.7 438.5,-267.7 293.5,-267.7"/>
<polygon fill="none" stroke="#000000" points="293.5,-267.7 293.5,-289.7 438.5,-289.7 438.5,-267.7 293.5,-267.7"/>
<text text-anchor="start" x="313.5" y="-274.8" font-family="Helvetica,sans-Serif" font-size="11.00" fill="#000000">content_hash</text>
<polygon fill="#ffffff" stroke="transparent" points="293.5,-245.7 293.5,-267.7 438.5,-267.7 438.5,-245.7 293.5,-245.7"/>
<polygon fill="none" stroke="#000000" points="293.5,-245.7 293.5,-267.7 438.5,-267.7 438.5,-245.7 293.5,-245.7"/>
<image xlink:href="../../images/foreignKeys.png" width="11px" height="12px" preserveAspectRatio="xMinYMin meet" x="298.5" y="-262.7"/>
<text text-anchor="start" x="313.5" y="-252.8" font-family="Helvetica,sans-Serif" font-size="11.00" fill="#000000">user_id</text>
<polygon fill="none" stroke="#000000" points="293.5,-226.7 293.5,-245.7 438.5,-245.7 438.5,-226.7 293.5,-226.7"/>
<text text-anchor="start" x="296.5" y="-232.8" font-family="Helvetica,sans-Serif" font-size="11.00" fill="#000000">...</text>
<polygon fill="#ffffff" stroke="transparent" points="293.5,-207.7 293.5,-226.7 438.5,-226.7 438.5,-207.7 293.5,-207.7"/>
<polygon fill="none" stroke="#000000" points="293.5,-207.7 293.5,-226.7 438.5,-226.7 438.5,-207.7 293.5,-207.7"/>
<polygon fill="#ffffff" stroke="transparent" points="294.5,-208.7 294.5,-225.7 345.5,-225.7 345.5,-208.7 294.5,-208.7"/>
<text text-anchor="start" x="296.5" y="-213.8" font-family="Helvetica,sans-Serif" font-size="11.00" fill="#000000">&lt; 1</text>
<polygon fill="#ffffff" stroke="transparent" points="345.5,-208.7 345.5,-225.7 387.5,-225.7 387.5,-208.7 345.5,-208.7"/>
<text text-anchor="start" x="363.4431" y="-213.8" font-family="Helvetica,sans-Serif" font-size="11.00" fill="#000000"> &#160;</text>
<polygon fill="#ffffff" stroke="transparent" points="387.5,-208.7 387.5,-225.7 437.5,-225.7 437.5,-208.7 387.5,-208.7"/>
<text text-anchor="start" x="419.9053" y="-213.8" font-family="Helvetica,sans-Serif" font-size="11.00" fill="#000000">3 &gt;</text>
<polygon fill="#000000" stroke="#000000" points="345.5,-208.7 345.5,-225.7 345.5,-225.7 345.5,-208.7 345.5,-208.7"/>
<polygon fill="#000000" stroke="#000000" points="387.5,-208.7 387.5,-225.7 387.5,-225.7 387.5,-208.7 387.5,-208.7"/>
</a>
</g>
</g>
<!-- summaries&#45;&gt;users -->
<g id="edge2" class="edge">
<title>summaries:w&#45;&gt;users:e</title>
<path fill="none" stroke="#000000" d="M279.0794,-256.7C264.2322,-256.7 255.9653,-256.7 236,-256.7"/>
<polygon fill="#000000" stroke="#000000" points="285.5,-256.7001 293.5,-260.3 289.5,-256.7 293.5,-256.7 293.5,-256.7 293.5,-256.7 289.5,-256.7 293.5,-253.1 285.5,-256.7001 285.5,-256.7001"/>
<ellipse fill="none" stroke="#000000" cx="282.3" cy="-256.7001" rx="3.2" ry="3.2"/>
</g>
<!-- user_sessions -->
<g id="node4" class="node">
<title>user_sessions</title>
<g id="a_node4"><a xlink:href="../../tables/user_sessions.html" xlink:title="user_sessions" target="_top">
<polygon fill="#ffffff" stroke="transparent" points="295.5,-38.2 295.5,-187.2 435.5,-187.2 435.5,-38.2 295.5,-38.2"/>
<polygon fill="#f5f5f5" stroke="transparent" points="295.5,-163.7 295.5,-186.7 435.5,-186.7 435.5,-163.7 295.5,-163.7"/>
<polygon fill="none" stroke="#000000" points="295.5,-163.7 295.5,-186.7 435.5,-186.7 435.5,-163.7 295.5,-163.7"/>
<text text-anchor="start" x="300.5" y="-172.3" font-family="Helvetica,sans-Serif" font-weight="bold" font-size="11.00" fill="#000000">user_sessions</text>
<text text-anchor="start" x="401.0219" y="-171.8" font-family="Helvetica,sans-Serif" font-size="11.00" fill="#000000">[table]</text>
<polygon fill="none" stroke="#000000" points="295.5,-141.7 295.5,-163.7 435.5,-163.7 435.5,-141.7 295.5,-141.7"/>
<image xlink:href="../../images/primaryKeys.png" width="11px" height="12px" preserveAspectRatio="xMinYMin meet" x="300.5" y="-158.7"/>
<text text-anchor="start" x="324.5" y="-148.8" font-family="Helvetica,sans-Serif" font-size="11.00" fill="#000000">id</text>
<polygon fill="#ffffff" stroke="transparent" points="295.5,-119.7 295.5,-141.7 435.5,-141.7 435.5,-119.7 295.5,-119.7"/>
<polygon fill="none" stroke="#000000" points="295.5,-119.7 295.5,-141.7 435.5,-141.7 435.5,-119.7 295.5,-119.7"/>
<image xlink:href="../../images/foreignKeys.png" width="11px" height="12px" preserveAspectRatio="xMinYMin meet" x="300.5" y="-136.7"/>
<text text-anchor="start" x="324.5" y="-126.8" font-family="Helvetica,sans-Serif" font-size="11.00" fill="#000000">user_id</text>
<polygon fill="#ffffff" stroke="transparent" points="295.5,-97.7 295.5,-119.7 435.5,-119.7 435.5,-97.7 295.5,-97.7"/>
<polygon fill="none" stroke="#000000" points="295.5,-97.7 295.5,-119.7 435.5,-119.7 435.5,-97.7 295.5,-97.7"/>
<text text-anchor="start" x="324.5" y="-104.8" font-family="Helvetica,sans-Serif" font-size="11.00" fill="#000000">token_hash</text>
<polygon fill="#ffffff" stroke="transparent" points="295.5,-75.7 295.5,-97.7 435.5,-97.7 435.5,-75.7 295.5,-75.7"/>
<polygon fill="none" stroke="#000000" points="295.5,-75.7 295.5,-97.7 435.5,-97.7 435.5,-75.7 295.5,-75.7"/>
<text text-anchor="start" x="324.5" y="-82.8" font-family="Helvetica,sans-Serif" font-size="11.00" fill="#000000">expires_at</text>
<polygon fill="none" stroke="#000000" points="295.5,-56.7 295.5,-75.7 435.5,-75.7 435.5,-56.7 295.5,-56.7"/>
<text text-anchor="start" x="298.5" y="-62.8" font-family="Helvetica,sans-Serif" font-size="11.00" fill="#000000">...</text>
<polygon fill="#ffffff" stroke="transparent" points="295.5,-37.7 295.5,-56.7 435.5,-56.7 435.5,-37.7 295.5,-37.7"/>
<polygon fill="none" stroke="#000000" points="295.5,-37.7 295.5,-56.7 435.5,-56.7 435.5,-37.7 295.5,-37.7"/>
<polygon fill="#ffffff" stroke="transparent" points="296.5,-38.7 296.5,-55.7 348.5,-55.7 348.5,-38.7 296.5,-38.7"/>
<text text-anchor="start" x="298.5" y="-43.8" font-family="Helvetica,sans-Serif" font-size="11.00" fill="#000000">&lt; 1</text>
<polygon fill="#ffffff" stroke="transparent" points="348.5,-38.7 348.5,-55.7 391.5,-55.7 391.5,-38.7 348.5,-38.7"/>
<text text-anchor="start" x="366.9431" y="-43.8" font-family="Helvetica,sans-Serif" font-size="11.00" fill="#000000"> &#160;</text>
<polygon fill="#ffffff" stroke="transparent" points="391.5,-38.7 391.5,-55.7 434.5,-55.7 434.5,-38.7 391.5,-38.7"/>
<text text-anchor="start" x="426.3862" y="-43.8" font-family="Helvetica,sans-Serif" font-size="11.00" fill="#000000"> &#160;</text>
<polygon fill="#000000" stroke="#000000" points="348.5,-38.7 348.5,-55.7 348.5,-55.7 348.5,-38.7 348.5,-38.7"/>
<polygon fill="#000000" stroke="#000000" points="391.5,-38.7 391.5,-55.7 391.5,-55.7 391.5,-38.7 391.5,-38.7"/>
</a>
</g>
</g>
<!-- user_sessions&#45;&gt;users -->
<g id="edge3" class="edge">
<title>user_sessions:w&#45;&gt;users:e</title>
<path fill="none" stroke="#000000" d="M281.204,-133.8146C244.5276,-153.2176 292.1239,-256.7 236,-256.7"/>
<polygon fill="#000000" stroke="#000000" points="287.6834,-132.403 296.2664,-134.2175 291.5917,-131.5515 295.5,-130.7 295.5,-130.7 295.5,-130.7 291.5917,-131.5515 294.7336,-127.1825 287.6834,-132.403 287.6834,-132.403"/>
<ellipse fill="none" stroke="#000000" cx="284.5567" cy="-133.0842" rx="3.2" ry="3.2"/>
</g>
</g>
</svg>
