<?xml version="1.0" encoding="UTF-8" standalone="no"?>
<!DOCTYPE svg PUBLIC "-//W3C//DTD SVG 1.1//EN"
 "http://www.w3.org/Graphics/SVG/1.1/DTD/svg11.dtd">
<!-- Generated by graphviz version 2.40.1 (20161225.0304)
 -->
<!-- Title: twoDegreesRelationshipsDiagram Pages: 1 -->
<svg width="640pt" height="598pt"
 viewBox="0.00 0.00 640.00 598.20" xmlns="http://www.w3.org/2000/svg" xmlns:xlink="http://www.w3.org/1999/xlink">
<g id="graph0" class="graph" transform="scale(1 1) rotate(0) translate(4 594.2)">
<title>twoDegreesRelationshipsDiagram</title>
<polygon fill="#ffffff" stroke="transparent" points="-4,4 -4,-594.2 636,-594.2 636,4 -4,4"/>
<text text-anchor="middle" x="72.4936" y="-7.3" font-family="Helvetica,sans-Serif" font-size="11.00" fill="#000000">Generated by SchemaSpy</text>
<!-- action_items -->
<g id="node1" class="node">
<title>action_items</title>
<g id="a_node1"><a xlink:href="../../tables/action_items.html" xlink:title="action_items" target="_top">
<polygon fill="#ffffff" stroke="transparent" points="493,-525.2 493,-586.2 624,-586.2 624,-525.2 493,-525.2"/>
<polygon fill="#f5f5f5" stroke="transparent" points="493.5,-562.7 493.5,-585.7 624.5,-585.7 624.5,-562.7 493.5,-562.7"/>
<polygon fill="none" stroke="#000000" points="493.5,-562.7 493.5,-585.7 624.5,-585.7 624.5,-562.7 493.5,-562.7"/>
<text text-anchor="start" x="498.5" y="-571.3" font-family="Helvetica,sans-Serif" font-weight="bold" font-size="11.00" fill="#000000">action_items</text>
<text text-anchor="start" x="590.0219" y="-570.8" font-family="Helvetica,sans-Serif" font-size="11.00" fill="#000000">[table]</text>
<polygon fill="none" stroke="#000000" points="493.5,-543.7 493.5,-562.7 624.5,-562.7 624.5,-543.7 493.5,-543.7"/>
<text text-anchor="start" x="496.5" y="-549.8" font-family="Helvetica,sans-Serif" font-size="11.00" fill="#000000">...</text>
<polygon fill="#ffffff" stroke="transparent" points="493.5,-524.7 493.5,-543.7 624.5,-543.7 624.5,-524.7 493.5,-524.7"/>
<polygon fill="none" stroke="#000000" points="493.5,-524.7 493.5,-543.7 624.5,-543.7 624.5,-524.7 493.5,-524.7"/>
<polygon fill="#ffffff" stroke="transparent" points="494.5,-525.7 494.5,-542.7 543.5,-542.7 543.5,-525.7 494.5,-525.7"/>
<text text-anchor="start" x="496.5" y="-530.8" font-family="Helvetica,sans-Serif" font-size="11.00" fill="#000000">&lt; 1</text>
<polygon fill="#ffffff" stroke="transparent" points="543.5,-525.7 543.5,-542.7 583.5,-542.7 583.5,-525.7 543.5,-525.7"/>
<text text-anchor="start" x="560.4431" y="-530.8" font-family="Helvetica,sans-Serif" font-size="11.00" fill="#000000"> &#160;</text>
<polygon fill="#ffffff" stroke="transparent" points="583.5,-525.7 583.5,-542.7 623.5,-542.7 623.5,-525.7 583.5,-525.7"/>
<text text-anchor="start" x="615.3862" y="-530.8" font-family="Helvetica,sans-Serif" font-size="11.00" fill="#000000"> &#160;</text>
<polygon fill="#000000" stroke="#000000" points="543.5,-525.7 543.5,-542.7 543.5,-542.7 543.5,-525.7 543.5,-525.7"/>
<polygon fill="#000000" stroke="#000000" points="583.5,-525.7 583.5,-542.7 583.5,-542.7 583.5,-525.7 583.5,-525.7"/>
</a>
</g>
</g>
<!-- summaries -->
<g id="node2" class="node">
<title>summaries</title>
<g id="a_node2"><a xlink:href="../../tables/summaries.html" xlink:title="summaries" target="_top">
<polygon fill="#ffffff" stroke="transparent" points="293,-378.2 293,-505.2 438,-505.2 438,-378.2 293,-378.2"/>
<polygon fill="#f5f5f5" stroke="transparent" points="293.5,-481.7 293.5,-504.7 438.5,-504.7 438.5,-481.7 293.5,-481.7"/>
<polygon fill="none" stroke="#000000" points="293.5,-481.7 293.5,-504.7 438.5,-504.7 438.5,-481.7 293.5,-481.7"/>
<text text-anchor="start" x="298.5" y="-490.3" font-family="Helvetica,sans-Serif" font-weight="bold" font-size="11.00" fill="#000000">summaries</text>
<text text-anchor="start" x="403.5437" y="-489.8" font-family="Helvetica,sans-Serif" font-size="11.00" fill="#000000">[table]</text>
<polygon fill="none" stroke="#000000" points="293.5,-459.7 293.5,-481.7 438.5,-481.7 438.5,-459.7 293.5,-459.7"/>
<image xlink:href="../../images/primaryKeys.png" width="11px" height="12px" preserveAspectRatio="xMinYMin meet" x="298.5" y="-476.7"/>
<text text-anchor="start" x="313.5" y="-466.8" font-family="Helvetica,sans-Serif" font-size="11.00" fill="#000000">id</text>
<polygon fill="#ffffff" stroke="transparent" points="293.5,-437.7 293.5,-459.7 438.5,-459.7 438.5,-437.7 293.5,-437.7"/>
<polygon fill="none" stroke="#000000" points="293.5,-437.7 293.5,-459.7 438.5,-459.7 438.5,-437.7 293.5,-437.7"/>
<text text-anchor="start" x="313.5" y="-444.8" font-family="Helvetica,sans-Serif" font-size="11.00" fill="#000000">content_hash</text>
<polygon fill="#ffffff" stroke="transparent" points="293.5,-415.7 293.5,-437.7 438.5,-437.7 438.5,-415.7 293.5,-415.7"/>
<polygon fill="none" stroke="#000000" points="293.5,-415.7 293.5,-437.7 438.5,-437.7 438.5,-415.7 293.5,-415.7"/>
<image xlink:href="../../images/foreignKeys.png" width="11px" height="12px" preserveAspectRatio="xMinYMin meet" x="298.5" y="-432.7"/>
<text text-anchor="start" x="313.5" y="-422.8" font-family="Helvetica,sans-Serif" font-size="11.00" fill="#000000">user_id</text>
<polygon fill="none" stroke="#000000" points="293.5,-396.7 293.5,-415.7 438.5,-415.7 438.5,-396.7 293.5,-396.7"/>
<text text-anchor="start" x="296.5" y="-402.8" font-family="Helvetica,sans-Serif" font-size="11.00" fill="#000000">...</text>
<polygon fill="#ffffff" stroke="transparent" points="293.5,-377.7 293.5,-396.7 438.5,-396.7 438.5,-377.7 293.5,-377.7"/>
<polygon fill="none" stroke="#000000" points="293.5,-377.7 293.5,-396.7 438.5,-396.7 438.5,-377.7 293.5,-377.7"/>
<polygon fill="#ffffff" stroke="transparent" points="294.5,-378.7 294.5,-395.7 345.5,-395.7 345.5,-378.7 294.5,-378.7"/>
<text text-anchor="start" x="296.5" y="-383.8" font-family="Helvetica,sans-Serif" font-size="11.00" fill="#000000">&lt; 1</text>
<polygon fill="#ffffff" stroke="transparent" points="345.5,-378.7 345.5,-395.7 387.5,-395.7 387.5,-378.7 345.5,-378.7"/>
<text text-anchor="start" x="363.4431" y="-383.8" font-family="Helvetica,sans-Serif" font-size="11.00" fill="#000000"> &#160;</text>
<polygon fill="#ffffff" stroke="transparent" points="387.5,-378.7 387.5,-395.7 437.5,-395.7 437.5,-378.7 387.5,-378.7"/>
<text text-anchor="start" x="419.9053" y="-383.8" font-family="Helvetica,sans-Serif" font-size="11.00" fill="#000000">3 &gt;</text>
<polygon fill="#000000" stroke="#000000" points="345.5,-378.7 345.5,-395.7 345.5,-395.7 345.5,-378.7 345.5,-378.7"/>
<polygon fill="#000000" stroke="#000000" points="387.5,-378.7 387.5,-395.7 387.5,-395.7 387.5,-378.7 387.5,-378.7"/>
</a>
</g>
</g>
<!-- action_items&#45;&gt;summaries -->
<g id="edge1" class="edge">
<title>action_items:w&#45;&gt;summaries:e</title>
<path fill="none" stroke="#000000" d="M479.4075,-548.5209C457.1437,-531.8109 476.3835,-470.7 438.5,-470.7"/>
<polygon fill="#000000" stroke="#000000" points="485.8301,-550.4255 492.4765,-556.1514 489.6651,-551.5627 493.5,-552.7 493.5,-552.7 493.5,-552.7 489.6651,-551.5627 494.5235,-549.2486 485.8301,-550.4255 485.8301,-550.4255"/>
<ellipse fill="none" stroke="#000000" cx="482.7622" cy="-549.5157" rx="3.2" ry="3.2"/>
</g>
<!-- users -->
<g id="node5" class="node">
<title>users</title>
<g id="a_node5"><a xlink:href="../../tables/users.html" xlink:title="users" target="_top">
<polygon fill="#ffffff" stroke="transparent" points="8,-136.7 8,-336.7 238,-336.7 238,-136.7 8,-136.7"/>
<polygon fill="#f5f5f5" stroke="transparent" points="10,-311.7 10,-334.7 236,-334.7 236,-311.7 10,-311.7"/>
<polygon fill="none" stroke="#000000" points="10,-311.7 10,-334.7 236,-334.7 236,-311.7 10,-311.7"/>
<text text-anchor="start" x="15" y="-320.3" font-family="Helvetica,sans-Serif" font-weight="bold" font-size="11.00" fill="#000000">users</text>
<text text-anchor="start" x="201.0437" y="-319.8" font-family="Helvetica,sans-Serif" font-size="11.00" fill="#000000">[table]</text>
<polygon fill="none" stroke="#000000" points="10,-289.7 10,-311.7 113,-311.7 113,-289.7 10,-289.7"/>
<image xlink:href="../../images/primaryKeys.png" width="11px" height="12px" preserveAspectRatio="xMinYMin meet" x="15" y="-306.7"/>
<text text-anchor="start" x="30" y="-296.8" font-family="Helvetica,sans-Serif" font-size="11.00" fill="#000000">id</text>
<polygon fill="none" stroke="#000000" points="113,-289.7 113,-311.7 236,-311.7 236,-289.7 113,-289.7"/>
<text text-anchor="start" x="116" y="-297.4" font-family="Helvetica,sans-Serif" font-size="11.00" fill="#000000">uuid[2147483647]</text>
<polygon fill="none" stroke="#000000" points="10,-267.7 10,-289.7 113,-289.7 113,-267.7 10,-267.7"/>
<text text-anchor="start" x="30" y="-274.8" font-family="Helvetica,sans-Serif" font-size="11.00" fill="#000000">email</text>
<polygon fill="none" stroke="#000000" points="113,-267.7 113,-289.7 236,-289.7 236,-267.7 113,-267.7"/>
<text text-anchor="start" x="116" y="-275.4" font-family="Helvetica,sans-Serif" font-size="11.00" fill="#000000">varchar[320]</text>
<polygon fill="none" stroke="#000000" points="10,-245.7 10,-267.7 113,-267.7 113,-245.7 10,-245.7"/>
<text text-anchor="start" x="30" y="-252.8" font-family="Helvetica,sans-Serif" font-size="11.00" fill="#000000">name</text>
<polygon fill="none" stroke="#000000" points="113,-245.7 113,-267.7 236,-267.7 236,-245.7 113,-245.7"/>
<text text-anchor="start" x="116" y="-253.4" font-family="Helvetica,sans-Serif" font-size="11.00" fill="#000000">varchar[255]</text>
<polygon fill="none" stroke="#000000" points="10,-223.7 10,-245.7 113,-245.7 113,-223.7 10,-223.7"/>
<text text-anchor="start" x="30" y="-230.8" font-family="Helvetica,sans-Serif" font-size="11.00" fill="#000000">created_at</text>
<polygon fill="none" stroke="#000000" points="113,-223.7 113,-245.7 236,-245.7 236,-223.7 113,-223.7"/>
<text text-anchor="start" x="116" y="-231.4" font-family="Helvetica,sans-Serif" font-size="11.00" fill="#000000">timestamptz[35,6]</text>
<polygon fill="none" stroke="#000000" points="10,-201.7 10,-223.7 113,-223.7 113,-201.7 10,-201.7"/>
<text text-anchor="start" x="30" y="-208.8" font-family="Helvetica,sans-Serif" font-size="11.00" fill="#000000">updated_at</text>
<polygon fill="none" stroke="#000000" points="113,-201.7 113,-223.7 236,-223.7 236,-201.7 113,-201.7"/>
<text text-anchor="start" x="116" y="-209.4" font-family="Helvetica,sans-Serif" font-size="11.00" fill="#000000">timestamptz[35,6]</text>
<polygon fill="none" stroke="#000000" points="10,-179.7 10,-201.7 113,-201.7 113,-179.7 10,-179.7"/>
<text text-anchor="start" x="30" y="-186.8" font-family="Helvetica,sans-Serif" font-size="11.00" fill="#000000">role</text>
<polygon fill="none" stroke="#000000" points="113,-179.7 113,-201.7 236,-201.7 236,-179.7 113,-179.7"/>
<text text-anchor="start" x="116" y="-187.4" font-family="Helvetica,sans-Serif" font-size="11.00" fill="#000000">userrole[2147483647]</text>
<polygon fill="none" stroke="#000000" points="10,-157.7 10,-179.7 113,-179.7 113,-157.7 10,-157.7"/>
<text text-anchor="start" x="30" y="-164.8" font-family="Helvetica,sans-Serif" font-size="11.00" fill="#000000">status</text>
<polygon fill="none" stroke="#000000" points="113,-157.7 113,-179.7 236,-179.7 236,-157.7 113,-157.7"/>
<text text-anchor="start" x="115.501" y="-165.4" font-family="Helvetica,sans-Serif" font-size="11.00" fill="#000000">userstatus[2147483647]</text>
<polygon fill="#ffffff" stroke="transparent" points="10,-138.7 10,-157.7 236,-157.7 236,-138.7 10,-138.7"/>
<polygon fill="none" stroke="#000000" points="10,-138.7 10,-157.7 236,-157.7 236,-138.7 10,-138.7"/>
<polygon fill="#ffffff" stroke="transparent" points="11,-139.7 11,-156.7 89,-156.7 89,-139.7 11,-139.7"/>
<text text-anchor="start" x="13" y="-144.8" font-family="Helvetica,sans-Serif" font-size="11.00" fill="#000000">&lt; 0</text>
<polygon fill="#ffffff" stroke="transparent" points="89,-139.7 89,-156.7 158,-156.7 158,-139.7 89,-139.7"/>
<text text-anchor="start" x="120.4431" y="-144.8" font-family="Helvetica,sans-Serif" font-size="11.00" fill="#000000"> &#160;</text>
<polygon fill="#ffffff" stroke="transparent" points="158,-139.7 158,-156.7 235,-156.7 235,-139.7 158,-139.7"/>
<text text-anchor="start" x="217.4053" y="-144.8" font-family="Helvetica,sans-Serif" font-size="11.00" fill="#000000">3 &gt;</text>
<polygon fill="#000000" stroke="#000000" points="89,-139.7 89,-156.7 89,-156.7 89,-139.7 89,-139.7"/>
<polygon fill="#000000" stroke="#000000" points="158,-139.7 158,-156.7 158,-156.7 158,-139.7 158,-139.7"/>
<polygon fill="none" stroke="#000000" stroke-width="2" points="9,-137.7 9,-335.7 237,-335.7 237,-137.7 9,-137.7"/>
</a>
</g>
</g>
<!-- summaries&#45;&gt;users -->
<g id="edge4" class="edge">
<title>summaries:w&#45;&gt;users:e</title>
<path fill="none" stroke="#000000" d="M279.331,-423.5854C243.1289,-404.1824 291.7847,-300.7 236,-300.7"/>
<polygon fill="#000000" stroke="#000000" points="285.6865,-424.9824 292.7271,-430.2161 289.5933,-425.8412 293.5,-426.7 293.5,-426.7 293.5,-426.7 289.5933,-425.8412 294.2729,-423.1839 285.6865,-424.9824 285.6865,-424.9824"/>
<ellipse fill="none" stroke="#000000" cx="282.5612" cy="-424.2954" rx="3.2" ry="3.2"/>
</g>
<!-- decisions -->
<g id="node3" class="node">
<title>decisions</title>
<g id="a_node3"><a xlink:href="../../tables/decisions.html" xlink:title="decisions" target="_top">
<polygon fill="#ffffff" stroke="transparent" points="505,-443.2 505,-504.2 612,-504.2 612,-443.2 505,-443.2"/>
<polygon fill="#f5f5f5" stroke="transparent" points="505.5,-480.7 505.5,-503.7 612.5,-503.7 612.5,-480.7 505.5,-480.7"/>
<polygon fill="none" stroke="#000000" points="505.5,-480.7 505.5,-503.7 612.5,-503.7 612.5,-480.7 505.5,-480.7"/>
<text text-anchor="start" x="510.5" y="-489.3" font-family="Helvetica,sans-Serif" font-weight="bold" font-size="11.00" fill="#000000">decisions</text>
<text text-anchor="start" x="578.0219" y="-488.8" font-family="Helvetica,sans-Serif" font-size="11.00" fill="#000000">[table]</text>
<polygon fill="none" stroke="#000000" points="505.5,-461.7 505.5,-480.7 612.5,-480.7 612.5,-461.7 505.5,-461.7"/>
<text text-anchor="start" x="508.5" y="-467.8" font-family="Helvetica,sans-Serif" font-size="11.00" fill="#000000">...</text>
<polygon fill="#ffffff" stroke="transparent" points="505.5,-442.7 505.5,-461.7 612.5,-461.7 612.5,-442.7 505.5,-442.7"/>
<polygon fill="none" stroke="#000000" points="505.5,-442.7 505.5,-461.7 612.5,-461.7 612.5,-442.7 505.5,-442.7"/>
<polygon fill="#ffffff" stroke="transparent" points="506.5,-443.7 506.5,-460.7 547.5,-460.7 547.5,-443.7 506.5,-443.7"/>
<text text-anchor="start" x="508.5" y="-448.8" font-family="Helvetica,sans-Serif" font-size="11.00" fill="#000000">&lt; 1</text>
<polygon fill="#ffffff" stroke="transparent" points="547.5,-443.7 547.5,-460.7 579.5,-460.7 579.5,-443.7 547.5,-443.7"/>
<text text-anchor="start" x="560.4431" y="-448.8" font-family="Helvetica,sans-Serif" font-size="11.00" fill="#000000"> &#160;</text>
<polygon fill="#ffffff" stroke="transparent" points="579.5,-443.7 579.5,-460.7 611.5,-460.7 611.5,-443.7 579.5,-443.7"/>
<text text-anchor="start" x="603.3862" y="-448.8" font-family="Helvetica,sans-Serif" font-size="11.00" fill="#000000"> &#160;</text>
<polygon fill="#000000" stroke="#000000" points="547.5,-443.7 547.5,-460.7 547.5,-460.7 547.5,-443.7 547.5,-443.7"/>
<polygon fill="#000000" stroke="#000000" points="579.5,-443.7 579.5,-460.7 579.5,-460.7 579.5,-443.7 579.5,-443.7"/>
</a>
</g>
</g>
<!-- decisions&#45;&gt;summaries -->
<g id="edge2" class="edge">
<title>decisions:w&#45;&gt;summaries:e</title>
<path fill="none" stroke="#000000" d="M491.0809,-470.7C472.2359,-470.7 462.8108,-470.7 438.5,-470.7"/>
<polygon fill="#000000" stroke="#000000" points="497.5,-470.7001 505.5,-474.3 501.5,-470.7 505.5,-470.7 505.5,-470.7 505.5,-470.7 501.5,-470.7 505.5,-467.1 497.5,-470.7001 497.5,-470.7001"/>
<ellipse fill="none" stroke="#000000" cx="494.3" cy="-470.7001" rx="3.2" ry="3.2"/>
</g>
<!-- oauth_identities -->
<g id="node4" class="node">
<title>oauth_identities</title>
<g id="a_node4"><a xlink:href="../../tables/oauth_identities.html" xlink:title="oauth_identities" target="_top">
<polygon fill="#ffffff" stroke="transparent" points="287,-208.2 287,-357.2 444,-357.2 444,-208.2 287,-208.2"/>
<polygon fill="#f5f5f5" stroke="transparent" points="287.5,-333.7 287.5,-356.7 444.5,-356.7 444.5,-333.7 287.5,-333.7"/>
<polygon fill="none" stroke="#000000" points="287.5,-333.7 287.5,-356.7 444.5,-356.7 444.5,-333.7 287.5,-333.7"/>
<text text-anchor="start" x="292.5" y="-342.3" font-family="Helvetica,sans-Serif" font-weight="bold" font-size="11.00" fill="#000000">oauth_identities</text>
<text text-anchor="start" x="410.0219" y="-341.8" font-family="Helvetica,sans-Serif" font-size="11.00" fill="#000000">[table]</text>
<polygon fill="none" stroke="#000000" points="287.5,-311.7 287.5,-333.7 444.5,-333.7 444.5,-311.7 287.5,-311.7"/>
<image xlink:href="../../images/primaryKeys.png" width="11px" height="12px" preserveAspectRatio="xMinYMin meet" x="292.5" y="-328.7"/>
<text text-anchor="start" x="316.5" y="-318.8" font-family="Helvetica,sans-Serif" font-size="11.00" fill="#000000">id</text>
<polygon fill="#ffffff" stroke="transparent" points="287.5,-289.7 287.5,-311.7 444.5,-311.7 444.5,-289.7 287.5,-289.7"/>
<polygon fill="none" stroke="#000000" points="287.5,-289.7 287.5,-311.7 444.5,-311.7 444.5,-289.7 287.5,-289.7"/>
<image xlink:href="../../images/foreignKeys.png" width="11px" height="12px" preserveAspectRatio="xMinYMin meet" x="292.5" y="-306.7"/>
<text text-anchor="start" x="316.5" y="-296.8" font-family="Helvetica,sans-Serif" font-size="11.00" fill="#000000">user_id</text>
<polygon fill="#ffffff" stroke="transparent" points="287.5,-267.7 287.5,-289.7 444.5,-289.7 444.5,-267.7 287.5,-267.7"/>
<polygon fill="none" stroke="#000000" points="287.5,-267.7 287.5,-289.7 444.5,-289.7 444.5,-267.7 287.5,-267.7"/>
<text text-anchor="start" x="316.5" y="-274.8" font-family="Helvetica,sans-Serif" font-size="11.00" fill="#000000">provider</text>
<polygon fill="#ffffff" stroke="transparent" points="287.5,-245.7 287.5,-267.7 444.5,-267.7 444.5,-245.7 287.5,-245.7"/>
<polygon fill="none" stroke="#000000" points="287.5,-245.7 287.5,-267.7 444.5,-267.7 444.5,-245.7 287.5,-245.7"/>
<text text-anchor="start" x="316.5" y="-252.8" font-family="Helvetica,sans-Serif" font-size="11.00" fill="#000000">subject</text>
<polygon fill="none" stroke="#000000" points="287.5,-226.7 287.5,-245.7 444.5,-245.7 444.5,-226.7 287.5,-226.7"/>
<text text-anchor="start" x="290.5" y="-232.8" font-family="Helvetica,sans-Serif" font-size="11.00" fill="#000000">...</text>
<polygon fill="#ffffff" stroke="transparent" points="287.5,-207.7 287.5,-226.7 444.5,-226.7 444.5,-207.7 287.5,-207.7"/>
<polygon fill="none" stroke="#000000" points="287.5,-207.7 287.5,-226.7 444.5,-226.7 444.5,-207.7 287.5,-207.7"/>
<polygon fill="#ffffff" stroke="transparent" points="288.5,-208.7 288.5,-225.7 346.5,-225.7 346.5,-208.7 288.5,-208.7"/>
<text text-anchor="start" x="290.5" y="-213.8" font-family="Helvetica,sans-Serif" font-size="11.00" fill="#000000">&lt; 1</text>
<polygon fill="#ffffff" stroke="transparent" points="346.5,-208.7 346.5,-225.7 395.5,-225.7 395.5,-208.7 346.5,-208.7"/>
<text text-anchor="start" x="367.9431" y="-213.8" font-family="Helvetica,sans-Serif" font-size="11.00" fill="#000000"> &#160;</text>
<polygon fill="#ffffff" stroke="transparent" points="395.5,-208.7 395.5,-225.7 443.5,-225.7 443.5,-208.7 395.5,-208.7"/>
<text text-anchor="start" x="435.3862" y="-213.8" font-family="Helvetica,sans-Serif" font-size="11.00" fill="#000000"> &#160;</text>
<polygon fill="#000000" stroke="#000000" points="346.5,-208.7 346.5,-225.7 346.5,-225.7 346.5,-208.7 346.5,-208.7"/>
<polygon fill="#000000" stroke="#000000" points="395.5,-208.7 395.5,-225.7 395.5,-225.7 395.5,-208.7 395.5,-208.7"/>
</a>
</g>
</g>
<!-- oauth_identities&#45;&gt;users -->
<g id="edge3" class="edge">
<title>oauth_identities:w&#45;&gt;users:e</title>
<path fill="none" stroke="#000000" d="M273.0156,-300.7C260.6771,-300.7 253.1667,-300.7 236,-300.7"/>
<polygon fill="#000000" stroke="#000000" points="279.5,-300.7001 287.5,-304.3 283.5,-300.7 287.5,-300.7 287.5,-300.7 287.5,-300.7 283.5,-300.7 287.5,-297.1 279.5,-300.7001 279.5,-300.7001"/>
<ellipse fill="none" stroke="#000000" cx="276.3" cy="-300.7001" rx="3.2" ry="3.2"/>
</g>
<!-- topics -->
<g id="node6" class="node">
<title>topics</title>
<g id="a_node6"><a xlink:href="../../tables/topics.html" xlink:title="topics" target="_top">
<polygon fill="#ffffff" stroke="transparent" points="517,-361.2 517,-422.2 600,-422.2 600,-361.2 517,-361.2"/>
<polygon fill="#f5f5f5" stroke="transparent" points="517.5,-398.7 517.5,-421.7 600.5,-421.7 600.5,-398.7 517.5,-398.7"/>
<polygon fill="none" stroke="#000000" points="517.5,-398.7 517.5,-421.7 600.5,-421.7 600.5,-398.7 517.5,-398.7"/>
<text text-anchor="start" x="522.5" y="-407.3" font-family="Helvetica,sans-Serif" font-weight="bold" font-size="11.00" fill="#000000">topics</text>
<text text-anchor="start" x="566.0219" y="-406.8" font-family="Helvetica,sans-Serif" font-size="11.00" fill="#000000">[table]</text>
<polygon fill="none" stroke="#000000" points="517.5,-379.7 517.5,-398.7 600.5,-398.7 600.5,-379.7 517.5,-379.7"/>
<text text-anchor="start" x="520.5" y="-385.8" font-family="Helvetica,sans-Serif" font-size="11.00" fill="#000000">...</text>
<polygon fill="#ffffff" stroke="transparent" points="517.5,-360.7 517.5,-379.7 600.5,-379.7 600.5,-360.7 517.5,-360.7"/>
<polygon fill="none" stroke="#000000" points="517.5,-360.7 517.5,-379.7 600.5,-379.7 600.5,-360.7 517.5,-360.7"/>
<polygon fill="#ffffff" stroke="transparent" points="518.5,-361.7 518.5,-378.7 551.5,-378.7 551.5,-361.7 518.5,-361.7"/>
<text text-anchor="start" x="520.5" y="-366.8" font-family="Helvetica,sans-Serif" font-size="11.00" fill="#000000">&lt; 1</text>
<polygon fill="#ffffff" stroke="transparent" points="551.5,-361.7 551.5,-378.7 575.5,-378.7 575.5,-361.7 551.5,-361.7"/>
<text text-anchor="start" x="560.4431" y="-366.8" font-family="Helvetica,sans-Serif" font-size="11.00" fill="#000000"> &#160;</text>
<polygon fill="#ffffff" stroke="transparent" points="575.5,-361.7 575.5,-378.7 599.5,-378.7 599.5,-361.7 575.5,-361.7"/>
<text text-anchor="start" x="591.3862" y="-366.8" font-family="Helvetica,sans-Serif" font-size="11.00" fill="#000000"> &#160;</text>
<polygon fill="#000000" stroke="#000000" points="551.5,-361.7 551.5,-378.7 551.5,-378.7 551.5,-361.7 551.5,-361.7"/>
<polygon fill="#000000" stroke="#000000" points="575.5,-361.7 575.5,-378.7 575.5,-378.7 575.5,-361.7 575.5,-361.7"/>
</a>
</g>
</g>
<!-- topics&#45;&gt;summaries -->
<g id="edge5" class="edge">
<title>topics:w&#45;&gt;summaries:e</title>
<path fill="none" stroke="#000000" d="M503.3176,-391.4283C470.8816,-405.6565 483.5711,-470.7 438.5,-470.7"/>
<polygon fill="#000000" stroke="#000000" points="509.644,-390.2113 518.1801,-392.2352 513.572,-389.4557 517.5,-388.7 517.5,-388.7 517.5,-388.7 513.572,-389.4557 516.8199,-385.1648 509.644,-390.2113 509.644,-390.2113"/>
<ellipse fill="none" stroke="#000000" cx="506.5017" cy="-390.8158" rx="3.2" ry="3.2"/>
</g>
<!-- user_sessions -->
<g id="node7" class="node">
<title>user_sessions</title>
<g id="a_node7"><a xlink:href="../../tables/user_sessions.html" xlink:title="user_sessions" target="_top">
<polygon fill="#ffffff" stroke="transparent" points="295.5,-38.2 295.5,-187.2 435.5,-187.2 435.5,-38.2 295.5,-38.2"/>
<polygon fill="#f5f5f5" stroke="transparent" points="295.5,-163.7 295.5,-186.7 435.5,-186.7 435.5,-163.7 295.5,-163.7"/>
<polygon fill="none" stroke="#000000" points="295.5,-163.7 295.5,-186.7 435.5,-186.7 435.5,-163.7 295.5,-163.7"/>
<text text-anchor="start" x="300.5" y="-172.3" font-family="Helvetica,sans-Serif" font-weight="bold" font-size="11.00" fill="#000000">user_sessions</text>
<text text-anchor="start" x="401.0219" y="-171.8" font-family="Helvetica,sans-Serif" font-size="11.00" fill="#000000">[table]</text>
<polygon fill="none" stroke="#000000" points="295.5,-141.7 295.5,-163.7 435.5,-163.7 435.5,-141.7 295.5,-141.7"/>
<image xlink:href="../../images/primaryKeys.png" width="11px" height="12px" preserveAspectRatio="xMinYMin meet" x="300.5" y="-158.7"/>
<text text-anchor="start" x="324.5" y="-148.8" font-family="Helvetica,sans-Serif" font-size="11.00" fill="#000000">id</text>
<polygon fill="#ffffff" stroke="transparent" points="295.5,-119.7 295.5,-141.7 435.5,-141.7 435.5,-119.7 295.5,-119.7"/>
<polygon fill="none" stroke="#000000" points="295.5,-119.7 295.5,-141.7 435.5,-141.7 435.5,-119.7 295.5,-119.7"/>
<image xlink:href="../../images/foreignKeys.png" width="11px" height="12px" preserveAspectRatio="xMinYMin meet" x="300.5" y="-136.7"/>
<text text-anchor="start" x="324.5" y="-126.8" font-family="Helvetica,sans-Serif" font-size="11.00" fill="#000000">user_id</text>
<polygon fill="#ffffff" stroke="transparent" points="295.5,-97.7 295.5,-119.7 435.5,-119.7 435.5,-97.7 295.5,-97.7"/>
<polygon fill="none" stroke="#000000" points="295.5,-97.7 295.5,-119.7 435.5,-119.7 435.5,-97.7 295.5,-97.7"/>
<text text-anchor="start" x="324.5" y="-104.8" font-family="Helvetica,sans-Serif" font-size="11.00" fill="#000000">token_hash</text>
<polygon fill="#ffffff" stroke="transparent" points="295.5,-75.7 295.5,-97.7 435.5,-97.7 435.5,-75.7 295.5,-75.7"/>
<polygon fill="none" stroke="#000000" points="295.5,-75.7 295.5,-97.7 435.5,-97.7 435.5,-75.7 295.5,-75.7"/>
<text text-anchor="start" x="324.5" y="-82.8" font-family="Helvetica,sans-Serif" font-size="11.00" fill="#000000">expires_at</text>
<polygon fill="none" stroke="#000000" points="295.5,-56.7 295.5,-75.7 435.5,-75.7 435.5,-56.7 295.5,-56.7"/>
<text text-anchor="start" x="298.5" y="-62.8" font-family="Helvetica,sans-Serif" font-size="11.00" fill="#000000">...</text>
<polygon fill="#ffffff" stroke="transparent" points="295.5,-37.7 295.5,-56.7 435.5,-56.7 435.5,-37.7 295.5,-37.7"/>
<polygon fill="none" stroke="#000000" points="295.5,-37.7 295.5,-56.7 435.5,-56.7 435.5,-37.7 295.5,-37.7"/>
<polygon fill="#ffffff" stroke="transparent" points="296.5,-38.7 296.5,-55.7 348.5,-55.7 348.5,-38.7 296.5,-38.7"/>
<text text-anchor="start" x="298.5" y="-43.8" font-family="Helvetica,sans-Serif" font-size="11.00" fill="#000000">&lt; 1</text>
<polygon fill="#ffffff" stroke="transparent" points="348.5,-38.7 348.5,-55.7 391.5,-55.7 391.5,-38.7 348.5,-38.7"/>
<text text-anchor="start" x="366.9431" y="-43.8" font-family="Helvetica,sans-Serif" font-size="11.00" fill="#000000"> &#160;</text>
<polygon fill="#ffffff" stroke="transparent" points="391.5,-38.7 391.5,-55.7 434.5,-55.7 434.5,-38.7 391.5,-38.7"/>
<text text-anchor="start" x="426.3862" y="-43.8" font-family="Helvetica,sans-Serif" font-size="11.00" fill="#000000"> &#160;</text>
<polygon fill="#000000" stroke="#000000" points="348.5,-38.7 348.5,-55.7 348.5,-55.7 348.5,-38.7 348.5,-38.7"/>
<polygon fill="#000000" stroke="#000000" points="391.5,-38.7 391.5,-55.7 391.5,-55.7 391.5,-38.7 391.5,-38.7"/>
</a>
</g>
</g>
<!-- user_sessions&#45;&gt;users -->
<g id="edge6" class="edge">
<title>user_sessions:w&#45;&gt;users:e</title>
<path fill="none" stroke="#000000" d="M281.1682,-133.1032C228.704,-153.7658 310.4212,-300.7 236,-300.7"/>
<polygon fill="#000000" stroke="#000000" points="287.6102,-132.023 296.0954,-134.2504 291.5551,-131.3615 295.5,-130.7 295.5,-130.7 295.5,-130.7 291.5551,-131.3615 294.9046,-127.1496 287.6102,-132.023 287.6102,-132.023"/>
<ellipse fill="none" stroke="#000000" cx="284.4542" cy="-132.5522" rx="3.2" ry="3.2"/>
</g>
</g>
</svg>
