<?xml version="1.0" encoding="UTF-8" standalone="no"?>
<!DOCTYPE svg PUBLIC "-//W3C//DTD SVG 1.1//EN"
 "http://www.w3.org/Graphics/SVG/1.1/DTD/svg11.dtd">
<!-- Generated by graphviz version 2.40.1 (20161225.0304)
 -->
<!-- Title: orphans Pages: 1 -->
<svg width="227pt" height="84pt"
 viewBox="0.00 0.00 227.00 84.00" xmlns="http://www.w3.org/2000/svg" xmlns:xlink="http://www.w3.org/1999/xlink">
<g id="graph0" class="graph" transform="scale(1 1) rotate(0) translate(4 80)">
<title>orphans</title>
<polygon fill="#ffffff" stroke="transparent" points="-4,4 -4,-80 223,-80 223,4 -4,4"/>
<!-- alembic_version -->
<g id="node1" class="node">
<title>alembic_version</title>
<g id="a_node1"><a xlink:href="../../tables/alembic_version.html" xlink:title="alembic_version" target="_top">
<polygon fill="#ffffff" stroke="transparent" points="8,-4 8,-72 211,-72 211,-4 8,-4"/>
<polygon fill="#f5f5f5" stroke="transparent" points="10.5,-47 10.5,-70 209.5,-70 209.5,-47 10.5,-47"/>
<polygon fill="none" stroke="#000000" points="10.5,-47 10.5,-70 209.5,-70 209.5,-47 10.5,-47"/>
<text text-anchor="start" x="15.5" y="-55.6" font-family="Helvetica,sans-Serif" font-weight="bold" font-size="11.00" fill="#000000">alembic_version</text>
<text text-anchor="start" x="174.5437" y="-55.1" font-family="Helvetica,sans-Serif" font-size="11.00" fill="#000000">[table]</text>
<polygon fill="none" stroke="#000000" points="10.5,-25 10.5,-47 148.5,-47 148.5,-25 10.5,-25"/>
<image xlink:href="../../images/primaryKeys.png" width="11px" height="12px" preserveAspectRatio="xMinYMin meet" x="15.5" y="-42"/>
<text text-anchor="start" x="30.5" y="-32.1" font-family="Helvetica,sans-Serif" font-size="11.00" fill="#000000">version_num</text>
<polygon fill="none" stroke="#000000" points="148.5,-25 148.5,-47 209.5,-47 209.5,-25 148.5,-25"/>
<text text-anchor="start" x="151.494" y="-32.7" font-family="Helvetica,sans-Serif" font-size="11.00" fill="#000000">varchar[32]</text>
<polygon fill="#ffffff" stroke="transparent" points="10.5,-6 10.5,-25 209.5,-25 209.5,-6 10.5,-6"/>
<polygon fill="none" stroke="#000000" points="10.5,-6 10.5,-25 209.5,-25 209.5,-6 10.5,-6"/>
<polygon fill="#ffffff" stroke="transparent" points="11.5,-7 11.5,-24 80.5,-24 80.5,-7 11.5,-7"/>
<text text-anchor="start" x="13.5" y="-12.1" font-family="Helvetica,sans-Serif" font-size="11.00" fill="#000000">&lt; 0</text>
<polygon fill="#ffffff" stroke="transparent" points="80.5,-7 80.5,-24 140.5,-24 140.5,-7 80.5,-7"/>
<text text-anchor="start" x="107.4431" y="-12.1" font-family="Helvetica,sans-Serif" font-size="11.00" fill="#000000"> &#160;</text>
<polygon fill="#ffffff" stroke="transparent" points="140.5,-7 140.5,-24 208.5,-24 208.5,-7 140.5,-7"/>
<text text-anchor="start" x="190.9053" y="-12.1" font-family="Helvetica,sans-Serif" font-size="11.00" fill="#000000">0 &gt;</text>
<polygon fill="#000000" stroke="#000000" points="80.5,-7 80.5,-24 80.5,-24 80.5,-7 80.5,-7"/>
<polygon fill="#000000" stroke="#000000" points="140.5,-7 140.5,-24 140.5,-24 140.5,-7 140.5,-7"/>
<polygon fill="none" stroke="#000000" stroke-width="2" points="9,-5 9,-71 210,-71 210,-5 9,-5"/>
</a>
</g>
</g>
</g>
</svg>
