<?xml version="1.0" encoding="UTF-8" standalone="no"?>
<!DOCTYPE svg PUBLIC "-//W3C//DTD SVG 1.1//EN"
 "http://www.w3.org/Graphics/SVG/1.1/DTD/svg11.dtd">
<!-- Generated by graphviz version 2.40.1 (20161225.0304)
 -->
<!-- Title: largeRelationshipsDiagram Pages: 1 -->
<svg width="1077pt" height="1080pt"
 viewBox="0.00 0.00 1077.00 1080.20" xmlns="http://www.w3.org/2000/svg" xmlns:xlink="http://www.w3.org/1999/xlink">
<g id="graph0" class="graph" transform="scale(1 1) rotate(0) translate(4 1076.2)">
<title>largeRelationshipsDiagram</title>
<polygon fill="#ffffff" stroke="transparent" points="-4,4 -4,-1076.2 1073,-1076.2 1073,4 -4,4"/>
<text text-anchor="middle" x="72.4936" y="-7.3" font-family="Helvetica,sans-Serif" font-size="11.00" fill="#000000">Generated by SchemaSpy</text>
<!-- summary_groups -->
<g id="node1" class="node">
<title>summary_groups</title>
<g id="a_node1"><a xlink:href="../../tables/summary_groups.html" xlink:title="summary_groups" target="_top">
<polygon fill="#ffffff" stroke="transparent" points="160,-494.2 160,-624.2 324,-624.2 324,-494.2 160,-494.2"/>
<polygon fill="#f5f5f5" stroke="transparent" points="160,-601.2 160,-624.2 324,-624.2 324,-601.2 160,-601.2"/>
<polygon fill="none" stroke="#000000" points="160,-601.2 160,-624.2 324,-624.2 324,-601.2 160,-601.2"/>
<text text-anchor="start" x="165" y="-609.8" font-family="Helvetica,sans-Serif" font-weight="bold" font-size="11.00" fill="#000000">summary_groups</text>
<text text-anchor="start" x="289.5219" y="-609.3" font-family="Helvetica,sans-Serif" font-size="11.00" fill="#000000">[table]</text>
<polygon fill="none" stroke="#000000" points="160,-579.2 160,-601.2 324,-601.2 324,-579.2 160,-579.2"/>
<image xlink:href="../../images/primaryKeys.png" width="11px" height="12px" preserveAspectRatio="xMinYMin meet" x="165" y="-596.2"/>
<text text-anchor="start" x="189" y="-586.3" font-family="Helvetica,sans-Serif" font-size="11.00" fill="#000000">id</text>
<polygon fill="#ffffff" stroke="transparent" points="160,-557.2 160,-579.2 324,-579.2 324,-557.2 160,-557.2"/>
<polygon fill="none" stroke="#000000" points="160,-557.2 160,-579.2 324,-579.2 324,-557.2 160,-557.2"/>
<image xlink:href="../../images/foreignKeys.png" width="11px" height="12px" preserveAspectRatio="xMinYMin meet" x="165" y="-574.2"/>
<text text-anchor="start" x="189" y="-564.3" font-family="Helvetica,sans-Serif" font-size="11.00" fill="#000000">user_id</text>
<polygon fill="#ffffff" stroke="transparent" points="160,-535.2 160,-557.2 324,-557.2 324,-535.2 160,-535.2"/>
<polygon fill="none" stroke="#000000" points="160,-535.2 160,-557.2 324,-557.2 324,-535.2 160,-535.2"/>
<text text-anchor="start" x="189" y="-542.3" font-family="Helvetica,sans-Serif" font-size="11.00" fill="#000000">name</text>
<polygon fill="none" stroke="#000000" points="160,-513.2 160,-535.2 324,-535.2 324,-513.2 160,-513.2"/>
<text text-anchor="start" x="189" y="-520.3" font-family="Helvetica,sans-Serif" font-size="11.00" fill="#000000">created_at</text>
<polygon fill="#ffffff" stroke="transparent" points="160,-494.2 160,-513.2 324,-513.2 324,-494.2 160,-494.2"/>
<polygon fill="none" stroke="#000000" points="160,-494.2 160,-513.2 324,-513.2 324,-494.2 160,-494.2"/>
<polygon fill="#ffffff" stroke="transparent" points="161,-495.2 161,-512.2 218,-512.2 218,-495.2 161,-495.2"/>
<text text-anchor="start" x="163" y="-500.3" font-family="Helvetica,sans-Serif" font-size="11.00" fill="#000000">&lt; 1</text>
<polygon fill="#ffffff" stroke="transparent" points="218,-495.2 218,-512.2 266,-512.2 266,-495.2 218,-495.2"/>
<text text-anchor="start" x="238.9431" y="-500.3" font-family="Helvetica,sans-Serif" font-size="11.00" fill="#000000"> &#160;</text>
<polygon fill="#ffffff" stroke="transparent" points="266,-495.2 266,-512.2 323,-512.2 323,-495.2 266,-495.2"/>
<text text-anchor="start" x="305.4053" y="-500.3" font-family="Helvetica,sans-Serif" font-size="11.00" fill="#000000">1 &gt;</text>
<polygon fill="#000000" stroke="#000000" points="218,-495.2 218,-512.2 218,-512.2 218,-495.2 218,-495.2"/>
<polygon fill="#000000" stroke="#000000" points="266,-495.2 266,-512.2 266,-512.2 266,-495.2 266,-495.2"/>
</a>
</g>
</g>
<!-- users -->
<g id="node8" class="node">
<title>users</title>
<g id="a_node8"><a xlink:href="../../tables/users.html" xlink:title="users" target="_top">
<polygon fill="#ffffff" stroke="transparent" points="8,-330.2 8,-526.2 111,-526.2 111,-330.2 8,-330.2"/>
<polygon fill="#f5f5f5" stroke="transparent" points="8.5,-503.2 8.5,-526.2 111.5,-526.2 111.5,-503.2 8.5,-503.2"/>
<polygon fill="none" stroke="#000000" points="8.5,-503.2 8.5,-526.2 111.5,-526.2 111.5,-503.2 8.5,-503.2"/>
<text text-anchor="start" x="13.5" y="-511.8" font-family="Helvetica,sans-Serif" font-weight="bold" font-size="11.00" fill="#000000">users</text>
<text text-anchor="start" x="76.5437" y="-511.3" font-family="Helvetica,sans-Serif" font-size="11.00" fill="#000000">[table]</text>
<polygon fill="none" stroke="#000000" points="8.5,-481.2 8.5,-503.2 111.5,-503.2 111.5,-481.2 8.5,-481.2"/>
<image xlink:href="../../images/primaryKeys.png" width="11px" height="12px" preserveAspectRatio="xMinYMin meet" x="13.5" y="-498.2"/>
<text text-anchor="start" x="28.5" y="-488.3" font-family="Helvetica,sans-Serif" font-size="11.00" fill="#000000">id</text>
<polygon fill="none" stroke="#000000" points="8.5,-459.2 8.5,-481.2 111.5,-481.2 111.5,-459.2 8.5,-459.2"/>
<text text-anchor="start" x="28.5" y="-466.3" font-family="Helvetica,sans-Serif" font-size="11.00" fill="#000000">email</text>
<polygon fill="none" stroke="#000000" points="8.5,-437.2 8.5,-459.2 111.5,-459.2 111.5,-437.2 8.5,-437.2"/>
<text text-anchor="start" x="28.5" y="-444.3" font-family="Helvetica,sans-Serif" font-size="11.00" fill="#000000">name</text>
<polygon fill="none" stroke="#000000" points="8.5,-415.2 8.5,-437.2 111.5,-437.2 111.5,-415.2 8.5,-415.2"/>
<text text-anchor="start" x="28.5" y="-422.3" font-family="Helvetica,sans-Serif" font-size="11.00" fill="#000000">created_at</text>
<polygon fill="none" stroke="#000000" points="8.5,-393.2 8.5,-415.2 111.5,-415.2 111.5,-393.2 8.5,-393.2"/>
<text text-anchor="start" x="28.5" y="-400.3" font-family="Helvetica,sans-Serif" font-size="11.00" fill="#000000">updated_at</text>
<polygon fill="none" stroke="#000000" points="8.5,-371.2 8.5,-393.2 111.5,-393.2 111.5,-371.2 8.5,-371.2"/>
<text text-anchor="start" x="28.5" y="-378.3" font-family="Helvetica,sans-Serif" font-size="11.00" fill="#000000">role</text>
<polygon fill="none" stroke="#000000" points="8.5,-349.2 8.5,-371.2 111.5,-371.2 111.5,-349.2 8.5,-349.2"/>
<text text-anchor="start" x="28.5" y="-356.3" font-family="Helvetica,sans-Serif" font-size="11.00" fill="#000000">status</text>
<polygon fill="#ffffff" stroke="transparent" points="8.5,-330.2 8.5,-349.2 111.5,-349.2 111.5,-330.2 8.5,-330.2"/>
<polygon fill="none" stroke="#000000" points="8.5,-330.2 8.5,-349.2 111.5,-349.2 111.5,-330.2 8.5,-330.2"/>
<polygon fill="#ffffff" stroke="transparent" points="9.5,-331.2 9.5,-348.2 40.5,-348.2 40.5,-331.2 9.5,-331.2"/>
<text text-anchor="start" x="11.5" y="-336.3" font-family="Helvetica,sans-Serif" font-size="11.00" fill="#000000"> &#160;</text>
<polygon fill="#ffffff" stroke="transparent" points="40.5,-331.2 40.5,-348.2 71.5,-348.2 71.5,-331.2 40.5,-331.2"/>
<text text-anchor="start" x="52.9431" y="-336.3" font-family="Helvetica,sans-Serif" font-size="11.00" fill="#000000"> &#160;</text>
<polygon fill="#ffffff" stroke="transparent" points="71.5,-331.2 71.5,-348.2 110.5,-348.2 110.5,-331.2 71.5,-331.2"/>
<text text-anchor="start" x="92.9053" y="-336.3" font-family="Helvetica,sans-Serif" font-size="11.00" fill="#000000">4 &gt;</text>
<polygon fill="#000000" stroke="#000000" points="40.5,-331.2 40.5,-348.2 40.5,-348.2 40.5,-331.2 40.5,-331.2"/>
<polygon fill="#000000" stroke="#000000" points="71.5,-331.2 71.5,-348.2 71.5,-348.2 71.5,-331.2 71.5,-331.2"/>
</a>
</g>
</g>
<!-- summary_groups&#45;&gt;users -->
<g id="edge6" class="edge">
<title>summary_groups:w&#45;&gt;users:e</title>
<path fill="none" stroke="#000000" d="M146.1726,-563.4459C127.9062,-546.8076 145.4653,-492.2 111.5,-492.2"/>
<polygon fill="#000000" stroke="#000000" points="152.4347,-565.5988 158.8295,-571.6044 156.2173,-566.8994 160,-568.2 160,-568.2 160,-568.2 156.2173,-566.8994 161.1705,-564.7956 152.4347,-565.5988 152.4347,-565.5988"/>
<ellipse fill="none" stroke="#000000" cx="149.4085" cy="-564.5584" rx="3.2" ry="3.2"/>
</g>
<!-- topics -->
<g id="node2" class="node">
<title>topics</title>
<g id="a_node2"><a xlink:href="../../tables/topics.html" xlink:title="topics" target="_top">
<polygon fill="#ffffff" stroke="transparent" points="607,-904.2 607,-1034.2 716,-1034.2 716,-904.2 607,-904.2"/>
<polygon fill="#f5f5f5" stroke="transparent" points="607.5,-1011.2 607.5,-1034.2 716.5,-1034.2 716.5,-1011.2 607.5,-1011.2"/>
<polygon fill="none" stroke="#000000" points="607.5,-1011.2 607.5,-1034.2 716.5,-1034.2 716.5,-1011.2 607.5,-1011.2"/>
<text text-anchor="start" x="612.5" y="-1019.8" font-family="Helvetica,sans-Serif" font-weight="bold" font-size="11.00" fill="#000000">topics</text>
<text text-anchor="start" x="681.5437" y="-1019.3" font-family="Helvetica,sans-Serif" font-size="11.00" fill="#000000">[table]</text>
<polygon fill="none" stroke="#000000" points="607.5,-989.2 607.5,-1011.2 716.5,-1011.2 716.5,-989.2 607.5,-989.2"/>
<image xlink:href="../../images/primaryKeys.png" width="11px" height="12px" preserveAspectRatio="xMinYMin meet" x="612.5" y="-1006.2"/>
<text text-anchor="start" x="627.5" y="-996.3" font-family="Helvetica,sans-Serif" font-size="11.00" fill="#000000">id</text>
<polygon fill="#ffffff" stroke="transparent" points="607.5,-967.2 607.5,-989.2 716.5,-989.2 716.5,-967.2 607.5,-967.2"/>
<polygon fill="none" stroke="#000000" points="607.5,-967.2 607.5,-989.2 716.5,-989.2 716.5,-967.2 607.5,-967.2"/>
<image xlink:href="../../images/foreignKeys.png" width="11px" height="12px" preserveAspectRatio="xMinYMin meet" x="612.5" y="-984.2"/>
<text text-anchor="start" x="627.5" y="-974.3" font-family="Helvetica,sans-Serif" font-size="11.00" fill="#000000">summary_id</text>
<polygon fill="none" stroke="#000000" points="607.5,-945.2 607.5,-967.2 716.5,-967.2 716.5,-945.2 607.5,-945.2"/>
<text text-anchor="start" x="627.5" y="-952.3" font-family="Helvetica,sans-Serif" font-size="11.00" fill="#000000">title</text>
<polygon fill="none" stroke="#000000" points="607.5,-923.2 607.5,-945.2 716.5,-945.2 716.5,-923.2 607.5,-923.2"/>
<text text-anchor="start" x="627.5" y="-930.3" font-family="Helvetica,sans-Serif" font-size="11.00" fill="#000000">summary</text>
<polygon fill="#ffffff" stroke="transparent" points="607.5,-904.2 607.5,-923.2 716.5,-923.2 716.5,-904.2 607.5,-904.2"/>
<polygon fill="none" stroke="#000000" points="607.5,-904.2 607.5,-923.2 716.5,-923.2 716.5,-904.2 607.5,-904.2"/>
<polygon fill="#ffffff" stroke="transparent" points="608.5,-905.2 608.5,-922.2 650.5,-922.2 650.5,-905.2 608.5,-905.2"/>
<text text-anchor="start" x="610.5" y="-910.3" font-family="Helvetica,sans-Serif" font-size="11.00" fill="#000000">&lt; 1</text>
<polygon fill="#ffffff" stroke="transparent" points="650.5,-905.2 650.5,-922.2 683.5,-922.2 683.5,-905.2 650.5,-905.2"/>
<text text-anchor="start" x="663.9431" y="-910.3" font-family="Helvetica,sans-Serif" font-size="11.00" fill="#000000"> &#160;</text>
<polygon fill="#ffffff" stroke="transparent" points="683.5,-905.2 683.5,-922.2 715.5,-922.2 715.5,-905.2 683.5,-905.2"/>
<text text-anchor="start" x="707.3862" y="-910.3" font-family="Helvetica,sans-Serif" font-size="11.00" fill="#000000"> &#160;</text>
<polygon fill="#000000" stroke="#000000" points="650.5,-905.2 650.5,-922.2 650.5,-922.2 650.5,-905.2 650.5,-905.2"/>
<polygon fill="#000000" stroke="#000000" points="683.5,-905.2 683.5,-922.2 683.5,-922.2 683.5,-905.2 683.5,-905.2"/>
</a>
</g>
</g>
<!-- summaries -->
<g id="node4" class="node">
<title>summaries</title>
<g id="a_node4"><a xlink:href="../../tables/summaries.html" xlink:title="summaries" target="_top">
<polygon fill="#ffffff" stroke="transparent" points="373,-567.2 373,-785.2 518,-785.2 518,-567.2 373,-567.2"/>
<polygon fill="#f5f5f5" stroke="transparent" points="373.5,-762.2 373.5,-785.2 518.5,-785.2 518.5,-762.2 373.5,-762.2"/>
<polygon fill="none" stroke="#000000" points="373.5,-762.2 373.5,-785.2 518.5,-785.2 518.5,-762.2 373.5,-762.2"/>
<text text-anchor="start" x="378.5" y="-770.8" font-family="Helvetica,sans-Serif" font-weight="bold" font-size="11.00" fill="#000000">summaries</text>
<text text-anchor="start" x="483.5437" y="-770.3" font-family="Helvetica,sans-Serif" font-size="11.00" fill="#000000">[table]</text>
<polygon fill="none" stroke="#000000" points="373.5,-740.2 373.5,-762.2 518.5,-762.2 518.5,-740.2 373.5,-740.2"/>
<image xlink:href="../../images/primaryKeys.png" width="11px" height="12px" preserveAspectRatio="xMinYMin meet" x="378.5" y="-757.2"/>
<text text-anchor="start" x="393.5" y="-747.3" font-family="Helvetica,sans-Serif" font-size="11.00" fill="#000000">id</text>
<polygon fill="none" stroke="#000000" points="373.5,-718.2 373.5,-740.2 518.5,-740.2 518.5,-718.2 373.5,-718.2"/>
<text text-anchor="start" x="393.5" y="-725.3" font-family="Helvetica,sans-Serif" font-size="11.00" fill="#000000">filename</text>
<polygon fill="none" stroke="#000000" points="373.5,-696.2 373.5,-718.2 518.5,-718.2 518.5,-696.2 373.5,-696.2"/>
<text text-anchor="start" x="393.5" y="-703.3" font-family="Helvetica,sans-Serif" font-size="11.00" fill="#000000">created_at</text>
<polygon fill="none" stroke="#000000" points="373.5,-674.2 373.5,-696.2 518.5,-696.2 518.5,-674.2 373.5,-674.2"/>
<text text-anchor="start" x="393.5" y="-681.3" font-family="Helvetica,sans-Serif" font-size="11.00" fill="#000000">overall_summary</text>
<polygon fill="#ffffff" stroke="transparent" points="373.5,-652.2 373.5,-674.2 518.5,-674.2 518.5,-652.2 373.5,-652.2"/>
<polygon fill="none" stroke="#000000" points="373.5,-652.2 373.5,-674.2 518.5,-674.2 518.5,-652.2 373.5,-652.2"/>
<text text-anchor="start" x="393.5" y="-659.3" font-family="Helvetica,sans-Serif" font-size="11.00" fill="#000000">content_hash</text>
<polygon fill="#ffffff" stroke="transparent" points="373.5,-630.2 373.5,-652.2 518.5,-652.2 518.5,-630.2 373.5,-630.2"/>
<polygon fill="none" stroke="#000000" points="373.5,-630.2 373.5,-652.2 518.5,-652.2 518.5,-630.2 373.5,-630.2"/>
<image xlink:href="../../images/foreignKeys.png" width="11px" height="12px" preserveAspectRatio="xMinYMin meet" x="378.5" y="-647.2"/>
<text text-anchor="start" x="393.5" y="-637.3" font-family="Helvetica,sans-Serif" font-size="11.00" fill="#000000">user_id</text>
<polygon fill="none" stroke="#000000" points="373.5,-608.2 373.5,-630.2 518.5,-630.2 518.5,-608.2 373.5,-608.2"/>
<text text-anchor="start" x="393.5" y="-615.3" font-family="Helvetica,sans-Serif" font-size="11.00" fill="#000000">deleted_at</text>
<polygon fill="#ffffff" stroke="transparent" points="373.5,-586.2 373.5,-608.2 518.5,-608.2 518.5,-586.2 373.5,-586.2"/>
<polygon fill="none" stroke="#000000" points="373.5,-586.2 373.5,-608.2 518.5,-608.2 518.5,-586.2 373.5,-586.2"/>
<image xlink:href="../../images/foreignKeys.png" width="11px" height="12px" preserveAspectRatio="xMinYMin meet" x="378.5" y="-603.2"/>
<text text-anchor="start" x="393.5" y="-593.3" font-family="Helvetica,sans-Serif" font-size="11.00" fill="#000000">group_id</text>
<polygon fill="#ffffff" stroke="transparent" points="373.5,-567.2 373.5,-586.2 518.5,-586.2 518.5,-567.2 373.5,-567.2"/>
<polygon fill="none" stroke="#000000" points="373.5,-567.2 373.5,-586.2 518.5,-586.2 518.5,-567.2 373.5,-567.2"/>
<polygon fill="#ffffff" stroke="transparent" points="374.5,-568.2 374.5,-585.2 425.5,-585.2 425.5,-568.2 374.5,-568.2"/>
<text text-anchor="start" x="376.5" y="-573.3" font-family="Helvetica,sans-Serif" font-size="11.00" fill="#000000">&lt; 2</text>
<polygon fill="#ffffff" stroke="transparent" points="425.5,-568.2 425.5,-585.2 467.5,-585.2 467.5,-568.2 425.5,-568.2"/>
<text text-anchor="start" x="443.4431" y="-573.3" font-family="Helvetica,sans-Serif" font-size="11.00" fill="#000000"> &#160;</text>
<polygon fill="#ffffff" stroke="transparent" points="467.5,-568.2 467.5,-585.2 517.5,-585.2 517.5,-568.2 467.5,-568.2"/>
<text text-anchor="start" x="499.9053" y="-573.3" font-family="Helvetica,sans-Serif" font-size="11.00" fill="#000000">4 &gt;</text>
<polygon fill="#000000" stroke="#000000" points="425.5,-568.2 425.5,-585.2 425.5,-585.2 425.5,-568.2 425.5,-568.2"/>
<polygon fill="#000000" stroke="#000000" points="467.5,-568.2 467.5,-585.2 467.5,-585.2 467.5,-568.2 467.5,-568.2"/>
</a>
</g>
</g>
<!-- topics&#45;&gt;summaries -->
<g id="edge7" class="edge">
<title>topics:w&#45;&gt;summaries:e</title>
<path fill="none" stroke="#000000" d="M593.0139,-975.9708C566.919,-966.5162 573.5513,-928.6357 559,-894.2 533.2887,-833.354 584.5553,-751.2 518.5,-751.2"/>
<polygon fill="#000000" stroke="#000000" points="599.5931,-976.9832 606.9524,-981.7581 603.5465,-977.5916 607.5,-978.2 607.5,-978.2 607.5,-978.2 603.5465,-977.5916 608.0476,-974.6419 599.5931,-976.9832 599.5931,-976.9832"/>
<ellipse fill="none" stroke="#000000" cx="596.4303" cy="-976.4964" rx="3.2" ry="3.2"/>
</g>
<!-- decisions -->
<g id="node3" class="node">
<title>decisions</title>
<g id="a_node3"><a xlink:href="../../tables/decisions.html" xlink:title="decisions" target="_top">
<polygon fill="#ffffff" stroke="transparent" points="607,-753.2 607,-883.2 716,-883.2 716,-753.2 607,-753.2"/>
<polygon fill="#f5f5f5" stroke="transparent" points="607.5,-860.2 607.5,-883.2 716.5,-883.2 716.5,-860.2 607.5,-860.2"/>
<polygon fill="none" stroke="#000000" points="607.5,-860.2 607.5,-883.2 716.5,-883.2 716.5,-860.2 607.5,-860.2"/>
<text text-anchor="start" x="612.5" y="-868.8" font-family="Helvetica,sans-Serif" font-weight="bold" font-size="11.00" fill="#000000">decisions</text>
<text text-anchor="start" x="681.5437" y="-868.3" font-family="Helvetica,sans-Serif" font-size="11.00" fill="#000000">[table]</text>
<polygon fill="none" stroke="#000000" points="607.5,-838.2 607.5,-860.2 716.5,-860.2 716.5,-838.2 607.5,-838.2"/>
<image xlink:href="../../images/primaryKeys.png" width="11px" height="12px" preserveAspectRatio="xMinYMin meet" x="612.5" y="-855.2"/>
<text text-anchor="start" x="627.5" y="-845.3" font-family="Helvetica,sans-Serif" font-size="11.00" fill="#000000">id</text>
<polygon fill="#ffffff" stroke="transparent" points="607.5,-816.2 607.5,-838.2 716.5,-838.2 716.5,-816.2 607.5,-816.2"/>
<polygon fill="none" stroke="#000000" points="607.5,-816.2 607.5,-838.2 716.5,-838.2 716.5,-816.2 607.5,-816.2"/>
<image xlink:href="../../images/foreignKeys.png" width="11px" height="12px" preserveAspectRatio="xMinYMin meet" x="612.5" y="-833.2"/>
<text text-anchor="start" x="627.5" y="-823.3" font-family="Helvetica,sans-Serif" font-size="11.00" fill="#000000">summary_id</text>
<polygon fill="none" stroke="#000000" points="607.5,-794.2 607.5,-816.2 716.5,-816.2 716.5,-794.2 607.5,-794.2"/>
<text text-anchor="start" x="627.5" y="-801.3" font-family="Helvetica,sans-Serif" font-size="11.00" fill="#000000">description</text>
<polygon fill="none" stroke="#000000" points="607.5,-772.2 607.5,-794.2 716.5,-794.2 716.5,-772.2 607.5,-772.2"/>
<text text-anchor="start" x="627.5" y="-779.3" font-family="Helvetica,sans-Serif" font-size="11.00" fill="#000000">decided_by</text>
<polygon fill="#ffffff" stroke="transparent" points="607.5,-753.2 607.5,-772.2 716.5,-772.2 716.5,-753.2 607.5,-753.2"/>
<polygon fill="none" stroke="#000000" points="607.5,-753.2 607.5,-772.2 716.5,-772.2 716.5,-753.2 607.5,-753.2"/>
<polygon fill="#ffffff" stroke="transparent" points="608.5,-754.2 608.5,-771.2 650.5,-771.2 650.5,-754.2 608.5,-754.2"/>
<text text-anchor="start" x="610.5" y="-759.3" font-family="Helvetica,sans-Serif" font-size="11.00" fill="#000000">&lt; 1</text>
<polygon fill="#ffffff" stroke="transparent" points="650.5,-754.2 650.5,-771.2 683.5,-771.2 683.5,-754.2 650.5,-754.2"/>
<text text-anchor="start" x="663.9431" y="-759.3" font-family="Helvetica,sans-Serif" font-size="11.00" fill="#000000"> &#160;</text>
<polygon fill="#ffffff" stroke="transparent" points="683.5,-754.2 683.5,-771.2 715.5,-771.2 715.5,-754.2 683.5,-754.2"/>
<text text-anchor="start" x="707.3862" y="-759.3" font-family="Helvetica,sans-Serif" font-size="11.00" fill="#000000"> &#160;</text>
<polygon fill="#000000" stroke="#000000" points="650.5,-754.2 650.5,-771.2 650.5,-771.2 650.5,-754.2 650.5,-754.2"/>
<polygon fill="#000000" stroke="#000000" points="683.5,-754.2 683.5,-771.2 683.5,-771.2 683.5,-754.2 683.5,-754.2"/>
</a>
</g>
</g>
<!-- decisions&#45;&gt;summaries -->
<g id="edge2" class="edge">
<title>decisions:w&#45;&gt;summaries:e</title>
<path fill="none" stroke="#000000" d="M593.1221,-824.8421C557.9095,-812.0141 565.0292,-751.2 518.5,-751.2"/>
<polygon fill="#000000" stroke="#000000" points="599.6055,-825.9053 606.9174,-830.7525 603.5527,-826.5527 607.5,-827.2 607.5,-827.2 607.5,-827.2 603.5527,-826.5527 608.0826,-823.6475 599.6055,-825.9053 599.6055,-825.9053"/>
<ellipse fill="none" stroke="#000000" cx="596.4476" cy="-825.3874" rx="3.2" ry="3.2"/>
</g>
<!-- summaries&#45;&gt;summary_groups -->
<g id="edge4" class="edge">
<title>summaries:w&#45;&gt;summary_groups:e</title>
<path fill="none" stroke="#000000" d="M358.7828,-595.9807C347.3813,-593.9751 340.317,-590.2 324,-590.2"/>
<polygon fill="#000000" stroke="#000000" points="365.5273,-596.5394 373.2027,-600.7877 369.5137,-596.8697 373.5,-597.2 373.5,-597.2 373.5,-597.2 369.5137,-596.8697 373.7973,-593.6123 365.5273,-596.5394 365.5273,-596.5394"/>
<ellipse fill="none" stroke="#000000" cx="362.3382" cy="-596.2752" rx="3.2" ry="3.2"/>
</g>
<!-- summaries&#45;&gt;users -->
<g id="edge5" class="edge">
<title>summaries:w&#45;&gt;users:e</title>
<path fill="none" stroke="#000000" d="M358.8952,-641.5924C270.3187,-646.3459 225.7272,-691.6895 152,-634.2 100.2463,-593.8445 177.1278,-492.2 111.5,-492.2"/>
<polygon fill="#000000" stroke="#000000" points="365.5029,-641.4149 373.5967,-644.7987 369.5014,-641.3075 373.5,-641.2 373.5,-641.2 373.5,-641.2 369.5014,-641.3075 373.4033,-637.6013 365.5029,-641.4149 365.5029,-641.4149"/>
<ellipse fill="none" stroke="#000000" cx="362.304" cy="-641.5009" rx="3.2" ry="3.2"/>
</g>
<!-- transcript_segments -->
<g id="node5" class="node">
<title>transcript_segments</title>
<g id="a_node5"><a xlink:href="../../tables/transcript_segments.html" xlink:title="transcript_segments" target="_top">
<polygon fill="#ffffff" stroke="transparent" points="567,-536.2 567,-732.2 756,-732.2 756,-536.2 567,-536.2"/>
<polygon fill="#f5f5f5" stroke="transparent" points="567.5,-709.2 567.5,-732.2 756.5,-732.2 756.5,-709.2 567.5,-709.2"/>
<polygon fill="none" stroke="#000000" points="567.5,-709.2 567.5,-732.2 756.5,-732.2 756.5,-709.2 567.5,-709.2"/>
<text text-anchor="start" x="572.5" y="-717.8" font-family="Helvetica,sans-Serif" font-weight="bold" font-size="11.00" fill="#000000">transcript_segments</text>
<text text-anchor="start" x="722.0219" y="-717.3" font-family="Helvetica,sans-Serif" font-size="11.00" fill="#000000">[table]</text>
<polygon fill="none" stroke="#000000" points="567.5,-687.2 567.5,-709.2 756.5,-709.2 756.5,-687.2 567.5,-687.2"/>
<image xlink:href="../../images/primaryKeys.png" width="11px" height="12px" preserveAspectRatio="xMinYMin meet" x="572.5" y="-704.2"/>
<text text-anchor="start" x="596.5" y="-694.3" font-family="Helvetica,sans-Serif" font-size="11.00" fill="#000000">id</text>
<polygon fill="#ffffff" stroke="transparent" points="567.5,-665.2 567.5,-687.2 756.5,-687.2 756.5,-665.2 567.5,-665.2"/>
<polygon fill="none" stroke="#000000" points="567.5,-665.2 567.5,-687.2 756.5,-687.2 756.5,-665.2 567.5,-665.2"/>
<image xlink:href="../../images/foreignKeys.png" width="11px" height="12px" preserveAspectRatio="xMinYMin meet" x="572.5" y="-682.2"/>
<text text-anchor="start" x="596.5" y="-672.3" font-family="Helvetica,sans-Serif" font-size="11.00" fill="#000000">summary_id</text>
<polygon fill="none" stroke="#000000" points="567.5,-643.2 567.5,-665.2 756.5,-665.2 756.5,-643.2 567.5,-643.2"/>
<text text-anchor="start" x="596.5" y="-650.3" font-family="Helvetica,sans-Serif" font-size="11.00" fill="#000000">speaker_label</text>
<polygon fill="none" stroke="#000000" points="567.5,-621.2 567.5,-643.2 756.5,-643.2 756.5,-621.2 567.5,-621.2"/>
<text text-anchor="start" x="596.5" y="-628.3" font-family="Helvetica,sans-Serif" font-size="11.00" fill="#000000">start_ms</text>
<polygon fill="none" stroke="#000000" points="567.5,-599.2 567.5,-621.2 756.5,-621.2 756.5,-599.2 567.5,-599.2"/>
<text text-anchor="start" x="596.5" y="-606.3" font-family="Helvetica,sans-Serif" font-size="11.00" fill="#000000">end_ms</text>
<polygon fill="none" stroke="#000000" points="567.5,-577.2 567.5,-599.2 756.5,-599.2 756.5,-577.2 567.5,-577.2"/>
<text text-anchor="start" x="596.5" y="-584.3" font-family="Helvetica,sans-Serif" font-size="11.00" fill="#000000">text</text>
<polygon fill="#ffffff" stroke="transparent" points="567.5,-555.2 567.5,-577.2 756.5,-577.2 756.5,-555.2 567.5,-555.2"/>
<polygon fill="none" stroke="#000000" points="567.5,-555.2 567.5,-577.2 756.5,-577.2 756.5,-555.2 567.5,-555.2"/>
<text text-anchor="start" x="596.5" y="-562.3" font-family="Helvetica,sans-Serif" font-size="11.00" fill="#000000">rank</text>
<polygon fill="#ffffff" stroke="transparent" points="567.5,-536.2 567.5,-555.2 756.5,-555.2 756.5,-536.2 567.5,-536.2"/>
<polygon fill="none" stroke="#000000" points="567.5,-536.2 567.5,-555.2 756.5,-555.2 756.5,-536.2 567.5,-536.2"/>
<polygon fill="#ffffff" stroke="transparent" points="568.5,-537.2 568.5,-554.2 637.5,-554.2 637.5,-537.2 568.5,-537.2"/>
<text text-anchor="start" x="570.5" y="-542.3" font-family="Helvetica,sans-Serif" font-size="11.00" fill="#000000">&lt; 1</text>
<polygon fill="#ffffff" stroke="transparent" points="637.5,-537.2 637.5,-554.2 696.5,-554.2 696.5,-537.2 637.5,-537.2"/>
<text text-anchor="start" x="663.9431" y="-542.3" font-family="Helvetica,sans-Serif" font-size="11.00" fill="#000000"> &#160;</text>
<polygon fill="#ffffff" stroke="transparent" points="696.5,-537.2 696.5,-554.2 755.5,-554.2 755.5,-537.2 696.5,-537.2"/>
<text text-anchor="start" x="747.3862" y="-542.3" font-family="Helvetica,sans-Serif" font-size="11.00" fill="#000000"> &#160;</text>
<polygon fill="#000000" stroke="#000000" points="637.5,-537.2 637.5,-554.2 637.5,-554.2 637.5,-537.2 637.5,-537.2"/>
<polygon fill="#000000" stroke="#000000" points="696.5,-537.2 696.5,-554.2 696.5,-554.2 696.5,-537.2 696.5,-537.2"/>
</a>
</g>
</g>
<!-- transcript_segments&#45;&gt;summaries -->
<g id="edge8" class="edge">
<title>transcript_segments:w&#45;&gt;summaries:e</title>
<path fill="none" stroke="#000000" d="M553.7094,-680.8916C535.3818,-697.3109 552.251,-751.2 518.5,-751.2"/>
<polygon fill="#000000" stroke="#000000" points="559.9263,-678.7766 568.6595,-679.6082 563.7131,-677.4883 567.5,-676.2 567.5,-676.2 567.5,-676.2 563.7131,-677.4883 566.3405,-672.7918 559.9263,-678.7766 559.9263,-678.7766"/>
<ellipse fill="none" stroke="#000000" cx="556.8968" cy="-679.8073" rx="3.2" ry="3.2"/>
</g>
<!-- action_items -->
<g id="node6" class="node">
<title>action_items</title>
<g id="a_node6"><a xlink:href="../../tables/action_items.html" xlink:title="action_items" target="_top">
<polygon fill="#ffffff" stroke="transparent" points="596,-363.2 596,-515.2 727,-515.2 727,-363.2 596,-363.2"/>
<polygon fill="#f5f5f5" stroke="transparent" points="596.5,-492.2 596.5,-515.2 727.5,-515.2 727.5,-492.2 596.5,-492.2"/>
<polygon fill="none" stroke="#000000" points="596.5,-492.2 596.5,-515.2 727.5,-515.2 727.5,-492.2 596.5,-492.2"/>
<text text-anchor="start" x="601.5" y="-500.8" font-family="Helvetica,sans-Serif" font-weight="bold" font-size="11.00" fill="#000000">action_items</text>
<text text-anchor="start" x="693.0219" y="-500.3" font-family="Helvetica,sans-Serif" font-size="11.00" fill="#000000">[table]</text>
<polygon fill="none" stroke="#000000" points="596.5,-470.2 596.5,-492.2 727.5,-492.2 727.5,-470.2 596.5,-470.2"/>
<image xlink:href="../../images/primaryKeys.png" width="11px" height="12px" preserveAspectRatio="xMinYMin meet" x="601.5" y="-487.2"/>
<text text-anchor="start" x="625.5" y="-477.3" font-family="Helvetica,sans-Serif" font-size="11.00" fill="#000000">id</text>
<polygon fill="#ffffff" stroke="transparent" points="596.5,-448.2 596.5,-470.2 727.5,-470.2 727.5,-448.2 596.5,-448.2"/>
<polygon fill="none" stroke="#000000" points="596.5,-448.2 596.5,-470.2 727.5,-470.2 727.5,-448.2 596.5,-448.2"/>
<image xlink:href="../../images/foreignKeys.png" width="11px" height="12px" preserveAspectRatio="xMinYMin meet" x="601.5" y="-465.2"/>
<text text-anchor="start" x="625.5" y="-455.3" font-family="Helvetica,sans-Serif" font-size="11.00" fill="#000000">summary_id</text>
<polygon fill="none" stroke="#000000" points="596.5,-426.2 596.5,-448.2 727.5,-448.2 727.5,-426.2 596.5,-426.2"/>
<text text-anchor="start" x="625.5" y="-433.3" font-family="Helvetica,sans-Serif" font-size="11.00" fill="#000000">description</text>
<polygon fill="none" stroke="#000000" points="596.5,-404.2 596.5,-426.2 727.5,-426.2 727.5,-404.2 596.5,-404.2"/>
<text text-anchor="start" x="625.5" y="-411.3" font-family="Helvetica,sans-Serif" font-size="11.00" fill="#000000">assignee</text>
<polygon fill="none" stroke="#000000" points="596.5,-382.2 596.5,-404.2 727.5,-404.2 727.5,-382.2 596.5,-382.2"/>
<text text-anchor="start" x="625.5" y="-389.3" font-family="Helvetica,sans-Serif" font-size="11.00" fill="#000000">due_date</text>
<polygon fill="#ffffff" stroke="transparent" points="596.5,-363.2 596.5,-382.2 727.5,-382.2 727.5,-363.2 596.5,-363.2"/>
<polygon fill="none" stroke="#000000" points="596.5,-363.2 596.5,-382.2 727.5,-382.2 727.5,-363.2 596.5,-363.2"/>
<polygon fill="#ffffff" stroke="transparent" points="597.5,-364.2 597.5,-381.2 646.5,-381.2 646.5,-364.2 597.5,-364.2"/>
<text text-anchor="start" x="599.5" y="-369.3" font-family="Helvetica,sans-Serif" font-size="11.00" fill="#000000">&lt; 1</text>
<polygon fill="#ffffff" stroke="transparent" points="646.5,-364.2 646.5,-381.2 686.5,-381.2 686.5,-364.2 646.5,-364.2"/>
<text text-anchor="start" x="663.4431" y="-369.3" font-family="Helvetica,sans-Serif" font-size="11.00" fill="#000000"> &#160;</text>
<polygon fill="#ffffff" stroke="transparent" points="686.5,-364.2 686.5,-381.2 726.5,-381.2 726.5,-364.2 686.5,-364.2"/>
<text text-anchor="start" x="718.3862" y="-369.3" font-family="Helvetica,sans-Serif" font-size="11.00" fill="#000000"> &#160;</text>
<polygon fill="#000000" stroke="#000000" points="646.5,-364.2 646.5,-381.2 646.5,-381.2 646.5,-364.2 646.5,-364.2"/>
<polygon fill="#000000" stroke="#000000" points="686.5,-364.2 686.5,-381.2 686.5,-381.2 686.5,-364.2 686.5,-364.2"/>
</a>
</g>
</g>
<!-- action_items&#45;&gt;summaries -->
<g id="edge1" class="edge">
<title>action_items:w&#45;&gt;summaries:e</title>
<path fill="none" stroke="#000000" d="M581.9764,-462.3062C564.9142,-471.4348 568.412,-499.1743 559,-525.2 541.648,-573.1811 569.5223,-751.2 518.5,-751.2"/>
<polygon fill="#000000" stroke="#000000" points="588.6769,-460.8732 597.2529,-462.7204 592.5885,-460.0366 596.5,-459.2 596.5,-459.2 596.5,-459.2 592.5885,-460.0366 595.7471,-455.6796 588.6769,-460.8732 588.6769,-460.8732"/>
<ellipse fill="none" stroke="#000000" cx="585.5477" cy="-461.5425" rx="3.2" ry="3.2"/>
</g>
<!-- alembic_version -->
<g id="node7" class="node">
<title>alembic_version</title>
<g id="a_node7"><a xlink:href="../../tables/alembic_version.html" xlink:title="alembic_version" target="_top">
<polygon fill="#ffffff" stroke="transparent" points="905,-1004.2 905,-1068.2 1061,-1068.2 1061,-1004.2 905,-1004.2"/>
<polygon fill="#f5f5f5" stroke="transparent" points="905,-1045.2 905,-1068.2 1061,-1068.2 1061,-1045.2 905,-1045.2"/>
<polygon fill="none" stroke="#000000" points="905,-1045.2 905,-1068.2 1061,-1068.2 1061,-1045.2 905,-1045.2"/>
<text text-anchor="start" x="910" y="-1053.8" font-family="Helvetica,sans-Serif" font-weight="bold" font-size="11.00" fill="#000000">alembic_version</text>
<text text-anchor="start" x="1026.5219" y="-1053.3" font-family="Helvetica,sans-Serif" font-size="11.00" fill="#000000">[table]</text>
<polygon fill="none" stroke="#000000" points="905,-1023.2 905,-1045.2 1061,-1045.2 1061,-1023.2 905,-1023.2"/>
<image xlink:href="../../images/primaryKeys.png" width="11px" height="12px" preserveAspectRatio="xMinYMin meet" x="910" y="-1040.2"/>
<text text-anchor="start" x="934" y="-1030.3" font-family="Helvetica,sans-Serif" font-size="11.00" fill="#000000">version_num</text>
<polygon fill="#ffffff" stroke="transparent" points="905,-1004.2 905,-1023.2 1061,-1023.2 1061,-1004.2 905,-1004.2"/>
<polygon fill="none" stroke="#000000" points="905,-1004.2 905,-1023.2 1061,-1023.2 1061,-1004.2 905,-1004.2"/>
<polygon fill="#ffffff" stroke="transparent" points="906,-1005.2 906,-1022.2 958,-1022.2 958,-1005.2 906,-1005.2"/>
<text text-anchor="start" x="908" y="-1010.3" font-family="Helvetica,sans-Serif" font-size="11.00" fill="#000000"> &#160;</text>
<polygon fill="#ffffff" stroke="transparent" points="958,-1005.2 958,-1022.2 1009,-1022.2 1009,-1005.2 958,-1005.2"/>
<text text-anchor="start" x="980.4431" y="-1010.3" font-family="Helvetica,sans-Serif" font-size="11.00" fill="#000000"> &#160;</text>
<polygon fill="#ffffff" stroke="transparent" points="1009,-1005.2 1009,-1022.2 1060,-1022.2 1060,-1005.2 1009,-1005.2"/>
<text text-anchor="start" x="1051.8862" y="-1010.3" font-family="Helvetica,sans-Serif" font-size="11.00" fill="#000000"> &#160;</text>
<polygon fill="#000000" stroke="#000000" points="958,-1005.2 958,-1022.2 958,-1022.2 958,-1005.2 958,-1005.2"/>
<polygon fill="#000000" stroke="#000000" points="1009,-1005.2 1009,-1022.2 1009,-1022.2 1009,-1005.2 1009,-1005.2"/>
</a>
</g>
</g>
<!-- oauth_identities -->
<g id="node9" class="node">
<title>oauth_identities</title>
<g id="a_node9"><a xlink:href="../../tables/oauth_identities.html" xlink:title="oauth_identities" target="_top">
<polygon fill="#ffffff" stroke="transparent" points="163.5,-299.2 163.5,-473.2 320.5,-473.2 320.5,-299.2 163.5,-299.2"/>
<polygon fill="#f5f5f5" stroke="transparent" points="164,-450.2 164,-473.2 321,-473.2 321,-450.2 164,-450.2"/>
<polygon fill="none" stroke="#000000" points="164,-450.2 164,-473.2 321,-473.2 321,-450.2 164,-450.2"/>
<text text-anchor="start" x="169" y="-458.8" font-family="Helvetica,sans-Serif" font-weight="bold" font-size="11.00" fill="#000000">oauth_identities</text>
<text text-anchor="start" x="286.5219" y="-458.3" font-family="Helvetica,sans-Serif" font-size="11.00" fill="#000000">[table]</text>
<polygon fill="none" stroke="#000000" points="164,-428.2 164,-450.2 321,-450.2 321,-428.2 164,-428.2"/>
<image xlink:href="../../images/primaryKeys.png" width="11px" height="12px" preserveAspectRatio="xMinYMin meet" x="169" y="-445.2"/>
<text text-anchor="start" x="193" y="-435.3" font-family="Helvetica,sans-Serif" font-size="11.00" fill="#000000">id</text>
<polygon fill="#ffffff" stroke="transparent" points="164,-406.2 164,-428.2 321,-428.2 321,-406.2 164,-406.2"/>
<polygon fill="none" stroke="#000000" points="164,-406.2 164,-428.2 321,-428.2 321,-406.2 164,-406.2"/>
<image xlink:href="../../images/foreignKeys.png" width="11px" height="12px" preserveAspectRatio="xMinYMin meet" x="169" y="-423.2"/>
<text text-anchor="start" x="193" y="-413.3" font-family="Helvetica,sans-Serif" font-size="11.00" fill="#000000">user_id</text>
<polygon fill="#ffffff" stroke="transparent" points="164,-384.2 164,-406.2 321,-406.2 321,-384.2 164,-384.2"/>
<polygon fill="none" stroke="#000000" points="164,-384.2 164,-406.2 321,-406.2 321,-384.2 164,-384.2"/>
<text text-anchor="start" x="193" y="-391.3" font-family="Helvetica,sans-Serif" font-size="11.00" fill="#000000">provider</text>
<polygon fill="#ffffff" stroke="transparent" points="164,-362.2 164,-384.2 321,-384.2 321,-362.2 164,-362.2"/>
<polygon fill="none" stroke="#000000" points="164,-362.2 164,-384.2 321,-384.2 321,-362.2 164,-362.2"/>
<text text-anchor="start" x="193" y="-369.3" font-family="Helvetica,sans-Serif" font-size="11.00" fill="#000000">subject</text>
<polygon fill="none" stroke="#000000" points="164,-340.2 164,-362.2 321,-362.2 321,-340.2 164,-340.2"/>
<text text-anchor="start" x="193" y="-347.3" font-family="Helvetica,sans-Serif" font-size="11.00" fill="#000000">email</text>
<polygon fill="none" stroke="#000000" points="164,-318.2 164,-340.2 321,-340.2 321,-318.2 164,-318.2"/>
<text text-anchor="start" x="193" y="-325.3" font-family="Helvetica,sans-Serif" font-size="11.00" fill="#000000">created_at</text>
<polygon fill="#ffffff" stroke="transparent" points="164,-299.2 164,-318.2 321,-318.2 321,-299.2 164,-299.2"/>
<polygon fill="none" stroke="#000000" points="164,-299.2 164,-318.2 321,-318.2 321,-299.2 164,-299.2"/>
<polygon fill="#ffffff" stroke="transparent" points="165,-300.2 165,-317.2 223,-317.2 223,-300.2 165,-300.2"/>
<text text-anchor="start" x="167" y="-305.3" font-family="Helvetica,sans-Serif" font-size="11.00" fill="#000000">&lt; 1</text>
<polygon fill="#ffffff" stroke="transparent" points="223,-300.2 223,-317.2 272,-317.2 272,-300.2 223,-300.2"/>
<text text-anchor="start" x="244.4431" y="-305.3" font-family="Helvetica,sans-Serif" font-size="11.00" fill="#000000"> &#160;</text>
<polygon fill="#ffffff" stroke="transparent" points="272,-300.2 272,-317.2 320,-317.2 320,-300.2 272,-300.2"/>
<text text-anchor="start" x="311.8862" y="-305.3" font-family="Helvetica,sans-Serif" font-size="11.00" fill="#000000"> &#160;</text>
<polygon fill="#000000" stroke="#000000" points="223,-300.2 223,-317.2 223,-317.2 223,-300.2 223,-300.2"/>
<polygon fill="#000000" stroke="#000000" points="272,-300.2 272,-317.2 272,-317.2 272,-300.2 272,-300.2"/>
</a>
</g>
</g>
<!-- oauth_identities&#45;&gt;users -->
<g id="edge3" class="edge">
<title>oauth_identities:w&#45;&gt;users:e</title>
<path fill="none" stroke="#000000" d="M150.0242,-421.667C130.3516,-437.8131 146.1488,-492.2 111.5,-492.2"/>
<polygon fill="#000000" stroke="#000000" points="156.3798,-419.6356 165.096,-420.6291 160.1899,-418.4178 164,-417.2 164,-417.2 164,-417.2 160.1899,-418.4178 162.904,-413.7709 156.3798,-419.6356 156.3798,-419.6356"/>
<ellipse fill="none" stroke="#000000" cx="153.3317" cy="-420.6099" rx="3.2" ry="3.2"/>
</g>
<!-- user_sessions -->
<g id="node10" class="node">
<title>user_sessions</title>
<g id="a_node10"><a xlink:href="../../tables/user_sessions.html" xlink:title="user_sessions" target="_top">
<polygon fill="#ffffff" stroke="transparent" points="172,-38.2 172,-278.2 312,-278.2 312,-38.2 172,-38.2"/>
<polygon fill="#f5f5f5" stroke="transparent" points="172,-255.2 172,-278.2 312,-278.2 312,-255.2 172,-255.2"/>
<polygon fill="none" stroke="#000000" points="172,-255.2 172,-278.2 312,-278.2 312,-255.2 172,-255.2"/>
<text text-anchor="start" x="177" y="-263.8" font-family="Helvetica,sans-Serif" font-weight="bold" font-size="11.00" fill="#000000">user_sessions</text>
<text text-anchor="start" x="277.5219" y="-263.3" font-family="Helvetica,sans-Serif" font-size="11.00" fill="#000000">[table]</text>
<polygon fill="none" stroke="#000000" points="172,-233.2 172,-255.2 312,-255.2 312,-233.2 172,-233.2"/>
<image xlink:href="../../images/primaryKeys.png" width="11px" height="12px" preserveAspectRatio="xMinYMin meet" x="177" y="-250.2"/>
<text text-anchor="start" x="201" y="-240.3" font-family="Helvetica,sans-Serif" font-size="11.00" fill="#000000">id</text>
<polygon fill="#ffffff" stroke="transparent" points="172,-211.2 172,-233.2 312,-233.2 312,-211.2 172,-211.2"/>
<polygon fill="none" stroke="#000000" points="172,-211.2 172,-233.2 312,-233.2 312,-211.2 172,-211.2"/>
<image xlink:href="../../images/foreignKeys.png" width="11px" height="12px" preserveAspectRatio="xMinYMin meet" x="177" y="-228.2"/>
<text text-anchor="start" x="201" y="-218.3" font-family="Helvetica,sans-Serif" font-size="11.00" fill="#000000">user_id</text>
<polygon fill="#ffffff" stroke="transparent" points="172,-189.2 172,-211.2 312,-211.2 312,-189.2 172,-189.2"/>
<polygon fill="none" stroke="#000000" points="172,-189.2 172,-211.2 312,-211.2 312,-189.2 172,-189.2"/>
<text text-anchor="start" x="201" y="-196.3" font-family="Helvetica,sans-Serif" font-size="11.00" fill="#000000">token_hash</text>
<polygon fill="none" stroke="#000000" points="172,-167.2 172,-189.2 312,-189.2 312,-167.2 172,-167.2"/>
<text text-anchor="start" x="201" y="-174.3" font-family="Helvetica,sans-Serif" font-size="11.00" fill="#000000">created_at</text>
<polygon fill="#ffffff" stroke="transparent" points="172,-145.2 172,-167.2 312,-167.2 312,-145.2 172,-145.2"/>
<polygon fill="none" stroke="#000000" points="172,-145.2 172,-167.2 312,-167.2 312,-145.2 172,-145.2"/>
<text text-anchor="start" x="201" y="-152.3" font-family="Helvetica,sans-Serif" font-size="11.00" fill="#000000">expires_at</text>
<polygon fill="none" stroke="#000000" points="172,-123.2 172,-145.2 312,-145.2 312,-123.2 172,-123.2"/>
<text text-anchor="start" x="201" y="-130.3" font-family="Helvetica,sans-Serif" font-size="11.00" fill="#000000">last_seen_at</text>
<polygon fill="none" stroke="#000000" points="172,-101.2 172,-123.2 312,-123.2 312,-101.2 172,-101.2"/>
<text text-anchor="start" x="201" y="-108.3" font-family="Helvetica,sans-Serif" font-size="11.00" fill="#000000">revoked_at</text>
<polygon fill="none" stroke="#000000" points="172,-79.2 172,-101.2 312,-101.2 312,-79.2 172,-79.2"/>
<text text-anchor="start" x="201" y="-86.3" font-family="Helvetica,sans-Serif" font-size="11.00" fill="#000000">user_agent</text>
<polygon fill="none" stroke="#000000" points="172,-57.2 172,-79.2 312,-79.2 312,-57.2 172,-57.2"/>
<text text-anchor="start" x="201" y="-64.3" font-family="Helvetica,sans-Serif" font-size="11.00" fill="#000000">ip_address</text>
<polygon fill="#ffffff" stroke="transparent" points="172,-38.2 172,-57.2 312,-57.2 312,-38.2 172,-38.2"/>
<polygon fill="none" stroke="#000000" points="172,-38.2 172,-57.2 312,-57.2 312,-38.2 172,-38.2"/>
<polygon fill="#ffffff" stroke="transparent" points="173,-39.2 173,-56.2 225,-56.2 225,-39.2 173,-39.2"/>
<text text-anchor="start" x="175" y="-44.3" font-family="Helvetica,sans-Serif" font-size="11.00" fill="#000000">&lt; 1</text>
<polygon fill="#ffffff" stroke="transparent" points="225,-39.2 225,-56.2 268,-56.2 268,-39.2 225,-39.2"/>
<text text-anchor="start" x="243.4431" y="-44.3" font-family="Helvetica,sans-Serif" font-size="11.00" fill="#000000"> &#160;</text>
<polygon fill="#ffffff" stroke="transparent" points="268,-39.2 268,-56.2 311,-56.2 311,-39.2 268,-39.2"/>
<text text-anchor="start" x="302.8862" y="-44.3" font-family="Helvetica,sans-Serif" font-size="11.00" fill="#000000"> &#160;</text>
<polygon fill="#000000" stroke="#000000" points="225,-39.2 225,-56.2 225,-56.2 225,-39.2 225,-39.2"/>
<polygon fill="#000000" stroke="#000000" points="268,-39.2 268,-56.2 268,-56.2 268,-39.2 268,-39.2"/>
</a>
</g>
</g>
<!-- user_sessions&#45;&gt;users -->
<g id="edge9" class="edge">
<title>user_sessions:w&#45;&gt;users:e</title>
<path fill="none" stroke="#000000" d="M158.7368,-227.8393C120.3347,-266.6122 167.7037,-492.2 111.5,-492.2"/>
<polygon fill="#000000" stroke="#000000" points="164.6378,-225.3303 173.4086,-225.513 168.3189,-223.7652 172,-222.2 172,-222.2 172,-222.2 168.3189,-223.7652 170.5914,-218.887 164.6378,-225.3303 164.6378,-225.3303"/>
<ellipse fill="none" stroke="#000000" cx="161.693" cy="-226.5825" rx="3.2" ry="3.2"/>
</g>
</g>
</svg>
