<?xml version="1.0" encoding="UTF-8" standalone="no"?>
<!DOCTYPE svg PUBLIC "-//W3C//DTD SVG 1.1//EN"
 "http://www.w3.org/Graphics/SVG/1.1/DTD/svg11.dtd">
<!-- Generated by graphviz version 2.40.1 (20161225.0304)
 -->
<!-- Title: largeRelationshipsDiagram Pages: 1 -->
<svg width="792pt" height="879pt"
 viewBox="0.00 0.00 792.00 879.20" xmlns="http://www.w3.org/2000/svg" xmlns:xlink="http://www.w3.org/1999/xlink">
<g id="graph0" class="graph" transform="scale(1 1) rotate(0) translate(4 875.2)">
<title>largeRelationshipsDiagram</title>
<polygon fill="#ffffff" stroke="transparent" points="-4,4 -4,-875.2 788,-875.2 788,4 -4,4"/>
<text text-anchor="middle" x="72.4936" y="-7.3" font-family="Helvetica,sans-Serif" font-size="11.00" fill="#000000">Generated by SchemaSpy</text>
<!-- topics -->
<g id="node1" class="node">
<title>topics</title>
<g id="a_node1"><a xlink:href="../../tables/topics.html" xlink:title="topics" target="_top">
<polygon fill="#ffffff" stroke="transparent" points="377,-711.2 377,-841.2 486,-841.2 486,-711.2 377,-711.2"/>
<polygon fill="#f5f5f5" stroke="transparent" points="377.5,-818.2 377.5,-841.2 486.5,-841.2 486.5,-818.2 377.5,-818.2"/>
<polygon fill="none" stroke="#000000" points="377.5,-818.2 377.5,-841.2 486.5,-841.2 486.5,-818.2 377.5,-818.2"/>
<text text-anchor="start" x="382.5" y="-826.8" font-family="Helvetica,sans-Serif" font-weight="bold" font-size="11.00" fill="#000000">topics</text>
<text text-anchor="start" x="451.5437" y="-826.3" font-family="Helvetica,sans-Serif" font-size="11.00" fill="#000000">[table]</text>
<polygon fill="none" stroke="#000000" points="377.5,-796.2 377.5,-818.2 486.5,-818.2 486.5,-796.2 377.5,-796.2"/>
<image xlink:href="../../images/primaryKeys.png" width="11px" height="12px" preserveAspectRatio="xMinYMin meet" x="382.5" y="-813.2"/>
<text text-anchor="start" x="397.5" y="-803.3" font-family="Helvetica,sans-Serif" font-size="11.00" fill="#000000">id</text>
<polygon fill="#ffffff" stroke="transparent" points="377.5,-774.2 377.5,-796.2 486.5,-796.2 486.5,-774.2 377.5,-774.2"/>
<polygon fill="none" stroke="#000000" points="377.5,-774.2 377.5,-796.2 486.5,-796.2 486.5,-774.2 377.5,-774.2"/>
<image xlink:href="../../images/foreignKeys.png" width="11px" height="12px" preserveAspectRatio="xMinYMin meet" x="382.5" y="-791.2"/>
<text text-anchor="start" x="397.5" y="-781.3" font-family="Helvetica,sans-Serif" font-size="11.00" fill="#000000">summary_id</text>
<polygon fill="none" stroke="#000000" points="377.5,-752.2 377.5,-774.2 486.5,-774.2 486.5,-752.2 377.5,-752.2"/>
<text text-anchor="start" x="397.5" y="-759.3" font-family="Helvetica,sans-Serif" font-size="11.00" fill="#000000">title</text>
<polygon fill="none" stroke="#000000" points="377.5,-730.2 377.5,-752.2 486.5,-752.2 486.5,-730.2 377.5,-730.2"/>
<text text-anchor="start" x="397.5" y="-737.3" font-family="Helvetica,sans-Serif" font-size="11.00" fill="#000000">summary</text>
<polygon fill="#ffffff" stroke="transparent" points="377.5,-711.2 377.5,-730.2 486.5,-730.2 486.5,-711.2 377.5,-711.2"/>
<polygon fill="none" stroke="#000000" points="377.5,-711.2 377.5,-730.2 486.5,-730.2 486.5,-711.2 377.5,-711.2"/>
<polygon fill="#ffffff" stroke="transparent" points="378.5,-712.2 378.5,-729.2 420.5,-729.2 420.5,-712.2 378.5,-712.2"/>
<text text-anchor="start" x="380.5" y="-717.3" font-family="Helvetica,sans-Serif" font-size="11.00" fill="#000000">&lt; 1</text>
<polygon fill="#ffffff" stroke="transparent" points="420.5,-712.2 420.5,-729.2 453.5,-729.2 453.5,-712.2 420.5,-712.2"/>
<text text-anchor="start" x="433.9431" y="-717.3" font-family="Helvetica,sans-Serif" font-size="11.00" fill="#000000"> &#160;</text>
<polygon fill="#ffffff" stroke="transparent" points="453.5,-712.2 453.5,-729.2 485.5,-729.2 485.5,-712.2 453.5,-712.2"/>
<text text-anchor="start" x="477.3862" y="-717.3" font-family="Helvetica,sans-Serif" font-size="11.00" fill="#000000"> &#160;</text>
<polygon fill="#000000" stroke="#000000" points="420.5,-712.2 420.5,-729.2 420.5,-729.2 420.5,-712.2 420.5,-712.2"/>
<polygon fill="#000000" stroke="#000000" points="453.5,-712.2 453.5,-729.2 453.5,-729.2 453.5,-712.2 453.5,-712.2"/>
</a>
</g>
</g>
<!-- summaries -->
<g id="node3" class="node">
<title>summaries</title>
<g id="a_node3"><a xlink:href="../../tables/summaries.html" xlink:title="summaries" target="_top">
<polygon fill="#ffffff" stroke="transparent" points="166,-494.2 166,-668.2 311,-668.2 311,-494.2 166,-494.2"/>
<polygon fill="#f5f5f5" stroke="transparent" points="166.5,-645.2 166.5,-668.2 311.5,-668.2 311.5,-645.2 166.5,-645.2"/>
<polygon fill="none" stroke="#000000" points="166.5,-645.2 166.5,-668.2 311.5,-668.2 311.5,-645.2 166.5,-645.2"/>
<text text-anchor="start" x="171.5" y="-653.8" font-family="Helvetica,sans-Serif" font-weight="bold" font-size="11.00" fill="#000000">summaries</text>
<text text-anchor="start" x="276.5437" y="-653.3" font-family="Helvetica,sans-Serif" font-size="11.00" fill="#000000">[table]</text>
<polygon fill="none" stroke="#000000" points="166.5,-623.2 166.5,-645.2 311.5,-645.2 311.5,-623.2 166.5,-623.2"/>
<image xlink:href="../../images/primaryKeys.png" width="11px" height="12px" preserveAspectRatio="xMinYMin meet" x="171.5" y="-640.2"/>
<text text-anchor="start" x="186.5" y="-630.3" font-family="Helvetica,sans-Serif" font-size="11.00" fill="#000000">id</text>
<polygon fill="none" stroke="#000000" points="166.5,-601.2 166.5,-623.2 311.5,-623.2 311.5,-601.2 166.5,-601.2"/>
<text text-anchor="start" x="186.5" y="-608.3" font-family="Helvetica,sans-Serif" font-size="11.00" fill="#000000">filename</text>
<polygon fill="none" stroke="#000000" points="166.5,-579.2 166.5,-601.2 311.5,-601.2 311.5,-579.2 166.5,-579.2"/>
<text text-anchor="start" x="186.5" y="-586.3" font-family="Helvetica,sans-Serif" font-size="11.00" fill="#000000">created_at</text>
<polygon fill="none" stroke="#000000" points="166.5,-557.2 166.5,-579.2 311.5,-579.2 311.5,-557.2 166.5,-557.2"/>
<text text-anchor="start" x="186.5" y="-564.3" font-family="Helvetica,sans-Serif" font-size="11.00" fill="#000000">overall_summary</text>
<polygon fill="#ffffff" stroke="transparent" points="166.5,-535.2 166.5,-557.2 311.5,-557.2 311.5,-535.2 166.5,-535.2"/>
<polygon fill="none" stroke="#000000" points="166.5,-535.2 166.5,-557.2 311.5,-557.2 311.5,-535.2 166.5,-535.2"/>
<text text-anchor="start" x="186.5" y="-542.3" font-family="Helvetica,sans-Serif" font-size="11.00" fill="#000000">content_hash</text>
<polygon fill="#ffffff" stroke="transparent" points="166.5,-513.2 166.5,-535.2 311.5,-535.2 311.5,-513.2 166.5,-513.2"/>
<polygon fill="none" stroke="#000000" points="166.5,-513.2 166.5,-535.2 311.5,-535.2 311.5,-513.2 166.5,-513.2"/>
<image xlink:href="../../images/foreignKeys.png" width="11px" height="12px" preserveAspectRatio="xMinYMin meet" x="171.5" y="-530.2"/>
<text text-anchor="start" x="186.5" y="-520.3" font-family="Helvetica,sans-Serif" font-size="11.00" fill="#000000">user_id</text>
<polygon fill="#ffffff" stroke="transparent" points="166.5,-494.2 166.5,-513.2 311.5,-513.2 311.5,-494.2 166.5,-494.2"/>
<polygon fill="none" stroke="#000000" points="166.5,-494.2 166.5,-513.2 311.5,-513.2 311.5,-494.2 166.5,-494.2"/>
<polygon fill="#ffffff" stroke="transparent" points="167.5,-495.2 167.5,-512.2 218.5,-512.2 218.5,-495.2 167.5,-495.2"/>
<text text-anchor="start" x="169.5" y="-500.3" font-family="Helvetica,sans-Serif" font-size="11.00" fill="#000000">&lt; 1</text>
<polygon fill="#ffffff" stroke="transparent" points="218.5,-495.2 218.5,-512.2 260.5,-512.2 260.5,-495.2 218.5,-495.2"/>
<text text-anchor="start" x="236.4431" y="-500.3" font-family="Helvetica,sans-Serif" font-size="11.00" fill="#000000"> &#160;</text>
<polygon fill="#ffffff" stroke="transparent" points="260.5,-495.2 260.5,-512.2 310.5,-512.2 310.5,-495.2 260.5,-495.2"/>
<text text-anchor="start" x="292.9053" y="-500.3" font-family="Helvetica,sans-Serif" font-size="11.00" fill="#000000">3 &gt;</text>
<polygon fill="#000000" stroke="#000000" points="218.5,-495.2 218.5,-512.2 218.5,-512.2 218.5,-495.2 218.5,-495.2"/>
<polygon fill="#000000" stroke="#000000" points="260.5,-495.2 260.5,-512.2 260.5,-512.2 260.5,-495.2 260.5,-495.2"/>
</a>
</g>
</g>
<!-- topics&#45;&gt;summaries -->
<g id="edge5" class="edge">
<title>topics:w&#45;&gt;summaries:e</title>
<path fill="none" stroke="#000000" d="M363.3031,-782.7051C315.6275,-763.0722 379.1627,-634.2 311.5,-634.2"/>
<polygon fill="#000000" stroke="#000000" points="369.6207,-783.8153 376.8769,-788.7457 373.5604,-784.5076 377.5,-785.2 377.5,-785.2 377.5,-785.2 373.5604,-784.5076 378.1231,-781.6543 369.6207,-783.8153 369.6207,-783.8153"/>
<ellipse fill="none" stroke="#000000" cx="366.469" cy="-783.2614" rx="3.2" ry="3.2"/>
</g>
<!-- decisions -->
<g id="node2" class="node">
<title>decisions</title>
<g id="a_node2"><a xlink:href="../../tables/decisions.html" xlink:title="decisions" target="_top">
<polygon fill="#ffffff" stroke="transparent" points="377,-560.2 377,-690.2 486,-690.2 486,-560.2 377,-560.2"/>
<polygon fill="#f5f5f5" stroke="transparent" points="377.5,-667.2 377.5,-690.2 486.5,-690.2 486.5,-667.2 377.5,-667.2"/>
<polygon fill="none" stroke="#000000" points="377.5,-667.2 377.5,-690.2 486.5,-690.2 486.5,-667.2 377.5,-667.2"/>
<text text-anchor="start" x="382.5" y="-675.8" font-family="Helvetica,sans-Serif" font-weight="bold" font-size="11.00" fill="#000000">decisions</text>
<text text-anchor="start" x="451.5437" y="-675.3" font-family="Helvetica,sans-Serif" font-size="11.00" fill="#000000">[table]</text>
<polygon fill="none" stroke="#000000" points="377.5,-645.2 377.5,-667.2 486.5,-667.2 486.5,-645.2 377.5,-645.2"/>
<image xlink:href="../../images/primaryKeys.png" width="11px" height="12px" preserveAspectRatio="xMinYMin meet" x="382.5" y="-662.2"/>
<text text-anchor="start" x="397.5" y="-652.3" font-family="Helvetica,sans-Serif" font-size="11.00" fill="#000000">id</text>
<polygon fill="#ffffff" stroke="transparent" points="377.5,-623.2 377.5,-645.2 486.5,-645.2 486.5,-623.2 377.5,-623.2"/>
<polygon fill="none" stroke="#000000" points="377.5,-623.2 377.5,-645.2 486.5,-645.2 486.5,-623.2 377.5,-623.2"/>
<image xlink:href="../../images/foreignKeys.png" width="11px" height="12px" preserveAspectRatio="xMinYMin meet" x="382.5" y="-640.2"/>
<text text-anchor="start" x="397.5" y="-630.3" font-family="Helvetica,sans-Serif" font-size="11.00" fill="#000000">summary_id</text>
<polygon fill="none" stroke="#000000" points="377.5,-601.2 377.5,-623.2 486.5,-623.2 486.5,-601.2 377.5,-601.2"/>
<text text-anchor="start" x="397.5" y="-608.3" font-family="Helvetica,sans-Serif" font-size="11.00" fill="#000000">description</text>
<polygon fill="none" stroke="#000000" points="377.5,-579.2 377.5,-601.2 486.5,-601.2 486.5,-579.2 377.5,-579.2"/>
<text text-anchor="start" x="397.5" y="-586.3" font-family="Helvetica,sans-Serif" font-size="11.00" fill="#000000">decided_by</text>
<polygon fill="#ffffff" stroke="transparent" points="377.5,-560.2 377.5,-579.2 486.5,-579.2 486.5,-560.2 377.5,-560.2"/>
<polygon fill="none" stroke="#000000" points="377.5,-560.2 377.5,-579.2 486.5,-579.2 486.5,-560.2 377.5,-560.2"/>
<polygon fill="#ffffff" stroke="transparent" points="378.5,-561.2 378.5,-578.2 420.5,-578.2 420.5,-561.2 378.5,-561.2"/>
<text text-anchor="start" x="380.5" y="-566.3" font-family="Helvetica,sans-Serif" font-size="11.00" fill="#000000">&lt; 1</text>
<polygon fill="#ffffff" stroke="transparent" points="420.5,-561.2 420.5,-578.2 453.5,-578.2 453.5,-561.2 420.5,-561.2"/>
<text text-anchor="start" x="433.9431" y="-566.3" font-family="Helvetica,sans-Serif" font-size="11.00" fill="#000000"> &#160;</text>
<polygon fill="#ffffff" stroke="transparent" points="453.5,-561.2 453.5,-578.2 485.5,-578.2 485.5,-561.2 453.5,-561.2"/>
<text text-anchor="start" x="477.3862" y="-566.3" font-family="Helvetica,sans-Serif" font-size="11.00" fill="#000000"> &#160;</text>
<polygon fill="#000000" stroke="#000000" points="420.5,-561.2 420.5,-578.2 420.5,-578.2 420.5,-561.2 420.5,-561.2"/>
<polygon fill="#000000" stroke="#000000" points="453.5,-561.2 453.5,-578.2 453.5,-578.2 453.5,-561.2 453.5,-561.2"/>
</a>
</g>
</g>
<!-- decisions&#45;&gt;summaries -->
<g id="edge2" class="edge">
<title>decisions:w&#45;&gt;summaries:e</title>
<path fill="none" stroke="#000000" d="M363.0303,-634.2C344.6432,-634.2 335.3333,-634.2 311.5,-634.2"/>
<polygon fill="#000000" stroke="#000000" points="369.5,-634.2001 377.5,-637.8 373.5,-634.2 377.5,-634.2 377.5,-634.2 377.5,-634.2 373.5,-634.2 377.5,-630.6 369.5,-634.2001 369.5,-634.2001"/>
<ellipse fill="none" stroke="#000000" cx="366.3" cy="-634.2001" rx="3.2" ry="3.2"/>
</g>
<!-- users -->
<g id="node6" class="node">
<title>users</title>
<g id="a_node6"><a xlink:href="../../tables/users.html" xlink:title="users" target="_top">
<polygon fill="#ffffff" stroke="transparent" points="8,-255.2 8,-451.2 111,-451.2 111,-255.2 8,-255.2"/>
<polygon fill="#f5f5f5" stroke="transparent" points="8.5,-428.2 8.5,-451.2 111.5,-451.2 111.5,-428.2 8.5,-428.2"/>
<polygon fill="none" stroke="#000000" points="8.5,-428.2 8.5,-451.2 111.5,-451.2 111.5,-428.2 8.5,-428.2"/>
<text text-anchor="start" x="13.5" y="-436.8" font-family="Helvetica,sans-Serif" font-weight="bold" font-size="11.00" fill="#000000">users</text>
<text text-anchor="start" x="76.5437" y="-436.3" font-family="Helvetica,sans-Serif" font-size="11.00" fill="#000000">[table]</text>
<polygon fill="none" stroke="#000000" points="8.5,-406.2 8.5,-428.2 111.5,-428.2 111.5,-406.2 8.5,-406.2"/>
<image xlink:href="../../images/primaryKeys.png" width="11px" height="12px" preserveAspectRatio="xMinYMin meet" x="13.5" y="-423.2"/>
<text text-anchor="start" x="28.5" y="-413.3" font-family="Helvetica,sans-Serif" font-size="11.00" fill="#000000">id</text>
<polygon fill="none" stroke="#000000" points="8.5,-384.2 8.5,-406.2 111.5,-406.2 111.5,-384.2 8.5,-384.2"/>
<text text-anchor="start" x="28.5" y="-391.3" font-family="Helvetica,sans-Serif" font-size="11.00" fill="#000000">email</text>
<polygon fill="none" stroke="#000000" points="8.5,-362.2 8.5,-384.2 111.5,-384.2 111.5,-362.2 8.5,-362.2"/>
<text text-anchor="start" x="28.5" y="-369.3" font-family="Helvetica,sans-Serif" font-size="11.00" fill="#000000">name</text>
<polygon fill="none" stroke="#000000" points="8.5,-340.2 8.5,-362.2 111.5,-362.2 111.5,-340.2 8.5,-340.2"/>
<text text-anchor="start" x="28.5" y="-347.3" font-family="Helvetica,sans-Serif" font-size="11.00" fill="#000000">created_at</text>
<polygon fill="none" stroke="#000000" points="8.5,-318.2 8.5,-340.2 111.5,-340.2 111.5,-318.2 8.5,-318.2"/>
<text text-anchor="start" x="28.5" y="-325.3" font-family="Helvetica,sans-Serif" font-size="11.00" fill="#000000">updated_at</text>
<polygon fill="none" stroke="#000000" points="8.5,-296.2 8.5,-318.2 111.5,-318.2 111.5,-296.2 8.5,-296.2"/>
<text text-anchor="start" x="28.5" y="-303.3" font-family="Helvetica,sans-Serif" font-size="11.00" fill="#000000">role</text>
<polygon fill="none" stroke="#000000" points="8.5,-274.2 8.5,-296.2 111.5,-296.2 111.5,-274.2 8.5,-274.2"/>
<text text-anchor="start" x="28.5" y="-281.3" font-family="Helvetica,sans-Serif" font-size="11.00" fill="#000000">status</text>
<polygon fill="#ffffff" stroke="transparent" points="8.5,-255.2 8.5,-274.2 111.5,-274.2 111.5,-255.2 8.5,-255.2"/>
<polygon fill="none" stroke="#000000" points="8.5,-255.2 8.5,-274.2 111.5,-274.2 111.5,-255.2 8.5,-255.2"/>
<polygon fill="#ffffff" stroke="transparent" points="9.5,-256.2 9.5,-273.2 40.5,-273.2 40.5,-256.2 9.5,-256.2"/>
<text text-anchor="start" x="11.5" y="-261.3" font-family="Helvetica,sans-Serif" font-size="11.00" fill="#000000"> &#160;</text>
<polygon fill="#ffffff" stroke="transparent" points="40.5,-256.2 40.5,-273.2 71.5,-273.2 71.5,-256.2 40.5,-256.2"/>
<text text-anchor="start" x="52.9431" y="-261.3" font-family="Helvetica,sans-Serif" font-size="11.00" fill="#000000"> &#160;</text>
<polygon fill="#ffffff" stroke="transparent" points="71.5,-256.2 71.5,-273.2 110.5,-273.2 110.5,-256.2 71.5,-256.2"/>
<text text-anchor="start" x="92.9053" y="-261.3" font-family="Helvetica,sans-Serif" font-size="11.00" fill="#000000">3 &gt;</text>
<polygon fill="#000000" stroke="#000000" points="40.5,-256.2 40.5,-273.2 40.5,-273.2 40.5,-256.2 40.5,-256.2"/>
<polygon fill="#000000" stroke="#000000" points="71.5,-256.2 71.5,-273.2 71.5,-273.2 71.5,-256.2 71.5,-256.2"/>
</a>
</g>
</g>
<!-- summaries&#45;&gt;users -->
<g id="edge4" class="edge">
<title>summaries:w&#45;&gt;users:e</title>
<path fill="none" stroke="#000000" d="M152.4623,-520.6399C123.1308,-502.0738 159.1219,-417.2 111.5,-417.2"/>
<polygon fill="#000000" stroke="#000000" points="158.7455,-522.2333 165.615,-527.6895 162.6227,-523.2167 166.5,-524.2 166.5,-524.2 166.5,-524.2 162.6227,-523.2167 167.385,-520.7105 158.7455,-522.2333 158.7455,-522.2333"/>
<ellipse fill="none" stroke="#000000" cx="155.6437" cy="-521.4467" rx="3.2" ry="3.2"/>
</g>
<!-- action_items -->
<g id="node4" class="node">
<title>action_items</title>
<g id="a_node4"><a xlink:href="../../tables/action_items.html" xlink:title="action_items" target="_top">
<polygon fill="#ffffff" stroke="transparent" points="366,-387.2 366,-539.2 497,-539.2 497,-387.2 366,-387.2"/>
<polygon fill="#f5f5f5" stroke="transparent" points="366.5,-516.2 366.5,-539.2 497.5,-539.2 497.5,-516.2 366.5,-516.2"/>
<polygon fill="none" stroke="#000000" points="366.5,-516.2 366.5,-539.2 497.5,-539.2 497.5,-516.2 366.5,-516.2"/>
<text text-anchor="start" x="371.5" y="-524.8" font-family="Helvetica,sans-Serif" font-weight="bold" font-size="11.00" fill="#000000">action_items</text>
<text text-anchor="start" x="463.0219" y="-524.3" font-family="Helvetica,sans-Serif" font-size="11.00" fill="#000000">[table]</text>
<polygon fill="none" stroke="#000000" points="366.5,-494.2 366.5,-516.2 497.5,-516.2 497.5,-494.2 366.5,-494.2"/>
<image xlink:href="../../images/primaryKeys.png" width="11px" height="12px" preserveAspectRatio="xMinYMin meet" x="371.5" y="-511.2"/>
<text text-anchor="start" x="395.5" y="-501.3" font-family="Helvetica,sans-Serif" font-size="11.00" fill="#000000">id</text>
<polygon fill="#ffffff" stroke="transparent" points="366.5,-472.2 366.5,-494.2 497.5,-494.2 497.5,-472.2 366.5,-472.2"/>
<polygon fill="none" stroke="#000000" points="366.5,-472.2 366.5,-494.2 497.5,-494.2 497.5,-472.2 366.5,-472.2"/>
<image xlink:href="../../images/foreignKeys.png" width="11px" height="12px" preserveAspectRatio="xMinYMin meet" x="371.5" y="-489.2"/>
<text text-anchor="start" x="395.5" y="-479.3" font-family="Helvetica,sans-Serif" font-size="11.00" fill="#000000">summary_id</text>
<polygon fill="none" stroke="#000000" points="366.5,-450.2 366.5,-472.2 497.5,-472.2 497.5,-450.2 366.5,-450.2"/>
<text text-anchor="start" x="395.5" y="-457.3" font-family="Helvetica,sans-Serif" font-size="11.00" fill="#000000">description</text>
<polygon fill="none" stroke="#000000" points="366.5,-428.2 366.5,-450.2 497.5,-450.2 497.5,-428.2 366.5,-428.2"/>
<text text-anchor="start" x="395.5" y="-435.3" font-family="Helvetica,sans-Serif" font-size="11.00" fill="#000000">assignee</text>
<polygon fill="none" stroke="#000000" points="366.5,-406.2 366.5,-428.2 497.5,-428.2 497.5,-406.2 366.5,-406.2"/>
<text text-anchor="start" x="395.5" y="-413.3" font-family="Helvetica,sans-Serif" font-size="11.00" fill="#000000">due_date</text>
<polygon fill="#ffffff" stroke="transparent" points="366.5,-387.2 366.5,-406.2 497.5,-406.2 497.5,-387.2 366.5,-387.2"/>
<polygon fill="none" stroke="#000000" points="366.5,-387.2 366.5,-406.2 497.5,-406.2 497.5,-387.2 366.5,-387.2"/>
<polygon fill="#ffffff" stroke="transparent" points="367.5,-388.2 367.5,-405.2 416.5,-405.2 416.5,-388.2 367.5,-388.2"/>
<text text-anchor="start" x="369.5" y="-393.3" font-family="Helvetica,sans-Serif" font-size="11.00" fill="#000000">&lt; 1</text>
<polygon fill="#ffffff" stroke="transparent" points="416.5,-388.2 416.5,-405.2 456.5,-405.2 456.5,-388.2 416.5,-388.2"/>
<text text-anchor="start" x="433.4431" y="-393.3" font-family="Helvetica,sans-Serif" font-size="11.00" fill="#000000"> &#160;</text>
<polygon fill="#ffffff" stroke="transparent" points="456.5,-388.2 456.5,-405.2 496.5,-405.2 496.5,-388.2 456.5,-388.2"/>
<text text-anchor="start" x="488.3862" y="-393.3" font-family="Helvetica,sans-Serif" font-size="11.00" fill="#000000"> &#160;</text>
<polygon fill="#000000" stroke="#000000" points="416.5,-388.2 416.5,-405.2 416.5,-405.2 416.5,-388.2 416.5,-388.2"/>
<polygon fill="#000000" stroke="#000000" points="456.5,-388.2 456.5,-405.2 456.5,-405.2 456.5,-388.2 456.5,-388.2"/>
</a>
</g>
</g>
<!-- action_items&#45;&gt;summaries -->
<g id="edge1" class="edge">
<title>action_items:w&#45;&gt;summaries:e</title>
<path fill="none" stroke="#000000" d="M352.2419,-485.9498C308.1239,-506.4153 377.2048,-634.2 311.5,-634.2"/>
<polygon fill="#000000" stroke="#000000" points="358.6447,-484.715 367.1817,-486.7349 362.5724,-483.9575 366.5,-483.2 366.5,-483.2 366.5,-483.2 362.5724,-483.9575 365.8183,-479.6651 358.6447,-484.715 358.6447,-484.715"/>
<ellipse fill="none" stroke="#000000" cx="355.5026" cy="-485.321" rx="3.2" ry="3.2"/>
</g>
<!-- alembic_version -->
<g id="node5" class="node">
<title>alembic_version</title>
<g id="a_node5"><a xlink:href="../../tables/alembic_version.html" xlink:title="alembic_version" target="_top">
<polygon fill="#ffffff" stroke="transparent" points="620,-803.2 620,-867.2 776,-867.2 776,-803.2 620,-803.2"/>
<polygon fill="#f5f5f5" stroke="transparent" points="620,-844.2 620,-867.2 776,-867.2 776,-844.2 620,-844.2"/>
<polygon fill="none" stroke="#000000" points="620,-844.2 620,-867.2 776,-867.2 776,-844.2 620,-844.2"/>
<text text-anchor="start" x="625" y="-852.8" font-family="Helvetica,sans-Serif" font-weight="bold" font-size="11.00" fill="#000000">alembic_version</text>
<text text-anchor="start" x="741.5219" y="-852.3" font-family="Helvetica,sans-Serif" font-size="11.00" fill="#000000">[table]</text>
<polygon fill="none" stroke="#000000" points="620,-822.2 620,-844.2 776,-844.2 776,-822.2 620,-822.2"/>
<image xlink:href="../../images/primaryKeys.png" width="11px" height="12px" preserveAspectRatio="xMinYMin meet" x="625" y="-839.2"/>
<text text-anchor="start" x="649" y="-829.3" font-family="Helvetica,sans-Serif" font-size="11.00" fill="#000000">version_num</text>
<polygon fill="#ffffff" stroke="transparent" points="620,-803.2 620,-822.2 776,-822.2 776,-803.2 620,-803.2"/>
<polygon fill="none" stroke="#000000" points="620,-803.2 620,-822.2 776,-822.2 776,-803.2 620,-803.2"/>
<polygon fill="#ffffff" stroke="transparent" points="621,-804.2 621,-821.2 673,-821.2 673,-804.2 621,-804.2"/>
<text text-anchor="start" x="623" y="-809.3" font-family="Helvetica,sans-Serif" font-size="11.00" fill="#000000"> &#160;</text>
<polygon fill="#ffffff" stroke="transparent" points="673,-804.2 673,-821.2 724,-821.2 724,-804.2 673,-804.2"/>
<text text-anchor="start" x="695.4431" y="-809.3" font-family="Helvetica,sans-Serif" font-size="11.00" fill="#000000"> &#160;</text>
<polygon fill="#ffffff" stroke="transparent" points="724,-804.2 724,-821.2 775,-821.2 775,-804.2 724,-804.2"/>
<text text-anchor="start" x="766.8862" y="-809.3" font-family="Helvetica,sans-Serif" font-size="11.00" fill="#000000"> &#160;</text>
<polygon fill="#000000" stroke="#000000" points="673,-804.2 673,-821.2 673,-821.2 673,-804.2 673,-804.2"/>
<polygon fill="#000000" stroke="#000000" points="724,-804.2 724,-821.2 724,-821.2 724,-804.2 724,-804.2"/>
</a>
</g>
</g>
<!-- oauth_identities -->
<g id="node7" class="node">
<title>oauth_identities</title>
<g id="a_node7"><a xlink:href="../../tables/oauth_identities.html" xlink:title="oauth_identities" target="_top">
<polygon fill="#ffffff" stroke="transparent" points="160,-299.2 160,-473.2 317,-473.2 317,-299.2 160,-299.2"/>
<polygon fill="#f5f5f5" stroke="transparent" points="160.5,-450.2 160.5,-473.2 317.5,-473.2 317.5,-450.2 160.5,-450.2"/>
<polygon fill="none" stroke="#000000" points="160.5,-450.2 160.5,-473.2 317.5,-473.2 317.5,-450.2 160.5,-450.2"/>
<text text-anchor="start" x="165.5" y="-458.8" font-family="Helvetica,sans-Serif" font-weight="bold" font-size="11.00" fill="#000000">oauth_identities</text>
<text text-anchor="start" x="283.0219" y="-458.3" font-family="Helvetica,sans-Serif" font-size="11.00" fill="#000000">[table]</text>
<polygon fill="none" stroke="#000000" points="160.5,-428.2 160.5,-450.2 317.5,-450.2 317.5,-428.2 160.5,-428.2"/>
<image xlink:href="../../images/primaryKeys.png" width="11px" height="12px" preserveAspectRatio="xMinYMin meet" x="165.5" y="-445.2"/>
<text text-anchor="start" x="189.5" y="-435.3" font-family="Helvetica,sans-Serif" font-size="11.00" fill="#000000">id</text>
<polygon fill="#ffffff" stroke="transparent" points="160.5,-406.2 160.5,-428.2 317.5,-428.2 317.5,-406.2 160.5,-406.2"/>
<polygon fill="none" stroke="#000000" points="160.5,-406.2 160.5,-428.2 317.5,-428.2 317.5,-406.2 160.5,-406.2"/>
<image xlink:href="../../images/foreignKeys.png" width="11px" height="12px" preserveAspectRatio="xMinYMin meet" x="165.5" y="-423.2"/>
<text text-anchor="start" x="189.5" y="-413.3" font-family="Helvetica,sans-Serif" font-size="11.00" fill="#000000">user_id</text>
<polygon fill="#ffffff" stroke="transparent" points="160.5,-384.2 160.5,-406.2 317.5,-406.2 317.5,-384.2 160.5,-384.2"/>
<polygon fill="none" stroke="#000000" points="160.5,-384.2 160.5,-406.2 317.5,-406.2 317.5,-384.2 160.5,-384.2"/>
<text text-anchor="start" x="189.5" y="-391.3" font-family="Helvetica,sans-Serif" font-size="11.00" fill="#000000">provider</text>
<polygon fill="#ffffff" stroke="transparent" points="160.5,-362.2 160.5,-384.2 317.5,-384.2 317.5,-362.2 160.5,-362.2"/>
<polygon fill="none" stroke="#000000" points="160.5,-362.2 160.5,-384.2 317.5,-384.2 317.5,-362.2 160.5,-362.2"/>
<text text-anchor="start" x="189.5" y="-369.3" font-family="Helvetica,sans-Serif" font-size="11.00" fill="#000000">subject</text>
<polygon fill="none" stroke="#000000" points="160.5,-340.2 160.5,-362.2 317.5,-362.2 317.5,-340.2 160.5,-340.2"/>
<text text-anchor="start" x="189.5" y="-347.3" font-family="Helvetica,sans-Serif" font-size="11.00" fill="#000000">email</text>
<polygon fill="none" stroke="#000000" points="160.5,-318.2 160.5,-340.2 317.5,-340.2 317.5,-318.2 160.5,-318.2"/>
<text text-anchor="start" x="189.5" y="-325.3" font-family="Helvetica,sans-Serif" font-size="11.00" fill="#000000">created_at</text>
<polygon fill="#ffffff" stroke="transparent" points="160.5,-299.2 160.5,-318.2 317.5,-318.2 317.5,-299.2 160.5,-299.2"/>
<polygon fill="none" stroke="#000000" points="160.5,-299.2 160.5,-318.2 317.5,-318.2 317.5,-299.2 160.5,-299.2"/>
<polygon fill="#ffffff" stroke="transparent" points="161.5,-300.2 161.5,-317.2 219.5,-317.2 219.5,-300.2 161.5,-300.2"/>
<text text-anchor="start" x="163.5" y="-305.3" font-family="Helvetica,sans-Serif" font-size="11.00" fill="#000000">&lt; 1</text>
<polygon fill="#ffffff" stroke="transparent" points="219.5,-300.2 219.5,-317.2 268.5,-317.2 268.5,-300.2 219.5,-300.2"/>
<text text-anchor="start" x="240.9431" y="-305.3" font-family="Helvetica,sans-Serif" font-size="11.00" fill="#000000"> &#160;</text>
<polygon fill="#ffffff" stroke="transparent" points="268.5,-300.2 268.5,-317.2 316.5,-317.2 316.5,-300.2 268.5,-300.2"/>
<text text-anchor="start" x="308.3862" y="-305.3" font-family="Helvetica,sans-Serif" font-size="11.00" fill="#000000"> &#160;</text>
<polygon fill="#000000" stroke="#000000" points="219.5,-300.2 219.5,-317.2 219.5,-317.2 219.5,-300.2 219.5,-300.2"/>
<polygon fill="#000000" stroke="#000000" points="268.5,-300.2 268.5,-317.2 268.5,-317.2 268.5,-300.2 268.5,-300.2"/>
</a>
</g>
</g>
<!-- oauth_identities&#45;&gt;users -->
<g id="edge3" class="edge">
<title>oauth_identities:w&#45;&gt;users:e</title>
<path fill="none" stroke="#000000" d="M145.9909,-417.2C134.6774,-417.2 127.4931,-417.2 111.5,-417.2"/>
<polygon fill="#000000" stroke="#000000" points="152.5,-417.2001 160.5,-420.8 156.5,-417.2 160.5,-417.2 160.5,-417.2 160.5,-417.2 156.5,-417.2 160.5,-413.6 152.5,-417.2001 152.5,-417.2001"/>
<ellipse fill="none" stroke="#000000" cx="149.3" cy="-417.2001" rx="3.2" ry="3.2"/>
</g>
<!-- user_sessions -->
<g id="node8" class="node">
<title>user_sessions</title>
<g id="a_node8"><a xlink:href="../../tables/user_sessions.html" xlink:title="user_sessions" target="_top">
<polygon fill="#ffffff" stroke="transparent" points="168.5,-38.2 168.5,-278.2 308.5,-278.2 308.5,-38.2 168.5,-38.2"/>
<polygon fill="#f5f5f5" stroke="transparent" points="168.5,-255.2 168.5,-278.2 308.5,-278.2 308.5,-255.2 168.5,-255.2"/>
<polygon fill="none" stroke="#000000" points="168.5,-255.2 168.5,-278.2 308.5,-278.2 308.5,-255.2 168.5,-255.2"/>
<text text-anchor="start" x="173.5" y="-263.8" font-family="Helvetica,sans-Serif" font-weight="bold" font-size="11.00" fill="#000000">user_sessions</text>
<text text-anchor="start" x="274.0219" y="-263.3" font-family="Helvetica,sans-Serif" font-size="11.00" fill="#000000">[table]</text>
<polygon fill="none" stroke="#000000" points="168.5,-233.2 168.5,-255.2 308.5,-255.2 308.5,-233.2 168.5,-233.2"/>
<image xlink:href="../../images/primaryKeys.png" width="11px" height="12px" preserveAspectRatio="xMinYMin meet" x="173.5" y="-250.2"/>
<text text-anchor="start" x="197.5" y="-240.3" font-family="Helvetica,sans-Serif" font-size="11.00" fill="#000000">id</text>
<polygon fill="#ffffff" stroke="transparent" points="168.5,-211.2 168.5,-233.2 308.5,-233.2 308.5,-211.2 168.5,-211.2"/>
<polygon fill="none" stroke="#000000" points="168.5,-211.2 168.5,-233.2 308.5,-233.2 308.5,-211.2 168.5,-211.2"/>
<image xlink:href="../../images/foreignKeys.png" width="11px" height="12px" preserveAspectRatio="xMinYMin meet" x="173.5" y="-228.2"/>
<text text-anchor="start" x="197.5" y="-218.3" font-family="Helvetica,sans-Serif" font-size="11.00" fill="#000000">user_id</text>
<polygon fill="#ffffff" stroke="transparent" points="168.5,-189.2 168.5,-211.2 308.5,-211.2 308.5,-189.2 168.5,-189.2"/>
<polygon fill="none" stroke="#000000" points="168.5,-189.2 168.5,-211.2 308.5,-211.2 308.5,-189.2 168.5,-189.2"/>
<text text-anchor="start" x="197.5" y="-196.3" font-family="Helvetica,sans-Serif" font-size="11.00" fill="#000000">token_hash</text>
<polygon fill="none" stroke="#000000" points="168.5,-167.2 168.5,-189.2 308.5,-189.2 308.5,-167.2 168.5,-167.2"/>
<text text-anchor="start" x="197.5" y="-174.3" font-family="Helvetica,sans-Serif" font-size="11.00" fill="#000000">created_at</text>
<polygon fill="#ffffff" stroke="transparent" points="168.5,-145.2 168.5,-167.2 308.5,-167.2 308.5,-145.2 168.5,-145.2"/>
<polygon fill="none" stroke="#000000" points="168.5,-145.2 168.5,-167.2 308.5,-167.2 308.5,-145.2 168.5,-145.2"/>
<text text-anchor="start" x="197.5" y="-152.3" font-family="Helvetica,sans-Serif" font-size="11.00" fill="#000000">expires_at</text>
<polygon fill="none" stroke="#000000" points="168.5,-123.2 168.5,-145.2 308.5,-145.2 308.5,-123.2 168.5,-123.2"/>
<text text-anchor="start" x="197.5" y="-130.3" font-family="Helvetica,sans-Serif" font-size="11.00" fill="#000000">last_seen_at</text>
<polygon fill="none" stroke="#000000" points="168.5,-101.2 168.5,-123.2 308.5,-123.2 308.5,-101.2 168.5,-101.2"/>
<text text-anchor="start" x="197.5" y="-108.3" font-family="Helvetica,sans-Serif" font-size="11.00" fill="#000000">revoked_at</text>
<polygon fill="none" stroke="#000000" points="168.5,-79.2 168.5,-101.2 308.5,-101.2 308.5,-79.2 168.5,-79.2"/>
<text text-anchor="start" x="197.5" y="-86.3" font-family="Helvetica,sans-Serif" font-size="11.00" fill="#000000">user_agent</text>
<polygon fill="none" stroke="#000000" points="168.5,-57.2 168.5,-79.2 308.5,-79.2 308.5,-57.2 168.5,-57.2"/>
<text text-anchor="start" x="197.5" y="-64.3" font-family="Helvetica,sans-Serif" font-size="11.00" fill="#000000">ip_address</text>
<polygon fill="#ffffff" stroke="transparent" points="168.5,-38.2 168.5,-57.2 308.5,-57.2 308.5,-38.2 168.5,-38.2"/>
<polygon fill="none" stroke="#000000" points="168.5,-38.2 168.5,-57.2 308.5,-57.2 308.5,-38.2 168.5,-38.2"/>
<polygon fill="#ffffff" stroke="transparent" points="169.5,-39.2 169.5,-56.2 221.5,-56.2 221.5,-39.2 169.5,-39.2"/>
<text text-anchor="start" x="171.5" y="-44.3" font-family="Helvetica,sans-Serif" font-size="11.00" fill="#000000">&lt; 1</text>
<polygon fill="#ffffff" stroke="transparent" points="221.5,-39.2 221.5,-56.2 264.5,-56.2 264.5,-39.2 221.5,-39.2"/>
<text text-anchor="start" x="239.9431" y="-44.3" font-family="Helvetica,sans-Serif" font-size="11.00" fill="#000000"> &#160;</text>
<polygon fill="#ffffff" stroke="transparent" points="264.5,-39.2 264.5,-56.2 307.5,-56.2 307.5,-39.2 264.5,-39.2"/>
<text text-anchor="start" x="299.3862" y="-44.3" font-family="Helvetica,sans-Serif" font-size="11.00" fill="#000000"> &#160;</text>
<polygon fill="#000000" stroke="#000000" points="221.5,-39.2 221.5,-56.2 221.5,-56.2 221.5,-39.2 221.5,-39.2"/>
<polygon fill="#000000" stroke="#000000" points="264.5,-39.2 264.5,-56.2 264.5,-56.2 264.5,-39.2 264.5,-39.2"/>
</a>
</g>
</g>
<!-- user_sessions&#45;&gt;users -->
<g id="edge6" class="edge">
<title>user_sessions:w&#45;&gt;users:e</title>
<path fill="none" stroke="#000000" d="M153.972,-224.3899C92.8195,-245.8133 196.15,-417.2 111.5,-417.2"/>
<polygon fill="#000000" stroke="#000000" points="160.5894,-223.3925 169.0366,-225.7598 164.5447,-222.7962 168.5,-222.2 168.5,-222.2 168.5,-222.2 164.5447,-222.7962 167.9634,-218.6402 160.5894,-223.3925 160.5894,-223.3925"/>
<ellipse fill="none" stroke="#000000" cx="157.4251" cy="-223.8695" rx="3.2" ry="3.2"/>
</g>
</g>
</svg>
