<?xml version="1.0" encoding="UTF-8" standalone="no"?>
<!DOCTYPE svg PUBLIC "-//W3C//DTD SVG 1.1//EN"
 "http://www.w3.org/Graphics/SVG/1.1/DTD/svg11.dtd">
<!-- Generated by graphviz version 2.40.1 (20161225.0304)
 -->
<!-- Title: largeRelationshipsDiagram Pages: 1 -->
<svg width="864pt" height="969pt"
 viewBox="0.00 0.00 864.00 969.20" xmlns="http://www.w3.org/2000/svg" xmlns:xlink="http://www.w3.org/1999/xlink">
<g id="graph0" class="graph" transform="scale(1 1) rotate(0) translate(4 965.2)">
<title>largeRelationshipsDiagram</title>
<polygon fill="#ffffff" stroke="transparent" points="-4,4 -4,-965.2 860,-965.2 860,4 -4,4"/>
<text text-anchor="middle" x="72.4936" y="-7.3" font-family="Helvetica,sans-Serif" font-size="11.00" fill="#000000">Generated by SchemaSpy</text>
<!-- topics -->
<g id="node1" class="node">
<title>topics</title>
<g id="a_node1"><a xlink:href="../../tables/topics.html" xlink:title="topics" target="_top">
<polygon fill="#ffffff" stroke="transparent" points="406,-808.2 406,-938.2 515,-938.2 515,-808.2 406,-808.2"/>
<polygon fill="#f5f5f5" stroke="transparent" points="406.5,-915.2 406.5,-938.2 515.5,-938.2 515.5,-915.2 406.5,-915.2"/>
<polygon fill="none" stroke="#000000" points="406.5,-915.2 406.5,-938.2 515.5,-938.2 515.5,-915.2 406.5,-915.2"/>
<text text-anchor="start" x="411.5" y="-923.8" font-family="Helvetica,sans-Serif" font-weight="bold" font-size="11.00" fill="#000000">topics</text>
<text text-anchor="start" x="480.5437" y="-923.3" font-family="Helvetica,sans-Serif" font-size="11.00" fill="#000000">[table]</text>
<polygon fill="none" stroke="#000000" points="406.5,-893.2 406.5,-915.2 515.5,-915.2 515.5,-893.2 406.5,-893.2"/>
<image xlink:href="../../images/primaryKeys.png" width="11px" height="12px" preserveAspectRatio="xMinYMin meet" x="411.5" y="-910.2"/>
<text text-anchor="start" x="426.5" y="-900.3" font-family="Helvetica,sans-Serif" font-size="11.00" fill="#000000">id</text>
<polygon fill="#ffffff" stroke="transparent" points="406.5,-871.2 406.5,-893.2 515.5,-893.2 515.5,-871.2 406.5,-871.2"/>
<polygon fill="none" stroke="#000000" points="406.5,-871.2 406.5,-893.2 515.5,-893.2 515.5,-871.2 406.5,-871.2"/>
<image xlink:href="../../images/foreignKeys.png" width="11px" height="12px" preserveAspectRatio="xMinYMin meet" x="411.5" y="-888.2"/>
<text text-anchor="start" x="426.5" y="-878.3" font-family="Helvetica,sans-Serif" font-size="11.00" fill="#000000">summary_id</text>
<polygon fill="none" stroke="#000000" points="406.5,-849.2 406.5,-871.2 515.5,-871.2 515.5,-849.2 406.5,-849.2"/>
<text text-anchor="start" x="426.5" y="-856.3" font-family="Helvetica,sans-Serif" font-size="11.00" fill="#000000">title</text>
<polygon fill="none" stroke="#000000" points="406.5,-827.2 406.5,-849.2 515.5,-849.2 515.5,-827.2 406.5,-827.2"/>
<text text-anchor="start" x="426.5" y="-834.3" font-family="Helvetica,sans-Serif" font-size="11.00" fill="#000000">summary</text>
<polygon fill="#ffffff" stroke="transparent" points="406.5,-808.2 406.5,-827.2 515.5,-827.2 515.5,-808.2 406.5,-808.2"/>
<polygon fill="none" stroke="#000000" points="406.5,-808.2 406.5,-827.2 515.5,-827.2 515.5,-808.2 406.5,-808.2"/>
<polygon fill="#ffffff" stroke="transparent" points="407.5,-809.2 407.5,-826.2 449.5,-826.2 449.5,-809.2 407.5,-809.2"/>
<text text-anchor="start" x="409.5" y="-814.3" font-family="Helvetica,sans-Serif" font-size="11.00" fill="#000000">&lt; 1</text>
<polygon fill="#ffffff" stroke="transparent" points="449.5,-809.2 449.5,-826.2 482.5,-826.2 482.5,-809.2 449.5,-809.2"/>
<text text-anchor="start" x="462.9431" y="-814.3" font-family="Helvetica,sans-Serif" font-size="11.00" fill="#000000"> &#160;</text>
<polygon fill="#ffffff" stroke="transparent" points="482.5,-809.2 482.5,-826.2 514.5,-826.2 514.5,-809.2 482.5,-809.2"/>
<text text-anchor="start" x="506.3862" y="-814.3" font-family="Helvetica,sans-Serif" font-size="11.00" fill="#000000"> &#160;</text>
<polygon fill="#000000" stroke="#000000" points="449.5,-809.2 449.5,-826.2 449.5,-826.2 449.5,-809.2 449.5,-809.2"/>
<polygon fill="#000000" stroke="#000000" points="482.5,-809.2 482.5,-826.2 482.5,-826.2 482.5,-809.2 482.5,-809.2"/>
</a>
</g>
</g>
<!-- summaries -->
<g id="node3" class="node">
<title>summaries</title>
<g id="a_node3"><a xlink:href="../../tables/summaries.html" xlink:title="summaries" target="_top">
<polygon fill="#ffffff" stroke="transparent" points="166,-494.2 166,-690.2 311,-690.2 311,-494.2 166,-494.2"/>
<polygon fill="#f5f5f5" stroke="transparent" points="166.5,-667.2 166.5,-690.2 311.5,-690.2 311.5,-667.2 166.5,-667.2"/>
<polygon fill="none" stroke="#000000" points="166.5,-667.2 166.5,-690.2 311.5,-690.2 311.5,-667.2 166.5,-667.2"/>
<text text-anchor="start" x="171.5" y="-675.8" font-family="Helvetica,sans-Serif" font-weight="bold" font-size="11.00" fill="#000000">summaries</text>
<text text-anchor="start" x="276.5437" y="-675.3" font-family="Helvetica,sans-Serif" font-size="11.00" fill="#000000">[table]</text>
<polygon fill="none" stroke="#000000" points="166.5,-645.2 166.5,-667.2 311.5,-667.2 311.5,-645.2 166.5,-645.2"/>
<image xlink:href="../../images/primaryKeys.png" width="11px" height="12px" preserveAspectRatio="xMinYMin meet" x="171.5" y="-662.2"/>
<text text-anchor="start" x="186.5" y="-652.3" font-family="Helvetica,sans-Serif" font-size="11.00" fill="#000000">id</text>
<polygon fill="none" stroke="#000000" points="166.5,-623.2 166.5,-645.2 311.5,-645.2 311.5,-623.2 166.5,-623.2"/>
<text text-anchor="start" x="186.5" y="-630.3" font-family="Helvetica,sans-Serif" font-size="11.00" fill="#000000">filename</text>
<polygon fill="none" stroke="#000000" points="166.5,-601.2 166.5,-623.2 311.5,-623.2 311.5,-601.2 166.5,-601.2"/>
<text text-anchor="start" x="186.5" y="-608.3" font-family="Helvetica,sans-Serif" font-size="11.00" fill="#000000">created_at</text>
<polygon fill="none" stroke="#000000" points="166.5,-579.2 166.5,-601.2 311.5,-601.2 311.5,-579.2 166.5,-579.2"/>
<text text-anchor="start" x="186.5" y="-586.3" font-family="Helvetica,sans-Serif" font-size="11.00" fill="#000000">overall_summary</text>
<polygon fill="#ffffff" stroke="transparent" points="166.5,-557.2 166.5,-579.2 311.5,-579.2 311.5,-557.2 166.5,-557.2"/>
<polygon fill="none" stroke="#000000" points="166.5,-557.2 166.5,-579.2 311.5,-579.2 311.5,-557.2 166.5,-557.2"/>
<text text-anchor="start" x="186.5" y="-564.3" font-family="Helvetica,sans-Serif" font-size="11.00" fill="#000000">content_hash</text>
<polygon fill="#ffffff" stroke="transparent" points="166.5,-535.2 166.5,-557.2 311.5,-557.2 311.5,-535.2 166.5,-535.2"/>
<polygon fill="none" stroke="#000000" points="166.5,-535.2 166.5,-557.2 311.5,-557.2 311.5,-535.2 166.5,-535.2"/>
<image xlink:href="../../images/foreignKeys.png" width="11px" height="12px" preserveAspectRatio="xMinYMin meet" x="171.5" y="-552.2"/>
<text text-anchor="start" x="186.5" y="-542.3" font-family="Helvetica,sans-Serif" font-size="11.00" fill="#000000">user_id</text>
<polygon fill="none" stroke="#000000" points="166.5,-513.2 166.5,-535.2 311.5,-535.2 311.5,-513.2 166.5,-513.2"/>
<text text-anchor="start" x="186.5" y="-520.3" font-family="Helvetica,sans-Serif" font-size="11.00" fill="#000000">deleted_at</text>
<polygon fill="#ffffff" stroke="transparent" points="166.5,-494.2 166.5,-513.2 311.5,-513.2 311.5,-494.2 166.5,-494.2"/>
<polygon fill="none" stroke="#000000" points="166.5,-494.2 166.5,-513.2 311.5,-513.2 311.5,-494.2 166.5,-494.2"/>
<polygon fill="#ffffff" stroke="transparent" points="167.5,-495.2 167.5,-512.2 218.5,-512.2 218.5,-495.2 167.5,-495.2"/>
<text text-anchor="start" x="169.5" y="-500.3" font-family="Helvetica,sans-Serif" font-size="11.00" fill="#000000">&lt; 1</text>
<polygon fill="#ffffff" stroke="transparent" points="218.5,-495.2 218.5,-512.2 260.5,-512.2 260.5,-495.2 218.5,-495.2"/>
<text text-anchor="start" x="236.4431" y="-500.3" font-family="Helvetica,sans-Serif" font-size="11.00" fill="#000000"> &#160;</text>
<polygon fill="#ffffff" stroke="transparent" points="260.5,-495.2 260.5,-512.2 310.5,-512.2 310.5,-495.2 260.5,-495.2"/>
<text text-anchor="start" x="292.9053" y="-500.3" font-family="Helvetica,sans-Serif" font-size="11.00" fill="#000000">4 &gt;</text>
<polygon fill="#000000" stroke="#000000" points="218.5,-495.2 218.5,-512.2 218.5,-512.2 218.5,-495.2 218.5,-495.2"/>
<polygon fill="#000000" stroke="#000000" points="260.5,-495.2 260.5,-512.2 260.5,-512.2 260.5,-495.2 260.5,-495.2"/>
</a>
</g>
</g>
<!-- topics&#45;&gt;summaries -->
<g id="edge5" class="edge">
<title>topics:w&#45;&gt;summaries:e</title>
<path fill="none" stroke="#000000" d="M392.0506,-879.9548C366.1033,-870.4361 373.2451,-832.3342 358,-798.2 330.9187,-737.564 377.9088,-656.2 311.5,-656.2"/>
<polygon fill="#000000" stroke="#000000" points="398.5949,-880.9716 405.9472,-885.7573 402.5474,-881.5858 406.5,-882.2 406.5,-882.2 406.5,-882.2 402.5474,-881.5858 407.0528,-878.6427 398.5949,-880.9716 398.5949,-880.9716"/>
<ellipse fill="none" stroke="#000000" cx="395.4328" cy="-880.4803" rx="3.2" ry="3.2"/>
</g>
<!-- decisions -->
<g id="node2" class="node">
<title>decisions</title>
<g id="a_node2"><a xlink:href="../../tables/decisions.html" xlink:title="decisions" target="_top">
<polygon fill="#ffffff" stroke="transparent" points="406,-657.2 406,-787.2 515,-787.2 515,-657.2 406,-657.2"/>
<polygon fill="#f5f5f5" stroke="transparent" points="406.5,-764.2 406.5,-787.2 515.5,-787.2 515.5,-764.2 406.5,-764.2"/>
<polygon fill="none" stroke="#000000" points="406.5,-764.2 406.5,-787.2 515.5,-787.2 515.5,-764.2 406.5,-764.2"/>
<text text-anchor="start" x="411.5" y="-772.8" font-family="Helvetica,sans-Serif" font-weight="bold" font-size="11.00" fill="#000000">decisions</text>
<text text-anchor="start" x="480.5437" y="-772.3" font-family="Helvetica,sans-Serif" font-size="11.00" fill="#000000">[table]</text>
<polygon fill="none" stroke="#000000" points="406.5,-742.2 406.5,-764.2 515.5,-764.2 515.5,-742.2 406.5,-742.2"/>
<image xlink:href="../../images/primaryKeys.png" width="11px" height="12px" preserveAspectRatio="xMinYMin meet" x="411.5" y="-759.2"/>
<text text-anchor="start" x="426.5" y="-749.3" font-family="Helvetica,sans-Serif" font-size="11.00" fill="#000000">id</text>
<polygon fill="#ffffff" stroke="transparent" points="406.5,-720.2 406.5,-742.2 515.5,-742.2 515.5,-720.2 406.5,-720.2"/>
<polygon fill="none" stroke="#000000" points="406.5,-720.2 406.5,-742.2 515.5,-742.2 515.5,-720.2 406.5,-720.2"/>
<image xlink:href="../../images/foreignKeys.png" width="11px" height="12px" preserveAspectRatio="xMinYMin meet" x="411.5" y="-737.2"/>
<text text-anchor="start" x="426.5" y="-727.3" font-family="Helvetica,sans-Serif" font-size="11.00" fill="#000000">summary_id</text>
<polygon fill="none" stroke="#000000" points="406.5,-698.2 406.5,-720.2 515.5,-720.2 515.5,-698.2 406.5,-698.2"/>
<text text-anchor="start" x="426.5" y="-705.3" font-family="Helvetica,sans-Serif" font-size="11.00" fill="#000000">description</text>
<polygon fill="none" stroke="#000000" points="406.5,-676.2 406.5,-698.2 515.5,-698.2 515.5,-676.2 406.5,-676.2"/>
<text text-anchor="start" x="426.5" y="-683.3" font-family="Helvetica,sans-Serif" font-size="11.00" fill="#000000">decided_by</text>
<polygon fill="#ffffff" stroke="transparent" points="406.5,-657.2 406.5,-676.2 515.5,-676.2 515.5,-657.2 406.5,-657.2"/>
<polygon fill="none" stroke="#000000" points="406.5,-657.2 406.5,-676.2 515.5,-676.2 515.5,-657.2 406.5,-657.2"/>
<polygon fill="#ffffff" stroke="transparent" points="407.5,-658.2 407.5,-675.2 449.5,-675.2 449.5,-658.2 407.5,-658.2"/>
<text text-anchor="start" x="409.5" y="-663.3" font-family="Helvetica,sans-Serif" font-size="11.00" fill="#000000">&lt; 1</text>
<polygon fill="#ffffff" stroke="transparent" points="449.5,-658.2 449.5,-675.2 482.5,-675.2 482.5,-658.2 449.5,-658.2"/>
<text text-anchor="start" x="462.9431" y="-663.3" font-family="Helvetica,sans-Serif" font-size="11.00" fill="#000000"> &#160;</text>
<polygon fill="#ffffff" stroke="transparent" points="482.5,-658.2 482.5,-675.2 514.5,-675.2 514.5,-658.2 482.5,-658.2"/>
<text text-anchor="start" x="506.3862" y="-663.3" font-family="Helvetica,sans-Serif" font-size="11.00" fill="#000000"> &#160;</text>
<polygon fill="#000000" stroke="#000000" points="449.5,-658.2 449.5,-675.2 449.5,-675.2 449.5,-658.2 449.5,-658.2"/>
<polygon fill="#000000" stroke="#000000" points="482.5,-658.2 482.5,-675.2 482.5,-675.2 482.5,-658.2 482.5,-658.2"/>
</a>
</g>
</g>
<!-- decisions&#45;&gt;summaries -->
<g id="edge2" class="edge">
<title>decisions:w&#45;&gt;summaries:e</title>
<path fill="none" stroke="#000000" d="M392.0247,-729.0363C354.578,-716.7392 359.8308,-656.2 311.5,-656.2"/>
<polygon fill="#000000" stroke="#000000" points="398.5879,-730.0173 405.9678,-734.7604 402.544,-730.6086 406.5,-731.2 406.5,-731.2 406.5,-731.2 402.544,-730.6086 407.0322,-727.6396 398.5879,-730.0173 398.5879,-730.0173"/>
<ellipse fill="none" stroke="#000000" cx="395.4231" cy="-729.5442" rx="3.2" ry="3.2"/>
</g>
<!-- users -->
<g id="node7" class="node">
<title>users</title>
<g id="a_node7"><a xlink:href="../../tables/users.html" xlink:title="users" target="_top">
<polygon fill="#ffffff" stroke="transparent" points="8,-255.2 8,-451.2 111,-451.2 111,-255.2 8,-255.2"/>
<polygon fill="#f5f5f5" stroke="transparent" points="8.5,-428.2 8.5,-451.2 111.5,-451.2 111.5,-428.2 8.5,-428.2"/>
<polygon fill="none" stroke="#000000" points="8.5,-428.2 8.5,-451.2 111.5,-451.2 111.5,-428.2 8.5,-428.2"/>
<text text-anchor="start" x="13.5" y="-436.8" font-family="Helvetica,sans-Serif" font-weight="bold" font-size="11.00" fill="#000000">users</text>
<text text-anchor="start" x="76.5437" y="-436.3" font-family="Helvetica,sans-Serif" font-size="11.00" fill="#000000">[table]</text>
<polygon fill="none" stroke="#000000" points="8.5,-406.2 8.5,-428.2 111.5,-428.2 111.5,-406.2 8.5,-406.2"/>
<image xlink:href="../../images/primaryKeys.png" width="11px" height="12px" preserveAspectRatio="xMinYMin meet" x="13.5" y="-423.2"/>
<text text-anchor="start" x="28.5" y="-413.3" font-family="Helvetica,sans-Serif" font-size="11.00" fill="#000000">id</text>
<polygon fill="none" stroke="#000000" points="8.5,-384.2 8.5,-406.2 111.5,-406.2 111.5,-384.2 8.5,-384.2"/>
<text text-anchor="start" x="28.5" y="-391.3" font-family="Helvetica,sans-Serif" font-size="11.00" fill="#000000">email</text>
<polygon fill="none" stroke="#000000" points="8.5,-362.2 8.5,-384.2 111.5,-384.2 111.5,-362.2 8.5,-362.2"/>
<text text-anchor="start" x="28.5" y="-369.3" font-family="Helvetica,sans-Serif" font-size="11.00" fill="#000000">name</text>
<polygon fill="none" stroke="#000000" points="8.5,-340.2 8.5,-362.2 111.5,-362.2 111.5,-340.2 8.5,-340.2"/>
<text text-anchor="start" x="28.5" y="-347.3" font-family="Helvetica,sans-Serif" font-size="11.00" fill="#000000">created_at</text>
<polygon fill="none" stroke="#000000" points="8.5,-318.2 8.5,-340.2 111.5,-340.2 111.5,-318.2 8.5,-318.2"/>
<text text-anchor="start" x="28.5" y="-325.3" font-family="Helvetica,sans-Serif" font-size="11.00" fill="#000000">updated_at</text>
<polygon fill="none" stroke="#000000" points="8.5,-296.2 8.5,-318.2 111.5,-318.2 111.5,-296.2 8.5,-296.2"/>
<text text-anchor="start" x="28.5" y="-303.3" font-family="Helvetica,sans-Serif" font-size="11.00" fill="#000000">role</text>
<polygon fill="none" stroke="#000000" points="8.5,-274.2 8.5,-296.2 111.5,-296.2 111.5,-274.2 8.5,-274.2"/>
<text text-anchor="start" x="28.5" y="-281.3" font-family="Helvetica,sans-Serif" font-size="11.00" fill="#000000">status</text>
<polygon fill="#ffffff" stroke="transparent" points="8.5,-255.2 8.5,-274.2 111.5,-274.2 111.5,-255.2 8.5,-255.2"/>
<polygon fill="none" stroke="#000000" points="8.5,-255.2 8.5,-274.2 111.5,-274.2 111.5,-255.2 8.5,-255.2"/>
<polygon fill="#ffffff" stroke="transparent" points="9.5,-256.2 9.5,-273.2 40.5,-273.2 40.5,-256.2 9.5,-256.2"/>
<text text-anchor="start" x="11.5" y="-261.3" font-family="Helvetica,sans-Serif" font-size="11.00" fill="#000000"> &#160;</text>
<polygon fill="#ffffff" stroke="transparent" points="40.5,-256.2 40.5,-273.2 71.5,-273.2 71.5,-256.2 40.5,-256.2"/>
<text text-anchor="start" x="52.9431" y="-261.3" font-family="Helvetica,sans-Serif" font-size="11.00" fill="#000000"> &#160;</text>
<polygon fill="#ffffff" stroke="transparent" points="71.5,-256.2 71.5,-273.2 110.5,-273.2 110.5,-256.2 71.5,-256.2"/>
<text text-anchor="start" x="92.9053" y="-261.3" font-family="Helvetica,sans-Serif" font-size="11.00" fill="#000000">3 &gt;</text>
<polygon fill="#000000" stroke="#000000" points="40.5,-256.2 40.5,-273.2 40.5,-273.2 40.5,-256.2 40.5,-256.2"/>
<polygon fill="#000000" stroke="#000000" points="71.5,-256.2 71.5,-273.2 71.5,-273.2 71.5,-256.2 71.5,-256.2"/>
</a>
</g>
</g>
<!-- summaries&#45;&gt;users -->
<g id="edge4" class="edge">
<title>summaries:w&#45;&gt;users:e</title>
<path fill="none" stroke="#000000" d="M152.233,-543.0112C116.0732,-523.1463 167.9837,-417.2 111.5,-417.2"/>
<polygon fill="#000000" stroke="#000000" points="158.6926,-544.4549 165.7147,-549.7133 162.5963,-545.3275 166.5,-546.2 166.5,-546.2 166.5,-546.2 162.5963,-545.3275 167.2853,-542.6867 158.6926,-544.4549 158.6926,-544.4549"/>
<ellipse fill="none" stroke="#000000" cx="155.5697" cy="-543.7569" rx="3.2" ry="3.2"/>
</g>
<!-- transcript_segments -->
<g id="node4" class="node">
<title>transcript_segments</title>
<g id="a_node4"><a xlink:href="../../tables/transcript_segments.html" xlink:title="transcript_segments" target="_top">
<polygon fill="#ffffff" stroke="transparent" points="366,-462.2 366,-636.2 555,-636.2 555,-462.2 366,-462.2"/>
<polygon fill="#f5f5f5" stroke="transparent" points="366.5,-613.2 366.5,-636.2 555.5,-636.2 555.5,-613.2 366.5,-613.2"/>
<polygon fill="none" stroke="#000000" points="366.5,-613.2 366.5,-636.2 555.5,-636.2 555.5,-613.2 366.5,-613.2"/>
<text text-anchor="start" x="371.5" y="-621.8" font-family="Helvetica,sans-Serif" font-weight="bold" font-size="11.00" fill="#000000">transcript_segments</text>
<text text-anchor="start" x="521.0219" y="-621.3" font-family="Helvetica,sans-Serif" font-size="11.00" fill="#000000">[table]</text>
<polygon fill="none" stroke="#000000" points="366.5,-591.2 366.5,-613.2 555.5,-613.2 555.5,-591.2 366.5,-591.2"/>
<image xlink:href="../../images/primaryKeys.png" width="11px" height="12px" preserveAspectRatio="xMinYMin meet" x="371.5" y="-608.2"/>
<text text-anchor="start" x="395.5" y="-598.3" font-family="Helvetica,sans-Serif" font-size="11.00" fill="#000000">id</text>
<polygon fill="#ffffff" stroke="transparent" points="366.5,-569.2 366.5,-591.2 555.5,-591.2 555.5,-569.2 366.5,-569.2"/>
<polygon fill="none" stroke="#000000" points="366.5,-569.2 366.5,-591.2 555.5,-591.2 555.5,-569.2 366.5,-569.2"/>
<image xlink:href="../../images/foreignKeys.png" width="11px" height="12px" preserveAspectRatio="xMinYMin meet" x="371.5" y="-586.2"/>
<text text-anchor="start" x="395.5" y="-576.3" font-family="Helvetica,sans-Serif" font-size="11.00" fill="#000000">summary_id</text>
<polygon fill="none" stroke="#000000" points="366.5,-547.2 366.5,-569.2 555.5,-569.2 555.5,-547.2 366.5,-547.2"/>
<text text-anchor="start" x="395.5" y="-554.3" font-family="Helvetica,sans-Serif" font-size="11.00" fill="#000000">speaker_label</text>
<polygon fill="none" stroke="#000000" points="366.5,-525.2 366.5,-547.2 555.5,-547.2 555.5,-525.2 366.5,-525.2"/>
<text text-anchor="start" x="395.5" y="-532.3" font-family="Helvetica,sans-Serif" font-size="11.00" fill="#000000">start_ms</text>
<polygon fill="none" stroke="#000000" points="366.5,-503.2 366.5,-525.2 555.5,-525.2 555.5,-503.2 366.5,-503.2"/>
<text text-anchor="start" x="395.5" y="-510.3" font-family="Helvetica,sans-Serif" font-size="11.00" fill="#000000">end_ms</text>
<polygon fill="none" stroke="#000000" points="366.5,-481.2 366.5,-503.2 555.5,-503.2 555.5,-481.2 366.5,-481.2"/>
<text text-anchor="start" x="395.5" y="-488.3" font-family="Helvetica,sans-Serif" font-size="11.00" fill="#000000">text</text>
<polygon fill="#ffffff" stroke="transparent" points="366.5,-462.2 366.5,-481.2 555.5,-481.2 555.5,-462.2 366.5,-462.2"/>
<polygon fill="none" stroke="#000000" points="366.5,-462.2 366.5,-481.2 555.5,-481.2 555.5,-462.2 366.5,-462.2"/>
<polygon fill="#ffffff" stroke="transparent" points="367.5,-463.2 367.5,-480.2 436.5,-480.2 436.5,-463.2 367.5,-463.2"/>
<text text-anchor="start" x="369.5" y="-468.3" font-family="Helvetica,sans-Serif" font-size="11.00" fill="#000000">&lt; 1</text>
<polygon fill="#ffffff" stroke="transparent" points="436.5,-463.2 436.5,-480.2 495.5,-480.2 495.5,-463.2 436.5,-463.2"/>
<text text-anchor="start" x="462.9431" y="-468.3" font-family="Helvetica,sans-Serif" font-size="11.00" fill="#000000"> &#160;</text>
<polygon fill="#ffffff" stroke="transparent" points="495.5,-463.2 495.5,-480.2 554.5,-480.2 554.5,-463.2 495.5,-463.2"/>
<text text-anchor="start" x="546.3862" y="-468.3" font-family="Helvetica,sans-Serif" font-size="11.00" fill="#000000"> &#160;</text>
<polygon fill="#000000" stroke="#000000" points="436.5,-463.2 436.5,-480.2 436.5,-480.2 436.5,-463.2 436.5,-463.2"/>
<polygon fill="#000000" stroke="#000000" points="495.5,-463.2 495.5,-480.2 495.5,-480.2 495.5,-463.2 495.5,-463.2"/>
</a>
</g>
</g>
<!-- transcript_segments&#45;&gt;summaries -->
<g id="edge6" class="edge">
<title>transcript_segments:w&#45;&gt;summaries:e</title>
<path fill="none" stroke="#000000" d="M352.678,-584.2861C331.4038,-600.0721 347.3316,-656.2 311.5,-656.2"/>
<polygon fill="#000000" stroke="#000000" points="358.8282,-582.468 367.5206,-583.6523 362.6641,-581.334 366.5,-580.2 366.5,-580.2 366.5,-580.2 362.6641,-581.334 365.4794,-576.7477 358.8282,-582.468 358.8282,-582.468"/>
<ellipse fill="none" stroke="#000000" cx="355.7595" cy="-583.3752" rx="3.2" ry="3.2"/>
</g>
<!-- action_items -->
<g id="node5" class="node">
<title>action_items</title>
<g id="a_node5"><a xlink:href="../../tables/action_items.html" xlink:title="action_items" target="_top">
<polygon fill="#ffffff" stroke="transparent" points="395,-289.2 395,-441.2 526,-441.2 526,-289.2 395,-289.2"/>
<polygon fill="#f5f5f5" stroke="transparent" points="395.5,-418.2 395.5,-441.2 526.5,-441.2 526.5,-418.2 395.5,-418.2"/>
<polygon fill="none" stroke="#000000" points="395.5,-418.2 395.5,-441.2 526.5,-441.2 526.5,-418.2 395.5,-418.2"/>
<text text-anchor="start" x="400.5" y="-426.8" font-family="Helvetica,sans-Serif" font-weight="bold" font-size="11.00" fill="#000000">action_items</text>
<text text-anchor="start" x="492.0219" y="-426.3" font-family="Helvetica,sans-Serif" font-size="11.00" fill="#000000">[table]</text>
<polygon fill="none" stroke="#000000" points="395.5,-396.2 395.5,-418.2 526.5,-418.2 526.5,-396.2 395.5,-396.2"/>
<image xlink:href="../../images/primaryKeys.png" width="11px" height="12px" preserveAspectRatio="xMinYMin meet" x="400.5" y="-413.2"/>
<text text-anchor="start" x="424.5" y="-403.3" font-family="Helvetica,sans-Serif" font-size="11.00" fill="#000000">id</text>
<polygon fill="#ffffff" stroke="transparent" points="395.5,-374.2 395.5,-396.2 526.5,-396.2 526.5,-374.2 395.5,-374.2"/>
<polygon fill="none" stroke="#000000" points="395.5,-374.2 395.5,-396.2 526.5,-396.2 526.5,-374.2 395.5,-374.2"/>
<image xlink:href="../../images/foreignKeys.png" width="11px" height="12px" preserveAspectRatio="xMinYMin meet" x="400.5" y="-391.2"/>
<text text-anchor="start" x="424.5" y="-381.3" font-family="Helvetica,sans-Serif" font-size="11.00" fill="#000000">summary_id</text>
<polygon fill="none" stroke="#000000" points="395.5,-352.2 395.5,-374.2 526.5,-374.2 526.5,-352.2 395.5,-352.2"/>
<text text-anchor="start" x="424.5" y="-359.3" font-family="Helvetica,sans-Serif" font-size="11.00" fill="#000000">description</text>
<polygon fill="none" stroke="#000000" points="395.5,-330.2 395.5,-352.2 526.5,-352.2 526.5,-330.2 395.5,-330.2"/>
<text text-anchor="start" x="424.5" y="-337.3" font-family="Helvetica,sans-Serif" font-size="11.00" fill="#000000">assignee</text>
<polygon fill="none" stroke="#000000" points="395.5,-308.2 395.5,-330.2 526.5,-330.2 526.5,-308.2 395.5,-308.2"/>
<text text-anchor="start" x="424.5" y="-315.3" font-family="Helvetica,sans-Serif" font-size="11.00" fill="#000000">due_date</text>
<polygon fill="#ffffff" stroke="transparent" points="395.5,-289.2 395.5,-308.2 526.5,-308.2 526.5,-289.2 395.5,-289.2"/>
<polygon fill="none" stroke="#000000" points="395.5,-289.2 395.5,-308.2 526.5,-308.2 526.5,-289.2 395.5,-289.2"/>
<polygon fill="#ffffff" stroke="transparent" points="396.5,-290.2 396.5,-307.2 445.5,-307.2 445.5,-290.2 396.5,-290.2"/>
<text text-anchor="start" x="398.5" y="-295.3" font-family="Helvetica,sans-Serif" font-size="11.00" fill="#000000">&lt; 1</text>
<polygon fill="#ffffff" stroke="transparent" points="445.5,-290.2 445.5,-307.2 485.5,-307.2 485.5,-290.2 445.5,-290.2"/>
<text text-anchor="start" x="462.4431" y="-295.3" font-family="Helvetica,sans-Serif" font-size="11.00" fill="#000000"> &#160;</text>
<polygon fill="#ffffff" stroke="transparent" points="485.5,-290.2 485.5,-307.2 525.5,-307.2 525.5,-290.2 485.5,-290.2"/>
<text text-anchor="start" x="517.3862" y="-295.3" font-family="Helvetica,sans-Serif" font-size="11.00" fill="#000000"> &#160;</text>
<polygon fill="#000000" stroke="#000000" points="445.5,-290.2 445.5,-307.2 445.5,-307.2 445.5,-290.2 445.5,-290.2"/>
<polygon fill="#000000" stroke="#000000" points="485.5,-290.2 485.5,-307.2 485.5,-307.2 485.5,-290.2 485.5,-290.2"/>
</a>
</g>
</g>
<!-- action_items&#45;&gt;summaries -->
<g id="edge1" class="edge">
<title>action_items:w&#45;&gt;summaries:e</title>
<path fill="none" stroke="#000000" d="M381.3896,-388.1199C363.8021,-397.1853 368.1449,-425.8242 358,-452.2 341.3083,-495.5967 357.9961,-656.2 311.5,-656.2"/>
<polygon fill="#000000" stroke="#000000" points="387.666,-386.8212 396.2295,-388.7253 391.583,-386.0106 395.5,-385.2 395.5,-385.2 395.5,-385.2 391.583,-386.0106 394.7705,-381.6747 387.666,-386.8212 387.666,-386.8212"/>
<ellipse fill="none" stroke="#000000" cx="384.5324" cy="-387.4696" rx="3.2" ry="3.2"/>
</g>
<!-- alembic_version -->
<g id="node6" class="node">
<title>alembic_version</title>
<g id="a_node6"><a xlink:href="../../tables/alembic_version.html" xlink:title="alembic_version" target="_top">
<polygon fill="#ffffff" stroke="transparent" points="692,-893.2 692,-957.2 848,-957.2 848,-893.2 692,-893.2"/>
<polygon fill="#f5f5f5" stroke="transparent" points="692,-934.2 692,-957.2 848,-957.2 848,-934.2 692,-934.2"/>
<polygon fill="none" stroke="#000000" points="692,-934.2 692,-957.2 848,-957.2 848,-934.2 692,-934.2"/>
<text text-anchor="start" x="697" y="-942.8" font-family="Helvetica,sans-Serif" font-weight="bold" font-size="11.00" fill="#000000">alembic_version</text>
<text text-anchor="start" x="813.5219" y="-942.3" font-family="Helvetica,sans-Serif" font-size="11.00" fill="#000000">[table]</text>
<polygon fill="none" stroke="#000000" points="692,-912.2 692,-934.2 848,-934.2 848,-912.2 692,-912.2"/>
<image xlink:href="../../images/primaryKeys.png" width="11px" height="12px" preserveAspectRatio="xMinYMin meet" x="697" y="-929.2"/>
<text text-anchor="start" x="721" y="-919.3" font-family="Helvetica,sans-Serif" font-size="11.00" fill="#000000">version_num</text>
<polygon fill="#ffffff" stroke="transparent" points="692,-893.2 692,-912.2 848,-912.2 848,-893.2 692,-893.2"/>
<polygon fill="none" stroke="#000000" points="692,-893.2 692,-912.2 848,-912.2 848,-893.2 692,-893.2"/>
<polygon fill="#ffffff" stroke="transparent" points="693,-894.2 693,-911.2 745,-911.2 745,-894.2 693,-894.2"/>
<text text-anchor="start" x="695" y="-899.3" font-family="Helvetica,sans-Serif" font-size="11.00" fill="#000000"> &#160;</text>
<polygon fill="#ffffff" stroke="transparent" points="745,-894.2 745,-911.2 796,-911.2 796,-894.2 745,-894.2"/>
<text text-anchor="start" x="767.4431" y="-899.3" font-family="Helvetica,sans-Serif" font-size="11.00" fill="#000000"> &#160;</text>
<polygon fill="#ffffff" stroke="transparent" points="796,-894.2 796,-911.2 847,-911.2 847,-894.2 796,-894.2"/>
<text text-anchor="start" x="838.8862" y="-899.3" font-family="Helvetica,sans-Serif" font-size="11.00" fill="#000000"> &#160;</text>
<polygon fill="#000000" stroke="#000000" points="745,-894.2 745,-911.2 745,-911.2 745,-894.2 745,-894.2"/>
<polygon fill="#000000" stroke="#000000" points="796,-894.2 796,-911.2 796,-911.2 796,-894.2 796,-894.2"/>
</a>
</g>
</g>
<!-- oauth_identities -->
<g id="node8" class="node">
<title>oauth_identities</title>
<g id="a_node8"><a xlink:href="../../tables/oauth_identities.html" xlink:title="oauth_identities" target="_top">
<polygon fill="#ffffff" stroke="transparent" points="160,-299.2 160,-473.2 317,-473.2 317,-299.2 160,-299.2"/>
<polygon fill="#f5f5f5" stroke="transparent" points="160.5,-450.2 160.5,-473.2 317.5,-473.2 317.5,-450.2 160.5,-450.2"/>
<polygon fill="none" stroke="#000000" points="160.5,-450.2 160.5,-473.2 317.5,-473.2 317.5,-450.2 160.5,-450.2"/>
<text text-anchor="start" x="165.5" y="-458.8" font-family="Helvetica,sans-Serif" font-weight="bold" font-size="11.00" fill="#000000">oauth_identities</text>
<text text-anchor="start" x="283.0219" y="-458.3" font-family="Helvetica,sans-Serif" font-size="11.00" fill="#000000">[table]</text>
<polygon fill="none" stroke="#000000" points="160.5,-428.2 160.5,-450.2 317.5,-450.2 317.5,-428.2 160.5,-428.2"/>
<image xlink:href="../../images/primaryKeys.png" width="11px" height="12px" preserveAspectRatio="xMinYMin meet" x="165.5" y="-445.2"/>
<text text-anchor="start" x="189.5" y="-435.3" font-family="Helvetica,sans-Serif" font-size="11.00" fill="#000000">id</text>
<polygon fill="#ffffff" stroke="transparent" points="160.5,-406.2 160.5,-428.2 317.5,-428.2 317.5,-406.2 160.5,-406.2"/>
<polygon fill="none" stroke="#000000" points="160.5,-406.2 160.5,-428.2 317.5,-428.2 317.5,-406.2 160.5,-406.2"/>
<image xlink:href="../../images/foreignKeys.png" width="11px" height="12px" preserveAspectRatio="xMinYMin meet" x="165.5" y="-423.2"/>
<text text-anchor="start" x="189.5" y="-413.3" font-family="Helvetica,sans-Serif" font-size="11.00" fill="#000000">user_id</text>
<polygon fill="#ffffff" stroke="transparent" points="160.5,-384.2 160.5,-406.2 317.5,-406.2 317.5,-384.2 160.5,-384.2"/>
<polygon fill="none" stroke="#000000" points="160.5,-384.2 160.5,-406.2 317.5,-406.2 317.5,-384.2 160.5,-384.2"/>
<text text-anchor="start" x="189.5" y="-391.3" font-family="Helvetica,sans-Serif" font-size="11.00" fill="#000000">provider</text>
<polygon fill="#ffffff" stroke="transparent" points="160.5,-362.2 160.5,-384.2 317.5,-384.2 317.5,-362.2 160.5,-362.2"/>
<polygon fill="none" stroke="#000000" points="160.5,-362.2 160.5,-384.2 317.5,-384.2 317.5,-362.2 160.5,-362.2"/>
<text text-anchor="start" x="189.5" y="-369.3" font-family="Helvetica,sans-Serif" font-size="11.00" fill="#000000">subject</text>
<polygon fill="none" stroke="#000000" points="160.5,-340.2 160.5,-362.2 317.5,-362.2 317.5,-340.2 160.5,-340.2"/>
<text text-anchor="start" x="189.5" y="-347.3" font-family="Helvetica,sans-Serif" font-size="11.00" fill="#000000">email</text>
<polygon fill="none" stroke="#000000" points="160.5,-318.2 160.5,-340.2 317.5,-340.2 317.5,-318.2 160.5,-318.2"/>
<text text-anchor="start" x="189.5" y="-325.3" font-family="Helvetica,sans-Serif" font-size="11.00" fill="#000000">created_at</text>
<polygon fill="#ffffff" stroke="transparent" points="160.5,-299.2 160.5,-318.2 317.5,-318.2 317.5,-299.2 160.5,-299.2"/>
<polygon fill="none" stroke="#000000" points="160.5,-299.2 160.5,-318.2 317.5,-318.2 317.5,-299.2 160.5,-299.2"/>
<polygon fill="#ffffff" stroke="transparent" points="161.5,-300.2 161.5,-317.2 219.5,-317.2 219.5,-300.2 161.5,-300.2"/>
<text text-anchor="start" x="163.5" y="-305.3" font-family="Helvetica,sans-Serif" font-size="11.00" fill="#000000">&lt; 1</text>
<polygon fill="#ffffff" stroke="transparent" points="219.5,-300.2 219.5,-317.2 268.5,-317.2 268.5,-300.2 219.5,-300.2"/>
<text text-anchor="start" x="240.9431" y="-305.3" font-family="Helvetica,sans-Serif" font-size="11.00" fill="#000000"> &#160;</text>
<polygon fill="#ffffff" stroke="transparent" points="268.5,-300.2 268.5,-317.2 316.5,-317.2 316.5,-300.2 268.5,-300.2"/>
<text text-anchor="start" x="308.3862" y="-305.3" font-family="Helvetica,sans-Serif" font-size="11.00" fill="#000000"> &#160;</text>
<polygon fill="#000000" stroke="#000000" points="219.5,-300.2 219.5,-317.2 219.5,-317.2 219.5,-300.2 219.5,-300.2"/>
<polygon fill="#000000" stroke="#000000" points="268.5,-300.2 268.5,-317.2 268.5,-317.2 268.5,-300.2 268.5,-300.2"/>
</a>
</g>
</g>
<!-- oauth_identities&#45;&gt;users -->
<g id="edge3" class="edge">
<title>oauth_identities:w&#45;&gt;users:e</title>
<path fill="none" stroke="#000000" d="M145.9909,-417.2C134.6774,-417.2 127.4931,-417.2 111.5,-417.2"/>
<polygon fill="#000000" stroke="#000000" points="152.5,-417.2001 160.5,-420.8 156.5,-417.2 160.5,-417.2 160.5,-417.2 160.5,-417.2 156.5,-417.2 160.5,-413.6 152.5,-417.2001 152.5,-417.2001"/>
<ellipse fill="none" stroke="#000000" cx="149.3" cy="-417.2001" rx="3.2" ry="3.2"/>
</g>
<!-- user_sessions -->
<g id="node9" class="node">
<title>user_sessions</title>
<g id="a_node9"><a xlink:href="../../tables/user_sessions.html" xlink:title="user_sessions" target="_top">
<polygon fill="#ffffff" stroke="transparent" points="168.5,-38.2 168.5,-278.2 308.5,-278.2 308.5,-38.2 168.5,-38.2"/>
<polygon fill="#f5f5f5" stroke="transparent" points="168.5,-255.2 168.5,-278.2 308.5,-278.2 308.5,-255.2 168.5,-255.2"/>
<polygon fill="none" stroke="#000000" points="168.5,-255.2 168.5,-278.2 308.5,-278.2 308.5,-255.2 168.5,-255.2"/>
<text text-anchor="start" x="173.5" y="-263.8" font-family="Helvetica,sans-Serif" font-weight="bold" font-size="11.00" fill="#000000">user_sessions</text>
<text text-anchor="start" x="274.0219" y="-263.3" font-family="Helvetica,sans-Serif" font-size="11.00" fill="#000000">[table]</text>
<polygon fill="none" stroke="#000000" points="168.5,-233.2 168.5,-255.2 308.5,-255.2 308.5,-233.2 168.5,-233.2"/>
<image xlink:href="../../images/primaryKeys.png" width="11px" height="12px" preserveAspectRatio="xMinYMin meet" x="173.5" y="-250.2"/>
<text text-anchor="start" x="197.5" y="-240.3" font-family="Helvetica,sans-Serif" font-size="11.00" fill="#000000">id</text>
<polygon fill="#ffffff" stroke="transparent" points="168.5,-211.2 168.5,-233.2 308.5,-233.2 308.5,-211.2 168.5,-211.2"/>
<polygon fill="none" stroke="#000000" points="168.5,-211.2 168.5,-233.2 308.5,-233.2 308.5,-211.2 168.5,-211.2"/>
<image xlink:href="../../images/foreignKeys.png" width="11px" height="12px" preserveAspectRatio="xMinYMin meet" x="173.5" y="-228.2"/>
<text text-anchor="start" x="197.5" y="-218.3" font-family="Helvetica,sans-Serif" font-size="11.00" fill="#000000">user_id</text>
<polygon fill="#ffffff" stroke="transparent" points="168.5,-189.2 168.5,-211.2 308.5,-211.2 308.5,-189.2 168.5,-189.2"/>
<polygon fill="none" stroke="#000000" points="168.5,-189.2 168.5,-211.2 308.5,-211.2 308.5,-189.2 168.5,-189.2"/>
<text text-anchor="start" x="197.5" y="-196.3" font-family="Helvetica,sans-Serif" font-size="11.00" fill="#000000">token_hash</text>
<polygon fill="none" stroke="#000000" points="168.5,-167.2 168.5,-189.2 308.5,-189.2 308.5,-167.2 168.5,-167.2"/>
<text text-anchor="start" x="197.5" y="-174.3" font-family="Helvetica,sans-Serif" font-size="11.00" fill="#000000">created_at</text>
<polygon fill="#ffffff" stroke="transparent" points="168.5,-145.2 168.5,-167.2 308.5,-167.2 308.5,-145.2 168.5,-145.2"/>
<polygon fill="none" stroke="#000000" points="168.5,-145.2 168.5,-167.2 308.5,-167.2 308.5,-145.2 168.5,-145.2"/>
<text text-anchor="start" x="197.5" y="-152.3" font-family="Helvetica,sans-Serif" font-size="11.00" fill="#000000">expires_at</text>
<polygon fill="none" stroke="#000000" points="168.5,-123.2 168.5,-145.2 308.5,-145.2 308.5,-123.2 168.5,-123.2"/>
<text text-anchor="start" x="197.5" y="-130.3" font-family="Helvetica,sans-Serif" font-size="11.00" fill="#000000">last_seen_at</text>
<polygon fill="none" stroke="#000000" points="168.5,-101.2 168.5,-123.2 308.5,-123.2 308.5,-101.2 168.5,-101.2"/>
<text text-anchor="start" x="197.5" y="-108.3" font-family="Helvetica,sans-Serif" font-size="11.00" fill="#000000">revoked_at</text>
<polygon fill="none" stroke="#000000" points="168.5,-79.2 168.5,-101.2 308.5,-101.2 308.5,-79.2 168.5,-79.2"/>
<text text-anchor="start" x="197.5" y="-86.3" font-family="Helvetica,sans-Serif" font-size="11.00" fill="#000000">user_agent</text>
<polygon fill="none" stroke="#000000" points="168.5,-57.2 168.5,-79.2 308.5,-79.2 308.5,-57.2 168.5,-57.2"/>
<text text-anchor="start" x="197.5" y="-64.3" font-family="Helvetica,sans-Serif" font-size="11.00" fill="#000000">ip_address</text>
<polygon fill="#ffffff" stroke="transparent" points="168.5,-38.2 168.5,-57.2 308.5,-57.2 308.5,-38.2 168.5,-38.2"/>
<polygon fill="none" stroke="#000000" points="168.5,-38.2 168.5,-57.2 308.5,-57.2 308.5,-38.2 168.5,-38.2"/>
<polygon fill="#ffffff" stroke="transparent" points="169.5,-39.2 169.5,-56.2 221.5,-56.2 221.5,-39.2 169.5,-39.2"/>
<text text-anchor="start" x="171.5" y="-44.3" font-family="Helvetica,sans-Serif" font-size="11.00" fill="#000000">&lt; 1</text>
<polygon fill="#ffffff" stroke="transparent" points="221.5,-39.2 221.5,-56.2 264.5,-56.2 264.5,-39.2 221.5,-39.2"/>
<text text-anchor="start" x="239.9431" y="-44.3" font-family="Helvetica,sans-Serif" font-size="11.00" fill="#000000"> &#160;</text>
<polygon fill="#ffffff" stroke="transparent" points="264.5,-39.2 264.5,-56.2 307.5,-56.2 307.5,-39.2 264.5,-39.2"/>
<text text-anchor="start" x="299.3862" y="-44.3" font-family="Helvetica,sans-Serif" font-size="11.00" fill="#000000"> &#160;</text>
<polygon fill="#000000" stroke="#000000" points="221.5,-39.2 221.5,-56.2 221.5,-56.2 221.5,-39.2 221.5,-39.2"/>
<polygon fill="#000000" stroke="#000000" points="264.5,-39.2 264.5,-56.2 264.5,-56.2 264.5,-39.2 264.5,-39.2"/>
</a>
</g>
</g>
<!-- user_sessions&#45;&gt;users -->
<g id="edge7" class="edge">
<title>user_sessions:w&#45;&gt;users:e</title>
<path fill="none" stroke="#000000" d="M153.972,-224.3899C92.8195,-245.8133 196.15,-417.2 111.5,-417.2"/>
<polygon fill="#000000" stroke="#000000" points="160.5894,-223.3925 169.0366,-225.7598 164.5447,-222.7962 168.5,-222.2 168.5,-222.2 168.5,-222.2 164.5447,-222.7962 167.9634,-218.6402 160.5894,-223.3925 160.5894,-223.3925"/>
<ellipse fill="none" stroke="#000000" cx="157.4251" cy="-223.8695" rx="3.2" ry="3.2"/>
</g>
</g>
</svg>
