<?xml version="1.0" encoding="UTF-8" standalone="no"?>
<!DOCTYPE svg PUBLIC "-//W3C//DTD SVG 1.1//EN"
 "http://www.w3.org/Graphics/SVG/1.1/DTD/svg11.dtd">
<!-- Generated by graphviz version 2.40.1 (20161225.0304)
 -->
<!-- Title: compactRelationshipsDiagram Pages: 1 -->
<svg width="830pt" height="814pt"
 viewBox="0.00 0.00 830.00 813.70" xmlns="http://www.w3.org/2000/svg" xmlns:xlink="http://www.w3.org/1999/xlink">
<g id="graph0" class="graph" transform="scale(1 1) rotate(0) translate(4 809.7)">
<title>compactRelationshipsDiagram</title>
<polygon fill="#ffffff" stroke="transparent" points="-4,4 -4,-809.7 826,-809.7 826,4 -4,4"/>
<text text-anchor="middle" x="72.4936" y="-7.3" font-family="Helvetica,sans-Serif" font-size="11.00" fill="#000000">Generated by SchemaSpy</text>
<!-- topics -->
<g id="node1" class="node">
<title>topics</title>
<g id="a_node1"><a xlink:href="../../tables/topics.html" xlink:title="topics" target="_top">
<polygon fill="#ffffff" stroke="transparent" points="406,-611.2 406,-716.2 515,-716.2 515,-611.2 406,-611.2"/>
<polygon fill="#f5f5f5" stroke="transparent" points="406.5,-692.7 406.5,-715.7 515.5,-715.7 515.5,-692.7 406.5,-692.7"/>
<polygon fill="none" stroke="#000000" points="406.5,-692.7 406.5,-715.7 515.5,-715.7 515.5,-692.7 406.5,-692.7"/>
<text text-anchor="start" x="411.5" y="-701.3" font-family="Helvetica,sans-Serif" font-weight="bold" font-size="11.00" fill="#000000">topics</text>
<text text-anchor="start" x="480.5437" y="-700.8" font-family="Helvetica,sans-Serif" font-size="11.00" fill="#000000">[table]</text>
<polygon fill="none" stroke="#000000" points="406.5,-670.7 406.5,-692.7 515.5,-692.7 515.5,-670.7 406.5,-670.7"/>
<image xlink:href="../../images/primaryKeys.png" width="11px" height="12px" preserveAspectRatio="xMinYMin meet" x="411.5" y="-687.7"/>
<text text-anchor="start" x="426.5" y="-677.8" font-family="Helvetica,sans-Serif" font-size="11.00" fill="#000000">id</text>
<polygon fill="#ffffff" stroke="transparent" points="406.5,-648.7 406.5,-670.7 515.5,-670.7 515.5,-648.7 406.5,-648.7"/>
<polygon fill="none" stroke="#000000" points="406.5,-648.7 406.5,-670.7 515.5,-670.7 515.5,-648.7 406.5,-648.7"/>
<image xlink:href="../../images/foreignKeys.png" width="11px" height="12px" preserveAspectRatio="xMinYMin meet" x="411.5" y="-665.7"/>
<text text-anchor="start" x="426.5" y="-655.8" font-family="Helvetica,sans-Serif" font-size="11.00" fill="#000000">summary_id</text>
<polygon fill="none" stroke="#000000" points="406.5,-629.7 406.5,-648.7 515.5,-648.7 515.5,-629.7 406.5,-629.7"/>
<text text-anchor="start" x="409.5" y="-635.8" font-family="Helvetica,sans-Serif" font-size="11.00" fill="#000000">...</text>
<polygon fill="#ffffff" stroke="transparent" points="406.5,-610.7 406.5,-629.7 515.5,-629.7 515.5,-610.7 406.5,-610.7"/>
<polygon fill="none" stroke="#000000" points="406.5,-610.7 406.5,-629.7 515.5,-629.7 515.5,-610.7 406.5,-610.7"/>
<polygon fill="#ffffff" stroke="transparent" points="407.5,-611.7 407.5,-628.7 449.5,-628.7 449.5,-611.7 407.5,-611.7"/>
<text text-anchor="start" x="409.5" y="-616.8" font-family="Helvetica,sans-Serif" font-size="11.00" fill="#000000">&lt; 1</text>
<polygon fill="#ffffff" stroke="transparent" points="449.5,-611.7 449.5,-628.7 482.5,-628.7 482.5,-611.7 449.5,-611.7"/>
<text text-anchor="start" x="462.9431" y="-616.8" font-family="Helvetica,sans-Serif" font-size="11.00" fill="#000000"> &#160;</text>
<polygon fill="#ffffff" stroke="transparent" points="482.5,-611.7 482.5,-628.7 514.5,-628.7 514.5,-611.7 482.5,-611.7"/>
<text text-anchor="start" x="506.3862" y="-616.8" font-family="Helvetica,sans-Serif" font-size="11.00" fill="#000000"> &#160;</text>
<polygon fill="#000000" stroke="#000000" points="449.5,-611.7 449.5,-628.7 449.5,-628.7 449.5,-611.7 449.5,-611.7"/>
<polygon fill="#000000" stroke="#000000" points="482.5,-611.7 482.5,-628.7 482.5,-628.7 482.5,-611.7 482.5,-611.7"/>
</a>
</g>
</g>
<!-- summaries -->
<g id="node3" class="node">
<title>summaries</title>
<g id="a_node3"><a xlink:href="../../tables/summaries.html" xlink:title="summaries" target="_top">
<polygon fill="#ffffff" stroke="transparent" points="166,-378.2 166,-505.2 311,-505.2 311,-378.2 166,-378.2"/>
<polygon fill="#f5f5f5" stroke="transparent" points="166.5,-481.7 166.5,-504.7 311.5,-504.7 311.5,-481.7 166.5,-481.7"/>
<polygon fill="none" stroke="#000000" points="166.5,-481.7 166.5,-504.7 311.5,-504.7 311.5,-481.7 166.5,-481.7"/>
<text text-anchor="start" x="171.5" y="-490.3" font-family="Helvetica,sans-Serif" font-weight="bold" font-size="11.00" fill="#000000">summaries</text>
<text text-anchor="start" x="276.5437" y="-489.8" font-family="Helvetica,sans-Serif" font-size="11.00" fill="#000000">[table]</text>
<polygon fill="none" stroke="#000000" points="166.5,-459.7 166.5,-481.7 311.5,-481.7 311.5,-459.7 166.5,-459.7"/>
<image xlink:href="../../images/primaryKeys.png" width="11px" height="12px" preserveAspectRatio="xMinYMin meet" x="171.5" y="-476.7"/>
<text text-anchor="start" x="186.5" y="-466.8" font-family="Helvetica,sans-Serif" font-size="11.00" fill="#000000">id</text>
<polygon fill="#ffffff" stroke="transparent" points="166.5,-437.7 166.5,-459.7 311.5,-459.7 311.5,-437.7 166.5,-437.7"/>
<polygon fill="none" stroke="#000000" points="166.5,-437.7 166.5,-459.7 311.5,-459.7 311.5,-437.7 166.5,-437.7"/>
<text text-anchor="start" x="186.5" y="-444.8" font-family="Helvetica,sans-Serif" font-size="11.00" fill="#000000">content_hash</text>
<polygon fill="#ffffff" stroke="transparent" points="166.5,-415.7 166.5,-437.7 311.5,-437.7 311.5,-415.7 166.5,-415.7"/>
<polygon fill="none" stroke="#000000" points="166.5,-415.7 166.5,-437.7 311.5,-437.7 311.5,-415.7 166.5,-415.7"/>
<image xlink:href="../../images/foreignKeys.png" width="11px" height="12px" preserveAspectRatio="xMinYMin meet" x="171.5" y="-432.7"/>
<text text-anchor="start" x="186.5" y="-422.8" font-family="Helvetica,sans-Serif" font-size="11.00" fill="#000000">user_id</text>
<polygon fill="none" stroke="#000000" points="166.5,-396.7 166.5,-415.7 311.5,-415.7 311.5,-396.7 166.5,-396.7"/>
<text text-anchor="start" x="169.5" y="-402.8" font-family="Helvetica,sans-Serif" font-size="11.00" fill="#000000">...</text>
<polygon fill="#ffffff" stroke="transparent" points="166.5,-377.7 166.5,-396.7 311.5,-396.7 311.5,-377.7 166.5,-377.7"/>
<polygon fill="none" stroke="#000000" points="166.5,-377.7 166.5,-396.7 311.5,-396.7 311.5,-377.7 166.5,-377.7"/>
<polygon fill="#ffffff" stroke="transparent" points="167.5,-378.7 167.5,-395.7 218.5,-395.7 218.5,-378.7 167.5,-378.7"/>
<text text-anchor="start" x="169.5" y="-383.8" font-family="Helvetica,sans-Serif" font-size="11.00" fill="#000000">&lt; 1</text>
<polygon fill="#ffffff" stroke="transparent" points="218.5,-378.7 218.5,-395.7 260.5,-395.7 260.5,-378.7 218.5,-378.7"/>
<text text-anchor="start" x="236.4431" y="-383.8" font-family="Helvetica,sans-Serif" font-size="11.00" fill="#000000"> &#160;</text>
<polygon fill="#ffffff" stroke="transparent" points="260.5,-378.7 260.5,-395.7 310.5,-395.7 310.5,-378.7 260.5,-378.7"/>
<text text-anchor="start" x="292.9053" y="-383.8" font-family="Helvetica,sans-Serif" font-size="11.00" fill="#000000">4 &gt;</text>
<polygon fill="#000000" stroke="#000000" points="218.5,-378.7 218.5,-395.7 218.5,-395.7 218.5,-378.7 218.5,-378.7"/>
<polygon fill="#000000" stroke="#000000" points="260.5,-378.7 260.5,-395.7 260.5,-395.7 260.5,-378.7 260.5,-378.7"/>
</a>
</g>
</g>
<!-- topics&#45;&gt;summaries -->
<g id="edge5" class="edge">
<title>topics:w&#45;&gt;summaries:e</title>
<path fill="none" stroke="#000000" d="M392.1923,-657.3449C372.7557,-649.7979 371.9297,-625.269 358,-600.7 327.7355,-547.3198 372.8627,-470.7 311.5,-470.7"/>
<polygon fill="#000000" stroke="#000000" points="398.6062,-658.4006 405.9153,-663.2522 402.5531,-659.0503 406.5,-659.7 406.5,-659.7 406.5,-659.7 402.5531,-659.0503 407.0847,-656.1478 398.6062,-658.4006 398.6062,-658.4006"/>
<ellipse fill="none" stroke="#000000" cx="395.4487" cy="-657.8809" rx="3.2" ry="3.2"/>
</g>
<!-- decisions -->
<g id="node2" class="node">
<title>decisions</title>
<g id="a_node2"><a xlink:href="../../tables/decisions.html" xlink:title="decisions" target="_top">
<polygon fill="#ffffff" stroke="transparent" points="406,-485.2 406,-590.2 515,-590.2 515,-485.2 406,-485.2"/>
<polygon fill="#f5f5f5" stroke="transparent" points="406.5,-566.7 406.5,-589.7 515.5,-589.7 515.5,-566.7 406.5,-566.7"/>
<polygon fill="none" stroke="#000000" points="406.5,-566.7 406.5,-589.7 515.5,-589.7 515.5,-566.7 406.5,-566.7"/>
<text text-anchor="start" x="411.5" y="-575.3" font-family="Helvetica,sans-Serif" font-weight="bold" font-size="11.00" fill="#000000">decisions</text>
<text text-anchor="start" x="480.5437" y="-574.8" font-family="Helvetica,sans-Serif" font-size="11.00" fill="#000000">[table]</text>
<polygon fill="none" stroke="#000000" points="406.5,-544.7 406.5,-566.7 515.5,-566.7 515.5,-544.7 406.5,-544.7"/>
<image xlink:href="../../images/primaryKeys.png" width="11px" height="12px" preserveAspectRatio="xMinYMin meet" x="411.5" y="-561.7"/>
<text text-anchor="start" x="426.5" y="-551.8" font-family="Helvetica,sans-Serif" font-size="11.00" fill="#000000">id</text>
<polygon fill="#ffffff" stroke="transparent" points="406.5,-522.7 406.5,-544.7 515.5,-544.7 515.5,-522.7 406.5,-522.7"/>
<polygon fill="none" stroke="#000000" points="406.5,-522.7 406.5,-544.7 515.5,-544.7 515.5,-522.7 406.5,-522.7"/>
<image xlink:href="../../images/foreignKeys.png" width="11px" height="12px" preserveAspectRatio="xMinYMin meet" x="411.5" y="-539.7"/>
<text text-anchor="start" x="426.5" y="-529.8" font-family="Helvetica,sans-Serif" font-size="11.00" fill="#000000">summary_id</text>
<polygon fill="none" stroke="#000000" points="406.5,-503.7 406.5,-522.7 515.5,-522.7 515.5,-503.7 406.5,-503.7"/>
<text text-anchor="start" x="409.5" y="-509.8" font-family="Helvetica,sans-Serif" font-size="11.00" fill="#000000">...</text>
<polygon fill="#ffffff" stroke="transparent" points="406.5,-484.7 406.5,-503.7 515.5,-503.7 515.5,-484.7 406.5,-484.7"/>
<polygon fill="none" stroke="#000000" points="406.5,-484.7 406.5,-503.7 515.5,-503.7 515.5,-484.7 406.5,-484.7"/>
<polygon fill="#ffffff" stroke="transparent" points="407.5,-485.7 407.5,-502.7 449.5,-502.7 449.5,-485.7 407.5,-485.7"/>
<text text-anchor="start" x="409.5" y="-490.8" font-family="Helvetica,sans-Serif" font-size="11.00" fill="#000000">&lt; 1</text>
<polygon fill="#ffffff" stroke="transparent" points="449.5,-485.7 449.5,-502.7 482.5,-502.7 482.5,-485.7 449.5,-485.7"/>
<text text-anchor="start" x="462.9431" y="-490.8" font-family="Helvetica,sans-Serif" font-size="11.00" fill="#000000"> &#160;</text>
<polygon fill="#ffffff" stroke="transparent" points="482.5,-485.7 482.5,-502.7 514.5,-502.7 514.5,-485.7 482.5,-485.7"/>
<text text-anchor="start" x="506.3862" y="-490.8" font-family="Helvetica,sans-Serif" font-size="11.00" fill="#000000"> &#160;</text>
<polygon fill="#000000" stroke="#000000" points="449.5,-485.7 449.5,-502.7 449.5,-502.7 449.5,-485.7 449.5,-485.7"/>
<polygon fill="#000000" stroke="#000000" points="482.5,-485.7 482.5,-502.7 482.5,-502.7 482.5,-485.7 482.5,-485.7"/>
</a>
</g>
</g>
<!-- decisions&#45;&gt;summaries -->
<g id="edge2" class="edge">
<title>decisions:w&#45;&gt;summaries:e</title>
<path fill="none" stroke="#000000" d="M391.7724,-531.6039C356.5392,-520.6724 356.6215,-470.7 311.5,-470.7"/>
<polygon fill="#000000" stroke="#000000" points="398.5798,-532.5727 405.9927,-537.2641 402.5399,-533.1364 406.5,-533.7 406.5,-533.7 406.5,-533.7 402.5399,-533.1364 407.0073,-530.1359 398.5798,-532.5727 398.5798,-532.5727"/>
<ellipse fill="none" stroke="#000000" cx="395.4117" cy="-532.1218" rx="3.2" ry="3.2"/>
</g>
<!-- users -->
<g id="node7" class="node">
<title>users</title>
<g id="a_node7"><a xlink:href="../../tables/users.html" xlink:title="users" target="_top">
<polygon fill="#ffffff" stroke="transparent" points="8,-252.2 8,-335.2 111,-335.2 111,-252.2 8,-252.2"/>
<polygon fill="#f5f5f5" stroke="transparent" points="8.5,-311.7 8.5,-334.7 111.5,-334.7 111.5,-311.7 8.5,-311.7"/>
<polygon fill="none" stroke="#000000" points="8.5,-311.7 8.5,-334.7 111.5,-334.7 111.5,-311.7 8.5,-311.7"/>
<text text-anchor="start" x="13.5" y="-320.3" font-family="Helvetica,sans-Serif" font-weight="bold" font-size="11.00" fill="#000000">users</text>
<text text-anchor="start" x="76.5437" y="-319.8" font-family="Helvetica,sans-Serif" font-size="11.00" fill="#000000">[table]</text>
<polygon fill="none" stroke="#000000" points="8.5,-289.7 8.5,-311.7 111.5,-311.7 111.5,-289.7 8.5,-289.7"/>
<image xlink:href="../../images/primaryKeys.png" width="11px" height="12px" preserveAspectRatio="xMinYMin meet" x="13.5" y="-306.7"/>
<text text-anchor="start" x="28.5" y="-296.8" font-family="Helvetica,sans-Serif" font-size="11.00" fill="#000000">id</text>
<polygon fill="none" stroke="#000000" points="8.5,-270.7 8.5,-289.7 111.5,-289.7 111.5,-270.7 8.5,-270.7"/>
<text text-anchor="start" x="11.5" y="-276.8" font-family="Helvetica,sans-Serif" font-size="11.00" fill="#000000">...</text>
<polygon fill="#ffffff" stroke="transparent" points="8.5,-251.7 8.5,-270.7 111.5,-270.7 111.5,-251.7 8.5,-251.7"/>
<polygon fill="none" stroke="#000000" points="8.5,-251.7 8.5,-270.7 111.5,-270.7 111.5,-251.7 8.5,-251.7"/>
<polygon fill="#ffffff" stroke="transparent" points="9.5,-252.7 9.5,-269.7 40.5,-269.7 40.5,-252.7 9.5,-252.7"/>
<text text-anchor="start" x="11.5" y="-257.8" font-family="Helvetica,sans-Serif" font-size="11.00" fill="#000000"> &#160;</text>
<polygon fill="#ffffff" stroke="transparent" points="40.5,-252.7 40.5,-269.7 71.5,-269.7 71.5,-252.7 40.5,-252.7"/>
<text text-anchor="start" x="52.9431" y="-257.8" font-family="Helvetica,sans-Serif" font-size="11.00" fill="#000000"> &#160;</text>
<polygon fill="#ffffff" stroke="transparent" points="71.5,-252.7 71.5,-269.7 110.5,-269.7 110.5,-252.7 71.5,-252.7"/>
<text text-anchor="start" x="92.9053" y="-257.8" font-family="Helvetica,sans-Serif" font-size="11.00" fill="#000000">3 &gt;</text>
<polygon fill="#000000" stroke="#000000" points="40.5,-252.7 40.5,-269.7 40.5,-269.7 40.5,-252.7 40.5,-252.7"/>
<polygon fill="#000000" stroke="#000000" points="71.5,-252.7 71.5,-269.7 71.5,-269.7 71.5,-252.7 71.5,-252.7"/>
</a>
</g>
</g>
<!-- summaries&#45;&gt;users -->
<g id="edge4" class="edge">
<title>summaries:w&#45;&gt;users:e</title>
<path fill="none" stroke="#000000" d="M152.0308,-423.3298C117.2998,-403.2923 166.6356,-300.7 111.5,-300.7"/>
<polygon fill="#000000" stroke="#000000" points="158.7086,-424.8852 165.6833,-430.2061 162.6043,-425.7926 166.5,-426.7 166.5,-426.7 166.5,-426.7 162.6043,-425.7926 167.3167,-423.1939 158.7086,-424.8852 158.7086,-424.8852"/>
<ellipse fill="none" stroke="#000000" cx="155.592" cy="-424.1592" rx="3.2" ry="3.2"/>
</g>
<!-- transcript_segments -->
<g id="node4" class="node">
<title>transcript_segments</title>
<g id="a_node4"><a xlink:href="../../tables/transcript_segments.html" xlink:title="transcript_segments" target="_top">
<polygon fill="#ffffff" stroke="transparent" points="366,-359.2 366,-464.2 555,-464.2 555,-359.2 366,-359.2"/>
<polygon fill="#f5f5f5" stroke="transparent" points="366.5,-440.7 366.5,-463.7 555.5,-463.7 555.5,-440.7 366.5,-440.7"/>
<polygon fill="none" stroke="#000000" points="366.5,-440.7 366.5,-463.7 555.5,-463.7 555.5,-440.7 366.5,-440.7"/>
<text text-anchor="start" x="371.5" y="-449.3" font-family="Helvetica,sans-Serif" font-weight="bold" font-size="11.00" fill="#000000">transcript_segments</text>
<text text-anchor="start" x="521.0219" y="-448.8" font-family="Helvetica,sans-Serif" font-size="11.00" fill="#000000">[table]</text>
<polygon fill="none" stroke="#000000" points="366.5,-418.7 366.5,-440.7 555.5,-440.7 555.5,-418.7 366.5,-418.7"/>
<image xlink:href="../../images/primaryKeys.png" width="11px" height="12px" preserveAspectRatio="xMinYMin meet" x="371.5" y="-435.7"/>
<text text-anchor="start" x="395.5" y="-425.8" font-family="Helvetica,sans-Serif" font-size="11.00" fill="#000000">id</text>
<polygon fill="#ffffff" stroke="transparent" points="366.5,-396.7 366.5,-418.7 555.5,-418.7 555.5,-396.7 366.5,-396.7"/>
<polygon fill="none" stroke="#000000" points="366.5,-396.7 366.5,-418.7 555.5,-418.7 555.5,-396.7 366.5,-396.7"/>
<image xlink:href="../../images/foreignKeys.png" width="11px" height="12px" preserveAspectRatio="xMinYMin meet" x="371.5" y="-413.7"/>
<text text-anchor="start" x="395.5" y="-403.8" font-family="Helvetica,sans-Serif" font-size="11.00" fill="#000000">summary_id</text>
<polygon fill="none" stroke="#000000" points="366.5,-377.7 366.5,-396.7 555.5,-396.7 555.5,-377.7 366.5,-377.7"/>
<text text-anchor="start" x="369.5" y="-383.8" font-family="Helvetica,sans-Serif" font-size="11.00" fill="#000000">...</text>
<polygon fill="#ffffff" stroke="transparent" points="366.5,-358.7 366.5,-377.7 555.5,-377.7 555.5,-358.7 366.5,-358.7"/>
<polygon fill="none" stroke="#000000" points="366.5,-358.7 366.5,-377.7 555.5,-377.7 555.5,-358.7 366.5,-358.7"/>
<polygon fill="#ffffff" stroke="transparent" points="367.5,-359.7 367.5,-376.7 436.5,-376.7 436.5,-359.7 367.5,-359.7"/>
<text text-anchor="start" x="369.5" y="-364.8" font-family="Helvetica,sans-Serif" font-size="11.00" fill="#000000">&lt; 1</text>
<polygon fill="#ffffff" stroke="transparent" points="436.5,-359.7 436.5,-376.7 495.5,-376.7 495.5,-359.7 436.5,-359.7"/>
<text text-anchor="start" x="462.9431" y="-364.8" font-family="Helvetica,sans-Serif" font-size="11.00" fill="#000000"> &#160;</text>
<polygon fill="#ffffff" stroke="transparent" points="495.5,-359.7 495.5,-376.7 554.5,-376.7 554.5,-359.7 495.5,-359.7"/>
<text text-anchor="start" x="546.3862" y="-364.8" font-family="Helvetica,sans-Serif" font-size="11.00" fill="#000000"> &#160;</text>
<polygon fill="#000000" stroke="#000000" points="436.5,-359.7 436.5,-376.7 436.5,-376.7 436.5,-359.7 436.5,-359.7"/>
<polygon fill="#000000" stroke="#000000" points="495.5,-359.7 495.5,-376.7 495.5,-376.7 495.5,-359.7 495.5,-359.7"/>
</a>
</g>
</g>
<!-- transcript_segments&#45;&gt;summaries -->
<g id="edge6" class="edge">
<title>transcript_segments:w&#45;&gt;summaries:e</title>
<path fill="none" stroke="#000000" d="M352.5254,-412.0302C334.0758,-426.2637 342.7161,-470.7 311.5,-470.7"/>
<polygon fill="#000000" stroke="#000000" points="358.8584,-410.0679 367.5656,-411.1387 362.6792,-408.8839 366.5,-407.7 366.5,-407.7 366.5,-407.7 362.6792,-408.8839 365.4344,-404.2613 358.8584,-410.0679 358.8584,-410.0679"/>
<ellipse fill="none" stroke="#000000" cx="355.8018" cy="-411.0151" rx="3.2" ry="3.2"/>
</g>
<!-- action_items -->
<g id="node5" class="node">
<title>action_items</title>
<g id="a_node5"><a xlink:href="../../tables/action_items.html" xlink:title="action_items" target="_top">
<polygon fill="#ffffff" stroke="transparent" points="395,-233.2 395,-338.2 526,-338.2 526,-233.2 395,-233.2"/>
<polygon fill="#f5f5f5" stroke="transparent" points="395.5,-314.7 395.5,-337.7 526.5,-337.7 526.5,-314.7 395.5,-314.7"/>
<polygon fill="none" stroke="#000000" points="395.5,-314.7 395.5,-337.7 526.5,-337.7 526.5,-314.7 395.5,-314.7"/>
<text text-anchor="start" x="400.5" y="-323.3" font-family="Helvetica,sans-Serif" font-weight="bold" font-size="11.00" fill="#000000">action_items</text>
<text text-anchor="start" x="492.0219" y="-322.8" font-family="Helvetica,sans-Serif" font-size="11.00" fill="#000000">[table]</text>
<polygon fill="none" stroke="#000000" points="395.5,-292.7 395.5,-314.7 526.5,-314.7 526.5,-292.7 395.5,-292.7"/>
<image xlink:href="../../images/primaryKeys.png" width="11px" height="12px" preserveAspectRatio="xMinYMin meet" x="400.5" y="-309.7"/>
<text text-anchor="start" x="424.5" y="-299.8" font-family="Helvetica,sans-Serif" font-size="11.00" fill="#000000">id</text>
<polygon fill="#ffffff" stroke="transparent" points="395.5,-270.7 395.5,-292.7 526.5,-292.7 526.5,-270.7 395.5,-270.7"/>
<polygon fill="none" stroke="#000000" points="395.5,-270.7 395.5,-292.7 526.5,-292.7 526.5,-270.7 395.5,-270.7"/>
<image xlink:href="../../images/foreignKeys.png" width="11px" height="12px" preserveAspectRatio="xMinYMin meet" x="400.5" y="-287.7"/>
<text text-anchor="start" x="424.5" y="-277.8" font-family="Helvetica,sans-Serif" font-size="11.00" fill="#000000">summary_id</text>
<polygon fill="none" stroke="#000000" points="395.5,-251.7 395.5,-270.7 526.5,-270.7 526.5,-251.7 395.5,-251.7"/>
<text text-anchor="start" x="398.5" y="-257.8" font-family="Helvetica,sans-Serif" font-size="11.00" fill="#000000">...</text>
<polygon fill="#ffffff" stroke="transparent" points="395.5,-232.7 395.5,-251.7 526.5,-251.7 526.5,-232.7 395.5,-232.7"/>
<polygon fill="none" stroke="#000000" points="395.5,-232.7 395.5,-251.7 526.5,-251.7 526.5,-232.7 395.5,-232.7"/>
<polygon fill="#ffffff" stroke="transparent" points="396.5,-233.7 396.5,-250.7 445.5,-250.7 445.5,-233.7 396.5,-233.7"/>
<text text-anchor="start" x="398.5" y="-238.8" font-family="Helvetica,sans-Serif" font-size="11.00" fill="#000000">&lt; 1</text>
<polygon fill="#ffffff" stroke="transparent" points="445.5,-233.7 445.5,-250.7 485.5,-250.7 485.5,-233.7 445.5,-233.7"/>
<text text-anchor="start" x="462.4431" y="-238.8" font-family="Helvetica,sans-Serif" font-size="11.00" fill="#000000"> &#160;</text>
<polygon fill="#ffffff" stroke="transparent" points="485.5,-233.7 485.5,-250.7 525.5,-250.7 525.5,-233.7 485.5,-233.7"/>
<text text-anchor="start" x="517.3862" y="-238.8" font-family="Helvetica,sans-Serif" font-size="11.00" fill="#000000"> &#160;</text>
<polygon fill="#000000" stroke="#000000" points="445.5,-233.7 445.5,-250.7 445.5,-250.7 445.5,-233.7 445.5,-233.7"/>
<polygon fill="#000000" stroke="#000000" points="485.5,-233.7 485.5,-250.7 485.5,-250.7 485.5,-233.7 485.5,-233.7"/>
</a>
</g>
</g>
<!-- action_items&#45;&gt;summaries -->
<g id="edge1" class="edge">
<title>action_items:w&#45;&gt;summaries:e</title>
<path fill="none" stroke="#000000" d="M380.827,-283.6947C314.965,-303.8939 397.857,-470.7 311.5,-470.7"/>
<polygon fill="#000000" stroke="#000000" points="387.5729,-282.7777 395.985,-285.2672 391.5365,-282.2388 395.5,-281.7 395.5,-281.7 395.5,-281.7 391.5365,-282.2388 395.015,-278.1328 387.5729,-282.7777 387.5729,-282.7777"/>
<ellipse fill="none" stroke="#000000" cx="384.4021" cy="-283.2087" rx="3.2" ry="3.2"/>
</g>
<!-- alembic_version -->
<g id="node6" class="node">
<title>alembic_version</title>
<g id="a_node6"><a xlink:href="../../tables/alembic_version.html" xlink:title="alembic_version" target="_top">
<polygon fill="#ffffff" stroke="transparent" points="658,-737.7 658,-801.7 814,-801.7 814,-737.7 658,-737.7"/>
<polygon fill="#f5f5f5" stroke="transparent" points="658,-778.7 658,-801.7 814,-801.7 814,-778.7 658,-778.7"/>
<polygon fill="none" stroke="#000000" points="658,-778.7 658,-801.7 814,-801.7 814,-778.7 658,-778.7"/>
<text text-anchor="start" x="663" y="-787.3" font-family="Helvetica,sans-Serif" font-weight="bold" font-size="11.00" fill="#000000">alembic_version</text>
<text text-anchor="start" x="779.5219" y="-786.8" font-family="Helvetica,sans-Serif" font-size="11.00" fill="#000000">[table]</text>
<polygon fill="none" stroke="#000000" points="658,-756.7 658,-778.7 814,-778.7 814,-756.7 658,-756.7"/>
<image xlink:href="../../images/primaryKeys.png" width="11px" height="12px" preserveAspectRatio="xMinYMin meet" x="663" y="-773.7"/>
<text text-anchor="start" x="687" y="-763.8" font-family="Helvetica,sans-Serif" font-size="11.00" fill="#000000">version_num</text>
<polygon fill="#ffffff" stroke="transparent" points="658,-737.7 658,-756.7 814,-756.7 814,-737.7 658,-737.7"/>
<polygon fill="none" stroke="#000000" points="658,-737.7 658,-756.7 814,-756.7 814,-737.7 658,-737.7"/>
<polygon fill="#ffffff" stroke="transparent" points="659,-738.7 659,-755.7 711,-755.7 711,-738.7 659,-738.7"/>
<text text-anchor="start" x="661" y="-743.8" font-family="Helvetica,sans-Serif" font-size="11.00" fill="#000000"> &#160;</text>
<polygon fill="#ffffff" stroke="transparent" points="711,-738.7 711,-755.7 762,-755.7 762,-738.7 711,-738.7"/>
<text text-anchor="start" x="733.4431" y="-743.8" font-family="Helvetica,sans-Serif" font-size="11.00" fill="#000000"> &#160;</text>
<polygon fill="#ffffff" stroke="transparent" points="762,-738.7 762,-755.7 813,-755.7 813,-738.7 762,-738.7"/>
<text text-anchor="start" x="804.8862" y="-743.8" font-family="Helvetica,sans-Serif" font-size="11.00" fill="#000000"> &#160;</text>
<polygon fill="#000000" stroke="#000000" points="711,-738.7 711,-755.7 711,-755.7 711,-738.7 711,-738.7"/>
<polygon fill="#000000" stroke="#000000" points="762,-738.7 762,-755.7 762,-755.7 762,-738.7 762,-738.7"/>
</a>
</g>
</g>
<!-- oauth_identities -->
<g id="node8" class="node">
<title>oauth_identities</title>
<g id="a_node8"><a xlink:href="../../tables/oauth_identities.html" xlink:title="oauth_identities" target="_top">
<polygon fill="#ffffff" stroke="transparent" points="160,-208.2 160,-357.2 317,-357.2 317,-208.2 160,-208.2"/>
<polygon fill="#f5f5f5" stroke="transparent" points="160.5,-333.7 160.5,-356.7 317.5,-356.7 317.5,-333.7 160.5,-333.7"/>
<polygon fill="none" stroke="#000000" points="160.5,-333.7 160.5,-356.7 317.5,-356.7 317.5,-333.7 160.5,-333.7"/>
<text text-anchor="start" x="165.5" y="-342.3" font-family="Helvetica,sans-Serif" font-weight="bold" font-size="11.00" fill="#000000">oauth_identities</text>
<text text-anchor="start" x="283.0219" y="-341.8" font-family="Helvetica,sans-Serif" font-size="11.00" fill="#000000">[table]</text>
<polygon fill="none" stroke="#000000" points="160.5,-311.7 160.5,-333.7 317.5,-333.7 317.5,-311.7 160.5,-311.7"/>
<image xlink:href="../../images/primaryKeys.png" width="11px" height="12px" preserveAspectRatio="xMinYMin meet" x="165.5" y="-328.7"/>
<text text-anchor="start" x="189.5" y="-318.8" font-family="Helvetica,sans-Serif" font-size="11.00" fill="#000000">id</text>
<polygon fill="#ffffff" stroke="transparent" points="160.5,-289.7 160.5,-311.7 317.5,-311.7 317.5,-289.7 160.5,-289.7"/>
<polygon fill="none" stroke="#000000" points="160.5,-289.7 160.5,-311.7 317.5,-311.7 317.5,-289.7 160.5,-289.7"/>
<image xlink:href="../../images/foreignKeys.png" width="11px" height="12px" preserveAspectRatio="xMinYMin meet" x="165.5" y="-306.7"/>
<text text-anchor="start" x="189.5" y="-296.8" font-family="Helvetica,sans-Serif" font-size="11.00" fill="#000000">user_id</text>
<polygon fill="#ffffff" stroke="transparent" points="160.5,-267.7 160.5,-289.7 317.5,-289.7 317.5,-267.7 160.5,-267.7"/>
<polygon fill="none" stroke="#000000" points="160.5,-267.7 160.5,-289.7 317.5,-289.7 317.5,-267.7 160.5,-267.7"/>
<text text-anchor="start" x="189.5" y="-274.8" font-family="Helvetica,sans-Serif" font-size="11.00" fill="#000000">provider</text>
<polygon fill="#ffffff" stroke="transparent" points="160.5,-245.7 160.5,-267.7 317.5,-267.7 317.5,-245.7 160.5,-245.7"/>
<polygon fill="none" stroke="#000000" points="160.5,-245.7 160.5,-267.7 317.5,-267.7 317.5,-245.7 160.5,-245.7"/>
<text text-anchor="start" x="189.5" y="-252.8" font-family="Helvetica,sans-Serif" font-size="11.00" fill="#000000">subject</text>
<polygon fill="none" stroke="#000000" points="160.5,-226.7 160.5,-245.7 317.5,-245.7 317.5,-226.7 160.5,-226.7"/>
<text text-anchor="start" x="163.5" y="-232.8" font-family="Helvetica,sans-Serif" font-size="11.00" fill="#000000">...</text>
<polygon fill="#ffffff" stroke="transparent" points="160.5,-207.7 160.5,-226.7 317.5,-226.7 317.5,-207.7 160.5,-207.7"/>
<polygon fill="none" stroke="#000000" points="160.5,-207.7 160.5,-226.7 317.5,-226.7 317.5,-207.7 160.5,-207.7"/>
<polygon fill="#ffffff" stroke="transparent" points="161.5,-208.7 161.5,-225.7 219.5,-225.7 219.5,-208.7 161.5,-208.7"/>
<text text-anchor="start" x="163.5" y="-213.8" font-family="Helvetica,sans-Serif" font-size="11.00" fill="#000000">&lt; 1</text>
<polygon fill="#ffffff" stroke="transparent" points="219.5,-208.7 219.5,-225.7 268.5,-225.7 268.5,-208.7 219.5,-208.7"/>
<text text-anchor="start" x="240.9431" y="-213.8" font-family="Helvetica,sans-Serif" font-size="11.00" fill="#000000"> &#160;</text>
<polygon fill="#ffffff" stroke="transparent" points="268.5,-208.7 268.5,-225.7 316.5,-225.7 316.5,-208.7 268.5,-208.7"/>
<text text-anchor="start" x="308.3862" y="-213.8" font-family="Helvetica,sans-Serif" font-size="11.00" fill="#000000"> &#160;</text>
<polygon fill="#000000" stroke="#000000" points="219.5,-208.7 219.5,-225.7 219.5,-225.7 219.5,-208.7 219.5,-208.7"/>
<polygon fill="#000000" stroke="#000000" points="268.5,-208.7 268.5,-225.7 268.5,-225.7 268.5,-208.7 268.5,-208.7"/>
</a>
</g>
</g>
<!-- oauth_identities&#45;&gt;users -->
<g id="edge3" class="edge">
<title>oauth_identities:w&#45;&gt;users:e</title>
<path fill="none" stroke="#000000" d="M145.9909,-300.7C134.6774,-300.7 127.4931,-300.7 111.5,-300.7"/>
<polygon fill="#000000" stroke="#000000" points="152.5,-300.7001 160.5,-304.3 156.5,-300.7 160.5,-300.7 160.5,-300.7 160.5,-300.7 156.5,-300.7 160.5,-297.1 152.5,-300.7001 152.5,-300.7001"/>
<ellipse fill="none" stroke="#000000" cx="149.3" cy="-300.7001" rx="3.2" ry="3.2"/>
</g>
<!-- user_sessions -->
<g id="node9" class="node">
<title>user_sessions</title>
<g id="a_node9"><a xlink:href="../../tables/user_sessions.html" xlink:title="user_sessions" target="_top">
<polygon fill="#ffffff" stroke="transparent" points="168.5,-38.2 168.5,-187.2 308.5,-187.2 308.5,-38.2 168.5,-38.2"/>
<polygon fill="#f5f5f5" stroke="transparent" points="168.5,-163.7 168.5,-186.7 308.5,-186.7 308.5,-163.7 168.5,-163.7"/>
<polygon fill="none" stroke="#000000" points="168.5,-163.7 168.5,-186.7 308.5,-186.7 308.5,-163.7 168.5,-163.7"/>
<text text-anchor="start" x="173.5" y="-172.3" font-family="Helvetica,sans-Serif" font-weight="bold" font-size="11.00" fill="#000000">user_sessions</text>
<text text-anchor="start" x="274.0219" y="-171.8" font-family="Helvetica,sans-Serif" font-size="11.00" fill="#000000">[table]</text>
<polygon fill="none" stroke="#000000" points="168.5,-141.7 168.5,-163.7 308.5,-163.7 308.5,-141.7 168.5,-141.7"/>
<image xlink:href="../../images/primaryKeys.png" width="11px" height="12px" preserveAspectRatio="xMinYMin meet" x="173.5" y="-158.7"/>
<text text-anchor="start" x="197.5" y="-148.8" font-family="Helvetica,sans-Serif" font-size="11.00" fill="#000000">id</text>
<polygon fill="#ffffff" stroke="transparent" points="168.5,-119.7 168.5,-141.7 308.5,-141.7 308.5,-119.7 168.5,-119.7"/>
<polygon fill="none" stroke="#000000" points="168.5,-119.7 168.5,-141.7 308.5,-141.7 308.5,-119.7 168.5,-119.7"/>
<image xlink:href="../../images/foreignKeys.png" width="11px" height="12px" preserveAspectRatio="xMinYMin meet" x="173.5" y="-136.7"/>
<text text-anchor="start" x="197.5" y="-126.8" font-family="Helvetica,sans-Serif" font-size="11.00" fill="#000000">user_id</text>
<polygon fill="#ffffff" stroke="transparent" points="168.5,-97.7 168.5,-119.7 308.5,-119.7 308.5,-97.7 168.5,-97.7"/>
<polygon fill="none" stroke="#000000" points="168.5,-97.7 168.5,-119.7 308.5,-119.7 308.5,-97.7 168.5,-97.7"/>
<text text-anchor="start" x="197.5" y="-104.8" font-family="Helvetica,sans-Serif" font-size="11.00" fill="#000000">token_hash</text>
<polygon fill="#ffffff" stroke="transparent" points="168.5,-75.7 168.5,-97.7 308.5,-97.7 308.5,-75.7 168.5,-75.7"/>
<polygon fill="none" stroke="#000000" points="168.5,-75.7 168.5,-97.7 308.5,-97.7 308.5,-75.7 168.5,-75.7"/>
<text text-anchor="start" x="197.5" y="-82.8" font-family="Helvetica,sans-Serif" font-size="11.00" fill="#000000">expires_at</text>
<polygon fill="none" stroke="#000000" points="168.5,-56.7 168.5,-75.7 308.5,-75.7 308.5,-56.7 168.5,-56.7"/>
<text text-anchor="start" x="171.5" y="-62.8" font-family="Helvetica,sans-Serif" font-size="11.00" fill="#000000">...</text>
<polygon fill="#ffffff" stroke="transparent" points="168.5,-37.7 168.5,-56.7 308.5,-56.7 308.5,-37.7 168.5,-37.7"/>
<polygon fill="none" stroke="#000000" points="168.5,-37.7 168.5,-56.7 308.5,-56.7 308.5,-37.7 168.5,-37.7"/>
<polygon fill="#ffffff" stroke="transparent" points="169.5,-38.7 169.5,-55.7 221.5,-55.7 221.5,-38.7 169.5,-38.7"/>
<text text-anchor="start" x="171.5" y="-43.8" font-family="Helvetica,sans-Serif" font-size="11.00" fill="#000000">&lt; 1</text>
<polygon fill="#ffffff" stroke="transparent" points="221.5,-38.7 221.5,-55.7 264.5,-55.7 264.5,-38.7 221.5,-38.7"/>
<text text-anchor="start" x="239.9431" y="-43.8" font-family="Helvetica,sans-Serif" font-size="11.00" fill="#000000"> &#160;</text>
<polygon fill="#ffffff" stroke="transparent" points="264.5,-38.7 264.5,-55.7 307.5,-55.7 307.5,-38.7 264.5,-38.7"/>
<text text-anchor="start" x="299.3862" y="-43.8" font-family="Helvetica,sans-Serif" font-size="11.00" fill="#000000"> &#160;</text>
<polygon fill="#000000" stroke="#000000" points="221.5,-38.7 221.5,-55.7 221.5,-55.7 221.5,-38.7 221.5,-38.7"/>
<polygon fill="#000000" stroke="#000000" points="264.5,-38.7 264.5,-55.7 264.5,-55.7 264.5,-38.7 264.5,-38.7"/>
</a>
</g>
</g>
<!-- user_sessions&#45;&gt;users -->
<g id="edge7" class="edge">
<title>user_sessions:w&#45;&gt;users:e</title>
<path fill="none" stroke="#000000" d="M154.2643,-133.1032C102.3074,-153.7658 185.5864,-300.7 111.5,-300.7"/>
<polygon fill="#000000" stroke="#000000" points="160.6116,-132.0317 169.0993,-134.2498 164.5558,-131.3659 168.5,-130.7 168.5,-130.7 168.5,-130.7 164.5558,-131.3659 167.9007,-127.1502 160.6116,-132.0317 160.6116,-132.0317"/>
<ellipse fill="none" stroke="#000000" cx="157.4563" cy="-132.5644" rx="3.2" ry="3.2"/>
</g>
</g>
</svg>
