<?xml version="1.0" encoding="UTF-8" standalone="no"?>
<!DOCTYPE svg PUBLIC "-//W3C//DTD SVG 1.1//EN"
 "http://www.w3.org/Graphics/SVG/1.1/DTD/svg11.dtd">
<!-- Generated by graphviz version 2.40.1 (20161225.0304)
 -->
<!-- Title: oneDegreeRelationshipsDiagram Pages: 1 -->
<svg width="644pt" height="448pt"
 viewBox="0.00 0.00 644.00 448.20" xmlns="http://www.w3.org/2000/svg" xmlns:xlink="http://www.w3.org/1999/xlink">
<g id="graph0" class="graph" transform="scale(1 1) rotate(0) translate(4 444.2)">
<title>oneDegreeRelationshipsDiagram</title>
<polygon fill="#ffffff" stroke="transparent" points="-4,4 -4,-444.2 640,-444.2 640,4 -4,4"/>
<text text-anchor="middle" x="72.4936" y="-7.3" font-family="Helvetica,sans-Serif" font-size="11.00" fill="#000000">Generated by SchemaSpy</text>
<!-- summaries -->
<g id="node1" class="node">
<title>summaries</title>
<g id="a_node1"><a xlink:href="../../tables/summaries.html" xlink:title="summaries" target="_top">
<polygon fill="#ffffff" stroke="transparent" points="160,-133.7 160,-282.7 305,-282.7 305,-133.7 160,-133.7"/>
<polygon fill="#f5f5f5" stroke="transparent" points="160.5,-259.2 160.5,-282.2 305.5,-282.2 305.5,-259.2 160.5,-259.2"/>
<polygon fill="none" stroke="#000000" points="160.5,-259.2 160.5,-282.2 305.5,-282.2 305.5,-259.2 160.5,-259.2"/>
<text text-anchor="start" x="165.5" y="-267.8" font-family="Helvetica,sans-Serif" font-weight="bold" font-size="11.00" fill="#000000">summaries</text>
<text text-anchor="start" x="270.5437" y="-267.3" font-family="Helvetica,sans-Serif" font-size="11.00" fill="#000000">[table]</text>
<polygon fill="none" stroke="#000000" points="160.5,-237.2 160.5,-259.2 305.5,-259.2 305.5,-237.2 160.5,-237.2"/>
<image xlink:href="../../images/primaryKeys.png" width="11px" height="12px" preserveAspectRatio="xMinYMin meet" x="165.5" y="-254.2"/>
<text text-anchor="start" x="180.5" y="-244.3" font-family="Helvetica,sans-Serif" font-size="11.00" fill="#000000">id</text>
<polygon fill="#ffffff" stroke="transparent" points="160.5,-215.2 160.5,-237.2 305.5,-237.2 305.5,-215.2 160.5,-215.2"/>
<polygon fill="none" stroke="#000000" points="160.5,-215.2 160.5,-237.2 305.5,-237.2 305.5,-215.2 160.5,-215.2"/>
<text text-anchor="start" x="180.5" y="-222.3" font-family="Helvetica,sans-Serif" font-size="11.00" fill="#000000">content_hash</text>
<polygon fill="#ffffff" stroke="transparent" points="160.5,-193.2 160.5,-215.2 305.5,-215.2 305.5,-193.2 160.5,-193.2"/>
<polygon fill="none" stroke="#000000" points="160.5,-193.2 160.5,-215.2 305.5,-215.2 305.5,-193.2 160.5,-193.2"/>
<image xlink:href="../../images/foreignKeys.png" width="11px" height="12px" preserveAspectRatio="xMinYMin meet" x="165.5" y="-210.2"/>
<text text-anchor="start" x="180.5" y="-200.3" font-family="Helvetica,sans-Serif" font-size="11.00" fill="#000000">user_id</text>
<polygon fill="#ffffff" stroke="transparent" points="160.5,-171.2 160.5,-193.2 305.5,-193.2 305.5,-171.2 160.5,-171.2"/>
<polygon fill="none" stroke="#000000" points="160.5,-171.2 160.5,-193.2 305.5,-193.2 305.5,-171.2 160.5,-171.2"/>
<image xlink:href="../../images/foreignKeys.png" width="11px" height="12px" preserveAspectRatio="xMinYMin meet" x="165.5" y="-188.2"/>
<text text-anchor="start" x="180.5" y="-178.3" font-family="Helvetica,sans-Serif" font-size="11.00" fill="#000000">group_id</text>
<polygon fill="none" stroke="#000000" points="160.5,-152.2 160.5,-171.2 305.5,-171.2 305.5,-152.2 160.5,-152.2"/>
<text text-anchor="start" x="163.5" y="-158.3" font-family="Helvetica,sans-Serif" font-size="11.00" fill="#000000">...</text>
<polygon fill="#ffffff" stroke="transparent" points="160.5,-133.2 160.5,-152.2 305.5,-152.2 305.5,-133.2 160.5,-133.2"/>
<polygon fill="none" stroke="#000000" points="160.5,-133.2 160.5,-152.2 305.5,-152.2 305.5,-133.2 160.5,-133.2"/>
<polygon fill="#ffffff" stroke="transparent" points="161.5,-134.2 161.5,-151.2 212.5,-151.2 212.5,-134.2 161.5,-134.2"/>
<text text-anchor="start" x="163.5" y="-139.3" font-family="Helvetica,sans-Serif" font-size="11.00" fill="#000000">&lt; 2</text>
<polygon fill="#ffffff" stroke="transparent" points="212.5,-134.2 212.5,-151.2 254.5,-151.2 254.5,-134.2 212.5,-134.2"/>
<text text-anchor="start" x="230.4431" y="-139.3" font-family="Helvetica,sans-Serif" font-size="11.00" fill="#000000"> &#160;</text>
<polygon fill="#ffffff" stroke="transparent" points="254.5,-134.2 254.5,-151.2 304.5,-151.2 304.5,-134.2 254.5,-134.2"/>
<text text-anchor="start" x="286.9053" y="-139.3" font-family="Helvetica,sans-Serif" font-size="11.00" fill="#000000">5 &gt;</text>
<polygon fill="#000000" stroke="#000000" points="212.5,-134.2 212.5,-151.2 212.5,-151.2 212.5,-134.2 212.5,-134.2"/>
<polygon fill="#000000" stroke="#000000" points="254.5,-134.2 254.5,-151.2 254.5,-151.2 254.5,-134.2 254.5,-134.2"/>
</a>
</g>
</g>
<!-- users -->
<g id="node2" class="node">
<title>users</title>
<g id="a_node2"><a xlink:href="../../tables/users.html" xlink:title="users" target="_top">
<polygon fill="#ffffff" stroke="transparent" points="8,-206.7 8,-289.7 111,-289.7 111,-206.7 8,-206.7"/>
<polygon fill="#f5f5f5" stroke="transparent" points="8.5,-266.2 8.5,-289.2 111.5,-289.2 111.5,-266.2 8.5,-266.2"/>
<polygon fill="none" stroke="#000000" points="8.5,-266.2 8.5,-289.2 111.5,-289.2 111.5,-266.2 8.5,-266.2"/>
<text text-anchor="start" x="13.5" y="-274.8" font-family="Helvetica,sans-Serif" font-weight="bold" font-size="11.00" fill="#000000">users</text>
<text text-anchor="start" x="76.5437" y="-274.3" font-family="Helvetica,sans-Serif" font-size="11.00" fill="#000000">[table]</text>
<polygon fill="none" stroke="#000000" points="8.5,-244.2 8.5,-266.2 111.5,-266.2 111.5,-244.2 8.5,-244.2"/>
<image xlink:href="../../images/primaryKeys.png" width="11px" height="12px" preserveAspectRatio="xMinYMin meet" x="13.5" y="-261.2"/>
<text text-anchor="start" x="28.5" y="-251.3" font-family="Helvetica,sans-Serif" font-size="11.00" fill="#000000">id</text>
<polygon fill="none" stroke="#000000" points="8.5,-225.2 8.5,-244.2 111.5,-244.2 111.5,-225.2 8.5,-225.2"/>
<text text-anchor="start" x="11.5" y="-231.3" font-family="Helvetica,sans-Serif" font-size="11.00" fill="#000000">...</text>
<polygon fill="#ffffff" stroke="transparent" points="8.5,-206.2 8.5,-225.2 111.5,-225.2 111.5,-206.2 8.5,-206.2"/>
<polygon fill="none" stroke="#000000" points="8.5,-206.2 8.5,-225.2 111.5,-225.2 111.5,-206.2 8.5,-206.2"/>
<polygon fill="#ffffff" stroke="transparent" points="9.5,-207.2 9.5,-224.2 40.5,-224.2 40.5,-207.2 9.5,-207.2"/>
<text text-anchor="start" x="11.5" y="-212.3" font-family="Helvetica,sans-Serif" font-size="11.00" fill="#000000"> &#160;</text>
<polygon fill="#ffffff" stroke="transparent" points="40.5,-207.2 40.5,-224.2 71.5,-224.2 71.5,-207.2 40.5,-207.2"/>
<text text-anchor="start" x="52.9431" y="-212.3" font-family="Helvetica,sans-Serif" font-size="11.00" fill="#000000"> &#160;</text>
<polygon fill="#ffffff" stroke="transparent" points="71.5,-207.2 71.5,-224.2 110.5,-224.2 110.5,-207.2 71.5,-207.2"/>
<text text-anchor="start" x="92.9053" y="-212.3" font-family="Helvetica,sans-Serif" font-size="11.00" fill="#000000">5 &gt;</text>
<polygon fill="#000000" stroke="#000000" points="40.5,-207.2 40.5,-224.2 40.5,-224.2 40.5,-207.2 40.5,-207.2"/>
<polygon fill="#000000" stroke="#000000" points="71.5,-207.2 71.5,-224.2 71.5,-224.2 71.5,-207.2 71.5,-207.2"/>
</a>
</g>
</g>
<!-- summaries&#45;&gt;users -->
<g id="edge1" class="edge">
<title>summaries:w&#45;&gt;users:e</title>
<path fill="none" stroke="#000000" d="M146.5912,-209.2765C132.7553,-222.1764 136.7939,-255.2 111.5,-255.2"/>
<polygon fill="#000000" stroke="#000000" points="152.9849,-206.9429 161.7343,-207.5818 156.7425,-205.5715 160.5,-204.2 160.5,-204.2 160.5,-204.2 156.7425,-205.5715 159.2657,-200.8182 152.9849,-206.9429 152.9849,-206.9429"/>
<ellipse fill="none" stroke="#000000" cx="149.9789" cy="-208.0401" rx="3.2" ry="3.2"/>
</g>
<!-- transcription_jobs -->
<g id="node3" class="node">
<title>transcription_jobs</title>
<g id="a_node3"><a xlink:href="../../tables/transcription_jobs.html" xlink:title="transcription_jobs" target="_top">
<polygon fill="#ffffff" stroke="transparent" points="354,-38.2 354,-436.2 628,-436.2 628,-38.2 354,-38.2"/>
<polygon fill="#f5f5f5" stroke="transparent" points="356,-411.2 356,-434.2 626,-434.2 626,-411.2 356,-411.2"/>
<polygon fill="none" stroke="#000000" points="356,-411.2 356,-434.2 626,-434.2 626,-411.2 356,-411.2"/>
<text text-anchor="start" x="361" y="-419.8" font-family="Helvetica,sans-Serif" font-weight="bold" font-size="11.00" fill="#000000">transcription_jobs</text>
<text text-anchor="start" x="591.0437" y="-419.3" font-family="Helvetica,sans-Serif" font-size="11.00" fill="#000000">[table]</text>
<polygon fill="none" stroke="#000000" points="356,-389.2 356,-411.2 509,-411.2 509,-389.2 356,-389.2"/>
<image xlink:href="../../images/primaryKeys.png" width="11px" height="12px" preserveAspectRatio="xMinYMin meet" x="361" y="-406.2"/>
<text text-anchor="start" x="376" y="-396.3" font-family="Helvetica,sans-Serif" font-size="11.00" fill="#000000">id</text>
<polygon fill="none" stroke="#000000" points="509,-389.2 509,-411.2 626,-411.2 626,-389.2 509,-389.2"/>
<text text-anchor="start" x="512" y="-396.9" font-family="Helvetica,sans-Serif" font-size="11.00" fill="#000000">uuid[2147483647]</text>
<polygon fill="#ffffff" stroke="transparent" points="356,-367.2 356,-389.2 509,-389.2 509,-367.2 356,-367.2"/>
<polygon fill="none" stroke="#000000" points="356,-367.2 356,-389.2 509,-389.2 509,-367.2 356,-367.2"/>
<image xlink:href="../../images/foreignKeys.png" width="11px" height="12px" preserveAspectRatio="xMinYMin meet" x="361" y="-384.2"/>
<text text-anchor="start" x="376" y="-374.3" font-family="Helvetica,sans-Serif" font-size="11.00" fill="#000000">user_id</text>
<polygon fill="none" stroke="#000000" points="509,-367.2 509,-389.2 626,-389.2 626,-367.2 509,-367.2"/>
<text text-anchor="start" x="512" y="-374.9" font-family="Helvetica,sans-Serif" font-size="11.00" fill="#000000">uuid[2147483647]</text>
<polygon fill="#ffffff" stroke="transparent" points="356,-345.2 356,-367.2 509,-367.2 509,-345.2 356,-345.2"/>
<polygon fill="none" stroke="#000000" points="356,-345.2 356,-367.2 509,-367.2 509,-345.2 356,-345.2"/>
<text text-anchor="start" x="376" y="-352.3" font-family="Helvetica,sans-Serif" font-size="11.00" fill="#000000">status</text>
<polygon fill="none" stroke="#000000" points="509,-345.2 509,-367.2 626,-367.2 626,-345.2 509,-345.2"/>
<text text-anchor="start" x="511.8615" y="-352.9" font-family="Helvetica,sans-Serif" font-size="11.00" fill="#000000">jobstatus[2147483647]</text>
<polygon fill="none" stroke="#000000" points="356,-323.2 356,-345.2 509,-345.2 509,-323.2 356,-323.2"/>
<text text-anchor="start" x="376" y="-330.3" font-family="Helvetica,sans-Serif" font-size="11.00" fill="#000000">filename</text>
<polygon fill="none" stroke="#000000" points="509,-323.2 509,-345.2 626,-345.2 626,-323.2 509,-323.2"/>
<text text-anchor="start" x="512" y="-330.9" font-family="Helvetica,sans-Serif" font-size="11.00" fill="#000000">varchar[255]</text>
<polygon fill="#ffffff" stroke="transparent" points="356,-301.2 356,-323.2 509,-323.2 509,-301.2 356,-301.2"/>
<polygon fill="none" stroke="#000000" points="356,-301.2 356,-323.2 509,-323.2 509,-301.2 356,-301.2"/>
<text text-anchor="start" x="376" y="-308.3" font-family="Helvetica,sans-Serif" font-size="11.00" fill="#000000">content_hash</text>
<polygon fill="none" stroke="#000000" points="509,-301.2 509,-323.2 626,-323.2 626,-301.2 509,-301.2"/>
<text text-anchor="start" x="512" y="-308.9" font-family="Helvetica,sans-Serif" font-size="11.00" fill="#000000">varchar[64]</text>
<polygon fill="none" stroke="#000000" points="356,-279.2 356,-301.2 509,-301.2 509,-279.2 356,-279.2"/>
<text text-anchor="start" x="376" y="-286.3" font-family="Helvetica,sans-Serif" font-size="11.00" fill="#000000">num_speakers</text>
<polygon fill="none" stroke="#000000" points="509,-279.2 509,-301.2 626,-301.2 626,-279.2 509,-279.2"/>
<text text-anchor="start" x="512" y="-286.9" font-family="Helvetica,sans-Serif" font-size="11.00" fill="#000000">int4[10]</text>
<polygon fill="none" stroke="#000000" points="356,-257.2 356,-279.2 509,-279.2 509,-257.2 356,-257.2"/>
<text text-anchor="start" x="376" y="-264.3" font-family="Helvetica,sans-Serif" font-size="11.00" fill="#000000">media_key</text>
<polygon fill="none" stroke="#000000" points="509,-257.2 509,-279.2 626,-279.2 626,-257.2 509,-257.2"/>
<text text-anchor="start" x="512" y="-264.9" font-family="Helvetica,sans-Serif" font-size="11.00" fill="#000000">varchar[255]</text>
<polygon fill="none" stroke="#000000" points="356,-235.2 356,-257.2 509,-257.2 509,-235.2 356,-235.2"/>
<text text-anchor="start" x="376" y="-242.3" font-family="Helvetica,sans-Serif" font-size="11.00" fill="#000000">recorded_at</text>
<polygon fill="none" stroke="#000000" points="509,-235.2 509,-257.2 626,-257.2 626,-235.2 509,-235.2"/>
<text text-anchor="start" x="512" y="-242.9" font-family="Helvetica,sans-Serif" font-size="11.00" fill="#000000">date[13]</text>
<polygon fill="#ffffff" stroke="transparent" points="356,-213.2 356,-235.2 509,-235.2 509,-213.2 356,-213.2"/>
<polygon fill="none" stroke="#000000" points="356,-213.2 356,-235.2 509,-235.2 509,-213.2 356,-213.2"/>
<image xlink:href="../../images/foreignKeys.png" width="11px" height="12px" preserveAspectRatio="xMinYMin meet" x="361" y="-230.2"/>
<text text-anchor="start" x="376" y="-220.3" font-family="Helvetica,sans-Serif" font-size="11.00" fill="#000000">summary_id</text>
<polygon fill="none" stroke="#000000" points="509,-213.2 509,-235.2 626,-235.2 626,-213.2 509,-213.2"/>
<text text-anchor="start" x="512" y="-220.9" font-family="Helvetica,sans-Serif" font-size="11.00" fill="#000000">uuid[2147483647]</text>
<polygon fill="none" stroke="#000000" points="356,-191.2 356,-213.2 509,-213.2 509,-191.2 356,-191.2"/>
<text text-anchor="start" x="376" y="-198.3" font-family="Helvetica,sans-Serif" font-size="11.00" fill="#000000">error</text>
<polygon fill="none" stroke="#000000" points="509,-191.2 509,-213.2 626,-213.2 626,-191.2 509,-191.2"/>
<text text-anchor="start" x="512" y="-198.9" font-family="Helvetica,sans-Serif" font-size="11.00" fill="#000000">varchar[2147483647]</text>
<polygon fill="#ffffff" stroke="transparent" points="356,-169.2 356,-191.2 509,-191.2 509,-169.2 356,-169.2"/>
<polygon fill="none" stroke="#000000" points="356,-169.2 356,-191.2 509,-191.2 509,-169.2 356,-169.2"/>
<text text-anchor="start" x="376" y="-176.3" font-family="Helvetica,sans-Serif" font-size="11.00" fill="#000000">created_at</text>
<polygon fill="none" stroke="#000000" points="509,-169.2 509,-191.2 626,-191.2 626,-169.2 509,-169.2"/>
<text text-anchor="start" x="512" y="-176.9" font-family="Helvetica,sans-Serif" font-size="11.00" fill="#000000">timestamptz[35,6]</text>
<polygon fill="none" stroke="#000000" points="356,-147.2 356,-169.2 509,-169.2 509,-147.2 356,-147.2"/>
<text text-anchor="start" x="376" y="-154.3" font-family="Helvetica,sans-Serif" font-size="11.00" fill="#000000">updated_at</text>
<polygon fill="none" stroke="#000000" points="509,-147.2 509,-169.2 626,-169.2 626,-147.2 509,-147.2"/>
<text text-anchor="start" x="512" y="-154.9" font-family="Helvetica,sans-Serif" font-size="11.00" fill="#000000">timestamptz[35,6]</text>
<polygon fill="none" stroke="#000000" points="356,-125.2 356,-147.2 509,-147.2 509,-125.2 356,-125.2"/>
<text text-anchor="start" x="376" y="-132.3" font-family="Helvetica,sans-Serif" font-size="11.00" fill="#000000">started_at</text>
<polygon fill="none" stroke="#000000" points="509,-125.2 509,-147.2 626,-147.2 626,-125.2 509,-125.2"/>
<text text-anchor="start" x="512" y="-132.9" font-family="Helvetica,sans-Serif" font-size="11.00" fill="#000000">timestamptz[35,6]</text>
<polygon fill="none" stroke="#000000" points="356,-103.2 356,-125.2 509,-125.2 509,-103.2 356,-103.2"/>
<text text-anchor="start" x="376" y="-110.3" font-family="Helvetica,sans-Serif" font-size="11.00" fill="#000000">completed_at</text>
<polygon fill="none" stroke="#000000" points="509,-103.2 509,-125.2 626,-125.2 626,-103.2 509,-103.2"/>
<text text-anchor="start" x="512" y="-110.9" font-family="Helvetica,sans-Serif" font-size="11.00" fill="#000000">timestamptz[35,6]</text>
<polygon fill="none" stroke="#000000" points="356,-81.2 356,-103.2 509,-103.2 509,-81.2 356,-81.2"/>
<text text-anchor="start" x="376" y="-88.3" font-family="Helvetica,sans-Serif" font-size="11.00" fill="#000000">owner_attempt</text>
<polygon fill="none" stroke="#000000" points="509,-81.2 509,-103.2 626,-103.2 626,-81.2 509,-81.2"/>
<text text-anchor="start" x="512" y="-88.9" font-family="Helvetica,sans-Serif" font-size="11.00" fill="#000000">int4[10]</text>
<polygon fill="none" stroke="#000000" points="356,-59.2 356,-81.2 509,-81.2 509,-59.2 356,-59.2"/>
<text text-anchor="start" x="376" y="-66.3" font-family="Helvetica,sans-Serif" font-size="11.00" fill="#000000">heartbeat_at</text>
<polygon fill="none" stroke="#000000" points="509,-59.2 509,-81.2 626,-81.2 626,-59.2 509,-59.2"/>
<text text-anchor="start" x="512" y="-66.9" font-family="Helvetica,sans-Serif" font-size="11.00" fill="#000000">timestamptz[35,6]</text>
<polygon fill="#ffffff" stroke="transparent" points="356,-40.2 356,-59.2 626,-59.2 626,-40.2 356,-40.2"/>
<polygon fill="none" stroke="#000000" points="356,-40.2 356,-59.2 626,-59.2 626,-40.2 356,-40.2"/>
<polygon fill="#ffffff" stroke="transparent" points="357,-41.2 357,-58.2 450,-58.2 450,-41.2 357,-41.2"/>
<text text-anchor="start" x="359" y="-46.3" font-family="Helvetica,sans-Serif" font-size="11.00" fill="#000000">&lt; 2</text>
<polygon fill="#ffffff" stroke="transparent" points="450,-41.2 450,-58.2 533,-58.2 533,-41.2 450,-41.2"/>
<text text-anchor="start" x="488.4431" y="-46.3" font-family="Helvetica,sans-Serif" font-size="11.00" fill="#000000"> &#160;</text>
<polygon fill="#ffffff" stroke="transparent" points="533,-41.2 533,-58.2 625,-58.2 625,-41.2 533,-41.2"/>
<text text-anchor="start" x="607.4053" y="-46.3" font-family="Helvetica,sans-Serif" font-size="11.00" fill="#000000">0 &gt;</text>
<polygon fill="#000000" stroke="#000000" points="450,-41.2 450,-58.2 450,-58.2 450,-41.2 450,-41.2"/>
<polygon fill="#000000" stroke="#000000" points="533,-41.2 533,-58.2 533,-58.2 533,-41.2 533,-41.2"/>
<polygon fill="none" stroke="#000000" stroke-width="2" points="355,-39.2 355,-435.2 627,-435.2 627,-39.2 355,-39.2"/>
</a>
</g>
</g>
<!-- transcription_jobs&#45;&gt;summaries -->
<g id="edge2" class="edge">
<title>transcription_jobs:w&#45;&gt;summaries:e</title>
<path fill="none" stroke="#000000" d="M341.8713,-227.5371C329.4539,-234.1316 324.5259,-248.2 305.5,-248.2"/>
<polygon fill="#000000" stroke="#000000" points="348.2142,-226.039 356.8275,-227.7036 352.1071,-225.1195 356,-224.2 356,-224.2 356,-224.2 352.1071,-225.1195 355.1725,-220.6964 348.2142,-226.039 348.2142,-226.039"/>
<ellipse fill="none" stroke="#000000" cx="345.0999" cy="-226.7746" rx="3.2" ry="3.2"/>
</g>
<!-- transcription_jobs&#45;&gt;users -->
<g id="edge3" class="edge">
<title>transcription_jobs:w&#45;&gt;users:e</title>
<path fill="none" stroke="#000000" d="M341.5985,-377.9564C255.2581,-374.9295 230.2833,-343.8396 152,-293.2 131.2754,-279.7938 136.1827,-255.2 111.5,-255.2"/>
<polygon fill="#000000" stroke="#000000" points="348.0011,-378.0647 355.9391,-381.7995 352.0006,-378.1323 356,-378.2 356,-378.2 356,-378.2 352.0006,-378.1323 356.0609,-374.6005 348.0011,-378.0647 348.0011,-378.0647"/>
<ellipse fill="none" stroke="#000000" cx="344.8016" cy="-378.0105" rx="3.2" ry="3.2"/>
</g>
</g>
</svg>
