<?xml version="1.0" encoding="UTF-8" standalone="no"?>
<!DOCTYPE svg PUBLIC "-//W3C//DTD SVG 1.1//EN"
 "http://www.w3.org/Graphics/SVG/1.1/DTD/svg11.dtd">
<!-- Generated by graphviz version 2.40.1 (20161225.0304)
 -->
<!-- Title: compactRelationshipsDiagram Pages: 1 -->
<svg width="898pt" height="1059pt"
 viewBox="0.00 0.00 898.00 1058.70" xmlns="http://www.w3.org/2000/svg" xmlns:xlink="http://www.w3.org/1999/xlink">
<g id="graph0" class="graph" transform="scale(1 1) rotate(0) translate(4 1054.7)">
<title>compactRelationshipsDiagram</title>
<polygon fill="#ffffff" stroke="transparent" points="-4,4 -4,-1054.7 894,-1054.7 894,4 -4,4"/>
<text text-anchor="middle" x="72.4936" y="-7.3" font-family="Helvetica,sans-Serif" font-size="11.00" fill="#000000">Generated by SchemaSpy</text>
<!-- summary_groups -->
<g id="node1" class="node">
<title>summary_groups</title>
<g id="a_node1"><a xlink:href="../../tables/summary_groups.html" xlink:title="summary_groups" target="_top">
<polygon fill="#ffffff" stroke="transparent" points="286,-406.2 286,-533.2 450,-533.2 450,-406.2 286,-406.2"/>
<polygon fill="#f5f5f5" stroke="transparent" points="286,-509.7 286,-532.7 450,-532.7 450,-509.7 286,-509.7"/>
<polygon fill="none" stroke="#000000" points="286,-509.7 286,-532.7 450,-532.7 450,-509.7 286,-509.7"/>
<text text-anchor="start" x="291" y="-518.3" font-family="Helvetica,sans-Serif" font-weight="bold" font-size="11.00" fill="#000000">summary_groups</text>
<text text-anchor="start" x="415.5219" y="-517.8" font-family="Helvetica,sans-Serif" font-size="11.00" fill="#000000">[table]</text>
<polygon fill="none" stroke="#000000" points="286,-487.7 286,-509.7 450,-509.7 450,-487.7 286,-487.7"/>
<image xlink:href="../../images/primaryKeys.png" width="11px" height="12px" preserveAspectRatio="xMinYMin meet" x="291" y="-504.7"/>
<text text-anchor="start" x="315" y="-494.8" font-family="Helvetica,sans-Serif" font-size="11.00" fill="#000000">id</text>
<polygon fill="#ffffff" stroke="transparent" points="286,-465.7 286,-487.7 450,-487.7 450,-465.7 286,-465.7"/>
<polygon fill="none" stroke="#000000" points="286,-465.7 286,-487.7 450,-487.7 450,-465.7 286,-465.7"/>
<image xlink:href="../../images/foreignKeys.png" width="11px" height="12px" preserveAspectRatio="xMinYMin meet" x="291" y="-482.7"/>
<text text-anchor="start" x="315" y="-472.8" font-family="Helvetica,sans-Serif" font-size="11.00" fill="#000000">user_id</text>
<polygon fill="#ffffff" stroke="transparent" points="286,-443.7 286,-465.7 450,-465.7 450,-443.7 286,-443.7"/>
<polygon fill="none" stroke="#000000" points="286,-443.7 286,-465.7 450,-465.7 450,-443.7 286,-443.7"/>
<text text-anchor="start" x="315" y="-450.8" font-family="Helvetica,sans-Serif" font-size="11.00" fill="#000000">name</text>
<polygon fill="none" stroke="#000000" points="286,-424.7 286,-443.7 450,-443.7 450,-424.7 286,-424.7"/>
<text text-anchor="start" x="289" y="-430.8" font-family="Helvetica,sans-Serif" font-size="11.00" fill="#000000">...</text>
<polygon fill="#ffffff" stroke="transparent" points="286,-405.7 286,-424.7 450,-424.7 450,-405.7 286,-405.7"/>
<polygon fill="none" stroke="#000000" points="286,-405.7 286,-424.7 450,-424.7 450,-405.7 286,-405.7"/>
<polygon fill="#ffffff" stroke="transparent" points="287,-406.7 287,-423.7 344,-423.7 344,-406.7 287,-406.7"/>
<text text-anchor="start" x="289" y="-411.8" font-family="Helvetica,sans-Serif" font-size="11.00" fill="#000000">&lt; 1</text>
<polygon fill="#ffffff" stroke="transparent" points="344,-406.7 344,-423.7 392,-423.7 392,-406.7 344,-406.7"/>
<text text-anchor="start" x="364.9431" y="-411.8" font-family="Helvetica,sans-Serif" font-size="11.00" fill="#000000"> &#160;</text>
<polygon fill="#ffffff" stroke="transparent" points="392,-406.7 392,-423.7 449,-423.7 449,-406.7 392,-406.7"/>
<text text-anchor="start" x="431.4053" y="-411.8" font-family="Helvetica,sans-Serif" font-size="11.00" fill="#000000">1 &gt;</text>
<polygon fill="#000000" stroke="#000000" points="344,-406.7 344,-423.7 344,-423.7 344,-406.7 344,-406.7"/>
<polygon fill="#000000" stroke="#000000" points="392,-406.7 392,-423.7 392,-423.7 392,-406.7 392,-406.7"/>
</a>
</g>
</g>
<!-- users -->
<g id="node8" class="node">
<title>users</title>
<g id="a_node8"><a xlink:href="../../tables/users.html" xlink:title="users" target="_top">
<polygon fill="#ffffff" stroke="transparent" points="134,-280.2 134,-363.2 237,-363.2 237,-280.2 134,-280.2"/>
<polygon fill="#f5f5f5" stroke="transparent" points="134.5,-339.7 134.5,-362.7 237.5,-362.7 237.5,-339.7 134.5,-339.7"/>
<polygon fill="none" stroke="#000000" points="134.5,-339.7 134.5,-362.7 237.5,-362.7 237.5,-339.7 134.5,-339.7"/>
<text text-anchor="start" x="139.5" y="-348.3" font-family="Helvetica,sans-Serif" font-weight="bold" font-size="11.00" fill="#000000">users</text>
<text text-anchor="start" x="202.5437" y="-347.8" font-family="Helvetica,sans-Serif" font-size="11.00" fill="#000000">[table]</text>
<polygon fill="none" stroke="#000000" points="134.5,-317.7 134.5,-339.7 237.5,-339.7 237.5,-317.7 134.5,-317.7"/>
<image xlink:href="../../images/primaryKeys.png" width="11px" height="12px" preserveAspectRatio="xMinYMin meet" x="139.5" y="-334.7"/>
<text text-anchor="start" x="154.5" y="-324.8" font-family="Helvetica,sans-Serif" font-size="11.00" fill="#000000">id</text>
<polygon fill="none" stroke="#000000" points="134.5,-298.7 134.5,-317.7 237.5,-317.7 237.5,-298.7 134.5,-298.7"/>
<text text-anchor="start" x="137.5" y="-304.8" font-family="Helvetica,sans-Serif" font-size="11.00" fill="#000000">...</text>
<polygon fill="#ffffff" stroke="transparent" points="134.5,-279.7 134.5,-298.7 237.5,-298.7 237.5,-279.7 134.5,-279.7"/>
<polygon fill="none" stroke="#000000" points="134.5,-279.7 134.5,-298.7 237.5,-298.7 237.5,-279.7 134.5,-279.7"/>
<polygon fill="#ffffff" stroke="transparent" points="135.5,-280.7 135.5,-297.7 166.5,-297.7 166.5,-280.7 135.5,-280.7"/>
<text text-anchor="start" x="137.5" y="-285.8" font-family="Helvetica,sans-Serif" font-size="11.00" fill="#000000"> &#160;</text>
<polygon fill="#ffffff" stroke="transparent" points="166.5,-280.7 166.5,-297.7 197.5,-297.7 197.5,-280.7 166.5,-280.7"/>
<text text-anchor="start" x="178.9431" y="-285.8" font-family="Helvetica,sans-Serif" font-size="11.00" fill="#000000"> &#160;</text>
<polygon fill="#ffffff" stroke="transparent" points="197.5,-280.7 197.5,-297.7 236.5,-297.7 236.5,-280.7 197.5,-280.7"/>
<text text-anchor="start" x="218.9053" y="-285.8" font-family="Helvetica,sans-Serif" font-size="11.00" fill="#000000">5 &gt;</text>
<polygon fill="#000000" stroke="#000000" points="166.5,-280.7 166.5,-297.7 166.5,-297.7 166.5,-280.7 166.5,-280.7"/>
<polygon fill="#000000" stroke="#000000" points="197.5,-280.7 197.5,-297.7 197.5,-297.7 197.5,-280.7 197.5,-280.7"/>
</a>
</g>
</g>
<!-- summary_groups&#45;&gt;users -->
<g id="edge6" class="edge">
<title>summary_groups:w&#45;&gt;users:e</title>
<path fill="none" stroke="#000000" d="M271.7392,-473.7436C230.7647,-452.8845 300.9063,-328.7 237.5,-328.7"/>
<polygon fill="#000000" stroke="#000000" points="278.1666,-475.076 285.2692,-480.2251 282.0833,-475.888 286,-476.7 286,-476.7 286,-476.7 282.0833,-475.888 286.7308,-473.1749 278.1666,-475.076 278.1666,-475.076"/>
<ellipse fill="none" stroke="#000000" cx="275.0332" cy="-474.4265" rx="3.2" ry="3.2"/>
</g>
<!-- topics -->
<g id="node2" class="node">
<title>topics</title>
<g id="a_node2"><a xlink:href="../../tables/topics.html" xlink:title="topics" target="_top">
<polygon fill="#ffffff" stroke="transparent" points="733,-365.2 733,-470.2 842,-470.2 842,-365.2 733,-365.2"/>
<polygon fill="#f5f5f5" stroke="transparent" points="733.5,-446.7 733.5,-469.7 842.5,-469.7 842.5,-446.7 733.5,-446.7"/>
<polygon fill="none" stroke="#000000" points="733.5,-446.7 733.5,-469.7 842.5,-469.7 842.5,-446.7 733.5,-446.7"/>
<text text-anchor="start" x="738.5" y="-455.3" font-family="Helvetica,sans-Serif" font-weight="bold" font-size="11.00" fill="#000000">topics</text>
<text text-anchor="start" x="807.5437" y="-454.8" font-family="Helvetica,sans-Serif" font-size="11.00" fill="#000000">[table]</text>
<polygon fill="none" stroke="#000000" points="733.5,-424.7 733.5,-446.7 842.5,-446.7 842.5,-424.7 733.5,-424.7"/>
<image xlink:href="../../images/primaryKeys.png" width="11px" height="12px" preserveAspectRatio="xMinYMin meet" x="738.5" y="-441.7"/>
<text text-anchor="start" x="753.5" y="-431.8" font-family="Helvetica,sans-Serif" font-size="11.00" fill="#000000">id</text>
<polygon fill="#ffffff" stroke="transparent" points="733.5,-402.7 733.5,-424.7 842.5,-424.7 842.5,-402.7 733.5,-402.7"/>
<polygon fill="none" stroke="#000000" points="733.5,-402.7 733.5,-424.7 842.5,-424.7 842.5,-402.7 733.5,-402.7"/>
<image xlink:href="../../images/foreignKeys.png" width="11px" height="12px" preserveAspectRatio="xMinYMin meet" x="738.5" y="-419.7"/>
<text text-anchor="start" x="753.5" y="-409.8" font-family="Helvetica,sans-Serif" font-size="11.00" fill="#000000">summary_id</text>
<polygon fill="none" stroke="#000000" points="733.5,-383.7 733.5,-402.7 842.5,-402.7 842.5,-383.7 733.5,-383.7"/>
<text text-anchor="start" x="736.5" y="-389.8" font-family="Helvetica,sans-Serif" font-size="11.00" fill="#000000">...</text>
<polygon fill="#ffffff" stroke="transparent" points="733.5,-364.7 733.5,-383.7 842.5,-383.7 842.5,-364.7 733.5,-364.7"/>
<polygon fill="none" stroke="#000000" points="733.5,-364.7 733.5,-383.7 842.5,-383.7 842.5,-364.7 733.5,-364.7"/>
<polygon fill="#ffffff" stroke="transparent" points="734.5,-365.7 734.5,-382.7 776.5,-382.7 776.5,-365.7 734.5,-365.7"/>
<text text-anchor="start" x="736.5" y="-370.8" font-family="Helvetica,sans-Serif" font-size="11.00" fill="#000000">&lt; 1</text>
<polygon fill="#ffffff" stroke="transparent" points="776.5,-365.7 776.5,-382.7 809.5,-382.7 809.5,-365.7 776.5,-365.7"/>
<text text-anchor="start" x="789.9431" y="-370.8" font-family="Helvetica,sans-Serif" font-size="11.00" fill="#000000"> &#160;</text>
<polygon fill="#ffffff" stroke="transparent" points="809.5,-365.7 809.5,-382.7 841.5,-382.7 841.5,-365.7 809.5,-365.7"/>
<text text-anchor="start" x="833.3862" y="-370.8" font-family="Helvetica,sans-Serif" font-size="11.00" fill="#000000"> &#160;</text>
<polygon fill="#000000" stroke="#000000" points="776.5,-365.7 776.5,-382.7 776.5,-382.7 776.5,-365.7 776.5,-365.7"/>
<polygon fill="#000000" stroke="#000000" points="809.5,-365.7 809.5,-382.7 809.5,-382.7 809.5,-365.7 809.5,-365.7"/>
</a>
</g>
</g>
<!-- summaries -->
<g id="node4" class="node">
<title>summaries</title>
<g id="a_node4"><a xlink:href="../../tables/summaries.html" xlink:title="summaries" target="_top">
<polygon fill="#ffffff" stroke="transparent" points="499,-450.2 499,-599.2 644,-599.2 644,-450.2 499,-450.2"/>
<polygon fill="#f5f5f5" stroke="transparent" points="499.5,-575.7 499.5,-598.7 644.5,-598.7 644.5,-575.7 499.5,-575.7"/>
<polygon fill="none" stroke="#000000" points="499.5,-575.7 499.5,-598.7 644.5,-598.7 644.5,-575.7 499.5,-575.7"/>
<text text-anchor="start" x="504.5" y="-584.3" font-family="Helvetica,sans-Serif" font-weight="bold" font-size="11.00" fill="#000000">summaries</text>
<text text-anchor="start" x="609.5437" y="-583.8" font-family="Helvetica,sans-Serif" font-size="11.00" fill="#000000">[table]</text>
<polygon fill="none" stroke="#000000" points="499.5,-553.7 499.5,-575.7 644.5,-575.7 644.5,-553.7 499.5,-553.7"/>
<image xlink:href="../../images/primaryKeys.png" width="11px" height="12px" preserveAspectRatio="xMinYMin meet" x="504.5" y="-570.7"/>
<text text-anchor="start" x="519.5" y="-560.8" font-family="Helvetica,sans-Serif" font-size="11.00" fill="#000000">id</text>
<polygon fill="#ffffff" stroke="transparent" points="499.5,-531.7 499.5,-553.7 644.5,-553.7 644.5,-531.7 499.5,-531.7"/>
<polygon fill="none" stroke="#000000" points="499.5,-531.7 499.5,-553.7 644.5,-553.7 644.5,-531.7 499.5,-531.7"/>
<text text-anchor="start" x="519.5" y="-538.8" font-family="Helvetica,sans-Serif" font-size="11.00" fill="#000000">content_hash</text>
<polygon fill="#ffffff" stroke="transparent" points="499.5,-509.7 499.5,-531.7 644.5,-531.7 644.5,-509.7 499.5,-509.7"/>
<polygon fill="none" stroke="#000000" points="499.5,-509.7 499.5,-531.7 644.5,-531.7 644.5,-509.7 499.5,-509.7"/>
<image xlink:href="../../images/foreignKeys.png" width="11px" height="12px" preserveAspectRatio="xMinYMin meet" x="504.5" y="-526.7"/>
<text text-anchor="start" x="519.5" y="-516.8" font-family="Helvetica,sans-Serif" font-size="11.00" fill="#000000">user_id</text>
<polygon fill="#ffffff" stroke="transparent" points="499.5,-487.7 499.5,-509.7 644.5,-509.7 644.5,-487.7 499.5,-487.7"/>
<polygon fill="none" stroke="#000000" points="499.5,-487.7 499.5,-509.7 644.5,-509.7 644.5,-487.7 499.5,-487.7"/>
<image xlink:href="../../images/foreignKeys.png" width="11px" height="12px" preserveAspectRatio="xMinYMin meet" x="504.5" y="-504.7"/>
<text text-anchor="start" x="519.5" y="-494.8" font-family="Helvetica,sans-Serif" font-size="11.00" fill="#000000">group_id</text>
<polygon fill="none" stroke="#000000" points="499.5,-468.7 499.5,-487.7 644.5,-487.7 644.5,-468.7 499.5,-468.7"/>
<text text-anchor="start" x="502.5" y="-474.8" font-family="Helvetica,sans-Serif" font-size="11.00" fill="#000000">...</text>
<polygon fill="#ffffff" stroke="transparent" points="499.5,-449.7 499.5,-468.7 644.5,-468.7 644.5,-449.7 499.5,-449.7"/>
<polygon fill="none" stroke="#000000" points="499.5,-449.7 499.5,-468.7 644.5,-468.7 644.5,-449.7 499.5,-449.7"/>
<polygon fill="#ffffff" stroke="transparent" points="500.5,-450.7 500.5,-467.7 551.5,-467.7 551.5,-450.7 500.5,-450.7"/>
<text text-anchor="start" x="502.5" y="-455.8" font-family="Helvetica,sans-Serif" font-size="11.00" fill="#000000">&lt; 2</text>
<polygon fill="#ffffff" stroke="transparent" points="551.5,-450.7 551.5,-467.7 593.5,-467.7 593.5,-450.7 551.5,-450.7"/>
<text text-anchor="start" x="569.4431" y="-455.8" font-family="Helvetica,sans-Serif" font-size="11.00" fill="#000000"> &#160;</text>
<polygon fill="#ffffff" stroke="transparent" points="593.5,-450.7 593.5,-467.7 643.5,-467.7 643.5,-450.7 593.5,-450.7"/>
<text text-anchor="start" x="625.9053" y="-455.8" font-family="Helvetica,sans-Serif" font-size="11.00" fill="#000000">5 &gt;</text>
<polygon fill="#000000" stroke="#000000" points="551.5,-450.7 551.5,-467.7 551.5,-467.7 551.5,-450.7 551.5,-450.7"/>
<polygon fill="#000000" stroke="#000000" points="593.5,-450.7 593.5,-467.7 593.5,-467.7 593.5,-450.7 593.5,-450.7"/>
</a>
</g>
</g>
<!-- topics&#45;&gt;summaries -->
<g id="edge7" class="edge">
<title>topics:w&#45;&gt;summaries:e</title>
<path fill="none" stroke="#000000" d="M719.2143,-416.1451C698.3234,-424.6778 700.8915,-454.0633 685,-480.7 663.7652,-516.293 685.9461,-564.7 644.5,-564.7"/>
<polygon fill="#000000" stroke="#000000" points="725.6147,-415.0497 734.1074,-417.2484 729.5573,-414.3748 733.5,-413.7 733.5,-413.7 733.5,-413.7 729.5573,-414.3748 732.8926,-410.1516 725.6147,-415.0497 725.6147,-415.0497"/>
<ellipse fill="none" stroke="#000000" cx="722.4605" cy="-415.5896" rx="3.2" ry="3.2"/>
</g>
<!-- decisions -->
<g id="node3" class="node">
<title>decisions</title>
<g id="a_node3"><a xlink:href="../../tables/decisions.html" xlink:title="decisions" target="_top">
<polygon fill="#ffffff" stroke="transparent" points="733,-765.2 733,-870.2 842,-870.2 842,-765.2 733,-765.2"/>
<polygon fill="#f5f5f5" stroke="transparent" points="733.5,-846.7 733.5,-869.7 842.5,-869.7 842.5,-846.7 733.5,-846.7"/>
<polygon fill="none" stroke="#000000" points="733.5,-846.7 733.5,-869.7 842.5,-869.7 842.5,-846.7 733.5,-846.7"/>
<text text-anchor="start" x="738.5" y="-855.3" font-family="Helvetica,sans-Serif" font-weight="bold" font-size="11.00" fill="#000000">decisions</text>
<text text-anchor="start" x="807.5437" y="-854.8" font-family="Helvetica,sans-Serif" font-size="11.00" fill="#000000">[table]</text>
<polygon fill="none" stroke="#000000" points="733.5,-824.7 733.5,-846.7 842.5,-846.7 842.5,-824.7 733.5,-824.7"/>
<image xlink:href="../../images/primaryKeys.png" width="11px" height="12px" preserveAspectRatio="xMinYMin meet" x="738.5" y="-841.7"/>
<text text-anchor="start" x="753.5" y="-831.8" font-family="Helvetica,sans-Serif" font-size="11.00" fill="#000000">id</text>
<polygon fill="#ffffff" stroke="transparent" points="733.5,-802.7 733.5,-824.7 842.5,-824.7 842.5,-802.7 733.5,-802.7"/>
<polygon fill="none" stroke="#000000" points="733.5,-802.7 733.5,-824.7 842.5,-824.7 842.5,-802.7 733.5,-802.7"/>
<image xlink:href="../../images/foreignKeys.png" width="11px" height="12px" preserveAspectRatio="xMinYMin meet" x="738.5" y="-819.7"/>
<text text-anchor="start" x="753.5" y="-809.8" font-family="Helvetica,sans-Serif" font-size="11.00" fill="#000000">summary_id</text>
<polygon fill="none" stroke="#000000" points="733.5,-783.7 733.5,-802.7 842.5,-802.7 842.5,-783.7 733.5,-783.7"/>
<text text-anchor="start" x="736.5" y="-789.8" font-family="Helvetica,sans-Serif" font-size="11.00" fill="#000000">...</text>
<polygon fill="#ffffff" stroke="transparent" points="733.5,-764.7 733.5,-783.7 842.5,-783.7 842.5,-764.7 733.5,-764.7"/>
<polygon fill="none" stroke="#000000" points="733.5,-764.7 733.5,-783.7 842.5,-783.7 842.5,-764.7 733.5,-764.7"/>
<polygon fill="#ffffff" stroke="transparent" points="734.5,-765.7 734.5,-782.7 776.5,-782.7 776.5,-765.7 734.5,-765.7"/>
<text text-anchor="start" x="736.5" y="-770.8" font-family="Helvetica,sans-Serif" font-size="11.00" fill="#000000">&lt; 1</text>
<polygon fill="#ffffff" stroke="transparent" points="776.5,-765.7 776.5,-782.7 809.5,-782.7 809.5,-765.7 776.5,-765.7"/>
<text text-anchor="start" x="789.9431" y="-770.8" font-family="Helvetica,sans-Serif" font-size="11.00" fill="#000000"> &#160;</text>
<polygon fill="#ffffff" stroke="transparent" points="809.5,-765.7 809.5,-782.7 841.5,-782.7 841.5,-765.7 809.5,-765.7"/>
<text text-anchor="start" x="833.3862" y="-770.8" font-family="Helvetica,sans-Serif" font-size="11.00" fill="#000000"> &#160;</text>
<polygon fill="#000000" stroke="#000000" points="776.5,-765.7 776.5,-782.7 776.5,-782.7 776.5,-765.7 776.5,-765.7"/>
<polygon fill="#000000" stroke="#000000" points="809.5,-765.7 809.5,-782.7 809.5,-782.7 809.5,-765.7 809.5,-765.7"/>
</a>
</g>
</g>
<!-- decisions&#45;&gt;summaries -->
<g id="edge2" class="edge">
<title>decisions:w&#45;&gt;summaries:e</title>
<path fill="none" stroke="#000000" d="M719.0509,-811.419C699.1948,-804.0917 697.2599,-780.1434 685,-754.7 666.2602,-715.8087 687.6708,-564.7 644.5,-564.7"/>
<polygon fill="#000000" stroke="#000000" points="725.5979,-812.4525 732.9386,-817.256 729.5489,-813.0762 733.5,-813.7 733.5,-813.7 733.5,-813.7 729.5489,-813.0762 734.0614,-810.144 725.5979,-812.4525 725.5979,-812.4525"/>
<ellipse fill="none" stroke="#000000" cx="722.437" cy="-811.9534" rx="3.2" ry="3.2"/>
</g>
<!-- summaries&#45;&gt;summary_groups -->
<g id="edge4" class="edge">
<title>summaries:w&#45;&gt;summary_groups:e</title>
<path fill="none" stroke="#000000" d="M484.8428,-498.7C473.4139,-498.7 466.1563,-498.7 450,-498.7"/>
<polygon fill="#000000" stroke="#000000" points="491.5,-498.7001 499.5,-502.3 495.5,-498.7 499.5,-498.7 499.5,-498.7 499.5,-498.7 495.5,-498.7 499.5,-495.1 491.5,-498.7001 491.5,-498.7001"/>
<ellipse fill="none" stroke="#000000" cx="488.3" cy="-498.7001" rx="3.2" ry="3.2"/>
</g>
<!-- summaries&#45;&gt;users -->
<g id="edge5" class="edge">
<title>summaries:w&#45;&gt;users:e</title>
<path fill="none" stroke="#000000" d="M485.4974,-524.4136C476.7083,-529.9052 472.5146,-539.9468 458,-543.7 380.5475,-563.7277 339.5822,-594.7649 278,-543.7 203.1498,-481.633 334.7361,-328.7 237.5,-328.7"/>
<polygon fill="#000000" stroke="#000000" points="491.7673,-522.7508 500.4229,-524.1797 495.6337,-521.7254 499.5,-520.7 499.5,-520.7 499.5,-520.7 495.6337,-521.7254 498.5771,-517.2203 491.7673,-522.7508 491.7673,-522.7508"/>
<ellipse fill="none" stroke="#000000" cx="488.6742" cy="-523.5711" rx="3.2" ry="3.2"/>
</g>
<!-- transcript_segments -->
<g id="node5" class="node">
<title>transcript_segments</title>
<g id="a_node5"><a xlink:href="../../tables/transcript_segments.html" xlink:title="transcript_segments" target="_top">
<polygon fill="#ffffff" stroke="transparent" points="693,-617.2 693,-744.2 882,-744.2 882,-617.2 693,-617.2"/>
<polygon fill="#f5f5f5" stroke="transparent" points="693.5,-720.7 693.5,-743.7 882.5,-743.7 882.5,-720.7 693.5,-720.7"/>
<polygon fill="none" stroke="#000000" points="693.5,-720.7 693.5,-743.7 882.5,-743.7 882.5,-720.7 693.5,-720.7"/>
<text text-anchor="start" x="698.5" y="-729.3" font-family="Helvetica,sans-Serif" font-weight="bold" font-size="11.00" fill="#000000">transcript_segments</text>
<text text-anchor="start" x="848.0219" y="-728.8" font-family="Helvetica,sans-Serif" font-size="11.00" fill="#000000">[table]</text>
<polygon fill="none" stroke="#000000" points="693.5,-698.7 693.5,-720.7 882.5,-720.7 882.5,-698.7 693.5,-698.7"/>
<image xlink:href="../../images/primaryKeys.png" width="11px" height="12px" preserveAspectRatio="xMinYMin meet" x="698.5" y="-715.7"/>
<text text-anchor="start" x="722.5" y="-705.8" font-family="Helvetica,sans-Serif" font-size="11.00" fill="#000000">id</text>
<polygon fill="#ffffff" stroke="transparent" points="693.5,-676.7 693.5,-698.7 882.5,-698.7 882.5,-676.7 693.5,-676.7"/>
<polygon fill="none" stroke="#000000" points="693.5,-676.7 693.5,-698.7 882.5,-698.7 882.5,-676.7 693.5,-676.7"/>
<image xlink:href="../../images/foreignKeys.png" width="11px" height="12px" preserveAspectRatio="xMinYMin meet" x="698.5" y="-693.7"/>
<text text-anchor="start" x="722.5" y="-683.8" font-family="Helvetica,sans-Serif" font-size="11.00" fill="#000000">summary_id</text>
<polygon fill="#ffffff" stroke="transparent" points="693.5,-654.7 693.5,-676.7 882.5,-676.7 882.5,-654.7 693.5,-654.7"/>
<polygon fill="none" stroke="#000000" points="693.5,-654.7 693.5,-676.7 882.5,-676.7 882.5,-654.7 693.5,-654.7"/>
<text text-anchor="start" x="722.5" y="-661.8" font-family="Helvetica,sans-Serif" font-size="11.00" fill="#000000">rank</text>
<polygon fill="none" stroke="#000000" points="693.5,-635.7 693.5,-654.7 882.5,-654.7 882.5,-635.7 693.5,-635.7"/>
<text text-anchor="start" x="696.5" y="-641.8" font-family="Helvetica,sans-Serif" font-size="11.00" fill="#000000">...</text>
<polygon fill="#ffffff" stroke="transparent" points="693.5,-616.7 693.5,-635.7 882.5,-635.7 882.5,-616.7 693.5,-616.7"/>
<polygon fill="none" stroke="#000000" points="693.5,-616.7 693.5,-635.7 882.5,-635.7 882.5,-616.7 693.5,-616.7"/>
<polygon fill="#ffffff" stroke="transparent" points="694.5,-617.7 694.5,-634.7 763.5,-634.7 763.5,-617.7 694.5,-617.7"/>
<text text-anchor="start" x="696.5" y="-622.8" font-family="Helvetica,sans-Serif" font-size="11.00" fill="#000000">&lt; 1</text>
<polygon fill="#ffffff" stroke="transparent" points="763.5,-617.7 763.5,-634.7 822.5,-634.7 822.5,-617.7 763.5,-617.7"/>
<text text-anchor="start" x="789.9431" y="-622.8" font-family="Helvetica,sans-Serif" font-size="11.00" fill="#000000"> &#160;</text>
<polygon fill="#ffffff" stroke="transparent" points="822.5,-617.7 822.5,-634.7 881.5,-634.7 881.5,-617.7 822.5,-617.7"/>
<text text-anchor="start" x="873.3862" y="-622.8" font-family="Helvetica,sans-Serif" font-size="11.00" fill="#000000"> &#160;</text>
<polygon fill="#000000" stroke="#000000" points="763.5,-617.7 763.5,-634.7 763.5,-634.7 763.5,-617.7 763.5,-617.7"/>
<polygon fill="#000000" stroke="#000000" points="822.5,-617.7 822.5,-634.7 822.5,-634.7 822.5,-617.7 822.5,-617.7"/>
</a>
</g>
</g>
<!-- transcript_segments&#45;&gt;summaries -->
<g id="edge8" class="edge">
<title>transcript_segments:w&#45;&gt;summaries:e</title>
<path fill="none" stroke="#000000" d="M679.25,-684.1515C647.2922,-663.9844 697.3684,-564.7 644.5,-564.7"/>
<polygon fill="#000000" stroke="#000000" points="685.7371,-685.7668 692.6301,-691.1933 689.6185,-686.7334 693.5,-687.7 693.5,-687.7 693.5,-687.7 689.6185,-686.7334 694.3699,-684.2067 685.7371,-685.7668 685.7371,-685.7668"/>
<ellipse fill="none" stroke="#000000" cx="682.6319" cy="-684.9936" rx="3.2" ry="3.2"/>
</g>
<!-- action_items -->
<g id="node6" class="node">
<title>action_items</title>
<g id="a_node6"><a xlink:href="../../tables/action_items.html" xlink:title="action_items" target="_top">
<polygon fill="#ffffff" stroke="transparent" points="722,-491.2 722,-596.2 853,-596.2 853,-491.2 722,-491.2"/>
<polygon fill="#f5f5f5" stroke="transparent" points="722.5,-572.7 722.5,-595.7 853.5,-595.7 853.5,-572.7 722.5,-572.7"/>
<polygon fill="none" stroke="#000000" points="722.5,-572.7 722.5,-595.7 853.5,-595.7 853.5,-572.7 722.5,-572.7"/>
<text text-anchor="start" x="727.5" y="-581.3" font-family="Helvetica,sans-Serif" font-weight="bold" font-size="11.00" fill="#000000">action_items</text>
<text text-anchor="start" x="819.0219" y="-580.8" font-family="Helvetica,sans-Serif" font-size="11.00" fill="#000000">[table]</text>
<polygon fill="none" stroke="#000000" points="722.5,-550.7 722.5,-572.7 853.5,-572.7 853.5,-550.7 722.5,-550.7"/>
<image xlink:href="../../images/primaryKeys.png" width="11px" height="12px" preserveAspectRatio="xMinYMin meet" x="727.5" y="-567.7"/>
<text text-anchor="start" x="751.5" y="-557.8" font-family="Helvetica,sans-Serif" font-size="11.00" fill="#000000">id</text>
<polygon fill="#ffffff" stroke="transparent" points="722.5,-528.7 722.5,-550.7 853.5,-550.7 853.5,-528.7 722.5,-528.7"/>
<polygon fill="none" stroke="#000000" points="722.5,-528.7 722.5,-550.7 853.5,-550.7 853.5,-528.7 722.5,-528.7"/>
<image xlink:href="../../images/foreignKeys.png" width="11px" height="12px" preserveAspectRatio="xMinYMin meet" x="727.5" y="-545.7"/>
<text text-anchor="start" x="751.5" y="-535.8" font-family="Helvetica,sans-Serif" font-size="11.00" fill="#000000">summary_id</text>
<polygon fill="none" stroke="#000000" points="722.5,-509.7 722.5,-528.7 853.5,-528.7 853.5,-509.7 722.5,-509.7"/>
<text text-anchor="start" x="725.5" y="-515.8" font-family="Helvetica,sans-Serif" font-size="11.00" fill="#000000">...</text>
<polygon fill="#ffffff" stroke="transparent" points="722.5,-490.7 722.5,-509.7 853.5,-509.7 853.5,-490.7 722.5,-490.7"/>
<polygon fill="none" stroke="#000000" points="722.5,-490.7 722.5,-509.7 853.5,-509.7 853.5,-490.7 722.5,-490.7"/>
<polygon fill="#ffffff" stroke="transparent" points="723.5,-491.7 723.5,-508.7 772.5,-508.7 772.5,-491.7 723.5,-491.7"/>
<text text-anchor="start" x="725.5" y="-496.8" font-family="Helvetica,sans-Serif" font-size="11.00" fill="#000000">&lt; 1</text>
<polygon fill="#ffffff" stroke="transparent" points="772.5,-491.7 772.5,-508.7 812.5,-508.7 812.5,-491.7 772.5,-491.7"/>
<text text-anchor="start" x="789.4431" y="-496.8" font-family="Helvetica,sans-Serif" font-size="11.00" fill="#000000"> &#160;</text>
<polygon fill="#ffffff" stroke="transparent" points="812.5,-491.7 812.5,-508.7 852.5,-508.7 852.5,-491.7 812.5,-491.7"/>
<text text-anchor="start" x="844.3862" y="-496.8" font-family="Helvetica,sans-Serif" font-size="11.00" fill="#000000"> &#160;</text>
<polygon fill="#000000" stroke="#000000" points="772.5,-491.7 772.5,-508.7 772.5,-508.7 772.5,-491.7 772.5,-491.7"/>
<polygon fill="#000000" stroke="#000000" points="812.5,-491.7 812.5,-508.7 812.5,-508.7 812.5,-491.7 812.5,-491.7"/>
</a>
</g>
</g>
<!-- action_items&#45;&gt;summaries -->
<g id="edge1" class="edge">
<title>action_items:w&#45;&gt;summaries:e</title>
<path fill="none" stroke="#000000" d="M708.1479,-541.189C683.867,-546.571 675.5001,-564.7 644.5,-564.7"/>
<polygon fill="#000000" stroke="#000000" points="714.5427,-540.5256 722.8715,-543.2808 718.5214,-540.1128 722.5,-539.7 722.5,-539.7 722.5,-539.7 718.5214,-540.1128 722.1285,-536.1192 714.5427,-540.5256 714.5427,-540.5256"/>
<ellipse fill="none" stroke="#000000" cx="711.3598" cy="-540.8558" rx="3.2" ry="3.2"/>
</g>
<!-- alembic_version -->
<g id="node7" class="node">
<title>alembic_version</title>
<g id="a_node7"><a xlink:href="../../tables/alembic_version.html" xlink:title="alembic_version" target="_top">
<polygon fill="#ffffff" stroke="transparent" points="8,-982.7 8,-1046.7 164,-1046.7 164,-982.7 8,-982.7"/>
<polygon fill="#f5f5f5" stroke="transparent" points="8,-1023.7 8,-1046.7 164,-1046.7 164,-1023.7 8,-1023.7"/>
<polygon fill="none" stroke="#000000" points="8,-1023.7 8,-1046.7 164,-1046.7 164,-1023.7 8,-1023.7"/>
<text text-anchor="start" x="13" y="-1032.3" font-family="Helvetica,sans-Serif" font-weight="bold" font-size="11.00" fill="#000000">alembic_version</text>
<text text-anchor="start" x="129.5219" y="-1031.8" font-family="Helvetica,sans-Serif" font-size="11.00" fill="#000000">[table]</text>
<polygon fill="none" stroke="#000000" points="8,-1001.7 8,-1023.7 164,-1023.7 164,-1001.7 8,-1001.7"/>
<image xlink:href="../../images/primaryKeys.png" width="11px" height="12px" preserveAspectRatio="xMinYMin meet" x="13" y="-1018.7"/>
<text text-anchor="start" x="37" y="-1008.8" font-family="Helvetica,sans-Serif" font-size="11.00" fill="#000000">version_num</text>
<polygon fill="#ffffff" stroke="transparent" points="8,-982.7 8,-1001.7 164,-1001.7 164,-982.7 8,-982.7"/>
<polygon fill="none" stroke="#000000" points="8,-982.7 8,-1001.7 164,-1001.7 164,-982.7 8,-982.7"/>
<polygon fill="#ffffff" stroke="transparent" points="9,-983.7 9,-1000.7 61,-1000.7 61,-983.7 9,-983.7"/>
<text text-anchor="start" x="11" y="-988.8" font-family="Helvetica,sans-Serif" font-size="11.00" fill="#000000"> &#160;</text>
<polygon fill="#ffffff" stroke="transparent" points="61,-983.7 61,-1000.7 112,-1000.7 112,-983.7 61,-983.7"/>
<text text-anchor="start" x="83.4431" y="-988.8" font-family="Helvetica,sans-Serif" font-size="11.00" fill="#000000"> &#160;</text>
<polygon fill="#ffffff" stroke="transparent" points="112,-983.7 112,-1000.7 163,-1000.7 163,-983.7 112,-983.7"/>
<text text-anchor="start" x="154.8862" y="-988.8" font-family="Helvetica,sans-Serif" font-size="11.00" fill="#000000"> &#160;</text>
<polygon fill="#000000" stroke="#000000" points="61,-983.7 61,-1000.7 61,-1000.7 61,-983.7 61,-983.7"/>
<polygon fill="#000000" stroke="#000000" points="112,-983.7 112,-1000.7 112,-1000.7 112,-983.7 112,-983.7"/>
</a>
</g>
</g>
<!-- oauth_identities -->
<g id="node9" class="node">
<title>oauth_identities</title>
<g id="a_node9"><a xlink:href="../../tables/oauth_identities.html" xlink:title="oauth_identities" target="_top">
<polygon fill="#ffffff" stroke="transparent" points="289.5,-236.2 289.5,-385.2 446.5,-385.2 446.5,-236.2 289.5,-236.2"/>
<polygon fill="#f5f5f5" stroke="transparent" points="290,-361.7 290,-384.7 447,-384.7 447,-361.7 290,-361.7"/>
<polygon fill="none" stroke="#000000" points="290,-361.7 290,-384.7 447,-384.7 447,-361.7 290,-361.7"/>
<text text-anchor="start" x="295" y="-370.3" font-family="Helvetica,sans-Serif" font-weight="bold" font-size="11.00" fill="#000000">oauth_identities</text>
<text text-anchor="start" x="412.5219" y="-369.8" font-family="Helvetica,sans-Serif" font-size="11.00" fill="#000000">[table]</text>
<polygon fill="none" stroke="#000000" points="290,-339.7 290,-361.7 447,-361.7 447,-339.7 290,-339.7"/>
<image xlink:href="../../images/primaryKeys.png" width="11px" height="12px" preserveAspectRatio="xMinYMin meet" x="295" y="-356.7"/>
<text text-anchor="start" x="319" y="-346.8" font-family="Helvetica,sans-Serif" font-size="11.00" fill="#000000">id</text>
<polygon fill="#ffffff" stroke="transparent" points="290,-317.7 290,-339.7 447,-339.7 447,-317.7 290,-317.7"/>
<polygon fill="none" stroke="#000000" points="290,-317.7 290,-339.7 447,-339.7 447,-317.7 290,-317.7"/>
<image xlink:href="../../images/foreignKeys.png" width="11px" height="12px" preserveAspectRatio="xMinYMin meet" x="295" y="-334.7"/>
<text text-anchor="start" x="319" y="-324.8" font-family="Helvetica,sans-Serif" font-size="11.00" fill="#000000">user_id</text>
<polygon fill="#ffffff" stroke="transparent" points="290,-295.7 290,-317.7 447,-317.7 447,-295.7 290,-295.7"/>
<polygon fill="none" stroke="#000000" points="290,-295.7 290,-317.7 447,-317.7 447,-295.7 290,-295.7"/>
<text text-anchor="start" x="319" y="-302.8" font-family="Helvetica,sans-Serif" font-size="11.00" fill="#000000">provider</text>
<polygon fill="#ffffff" stroke="transparent" points="290,-273.7 290,-295.7 447,-295.7 447,-273.7 290,-273.7"/>
<polygon fill="none" stroke="#000000" points="290,-273.7 290,-295.7 447,-295.7 447,-273.7 290,-273.7"/>
<text text-anchor="start" x="319" y="-280.8" font-family="Helvetica,sans-Serif" font-size="11.00" fill="#000000">subject</text>
<polygon fill="none" stroke="#000000" points="290,-254.7 290,-273.7 447,-273.7 447,-254.7 290,-254.7"/>
<text text-anchor="start" x="293" y="-260.8" font-family="Helvetica,sans-Serif" font-size="11.00" fill="#000000">...</text>
<polygon fill="#ffffff" stroke="transparent" points="290,-235.7 290,-254.7 447,-254.7 447,-235.7 290,-235.7"/>
<polygon fill="none" stroke="#000000" points="290,-235.7 290,-254.7 447,-254.7 447,-235.7 290,-235.7"/>
<polygon fill="#ffffff" stroke="transparent" points="291,-236.7 291,-253.7 349,-253.7 349,-236.7 291,-236.7"/>
<text text-anchor="start" x="293" y="-241.8" font-family="Helvetica,sans-Serif" font-size="11.00" fill="#000000">&lt; 1</text>
<polygon fill="#ffffff" stroke="transparent" points="349,-236.7 349,-253.7 398,-253.7 398,-236.7 349,-236.7"/>
<text text-anchor="start" x="370.4431" y="-241.8" font-family="Helvetica,sans-Serif" font-size="11.00" fill="#000000"> &#160;</text>
<polygon fill="#ffffff" stroke="transparent" points="398,-236.7 398,-253.7 446,-253.7 446,-236.7 398,-236.7"/>
<text text-anchor="start" x="437.8862" y="-241.8" font-family="Helvetica,sans-Serif" font-size="11.00" fill="#000000"> &#160;</text>
<polygon fill="#000000" stroke="#000000" points="349,-236.7 349,-253.7 349,-253.7 349,-236.7 349,-236.7"/>
<polygon fill="#000000" stroke="#000000" points="398,-236.7 398,-253.7 398,-253.7 398,-236.7 398,-236.7"/>
</a>
</g>
</g>
<!-- oauth_identities&#45;&gt;users -->
<g id="edge3" class="edge">
<title>oauth_identities:w&#45;&gt;users:e</title>
<path fill="none" stroke="#000000" d="M275.2344,-328.7C262.6563,-328.7 255,-328.7 237.5,-328.7"/>
<polygon fill="#000000" stroke="#000000" points="282,-328.7001 290,-332.3 286,-328.7 290,-328.7 290,-328.7 290,-328.7 286,-328.7 290,-325.1 282,-328.7001 282,-328.7001"/>
<ellipse fill="none" stroke="#000000" cx="278.8" cy="-328.7001" rx="3.2" ry="3.2"/>
</g>
<!-- transcription_jobs -->
<g id="node10" class="node">
<title>transcription_jobs</title>
<g id="a_node10"><a xlink:href="../../tables/transcription_jobs.html" xlink:title="transcription_jobs" target="_top">
<polygon fill="#ffffff" stroke="transparent" points="702,-125.2 702,-318.2 873,-318.2 873,-125.2 702,-125.2"/>
<polygon fill="#f5f5f5" stroke="transparent" points="702.5,-294.7 702.5,-317.7 873.5,-317.7 873.5,-294.7 702.5,-294.7"/>
<polygon fill="none" stroke="#000000" points="702.5,-294.7 702.5,-317.7 873.5,-317.7 873.5,-294.7 702.5,-294.7"/>
<text text-anchor="start" x="707.5" y="-303.3" font-family="Helvetica,sans-Serif" font-weight="bold" font-size="11.00" fill="#000000">transcription_jobs</text>
<text text-anchor="start" x="839.0219" y="-302.8" font-family="Helvetica,sans-Serif" font-size="11.00" fill="#000000">[table]</text>
<polygon fill="none" stroke="#000000" points="702.5,-272.7 702.5,-294.7 873.5,-294.7 873.5,-272.7 702.5,-272.7"/>
<image xlink:href="../../images/primaryKeys.png" width="11px" height="12px" preserveAspectRatio="xMinYMin meet" x="707.5" y="-289.7"/>
<text text-anchor="start" x="731.5" y="-279.8" font-family="Helvetica,sans-Serif" font-size="11.00" fill="#000000">id</text>
<polygon fill="#ffffff" stroke="transparent" points="702.5,-250.7 702.5,-272.7 873.5,-272.7 873.5,-250.7 702.5,-250.7"/>
<polygon fill="none" stroke="#000000" points="702.5,-250.7 702.5,-272.7 873.5,-272.7 873.5,-250.7 702.5,-250.7"/>
<image xlink:href="../../images/foreignKeys.png" width="11px" height="12px" preserveAspectRatio="xMinYMin meet" x="707.5" y="-267.7"/>
<text text-anchor="start" x="731.5" y="-257.8" font-family="Helvetica,sans-Serif" font-size="11.00" fill="#000000">user_id</text>
<polygon fill="#ffffff" stroke="transparent" points="702.5,-228.7 702.5,-250.7 873.5,-250.7 873.5,-228.7 702.5,-228.7"/>
<polygon fill="none" stroke="#000000" points="702.5,-228.7 702.5,-250.7 873.5,-250.7 873.5,-228.7 702.5,-228.7"/>
<text text-anchor="start" x="731.5" y="-235.8" font-family="Helvetica,sans-Serif" font-size="11.00" fill="#000000">status</text>
<polygon fill="#ffffff" stroke="transparent" points="702.5,-206.7 702.5,-228.7 873.5,-228.7 873.5,-206.7 702.5,-206.7"/>
<polygon fill="none" stroke="#000000" points="702.5,-206.7 702.5,-228.7 873.5,-228.7 873.5,-206.7 702.5,-206.7"/>
<text text-anchor="start" x="731.5" y="-213.8" font-family="Helvetica,sans-Serif" font-size="11.00" fill="#000000">content_hash</text>
<polygon fill="#ffffff" stroke="transparent" points="702.5,-184.7 702.5,-206.7 873.5,-206.7 873.5,-184.7 702.5,-184.7"/>
<polygon fill="none" stroke="#000000" points="702.5,-184.7 702.5,-206.7 873.5,-206.7 873.5,-184.7 702.5,-184.7"/>
<image xlink:href="../../images/foreignKeys.png" width="11px" height="12px" preserveAspectRatio="xMinYMin meet" x="707.5" y="-201.7"/>
<text text-anchor="start" x="731.5" y="-191.8" font-family="Helvetica,sans-Serif" font-size="11.00" fill="#000000">summary_id</text>
<polygon fill="#ffffff" stroke="transparent" points="702.5,-162.7 702.5,-184.7 873.5,-184.7 873.5,-162.7 702.5,-162.7"/>
<polygon fill="none" stroke="#000000" points="702.5,-162.7 702.5,-184.7 873.5,-184.7 873.5,-162.7 702.5,-162.7"/>
<text text-anchor="start" x="731.5" y="-169.8" font-family="Helvetica,sans-Serif" font-size="11.00" fill="#000000">created_at</text>
<polygon fill="none" stroke="#000000" points="702.5,-143.7 702.5,-162.7 873.5,-162.7 873.5,-143.7 702.5,-143.7"/>
<text text-anchor="start" x="705.5" y="-149.8" font-family="Helvetica,sans-Serif" font-size="11.00" fill="#000000">...</text>
<polygon fill="#ffffff" stroke="transparent" points="702.5,-124.7 702.5,-143.7 873.5,-143.7 873.5,-124.7 702.5,-124.7"/>
<polygon fill="none" stroke="#000000" points="702.5,-124.7 702.5,-143.7 873.5,-143.7 873.5,-124.7 702.5,-124.7"/>
<polygon fill="#ffffff" stroke="transparent" points="703.5,-125.7 703.5,-142.7 766.5,-142.7 766.5,-125.7 703.5,-125.7"/>
<text text-anchor="start" x="705.5" y="-130.8" font-family="Helvetica,sans-Serif" font-size="11.00" fill="#000000">&lt; 2</text>
<polygon fill="#ffffff" stroke="transparent" points="766.5,-125.7 766.5,-142.7 819.5,-142.7 819.5,-125.7 766.5,-125.7"/>
<text text-anchor="start" x="789.9431" y="-130.8" font-family="Helvetica,sans-Serif" font-size="11.00" fill="#000000"> &#160;</text>
<polygon fill="#ffffff" stroke="transparent" points="819.5,-125.7 819.5,-142.7 872.5,-142.7 872.5,-125.7 819.5,-125.7"/>
<text text-anchor="start" x="864.3862" y="-130.8" font-family="Helvetica,sans-Serif" font-size="11.00" fill="#000000"> &#160;</text>
<polygon fill="#000000" stroke="#000000" points="766.5,-125.7 766.5,-142.7 766.5,-142.7 766.5,-125.7 766.5,-125.7"/>
<polygon fill="#000000" stroke="#000000" points="819.5,-125.7 819.5,-142.7 819.5,-142.7 819.5,-125.7 819.5,-125.7"/>
</a>
</g>
</g>
<!-- transcription_jobs&#45;&gt;summaries -->
<g id="edge9" class="edge">
<title>transcription_jobs:w&#45;&gt;summaries:e</title>
<path fill="none" stroke="#000000" d="M688.7282,-200.1011C632.6233,-241.7335 722.1567,-564.7 644.5,-564.7"/>
<polygon fill="#000000" stroke="#000000" points="694.8797,-198.1353 703.5959,-199.1292 698.6898,-196.9176 702.5,-195.7 702.5,-195.7 702.5,-195.7 698.6898,-196.9176 701.4041,-192.2708 694.8797,-198.1353 694.8797,-198.1353"/>
<ellipse fill="none" stroke="#000000" cx="691.8315" cy="-199.1094" rx="3.2" ry="3.2"/>
</g>
<!-- transcription_jobs&#45;&gt;users -->
<g id="edge10" class="edge">
<title>transcription_jobs:w&#45;&gt;users:e</title>
<path fill="none" stroke="#000000" d="M687.8677,-261.1119C584.1471,-253.4797 352.4947,-174.945 278,-225.7 237.349,-253.3965 286.6895,-328.7 237.5,-328.7"/>
<polygon fill="#000000" stroke="#000000" points="694.5065,-261.3787 702.3554,-265.2971 698.5032,-261.5393 702.5,-261.7 702.5,-261.7 702.5,-261.7 698.5032,-261.5393 702.6446,-258.1029 694.5065,-261.3787 694.5065,-261.3787"/>
<ellipse fill="none" stroke="#000000" cx="691.309" cy="-261.2502" rx="3.2" ry="3.2"/>
</g>
<!-- user_sessions -->
<g id="node11" class="node">
<title>user_sessions</title>
<g id="a_node11"><a xlink:href="../../tables/user_sessions.html" xlink:title="user_sessions" target="_top">
<polygon fill="#ffffff" stroke="transparent" points="298,-38.2 298,-187.2 438,-187.2 438,-38.2 298,-38.2"/>
<polygon fill="#f5f5f5" stroke="transparent" points="298,-163.7 298,-186.7 438,-186.7 438,-163.7 298,-163.7"/>
<polygon fill="none" stroke="#000000" points="298,-163.7 298,-186.7 438,-186.7 438,-163.7 298,-163.7"/>
<text text-anchor="start" x="303" y="-172.3" font-family="Helvetica,sans-Serif" font-weight="bold" font-size="11.00" fill="#000000">user_sessions</text>
<text text-anchor="start" x="403.5219" y="-171.8" font-family="Helvetica,sans-Serif" font-size="11.00" fill="#000000">[table]</text>
<polygon fill="none" stroke="#000000" points="298,-141.7 298,-163.7 438,-163.7 438,-141.7 298,-141.7"/>
<image xlink:href="../../images/primaryKeys.png" width="11px" height="12px" preserveAspectRatio="xMinYMin meet" x="303" y="-158.7"/>
<text text-anchor="start" x="327" y="-148.8" font-family="Helvetica,sans-Serif" font-size="11.00" fill="#000000">id</text>
<polygon fill="#ffffff" stroke="transparent" points="298,-119.7 298,-141.7 438,-141.7 438,-119.7 298,-119.7"/>
<polygon fill="none" stroke="#000000" points="298,-119.7 298,-141.7 438,-141.7 438,-119.7 298,-119.7"/>
<image xlink:href="../../images/foreignKeys.png" width="11px" height="12px" preserveAspectRatio="xMinYMin meet" x="303" y="-136.7"/>
<text text-anchor="start" x="327" y="-126.8" font-family="Helvetica,sans-Serif" font-size="11.00" fill="#000000">user_id</text>
<polygon fill="#ffffff" stroke="transparent" points="298,-97.7 298,-119.7 438,-119.7 438,-97.7 298,-97.7"/>
<polygon fill="none" stroke="#000000" points="298,-97.7 298,-119.7 438,-119.7 438,-97.7 298,-97.7"/>
<text text-anchor="start" x="327" y="-104.8" font-family="Helvetica,sans-Serif" font-size="11.00" fill="#000000">token_hash</text>
<polygon fill="#ffffff" stroke="transparent" points="298,-75.7 298,-97.7 438,-97.7 438,-75.7 298,-75.7"/>
<polygon fill="none" stroke="#000000" points="298,-75.7 298,-97.7 438,-97.7 438,-75.7 298,-75.7"/>
<text text-anchor="start" x="327" y="-82.8" font-family="Helvetica,sans-Serif" font-size="11.00" fill="#000000">expires_at</text>
<polygon fill="none" stroke="#000000" points="298,-56.7 298,-75.7 438,-75.7 438,-56.7 298,-56.7"/>
<text text-anchor="start" x="301" y="-62.8" font-family="Helvetica,sans-Serif" font-size="11.00" fill="#000000">...</text>
<polygon fill="#ffffff" stroke="transparent" points="298,-37.7 298,-56.7 438,-56.7 438,-37.7 298,-37.7"/>
<polygon fill="none" stroke="#000000" points="298,-37.7 298,-56.7 438,-56.7 438,-37.7 298,-37.7"/>
<polygon fill="#ffffff" stroke="transparent" points="299,-38.7 299,-55.7 351,-55.7 351,-38.7 299,-38.7"/>
<text text-anchor="start" x="301" y="-43.8" font-family="Helvetica,sans-Serif" font-size="11.00" fill="#000000">&lt; 1</text>
<polygon fill="#ffffff" stroke="transparent" points="351,-38.7 351,-55.7 394,-55.7 394,-38.7 351,-38.7"/>
<text text-anchor="start" x="369.4431" y="-43.8" font-family="Helvetica,sans-Serif" font-size="11.00" fill="#000000"> &#160;</text>
<polygon fill="#ffffff" stroke="transparent" points="394,-38.7 394,-55.7 437,-55.7 437,-38.7 394,-38.7"/>
<text text-anchor="start" x="428.8862" y="-43.8" font-family="Helvetica,sans-Serif" font-size="11.00" fill="#000000"> &#160;</text>
<polygon fill="#000000" stroke="#000000" points="351,-38.7 351,-55.7 351,-55.7 351,-38.7 351,-38.7"/>
<polygon fill="#000000" stroke="#000000" points="394,-38.7 394,-55.7 394,-55.7 394,-38.7 394,-38.7"/>
</a>
</g>
</g>
<!-- user_sessions&#45;&gt;users -->
<g id="edge11" class="edge">
<title>user_sessions:w&#45;&gt;users:e</title>
<path fill="none" stroke="#000000" d="M283.561,-132.7897C220.1525,-153.9507 323.9451,-328.7 237.5,-328.7"/>
<polygon fill="#000000" stroke="#000000" points="290.0825,-131.8459 298.5157,-134.2629 294.0412,-131.2729 298,-130.7 298,-130.7 298,-130.7 294.0412,-131.2729 297.4843,-127.1371 290.0825,-131.8459 290.0825,-131.8459"/>
<ellipse fill="none" stroke="#000000" cx="286.9155" cy="-132.3043" rx="3.2" ry="3.2"/>
</g>
</g>
</svg>
